<?xml version="1.0" encoding="utf-8"?>
<!-- Generator: Adobe Illustrator 24.1.1, SVG Export Plug-In . SVG Version: 6.00 Build 0)  -->
<svg version="1.1" id="レイヤー_1" xmlns="http://www.w3.org/2000/svg" xmlns:xlink="http://www.w3.org/1999/xlink" x="0px"
	 y="0px" viewBox="0 0 80 36" style="enable-background:new 0 0 80 36;" xml:space="preserve">
<style type="text/css">
	.st0{fill:#92509C;}
	.st1{fill:none;}
	.st2{fill:#FFFFFF;}
	.st3{font-family:'SegoeUI-Bold';}
	.st4{font-size:24px;}
</style>
<g id="Group_210" transform="translate(-577 -911)">
	<g id="Rectangle_718" transform="translate(577 911)">
		<path class="st0" d="M5,0h70c2.8,0,5,2.2,5,5v26c0,2.8-2.2,5-5,5H5c-2.8,0-5-2.2-5-5V5C0,2.2,2.2,0,5,0z"/>
		<path class="st1" d="M5,0.5h70c2.5,0,4.5,2,4.5,4.5v26c0,2.5-2,4.5-4.5,4.5H5c-2.5,0-4.5-2-4.5-4.5V5C0.5,2.5,2.5,0.5,5,0.5z"/>
	</g>
	<text transform="matrix(1 0 0 1 599.275 939)" class="st2 st3 st4">PM</text>
</g>
</svg>
