<?xml version="1.0" encoding="utf-8"?>
<!-- Generator: Adobe Illustrator 24.1.1, SVG Export Plug-In . SVG Version: 6.00 Build 0)  -->
<svg version="1.1" id="レイヤー_1" xmlns="http://www.w3.org/2000/svg" xmlns:xlink="http://www.w3.org/1999/xlink" x="0px"
	 y="0px" viewBox="0 0 480 311" style="enable-background:new 0 0 480 311;" xml:space="preserve">
<style type="text/css">
	.st0{fill:#006AB0;}
	.st1{fill:#B06CAA;}
	.st2{fill:#00A7EA;}
	.st3{fill:#FFFFFF;}
	.st4{fill:#2289AD;}
	.st5{fill:none;stroke:#2289AD;stroke-width:4.0037;stroke-miterlimit:10;stroke-dasharray:0.4002,1.2006;}
	.st6{fill:none;stroke:#2289AD;stroke-width:0.5005;stroke-linecap:round;stroke-linejoin:round;stroke-miterlimit:10;}
	.st7{clip-path:url(#SVGID_2_);}
	.st8{clip-path:url(#SVGID_4_);}
	.st9{fill:none;}
</style>
<g>
	
		<ellipse transform="matrix(1 -8.596627e-03 8.596627e-03 1 -0.9373 2.0673)" class="st0" cx="240" cy="110.1" rx="107.8" ry="107.8"/>
	<g>
		<g>
			<path class="st1" d="M240,110.1V2.2c59.6,0,107.8,48.3,107.8,107.8c0,59.6-48.3,107.8-107.8,107.8
				c-59.6,0-107.8-48.3-107.8-107.8c0-8.6,0.6-14,2.4-22.4L240,110.1z"/>
		</g>
	</g>
	<g>
		<g>
			<path class="st2" d="M240,110.1L134.5,87.6c5.7-26.8,19.9-48.7,42.1-64.8L240,110.1z"/>
		</g>
	</g>
	<g>
		<path class="st3" d="M267,125.4v4.2h6.4v1.2H267v5.5h-1.5v-12.2h8.5v1.3H267z"/>
		<path class="st3" d="M286.9,136.4v-10.7l-3.9,10.7h-1.4l-3.9-10.7v10.7h-1.4v-12.2h2.2l3.8,10.4l3.8-10.4h2.2v12.2H286.9z"/>
		<path class="st3" d="M261.1,154.9c0.3-2.9,2-4.1,5.1-5.9c1.8-1,2.6-1.5,2.6-3c0-1.9-1.6-2.4-2.7-2.4c-2.9,0-3,2.4-3,3.1h-1.6
			c0.1-0.7,0.1-1.9,1.1-2.9c1.2-1.3,2.9-1.4,3.5-1.4c1.7,0,4.2,0.8,4.2,3.6c0,2.2-1.3,3.1-3.5,4.3c-3.1,1.6-3.5,2.7-3.8,3.5h7.3v1.3
			H261.1z"/>
		<path class="st3" d="M276.8,155.3c-1.4,0-2.9-0.4-3.8-1.7c-0.7-0.9-0.7-1.8-0.8-2.4h1.5c0,0.6,0.2,2.8,3.1,2.8
			c2.1,0,3.1-1.2,3.1-2.7c0-1.8-1.5-2.3-2.8-2.3h-1.3v-1.1h1.1c0.9,0,2.6-0.5,2.6-2.1c0-0.9-0.5-2.1-2.6-2.1c-0.8,0-1.6,0.2-2.2,0.8
			c-0.5,0.6-0.6,1.2-0.6,1.7h-1.5c0.2-3,2.4-3.8,4.3-3.8c2.4,0,4.1,1.3,4.1,3.2c0,2.1-1.6,2.6-2.1,2.8c0.7,0.2,2.5,0.6,2.5,3
			C281.4,153.5,279.8,155.3,276.8,155.3z"/>
		<path class="st3" d="M287.8,155.3c-3.7,0-4.6-3.4-4.6-6.4c0-3.1,0.9-6.4,4.6-6.4c3.7,0,4.6,3.4,4.6,6.4
			C292.4,151.9,291.5,155.3,287.8,155.3z M287.8,143.6c-2.4,0-3,2.4-3,5.2c0,2.9,0.7,5.2,3,5.2c2.4,0,3-2.3,3-5.2
			C290.8,146,290.1,143.6,287.8,143.6z"/>
	</g>
	<g>
		<path class="st3" d="M164.7,62.3h-4.2v5h-1.5V55.1h5.7c2,0,3.5,1.3,3.5,3.6C168.3,60.8,167,62.3,164.7,62.3z M164.6,56.4h-4v4.7h4
			c1.5,0,2.1-1.1,2.1-2.4C166.7,57.3,166,56.4,164.6,56.4z"/>
		<path class="st3" d="M181.5,67.3V56.6l-3.9,10.7h-1.4l-3.9-10.7v10.7h-1.4V55.1h2.2l3.8,10.4l3.8-10.4h2.2v12.2H181.5z"/>
		<path class="st3" d="M168.3,83v2.9h-1.5V83h-5.9v-1.3l6.1-8h1.4v8h1.8V83H168.3z M166.8,75.8l-4.5,5.9h4.5V75.8z"/>
		<path class="st3" d="M175.9,85.9V77h-2.6v-1.1c1.1-0.1,2.4-0.2,3-2.2h1.2v12.2H175.9z"/>
	</g>
	<g>
		<path class="st3" d="M192.7,23.6l0.2,0.2c0,0,0.1,0.1,0.1,0.2c0,0.1-0.1,0.1-0.2,0.1c-0.1,0.3-0.3,0.5-0.4,0.7h2.3v0.7H191v0.8
			h3.6V27H191v0.9h4.6v0.8h-3.8c1.2,1.2,2.4,1.8,3.6,2.1l-0.7,0.9c-1.5-0.6-2.6-1.4-3.7-2.6V32h-0.8v-3c-0.8,0.9-1.9,1.8-3.8,2.8
			l-0.5-0.8c0.9-0.4,2.1-0.9,3.5-2.3h-3.8v-0.8h4.6V27h-3.8v-0.8h3.8v-0.8h-3.9v-0.7h2.3c-0.2-0.4-0.3-0.5-0.5-0.8l0.3-0.3h-3v-0.8
			h3.7v-2.5l0.8,0.1c0.1,0,0.2,0.1,0.2,0.1c0,0.1-0.1,0.2-0.2,0.2v2.1h1.2v-2.5l0.8,0.1c0.2,0,0.2,0.1,0.2,0.1
			c0,0.1-0.1,0.2-0.2,0.2v2.1h3.8v0.8H192.7z M187.9,22.6c-0.2-0.5-0.4-0.9-1-1.6l0.6-0.5c0.5,0.5,0.8,0.9,1.1,1.6L187.9,22.6z
			 M188.9,23.6c0.2,0.3,0.4,0.5,0.5,0.8l-0.5,0.3h3l-0.3-0.3c0.3-0.4,0.4-0.5,0.5-0.8H188.9z M194,21.1c-0.3,0.6-0.6,0.9-1.1,1.4
			l-0.5-0.6c0.6-0.6,0.9-1.1,1.2-1.6l0.5,0.4c0.1,0.1,0.2,0.1,0.2,0.2C194.3,21.2,194.1,21.1,194,21.1z"/>
		<path class="st3" d="M201,27l-0.7-0.4c0.3-0.5,0.5-0.7,0.8-1.1H200v5.8c0,0.6,0,1-1.4,1l-0.4-1c0.2,0,0.4,0.1,0.6,0.1
			c0.4,0,0.4-0.2,0.4-0.4v-3.7c-0.6,1.3-1.1,2.2-1.6,2.9l-0.7-0.5c0.7-1,1.4-2.2,2.2-4.1h-1.8v-0.8h4.8l0.3,0.3
			C201.8,25.8,201.5,26.2,201,27z M200,23.4c0.3,0.3,0.3,0.3,0.4,0.4l-0.5,0.7c-0.5-0.5-1-1-1.8-1.6l0.5-0.7
			c0.1,0.1,0.5,0.4,0.8,0.6c0.3-0.3,0.7-0.7,1.1-1.2h-3.2v-0.8h4.2l0.3,0.4C201.3,22,200.8,22.5,200,23.4z M205,32l-0.3-1.1
			c0.4,0.1,0.5,0.1,0.8,0.1c0.3,0,0.7-0.1,0.9-0.6c0.1-0.3,0.2-1.1,0.2-1.8h-2c-0.3,1-0.8,2.6-2.6,3.5l-0.7-0.7
			c1.4-0.6,2-1.5,2.4-2.7h-2.4v-0.8h2.5c0.1-0.6,0.1-1.1,0.1-1.5l0.9,0.2c0.1,0,0.2,0.1,0.2,0.2c0,0.1-0.2,0.2-0.3,0.3
			c0,0.3-0.1,0.6-0.1,0.9h2.8C207.2,31.8,206.9,31.9,205,32z M206.9,26.6c-0.8-0.4-1.4-0.7-2-1.2c-0.8,0.7-1.4,1.1-2.3,1.6l-0.6-0.8
			c0.9-0.3,1.7-0.7,2.4-1.4c-0.6-0.8-1-1.6-1.3-2.2c-0.4,0.7-0.6,1-0.8,1.3l-0.7-0.4c1-1.4,1.5-2.6,1.8-3.4l0.7,0.4
			c0,0,0.2,0.1,0.2,0.2c0,0.1-0.2,0.2-0.3,0.2c-0.2,0.5-0.3,0.7-0.4,0.8h3.8v0.8h-0.9c-0.2,0.8-0.5,1.4-1,2.2
			c0.7,0.5,1.2,0.8,2.1,1.1L206.9,26.6z M204,22.6c0.4,1,0.7,1.3,0.9,1.5c0.2-0.2,0.4-0.6,0.7-1.5H204z"/>
		<path class="st3" d="M212.1,26.2c0,0.6-0.5,1.2-1.1,1.2c-0.6,0-1-0.5-1-1.2c0-0.6,0.5-1.2,1-1.2C211.6,25,212.1,25.6,212.1,26.2z"
			/>
		<path class="st3" d="M216.6,20.5c0.5,0.4,0.8,0.8,1.3,1.4l-0.6,0.6h7.6v2.6H224v-1.8h-8.4v2h-0.9v-2.8h2.5c-0.4-0.6-0.7-1-1.2-1.5
			L216.6,20.5z M223.9,28.3v3.8H223v-0.6h-6.4v0.6h-0.9v-3.8h2.9c0.3-0.5,0.5-0.8,0.7-1.1h-2.7v-2.8h6.2v2.8h-2.5
			c-0.3,0.5-0.5,0.8-0.8,1.1H223.9z M223,30.7v-1.6h-6.4v1.6H223z M222.1,25.1h-4.6v1.2h4.6V25.1z M219.2,20.2
			c0.4,0.5,0.9,1.1,1.3,1.8l-0.7,0.5c-0.3-0.6-0.6-1.1-1.2-1.9L219.2,20.2z M221.4,22c0.6-0.6,1-1.1,1.3-1.6l0.8,0.4
			c0.1,0,0.1,0.1,0.1,0.2c0,0.1-0.2,0.2-0.4,0.2c-0.7,0.8-1,1.2-1.2,1.3L221.4,22z"/>
		<path class="st3" d="M233.6,23.6l0.2,0.2c0,0,0.1,0.1,0.1,0.2c0,0.1-0.1,0.1-0.2,0.1c-0.1,0.3-0.3,0.5-0.4,0.7h2.3v0.7h-3.7v0.8
			h3.6V27h-3.6v0.9h4.6v0.8h-3.8c1.2,1.2,2.4,1.8,3.6,2.1l-0.7,0.9c-1.5-0.6-2.6-1.4-3.7-2.6V32h-0.8v-3c-0.8,0.9-1.9,1.8-3.8,2.8
			l-0.5-0.8c0.9-0.4,2.1-0.9,3.5-2.3h-3.8v-0.8h4.6V27h-3.8v-0.8h3.8v-0.8h-3.9v-0.7h2.3c-0.2-0.4-0.3-0.5-0.5-0.8l0.3-0.3h-3v-0.8
			h3.7v-2.5l0.8,0.1c0.1,0,0.2,0.1,0.2,0.1c0,0.1-0.1,0.2-0.2,0.2v2.1h1.2v-2.5l0.8,0.1c0.2,0,0.2,0.1,0.2,0.1
			c0,0.1-0.1,0.2-0.2,0.2v2.1h3.8v0.8H233.6z M228.8,22.6c-0.2-0.5-0.4-0.9-1-1.6l0.6-0.5c0.5,0.5,0.8,0.9,1.1,1.6L228.8,22.6z
			 M229.8,23.6c0.2,0.3,0.4,0.5,0.5,0.8l-0.5,0.3h3l-0.3-0.3c0.3-0.4,0.4-0.5,0.5-0.8H229.8z M234.9,21.1c-0.3,0.6-0.6,0.9-1.1,1.4
			l-0.5-0.6c0.6-0.6,0.9-1.1,1.2-1.6l0.5,0.4c0.1,0.1,0.2,0.1,0.2,0.2C235.2,21.2,235,21.1,234.9,21.1z"/>
		<path class="st3" d="M203.1,47.9c0.2-2.3,1.6-3.2,4-4.6c1.4-0.8,2.1-1.2,2.1-2.4c0-1.5-1.2-1.9-2.1-1.9c-2.2,0-2.3,1.9-2.4,2.4
			h-1.2c0-0.5,0.1-1.5,0.8-2.3c0.9-1,2.3-1.1,2.7-1.1c1.4,0,3.3,0.6,3.3,2.8c0,1.7-1,2.4-2.7,3.3c-2.4,1.3-2.7,2.1-3,2.7h5.7v1
			H203.1z"/>
		<path class="st3" d="M215.3,48.1c-2.3,0-3.6-1.2-3.6-2.8c0-1.8,1.5-2.4,2-2.6c-1-0.3-1.6-1.2-1.6-2.1c0-1.4,1.1-2.5,3.2-2.5
			c2.1,0,3.2,1.2,3.2,2.5c0,0.9-0.5,1.8-1.6,2.1c0.5,0.2,2,0.7,2,2.6C218.9,46.9,217.6,48.1,215.3,48.1z M215.3,43.2
			c-1.4,0-2.4,0.8-2.4,2c0,0.9,0.6,1.9,2.4,1.9c1.7,0,2.4-1,2.4-1.9C217.7,44,216.8,43.2,215.3,43.2z M215.3,39.1
			c-0.9,0-2,0.3-2,1.6s1.1,1.6,2,1.6c0.9,0,2-0.3,2-1.6C217.3,39.4,216.2,39.1,215.3,39.1z"/>
	</g>
</g>
<g>
	<g>
		<path class="st1" d="M109.9,291.1H96.3l22.2-57.2h-18.1v10.8H88.6v-22h43.5v11.2L109.9,291.1z"/>
		<path class="st1" d="M181.1,280c-1.1,2.5-2.6,4.7-4.5,6.4c-1.9,1.7-4.1,3-6.6,3.9c-2.5,0.9-5.2,1.3-7.9,1.3c-2.8,0-5.5-0.4-8-1.3
			c-2.5-0.9-4.7-2.2-6.6-3.9c-1.9-1.7-3.4-3.9-4.6-6.4c-1.1-2.5-1.7-5.4-1.7-8.7v-28.8c0-3.3,0.6-6.2,1.7-8.7
			c1.1-2.5,2.6-4.7,4.6-6.4c1.9-1.7,4.1-3,6.6-3.9c2.5-0.9,5.2-1.3,8-1.3c2.8,0,5.4,0.4,7.9,1.3c2.5,0.9,4.7,2.2,6.6,3.9
			c1.9,1.7,3.4,3.9,4.5,6.4c1.1,2.5,1.7,5.4,1.7,8.7v28.8C182.8,274.6,182.3,277.5,181.1,280z M170.2,242.7c0-2.9-0.8-5.2-2.3-6.8
			c-1.5-1.7-3.5-2.5-5.9-2.5c-2.4,0-4.4,0.8-5.9,2.5c-1.6,1.7-2.3,3.9-2.3,6.8v28.5c0,2.9,0.8,5.1,2.3,6.8c1.6,1.6,3.5,2.5,5.9,2.5
			c2.4,0,4.4-0.8,5.9-2.5c1.5-1.6,2.3-3.9,2.3-6.8V242.7z"/>
		<path class="st1" d="M203.3,268.9c0,4.8-2.4,7.5-6.2,7.5c-4.2,0-6.2-3.3-6.2-7.4c0-5.4,2.8-7.6,6.2-7.6
			C200.9,261.4,203.3,264.2,203.3,268.9z M194.7,268.9c0,1.1,0,4.3,2.4,4.3c2.4,0,2.4-3.2,2.4-4.3c0-1.2,0-4.4-2.4-4.4
			C194.7,264.6,194.7,267.8,194.7,268.9z M197.1,291.1l16-29.2h3.9l-16,29.2H197.1z M223.1,284.1c0,4.8-2.4,7.6-6.2,7.6
			c-4.2,0-6.2-3.4-6.2-7.4c0-5.4,2.8-7.7,6.2-7.7C220.7,276.5,223.1,279.3,223.1,284.1z M214.5,284.1c0,1.1,0,4.3,2.4,4.3
			c2.4,0,2.4-3.2,2.4-4.3c0-1.1,0-4.4-2.4-4.4C214.5,279.7,214.5,282.9,214.5,284.1z"/>
		<path class="st1" d="M231.4,288.9c-0.2,0.9-0.3,1.2-0.8,1.2c-0.4,0-0.6-0.5-0.9-1.4l-1.4-3.8c1.6-0.6,1.8-0.6,3.8-1.3v-23.5
			l3.7,0.2c0.6,0,1.9,0.1,1.9,0.6c0,0.3-0.3,0.6-0.4,0.7c-0.2,0.2-0.4,0.5-0.4,0.7v19.7c5-1.8,6.3-2.3,9.8-3.7v4.3
			C243.1,284,240.4,285.2,231.4,288.9z M259.9,291.5c-1.5-2.3-2.6-3.6-5.1-6.2c-2.2,2.6-4.6,4.9-11.5,7.6l-4.2-3.8
			c3.6-0.9,8-2,11.8-6.7c3.2-4,4.2-9.9,4.2-14.3c0-0.8,0-4.6-0.2-8.5l4.4,0.2c1.1,0,1.6,0.2,1.6,0.7c0,0.2,0,0.3-0.4,0.6
			c-0.4,0.3-0.4,0.5-0.5,0.6c-0.1,0.4,0,2.6,0,3.1c0,2.2-0.3,6.6-0.9,10.3c-0.3,1.8-0.7,3.2-1.8,6c2.7,2.9,4,4.3,6.2,7L259.9,291.5z
			 M246.6,271.4c-1.9-3.1-2.2-3.5-2.7-4.3c-1.4-1.9-2.3-2.8-3.2-3.6l3.7-2.9c2.4,2.4,4.6,5.1,6.5,8L246.6,271.4z"/>
		<path class="st1" d="M268.7,291.9v-4.4h13.9v-28.7l5.4,0.4c0.2,0,0.6,0.1,0.6,0.4c0,0.3-0.2,0.4-0.4,0.6c-0.2,0.1-0.6,0.3-0.6,0.5
			v9.8h13v4.6h-13v12.3h15.6v4.4H268.7z"/>
	</g>
	<g>
		<g>
			<g>
				<g>
					<path class="st4" d="M327.1,244.3H326c0.2-1.5,0.6-2.9,1.2-4.2c0.8-1.8,1.5-2.7,2.3-3.6h-5v-0.9h6.1v0.9
						C328.7,238.6,327.5,241.3,327.1,244.3z"/>
					<path class="st4" d="M332.2,241v-0.7h2.9v-0.8h-1.8v-0.8h1.8v-0.7h-1.6v-0.8h1.6v-0.8l0.8,0.1c0.1,0,0.2,0,0.2,0.1
						c0,0.1-0.1,0.2-0.2,0.3v0.3h1.6v0.8h-1.6v0.7h1.8v0.8h-1.8v0.8h2.8v0.7H332.2z M337.8,237.6v-1.5h-4.7v1.7h-0.8v-2.3h2.8v-1.2
						l0.9,0.1c0.1,0,0.1,0,0.1,0.1c0,0.1-0.1,0.2-0.2,0.2v0.7h2.7v2.2H337.8z M337.1,245v-0.5h-3.2v0.6h-0.8v-3.4h4.7v3.3H337.1z
						 M337.1,242.5h-3.2v1.2h3.2V242.5z M340.2,235.5v6.8h-0.8V235l0.8,0.1c0.1,0,0.2,0,0.2,0.1
						C340.5,235.3,340.3,235.4,340.2,235.5z M341.9,234.8v9.1c0,1.2-0.4,1.2-2.1,1.2l-0.2-0.9c0.5,0,1,0.1,1.1,0.1
						c0.5,0,0.5-0.2,0.5-0.6v-9.3l0.9,0.1c0,0,0.2,0,0.2,0.1C342.1,234.7,342,234.8,341.9,234.8z"/>
					<path class="st4" d="M344.6,243.9c-0.1,0.2-0.2,0.4-0.3,0.4c-0.1,0-0.1,0-0.2-0.2l-0.4-0.9c0.4-0.2,0.7-0.3,1.3-0.6v-7.8
						l0.9,0.1c0,0,0.2,0,0.2,0.1c0,0.1-0.1,0.2-0.2,0.3v6.8c1.5-0.8,2.4-1.3,3.2-1.8v1C347.6,242.2,346.1,243.1,344.6,243.9z
						 M353.3,244.8c-0.4-0.5-0.9-1.1-1.9-1.8c-0.5,0.6-1.4,1.4-3.9,1.9l-0.5-0.9c1.3-0.2,4-0.5,4.8-3.4c0.5-1.9,0.6-4.4,0.6-5.7
						l0.9,0.1c0.1,0,0.3,0,0.3,0.2c0,0.1-0.2,0.2-0.3,0.3c-0.1,2.8-0.1,2.8-0.2,3.4c-0.3,2.1-0.8,3-1,3.5c0.8,0.6,1.3,1.1,1.9,1.8
						L353.3,244.8z M349.4,238.7c-0.6-1-1.1-1.8-1.9-2.6l0.7-0.6c1,1,1.5,1.7,2,2.5L349.4,238.7z"/>
					<path class="st4" d="M355.5,244.6v-0.9h4.3v-9.3l0.8,0.1c0.1,0,0.2,0,0.2,0.1c0,0.1-0.1,0.1-0.2,0.2v3.6h3.9v0.9h-3.9v4.4h5
						v0.9H355.5z"/>
					<path class="st4" d="M367,238.4c1.1-0.2,1.8-0.4,2.4-0.6c0.1-0.6,0.2-1,0.2-2.5l1,0.4c-0.1,0.5-0.2,0.9-0.3,1.8
						c0.3,0,0.6-0.1,0.9-0.1c0.7,0,1.6,0.4,1.6,2.2c0,1-0.2,2.7-0.7,3.7c-0.4,0.9-1.1,0.9-1.5,0.9c-0.1,0-0.3,0-0.6,0l-0.4-1
						c0.5,0.1,0.7,0.1,0.9,0.1c0.3,0,0.7,0,1-0.8c0.1-0.3,0.4-1.4,0.4-2.6c0-0.7-0.1-1.6-1-1.6c-0.3,0-0.7,0.1-0.9,0.2
						c-0.5,2.2-1.1,4-2.3,6l-0.9-0.5c0.4-0.6,0.9-1.1,1.5-2.6c0.5-1.3,0.7-2.1,0.8-2.7c-0.2,0.1-0.9,0.4-1.1,0.5
						c-0.4,0.2-0.5,0.2-0.8,0.3L367,238.4z M373.3,236.1c0.6,0.6,2.1,2,2.1,3.3c0,0.9-0.7,1-1.3,1.2l-0.4-1c0.3,0,0.8,0,0.8-0.4
						c0-0.2-0.1-0.4-0.3-0.8c-0.3-0.6-0.8-1.1-1.5-1.8L373.3,236.1z M375.3,236.7c-0.3-0.3-0.7-0.8-1.1-1l0.5-0.5
						c0.4,0.3,0.7,0.6,1.2,1L375.3,236.7z M375.9,234.4c0.3,0.2,0.7,0.6,1.1,1l-0.5,0.5c-0.3-0.4-0.7-0.7-1-1L375.9,234.4z"/>
					<path class="st4" d="M337.9,252.4v3h4.3v0.9h-4.3v4h-1v-8.8h5.8v0.9H337.9z"/>
					<path class="st4" d="M351.5,260.3v-7.7l-2.7,7.7h-0.9l-2.7-7.7v7.7h-1v-8.8h1.5l2.6,7.5l2.6-7.5h1.5v8.8H351.5z"/>
					<path class="st4" d="M364.3,255.9c0.2,0.1,0.2,0.1,0.2,0.2c0,0.1-0.1,0.2-0.3,0.2c-0.3,0.8-0.6,1.5-1.2,2.4
						c0.1,0.5,0.4,1.1,0.7,1.1c0.1,0,0.2,0,0.5-0.8l0.6,0.5c-0.3,0.7-0.7,1.4-1.1,1.4c-0.6,0-1.1-1.1-1.2-1.5
						c-0.4,0.5-0.9,1-1.5,1.5l-0.8-0.4c0.6-0.5,1.3-1,2-2.1c-0.3-1.2-0.5-2.3-0.5-3.5h-4.2v6.2h-0.8v-2.7c-0.3,0.2-0.9,0.5-1.8,1
						c0,0.3-0.1,0.4-0.1,0.4c-0.1,0-0.2-0.1-0.2-0.2l-0.4-0.8c0.4-0.1,0.4-0.1,0.6-0.2v-6.9h-0.7v-0.8h4v0.8h-0.7v2.7h1.4
						c-0.3-0.7-0.4-0.9-0.7-1.2l0.6-0.4c0.5,0.7,0.6,1,0.7,1.3l-0.5,0.3h1.5l-0.5-0.3c0.2-0.3,0.3-0.7,0.5-1.4l0.6,0.3
						c0.1,0.1,0.2,0.1,0.2,0.2c0,0.1-0.1,0.1-0.2,0.1c-0.1,0.4-0.3,0.7-0.4,1.1h1.1c-0.1-2.2-0.1-2.6-0.1-4l0.8,0.1
						c0.1,0,0.3,0,0.3,0.1c0,0,0,0.1-0.3,0.3c0,1.2,0.1,2.7,0.1,3.5h2.1v0.7h-2.1c0.1,1.5,0.3,2.2,0.3,2.6c0.5-0.9,0.7-1.7,0.8-2.2
						L364.3,255.9z M356.7,251.6h-1.1v1.6h1.1V251.6z M356.7,253.9h-1.1v1.6h1.1V253.9z M355.6,258.2c0.3-0.1,0.5-0.2,1.1-0.5v-1.5
						h-1.1V258.2z M359.2,250.5l0.8,0.1c0.2,0,0.3,0,0.3,0.1c0,0.1-0.1,0.1-0.3,0.2v1h1.2v0.7h-3.1v-0.7h1.1V250.5z M358.9,259.4
						v0.7h-0.8v-4.3h2.9v3.6H358.9z M360.3,256.5h-1.4v0.8h1.4V256.5z M360.3,258h-1.4v0.8h1.4V258z M363.3,250.8
						c0.5,0.9,0.7,1.3,0.9,1.8l-0.7,0.4c-0.3-0.9-0.5-1.3-0.8-1.9L363.3,250.8z"/>
				</g>
			</g>
			<g>
				
					<ellipse transform="matrix(0.2397 -0.9709 0.9709 0.2397 16.9092 535.7066)" class="st5" cx="350.5" cy="257.1" rx="42.6" ry="42.6"/>
			</g>
		</g>
		<g>
			<g>
				<path class="st4" d="M327.7,267.1v-0.6h4.8c0.1,0,0.2-0.1,0.4-0.2l0.6,0.6c-0.2,0.3-0.2,0.3-0.3,0.4c-0.7,2.4-1.2,3.3-2.4,4.2
					c-0.6,0.5-1.1,0.8-1.9,1.1l-0.6-0.6c0.7-0.3,1.6-0.6,2.6-1.5c1.1-1.2,1.4-2.4,1.6-3.4H327.7z"/>
				<path class="st4" d="M339.5,268.1c0.1,0,0.2-0.1,0.2-0.1l0.4,0.4c-0.3,0.5-1.1,1.7-1.9,2.6l-0.4-0.4c0.4-0.4,1.2-1.2,1.5-1.9
					h-4.8v-0.5H339.5z M335.2,272.8c0.6-0.4,1.1-0.7,1.4-1.8c0.3-0.8,0.3-1.5,0.3-2.1l0.4,0.1c0.2,0,0.3,0,0.3,0.1c0,0,0,0-0.2,0.2
					c-0.1,1.4-0.3,2.1-0.8,2.9c-0.2,0.3-0.4,0.5-1,1.1L335.2,272.8z"/>
				<path class="st4" d="M341.4,267.6c0.5,0.2,1.1,0.5,1.7,1l-0.3,0.7c-0.5-0.4-0.9-0.6-1.7-1L341.4,267.6z M347.2,268.5
					c-0.5,0.7-1.1,1.6-2.3,2.6c-1.3,1.1-2.2,1.4-3,1.7l-0.4-0.7c0.7-0.2,1.5-0.4,2.7-1.4c1.4-1.1,1.9-2,2.5-2.8L347.2,268.5z
					 M342.3,265.6c0.5,0.2,1.1,0.5,1.7,1l-0.3,0.6c-0.4-0.3-0.8-0.6-1.7-1L342.3,265.6z"/>
				<path class="st4" d="M349,266c0.1,0,0.2,0,0.2,0.1c0,0,0,0.1-0.2,0.2v3.9h-0.7v-4.3L349,266z M349.3,272.4
					c1-0.4,1.4-0.7,1.7-1.1c0.5-0.6,0.9-1.4,0.9-2.8c0-0.3,0-1.5,0-1.7c0-0.3,0-0.3,0-1l0.7,0c0,0,0.2,0,0.2,0.1c0,0,0,0.1-0.1,0.2
					c0,2.6,0,3.5-0.3,4.5c-0.4,1.3-1.6,1.9-2.4,2.4L349.3,272.4z"/>
				<path class="st4" d="M357.6,269c-0.1,0.8-0.1,1.6-0.7,2.5c-0.5,0.9-1.2,1.2-1.8,1.4l-0.6-0.6c0.6-0.2,1.2-0.4,1.8-1.2
					c0.5-0.8,0.6-1.5,0.6-2.2h-3.1v-0.7h6.6v0.7H357.6z M359.2,266.6H355V266h4.3V266.6z"/>
				<path class="st4" d="M363.7,269.6c-0.6,0.4-1.1,0.7-1.9,1.1l-0.5-0.5c0.6-0.2,1.3-0.4,2.4-1.3c1-0.8,1.4-1.3,1.7-1.7l0.4,0.4
					c0.1,0.1,0.1,0.1,0.1,0.2c0,0,0,0.1-0.1,0.1c0,0-0.2,0-0.2,0c-0.5,0.5-0.8,0.9-1.4,1.3v4h-0.6V269.6z"/>
				<path class="st4" d="M367,269.8v-0.7h6.2v0.7H367z"/>
				<path class="st4" d="M333.5,279c0.3,0.2,0.6,0.5,1.1,1c0.7-0.6,1.7-1.8,2.1-2.3h-5.3V277h5.6c0.1,0,0.3,0,0.5-0.1l0.4,0.6
					c0,0-0.3,0.3-0.4,0.4c-1.6,1.8-1.9,2.2-2.5,2.7c0.4,0.4,0.6,0.7,0.9,1.2l-0.6,0.5c-0.2-0.4-0.5-0.9-1.1-1.6
					c-0.6-0.7-0.9-0.9-1.1-1L333.5,279z"/>
				<path class="st4" d="M341.6,280.1c-0.7,0.5-1.2,0.8-2.4,1.2l-0.5-0.7c0.8-0.2,1.6-0.4,2.8-1.3c1-0.7,1.3-1.2,1.6-1.6h-3.7v-0.6
					h3.7c0.1,0,0.5-0.2,0.6-0.2l0.5,0.7c-0.3,0.1-0.3,0.1-0.4,0.2c-0.4,0.5-0.8,1-1.6,1.7v3.6h-0.7V280.1z M340.9,275.2
					c0.9,0.3,1.7,0.7,2,0.9l-0.3,0.6c-0.7-0.5-1.4-0.8-1.9-1L340.9,275.2z M343.2,279.6c0.6,0.4,1.4,1,1.8,1.4l-0.4,0.5
					c-0.4-0.4-0.8-0.8-1.7-1.4L343.2,279.6z"/>
				<path class="st4" d="M346,277.8c0.5,0.2,1.1,0.6,1.7,1l-0.3,0.6c-0.4-0.3-0.8-0.6-1.7-1L346,277.8z M351.8,278.7
					c-0.5,0.7-1.1,1.6-2.3,2.6c-1.3,1.1-2.2,1.4-2.9,1.7l-0.4-0.7c0.7-0.2,1.5-0.4,2.8-1.4c1.4-1.1,1.9-2,2.5-2.8L351.8,278.7z
					 M346.9,275.7c0.6,0.2,1.2,0.6,1.7,1l-0.3,0.6c-0.6-0.5-1.1-0.7-1.7-1L346.9,275.7z M351,277.2c-0.2-0.3-0.6-0.7-0.8-0.9
					l0.4-0.4c0.2,0.2,0.6,0.6,0.8,0.9L351,277.2z M352,276.6c-0.2-0.3-0.5-0.6-0.8-0.9l0.4-0.4c0.3,0.3,0.6,0.5,0.8,0.9L352,276.6z"
					/>
				<path class="st4" d="M354.3,277.6c0.8,0.5,1.2,0.8,1.5,1.1c0.4-0.8,0.7-1.5,1-2.6l0.7,0.3c0.1,0,0.2,0.1,0.2,0.2
					c0,0.1-0.1,0.1-0.3,0.1c-0.4,1.3-0.8,2.1-1,2.5c0.3,0.3,0.7,0.7,1.3,1.5l-0.6,0.6c-0.4-0.6-0.7-1-1.1-1.4
					c-0.7,1-1.4,1.8-2.8,2.7l-0.6-0.5c1-0.5,1.8-1.1,2.8-2.6c-0.3-0.3-0.8-0.7-1.6-1.1L354.3,277.6z"/>
				<path class="st4" d="M364.9,278.8c-1,1-2,2.1-5.6,3.5c0,0-0.1,0.2-0.2,0.2c-0.1,0-0.1-0.1-0.2-0.2l-0.3-0.7
					c0.8-0.2,1.8-0.3,3.4-1.3c1.5-0.9,2.1-1.6,2.6-2.1L364.9,278.8z M360.4,278.1c-0.4-0.6-0.9-1.1-1.4-1.5l0.5-0.5
					c0.3,0.2,1,0.9,1.5,1.6L360.4,278.1z"/>
				<path class="st4" d="M366.9,278.2c1.5,0.7,2,1.1,2.8,1.8l-0.4,0.6c-0.3-0.2-0.6-0.5-1.2-0.9c-0.7-0.5-1.1-0.6-1.5-0.8v4H366v-7
					l0.7,0c0,0,0.2,0,0.2,0.1c0,0.1-0.1,0.1-0.2,0.2v2.5L366.9,278.2z"/>
			</g>
			<path class="st6" d="M324.9,281.9c0,0-2.6-3.2-2.6-7.8c0-4.6,2.6-7.8,2.6-7.8"/>
			<path class="st6" d="M376,281.9c0,0,2.6-3.2,2.6-7.8c0-4.6-2.6-7.8-2.6-7.8"/>
		</g>
	</g>
	<g>
		<g>
			<defs>
				<rect id="SVGID_1_" x="7.2" y="194.6" width="468.1" height="105"/>
			</defs>
			<clipPath id="SVGID_2_">
				<use xlink:href="#SVGID_1_"  style="overflow:visible;"/>
			</clipPath>
			<g class="st7">
				<g>
					<g>
						<path class="st1" d="M450.3,270.7c0.5,0.2,1.1,0,1.3-0.6l9.5-24.6c0.1-0.4,0-0.8-0.4-1c-0.4-0.2-0.8,0-0.9,0.4l-10.1,24.4
							C449.5,269.9,449.8,270.5,450.3,270.7z"/>
						<path class="st4" d="M427.3,254.4c0,4-3.3,7.3-7.3,7.3c-4,0-7.3-3.3-7.3-7.3c0-4,3.3-7.3,7.3-7.3
							C424,247.1,427.3,250.4,427.3,254.4z"/>
					</g>
					<g>
						<rect x="418.6" y="264" class="st4" width="3.3" height="1.6"/>
						<polygon class="st4" points="420.3,272.6 421.9,270.5 421.9,266.4 418.6,266.4 418.6,270.5 						"/>
						<path class="st4" d="M452.6,267.4c-1.1-1.1-2.9-1.1-4,0l-8.3,7.6l-5-5.8c-1.8-2-3.9-3.8-7.3-4.9l-7.6,9.7l-7.7-9.9
							c-3.8,1.1-5.9,3-7.8,5l-8.1,9.1c-0.8,1.1-0.9,2.6-0.2,3.9l7.7,11.5c0.8,1.3,2.5,1.8,3.9,1c1.4-0.8,1.8-2.6,1-3.9l-5.1-9.6
							l5.1-5c0.5,16.4,2.2,61.1,2.2,61.1c0,2,1.7,3.7,3.7,3.7c2,0,3.7-1.7,3.7-3.7l0.8-19.1l0.6-14.3l0.6,14.3l0.9,19.1
							c0,2,1.7,3.7,3.7,3.7c2.1,0,3.7-1.7,3.7-3.7c0,0,1.7-44.7,2.2-61.1l6.6,6c1.4,1.4,3.6,1.4,4.9,0v0l9.9-10.8
							C453.7,270.3,453.7,268.5,452.6,267.4z M420.3,284.7c-0.5,0-0.9-0.4-0.9-0.9c0-0.5,0.4-0.9,0.9-0.9c0.5,0,0.9,0.4,0.9,0.9
							C421.2,284.3,420.8,284.7,420.3,284.7z M420.3,279.7c-0.5,0-0.9-0.4-0.9-0.9c0-0.5,0.4-0.9,0.9-0.9c0.5,0,0.9,0.4,0.9,0.9
							C421.2,279.3,420.8,279.7,420.3,279.7z"/>
					</g>
				</g>
			</g>
		</g>
	</g>
	<g>
		<g>
			<defs>
				<rect id="SVGID_3_" x="2.7" y="194.6" width="463" height="105"/>
			</defs>
			<clipPath id="SVGID_4_">
				<use xlink:href="#SVGID_3_"  style="overflow:visible;"/>
			</clipPath>
			<g class="st8">
				<path class="st4" d="M37.9,236.9c-0.3,2.5-2.5,4.4-5,4.1c-2.5-0.3-4.4-2.5-4.1-5c0.3-2.5,2.5-4.4,5-4.1
					C36.4,232.2,38.2,234.4,37.9,236.9z"/>
				<path class="st4" d="M45.7,259.4l-11.5-14.5c-2.3-3-7.6-2.5-8.4,1.1c-0.7,3.1-2.5,17-2.5,17c0,0,0,0.1,0,0.2l-3.5,25
					c-0.3,1.3,0.5,2.5,1.8,2.8c1.3,0.3,2.5-0.5,2.8-1.8l2.9-9.2l2.3,8.2c0.2,1.3,1.4,2.1,2.7,1.9c1.3-0.2,2.1-1.4,1.9-2.7l-2.4-21.6
					l2.7-11.9l8.5,7.6c0.8,0.8,1.7,1,2.5,0.4C46,261.3,46.2,260.2,45.7,259.4z"/>
				<path class="st4" d="M47.4,236.9c0.3,2.5,2.5,4.4,5,4.1c2.5-0.3,4.4-2.5,4.1-5c-0.3-2.5-2.5-4.4-5-4.1
					C49,232.2,47.1,234.4,47.4,236.9z"/>
				<g>
					<g>
						<path class="st1" d="M65.7,275h7.6v-9.3h-1.2v-1.5c0-0.4-0.3-0.8-0.8-0.8h-3.7c-0.4,0-0.8,0.3-0.8,0.8v1.5h-1.2V275z
							 M67.8,264.4h3.4v1.3h-3.4V264.4z"/>
						<path class="st1" d="M64.8,265.7h-1.2c-0.5,0-0.9,0.4-0.9,0.9v7.5c0,0.5,0.4,0.9,0.9,0.9h1.2V265.7z"/>
						<path class="st1" d="M75.4,265.7h-1.2v9.3h1.2c0.5,0,0.9-0.4,0.9-0.9v-7.5C76.4,266.1,75.9,265.7,75.4,265.7z"/>
					</g>
				</g>
				<g>
					<path class="st4" d="M39.4,259.5c-0.4,0.8-0.2,1.7,0.6,2.3c0.6,0.4,1.3,0.4,2,0L39.4,259.5z"/>
					<path class="st4" d="M68.6,260l-4.6-8l-3.5-6c-2.1-4-6.9-4-9.2-0.9l-8.1,9.8l2.8,3.5l5.3-4.4l2.5,11.6l1.5,23.1
						c0,1.3,1,2.3,2.3,2.3s2.3-1,2.3-2.3l2.2-22.5c0.1-0.9,0.2-2.5,0.1-3.3c0,0-0.6-3.6-1.2-7.6l4.7,6.6c0.5,0.8,1.6,1.1,2.5,0.5
						C68.9,261.9,69.1,260.8,68.6,260z"/>
				</g>
			</g>
		</g>
	</g>
</g>
<rect x="-6" y="-19.1" class="st9" width="490" height="328.8"/>
</svg>
