<?xml version="1.0" encoding="utf-8"?>
<!-- Generator: Adobe Illustrator 24.1.1, SVG Export Plug-In . SVG Version: 6.00 Build 0)  -->
<svg version="1.1" id="レイヤー_1" xmlns="http://www.w3.org/2000/svg" xmlns:xlink="http://www.w3.org/1999/xlink" x="0px"
	 y="0px" viewBox="0 0 480 255" style="enable-background:new 0 0 480 255;" xml:space="preserve">
<style type="text/css">
	.st0{fill:#B06CAA;}
	.st1{fill:#2289AD;}
	.st2{fill:none;stroke:#2289AD;stroke-width:4.7982;stroke-miterlimit:10;stroke-dasharray:0.4796,1.4389;}
	.st3{clip-path:url(#SVGID_2_);}
</style>
<g>
	<g>
		<path class="st0" d="M78.8,98v-9.3h29.1V28.7l11.3,0.9c0.5,0,1.3,0.3,1.3,0.9c0,0.7-0.5,0.9-0.9,1.2c-0.5,0.3-1.3,0.6-1.3,1v20.5
			h27.1V63h-27.1v25.7h32.6V98H78.8z"/>
		<path class="st0" d="M191.6,53.9c6.3,7.5,7.7,13.4,7.7,17.8c0,2-0.3,8.8-5.8,12.2c-3.3,2.1-6.9,2.2-9,2.3l-3.9-9.2
			c7.3,0.3,9.4,0.4,9.4-5.5c0-7.3-5.5-13.9-7.8-16.7c2.3-5,4.9-11.4,6.8-16.7h-8.7v62.4h-8.6V29.7h23.8l4.7,4.2
			C197.3,40.6,194.6,47.2,191.6,53.9z M238.4,99.2c-7.7-4.4-12.1-8.3-17.4-15.5v7.6c-7.6,2.8-15.3,5.4-23,7.6
			c-1.6,0.5-1.8,0.5-2.1,0.9c-0.6,0.8-0.8,1-1.3,1c-0.7,0-1-0.6-1.2-1.2l-2.3-8.4c2.9-0.5,5.6-1.1,10.3-2.2V30h38.5v35.5h-5.7
			l6.2,4.8c0.4,0.3,1.1,0.9,1.1,1.5c0,0.8-0.7,0.9-1.1,0.9c-1.8,0.3-1.9,0.3-2.5,0.8c-3.9,3.7-6.9,5.9-8.5,6.8
			c4.4,4.6,8.4,7.9,17,12.3L238.4,99.2z M231.2,37.8h-21v5.9h21V37.8z M231.2,51.3h-21v6.2h21V51.3z M212.7,65.5h-2.5v21.4
			c5.8-1.8,8-2.6,10.4-3.7C216.6,77.2,214.7,72.7,212.7,65.5z M221.3,65.5c1,3.6,1.9,6.2,3.7,8.8c3.2-2.3,6-5.3,8.2-8.8H221.3z"/>
		<path class="st0" d="M284.8,49.8c-6.8,19.6-11.1,28-15.5,35.9l-9-3.9c6.7-10.2,10.9-21,14.3-30.5c-3.9,0.5-6.2,0.8-10.1,1
			l-1.3-8.7c5.5-0.1,9-0.4,14.2-1.1c1.4-5,2.4-8.7,3-13.8l9.1,2c0.4,0.1,2,0.5,2,1.4c0,0.8-1.4,1.3-1.9,1.8c-0.1,0.1-1.7,5.4-2,6.5
			c4.9-1.3,7.5-2.1,9.6-2.8v9.4C294.5,47.8,291.9,48.5,284.8,49.8z M314.5,94.3c-2.8-2.3-5-3.8-8.3-5.5c-0.8,6.7-3.3,10.2-14.2,10.2
			c-5.4,0-10.1-0.8-13.6-3.9c-1.3-1.2-3.1-3.6-3.1-7.1c0-4.5,3.3-11.9,14.8-11.9c2.8,0,4.9,0.3,6.5,0.5c-0.2-1.9-1.2-10.5-1.2-12.2
			c0-4,1.9-6.5,3.6-8.5l8.7,4.7c-2.7,2.2-3.2,4.3-3.2,6.7c0,1.8,0.2,5.4,1.1,11.6c5.5,2.2,9.1,4.3,14.4,7.6L314.5,94.3z M289.7,83.7
			c-4.4,0-6.4,2.3-6.4,4c0,1.8,2.3,3.8,6.9,3.8c6.8,0,6.7-3.5,6.7-6.5C295.4,84.5,292.5,83.7,289.7,83.7z M318.2,58.5
			c-5.5-3.3-10-5.5-18.3-7.6l3.8-7.2c6.2,1.1,12.5,3,18.7,7.7L318.2,58.5z"/>
		<path class="st0" d="M377.2,93.2c-7,4.6-13.1,5.4-16.7,5.4c-5.3,0-9.5-1.9-12.2-4.3c-3.9-3.4-5.3-7.7-5.3-27.8
			c0-5.1,0.7-30,0.4-35.6l11.1,1.6c2,0.3,2.8,0.8,2.8,1.3c0,0.7-1,1.3-2.3,2.4c-0.7,2.2-2.3,24.3-2.3,33.5c0,3.9,0,12,1.6,14.8
			c0.2,0.3,2,3.5,7.4,3.5c4.7,0,15.9-2.9,24.1-19l8.2,6.8C390.5,80.6,385.5,87.8,377.2,93.2z"/>
	</g>
</g>
<g>
	<g>
		<g>
			<g>
				<path class="st1" d="M182.9,162.9c-0.9,0.9-1.5,1.3-1.9,1.6l-0.9-0.7c2.5-1.5,3.9-3.5,4.4-4.3h-3.9v-0.9h2.3v-2.9l1,0.1
					c0.1,0,0.3,0,0.3,0.2c0,0.1,0,0.1-0.3,0.3v2.3h1.6l0.3,0.4c-0.4,0.9-1,1.7-1.6,2.5c0.9,1,1.7,1.5,2.2,1.8l-0.7,0.7
					c-0.9-0.5-1.4-1-1.8-1.5v6.1h-1V162.9z M189.3,155.7l1,0.1c0.1,0,0.3,0,0.3,0.2s-0.1,0.2-0.3,0.4v3.7h2.5v1h-2.5v5.8h3v1h-7.5
					v-1h3.4V161h-2.7v-1h2.7V155.7z"/>
				<path class="st1" d="M200.6,167.3c-1.1,0.8-2.3,1.2-3.6,1.5l-0.7-1c1.4-0.2,2.6-0.6,4-1.5l0.8,0.5c0.1,0.1,0.1,0.1,0.1,0.2
					C201.3,167.3,201.1,167.3,200.6,167.3z M197.7,166.3V160h9.3v6.3H197.7z M198.5,159.2v-3.2h7.7v3.2H198.5z M205.9,160.8h-7.2v1
					h7.2V160.8z M205.9,162.6h-7.2v1h7.2V162.6z M205.9,164.4h-7.2v1.1h7.2V164.4z M205.2,156.8h-5.6v1.4h5.6V156.8z M207.5,168.8
					c-1.5-0.4-2.6-0.9-3.8-1.8l0.7-0.6c1.3,0.9,2.8,1.3,3.9,1.5L207.5,168.8z"/>
				<path class="st1" d="M218.2,166.7c0.5-0.2,1.4-0.5,2.2-1.1c1-0.8,1.7-2.2,1.7-3.6c0-2.2-1.6-3.4-2.3-3.7c-0.5-0.2-1.2-0.4-2-0.4
					c-0.2,2.2-0.7,4.3-1.7,6.3c-0.6,1.3-1.4,2.5-2.2,2.5c-1.2,0-2.5-1.9-2.5-3.9c0-2.8,2.2-5.9,6.1-5.9c3,0,5.6,1.9,5.6,5.1
					c0,3.9-3.5,5.3-4.3,5.7L218.2,166.7z M213.5,159.9c-0.5,0.6-1,1.6-1,2.8c0,1.5,0.9,2.7,1.5,2.7c0.3,0,0.6,0,1.6-2.3
					c1-2.4,1.2-4.4,1.2-5.2C215.8,158.1,214.6,158.4,213.5,159.9z"/>
				<path class="st1" d="M162,186.2c0,0.2,0,0.4-0.2,0.4c-0.1,0-0.2-0.1-0.2-0.2l-0.6-0.8c0.1,0,0.3-0.1,0.4-0.2v-5.7h-0.8
					c0,3.9-0.2,5.9-1.2,7.5l-0.8-0.6c1.1-1.5,1.1-3.4,1.2-6.9h-1.4v-0.9h5.4v0.9h-1.4v5.3c0.5-0.2,1.2-0.6,2-1.1l0.1,0.9
					C163.3,185.5,162.9,185.7,162,186.2z M158.7,176.3v-0.9h4.4v0.9H158.7z M166.3,186c-0.6,0.6-1.1,1.1-1.8,1.6l-0.9-0.6
					c0.5-0.2,1.2-0.7,2.1-1.8l0.8,0.5c0,0,0.1,0.1,0.1,0.2C166.6,186,166.5,186,166.3,186z M167.5,176.3c-0.4,0.9-0.5,1.1-0.7,1.4
					h2.9v7.3h-5.3v-7.3h1.4c0.2-0.4,0.4-0.8,0.6-1.4h-2.6v-0.9h6.4v0.9H167.5z M168.8,178.5h-3.4v1.3h3.4V178.5z M168.8,180.7h-3.4
					v1.3h3.4V180.7z M168.8,182.8h-3.4v1.4h3.4V182.8z M170,187.6c-0.5-0.3-1.3-0.7-2.2-1.9l0.8-0.5c0.5,0.6,1.1,1.2,2.2,1.7
					L170,187.6z"/>
				<path class="st1" d="M175.5,186.9c-0.4,0.7-0.8,0.7-2.5,0.7l-0.3-1.2c0.5,0.1,0.8,0.2,1.1,0.2c0.9,0,1.1-0.5,1.2-1.3
					c0.2-1.1,0.3-2.1,0.4-2.9h-1.9c0,0.2-0.2,0.9-0.2,1l-1-0.2c0.5-1.7,0.6-2.9,0.8-4.9l1,0.3h1.2v-2.2h-2.5v-1h3.4v4h-2.2
					c-0.1,0.7-0.2,1.3-0.3,2.1h2.8C176.2,184.5,175.8,186.3,175.5,186.9z M184,187.6c-2.9-1.5-3.8-4-4.3-5.4h-0.6v3.8
					c0.3-0.1,0.8-0.2,1.8-0.6l-0.2,1.1c-0.9,0.3-1.6,0.5-3.4,0.9c0,0.1-0.1,0.3-0.2,0.3c-0.1,0-0.1-0.1-0.2-0.2l-0.4-1
					c0.3,0,0.6-0.1,1.6-0.3v-4h-1.3v-0.9h1.3v-5.9h5.7v0.9h-4.7v1h4.1v0.9h-4.1v1.1h4.1v0.9h-4.1v1.1h5.4v0.9h-3.8
					c0.3,0.9,0.6,1.5,0.7,1.7c1.1-0.6,1.6-1.1,1.9-1.4l0.7,0.6c0.1,0.1,0.2,0.1,0.2,0.2c0,0.1-0.1,0.1-0.4,0.1
					c-0.6,0.5-1.7,1.2-1.8,1.3c0.9,1.2,2.1,1.8,2.8,2.1L184,187.6z"/>
				<path class="st1" d="M188.2,176.3c-0.4,1.5-0.6,2.9-0.6,4.5c0,0.3,0,0.4,0.1,0.6c0.4-0.7,0.7-1.4,1-2.2l0.6,0.6
					c-0.3,0.9-0.4,1.2-1.6,4.3l-0.6,0.1c-0.4-1.2-0.5-2.3-0.5-3.5c0-1.6,0.2-3.2,0.5-4.7L188.2,176.3z M193.8,176c0,0.3,0,0.5,0,1
					c0.1,2,0.2,2.3,0.2,3c0,2.3-0.5,4.1-1.2,5.4c-0.5,0.8-0.8,1.3-1.5,1.9l-1-0.7c0.6-0.5,1.3-1.1,2-2.5c0.7-1.4,0.7-2.9,0.7-3.9
					c0-2-0.2-3.2-0.4-4.1L193.8,176z"/>
				<path class="st1" d="M204.1,187c-1.3,0.2-2.8,0.3-3.1,0.3c-0.4,0-3.1,0-3.1-2.2c0-1.9,1.7-2.9,3-3.7c-0.1-0.4-0.2-1.2-0.8-1.2
					c-1.2,0-2.3,1.7-3.2,2.9l-0.9-0.5c1.4-1.6,2-2.6,2.6-4.2c-1.2,0.1-1.7,0.1-2.1,0.1l-0.2-1.1c0.4,0.1,0.8,0.1,1.6,0.1
					c0.5,0,0.8,0,1.1,0c0.3-1.1,0.5-1.7,0.6-2.2l1.1,0.2c-0.2,0.5-0.3,0.9-0.6,1.9c1.8-0.3,2.6-0.7,3.1-1l0.1,1.1
					c-1.7,0.5-2.5,0.7-3.6,0.8c-0.4,1.1-0.5,1.3-0.6,1.7c0.2-0.2,0.5-0.5,1.2-0.5c1.2,0,1.4,1.1,1.5,1.6c1.7-0.8,2-0.9,2.8-1.4
					l0.2,1.1c-1.7,0.6-2.1,0.8-3,1.2c0.1,1.5,0.1,1.8,0.1,3h-1c0-0.1,0-0.7,0-1c0-0.6,0-1,0-1.5c-1.1,0.7-2.1,1.5-2.1,2.6
					c0,1.4,1.5,1.5,2.1,1.5c0.9,0,2.1-0.1,3-0.5L204.1,187z"/>
				<path class="st1" d="M210.7,176.3c-1.1,2.8-2,4.4-3.1,5.7l-0.9-0.7c1.4-1.6,2.7-4.2,3.2-6.2l1.1,0.6c0.1,0,0.1,0.1,0.1,0.2
					C211.2,176.1,211,176.2,210.7,176.3z M217.5,187.4c-0.4-0.7-0.5-1-1-1.7c-0.9,0.2-2.8,0.5-4.2,0.8c-1,0.2-2.4,0.4-4.3,0.7
					c-0.1,0.1-0.2,0.4-0.4,0.4c-0.1,0-0.2-0.1-0.2-0.2l-0.3-1.3c0.2,0,0.3,0,0.5,0c0.2,0,1.3-0.2,1.5-0.2c1.6-3.2,2.5-5.7,3.1-7.3
					l1.1,0.5c0.2,0.1,0.2,0.1,0.2,0.2c0,0.2-0.2,0.2-0.5,0.3c-1.3,3-1.8,4.1-2.7,6.1c1.7-0.2,3.8-0.5,5.7-0.8
					c-0.6-0.8-1.3-1.6-1.8-2.1l0.7-0.7c1.2,1.1,2.7,2.9,3.6,4.8L217.5,187.4z M218.1,181.6c-2.7-1.7-3.3-4.2-3.6-5.4h-1.8v-1h2.7
					c0.2,1.3,0.7,3.9,3.4,5.4L218.1,181.6z"/>
				<path class="st1" d="M227.3,182.6v5.3h-1v-5.3h-5.6v-1h5.6v-5.1h-4.8v-1h10.8v1h-4.9v5.1h5.7v1H227.3z M224.4,180.8
					c-0.8-1.2-1.4-2-2.3-2.9l0.8-0.7c1,1,1.7,1.9,2.4,2.9L224.4,180.8z M231.2,177.9c-0.6,1.3-1.2,2.2-1.7,2.9l-0.9-0.6
					c0.7-0.9,1.3-1.8,1.9-3.2l0.9,0.5c0.1,0.1,0.2,0.1,0.2,0.2C231.6,177.8,231.4,177.9,231.2,177.9z"/>
				<path class="st1" d="M237.1,176.3c-0.2,0.7-0.5,1.3-0.7,2.8c-0.2,0.9-0.3,1.9-0.3,2.8c0,0.8,0.1,1.4,0.2,2.1
					c0.1,0.4,0.1,0.5,0.1,0.8c0.2-0.5,0.3-0.8,0.7-2.1l0.8,0.6c-0.2,0.5-0.5,1.3-0.9,3.3l-0.8,0.1c-0.6-1.5-0.9-2.6-0.9-4.6
					c0-1.2,0.2-2.9,0.3-3.7c0.3-1.3,0.3-1.5,0.4-1.8c0.1-0.6,0.1-0.7,0.2-0.8L237.1,176.3z M240,182.9c0,0.1,0,0.8,0.1,0.9
					c0.2,1.1,1.1,1.2,2.1,1.2c1.6,0,2.5-0.3,3.4-0.6v1.1c-0.7,0.2-1.5,0.4-3.5,0.4c-1.7,0-2.9-0.1-2.9-2.9L240,182.9z M239.7,176.9
					c0.4,0.1,0.9,0.1,2,0.1c0.7,0,2-0.1,3.3-0.6l0,1.1c-2.1,0.4-3.1,0.4-4.5,0.4c-0.4,0-0.5,0-0.7,0L239.7,176.9z"/>
				<path class="st1" d="M192.6,196.3v1h-5v-1H192.6z M188.1,202.1h4.2v4.5h-1v-0.8h-2.2v1.2h-1V202.1z M191.9,194.4v0.9h-3.8v-0.9
					H191.9z M192,199.2h-3.9v-0.9h3.9V199.2z M192,201h-3.9v-0.9h3.9V201z M191.3,204.9v-2h-2.2v2H191.3z M196.2,201.2h-3.4v-1h3.4
					v-4.7h-3v-1h6.8v1h-2.8v4.7h3.2v1h-3.2v5.8h-1.1V201.2z M193.8,196.4c0.7,0.9,1.2,1.7,1.7,2.7l-0.9,0.5
					c-0.5-1.2-1.1-1.9-1.6-2.6L193.8,196.4z M197.7,199.1c0.7-0.9,1.2-1.7,1.6-2.8l0.9,0.4c0.1,0.1,0.2,0.1,0.2,0.2
					c0,0.1-0.2,0.2-0.3,0.2c-0.6,1.1-1.1,1.8-1.5,2.4L197.7,199.1z"/>
				<path class="st1" d="M207,194.7c-0.4,0.8-0.7,1.7-1.2,2.4c0.2,0.1,0.4,0.1,0.4,0.3c0,0.1-0.2,0.3-0.3,0.4v9.2h-1v-8
					c-0.4,0.7-0.7,1.1-1.2,1.7l-0.9-0.6c0.9-1.1,1.7-2.6,2-3.1c0.8-1.5,1.2-2.6,1.4-3.1l1,0.4c0.1,0,0.2,0.1,0.2,0.2
					C207.4,194.6,207.3,194.6,207,194.7z M213.3,195.6v2.2h2.5v9h-1v-1h-6.3v1.1h-1v-9.2h2.4v-2.2h-2.6v-1h8.9v1H213.3z
					 M209.9,198.8h-1.4v6.1h1.4V198.8z M212.4,195.6h-1.5v2.2h1.5V195.6z M212.4,198.8h-1.5v6.1h1.5V198.8z M214.8,198.8h-1.5v6.1
					h1.5V198.8z"/>
			</g>
		</g>
		<g>
			<ellipse transform="matrix(0.2063 -0.9785 0.9785 0.2063 -15.3473 340.0814)" class="st2" cx="202" cy="179.5" rx="51" ry="51"/>
		</g>
	</g>
	<g>
		<g>
			<defs>
				<rect id="SVGID_1_" x="242.2" y="104.7" width="85.6" height="122.4"/>
			</defs>
			<clipPath id="SVGID_2_">
				<use xlink:href="#SVGID_1_"  style="overflow:visible;"/>
			</clipPath>
			<g class="st3">
				<rect x="286.9" y="201.7" class="st1" width="3.2" height="1.8"/>
				<polygon class="st1" points="288.6,210.7 290.2,207.3 290.2,204.3 286.9,204.3 286.9,207.3 				"/>
				<path class="st1" d="M305.4,172.5c-0.1-1.8-1.3-3.2-3-3.2c-1.7-0.1-3.2,1.3-3.2,3c0,0,1.5,11.5,0.4,18.1
					c-0.5,2.7-1.3,5.7-2.8,8.1l-8.2,14.6l-8.2-14.6c-1.5-2.4-2.4-5.4-2.8-8.1c-1.1-6.6,0.4-18.1,0.4-18.1c-0.1-1.7-1.5-3.1-3.2-3
					c-1.7,0.1-2.9,1.5-3,3.2c0,0-2.5,8.7-1.3,19.6c0.8,7.3,2.5,14.4,3.2,17.4c1.2,4.8,2.8,12.9,2.8,15.5c0.3,11.2,2.3,60.3,2.3,60.3
					c0,2.3,1.8,4.1,4.1,4.1c2.3,0,4.1-1.8,4.1-4.1l1.6-36.3l1.6,36.3c0,2.3,1.8,4.1,4.1,4.1c2.3,0,4.1-1.8,4.1-4.1
					c0,0,2.1-49.2,2.3-60.3c0.1-2.6,1.6-10.7,2.8-15.5c0.7-2.9,2.4-10.1,3.2-17.4C307.9,181.2,305.4,172.5,305.4,172.5z
					 M288.6,223.6c-0.6,0-1-0.5-1-1c0-0.6,0.5-1,1-1s1,0.5,1,1C289.6,223.1,289.1,223.6,288.6,223.6z M288.6,218c-0.6,0-1-0.5-1-1
					c0-0.6,0.5-1,1-1s1,0.5,1,1C289.6,217.6,289.1,218,288.6,218z"/>
				<path class="st1" d="M288.6,200.3c4.5,0,8.1-3.6,8.1-8.1c0-4.5-3.6-8.1-8.1-8.1c-4.5,0-8.1,3.6-8.1,8.1
					C280.5,196.6,284.1,200.3,288.6,200.3z"/>
				<path class="st0" d="M309.8,136.3c-0.3-0.4-1-0.8-2-0.8h-38.5c-1,0-1.7,0.4-2,0.8c-0.9,0.9-0.8,2.2-0.8,3.2c0,0.1,0,0.3,0,0.4
					c0,4,2.4,11,10.9,12.7c2,2.6,4.8,4.3,8.3,5.6c0.3,0.1,1,1,1,1v3.2c0,0.2,0,0.3,0,0.5h-2.3v1.7c-0.1,0-1.3,0-1.5,0
					c-1.9,0-2.7,0.9-2.7,2.7c0,1.7,0,9.1,0,9.1h16.6c0,0,0-7.4,0-9.1c0-1.7-0.8-2.7-2.7-2.7c-0.2,0-1.4,0-1.5,0v-1.7h-2.3
					c0-0.2,0-0.3,0-0.5v-3.2c0,0,0.7-0.8,1-1c3.5-1.3,6.3-3,8.3-5.6c8.5-1.8,10.9-8.8,10.9-12.7c0-0.1,0-0.3,0-0.4
					C310.7,138.5,310.7,137.2,309.8,136.3z M269.3,139.9c0-0.2,0-0.3,0-0.5c0-0.3,0-0.8,0-1.1h4.4c0,0.3,0,0.6,0,0.9
					c0,4,0.6,7.2,1.6,9.8C269.4,146.4,269.3,140.2,269.3,139.9z M294.5,144.6l-2.3,1.9c-0.4,0.3-0.7,1.1-0.5,1.6l0.8,2.9
					c0.1,0.5-0.1,0.7-0.6,0.4l-2.5-1.6c-0.5-0.3-1.2-0.3-1.7,0l-2.5,1.6c-0.5,0.3-0.7,0.1-0.6-0.4l0.8-2.9c0.1-0.5-0.1-1.2-0.5-1.6
					l-2.3-1.9c-0.4-0.3-0.3-0.7,0.2-0.7l3-0.1c0.5,0,1.2-0.5,1.4-1l1.1-2.8c0.2-0.5,0.5-0.5,0.7,0l1.1,2.8c0.2,0.5,0.8,1,1.4,1
					l3,0.1C294.8,143.9,294.9,144.2,294.5,144.6z M307.8,139.4c0,0.2,0,0.3,0,0.5c0,0.3-0.1,6.5-6.1,9.1c1.1-2.6,1.6-5.8,1.6-9.8
					c0-0.3,0-0.6,0-0.9h4.4C307.9,138.6,307.8,139.1,307.8,139.4z"/>
			</g>
		</g>
	</g>
</g>
</svg>
