<?xml version="1.0" encoding="utf-8"?>
<!-- Generator: Adobe Illustrator 24.1.1, SVG Export Plug-In . SVG Version: 6.00 Build 0)  -->
<svg version="1.1" id="レイヤー_1" xmlns="http://www.w3.org/2000/svg" xmlns:xlink="http://www.w3.org/1999/xlink" x="0px"
	 y="0px" viewBox="0 0 480 116" style="enable-background:new 0 0 480 116;" xml:space="preserve">
<style type="text/css">
	.st0{fill:#B06CAA;}
	.st1{fill:#2289AD;}
	.st2{fill:none;stroke:#2289AD;stroke-width:4.7982;stroke-miterlimit:10;stroke-dasharray:0.4796,1.4389;}
</style>
<g>
	<path class="st0" d="M52,102V36.1L35.3,50.6V34.5L52,20h15.1v82H52z"/>
	<path class="st0" d="M141.5,86.3c-0.9,3.4-2.9,6.6-5.9,9.6c-1.8,1.8-4.2,3.4-7.2,4.7c-3,1.3-6.6,2-10.9,2c-4.3,0-8-0.7-11.1-2
		c-3.1-1.3-5.5-2.8-7.3-4.6c-2.5-2.5-4.2-5.3-5.1-8.2C93.3,85,92.7,82,92.5,79h15c0.4,3.2,1.4,5.7,2.9,7.5c1.6,1.8,3.9,2.6,7,2.6
		c3,0,5.3-0.9,7.1-2.6c1.3-1.3,2.2-3,2.6-5.1c0.4-2.1,0.6-4.5,0.6-7.1c0-4.8-0.7-8.4-2.2-10.9c-1.5-2.5-4.1-3.8-7.7-3.8
		c-3.1,0-5.3,0.7-6.8,2.1c-1.5,1.4-2.5,2.9-3,4.5H94.2V20H141v13.5h-33.2v17.6c1.1-1.1,2.7-2,4.9-2.9c2.2-0.8,4.7-1.3,7.4-1.3
		c3.5,0,6.4,0.5,9,1.5c2.5,1,4.6,2.3,6.3,4c3.2,3.2,5.3,6.7,6.1,10.4c0.8,3.7,1.3,7.5,1.3,11.5C142.8,78.9,142.4,82.9,141.5,86.3z"
		/>
	<path class="st0" d="M183.4,75.1v1.6h8.8V91h-8.8v1.5h8.4v3.9h-8.4v2h9.7v4.5h-27.6v-4.5H178v-2h-9v-3.9h9V91h-8.5v-3.6l-3.6,3.7
		c-1.2-1.2-1.9-2-2.6-3v16.3h-5.5V90.9c-0.9,1.6-1.8,3.2-3.7,5.5l-4.6-3.4c2.7-3.4,6.1-8.3,8-14.1h-5.7v-5.4h6v-3.7
		c-1.4,0.2-2.2,0.3-4.1,0.5l-2.2-4.9c5.7,0.4,12.1-1.9,14.7-2.7l2.2,3.4c0.1,0.2,0.5,0.8,0.5,1.2c0,0.5-0.3,0.6-0.6,0.6
		c-0.2,0-1.2-0.2-1.4-0.2c-0.2,0-1.3,0.3-1.6,0.4c-0.1,0-1.1,0.3-2.1,0.6v4.9h4.6v-2.7H178V69c-3.9,0.3-6,0.3-7.5,0.3l-1.9-4.8
		c1.6,0.2,3.2,0.2,3.9,0.2c2.1,0,10.2-0.2,16.3-2.3l2.4,3.8c0.1,0.2,0.4,0.6,0.4,1s-0.2,0.5-0.5,0.5c-0.2,0-1.5-0.4-1.8-0.4
		c-0.4,0-2.3,0.4-2.7,0.5c-1.1,0.2-2.2,0.3-3.3,0.5v2.4h9.7v4.3H183.4z M178,75.1h-9.7v3.8h-4.9c1.1,2.5,2.6,5.3,6.1,8.1V76.8h8.5
		V75.1z M178,80.1h-3.6v2.2h3.6V80.1z M178,85.3h-3.6v2.3h3.6V85.3z M187.3,80.1h-3.9v2.2h3.9V80.1z M187.3,85.3h-3.9v2.3h3.9V85.3z
		"/>
	<path class="st0" d="M217.5,84.2c-1.6-1.7-3.3-4-4.6-6.3V83h-5v-4.3c-1.7,2.9-3.9,5-5.4,6.2l-3.5-3.7c1.8-0.9,4.4-2.5,6.5-5.4h-5.8
		v-4.3h3.3c-0.8-2.3-2.3-4.4-3.3-5.7l3.9-1.9c1.7,1.7,2.8,4,3.4,5.7l-3.2,2h4.1v-8.7l4.5,0.2c0.9,0,1.5,0.1,1.5,0.7c0,0.2-1,1-1,1.2
		v6.6h3.4l-3.2-1.7c1.3-1.8,2.3-3.8,2.8-6l3.7,1.6c0.4,0.1,0.9,0.4,0.9,0.8c0,0.4-0.5,0.4-0.8,0.5c-0.1,0.5-0.9,2.7-2.5,4.8h2.8v4.3
		h-4.4c1.4,1.8,3.4,3.6,5.2,4.8L217.5,84.2z M213.4,92.4c1,2.2,2.3,3.6,5.4,5.9l-3.6,3.6c-1.6-1.7-3.5-4.1-4.5-6.6
		c-1.3,4.1-3.4,7.2-6.9,9.9l-4.3-3.7c4.6-2.2,6-4.4,7.2-9.1h-7v-4.7h7.6c0-1.3,0.1-2.4,0.1-3.5l4.6,0.2c1,0,1.6,0.2,1.6,0.8
		c0,0.5-0.5,0.7-1.6,1.2c0,0.3-0.1,1.1-0.1,1.3h8.2v4.7H213.4z M238.6,104.8c-2.2-1.2-5.8-4.1-8.6-7.2l3.1-2.3h-6.4l2.8,2.2
		c0.3,0.3,0.7,0.5,0.7,0.8c0,0.2-0.2,0.5-0.8,0.5c-0.2,0-0.5,0-0.7-0.1c-1.2,1.2-4.9,4.4-8.6,6.2l-3.7-3.8c3.3-1.2,6.2-3.2,8.5-5.8
		h-3.8V72.2h5.3c0.4-1,0.9-2.3,1.2-3.1h-7v-4.8h20.4V69h-7.5c-0.2,0.4-0.9,1.8-1.6,3.1h8v23.2h-5c2,2.9,5.4,4.8,7.8,5.7L238.6,104.8
		z M234.9,76.3h-8.8v2.4h8.8V76.3z M234.9,82.4h-8.8v2.4h8.8V82.4z M234.9,88.5h-8.8v2.6h8.8V88.5z"/>
</g>
<g>
	<g>
		<g>
			<path class="st1" d="M275.5,57.6c-0.7-0.4-1.9-1.2-3.2-2.8c-1.1-1.5-1.5-2.5-1.9-4c-0.8,2.7-2.2,5.3-5.7,7l-0.8-1
				c1-0.4,3-1.3,4.5-3.9c1.3-2.3,1.5-4.5,1.6-6.6h-3v-1h4.2c0,0.3,0,0.4,0,0.9c0,0.2-0.1,1.3-0.1,1.5c0,1.5,0.4,3.3,1.1,4.6
				c1.3,2.6,3.2,3.7,4.2,4.3L275.5,57.6z"/>
			<path class="st1" d="M281.9,52.2c-0.9,0.9-1.5,1.3-1.9,1.6l-0.9-0.7c2.5-1.5,3.9-3.5,4.4-4.3h-3.9v-0.9h2.3V45l1,0.1
				c0.1,0,0.3,0,0.3,0.2c0,0.1,0,0.1-0.3,0.3v2.3h1.6l0.3,0.4c-0.4,0.9-1,1.7-1.6,2.5c0.9,1,1.7,1.5,2.2,1.8l-0.7,0.7
				c-0.9-0.5-1.4-1-1.8-1.5v6.1h-1.1V52.2z M288.4,45l1,0.1c0.1,0,0.3,0,0.3,0.2c0,0.1-0.1,0.2-0.3,0.4v3.7h2.5v1h-2.5V56h3v1H285
				v-1h3.4v-5.8h-2.7v-1h2.7V45z"/>
			<path class="st1" d="M298.7,49.1h-2.2v-0.9c0.9-0.1,2.1-0.1,2.6-1.9h1v10.5h-1.3V49.1z"/>
			<path class="st1" d="M313.6,54.5v3.3h-1.1v-3.3h-6.5v-1h2.4v-3.9h4v-2.2h-3.3c-0.6,0.8-1,1.4-1.6,2l-0.9-0.6
				c1.2-1.1,2.1-2.3,2.8-4.1c0.3,0.1,0.8,0.2,1,0.4c0.2,0.1,0.2,0.1,0.2,0.2c0,0.2-0.2,0.2-0.4,0.2c-0.1,0.2-0.2,0.4-0.5,0.8h8.2v1
				h-4.5v2.2h3.8v1h-3.8v2.8h5.1v1H313.6z M312.5,50.7h-3v2.8h3V50.7z"/>
			<path class="st1" d="M330.4,57.6v-0.8h-6.6v0.9h-1.1V45.5h8.8v12.2H330.4z M330.4,46.5h-6.6v2.3h6.6V46.5z M330.4,49.9h-6.6v2.4
				h6.6V49.9z M330.4,53.3h-6.6v2.4h6.6V53.3z"/>
			<path class="st1" d="M342.4,55.9c0.5-0.2,1.4-0.5,2.2-1.1c1-0.8,1.7-2.2,1.7-3.6c0-2.2-1.6-3.4-2.3-3.7c-0.5-0.2-1.2-0.4-2-0.4
				c-0.2,2.2-0.7,4.3-1.7,6.3c-0.6,1.3-1.4,2.5-2.2,2.5c-1.2,0-2.5-1.9-2.5-3.9c0-2.8,2.2-5.9,6.1-5.9c3,0,5.6,1.9,5.6,5.1
				c0,3.9-3.5,5.3-4.3,5.7L342.4,55.9z M337.7,49.2c-0.5,0.6-1,1.6-1,2.8c0,1.5,0.9,2.7,1.5,2.7c0.3,0,0.6,0,1.6-2.3
				c1-2.4,1.2-4.4,1.2-5.2C339.9,47.3,338.8,47.7,337.7,49.2z"/>
			<path class="st1" d="M273,65.7c-0.3,2.1-0.4,2.6-0.5,3h2.5v6.8h-1v-0.8h-1.5v1.5h-1v-4.6c-0.3,0.7-0.6,1.2-1,1.7l-0.9-0.5
				c1.8-2.2,2.2-5,2.4-7.1h-1.5v-0.9h4.9v0.9H273z M274,69.6h-1.5v4.1h1.5V69.6z M281.6,70.2v6.7h-1v-6.7h-2.1
				c-0.1,2.3-0.2,4.8-2.1,6.6l-1-0.5c1.8-1.6,2-3.4,2.1-6.1h-1.7v-1h1.7v-3.6H276v-0.9h6.8v0.9h-1.2v3.6h1.5v1H281.6z M280.6,65.6
				h-2.1v3.6h2.1V65.6z"/>
			<path class="st1" d="M285.4,70.2c1.9-2.2,2.5-3.8,3.3-6.3l1,0.3c0.1,0,0.2,0.1,0.2,0.2c0,0.1-0.2,0.2-0.4,0.2
				c-0.3,0.9-0.6,1.6-0.9,2.2C289,67,289,67,289,67.1c0,0.1-0.2,0.2-0.3,0.3V77h-1v-8.3c-0.3,0.6-0.8,1.4-1.5,2.1L285.4,70.2z
				 M289.6,67.1l1,0.1c0.2,0,0.2,0.1,0.2,0.1c0,0.1-0.2,0.2-0.3,0.3v8.1h-1V67.1z M291,70.6c1.5-0.3,2.4-0.7,3.5-1.5
				c-0.7-0.7-1.1-1.3-1.5-2.3c-0.3,0.7-0.7,1.3-1.2,1.9l-0.9-0.5c0.8-1.1,1.6-2.5,2.1-4.2l1,0.4c0.1,0.1,0.2,0.1,0.2,0.2
				c0,0.1-0.2,0.2-0.3,0.2c-0.1,0.3-0.5,1.1-0.5,1.1h5.1v0.9h-1.1c-0.3,0.7-0.7,1.4-1.6,2.4c0.9,0.7,1.8,1.1,3.3,1.6l-0.6,0.9
				c-1.3-0.5-2.2-0.9-3.4-1.8c-1.2,0.9-2.1,1.3-3.5,1.8L291,70.6z M291.1,76.2c1.1,0,2.3-0.1,3.9-0.8c0.5-0.2,1.9-0.9,3.1-2.1
				l0.7,0.7c0.1,0,0.1,0.1,0.1,0.2c0,0.1-0.1,0.1-0.2,0.1s-0.1,0-0.3,0c-3,2.4-5.1,2.6-6.8,2.8L291.1,76.2z M291.5,72.4
				c0.9-0.2,2.6-0.5,4.2-1.9l0.6,0.7c0,0.1,0.1,0.1,0.1,0.2c0,0.1-0.1,0.1-0.1,0.1c-0.1,0-0.2,0-0.3,0c-1.1,0.7-2,1.2-4,1.9
				L291.5,72.4z M291.5,74.4c1.1-0.1,1.8-0.3,2.9-0.9c1.1-0.5,1.7-1,2.3-1.5l0.6,0.6c0,0,0.1,0.1,0.1,0.2c0,0.2-0.3,0.1-0.4,0.1
				c-1.9,1.3-2.8,1.8-5.1,2.4L291.5,74.4z M293.9,66.7c0.4,0.7,0.7,1.2,1.2,1.8c0.7-0.8,1-1.4,1.2-1.8H293.9z"/>
			<path class="st1" d="M305,76h-1.4c0.2-1.8,0.8-3.5,1.6-5.1c1-2.2,1.9-3.2,2.9-4.4h-6.3v-1.1h7.7v1.1C307,69.2,305.5,72.5,305,76z
				"/>
			<path class="st1" d="M315.4,67.9h1.5v1h-1.3c0.4,0.9,0.8,1.7,1.5,2.3l-0.8,0.7c-0.5-0.5-0.7-0.9-1-1.5V77h-1v-6.4
				c-0.5,1.6-1.2,2.7-2,3.7l-0.8-0.6c0.7-0.9,1.9-2.7,2.4-4.8h-1.8v-1h2.1v-2.3c-0.6,0.1-1,0.2-1.6,0.2l-0.5-0.9
				c1.7,0,2.8-0.2,3.7-0.6l0.6,0.7c0,0.1,0.1,0.1,0.1,0.2c0,0.1-0.1,0.1-0.2,0.1c-0.1,0-0.3-0.1-0.4-0.1c-0.2,0.1-0.5,0.2-0.8,0.2
				V67.9z M321.6,66.8h3.6v0.9h-3.6v0.9h3v4.2h-3v1.2h2.8v0.9h-2.8v1.1h3.7v0.8h-8.5v-0.8h3.9v-1.1h-3v-0.9h3v-1.2h-2.9v-4.2h2.9
				v-0.9h-3.6v-0.9h3.6v-1.2c-1.1,0.1-1.8,0.1-2.8,0.2l-0.4-1c0.4,0,0.8,0,1.3,0c2.4,0,3.7-0.3,4.9-0.7l0.6,0.8c0,0,0.1,0.1,0.1,0.2
				c0,0.1-0.1,0.1-0.1,0.1c-0.2,0-0.3-0.1-0.4-0.1c-0.8,0.2-1.3,0.3-2.1,0.4V66.8z M320.6,70.3v-0.9h-1.9v0.9H320.6z M320.6,72v-1
				h-1.9v1H320.6z M323.6,69.4h-2v0.9h2V69.4z M323.6,71h-2v1h2V71z"/>
			<path class="st1" d="M330.8,72.5c0.1-0.4,0.1-0.6,0.1-1.3l1,0.1c0.2,0,0.2,0.1,0.2,0.2c0,0.1-0.1,0.2-0.3,0.3c0,0.1,0,0.6,0,0.7
				h2.8v0.9h-2.5c0.7,1.2,1.4,1.8,2.1,2.4l-0.9,0.6c-1-0.9-1.5-1.7-1.9-2.3c-0.5,1.5-1.1,2.3-2.4,3.2l-0.9-0.6
				c1.6-1,2.1-1.7,2.5-3.3h-2.4v-0.9H330.8z M332.4,67.9c0.3,0.5,0.9,1.3,2.1,1.8l-0.6,0.8c-1.1-0.8-1.5-1.2-2-2v2.2h-1v-1.9
				c-0.8,1-1.2,1.4-2.1,2.1l-0.7-0.7c1.5-0.9,2-1.7,2.4-2.2h-2.2V67h2.6v-2.8l1.1,0.1c0.1,0,0.3,0,0.3,0.2c0,0.1-0.1,0.2-0.4,0.3V67
				h2.6v0.9H332.4z M329.3,64.7c0.7,0.8,0.9,1.3,1.1,1.6l-0.7,0.4c-0.5-0.9-0.8-1.3-1-1.5L329.3,64.7z M332.4,66.2
				c0.6-0.8,0.7-1.3,0.8-1.5l0.9,0.4c0.1,0.1,0.2,0.1,0.2,0.2c0,0.1-0.2,0.2-0.4,0.2c-0.3,0.6-0.5,0.9-0.7,1.2L332.4,66.2z
				 M333.9,76.4c0.6-0.2,1.7-0.7,2.7-1.7l0.8,0.6c0,0,0.1,0.1,0.1,0.2c0,0.1-0.2,0.2-0.5,0.1c-1.1,0.8-1.5,1-2.3,1.4L333.9,76.4z
				 M340.6,66.9v7.6h-5.5v-7.6h1.2c0.4-0.7,0.6-1.1,0.7-1.4h-2.6v-0.9h6.4v0.9h-2.7c-0.3,0.6-0.5,0.9-0.8,1.4H340.6z M339.7,67.7
				h-3.6v1.4h3.6V67.7z M339.7,70h-3.6v1.4h3.6V70z M339.7,72.2h-3.6v1.4h3.6V72.2z M338.7,74.8c1.5,1,2.1,1.2,2.8,1.3l-0.6,0.8
				c-1.1-0.4-2-0.9-2.8-1.5L338.7,74.8z"/>
		</g>
	</g>
	<g>
		<ellipse transform="matrix(0.7071 -0.7071 0.7071 0.7071 48.1341 233.2613)" class="st2" cx="305.6" cy="58.5" rx="51" ry="51"/>
	</g>
</g>
<g>
	<g>
		<path class="st1" d="M427.6,95.1c0,0.9-0.7,1.6-1.6,1.6s-1.6-0.7-1.6-1.6s0.7-1.6,1.6-1.6S427.6,94.2,427.6,95.1z"/>
		<path class="st1" d="M445.9,95.1c0,0.9-0.7,1.6-1.6,1.6c-0.9,0-1.6-0.7-1.6-1.6s0.7-1.6,1.6-1.6C445.2,93.5,445.9,94.2,445.9,95.1
			z"/>
		<path class="st1" d="M436.7,95.1c0,0.9-0.7,1.6-1.6,1.6c-0.9,0-1.6-0.7-1.6-1.6s0.7-1.6,1.6-1.6C436,93.5,436.7,94.2,436.7,95.1z"
			/>
		<path class="st0" d="M453.6,48.5c-1.3-0.3-2.5,0.4-2.9,1.7l-5,19.7c-0.4,1.5-1,2.6-1.9,3.6c-1,1.1-2.5,1.7-4.2,1.7h-15.7
			c-1.3,0-2.4,1.1-2.4,2.4s1.1,2.4,2.4,2.4h9.5v9.2h-5c-1.8,0-3.3,1.5-3.3,3.3V93h2.1v-0.5c0-0.7,0.6-1.2,1.2-1.2h5.9v1.6h1.8v-1.6
			h6c0.7,0,1.2,0.6,1.2,1.2V93h2.1v-0.5c0-1.8-1.5-3.3-3.3-3.3h-5V80h2.6c3,0,5.8-1.2,7.7-3.2c1.4-1.5,2.4-3.4,3-5.6l5-19.7
			C455.6,50.1,454.8,48.9,453.6,48.5z"/>
	</g>
	<polygon class="st1" points="412.2,54.5 396.9,54.5 373.7,54.5 373.7,54.5 373.7,96.4 396.9,96.4 396.9,59.7 412.2,59.7 	"/>
	<path class="st1" d="M427.1,39l-8.6,7.1l-13.3,0.9c-1.7,0.2-2.9,1.6-2.7,3.3c0.2,1.6,1.6,2.9,3.3,2.7H418c0.9,0,3.1-0.1,3.8-0.3
		l4.5-1.4l2.4,11.8l-9.8,1.4c-2.2,0.5-5.8,1.5-6.1,4.8l-2.4,22.3c-0.4,1.9,0.7,3.8,2.7,4.2c1.9,0.4,3.8-0.8,4.2-2.7l4-19.4h16.2
		c3.8-0.4,5.6-3.3,5.4-5.9l-4.8-26.6C436.5,35.3,430.6,35.9,427.1,39z"/>
	<path class="st1" d="M417,29.4c0.7,4.2,4.7,7.1,8.9,6.4c4.2-0.7,7.1-4.7,6.4-8.9c-0.7-4.2-4.7-7.1-8.9-6.4
		C419.2,21.2,416.3,25.2,417,29.4z"/>
	<polygon class="st1" points="404.9,39.6 400.9,52.2 399.2,54.3 399.1,51.7 403.1,39.1 	"/>
</g>
</svg>
