<?xml version="1.0" encoding="utf-8"?>
<!-- Generator: Adobe Illustrator 24.1.1, SVG Export Plug-In . SVG Version: 6.00 Build 0)  -->
<svg version="1.1" id="レイヤー_1" xmlns="http://www.w3.org/2000/svg" xmlns:xlink="http://www.w3.org/1999/xlink" x="0px"
	 y="0px" viewBox="0 0 300 209" style="enable-background:new 0 0 300 209;" xml:space="preserve">
<style type="text/css">
	.st0{fill:#B06CAA;}
	.st1{fill:#2289AD;}
	.st2{fill:none;stroke:#2289AD;stroke-width:4.2345;stroke-miterlimit:10;stroke-dasharray:0.4233,1.2698;}
</style>
<g>
	<path class="st0" d="M102.5,90.2H88.1l23.5-60.5H92.5v11.4H79.9V17.9h46v11.9L102.5,90.2z"/>
	<path class="st0" d="M179,78.5c-1.2,2.7-2.9,4.9-5,6.8c-2.1,1.8-4.5,3.2-7.4,4.2c-2.8,0.9-5.8,1.4-9,1.4c-3.2,0-6.2-0.5-9-1.4
		c-2.8-0.9-5.3-2.3-7.4-4.2c-2.1-1.8-3.8-4.1-5-6.8c-1.2-2.7-1.8-5.8-1.8-9.3c0-2.2,0.3-4.2,0.9-5.9c0.6-1.7,1.3-3.2,2.2-4.5
		c0.9-1.3,1.8-2.5,2.9-3.4c1-0.9,2.1-1.8,3.1-2.4c-1-0.6-1.9-1.4-2.9-2.3c-1-0.9-1.8-2-2.6-3.3c-0.8-1.2-1.4-2.6-1.9-4.2
		c-0.5-1.6-0.8-3.3-0.8-5.3c0-3.2,0.6-6,1.8-8.6c1.2-2.5,2.8-4.7,4.8-6.5c2-1.8,4.4-3.2,7-4.1c2.7-0.9,5.5-1.4,8.6-1.4
		c3,0,5.9,0.5,8.6,1.4c2.7,1,5,2.3,7,4.1c2,1.8,3.6,4,4.8,6.5c1.2,2.5,1.8,5.4,1.8,8.6c0,2-0.3,3.7-0.8,5.3
		c-0.5,1.6-1.2,2.9-1.9,4.2c-0.8,1.2-1.7,2.3-2.6,3.3c-1,0.9-1.9,1.7-2.8,2.3c1,0.7,2.1,1.5,3.1,2.4c1.1,0.9,2,2.1,3,3.4
		c0.9,1.3,1.7,2.8,2.3,4.5c0.6,1.7,0.9,3.7,0.9,5.9C180.8,72.7,180.2,75.8,179,78.5z M164.7,61.8c-1.9-1.9-4.3-2.9-7.1-2.9
		c-2.8,0-5.2,1-7.1,2.9c-1.9,1.9-2.8,4.3-2.8,7.2s0.9,5.2,2.8,7.1c1.9,1.9,4.3,2.8,7.1,2.8c2.8,0,5.2-0.9,7.1-2.8
		c1.9-1.9,2.8-4.3,2.8-7.1S166.6,63.8,164.7,61.8z M164.2,31.8c-1.7-1.8-3.8-2.6-6.4-2.6c-2.6,0-4.7,0.9-6.5,2.6
		c-1.7,1.8-2.6,3.9-2.6,6.5c0,2.6,0.9,4.8,2.6,6.6s3.9,2.6,6.5,2.6c2.6,0,4.7-0.9,6.4-2.6c1.7-1.7,2.5-3.9,2.5-6.6
		C166.7,35.7,165.9,33.6,164.2,31.8z"/>
	<path class="st0" d="M201.2,66.8c0,5.1-2.6,8-6.5,8c-4.4,0-6.6-3.5-6.6-7.9c0-5.7,3-8.1,6.6-8.1C198.7,58.8,201.2,61.7,201.2,66.8z
		 M192.1,66.8c0,1.2,0,4.6,2.6,4.6s2.6-3.4,2.6-4.6c0-1.2,0-4.6-2.6-4.6S192.1,65.5,192.1,66.8z M194.7,90.2l16.9-30.9h4.1
		l-16.9,30.9H194.7z M222.2,82.8c0,5.1-2.6,8-6.5,8c-4.4,0-6.6-3.6-6.6-7.9c0-5.8,3-8.1,6.6-8.1C219.7,74.8,222.2,77.8,222.2,82.8z
		 M213.1,82.8c0,1.2,0,4.6,2.6,4.6s2.6-3.4,2.6-4.6s0-4.6-2.6-4.6S213.1,81.6,213.1,82.8z"/>
</g>
<g>
	<g>
		<g>
			<g>
				<path class="st1" d="M98.4,158.8c-3.4-1.6-4.2-4.3-4.7-5.7c-0.6,2.5-1.5,4.4-4.4,5.9l-0.7-0.8c1-0.5,2.5-1.2,3.6-3.3
					c1-1.9,1-4.1,1-7.1l1,0.1c0.2,0,0.3,0,0.3,0.2c0,0.1-0.1,0.2-0.3,0.4c0,0.4-0.1,2.1-0.1,2.5c0,0.8,0.2,2.4,1.3,4.1
					c1.1,1.7,2.5,2.5,3.6,3L98.4,158.8z"/>
				<path class="st1" d="M105.8,150.4v-2.8l0.9,0.1c0.1,0,0.3,0,0.3,0.2c0,0.1-0.1,0.2-0.3,0.3v2.2h3.9v0.9h-3.9v2.6h3.5v0.9h-3.5
					v2.9h4.8v0.9h-10.8v-0.9h5v-2.9h-3.4V154h3.4v-2.6h-3.1c-0.6,1.3-1.1,1.8-1.3,2.1l-0.8-0.5c1.2-1.6,1.8-3.2,2.1-4.8l1,0.3
					c0.1,0,0.3,0.1,0.3,0.2c0,0.2-0.2,0.2-0.4,0.3c-0.3,1-0.3,1.2-0.5,1.5H105.8z"/>
				<path class="st1" d="M116.3,158.4c-2.2,0-3.3-1.2-3.3-2.8c0-1.8,1.4-2.3,1.8-2.5c-1-0.3-1.5-1.1-1.5-2.1c0-1.4,1.1-2.5,3-2.5
					c2,0,3,1.1,3,2.5c0,0.9-0.5,1.7-1.5,2.1c0.4,0.2,1.8,0.7,1.8,2.5C119.6,157.3,118.4,158.4,116.3,158.4z M116.3,153.6
					c-1.3,0-2.2,0.8-2.2,2c0,0.9,0.6,1.9,2.2,1.9c1.6,0,2.2-1,2.2-1.9C118.5,154.5,117.6,153.6,116.3,153.6z M116.3,149.6
					c-0.9,0-1.8,0.3-1.8,1.6c0,1.3,1,1.6,1.8,1.6c0.8,0,1.8-0.3,1.8-1.6C118.1,149.9,117.1,149.6,116.3,149.6z"/>
				<path class="st1" d="M124,158.4c-1.9,0-2.9-1.1-3.2-2.6h1.1c0.2,1.1,1,1.7,2.1,1.7c1.2,0,2.3-0.8,2.3-2.3c0-0.4-0.1-2.2-2.1-2.2
					c-0.5,0-1.4,0.1-1.9,0.8h-1.1l0.8-5h5v1h-4.1l-0.4,2.8c0.3-0.2,0.8-0.6,1.9-0.6c1.8,0,3.1,1.1,3.1,3.1
					C127.5,157.3,125.9,158.4,124,158.4z"/>
				<path class="st1" d="M135.4,156.2v2.9h-0.9v-2.9H129v-0.9h2v-3.4h3.4v-2h-2.7c-0.5,0.8-0.9,1.2-1.4,1.7l-0.8-0.5
					c1-1,1.8-2,2.4-3.6c0.2,0.1,0.7,0.2,0.8,0.4c0.1,0.1,0.2,0.1,0.2,0.2c0,0.2-0.2,0.2-0.4,0.2c-0.1,0.2-0.2,0.3-0.4,0.7h6.9v0.9
					h-3.8v2h3.2v0.9h-3.2v2.5h4.2v0.9H135.4z M134.4,152.8h-2.5v2.5h2.5V152.8z"/>
				<path class="st1" d="M144.1,148.1c0,0.3,0.1,1.7,0.1,2c0,0.6,0.2,1.2,0.5,1.7c0.1,0.2,0.2,0.3,0.4,0.3c0.5-0.3,2.9-1.3,3.3-1.6
					l0.2,1.1c-1.1,0.4-2.6,0.9-4.4,1.9c-0.6,0.3-1.8,1-1.8,2.3c0,1.8,1.3,1.8,2.1,1.8c0.1,0,1.5,0,2.8-0.2c0.6-0.1,0.9-0.1,1.5-0.3
					v1.1c-1.3,0.1-2.4,0.3-4,0.3c-1.5,0-2.1-0.3-2.5-0.7c-0.5-0.6-0.7-1.4-0.7-1.8c0-1.3,1-2.2,1.3-2.5c0.5-0.4,1.1-0.7,1.4-0.9
					c-0.8-0.9-0.9-1.8-1.1-3.3c0-0.4-0.1-0.5-0.1-0.7c0-0.2,0-0.2-0.1-0.3L144.1,148.1z"/>
				<path class="st1" d="M100.7,165c-0.1,0.5-0.1,1-0.1,1.9c1.3-0.1,2.6-0.2,3.6-0.3l0.1,1.1c-1.7,0-2.9,0.1-3.7,0.1
					c0,0.3,0,1.8,0,2.1c0.3,0.5,0.3,1.3,0.3,1.7c0,1.2-0.5,2.4-1,3.2c-0.3,0.5-0.5,0.7-0.9,1.1l-0.9-0.4c0.4-0.3,1.2-1,1.7-2.4
					c-0.4,0.3-0.9,0.3-0.9,0.3c-0.8,0-1.5-0.8-1.5-2.1c0-1.6,1-2.4,1.8-2.4c0.3,0,0.4,0.1,0.5,0.1v-1.1c-1.3,0.1-3.3,0.2-4.8,0.4
					l-0.1-0.9c1.3-0.1,3.5-0.2,4.8-0.3c0-1.2,0-1.7-0.1-2.1L100.7,165z M98.2,171.2c0,0.9,0.5,1.2,0.9,1.2c0.5,0,0.9-0.6,0.9-1.4
					c0-0.4-0.1-1.3-0.8-1.3C98.7,169.7,98.2,170.3,98.2,171.2z"/>
				<path class="st1" d="M107.2,166.1c2.7,0,4.1-0.4,5.1-0.7l0.4,0.7c-0.1,0.1-0.6,0.5-0.7,0.6c-1.1,1.2-1.7,1.9-2.5,2.6
					c0.4-0.2,0.8-0.4,1.5-0.4c0.9,0,3,0.5,3,2.9c0,2.4-2.3,3.5-3.8,3.5c-1,0-2.4-0.5-2.4-1.7c0-0.8,0.6-1.5,1.7-1.5
					c1.6,0,2.2,1.3,2.4,1.8c0.3-0.3,1.2-0.9,1.2-2.1c0-0.9-0.5-2-2.2-2c-2.1,0-4.1,2.2-4.3,2.5l-0.8-0.7c2.1-1.7,3.8-3.5,5-5
					c-0.7,0.2-1.9,0.4-3.4,0.5L107.2,166.1z M109.4,172.9c-0.5,0-0.8,0.3-0.8,0.6c0,0.5,0.9,0.9,1.5,0.9c0.3,0,0.7-0.1,1-0.1
					C110.9,173.8,110.4,172.9,109.4,172.9z"/>
				<path class="st1" d="M118.6,165.1c0,0.3,0.1,1.7,0.1,2c0,0.6,0.2,1.2,0.5,1.7c0.1,0.2,0.2,0.3,0.4,0.3c0.5-0.3,2.9-1.3,3.3-1.6
					l0.2,1.1c-1.1,0.4-2.6,0.9-4.4,1.9c-0.6,0.3-1.8,1-1.8,2.3c0,1.8,1.3,1.8,2.1,1.8c0.1,0,1.5,0,2.8-0.2c0.6-0.1,0.9-0.1,1.5-0.3
					v1.1c-1.3,0.1-2.4,0.3-4,0.3c-1.5,0-2.1-0.3-2.5-0.7c-0.5-0.6-0.7-1.4-0.7-1.8c0-1.3,1-2.2,1.3-2.5c0.5-0.4,1.1-0.7,1.4-0.9
					c-0.8-0.9-0.9-1.8-1.1-3.3c0-0.4-0.1-0.5-0.1-0.7c0-0.2,0-0.2-0.1-0.3L118.6,165.1z"/>
				<path class="st1" d="M128.3,170.3c0,0.6-0.5,1.1-1.1,1.1c-0.6,0-1.1-0.5-1.1-1.1c0-0.6,0.5-1.1,1.1-1.1
					C127.8,169.2,128.3,169.6,128.3,170.3z"/>
				<path class="st1" d="M134.6,170.3c0,0.6-0.5,1.1-1.1,1.1c-0.6,0-1.1-0.5-1.1-1.1c0-0.6,0.5-1.1,1.1-1.1
					C134.1,169.2,134.6,169.6,134.6,170.3z"/>
				<path class="st1" d="M140.9,170.3c0,0.6-0.5,1.1-1.1,1.1c-0.6,0-1.1-0.5-1.1-1.1c0-0.6,0.5-1.1,1.1-1.1
					C140.4,169.2,140.9,169.6,140.9,170.3z"/>
			</g>
		</g>
		<g>
			
				<ellipse transform="matrix(0.2252 -0.9743 0.9743 0.2252 -63.7533 239.2163)" class="st2" cx="118.5" cy="159.7" rx="45" ry="45"/>
		</g>
	</g>
	<g>
		<path class="st1" d="M198.6,109.2c0,4.3,3.5,7.8,7.8,7.8c4.3,0,7.8-3.5,7.8-7.8c0-4.3-3.5-7.8-7.8-7.8
			C202,101.4,198.6,104.9,198.6,109.2z"/>
		<rect x="204.4" y="121.5" class="st0" width="4" height="2"/>
		<polygon class="st0" points="206.4,131.9 208.3,129.3 208.3,124.4 204.4,124.4 204.4,129.3 		"/>
		<path class="st1" d="M226.5,156.7l-2.5-24.2c-0.6-5.4-4.2-8.7-8.5-10.6l-9.2,11.8l-9.3-12c-3.8,1.7-7.4,4.7-9.9,9.4l-2.5,4.9
			l-6.5-7c-1.1-1.3-3-1.4-4.3-0.3c-1.3,1.1-1.4,3-0.3,4.3l9.6,12.3c1.3,1.6,4.4,1.3,5.8-0.2c0.5-0.5,2.3-3.1,3.8-5.1
			c-1.2,12.8,0,25.8,3.5,59.5c0,2.2,1.8,3.9,3.9,3.9c2.2,0,4-1.8,4-3.9l1.6-35.7l1.6,35.7c0,2.2,1.8,3.9,3.9,3.9c2.2,0,4-1.8,4-3.9
			c2.5-23.9,3.8-37.3,3.9-47.7l1.3,5.7c0.2,1.7,1.7,2.8,3.4,2.6C225.5,159.9,226.7,158.3,226.5,156.7z M206.4,146.6
			c-0.6,0-1.1-0.5-1.1-1.1c0-0.6,0.5-1.1,1.1-1.1c0.6,0,1.1,0.5,1.1,1.1C207.5,146.1,207,146.6,206.4,146.6z M206.4,140.5
			c-0.6,0-1.1-0.5-1.1-1.1c0-0.6,0.5-1.1,1.1-1.1c0.6,0,1.1,0.5,1.1,1.1C207.5,140,207,140.5,206.4,140.5z"/>
	</g>
</g>
</svg>
