<?xml version="1.0" encoding="utf-8"?>
<!-- Generator: Adobe Illustrator 24.1.1, SVG Export Plug-In . SVG Version: 6.00 Build 0)  -->
<svg version="1.1" id="レイヤー_1" xmlns="http://www.w3.org/2000/svg" xmlns:xlink="http://www.w3.org/1999/xlink" x="0px"
	 y="0px" viewBox="0 0 480 116" style="enable-background:new 0 0 480 116;" xml:space="preserve">
<style type="text/css">
	.st0{fill:#B06CAA;}
	.st1{fill:#2289AD;}
	.st2{fill:none;stroke:#2289AD;stroke-width:4.7982;stroke-miterlimit:10;stroke-dasharray:0.4796,1.4389;}
</style>
<g>
	<path class="st0" d="M89.4,102V36.1L72.7,50.6V34.5L89.4,20h15.1v82H89.4z"/>
	<path class="st0" d="M177.6,88.7c-1.3,3-3.1,5.6-5.4,7.7c-2.3,2.1-4.9,3.6-7.9,4.7c-3,1.1-6.2,1.6-9.5,1.6c-3.4,0-6.6-0.5-9.6-1.6
		s-5.6-2.6-7.9-4.7c-2.3-2.1-4.1-4.6-5.5-7.7c-1.3-3-2-6.5-2-10.4V43.7c0-3.9,0.7-7.4,2-10.4c1.3-3,3.2-5.6,5.5-7.7
		c2.3-2.1,5-3.6,7.9-4.7c3-1.1,6.2-1.6,9.6-1.6c3.3,0,6.5,0.5,9.5,1.6c3,1.1,5.7,2.6,7.9,4.7c2.3,2.1,4.1,4.6,5.4,7.7
		c1.3,3,2,6.5,2,10.4v34.5C179.6,82.1,178.9,85.6,177.6,88.7z M164.5,43.9c0-3.5-0.9-6.2-2.7-8.2c-1.8-2-4.2-3-7.1-3
		c-2.9,0-5.3,1-7.1,3c-1.9,2-2.8,4.7-2.8,8.2v34.2c0,3.5,0.9,6.2,2.8,8.1c1.9,2,4.2,2.9,7.1,2.9c2.9,0,5.2-1,7.1-2.9
		c1.8-2,2.7-4.7,2.7-8.1V43.9z"/>
	<path class="st0" d="M207.9,70.3c0,2,0,3.9-0.3,7h17.7c-0.1,9.1-1.8,19.6-3.2,22.5c-1.9,3.9-5,4-11.3,4.1l-2.2-5.8
		c1.1,0.2,3.2,0.6,5.2,0.6c2.4,0,3.3-1,4.1-4.1c0.4-1.6,1.4-6.5,1.5-12.1h-12.5c-0.7,3.4-1.6,7.3-4.5,12.3c-2.6,4.5-5,6.8-7.4,8.9
		l-5.5-3c9.5-8,12.4-14.9,12.5-30.3h-12.5v-5.2h40.8v5.2H207.9z"/>
	<path class="st0" d="M267.1,104.2l-2.4-5.7c0.8,0.1,1.6,0.3,4,0.3c1.6,0,2.1-0.2,2.1-1.6v-9.9H245v16.6h-5.4V65.2h36.6v33.1
		C276.2,103.3,274,104.1,267.1,104.2z M254.8,70.4H245v11.7h9.8V70.4z M270.8,70.4h-9.9v11.7h9.9V70.4z"/>
</g>
<g>
	<path class="st1" d="M17.2,62.8v10.5c1.5-0.5,2.5-1.1,3.7-2.1c-1-1.1-1.6-2-2.2-3.4l1.8-1.5h-2.4V64h9l1.2,1.2
		c-1.3,2.9-2.1,4.1-3.4,5.8c1.6,1.1,2.8,1.6,4.4,2.1l-2,2.6c-1.8-0.8-3-1.5-4.5-2.7c-0.7,0.5-1.6,1.3-3.9,2.5l-1.7-2v2.3H14v-3.2
		c-2,0.4-5.3,1.1-6.3,1.2c-0.3,0-1.5,0.2-1.6,0.3c-0.1,0.1-0.3,0.3-0.3,0.3c-0.1,0-0.2-0.1-0.2-0.2l-0.5-2.6
		c1.3-0.1,1.7-0.2,2.1-0.3v-8.7H5.1v-2.3h24.6v2.3H17.2z M8.5,59.4v-7.6h17.7v7.6H8.5z M14,62.8h-3.6V64H14V62.8z M14,66h-3.6v1.3
		H14V66z M14,69.3h-3.6v1.8c1-0.1,2-0.3,3.6-0.6V69.3z M22.8,53.7h-11v1.1h11V53.7z M22.8,56.4h-11v1.1h11V56.4z M20.8,66.2
		c0.3,0.7,0.6,1.5,2,2.9c0.8-1.2,1.2-1.8,1.6-2.9H20.8z"/>
	<path class="st1" d="M35.4,55.7v-2.6h10.5v-2.1l3.5,0.3c0.1,0,0.7,0,0.7,0.3c0,0.1-0.1,0.3-0.3,0.3c-0.2,0.1-0.3,0.2-0.3,0.3v0.8
		h10.3v2.6H35.4z M55.9,76.3h-1.6l-1.3-2.9c0.2,0,1.1,0.1,1.5,0.1c0.9,0,1.1-0.1,1.1-1v-6.5H39.6V76h-3.2V63.8h22.5V74
		C58.9,75.3,57.8,76.3,55.9,76.3z M40.7,62.6v-5.7h13.9v5.7H40.7z M45.1,73V74h-2.9v-6.7h11.1V73H45.1z M51.4,59h-7.5v1.6h7.5V59z
		 M50.4,69.3h-5.3v1.6h5.3V69.3z"/>
</g>
<g>
	<g>
		<g>
			<g>
				<path class="st1" d="M319.8,51.1v3.3h-1v-3.3h-6.1v-1h2.3v-3.9h3.8v-2.2h-3.1c-0.6,0.8-1,1.4-1.5,2l-0.9-0.6
					c1.1-1.1,2-2.3,2.7-4.1c0.3,0.1,0.7,0.2,1,0.4c0.2,0.1,0.2,0.1,0.2,0.2c0,0.2-0.2,0.2-0.4,0.2c-0.1,0.2-0.2,0.4-0.5,0.8h7.8v1
					h-4.3v2.2h3.6v1h-3.6v2.8h4.8v1H319.8z M318.8,47.3H316v2.8h2.8V47.3z"/>
				<path class="st1" d="M332.1,41.9v4.5H328v8h-1V41.9H332.1z M331.2,42.8H328v1h3.2V42.8z M331.2,45.6v-1H328v1H331.2z M331,53.2
					H330v-5.4h5.3v4.6H331V53.2z M334.4,48.6H331v1h3.4V48.6z M334.4,50.5H331v1.1h3.4V50.5z M336,53.4c0.2,0,0.5,0,0.7,0
					c0.5,0,0.7-0.1,0.7-0.5v-6.5h-4.2v-4.5h5.2v10.9c0,1.4-0.1,1.6-1.9,1.6L336,53.4z M337.4,42.8h-3.3v1h3.3V42.8z M337.4,44.5
					h-3.3v1h3.3V44.5z"/>
				<path class="st1" d="M345.3,48.8c-0.2-0.5-0.2-0.6-0.3-0.7c-0.3,0-0.7,0.1-1.3,0.2v6.2h-0.9v-6.1c-0.5,0.1-1.1,0.1-1.6,0.1
					c-0.2,0.3-0.3,0.3-0.4,0.3s-0.2-0.1-0.2-0.3l-0.1-1c0.6,0,1,0,1.4,0c0.2-0.2,0.3-0.3,1.1-1.4c-0.6-0.9-1.2-1.5-2.1-2.3l0.6-0.7
					c0.2,0.1,0.5,0.4,0.7,0.6c0.6-0.8,1-1.5,1.3-2.4l0.9,0.6c0.1,0,0.1,0.1,0.1,0.2c0,0.1-0.1,0.1-0.4,0.2c-0.5,0.8-0.8,1.3-1.4,2
					c0.6,0.6,0.7,0.7,0.8,0.8c0.6-0.8,0.9-1.4,1.3-2.1l0.9,0.7c0.1,0.1,0.2,0.2,0.2,0.3c0,0.1-0.2,0.2-0.4,0.2
					c-0.5,0.8-0.9,1.3-1.3,1.8l0.7-0.4c0.5,0.8,0.9,1.7,1.2,2.7L345.3,48.8z M342.2,50.1c-0.1,1.2-0.2,2.3-0.6,3.4l-0.9-0.3
					c0.4-1.3,0.5-2.3,0.6-3.7l0.9,0.1c0.2,0,0.2,0.1,0.2,0.2C342.5,50,342.4,50,342.2,50.1z M344,46.2c-0.1,0.1-0.6,0.7-1,1.3
					c0.4,0,1.1-0.1,1.6-0.2C344.4,46.8,344.3,46.7,344,46.2z M344.7,52.7c-0.1-1.5-0.3-2.3-0.5-3.2l0.8-0.3c0.5,1.3,0.6,2.4,0.7,3.3
					L344.7,52.7z M347.2,50.8c-0.2,1-0.4,2.1-0.9,3.1l-0.9-0.4c0.5-1.1,0.8-2.1,0.9-3.4l0.9,0.3c0.1,0,0.2,0.1,0.2,0.2
					C347.5,50.7,347.4,50.8,347.2,50.8z M348.5,42.6c-0.5,0.9-0.9,1.8-1.6,2.6l-0.8-0.6c0.5-0.6,1.1-1.5,1.7-2.9l0.7,0.4
					c0.1,0,0.2,0.1,0.2,0.2C348.8,42.4,348.7,42.5,348.5,42.6z M351.4,48.4c-0.3-0.6-0.3-0.7-0.5-1c-0.9,0.2-1.8,0.4-3.9,0.7
					c0,0.1-0.2,0.4-0.3,0.4c-0.1,0-0.2-0.2-0.2-0.3l-0.2-1c0.5,0,0.8,0,1.2-0.1c0.4-0.8,0.8-1.6,1.2-3l0.9,0.4
					c0.2,0.1,0.2,0.2,0.2,0.2c0,0.1-0.1,0.1-0.3,0.2c-0.4,0.9-0.6,1.4-1,2c1-0.1,1.4-0.2,1.9-0.3c-0.1-0.2-0.2-0.3-0.4-0.7l0.8-0.5
					c0.7,0.9,1,1.6,1.4,2.4L351.4,48.4z M350.8,54.1h-2c-0.7,0-1-0.4-1-1.1v-3.6l0.9,0.1c0.1,0,0.3,0,0.3,0.2c0,0.1,0,0.1-0.3,0.3
					v2.7c0,0.4,0.2,0.5,0.5,0.5h1.2c0.5,0,0.5-0.3,0.7-1.1l0.9,0.4C351.8,54,351.5,54.1,350.8,54.1z M350.3,50.8
					c-0.4-0.6-0.7-1.1-1.2-1.8l0.7-0.6c0.7,0.8,1.1,1.4,1.3,1.8L350.3,50.8z M352.1,45.3c-1.1-0.8-1.8-1.9-2.4-3.2l0.8-0.5
					c0.2,0.3,0.4,0.8,0.9,1.5c0.5,0.7,0.9,1.1,1.4,1.4L352.1,45.3z M352.3,52.6c-0.4-0.9-0.8-1.4-1.2-1.9l0.7-0.5
					c0.6,0.7,0.9,1.2,1.2,1.8L352.3,52.6z"/>
				<path class="st1" d="M360.6,50.4c-0.5-0.2-0.6-0.2-0.8-0.4v4.3h-0.9v-0.8h-2.2v0.9h-0.9v-4.2c-0.3,0.1-0.4,0.2-0.7,0.3l-0.6-0.7
					c1.1-0.4,2.1-1,2.8-1.8c-0.4-0.5-0.5-0.7-0.8-1.1c-0.4,0.5-0.7,0.9-1.2,1.3l-0.7-0.5c1.3-1.1,2.1-2.4,2.4-3.5l0.9,0.2
					c0.1,0,0.2,0.1,0.2,0.2c0,0.1-0.1,0.2-0.3,0.2c-0.1,0.2-0.1,0.3-0.2,0.5h2.1l0.4,0.4c-0.3,0.6-0.6,1.3-1.5,2.3
					c1.1,1,2,1.4,2.8,1.6L360.6,50.4z M360,45.3v-1.4h-4.3v1.8h-1v-2.6h2.7v-1.6l1,0.1c0.2,0,0.3,0,0.3,0.1c0,0.1-0.2,0.2-0.3,0.3
					v1.1h2.5v2.2H360z M357.8,48.5c-0.5,0.5-0.8,0.8-1.6,1.3h3.2C358.9,49.5,358.5,49.2,357.8,48.5z M358.9,50.6h-2.2v2h2.2V50.6z
					 M357,45.9c0.1,0.3,0.2,0.6,0.8,1.4c0.5-0.6,0.7-0.9,0.9-1.4H357z M363.3,52.5c-1,1-1.7,1.4-2.3,1.8l-0.6-0.7
					c0.6-0.3,1.6-0.9,2.4-2l0.7,0.6c0.1,0,0.1,0.1,0.1,0.2C363.7,52.5,363.6,52.5,363.3,52.5z M364.5,42.9c-0.2,0.6-0.4,0.9-0.7,1.4
					h2.7v7.3h-4.9v-7.3h1.2c0.3-0.5,0.4-0.8,0.6-1.4h-2.2V42h5.6v0.9H364.5z M365.6,45h-3.1v1.3h3.1V45z M365.6,47.2h-3.1v1.3h3.1
					V47.2z M365.6,49.3h-3.1v1.3h3.1V49.3z M366.5,54.1c-1.2-0.7-1.9-1.2-2.5-1.9l0.6-0.6c1.1,1,1.9,1.4,2.6,1.6L366.5,54.1z"/>
				<path class="st1" d="M304.7,72.6v-7.7h-2.1V64c0.9-0.1,2-0.1,2.4-1.9h0.9v10.5H304.7z"/>
				<path class="st1" d="M314.2,72.9c-3.1,0-3.8-2.9-3.8-5.5s0.7-5.5,3.8-5.5s3.8,2.9,3.8,5.5C317.9,70,317.2,72.9,314.2,72.9z
					 M314.2,62.9c-2,0-2.5,2.1-2.5,4.5c0,2.5,0.6,4.5,2.5,4.5c1.9,0,2.5-2,2.5-4.5C316.7,64.9,316.1,62.9,314.2,62.9z"/>
				<path class="st1" d="M323.1,72.9c-3.1,0-3.8-2.9-3.8-5.5s0.7-5.5,3.8-5.5s3.8,2.9,3.8,5.5C326.9,70,326.2,72.9,323.1,72.9z
					 M323.1,62.9c-2,0-2.5,2.1-2.5,4.5c0,2.5,0.6,4.5,2.5,4.5c1.9,0,2.5-2,2.5-4.5C325.6,64.9,325.1,62.9,323.1,62.9z"/>
				<path class="st1" d="M332.1,72.9c-3.1,0-3.8-2.9-3.8-5.5s0.7-5.5,3.8-5.5s3.8,2.9,3.8,5.5C335.9,70,335.2,72.9,332.1,72.9z
					 M332.1,62.9c-2,0-2.5,2.1-2.5,4.5c0,2.5,0.6,4.5,2.5,4.5c1.9,0,2.5-2,2.5-4.5C334.6,64.9,334,62.9,332.1,62.9z"/>
				<path class="st1" d="M343,62.6c0,1.3,0,1.8-0.1,2.6h5.2c0,3.8-0.4,6.4-0.7,7.1c-0.3,0.8-0.7,1.1-3.2,1.1l-0.2-1.2
					c0.3,0,0.8,0.1,1.3,0.1c1.1,0,1.3-0.4,1.4-1.6c0.3-2,0.3-3.8,0.3-4.4h-4.2c-0.5,4.5-2.1,6-4.1,7.2l-0.8-1c2.4-1.2,4-2.7,4-9.9
					h-4.5v-1.1h12.1v1.1H343z"/>
				<path class="st1" d="M352.5,72.2c-0.1,0.2-0.2,0.4-0.3,0.4c-0.1,0-0.1,0-0.2-0.2l-0.5-1.1c0.5-0.2,0.8-0.3,1.6-0.7v-9.3l1.1,0.1
					c0,0,0.2,0,0.2,0.2c0,0.1-0.1,0.3-0.3,0.4V70c1.8-0.9,2.9-1.6,3.9-2.2v1.2C356.1,70.1,354.3,71.2,352.5,72.2z M362.9,73.2
					c-0.5-0.6-1.1-1.3-2.2-2.2c-0.6,0.7-1.7,1.6-4.7,2.2l-0.6-1.1c1.5-0.2,4.8-0.6,5.8-4.1c0.6-2.2,0.7-5.3,0.7-6.8l1.1,0.1
					c0.2,0,0.3,0,0.3,0.2s-0.2,0.3-0.4,0.3c-0.2,3.3-0.2,3.3-0.2,4.1c-0.3,2.5-0.9,3.6-1.2,4.1c0.9,0.7,1.6,1.4,2.3,2.2L362.9,73.2z
					 M358.2,66c-0.7-1.3-1.3-2.2-2.3-3.1l0.8-0.7c1.2,1.2,1.8,2.1,2.4,3L358.2,66z"/>
				<path class="st1" d="M365.5,73v-1h5.2V60.9l1,0.1c0.1,0,0.3,0,0.3,0.2c0,0.1-0.1,0.2-0.3,0.3v4.3h4.6v1h-4.6V72h6v1H365.5z"/>
			</g>
		</g>
	</g>
	<g>
		<g>
			<ellipse transform="matrix(0.3133 -0.9496 0.9496 0.3133 177.6726 362.768)" class="st2" cx="339.7" cy="58.5" rx="51" ry="51"/>
		</g>
	</g>
</g>
<g>
	<g>
		<g>
			<path class="st0" d="M446.7,13.5c0.5-0.3,1.3-0.2,3,0.4l5.8,2l9.4-4.9c0.2-0.1,0.5-0.2,0.7-0.1l2.1,0.7c0.2,0.1,0.1,0.2-0.1,0.4
				l-6.8,5.6l7.8,2.7l5.1-3.5c0.2-0.1,0.4-0.2,0.6-0.1l1.6,0.5c0.2,0.1,0.2,0.2,0.1,0.4l-3,4.1l0.9,0.3c0.8,0.3,0.4,1.6-0.5,1.9
				c-0.9,0.3-7.8,0.6-8.7,0.3l-16.5-5.7c-2.3-0.8-4.2-2.6-3.8-3.9C444.6,14.2,446.2,13.8,446.7,13.5z"/>
		</g>
	</g>
	<g>
		<path class="st1" d="M436.3,32.3c0.2,3.5-2.6,6.5-6.1,6.7c-3.5,0.2-6.5-2.6-6.7-6.1c-0.1-3.5,2.6-6.5,6.1-6.7
			C433.1,26,436.1,28.8,436.3,32.3z"/>
		<g>
			<path class="st1" d="M439,56.1L439,56.1C439,56.2,439,56.2,439,56.1z"/>
			<path class="st1" d="M449.7,65.4l-5.2-11.7c-0.1-0.1-0.1-0.3-0.2-0.4c-0.1-0.3-0.3-0.6-0.5-0.9c0,0-3.1-6.2-5.6-8.7
				c-1.7-1.8-3.7-2.9-6-2.9c-3.9,0-6,1.9-7.2,3.8l-5.6,9.1l-9.6,7.5c-1.1,0.8-1.4,2.4-0.6,3.5c0.8,1.1,2.4,1.4,3.5,0.6l10.2-6.6
				c-0.1,2.7-3.4,43.8-3.4,43.8c-0.2,1.8,1,3.4,2.8,3.6c1.8,0.2,3.4-1,3.6-2.8l3.1-17.1l0.6,1.8c0.4,0.9,0.6,1.4,1.2,2l10.3,10.9
				c1.1,1.2,3,1.2,4.1,0.1c1.2-1.1,1.2-3,0.1-4.1L437,85.1l-2.9-11.4c0-1.7,3.1-19.5,3.1-19.5l1.7,1.9c0,0,0,0,0,0l6.3,11.5
				c0.6,1.2,2.1,1.7,3.3,1.1C449.8,68.1,450.3,66.6,449.7,65.4z"/>
		</g>
		<g>
			<path class="st1" d="M472.8,96.6c0.2,0.3,0.1,0.7-0.3,0.9l-6.7,3.7c-0.3,0.2-0.7,0.1-0.9-0.3l-9-16.7c-0.2-0.3-0.1-0.7,0.3-0.9
				l6.7-3.6c0.3-0.2,0.7-0.1,0.9,0.3L472.8,96.6z"/>
			<path class="st1" d="M471.6,102c0.7,1.4,0.2,3.1-1.1,3.8c-1.4,0.7-3.1,0.2-3.8-1.1c-0.7-1.4-0.2-3.1,1.2-3.8
				C469.1,100.1,470.8,100.6,471.6,102z"/>
			<path class="st1" d="M465.7,98.1c0.2,0.3,0.1,0.7-0.3,0.9l-0.6,0.3c-0.3,0.2-0.7,0.1-0.9-0.3l-16.5-30.5
				c-0.2-0.3-0.1-0.7,0.3-0.9l0.6-0.3c0.3-0.2,0.7-0.1,0.9,0.3L465.7,98.1z"/>
		</g>
	</g>
</g>
</svg>
