<?xml version="1.0" encoding="utf-8"?>
<!-- Generator: Adobe Illustrator 24.1.1, SVG Export Plug-In . SVG Version: 6.00 Build 0)  -->
<svg version="1.1" id="レイヤー_1" xmlns="http://www.w3.org/2000/svg" xmlns:xlink="http://www.w3.org/1999/xlink" x="0px"
	 y="0px" viewBox="0 0 300 209" style="enable-background:new 0 0 300 209;" xml:space="preserve">
<style type="text/css">
	.st0{fill:#B06CAA;}
	.st1{fill:#2289AD;}
	.st2{fill:none;stroke:#2289AD;stroke-width:4.2345;stroke-miterlimit:10;stroke-dasharray:0.4233,1.2698;}
	.st3{fill:none;stroke:#2289AD;stroke-width:2.1173;stroke-linecap:round;stroke-linejoin:round;stroke-miterlimit:10;}
	.st4{fill:#2289AD;stroke:#2289AD;stroke-width:2.1173;stroke-linecap:round;stroke-linejoin:round;stroke-miterlimit:10;}
</style>
<g>
	<path class="st0" d="M98.8,90.7V32.6L84.1,45.4V31.2l14.7-12.8h13.3v72.4H98.8z"/>
	<path class="st0" d="M177.8,79c-1.2,2.7-2.9,4.9-5,6.8c-2.1,1.8-4.5,3.2-7.4,4.2c-2.8,0.9-5.8,1.4-9,1.4c-3.2,0-6.2-0.5-9-1.4
		c-2.8-0.9-5.3-2.3-7.4-4.2c-2.1-1.8-3.8-4.1-5-6.8c-1.2-2.7-1.8-5.8-1.8-9.3c0-2.2,0.3-4.2,0.9-5.9c0.6-1.7,1.3-3.2,2.2-4.5
		c0.9-1.3,1.8-2.5,2.9-3.4c1-0.9,2.1-1.8,3.1-2.4c-1-0.6-1.9-1.4-2.9-2.3c-1-0.9-1.8-2-2.6-3.3c-0.8-1.2-1.4-2.6-1.9-4.2
		c-0.5-1.6-0.8-3.3-0.8-5.3c0-3.2,0.6-6,1.8-8.6c1.2-2.5,2.8-4.7,4.8-6.5c2-1.8,4.4-3.2,7-4.1c2.7-0.9,5.5-1.4,8.6-1.4
		c3,0,5.9,0.5,8.6,1.4c2.7,0.9,5,2.3,7,4.1c2,1.8,3.6,4,4.8,6.5c1.2,2.5,1.8,5.4,1.8,8.6c0,2-0.3,3.7-0.8,5.3
		c-0.5,1.6-1.2,2.9-1.9,4.2c-0.8,1.2-1.7,2.3-2.6,3.3c-1,0.9-1.9,1.7-2.8,2.3c1,0.7,2.1,1.5,3.1,2.4c1.1,0.9,2,2.1,3,3.4
		c0.9,1.3,1.7,2.8,2.3,4.5c0.6,1.7,0.9,3.7,0.9,5.9C179.6,73.2,179,76.3,177.8,79z M163.5,62.3c-1.9-1.9-4.3-2.9-7.1-2.9
		c-2.8,0-5.2,1-7.1,2.9c-1.9,1.9-2.8,4.3-2.8,7.2c0,2.8,0.9,5.2,2.8,7.1c1.9,1.9,4.3,2.8,7.1,2.8c2.8,0,5.2-0.9,7.1-2.8
		c1.9-1.9,2.8-4.3,2.8-7.1C166.3,66.6,165.4,64.2,163.5,62.3z M163,32.3c-1.7-1.8-3.8-2.6-6.4-2.6c-2.6,0-4.7,0.9-6.5,2.6
		c-1.7,1.8-2.6,3.9-2.6,6.5c0,2.6,0.9,4.8,2.6,6.6c1.7,1.7,3.9,2.6,6.5,2.6c2.6,0,4.7-0.9,6.4-2.6c1.7-1.7,2.5-3.9,2.5-6.6
		C165.5,36.2,164.7,34,163,32.3z"/>
	<path class="st0" d="M210.5,84.5v8.3h-5.3v-8.3h-18V80h6.1V70h11.9v-5.1h-9.7c-2.4,3.9-3.7,5.3-4.7,6.4l-4.6-2.4
		c3.9-4,6.7-8.6,8.2-12.9l5.2,1.9c0.2,0.1,0.3,0.3,0.3,0.4c0,0.1-0.1,0.3-0.2,0.4c-0.1,0-0.8,0.2-0.9,0.3c-0.1,0-0.8,1.4-0.9,1.6
		h23.5v4.3h-10.9V70h7.4v4.4h-7.4V80h13v4.5H210.5z M205.2,74.3h-6.8V80h6.8V74.3z"/>
</g>
<g>
	<path class="st0" d="M200.7,177.7c-19.5,0-40.5,4.1-40.5,13c0,8.9,21,13,40.5,13c19.5,0,40.5-4.1,40.5-13
		C241.2,181.8,220.2,177.7,200.7,177.7z M200.7,199c-18.3,0-33.1-4.2-33.1-9.3c0-5.1,14.8-9.3,33.1-9.3c18.3,0,33.1,4.2,33.1,9.3
		C233.8,194.8,219,199,200.7,199z"/>
	<g>
		<g>
			<g>
				<path class="st1" d="M75.1,153.8c0.2,0.4,0.6,1.2,1.3,1.9c0.3-0.1,1.1-0.5,2.2-1.4l0.7,0.6c0.1,0.1,0.1,0.1,0.1,0.2
					s0,0.1-0.2,0.1c-0.1,0-0.2,0-0.2-0.1c-0.7,0.4-1.2,0.7-2.1,1.1c1.1,0.8,2.2,1.1,3.1,1.2l-0.5,0.9c-2-0.5-4.1-1.4-5.4-4.6h-1.5
					v3.1c0.8-0.2,1.5-0.4,2.5-0.7l0,0.9c-2.1,0.6-3.4,1-4.5,1.3c0,0.2-0.1,0.4-0.2,0.4c-0.1,0-0.2-0.2-0.2-0.2l-0.3-1
					c0.5-0.1,0.9-0.1,1.9-0.3v-3.3h-2.1V153H72v-5.4H79v0.8h-6.2v1h5.8v0.8h-5.8v1h5.8v0.8h-5.8v1.1h7.5v0.8H75.1z"/>
				<path class="st1" d="M87.3,148.2c-1.1,1.4-2.2,2.5-3.6,3.9c-0.3,0.3-0.4,0.4-0.4,0.6c0,0.3,0.2,0.4,0.5,0.7
					c0.1,0.1,1.5,1.4,2.2,2.1c0.9,0.9,1.3,1.5,1.7,2.1l-0.8,0.8c-0.5-0.9-1.3-2.1-3.5-4.1c-0.1-0.1-0.7-0.6-0.8-0.7
					c-0.2-0.2-0.3-0.4-0.3-0.7c0-0.6,0.3-0.9,0.6-1.2c0.8-0.7,2-2,2.6-2.8c0.4-0.5,0.7-1,1-1.6L87.3,148.2z"/>
				<path class="st1" d="M91.9,147.9c-0.1,0.4-0.4,1.2-0.7,1.9c0.1,0.1,0.2,0.1,0.2,0.3c0,0.1-0.1,0.2-0.1,0.3v8.2h-0.8v-7.3
					c-0.3,0.5-0.5,0.8-0.8,1.3l-0.7-0.5c0.6-0.8,1.5-2,2.2-4.8l0.8,0.4c0,0,0.1,0.1,0.1,0.1C92.1,147.8,92,147.8,91.9,147.9z
					 M94.8,149.8v0.8h1.7v3.6h-1.7v0.9h1.7v0.7h-1.7v0.9c1.1-0.2,1.2-0.3,1.6-0.4l-0.2,0.7c-1.4,0.4-2.5,0.6-3.8,0.9
					c-0.1,0.2-0.1,0.3-0.2,0.3s-0.1-0.1-0.2-0.2l-0.3-0.8c0.4,0,1.3-0.2,2.2-0.3v-1.1h-1.8v-0.7H94v-0.9h-1.7v-3.6H94v-0.8h-2v-0.7
					h2v-0.8c-0.8,0.1-1,0.1-1.3,0.1l-0.4-0.7c1.1-0.1,2.3-0.1,3.4-0.4l0.6,0.6c0,0,0.1,0.1,0.1,0.2s-0.1,0.1-0.1,0.1
					c-0.1,0-0.2,0-0.3-0.1c-0.5,0.1-0.8,0.2-1.1,0.2v0.9h2v0.7H94.8z M94,151.3h-0.9v0.8H94V151.3z M94,152.7h-0.9v0.8H94V152.7z
					 M95.7,151.3h-0.9v0.8h0.9V151.3z M95.7,152.7h-0.9v0.8h0.9V152.7z M99.6,157.5c-0.2,0.9-0.7,1-1.4,1h-0.5l-0.2-1
					c0.5,0.1,0.6,0.1,0.8,0.1c0.4,0,0.6-0.2,0.7-1.2c0.2-1.7,0.2-3.8,0.2-5.4h-0.8c0,1.5-0.1,5.1-1.8,7.4l-0.8-0.4
					c1.7-2.1,1.7-5.1,1.8-7h-0.9v-0.8h0.9v-2.9l0.8,0.1c0.1,0,0.2,0,0.2,0.1s-0.1,0.1-0.2,0.2v2.5h1.6C100,153,100,156,99.6,157.5z"
					/>
				<path class="st1" d="M107.1,148.2c-1.1,1.4-2.2,2.5-3.6,3.9c-0.3,0.3-0.4,0.4-0.4,0.6c0,0.3,0.2,0.4,0.5,0.7
					c0.1,0.1,1.5,1.4,2.2,2.1c0.9,0.9,1.3,1.5,1.7,2.1l-0.8,0.8c-0.5-0.9-1.3-2.1-3.5-4.1c-0.1-0.1-0.7-0.6-0.8-0.7
					c-0.2-0.2-0.3-0.4-0.3-0.7c0-0.6,0.3-0.9,0.6-1.2c0.8-0.7,2-2,2.6-2.8c0.4-0.5,0.7-1,1-1.6L107.1,148.2z"/>
				<path class="st1" d="M117.4,157.2c-1.2,0.2-2.4,0.3-3.6,0.3c-0.9,0-1.7-0.1-2.6-0.3c-0.5-0.1-1.7-0.5-1.7-1.8
					c0-0.8,0.5-1.3,1.3-2.1l0.6,0.6c-0.6,0.5-1,0.9-1,1.4c0,1.3,2.4,1.4,3.1,1.4c1.5,0,2.7-0.3,3.9-0.6L117.4,157.2z M110.5,148.4
					c0.2,0,1.2,0.2,1.5,0.2c0.5,0.1,1,0.1,1.5,0.1c0.6,0,1.6-0.1,2.5-0.2l0.5,1c-1.3,0.8-1.9,1.3-2.8,2l-0.6-0.6
					c0.3-0.2,1.7-1.2,2-1.4c-0.5,0.1-0.9,0.1-1.4,0.1c-0.9,0-2.3-0.1-3.1-0.3L110.5,148.4z"/>
				<path class="st1" d="M122,147.6c0,0.3,0.1,1.7,0.1,2c0,0.6,0.2,1.2,0.5,1.7c0.1,0.2,0.2,0.3,0.4,0.3c0.5-0.3,2.9-1.3,3.3-1.6
					l0.2,1.1c-1.1,0.4-2.6,0.9-4.4,1.9c-0.6,0.3-1.8,1-1.8,2.3c0,1.8,1.3,1.8,2.1,1.8c0.1,0,1.5,0,2.8-0.2c0.6-0.1,0.9-0.1,1.5-0.3
					v1.1c-1.3,0.1-2.4,0.3-4,0.3c-1.5,0-2.1-0.3-2.5-0.7c-0.5-0.6-0.7-1.4-0.7-1.8c0-1.3,1-2.2,1.3-2.5c0.5-0.4,1.1-0.7,1.4-0.9
					c-0.8-0.9-0.9-1.8-1.1-3.3c0-0.4-0.1-0.5-0.1-0.7c0-0.2,0-0.2-0.1-0.3L122,147.6z"/>
				<path class="st1" d="M128.1,151.4c1.2-0.2,1.9-0.5,2.5-0.7c0.1-0.6,0.2-1.1,0.2-2.6l1.1,0.4c-0.1,0.5-0.2,0.9-0.3,1.9
					c0.3-0.1,0.7-0.1,1-0.1c0.7,0,1.7,0.5,1.7,2.4c0,1.1-0.2,2.8-0.8,3.9c-0.5,0.9-1.2,1-1.6,1c-0.1,0-0.3,0-0.7-0.1l-0.4-1
					c0.5,0.1,0.8,0.1,1,0.1c0.3,0,0.8,0,1.1-0.9c0.1-0.3,0.5-1.5,0.5-2.8c0-0.7-0.1-1.7-1-1.7c-0.3,0-0.8,0.1-1,0.2
					c-0.5,2.3-1.2,4.3-2.5,6.3l-0.9-0.5c0.5-0.6,0.9-1.2,1.5-2.8c0.6-1.4,0.7-2.2,0.8-2.8c-0.2,0.1-1,0.4-1.1,0.5
					c-0.4,0.2-0.6,0.2-0.8,0.3L128.1,151.4z M134.7,149c0.7,0.6,2.2,2.2,2.2,3.5c0,0.9-0.7,1.1-1.4,1.2l-0.4-1c0.3,0,0.9,0,0.9-0.4
					c0-0.2-0.1-0.4-0.3-0.8c-0.3-0.6-0.9-1.2-1.6-1.9L134.7,149z M136.8,149.7c-0.3-0.3-0.7-0.8-1.1-1.1l0.6-0.5
					c0.4,0.3,0.8,0.6,1.2,1.1L136.8,149.7z M137.4,147.2c0.3,0.2,0.7,0.6,1.1,1.1l-0.6,0.5c-0.4-0.4-0.7-0.8-1.1-1.1L137.4,147.2z"
					/>
				<path class="st1" d="M76.5,175.4h-0.8v-4.6l0.8,0.1c0.1,0,0.3,0,0.3,0.2c0,0.1-0.1,0.2-0.2,0.2v2.2h3.3v-4.2h-3v0.6H76v-4.6
					l0.8,0.1c0.1,0,0.3,0.1,0.3,0.2c0,0.1-0.2,0.2-0.3,0.2v2.6h3v-4.3l0.9,0.1c0.1,0,0.3,0.1,0.3,0.2c0,0.1-0.1,0.1-0.3,0.2v3.7h3
					v-3.2l0.9,0.2c0.1,0,0.3,0,0.3,0.2c0,0.1-0.1,0.2-0.2,0.2v4.1h-0.9v-0.6h-3v4.2H84v-2.7l0.9,0.1c0.2,0,0.3,0.1,0.3,0.1
					c0,0.1-0.2,0.3-0.3,0.3v4.1H84v-1.1h-7.5V175.4z"/>
				<path class="st1" d="M93.6,170.7c0.2,0.3,0.7,1,1.7,1.8c0.8,0.6,1.6,1.2,2.5,1.6l-0.6,0.8c-1.7-0.8-3.2-1.9-4.2-3.5v4.2h-0.9
					v-4.1c-0.9,1.2-2.4,2.6-4.1,3.5l-0.7-0.8c1.7-0.7,3.1-1.9,4.2-3.5h-4.2v-0.9h4.8v-3.4h-4v-0.9h4V164l0.9,0.1
					c0.2,0,0.3,0.1,0.3,0.2c0,0.1-0.1,0.2-0.3,0.2v1.1H97v0.9H93v3.4h5v0.9H93.6z M90.1,169.4c-0.7-1.3-1-1.8-1.2-2l0.8-0.5
					c0.6,0.8,0.9,1.4,1.2,2L90.1,169.4z M95.8,167.7c-0.3,0.9-0.7,1.5-0.9,1.8l-0.9-0.4c0.6-1,0.9-1.6,1.1-2.3l0.9,0.5
					c0.1,0,0.2,0.1,0.2,0.2C96.2,167.6,96.1,167.6,95.8,167.7z"/>
				<path class="st1" d="M100.8,165.6c2.7,0,4.1-0.4,5.1-0.7l0.4,0.7c-0.1,0.1-0.6,0.5-0.7,0.6c-1.1,1.2-1.7,1.9-2.5,2.6
					c0.4-0.2,0.8-0.4,1.5-0.4c0.9,0,3,0.5,3,2.9c0,2.4-2.3,3.5-3.8,3.5c-1,0-2.4-0.5-2.4-1.7c0-0.8,0.6-1.5,1.7-1.5
					c1.6,0,2.2,1.3,2.4,1.8c0.3-0.3,1.2-0.9,1.2-2.1c0-0.9-0.5-2-2.2-2c-2.1,0-4.1,2.2-4.3,2.5l-0.8-0.7c2.1-1.7,3.8-3.5,5-5
					c-0.7,0.2-1.9,0.4-3.4,0.5L100.8,165.6z M103.1,172.4c-0.5,0-0.8,0.3-0.8,0.6c0,0.5,0.9,0.9,1.5,0.9c0.3,0,0.7-0.1,1-0.1
					C104.5,173.3,104.1,172.4,103.1,172.4z"/>
				<path class="st1" d="M119.8,168.9c-1.1-0.4-2.1-1-3.1-1.8c-0.7-0.6-1.4-1.3-1.9-2.1c-0.8,1-2.3,2.8-5.1,4.1l-0.7-0.8
					c2.5-0.9,4.3-2.5,5.3-4.4l0.9,0.3c0.1,0.1,0.3,0.1,0.3,0.2c0,0.1,0,0.1,0,0.2c0.7,1.3,2.4,2.6,4.9,3.4L119.8,168.9z
					 M114.6,171.5c-0.8,1.4-1.2,2.2-1.5,2.7c1.1-0.1,2.3-0.3,3.4-0.4c0.3-0.1,0.6-0.1,0.8-0.1c-0.6-0.8-0.7-1-1-1.4l0.7-0.4
					c0.7,0.7,1.4,1.6,2.2,3.2l-0.8,0.5c-0.5-1-0.6-1-0.7-1.2c-1.5,0.3-3.3,0.6-6.4,1c-0.1,0.1-0.2,0.3-0.3,0.3
					c-0.1,0-0.2-0.2-0.2-0.2l-0.2-1c0.4,0,0.6,0,1.5-0.1c0.7-1.2,1.3-2.4,1.5-2.8h-3.6v-0.9H120v0.9H114.6z M112.2,168.9v-0.9h5.3
					v0.9H112.2z"/>
				<path class="st1" d="M123.8,170.5c-0.8,0.8-1.3,1.2-1.6,1.4l-0.8-0.6c2.1-1.3,3.3-3.1,3.7-3.8h-3.3v-0.8h1.9v-2.5l0.8,0.1
					c0.1,0,0.3,0,0.3,0.2c0,0.1,0,0.1-0.3,0.3v2h1.4l0.3,0.3c-0.3,0.8-0.8,1.5-1.4,2.2c0.7,0.9,1.4,1.3,1.9,1.6l-0.6,0.6
					c-0.8-0.5-1.2-0.9-1.5-1.3v5.4h-0.9V170.5z M129.2,164.1l0.9,0.1c0.1,0,0.3,0,0.3,0.1s-0.1,0.2-0.3,0.3v3.3h2.1v0.9h-2.1v5.1
					h2.5v0.9h-6.3v-0.9h2.9v-5.1h-2.3v-0.9h2.3V164.1z"/>
			</g>
		</g>
		<g>
			
				<ellipse transform="matrix(0.1718 -0.9851 0.9851 0.1718 -70.8679 234.1104)" class="st2" cx="103.8" cy="159.2" rx="45" ry="45"/>
		</g>
	</g>
	<g>
		<g>
			<g>
				<path class="st1" d="M206.8,122.9c0,3.7-2.8,6.6-6.2,6.6c-3.4,0-6.2-3-6.2-6.6c0-3.7,2.8-6.6,6.2-6.6
					C204.1,116.3,206.8,119.3,206.8,122.9z"/>
				<path class="st1" d="M221.5,137.9c-1.3,0-3.2,0.2-5.1,0.8c0.1,0.7,0.2,1.5,0.2,2.3l0,0.1l-1.2,21.1l0,0c-0.1,1-0.5,1.9-1.2,2.6
					c0.3-0.2,0.6-0.5,0.8-0.8l0.7,22.2c0,1.5,1.2,2.7,2.7,2.7c1.5,0,2.7-1.2,2.7-2.7l0.4-18.7h0l0.4,18.7c0,1.5,1.2,2.7,2.7,2.7
					c1.5,0,2.7-1.2,2.7-2.7L228,164c0.3,0.6,0.9,1.1,1.7,1.2c1.1,0.1,2.2-0.7,2.3-1.9l0.9-17C232.9,139.3,225.1,137.9,221.5,137.9z"
					/>
				<path class="st1" d="M200.7,130.6L200.7,130.6c-4.5,0-14.1,1.8-14.1,10.4l1.2,21.1c0.1,1.4,1.4,2.5,2.8,2.3
					c0.9-0.1,1.7-0.7,2.1-1.4l0.9,27.5c0,1.9,1.5,3.4,3.4,3.4c1.9,0,3.4-1.5,3.4-3.4l0.4-23.1h0l0.4,23.1c0,1.9,1.5,3.4,3.4,3.4
					c1.9,0,3.4-1.5,3.4-3.4l0.9-27.5c0.4,0.8,1.1,1.4,2.1,1.4c1.4,0.1,2.7-0.9,2.8-2.3l1.2-21.1
					C214.8,132.4,205.2,130.6,200.7,130.6z"/>
				<path class="st1" d="M186,162.3L186,162.3l-1.2-21.2v0c0-0.8,0.1-1.6,0.2-2.3c-1.9-0.6-3.8-0.8-5.1-0.8
					c-3.6,0-11.4,1.4-11.4,8.4l0.9,17c0.1,1.1,1.1,2,2.3,1.9c0.8-0.1,1.4-0.5,1.7-1.2l0.7,22.2c0,1.5,1.2,2.7,2.7,2.7
					c1.5,0,2.7-1.2,2.7-2.7l0.4-18.7h0l0.4,18.7c0,1.5,1.2,2.7,2.7,2.7c1.5,0,2.7-1.2,2.7-2.7l0.7-22.2c0.2,0.3,0.4,0.6,0.8,0.8
					C186.5,164.2,186.1,163.3,186,162.3z"/>
			</g>
		</g>
		<line class="st3" x1="194.1" y1="121.7" x2="207.3" y2="121.7"/>
		<path class="st4" d="M194.5,121.7c0-3.5,2.8-6.4,6.2-6.4c3.4,0,6.2,2.9,6.2,6.4"/>
		<g>
			<path class="st1" d="M226.5,131.9c0,3-2.2,5.3-5,5.3c-2.7,0-5-2.4-5-5.3c0-3,2.2-5.3,5-5.3C224.2,126.6,226.5,129,226.5,131.9z"
				/>
			<line class="st3" x1="216.1" y1="130.9" x2="226.8" y2="130.9"/>
			<path class="st4" d="M216.5,130.9c0-2.9,2.2-5.2,5-5.2c2.7,0,5,2.3,5,5.2"/>
		</g>
		<g>
			<path class="st1" d="M184.9,131.9c0,3-2.2,5.3-5,5.3c-2.7,0-5-2.4-5-5.3c0-3,2.2-5.3,5-5.3C182.6,126.6,184.9,129,184.9,131.9z"
				/>
			<line class="st3" x1="174.5" y1="130.9" x2="185.2" y2="130.9"/>
			<path class="st4" d="M174.9,130.9c0-2.9,2.2-5.2,5-5.2c2.7,0,5,2.3,5,5.2"/>
		</g>
	</g>
</g>
</svg>
