<?xml version="1.0" encoding="utf-8"?>
<!-- Generator: Adobe Illustrator 24.1.1, SVG Export Plug-In . SVG Version: 6.00 Build 0)  -->
<svg version="1.1" id="レイヤー_1" xmlns="http://www.w3.org/2000/svg" xmlns:xlink="http://www.w3.org/1999/xlink" x="0px"
	 y="0px" viewBox="0 0 300 209" style="enable-background:new 0 0 300 209;" xml:space="preserve">
<style type="text/css">
	.st0{fill:#B06CAA;}
	.st1{fill:#2289AD;}
	.st2{fill:none;stroke:#2289AD;stroke-width:4.2345;stroke-miterlimit:10;stroke-dasharray:0.4233,1.2698;}
</style>
<g>
	<path class="st0" d="M85.5,80v10.3H72.8V80H43.2V67.5L68,17.9h14.4L57.7,67.5h15.1V54h12.7v13.5h6.6V80H85.5z"/>
	<path class="st0" d="M102.2,90.3v-15h15.1v15H102.2z"/>
	<path class="st0" d="M149.4,90.3V32.1l-14.7,12.8V30.7l14.7-12.8h13.3v72.4H149.4z"/>
	<path class="st0" d="M190.4,85.5v-1.4h-3.8v3h-4.3V59.2h12.4v26.3H190.4z M190.4,63.4h-3.8v6h3.8V63.4z M190.4,73.7h-3.8v6.2h3.8
		V73.7z M214.1,71.9v4.1h4.5v4h-4.5v8.5c0,3.3-1.8,4.1-7.2,4.1l-2.1-5c1.5,0.2,2.7,0.2,2.8,0.2c0.9,0,1.7-0.2,1.7-1.5v-6.3h-13.1v-4
		h13.1v-4.1h-13.2v-4h8.3v-3.4h-7.1v-4h7.1v-4.7l5.2,0.3c0.3,0,0.6,0.1,0.6,0.5c0,0.2-0.2,0.5-0.4,0.6c-0.4,0.3-0.5,0.3-0.5,0.6v2.8
		h7.8v4h-7.8v3.4h9.5v4H214.1z M202.3,88c-2.4-2.8-4-4-4.9-4.7l2.7-3.1c1,0.8,2.8,2,5,4.6L202.3,88z"/>
	<path class="st0" d="M230.2,70.3v22.1h-4.6V56.8h15.9v13.5H230.2z M236.9,60.2h-6.7v1.9h6.7V60.2z M236.9,65h-6.7V67h6.7V65z
		 M238.9,87.4v1.5h-4.4V72.7h17v14.6H238.9z M247.2,76h-8.3v2.3h8.3V76z M247.2,81.6h-8.3V84h8.3V81.6z M255.9,92.5h-2l-2.3-4.7
		c0.7,0.1,1.6,0.2,2.5,0.2c0.8,0,1.5-0.2,1.5-1.7v-16H244V56.8h16.1v30.7C260.1,91.2,259,92.5,255.9,92.5z M255.6,60.2h-6.9v1.9h6.9
		V60.2z M255.6,65h-6.9V67h6.9V65z"/>
</g>
<g>
	<g>
		<g>
			<g>
				<g>
					<path class="st1" d="M77.4,143.4c0.5-0.7,0.8-1.2,1.1-1.8l0.9,0.2c0.2,0,0.2,0.1,0.2,0.2c0,0.1-0.2,0.2-0.3,0.3
						c-0.4,0.5-0.7,1-0.8,1.2H83v9.8h-0.9v-0.8h-5.7v0.8h-0.9v-9.9H77.4z M82.1,144.2h-5.7v1.8h5.7V144.2z M82.1,146.9h-5.7v1.9h5.7
						V146.9z M82.1,149.6h-5.7v2h5.7V149.6z"/>
					<path class="st1" d="M89.6,143c-0.5,1.4-1.4,3.5-3.5,5.1l-0.7-0.7c1-0.7,2.4-1.9,3.5-5.3l0.8,0.5c0.2,0.1,0.2,0.1,0.2,0.2
						C90,142.9,89.9,142.9,89.6,143z M93.5,152.2c-0.3,1-1.1,1-2.3,1l-0.3-1c0.2,0,0.5,0.1,0.9,0.1c0.6,0,0.8-0.3,1-1.1
						c0.1-0.8,0.2-1.8,0.2-3.2h-2.5c-0.3,2.4-1,4.1-3,5.3l-0.8-0.6c2.1-1.1,2.6-2.6,2.8-4.6h-1.9V147h6.2
						C93.9,148.4,93.9,151.1,93.5,152.2z M95.5,147.9c-0.8-0.6-1.8-1.2-2.5-2.8c-0.4-0.7-0.6-1.4-0.7-2.2h-1.6v-0.9H93
						c0.1,0.8,0.1,1.8,0.9,3c0.8,1.2,1.6,1.7,2.3,2.2L95.5,147.9z"/>
					<path class="st1" d="M103.6,151.5c0.5-0.2,1.2-0.4,1.8-1c0.8-0.7,1.4-1.9,1.4-3.2c0-2-1.4-3-1.9-3.3c-0.4-0.2-1-0.3-1.7-0.3
						c-0.2,1.9-0.6,3.8-1.4,5.6c-0.5,1.1-1.2,2.2-1.9,2.2c-1,0-2.1-1.6-2.1-3.5c0-2.4,1.8-5.2,5.1-5.2c2.5,0,4.7,1.7,4.7,4.5
						c0,3.5-2.9,4.7-3.6,5L103.6,151.5z M99.6,145.5c-0.4,0.6-0.8,1.4-0.8,2.5c0,1.4,0.7,2.4,1.2,2.4c0.3,0,0.5,0,1.3-2
						c0.8-2.1,1-3.9,1-4.6C101.5,143.9,100.5,144.2,99.6,145.5z"/>
					<path class="st1" d="M109.8,143h3.2v8.3h-0.8v-0.8h-1.5v1.6h-0.8V143z M112.2,143.8h-1.5v2.5h1.5V143.8z M112.2,147.1h-1.5v2.6
						h1.5V147.1z M116.6,141.9l0.9,0.1c0.1,0,0.2,0,0.2,0.1c0,0.1,0,0.1-0.2,0.2v1.3h2.1v0.9h-2.1v1.5h2.8v0.8h-6.7v-0.8h3v-1.5
						h-2.1v-0.9h2.1V141.9z M113.7,148.4h4.1V147l0.8,0.1c0.2,0,0.3,0,0.3,0.1c0,0.1,0,0.1-0.2,0.2v0.9h1.6v0.8h-1.6v2.9
						c0,0.5-0.1,0.9-0.6,0.9c-0.2,0-0.9,0.1-1.3,0.1l-0.3-1c0.4,0.1,0.7,0.1,0.8,0.1c0.6,0,0.6-0.2,0.6-0.6v-2.4h-4.1V148.4z
						 M115,149.8c0.3,0.4,0.7,0.8,1,1.7l-0.7,0.5c-0.2-0.6-0.5-1-1-1.7L115,149.8z"/>
					<path class="st1" d="M126.8,142.1v4h-3.7v7.1h-0.8v-11.1H126.8z M125.9,142.9h-2.8v0.9h2.8V142.9z M125.9,145.4v-0.9h-2.8v0.9
						H125.9z M125.7,152.1h-0.8v-4.8h4.7v4.1h-3.8V152.1z M128.7,148.1h-3v0.9h3V148.1z M128.7,149.7h-3v1h3V149.7z M130.1,152.2
						c0.2,0,0.4,0,0.6,0c0.4,0,0.6-0.1,0.6-0.4v-5.7h-3.7v-4h4.6v9.6c0,1.2-0.1,1.4-1.7,1.4L130.1,152.2z M131.4,142.9h-2.9v0.9h2.9
						V142.9z M131.4,144.5h-2.9v0.9h2.9V144.5z"/>
					<path class="st1" d="M141.2,152.5c-1.2,0.2-2.5,0.2-2.7,0.2c-0.4,0-2.7,0-2.7-2c0-1.7,1.5-2.6,2.7-3.2c0-0.3-0.1-1-0.7-1
						c-1.1,0-2.1,1.5-2.8,2.6l-0.8-0.5c1.2-1.4,1.8-2.3,2.3-3.7c-1.1,0.1-1.5,0.1-1.9,0.1l-0.2-1c0.4,0.1,0.7,0.1,1.4,0.1
						c0.5,0,0.7,0,1,0c0.3-1,0.4-1.5,0.5-2l1,0.2c-0.1,0.4-0.3,0.8-0.6,1.7c1.5-0.3,2.3-0.6,2.8-0.9l0.1,1c-1.5,0.4-2.2,0.6-3.1,0.8
						c-0.3,1-0.4,1.2-0.6,1.5c0.2-0.2,0.5-0.5,1-0.5c1,0,1.2,1,1.3,1.4c1.5-0.7,1.8-0.8,2.5-1.2l0.2,1c-1.5,0.6-1.8,0.7-2.6,1.1
						c0.1,1.3,0.1,1.6,0.1,2.6h-0.9c0-0.1,0-0.6,0-0.9c0-0.5,0-0.9,0-1.3c-0.9,0.6-1.8,1.3-1.8,2.3c0,1.2,1.3,1.3,1.8,1.3
						c0.8,0,1.9-0.1,2.6-0.4L141.2,152.5z"/>
					<path class="st1" d="M84.5,170c-1.2-0.6-2.2-1.5-3-2.6c-0.7-1-1.1-1.9-1.5-3.2c-0.5,1.6-1.2,4-4.4,5.8l-0.8-0.8
						c2.2-1,3.9-2.6,4.6-6.1h-4.6v-0.9h4.7c0-0.4,0-0.8,0-1.7c0-0.6,0-1.1,0-1.7l0.9,0.1c0.1,0,0.3,0,0.3,0.2c0,0.1,0,0.1-0.3,0.3
						c0,1.2,0,1.4-0.1,2.9h4.9v0.9h-4.7c0.2,1.5,1.1,3.1,1.5,3.5c0.4,0.5,1.4,1.7,3.2,2.5L84.5,170z"/>
					<path class="st1" d="M89.5,168.2c-0.7,0-1.1-0.1-1.1-1v-3.5l-1.6,0.4l-0.1-0.9l1.7-0.4v-4l1,0.1c0.1,0,0.3,0,0.3,0.2
						c0,0.2-0.2,0.2-0.4,0.3v3.2l2.9-0.7l0.1,0.9l-2.9,0.7v3.4c0,0.3,0.1,0.4,0.4,0.4h0.7c0.4,0,0.5-0.3,0.7-1.6l0.8,0.5
						c-0.4,1.6-0.6,2-1.4,2H89.5z M97.4,159.8c0,2.5-0.1,5.7-0.3,7.6c-0.4,2.6-1.1,2.6-1.9,2.6c0,0-0.5,0-1.1-0.1l-0.2-1.1
						c0.6,0.2,0.8,0.2,1.1,0.2c0.7,0,0.9-0.3,1.2-2c0.3-1.9,0.3-4.7,0.3-6.3h-2.4c0,4.2-0.4,7.3-3.2,9.5l-0.8-0.7
						c2.7-1.8,3.1-4.6,3.1-8.8H91v-0.9H97.4z"/>
					<path class="st1" d="M101.5,160c-0.2,0.6-0.4,1.2-0.7,2.5c-0.1,0.8-0.2,1.7-0.2,2.5c0,0.7,0.1,1.2,0.1,1.8
						c0,0.4,0.1,0.4,0.1,0.7c0.2-0.4,0.3-0.7,0.6-1.9l0.7,0.5c-0.2,0.4-0.5,1.2-0.8,2.9l-0.7,0.1c-0.5-1.3-0.8-2.3-0.8-4
						c0-1.1,0.1-2.6,0.3-3.3c0.3-1.2,0.3-1.3,0.3-1.6c0.1-0.5,0.1-0.6,0.1-0.8L101.5,160z M104,165.8c0,0.1,0,0.7,0,0.8
						c0.2,0.9,0.9,1,1.8,1c1.4,0,2.2-0.2,3-0.5v1c-0.6,0.2-1.3,0.3-3.1,0.3c-1.5,0-2.6-0.1-2.6-2.6L104,165.8z M103.7,160.5
						c0.3,0.1,0.8,0.1,1.7,0.1c0.6,0,1.8-0.1,2.9-0.5l0,1c-1.8,0.3-2.7,0.3-4,0.3c-0.3,0-0.4,0-0.6,0L103.7,160.5z"/>
					<path class="st1" d="M113,159.4c-0.1,0.4-0.4,1.2-0.7,1.9c0.1,0.1,0.2,0.1,0.2,0.3c0,0.1-0.1,0.2-0.1,0.3v8.2h-0.8v-7.3
						c-0.3,0.5-0.5,0.8-0.8,1.3l-0.7-0.5c0.6-0.8,1.5-2,2.2-4.8l0.8,0.4c0,0,0.1,0.1,0.1,0.1C113.2,159.3,113.1,159.4,113,159.4z
						 M115.9,161.4v0.8h1.7v3.6h-1.7v0.9h1.7v0.7h-1.7v0.9c1.1-0.2,1.2-0.3,1.6-0.4l-0.2,0.7c-1.4,0.4-2.5,0.6-3.8,0.9
						c-0.1,0.2-0.1,0.3-0.2,0.3s-0.1-0.1-0.2-0.2l-0.3-0.8c0.4,0,1.3-0.2,2.2-0.3v-1.1h-1.8v-0.7h1.8v-0.9h-1.7v-3.6h1.7v-0.8h-2
						v-0.7h2v-0.8c-0.8,0.1-1,0.1-1.3,0.1l-0.4-0.7c1.1-0.1,2.3-0.1,3.4-0.4l0.6,0.6c0,0,0.1,0.1,0.1,0.2s-0.1,0.1-0.1,0.1
						c-0.1,0-0.2,0-0.3-0.1c-0.5,0.1-0.8,0.2-1.1,0.2v0.9h2v0.7H115.9z M115.1,162.8h-0.9v0.8h0.9V162.8z M115.1,164.3h-0.9v0.8h0.9
						V164.3z M116.8,162.8h-0.9v0.8h0.9V162.8z M116.8,164.3h-0.9v0.8h0.9V164.3z M120.7,169c-0.2,0.9-0.7,1-1.4,1h-0.5l-0.2-1
						c0.5,0.1,0.6,0.1,0.8,0.1c0.4,0,0.6-0.2,0.7-1.2c0.2-1.7,0.2-3.8,0.2-5.4h-0.8c0,1.5-0.1,5.1-1.8,7.4l-0.8-0.4
						c1.7-2.1,1.7-5.1,1.8-7h-0.9v-0.8h0.9v-2.9l0.8,0.1c0.1,0,0.2,0,0.2,0.1s-0.1,0.1-0.2,0.2v2.5h1.6
						C121.1,164.6,121.1,167.6,120.7,169z"/>
					<path class="st1" d="M124.5,169c-0.8-1.1-1.1-3.3-1.1-4.7c0-1.9,0.4-3.8,0.6-4.7l0.9,0.4c-0.4,1.4-0.7,2.8-0.7,4.5
						c0,0.9,0.1,1.9,0.4,2.8c0.3-0.5,0.5-1.1,0.6-1.7l0.7,0.6c-0.4,0.8-0.7,1.7-0.9,2.5L124.5,169z M130.3,159.5
						c0.1,0.9,0.1,1.8,0.2,2.7c0.6-0.2,1.1-0.3,1.5-0.5l0,1c-0.4,0.2-0.6,0.2-1.5,0.4c0,3.9-0.6,5.1-1.9,6.7l-0.9-0.6
						c0.6-0.5,1.2-1,1.6-2.5c0.3-1.1,0.3-2.5,0.3-3.4c-0.5,0.1-1.2,0.1-2,0.1c-0.2,0-0.3,0-0.7,0l-0.4-1c0.2,0,0.6,0.1,1.4,0.1
						c0.7,0,1.2-0.1,1.5-0.1c0-0.6-0.1-1.7-0.3-3L130.3,159.5z"/>
					<path class="st1" d="M134.8,160.2c2.7,0,4.1-0.4,5.1-0.7l0.4,0.7c-0.1,0.1-0.6,0.5-0.7,0.6c-1.1,1.2-1.7,1.9-2.5,2.6
						c0.4-0.2,0.8-0.4,1.5-0.4c0.9,0,3,0.5,3,2.9c0,2.4-2.3,3.5-3.8,3.5c-1,0-2.4-0.5-2.4-1.7c0-0.8,0.6-1.5,1.7-1.5
						c1.6,0,2.2,1.3,2.4,1.8c0.3-0.3,1.2-0.9,1.2-2.1c0-0.9-0.5-2-2.2-2c-2.1,0-4.1,2.2-4.3,2.5l-0.8-0.7c2.1-1.7,3.8-3.5,5-5
						c-0.7,0.2-1.9,0.4-3.4,0.5L134.8,160.2z M137.1,167c-0.5,0-0.8,0.3-0.8,0.6c0,0.5,0.9,0.9,1.5,0.9c0.3,0,0.7-0.1,1-0.1
						C138.6,167.9,138.1,167,137.1,167z"/>
					<path class="st1" d="M107,180.4c-1.1-0.4-2.1-1-3.1-1.8c-0.7-0.6-1.4-1.3-1.9-2.1c-0.8,1-2.3,2.8-5.1,4.1l-0.7-0.8
						c2.5-0.9,4.3-2.5,5.3-4.4l0.9,0.3c0.1,0.1,0.3,0.1,0.3,0.2c0,0.1,0,0.1,0,0.2c0.7,1.3,2.4,2.6,4.9,3.4L107,180.4z M101.8,183
						c-0.8,1.4-1.2,2.2-1.5,2.7c1.1-0.1,2.3-0.3,3.4-0.4c0.3-0.1,0.6-0.1,0.8-0.1c-0.6-0.8-0.7-1-1-1.4l0.7-0.4
						c0.7,0.7,1.4,1.6,2.2,3.2l-0.8,0.5c-0.5-1-0.6-1-0.7-1.2c-1.5,0.3-3.3,0.6-6.4,1c-0.1,0.1-0.2,0.3-0.3,0.3
						c-0.1,0-0.2-0.2-0.2-0.2l-0.2-1c0.4,0,0.6,0,1.5-0.1c0.7-1.2,1.3-2.4,1.5-2.8h-3.6v-0.9h10.1v0.9H101.8z M99.4,180.5v-0.9h5.3
						v0.9H99.4z"/>
					<path class="st1" d="M111,182c-0.8,0.8-1.3,1.2-1.6,1.4l-0.8-0.6c2.1-1.3,3.3-3.1,3.7-3.8H109v-0.8h1.9v-2.5l0.8,0.1
						c0.1,0,0.3,0,0.3,0.2c0,0.1,0,0.1-0.3,0.3v2h1.4l0.3,0.3c-0.3,0.8-0.8,1.5-1.4,2.2c0.7,0.9,1.4,1.3,1.9,1.6l-0.6,0.6
						c-0.8-0.5-1.2-0.9-1.5-1.3v5.4H111V182z M116.4,175.7l0.9,0.1c0.1,0,0.3,0,0.3,0.1s-0.1,0.2-0.3,0.3v3.3h2.1v0.9h-2.1v5.1h2.5
						v0.9h-6.3v-0.9h2.9v-5.1h-2.3v-0.9h2.3V175.7z"/>
				</g>
			</g>
		</g>
		<g>
			<g>
				
					<ellipse transform="matrix(0.1998 -0.9798 0.9798 0.1998 -70.6961 234.5366)" class="st2" cx="108.2" cy="160.6" rx="45" ry="45"/>
			</g>
		</g>
	</g>
	<g>
		<g>
			<path class="st1" d="M213.2,142.7c0,4.1,3.3,7.4,7.4,7.4c4.1,0,7.4-3.3,7.4-7.4c0-4.1-3.3-7.4-7.4-7.4
				C216.5,135.4,213.2,138.7,213.2,142.7z"/>
			<g>
				<path class="st1" d="M182.5,134.4c0.9-1.3,2.6-1.7,4-0.9l22.5,13c0.3,0.2,0.6,0.3,1,0.5l2.7,13.5l11.2-5.4
					c1.1,0.9,2,1.8,2.5,2.7l5.6,9.6c1.1,1.6,0.6,3.8-1,4.9c-0.5,0.3-1,0.5-1.5,0.5c-0.2,0-0.4,0-0.7,0c0,0-0.1,0-0.1,0c0,0,0,0,0,0
					l-14.6-2.4c-1.6-0.2-2.7-1.6-2.5-3.2c0.2-1.6,1.6-2.7,3.2-2.5l8.4,0.7l-0.7-1.6l-7.6-0.6c-0.2,0-0.3,0-0.5,0
					c-2.2,0-4.1,1.7-4.3,3.8c-0.1,1.2,0.2,2.3,0.9,3.2c0.7,0.9,1.7,1.5,2.9,1.6l9.6,1.6c0,3,0,6,0,7.8l-0.5,10.3l14.6,1.2
					c2.1,0.1,3.7,1.8,3.6,3.9c-0.1,2.1-1.8,3.7-3.9,3.6l-19.3,0.1c-2.5-0.1-4.5-2.2-4.4-4.8c0-0.2-0.4-11.3-0.4-11.3h-12.1l4.5,11
					c0.9,1.9,0,4.1-1.8,5c-1.9,0.9-4.1,0-5-1.8l-8.9-17.2c-1.1-2.3-0.1-5,2.2-6.1c0.8-0.4,1.7-0.5,2.6-0.5l11.6-0.5
					c0.2-1.5,0.2-18.9-1.3-19.8l-21.4-16C182,137.5,181.6,135.7,182.5,134.4z"/>
				
					<rect x="215.9" y="150.4" transform="matrix(0.4452 -0.8954 0.8954 0.4452 -15.9132 278.4421)" class="st1" width="1.7" height="3.3"/>
				<polygon class="st1" points="213.3,159.1 212.7,156.4 214.6,152.7 217.6,154.2 215.7,157.9 				"/>
			</g>
		</g>
		<path class="st0" d="M178.4,129c-3.8,0.8-6.1,3.9-6.6,6.6c-0.5-2.7-2.8-5.8-6.6-6.6c3.7-0.8,6.1-3.9,6.6-6.6
			C172.3,125.2,174.6,128.3,178.4,129z"/>
		<path class="st0" d="M185.8,148.8c-2.2,0.5-3.6,2.3-3.9,3.9c-0.3-1.6-1.7-3.5-3.9-3.9c2.2-0.5,3.6-2.3,3.9-3.9
			C182.2,146.5,183.6,148.4,185.8,148.8z"/>
		<path class="st0" d="M178.4,155.3c-3,0.6-4.9,3.1-5.3,5.3c-0.4-2.2-2.2-4.6-5.2-5.3c3-0.6,4.9-3.1,5.2-5.2
			C173.5,152.2,175.4,154.7,178.4,155.3z"/>
	</g>
</g>
</svg>
