<svg xmlns="http://www.w3.org/2000/svg" width="440.727" height="377.849" viewBox="0 0 440.727 377.849" fill='#8736BD'>
  <g id="Icon_ionic-ios-folder-open" data-name="Icon ionic-ios-folder-open" transform="translate(-12.51 -25)">
    <path id="Path_1" data-name="Path 1" d="M402.849,79.119c0-13.087-9.249-22.632-22.435-22.632H189.227a7.275,7.275,0,0,1-6-2.362l-22.14-22.14-.2-.2C156.066,27.263,152.131,25,143.865,25H49.3C35.725,25,25,35.135,25,47.632v71.831H402.849Z" transform="translate(18.972)"/>
    <path id="Path_2" data-name="Path 2" d="M43.972,73.438H35.8c-12.595,0-24.895,5.018-23.124,23.911S35.8,304.673,35.8,304.673c2.657,17.515,11.513,24.6,24.6,24.6H407.258c12.5,0,20.664-7.675,22.632-24.6,0,0,21.844-181.938,23.222-202.208,1.378-20.172-8.757-29.027-23.222-29.027H43.972Z" transform="translate(0 73.576)"/>
  </g>
</svg>
