<svg id="Layer_1" data-name="Layer 1" xmlns="http://www.w3.org/2000/svg" viewBox="0 0 52.9 58.77"><defs><style>.cls-1{fill:#8736bd;}.cls-2{fill:#efc039;}</style></defs><path class="cls-1" d="M52.9,3.89V2.78A2.83,2.83,0,0,0,50,0H2.87A2.83,2.83,0,0,0,0,2.78V3.89a2.81,2.81,0,0,0,2.18,2.7V34.24A2.79,2.79,0,0,0,0,36.94v1.11a2.83,2.83,0,0,0,2.87,2.78h7.32L5.09,57.28a1.15,1.15,0,0,0,.76,1.44,1.33,1.33,0,0,0,.34.05h4.6a1.15,1.15,0,0,0,1.1-.81l5.32-17.13h5.91V57.62a1.16,1.16,0,0,0,1.15,1.15h4.37a1.15,1.15,0,0,0,1.15-1.15h0V40.83h5.8L40.91,58a1.15,1.15,0,0,0,1.1.81h4.6a1.16,1.16,0,0,0,1.15-1.15,1.41,1.41,0,0,0,0-.35l-5.1-16.45H50A2.83,2.83,0,0,0,52.92,38v-1.1a2.8,2.8,0,0,0-2.19-2.7V6.59A2.8,2.8,0,0,0,52.9,3.89ZM2.87,2.3H50a.53.53,0,0,1,.57.48V3.89a.53.53,0,0,1-.57.48H2.87a.53.53,0,0,1-.57-.48V2.78h0A.53.53,0,0,1,2.87,2.3ZM48.42,6.67V34.16H4.49V6.67ZM9.94,56.47H7.75L12.6,40.83h2.19Zm17.55,0H25.42V40.83h2.07Zm17.55,0H42.85L38,40.83h2.19ZM50.6,38.05a.53.53,0,0,1-.57.48H41.26a1.24,1.24,0,0,0-.47,0H36.67a1.29,1.29,0,0,0-.48,0H16.59a1.24,1.24,0,0,0-.47,0H12a1.24,1.24,0,0,0-.47,0H2.87a.53.53,0,0,1-.57-.48V36.94a.53.53,0,0,1,.57-.48H50a.53.53,0,0,1,.57.48v1.11Z"/><path class="cls-2" d="M40.19,9.29a3.57,3.57,0,0,0-2.74,5.84l-5.71,9.34a3.55,3.55,0,0,0-2.11.17L24.72,19a3.56,3.56,0,1,0-6.35-.4l-4,3.6A3.57,3.57,0,1,0,15.7,27a3.52,3.52,0,0,0,.17-3.13l4-3.61a3.57,3.57,0,0,0,3.09.2l4.9,5.68a3.56,3.56,0,1,0,5.81-.48l5.71-9.34a3.57,3.57,0,0,0,1.56-7,4.13,4.13,0,0,0-.78-.08ZM12.59,26.54a1.27,1.27,0,1,1,1.27-1.27h0a1.27,1.27,0,0,1-1.27,1.27Zm9.06-8.11a1.27,1.27,0,1,1,1.27-1.26h0a1.28,1.28,0,0,1-1.27,1.26ZM31,29.21A1.27,1.27,0,1,1,32.23,28h0A1.26,1.26,0,0,1,31,29.21Zm9.22-15.09a1.27,1.27,0,1,1,1.27-1.27h0a1.27,1.27,0,0,1-1.27,1.27Z"/><path class="cls-2" d="M12.07,8.51H7.36a1.15,1.15,0,1,0,0,2.3h4.71a1.15,1.15,0,1,0,0-2.3Z"/><circle class="cls-2" cx="15.24" cy="9.66" r="1.15"/></svg>