<svg id="Layer_1" data-name="Layer 1" xmlns="http://www.w3.org/2000/svg" viewBox="0 0 68.21 55.96"><defs><style>.cls-1{fill:#8736bd;}.cls-2{fill:#efc039;}</style></defs><path class="cls-1" d="M61.55,0H6.66A6.66,6.66,0,0,0,0,6.66V49.29A6.67,6.67,0,0,0,6.66,56H61.55a6.67,6.67,0,0,0,6.66-6.67V6.66A6.66,6.66,0,0,0,61.55,0Zm4,49.29a4,4,0,0,1-4,4H6.66a4,4,0,0,1-4-4V6.66a4,4,0,0,1,4-4H61.55a4,4,0,0,1,4,4Z"/><path class="cls-2" d="M27.91,26.58a1.33,1.33,0,1,0,1.33,1.33A1.34,1.34,0,0,0,27.91,26.58Z"/><path class="cls-1" d="M56.94,6.4a4,4,0,0,0-4,4,4,4,0,0,0,1.88,3.37L51.9,27.24,50.56,28v-.1a22.69,22.69,0,1,0-.25,3.32l3.43-2a1.34,1.34,0,0,0,.63-.87l3.07-14a4,4,0,0,0-.5-8ZM47.82,29.59l-8.88,5.13a3.32,3.32,0,0,0-3.64-.2l-3.46,2a3.33,3.33,0,0,0,3.33,5.77l3.46-2A3.35,3.35,0,0,0,40.28,37l7-4a20,20,0,1,1,.65-5.09,15.44,15.44,0,0,1-.07,1.67ZM37.3,38l-3.46,2a.67.67,0,1,1-.67-1.15l3.46-2a.63.63,0,0,1,.33-.09A.67.67,0,0,1,37.3,38ZM56.94,11.73a1.33,1.33,0,1,1,1.34-1.33A1.33,1.33,0,0,1,56.94,11.73Z"/><path class="cls-2" d="M36.57,12.91a17.33,17.33,0,0,0-23.66,6.34,1.33,1.33,0,0,0,2.31,1.33,14.65,14.65,0,0,1,20-5.36,1.33,1.33,0,0,0,1.35-2.3Z"/><path class="cls-2" d="M31,16.33a12,12,0,0,0-8,.62,1.33,1.33,0,1,0,1.08,2.44h0a9.32,9.32,0,0,1,6.2-.49A1.33,1.33,0,1,0,31,16.33Z"/><path class="cls-2" d="M21.33,19.42a1.33,1.33,0,0,0-1.88,0h0a1.34,1.34,0,0,0,1.89,1.89v0a1.33,1.33,0,0,0,0-1.88Z"/><path class="cls-1" d="M27.91,21.25a6.66,6.66,0,1,0,6.66,6.66h0A6.66,6.66,0,0,0,27.91,21.25Zm0,10.66a4,4,0,1,1,4-4A4,4,0,0,1,27.91,31.91Z"/><path class="cls-2" d="M61.69,42.9H56.22a1.33,1.33,0,1,0,0,2.66h5.47a1.33,1.33,0,1,0,0-2.66Z"/><path class="cls-2" d="M61.69,47.83H56.22a1.33,1.33,0,1,0,0,2.66h5.47a1.33,1.33,0,1,0,0-2.66Z"/><path class="cls-2" d="M61.69,38H56.22a1.34,1.34,0,0,0,0,2.67h5.47a1.34,1.34,0,0,0,0-2.67Z"/></svg>