<svg id="Layer_1" data-name="Layer 1" xmlns="http://www.w3.org/2000/svg" viewBox="0 0 68.21 56.02"><defs><style>.cls-1{fill:#8736bd;}.cls-2{fill:#efc039;}</style></defs><path class="cls-1" d="M64.22,0H4A4,4,0,0,0,0,4V43.83a4,4,0,0,0,4,4H39.15L37.31,51a1.33,1.33,0,0,0,.49,1.82,1.24,1.24,0,0,0,.5.17l2.66.32,1.64,2.16a1.3,1.3,0,0,0,1.06.53h.08a1.31,1.31,0,0,0,1.07-.66l3.34-5.79,3.35,5.79a1.29,1.29,0,0,0,1.07.66h.08a1.32,1.32,0,0,0,1.07-.53l1.6-2.14L58,53a1.33,1.33,0,0,0,1.15-1.49A1.35,1.35,0,0,0,59,51l-1.84-3.19h7a4,4,0,0,0,4-4V4A4,4,0,0,0,64.22,0ZM43.52,52.29l-.77-1a1.33,1.33,0,0,0-.9-.52l-1.22-.15,1.77-3.07a1.22,1.22,0,0,0,.17-.15,8.55,8.55,0,0,0,1.5,1,9.4,9.4,0,0,0,1.34.59Zm1.82-6.21a5.89,5.89,0,1,1,5.65,0l.81-.45-.81.45a6,6,0,0,1-5.65,0Zm9.1,4.7a1.29,1.29,0,0,0-.9.52l-.74,1L50.92,49a8.39,8.39,0,0,0,1.34-.59,8.62,8.62,0,0,0,1.55-1.08l1.89,3.28Zm11.11-7a1.34,1.34,0,0,1-1.33,1.34H55.63l0,0a8.56,8.56,0,1,0-14.88,0l0,0H4a1.33,1.33,0,0,1-1.33-1.34V4A1.32,1.32,0,0,1,4,2.67H64.22A1.33,1.33,0,0,1,65.55,4Z"/><path class="cls-2" d="M48.09,20.52H20a1.33,1.33,0,0,0,0,2.66H48.09a1.33,1.33,0,1,0,0-2.66Z"/><path class="cls-2" d="M48.09,25.85H20a1.33,1.33,0,1,0,0,2.66H48.09a1.33,1.33,0,1,0,0-2.66Z"/><path class="cls-2" d="M36.24,11.59H28a1.33,1.33,0,1,0,0,2.66h8.26a1.33,1.33,0,0,0,0-2.66Z"/><path class="cls-2" d="M29.31,34.51h-5.6a1.33,1.33,0,0,0,0,2.66h5.6a1.33,1.33,0,0,0,0-2.66Z"/></svg>