<svg xmlns="http://www.w3.org/2000/svg" viewBox="0 0 500 372.36"><defs><style>.cls-1{fill:#ebebeb;}.cls-2{fill:#e6e6e6;}.cls-3{fill:#f0f0f0;}.cls-4{fill:#f5f5f5;}.cls-5{fill:#fafafa;}.cls-19,.cls-23,.cls-6{fill:#fff;}.cls-7{fill:#e0e0e0;opacity:0.6;}.cls-22,.cls-8{fill:#263238;}.cls-9{fill:#ffb573;}.cls-10{fill:#5d42bf;}.cls-11,.cls-12,.cls-23{opacity:0.2;}.cls-13,.cls-14{fill:#551b8c;}.cls-14,.cls-19,.cls-22{opacity:0.4;}.cls-15,.cls-18{fill:#407bff;}.cls-15{opacity:0.3;}.cls-16{opacity:0.5;}.cls-17{fill:#ed893e;}.cls-20,.cls-21{fill:#624ad3;}.cls-20{opacity:0.7;}</style></defs><g id="Background_Complete" data-name="Background Complete"><rect class="cls-1" y="327.2" width="500" height="0.25"/><rect class="cls-1" x="416.78" y="343.29" width="33.12" height="0.25"/><rect class="cls-1" x="322.53" y="346.01" width="8.69" height="0.25"/><rect class="cls-1" x="396.59" y="334.01" width="19.19" height="0.25"/><rect class="cls-1" x="52.46" y="335.69" width="43.19" height="0.25"/><rect class="cls-1" x="104.56" y="335.69" width="6.33" height="0.25"/><rect class="cls-1" x="131.47" y="339.91" width="93.68" height="0.25"/><path class="cls-1" d="M237,282.6H43.91a5.71,5.71,0,0,1-5.7-5.71V5.46a5.71,5.71,0,0,1,5.7-5.71H237a5.71,5.71,0,0,1,5.71,5.71V276.89A5.71,5.71,0,0,1,237,282.6ZM43.91,0a5.46,5.46,0,0,0-5.45,5.46V276.89a5.46,5.46,0,0,0,5.45,5.46H237a5.47,5.47,0,0,0,5.46-5.46V5.46A5.47,5.47,0,0,0,237,0Z"/><path class="cls-1" d="M453.31,282.6H260.21a5.72,5.72,0,0,1-5.71-5.71V5.46a5.72,5.72,0,0,1,5.71-5.71h193.1A5.71,5.71,0,0,1,459,5.46V276.89A5.71,5.71,0,0,1,453.31,282.6ZM260.21,0a5.47,5.47,0,0,0-5.46,5.46V276.89a5.47,5.47,0,0,0,5.46,5.46h193.1a5.47,5.47,0,0,0,5.46-5.46V5.46A5.47,5.47,0,0,0,453.31,0Z"/><rect class="cls-2" x="54.97" y="254.75" width="27.19" height="72.44" transform="translate(137.14 581.95) rotate(180)"/><polygon class="cls-3" points="60.14 327.19 54.97 327.19 54.97 308.05 65.55 308.05 60.14 327.19"/><rect class="cls-2" x="210.1" y="254.75" width="27.19" height="72.44" transform="translate(447.39 581.95) rotate(180)"/><rect class="cls-3" x="54.97" y="254.75" width="159.63" height="67.22" transform="translate(269.58 576.72) rotate(180)"/><polygon class="cls-3" points="209.44 327.19 214.61 327.19 214.61 308.05 204.03 308.05 209.44 327.19"/><path class="cls-2" d="M209.8,313.88H161.48V262.16H209.8Zm-47.32-1H208.8V263.16H162.48Z"/><path class="cls-2" d="M159,313.88H110.63V262.16H159Zm-47.32-1H158V263.16H111.63Z"/><path class="cls-2" d="M108.1,313.88H59.78V262.16H108.1Zm-47.32-1H107.1V263.16H60.78Z"/><rect class="cls-2" x="271.46" y="40.05" width="160.21" height="136.41" transform="translate(703.13 216.5) rotate(180)"/><rect class="cls-4" x="267.86" y="40.05" width="162.24" height="136.41" transform="translate(697.96 216.5) rotate(180)"/><rect class="cls-5" x="287.32" y="33.6" width="123.32" height="149.3" transform="translate(457.23 -240.73) rotate(90)"/><polygon class="cls-6" points="405.31 169.91 346.55 46.59 326.59 46.59 385.35 169.91 405.31 169.91"/><polygon class="cls-6" points="379.69 169.91 320.93 46.59 307.19 46.59 365.95 169.91 379.69 169.91"/><rect class="cls-2" x="264.25" y="104.39" width="123.32" height="7.72" transform="translate(434.16 -217.65) rotate(90)"/><rect class="cls-2" x="315.57" y="104.39" width="123.32" height="7.72" transform="translate(485.48 -268.97) rotate(90)"/><rect class="cls-4" x="257.33" y="103.02" width="132.34" height="9.76" transform="translate(431.39 -215.6) rotate(90)"/><rect class="cls-4" x="308.65" y="103.02" width="132.34" height="9.76" transform="translate(482.71 -266.92) rotate(90)"/><rect class="cls-2" x="213.02" y="107.91" width="123.32" height="0.69" transform="translate(382.93 -166.42) rotate(90)"/><path class="cls-2" d="M265.14,31.63H438.71a.83.83,0,0,1,.83.83h0a.84.84,0,0,1-.83.84H265.14a.84.84,0,0,1-.83-.84h0A.83.83,0,0,1,265.14,31.63Z"/><path class="cls-2" d="M431.67,37.14h0A1.14,1.14,0,0,0,432.8,36V33.59a1.14,1.14,0,0,0-1.13-1.13h0a1.14,1.14,0,0,0-1.13,1.13V36A1.14,1.14,0,0,0,431.67,37.14Z"/><path class="cls-2" d="M277.73,37.14h0A1.14,1.14,0,0,0,278.86,36V33.59a1.14,1.14,0,0,0-1.13-1.13h0a1.14,1.14,0,0,0-1.13,1.13V36A1.14,1.14,0,0,0,277.73,37.14Z"/><rect class="cls-7" x="265.41" y="32.46" width="162.13" height="67.7" transform="translate(692.94 132.63) rotate(180)"/><rect class="cls-5" x="86.21" y="206.85" width="31.41" height="47.9" rx="4.37"/><rect class="cls-2" x="86.21" y="203.3" width="31.41" height="4.12" rx="1.47"/><rect class="cls-3" x="179.71" y="219.98" width="22.79" height="34.77" rx="3.17"/><rect class="cls-2" x="179.71" y="217.41" width="22.79" height="2.99" rx="1.06"/><rect class="cls-3" x="109.96" y="226.82" width="43.16" height="27.93" rx="6"/><rect class="cls-4" x="109.96" y="221.94" width="43.16" height="5.66" rx="2.01"/><rect class="cls-2" x="282.44" y="244.55" width="5.04" height="82.64" transform="translate(569.91 571.75) rotate(180)"/><rect class="cls-2" x="400.67" y="228.47" width="27.29" height="16.08"/><rect class="cls-4" x="264.99" y="228.47" width="135.68" height="16.08" transform="translate(665.65 473.02) rotate(180)"/><rect class="cls-2" x="400.67" y="271.42" width="27.29" height="16.08"/><rect class="cls-4" x="264.99" y="271.42" width="135.68" height="16.08" transform="translate(665.65 558.91) rotate(180)"/><rect class="cls-2" x="418.12" y="244.55" width="5.04" height="82.64" transform="translate(841.27 571.75) rotate(180)"/><rect class="cls-4" x="395.63" y="244.55" width="5.04" height="82.64" transform="translate(796.29 571.75) rotate(180)"/><rect class="cls-4" x="264.99" y="244.55" width="5.04" height="82.64" transform="translate(535.01 571.75) rotate(180)"/><rect class="cls-3" x="69.68" y="46.9" width="64.14" height="71.93" transform="translate(203.5 165.73) rotate(180)"/><rect class="cls-4" x="65.16" y="46.9" width="67.67" height="71.93" transform="translate(197.98 165.73) rotate(180)"/><rect class="cls-6" x="68.69" y="54.7" width="60.6" height="56.33" transform="translate(16.12 181.85) rotate(-90)"/><path class="cls-3" d="M89.65,65.4a11.3,11.3,0,0,0-4.42,21.72l41.93,17.65V80.22L94,66.27A11.33,11.33,0,0,0,89.65,65.4Z"/><rect class="cls-3" x="154.86" y="82.87" width="64.14" height="71.93" transform="translate(373.86 237.66) rotate(180)"/><rect class="cls-4" x="150.34" y="82.87" width="67.67" height="71.93" transform="translate(368.34 237.66) rotate(180)"/><rect class="cls-6" x="153.87" y="90.67" width="60.6" height="56.33" transform="translate(65.34 303) rotate(-90)"/><path class="cls-3" d="M190.51,112,156,97.44v25.14l25.52,10.73a11.58,11.58,0,1,0,9-21.35Z"/></g><g id="Shadow"><ellipse id="_Path_" data-name="&lt;Path&gt;" class="cls-4" cx="250" cy="361.04" rx="193.89" ry="11.32"/></g><g id="Character"><path class="cls-8" d="M194.07,61c1-4.2,11.46-8.2,20.46-2A22,22,0,0,1,223,84.25c-4.83,14.3,20.38,13.77,26.22,37.88,4.61,19,.34,45.91-25.39,44.45C184.59,164.35,188,126,186.26,105.8S163.11,63,194.07,61Z"/><path class="cls-9" d="M181.1,114.86c-.17,2.91-.51,5.59-.89,8.36s-.91,5.48-1.5,8.2-1.26,5.43-2.11,8.12a74.85,74.85,0,0,1-2.92,8l-.88,2c-.13.3-.37.74-.55,1.1s-.42.72-.63,1.07a29.44,29.44,0,0,1-2.74,3.65,63.2,63.2,0,0,1-6,6,111.72,111.72,0,0,1-13.16,10l-2.67-3.45c1.88-1.83,3.8-3.7,5.65-5.58s3.68-3.79,5.42-5.73a75.94,75.94,0,0,0,4.85-5.89,27.24,27.24,0,0,0,1.88-3c.11-.23.25-.47.34-.69s.19-.4.3-.73l.68-1.76a99.2,99.2,0,0,0,4-14.83c.51-2.54.88-5.12,1.26-7.69s.67-5.22.89-7.66Z"/><path class="cls-10" d="M175.1,104.35c-3.55.91-6,15.53-6,15.53l13.59,9.23s5.59-17.32,2.85-21.23C182.66,103.81,180.28,103,175.1,104.35Z"/><polygon class="cls-11" points="175.42 107.62 172.69 122.35 178.19 126.08 175.42 107.62"/><path class="cls-9" d="M148.68,166.58,139.53,168l5.22,5.78s5.39-1.23,6.34-4.69Z"/><polygon class="cls-9" points="135.2 169.18 140.42 174.84 144.75 173.82 139.53 168.04 135.2 169.18"/><polygon class="cls-9" points="194.32 350.4 185.7 350.4 185.12 330.44 193.74 330.44 194.32 350.4"/><polygon class="cls-9" points="253.92 325 245.94 328.26 235.83 310.82 243.81 307.57 253.92 325"/><path class="cls-8" d="M244.44,327.06l8.32-4.95a.69.69,0,0,1,.9.16l4.86,6a1.39,1.39,0,0,1-.41,2c-2.93,1.67-4.43,2.33-8.09,4.51-2.25,1.33-7.55,5.92-10.66,7.77s-5.1-1.13-4-2.18a29.53,29.53,0,0,0,8.08-12.17A2.29,2.29,0,0,1,244.44,327.06Z"/><path class="cls-8" d="M185.4,349.4h9.69a.68.68,0,0,1,.68.59l1.11,7.66a1.39,1.39,0,0,1-1.38,1.54c-3.38-.06-5-.26-9.27-.26-2.62,0-8,.27-11.65.27s-3.81-3.58-2.31-3.9c6.76-1.45,9.42-3.46,11.69-5.37A2.29,2.29,0,0,1,185.4,349.4Z"/><g class="cls-12"><polygon points="185.13 330.45 185.42 340.74 194.04 340.74 193.75 330.45 185.13 330.45"/><polygon points="243.82 307.57 235.83 310.83 241.05 319.81 249.03 316.56 243.82 307.57"/></g><path class="cls-10" d="M175.1,104.35s-4.11,1.45,4.12,52h35c-.59-14.24-.6-23,6.21-52.27a104.5,104.5,0,0,0-14.87-2,110.7,110.7,0,0,0-15.89,0C182.84,102.77,175.1,104.35,175.1,104.35Z"/><path class="cls-11" d="M217.54,115.68c-3.17.79-6.1,4.25-5.75,10.62a15.31,15.31,0,0,0,2.92,8c.56-4.9,1.5-10.59,3-17.87Z"/><path class="cls-5" d="M191.51,116.13s4.55,2.81,5.74,7c4.94-3.61,11.65-13.69,11.92-19.71a1.33,1.33,0,0,0-1.33-1.34,17.74,17.74,0,0,0-2.28.09Z"/><path class="cls-5" d="M191.51,116.13s-4.55,2.81-5.74,7c-5.31-3.89-2.36-16.72.68-21a14.5,14.5,0,0,1,3.22,0Z"/><path class="cls-9" d="M204,84.25c-1,5.11-2,14.48,1.57,17.89a36.93,36.93,0,0,1-14.05,14c-7.09-5.67-1.84-14-1.84-14,5.7-1.37,5.55-5.6,4.56-9.57Z"/><path class="cls-11" d="M200,87.65l-5.78,4.92a15.73,15.73,0,0,1,.49,2.82c2.18-.31,5.61-2.17,6.08-4.54C201,89.73,200.2,88.18,200,87.65Z"/><path class="cls-9" d="M212.56,76c-2.36,8.22-3.19,11.75-8.35,15.09-7.76,5-17.34.33-17.48-8.43-.13-7.89,3.76-20,12.66-21.51A11.66,11.66,0,0,1,212.56,76Z"/><path class="cls-8" d="M194.81,61.91c.39,2.78,15.61,11.72,18.5,7s-1.27-8.16-7.75-9A16.41,16.41,0,0,0,194.81,61.91Z"/><path class="cls-8" d="M204.73,63.41c-1.87,2.47,2.09,20.18,7.76,18.52s5.41-7.34,1.47-12.57A15.19,15.19,0,0,0,204.73,63.41Z"/><path class="cls-13" d="M179.22,156.37s-6.8,66.4-6.24,92.68c.59,27.34,10.61,89.69,10.61,89.69h11.65s-1.84-60.75-.81-87.6c1.12-29.27,10.42-94.77,10.42-94.77Z"/><path class="cls-14" d="M179.22,156.37s-6.8,66.4-6.24,92.68c.59,27.34,10.61,89.69,10.61,89.69h11.65s-1.84-60.75-.81-87.6c1.12-29.27,10.42-94.77,10.42-94.77Z"/><polygon class="cls-8" points="196.25 339.16 182.58 339.16 181.58 334.8 196.89 334.26 196.25 339.16"/><path class="cls-11" d="M194.32,172.89c-8.6,17.3-1.73,48.85,1.31,60.59,1.56-17.63,4.19-39.18,6.24-55C200.56,169.52,198.28,164.92,194.32,172.89Z"/><path class="cls-13" d="M188.46,156.37s7.93,69,13.92,91.19c7.11,26.31,36,71.2,36,71.2l10.88-4.45s-18.65-51.11-24.09-65c-11.6-29.58-1.67-73.66-10.94-93Z"/><path class="cls-14" d="M188.46,156.37s7.93,69,13.92,91.19c7.11,26.31,36,71.2,36,71.2l10.88-4.45s-18.65-51.11-24.09-65c-11.6-29.58-1.67-73.66-10.94-93Z"/><polygon class="cls-8" points="250.74 314.37 237.24 319.88 234.07 316.23 249.66 309.03 250.74 314.37"/><path class="cls-8" d="M91.61,68.56a58.8,58.8,0,1,0,83,5.06A58.8,58.8,0,0,0,91.61,68.56Zm71.77,81.1a49.49,49.49,0,1,1,4.27-69.87A49.5,49.5,0,0,1,163.38,149.66Z"/><path class="cls-15" d="M127.82,157.86a45.36,45.36,0,1,1,48-42.51A45.35,45.35,0,0,1,127.82,157.86Z"/><g class="cls-16"><path class="cls-5" d="M133.34,67.32l-.85,0L85.37,109l-.06.86a45.17,45.17,0,0,0,7.46,27.8L160,78.1A45.12,45.12,0,0,0,133.34,67.32Z"/><path class="cls-5" d="M164.39,82.35,96.46,142.47a45.44,45.44,0,0,0,7.64,6.95l66.26-58.64A45.41,45.41,0,0,0,164.39,82.35Z"/></g><path class="cls-8" d="M176.85,157.07l-7.74,6.85a2.84,2.84,0,0,1-4-.25h0a2.84,2.84,0,0,1,.24-4l7.74-6.85a2.84,2.84,0,0,1,4,.24h0A2.84,2.84,0,0,1,176.85,157.07Z"/><path class="cls-8" d="M174,155.79c5.83,5.14,11.41,10.5,16.92,15.92s10.89,11,16.21,16.54,10.54,11.27,15.72,17c4.86,6,11.48,10.43,12.47,19.85a4.76,4.76,0,0,1-4.24,5.24,4.5,4.5,0,0,1-1.56-.1c-9.24-2.12-12.83-9.24-18.19-14.79q-7.58-8.75-14.94-17.67t-14.45-18.1c-4.72-6.12-9.36-12.31-13.75-18.73a3.91,3.91,0,0,1,5.81-5.14Z"/><path class="cls-8" d="M198.78,75.29c-.15.68-.63,1.15-1.08,1s-.68-.73-.53-1.41.63-1.15,1.08-1.05S198.93,74.61,198.78,75.29Z"/><path class="cls-8" d="M191.11,73.58c-.15.68-.64,1.15-1.08,1.06s-.68-.73-.53-1.41.63-1.15,1.08-1S191.26,72.91,191.11,73.58Z"/><path class="cls-8" d="M190.77,72.26l-1.53-.83S189.79,72.89,190.77,72.26Z"/><path class="cls-17" d="M193.2,75.33a18.6,18.6,0,0,1-3.38,3.8,3,3,0,0,0,2.32,1Z"/><path class="cls-8" d="M195.25,83.6a6.45,6.45,0,0,1-1-.15.19.19,0,0,1-.15-.24.2.2,0,0,1,.24-.16,5.54,5.54,0,0,0,4.85-1.12.21.21,0,0,1,.29.29A5.77,5.77,0,0,1,195.25,83.6Z"/><path class="cls-9" d="M213.11,84.23a6.28,6.28,0,0,1-4,2.63c-2.16.39-3-1.58-2.27-3.51.68-1.74,2.64-4,4.72-3.57A2.81,2.81,0,0,1,213.11,84.23Z"/><path class="cls-8" d="M202,72.29a.39.39,0,0,1-.45-.14c-1.11-1.53-3.55-1.52-3.57-1.52a.39.39,0,0,1-.41-.4.4.4,0,0,1,.4-.41c.12,0,2.88,0,4.24,1.85a.41.41,0,0,1-.09.57Z"/><path class="cls-8" d="M189.51,68a.41.41,0,0,1-.34-.23.42.42,0,0,1,.18-.55,4.07,4.07,0,0,1,3.73-.06.41.41,0,0,1-.41.71,3.23,3.23,0,0,0-2.95.08A.41.41,0,0,1,189.51,68Z"/><path class="cls-18" d="M241.13,330.33H241a1.16,1.16,0,0,1-.84-.76.7.7,0,0,1,.05-.71c.63-.9,3.75-.78,4.1-.77a.21.21,0,0,1,.18.14.19.19,0,0,1-.05.21C243.67,329.21,242.2,330.45,241.13,330.33Zm2.7-1.85c-1.25,0-2.92.13-3.25.61a.31.31,0,0,0,0,.31.81.81,0,0,0,.55.52C241.7,330,242.69,329.5,243.83,328.48Z"/><path class="cls-18" d="M244,328.47c-1.07-.12-3-.85-3.26-1.69a.71.71,0,0,1,.3-.84,1.07,1.07,0,0,1,.88-.21c1.23.24,2.51,2.36,2.57,2.45a.26.26,0,0,1,0,.21.21.21,0,0,1-.18.1A1.72,1.72,0,0,1,244,328.47Zm-2.21-2.35a.69.69,0,0,0-.5.14c-.21.16-.2.29-.16.38.2.57,1.75,1.27,2.79,1.42-.46-.69-1.34-1.79-2.07-1.93Z"/><path class="cls-18" d="M182.17,350.91a3.21,3.21,0,0,1-2.09-.53,1.12,1.12,0,0,1-.37-1,.66.66,0,0,1,.34-.55c1.06-.58,4.5,1.18,4.88,1.38a.2.2,0,0,1,.11.21.19.19,0,0,1-.16.17A14.24,14.24,0,0,1,182.17,350.91Zm-1.54-1.78a.81.81,0,0,0-.38.07.27.27,0,0,0-.14.22.77.77,0,0,0,.24.66c.52.47,1.94.55,3.85.23A11,11,0,0,0,180.63,349.13Z"/><path class="cls-18" d="M184.84,350.61l-.08,0c-1-.47-3.06-2.33-2.9-3.3,0-.23.2-.52.76-.58a1.51,1.51,0,0,1,1.13.35c1.09.91,1.29,3.23,1.29,3.33a.18.18,0,0,1-.08.18A.28.28,0,0,1,184.84,350.61Zm-2.05-3.5h-.13c-.37,0-.39.19-.4.23-.1.59,1.28,2,2.33,2.69a4.72,4.72,0,0,0-1.1-2.66A1,1,0,0,0,182.79,347.11Z"/><path class="cls-8" d="M198.44,74l-1.53-.83S197.46,74.59,198.44,74Z"/><path class="cls-18" d="M214.75,154.32l.89,3.13c.12.25-.16.49-.57.49H179c-.31,0-.57-.15-.59-.35l-.32-3.13c0-.22.25-.4.6-.4h35.45A.63.63,0,0,1,214.75,154.32Z"/><path class="cls-11" d="M214.75,154.32l.89,3.13c.12.25-.16.49-.57.49H179c-.31,0-.57-.15-.59-.35l-.32-3.13c0-.22.25-.4.6-.4h35.45A.63.63,0,0,1,214.75,154.32Z"/><path class="cls-18" d="M209.87,158.28h.95c.19,0,.33-.1.32-.21l-.45-4.08c0-.11-.18-.21-.36-.21h-1c-.19,0-.34.1-.32.21l.44,4.08C209.51,158.18,209.68,158.28,209.87,158.28Z"/><path class="cls-19" d="M209.87,158.28h.95c.19,0,.33-.1.32-.21l-.45-4.08c0-.11-.18-.21-.36-.21h-1c-.19,0-.34.1-.32.21l.44,4.08C209.51,158.18,209.68,158.28,209.87,158.28Z"/><path class="cls-18" d="M181.71,158.28h.95c.19,0,.33-.1.32-.21l-.44-4.08c0-.11-.18-.21-.37-.21h-.95c-.19,0-.33.1-.32.21l.44,4.08C181.36,158.18,181.52,158.28,181.71,158.28Z"/><path class="cls-19" d="M181.71,158.28h.95c.19,0,.33-.1.32-.21l-.44-4.08c0-.11-.18-.21-.37-.21h-.95c-.19,0-.33.1-.32.21l.44,4.08C181.36,158.18,181.52,158.28,181.71,158.28Z"/><path class="cls-18" d="M195.73,158.28h1c.19,0,.33-.1.32-.21l-.44-4.08c0-.11-.18-.21-.37-.21h-.95c-.19,0-.33.1-.32.21l.44,4.08C195.38,158.18,195.54,158.28,195.73,158.28Z"/><path class="cls-19" d="M195.73,158.28h1c.19,0,.33-.1.32-.21l-.44-4.08c0-.11-.18-.21-.37-.21h-.95c-.19,0-.33.1-.32.21l.44,4.08C195.38,158.18,195.54,158.28,195.73,158.28Z"/><path class="cls-9" d="M193.19,163.36l-8.5-3.8,2.42,8.42s5.4,1.23,7.75-1.48Z"/><path class="cls-9" d="M224.51,114.49c.39,3,.7,5.91,1.05,8.87l.9,8.9c.32,3,.56,5.93.84,8.9l.37,4.45.1,1.12c0,.11,0,.57,0,.89s0,.69,0,1a9.49,9.49,0,0,1-1.19,3.62,15.05,15.05,0,0,1-4,4.38,32,32,0,0,1-4.28,2.71A61.27,61.27,0,0,1,209.6,163c-2.93,1-5.87,1.83-8.82,2.57s-5.9,1.35-8.95,1.82l-1-4.26c2.75-.9,5.56-1.84,8.29-2.88s5.46-2.08,8.08-3.27a62,62,0,0,0,7.48-3.9,24.38,24.38,0,0,0,3.14-2.27,7.66,7.66,0,0,0,1.89-2.26,1.32,1.32,0,0,0,.16-.62s0-.05,0-.08,0,0,0-.22l-.16-1.11-.64-4.42c-.39-3-.83-5.91-1.19-8.87l-1.13-8.87c-.32-3-.69-5.92-1-8.89Z"/><path class="cls-10" d="M220.43,104.1c3.5,1.07,7.72,13.15,7.72,13.15l-12.27,12.63s-6.3-13-4.83-17.52C212.59,107.64,216.43,102.89,220.43,104.1Z"/><polygon class="cls-9" points="177.66 161.31 180.06 168.25 187.11 167.98 184.69 159.56 177.66 161.31"/></g><g id="List_of_people" data-name="List of people"><path class="cls-8" d="M296.36,136.42c2.3-16.44-9.18-29.77-25.62-29.77H390.86c16.45,0,27.92,13.33,25.63,29.77Z"/><path class="cls-20" d="M296.36,136.42c2.3-16.44-9.18-29.77-25.62-29.77H390.86c16.45,0,27.92,13.33,25.63,29.77Z"/><path class="cls-21" d="M270.74,106.65H390.86c-16.44,0-31.63,13.33-33.92,29.77L329.78,331.26C327.49,347.7,312.3,361,295.86,361H235.28c-16.44,0-27.91-13.34-25.62-29.78l27.15-194.84C239.11,120,254.29,106.65,270.74,106.65Z"/><path class="cls-8" d="M270.23,331.26C267.94,347.7,279.41,361,295.86,361H175.73c-16.44,0-27.91-13.34-25.62-29.78Z"/><path class="cls-20" d="M270.23,331.26C267.94,347.7,279.41,361,295.86,361H175.73c-16.44,0-27.91-13.34-25.62-29.78Z"/><path class="cls-19" d="M289.49,167.26H336a3,3,0,0,0,2.81-2.46h0a2.11,2.11,0,0,0-2.12-2.47H290.18a2.94,2.94,0,0,0-2.81,2.47h0A2.1,2.1,0,0,0,289.49,167.26Z"/><path class="cls-19" d="M288.21,176.43H322.4a2.94,2.94,0,0,0,2.81-2.46h0a2.1,2.1,0,0,0-2.12-2.47H288.9a2.94,2.94,0,0,0-2.81,2.47h0A2.1,2.1,0,0,0,288.21,176.43Z"/><ellipse class="cls-19" cx="259.47" cy="167.76" rx="15.93" ry="13.86" transform="translate(-44.7 222.07) rotate(-43.01)"/><path class="cls-6" d="M246.21,167.76a12.24,12.24,0,0,0,.72,6.32,11.2,11.2,0,0,0,10.7,6.95,15.65,15.65,0,0,0,12.63-6.95,14.92,14.92,0,0,0,2.48-6.32c1-7.33-4.09-13.27-11.42-13.27A15.76,15.76,0,0,0,246.21,167.76Z"/><path class="cls-22" d="M249.82,172.83a8.59,8.59,0,0,0,8.2,5.33,12,12,0,0,0,9.7-5.33,14.33,14.33,0,0,0-8.57-2.71A17.94,17.94,0,0,0,249.82,172.83Z"/><path class="cls-22" d="M255.39,164.5A3.86,3.86,0,0,0,259.3,169a5.38,5.38,0,0,0,5.16-4.53,3.85,3.85,0,0,0-3.9-4.53A5.39,5.39,0,0,0,255.39,164.5Z"/><path class="cls-19" d="M283.91,207.33H299.6a2.94,2.94,0,0,0,2.81-2.46h0a2.1,2.1,0,0,0-2.12-2.47h-15.7a2.93,2.93,0,0,0-2.8,2.47h0A2.1,2.1,0,0,0,283.91,207.33Z"/><path class="cls-19" d="M309.07,207.33h22.42a2.94,2.94,0,0,0,2.81-2.46h0a2.1,2.1,0,0,0-2.12-2.47H309.76a2.94,2.94,0,0,0-2.81,2.47h0A2.1,2.1,0,0,0,309.07,207.33Z"/><path class="cls-19" d="M282.63,216.5h38.43a2.94,2.94,0,0,0,2.81-2.46h0a2.1,2.1,0,0,0-2.12-2.47H283.31a2.94,2.94,0,0,0-2.8,2.47h0A2.1,2.1,0,0,0,282.63,216.5Z"/><ellipse class="cls-19" cx="253.89" cy="207.83" rx="15.93" ry="13.86" transform="translate(-73.53 229.02) rotate(-43.01)"/><path class="cls-6" d="M240.62,207.83a12.24,12.24,0,0,0,.73,6.32A11.19,11.19,0,0,0,252,221.1a15.61,15.61,0,0,0,12.63-6.95,14.81,14.81,0,0,0,2.49-6.32c1-7.33-4.09-13.26-11.42-13.26A15.75,15.75,0,0,0,240.62,207.83Z"/><path class="cls-22" d="M244.23,212.9a8.6,8.6,0,0,0,8.21,5.33,12,12,0,0,0,9.69-5.33,14.31,14.31,0,0,0-8.57-2.71A18,18,0,0,0,244.23,212.9Z"/><path class="cls-22" d="M249.81,204.57a3.86,3.86,0,0,0,3.9,4.54,5.39,5.39,0,0,0,5.17-4.54A3.85,3.85,0,0,0,255,200,5.39,5.39,0,0,0,249.81,204.57Z"/><path class="cls-19" d="M278.32,247.4h27.33a2.94,2.94,0,0,0,2.81-2.46h0a2.1,2.1,0,0,0-2.12-2.47H279a2.94,2.94,0,0,0-2.81,2.47h0A2.1,2.1,0,0,0,278.32,247.4Z"/><path class="cls-19" d="M277,256.57h42.61a2.94,2.94,0,0,0,2.81-2.46h0a2.11,2.11,0,0,0-2.13-2.46h-42.6a2.94,2.94,0,0,0-2.81,2.46h0A2.1,2.1,0,0,0,277,256.57Z"/><path class="cls-23" d="M230.39,295.62h65.24a4.13,4.13,0,0,0,3.94-3.46h0a2.94,2.94,0,0,0-3-3.45H231.35a4.1,4.1,0,0,0-3.93,3.45h0A2.94,2.94,0,0,0,230.39,295.62Z"/><path class="cls-23" d="M228.6,308.48h47.94a4.11,4.11,0,0,0,3.93-3.46h0a2.94,2.94,0,0,0-3-3.45H229.56a4.12,4.12,0,0,0-3.94,3.45h0A3,3,0,0,0,228.6,308.48Z"/><path class="cls-23" d="M253.07,138.21h77.79a2.12,2.12,0,0,0,2-1.79h0a1.52,1.52,0,0,0-1.54-1.78H253.57a2.14,2.14,0,0,0-2,1.78h0A1.53,1.53,0,0,0,253.07,138.21Z"/><ellipse class="cls-19" cx="248.3" cy="247.91" rx="15.93" ry="13.86" transform="translate(-102.37 235.98) rotate(-43.01)"/><path class="cls-6" d="M235,247.9a12.23,12.23,0,0,0,.72,6.32,11.19,11.19,0,0,0,10.7,7,15.63,15.63,0,0,0,12.63-7,14.87,14.87,0,0,0,2.48-6.32c1-7.32-4.09-13.26-11.42-13.26A15.76,15.76,0,0,0,235,247.9Z"/><path class="cls-22" d="M238.65,253a8.58,8.58,0,0,0,8.21,5.33,12,12,0,0,0,9.69-5.33,14.33,14.33,0,0,0-8.57-2.71A17.94,17.94,0,0,0,238.65,253Z"/><path class="cls-22" d="M244.22,244.64a3.86,3.86,0,0,0,3.91,4.54,5.38,5.38,0,0,0,5.16-4.54,3.85,3.85,0,0,0-3.9-4.53A5.39,5.39,0,0,0,244.22,244.64Z"/></g></svg>