<?xml version="1.0" encoding="utf-8"?>
<!-- Generator: Adobe Illustrator 24.1.1, SVG Export Plug-In . SVG Version: 6.00 Build 0)  -->
<svg version="1.1" id="レイヤー_1" xmlns="http://www.w3.org/2000/svg" xmlns:xlink="http://www.w3.org/1999/xlink" x="0px"
	 y="0px" viewBox="0 0 480 311" style="enable-background:new 0 0 480 311;" xml:space="preserve">
<style type="text/css">
	.st0{fill:#006AB0;}
	.st1{fill:#B06CAA;}
	.st2{fill:#FFFFFF;}
	.st3{fill:#2289AD;}
	.st4{fill:none;stroke:#2289AD;stroke-width:4.0037;stroke-miterlimit:10;stroke-dasharray:0.4002,1.2006;}
	.st5{clip-path:url(#SVGID_2_);}
	.st6{clip-path:url(#SVGID_4_);}
	.st7{fill:none;}
</style>
<g>
	<g>
		<path class="st0" d="M346.8,109.5c0,59.6-48.3,107.8-107.8,107.8c-59.6,0-107.8-48.3-107.8-107.8C131.2,50,179.4,1.7,239,1.7
			C298.6,1.7,346.8,50,346.8,109.5z"/>
		<g>
			<g>
				<path class="st1" d="M239,109.5V1.7c59.6,0,107.8,48.3,107.8,107.8c0,59.6-48.3,107.8-107.8,107.8
					c-59.6,0-107.8-48.3-107.8-107.8c0-47.6,29.2-87.8,74.5-102.6L239,109.5z"/>
			</g>
		</g>
	</g>
	<g>
		<path class="st2" d="M228.8,157.6h-4.9c-3.6,0-4.7-0.6-5.9-2.9c-0.8,1.6-1.6,2.4-2.6,3.1l-1-0.9c1.5-0.9,3.2-2.5,3.6-7.2l1.2,0.4
			c0.2,0.1,0.3,0.1,0.3,0.3c0,0.2-0.2,0.2-0.4,0.3c-0.2,1.2-0.4,2.1-0.7,3c0.5,1.5,1.7,2.2,2.9,2.5V149H217v-1.1h9.8v1.1h-4.2v2.9h4
			v1.1h-4v3.4c0.3,0,0.6,0,1.4,0c1.7,0,3.8-0.1,5.4-0.3L228.8,157.6z M227.7,148.5v-2.3H216v2.5h-1.2v-3.6h6.5v-2.2l1.4,0.1
			c0.2,0,0.4,0,0.4,0.2c0,0.2-0.4,0.4-0.5,0.4v1.6h6.4v3.3H227.7z"/>
		<path class="st2" d="M235.4,149.9c-0.1,2.9-0.6,5.9-2.5,8.2l-1-0.7c2.1-2.5,2.2-4.7,2.3-7.5h-2.5v-1h6.7v-1h-5.3v-1h5.3v-1h-6.2
			v-1h13.7v1h-6.2v1h5.3v1h-5.3v1h6.8v1H235.4z M236.4,145c-0.8-0.9-1.3-1.3-1.6-1.4l0.8-0.8c0.7,0.6,1.1,1,1.6,1.5L236.4,145z
			 M243.6,157.9V157h-6.4v1.1H236v-7.4h8.8v7.2H243.6z M243.6,151.6h-6.4v0.9h6.4V151.6z M243.6,153.4h-6.4v0.9h6.4V153.4z
			 M243.6,155.2h-6.4v0.9h6.4V155.2z M243.1,143.9c-0.1,0-0.2,0-0.3-0.1c-0.6,0.5-0.9,0.8-1.4,1.2l-0.8-0.7c0.7-0.6,1.1-1,1.7-1.6
			l0.9,0.9c0,0.1,0.1,0.1,0.1,0.2C243.3,143.9,243.2,143.9,243.1,143.9z"/>
		<path class="st2" d="M252.5,150.7c-0.5,0.5-1.6,1.4-2.5,2.1c0,0.2,0,0.5-0.2,0.5c-0.1,0-0.2,0-0.3-0.2l-0.8-1
			c0.9-0.6,2-1.3,3.6-2.6L252.5,150.7z M255.5,152.5l1.3,0.1c0.2,0,0.4,0,0.4,0.2c0,0.2-0.3,0.3-0.4,0.4v0.9h6.7v1.1h-6.7v2.9h-1.3
			v-2.9h-6.7v-1.1h6.7V152.5z M249.7,146.9c1.1,0.6,1.9,1.1,2.8,1.7l-0.7,0.9c-0.9-0.6-1.7-1.1-2.7-1.7L249.7,146.9z M258.1,149.7
			c0.7,0.7,1.2,1.4,1.7,2.6l-0.9,0.6c-0.1-0.3-0.2-0.5-0.5-1c-2.2,0.3-4.1,0.5-5.4,0.6c-0.1,0.1-0.2,0.4-0.3,0.4
			c-0.1,0-0.2-0.2-0.2-0.3l-0.4-1.2c0.6,0,1,0,1.5,0c0.2-0.1,0.5-0.3,1.3-1.1c-0.8-0.8-1.4-1.3-2.2-1.9l0.7-0.8
			c0.5,0.3,0.6,0.4,0.8,0.5c0.7-0.8,1.2-1.4,1.6-2h-6.5v-1.1h6.2v-2l1.3,0.2c0.3,0,0.4,0.1,0.4,0.2c0,0.2-0.3,0.3-0.4,0.3v1.4h6.2
			v1.1h-7l0.8,0.6c0.2,0.1,0.2,0.2,0.2,0.3c0,0.2-0.4,0.2-0.5,0.2c-0.8,1-1.2,1.3-1.6,1.7c0.7,0.6,0.7,0.7,0.9,0.9
			c0.4-0.5,1.1-1.2,2-2.2l1,0.8c0.1,0,0.2,0.1,0.2,0.2c0,0.2-0.2,0.2-0.3,0.2c-0.1,0-0.2,0-0.3,0c-1,1-2,1.9-3,2.8
			c0.9-0.1,2.3-0.2,2.6-0.2c-0.3-0.4-0.5-0.6-0.6-0.7L258.1,149.7z M259.3,148.6c1.1-0.8,1.7-1.4,2.4-2.1l0.8,0.9
			c0.1,0.1,0.2,0.2,0.2,0.3c0,0.1-0.2,0.1-0.2,0.1c-0.1,0-0.2,0-0.3,0c-0.9,0.8-1.4,1.2-2.2,1.7L259.3,148.6z M260.2,149.8
			c1.3,0.9,1.8,1.4,2.8,2.3l-0.7,0.9c-1-1-1.9-1.7-2.8-2.3L260.2,149.8z"/>
	</g>
</g>
<g>
	<g>
		<path class="st1" d="M165.7,251.9c-1.1,2.9-2.4,6-4,9.1l-14.5,29.6h-13.5l14.2-28.3c-0.8,0.3-1.7,0.5-2.5,0.7
			c-0.9,0.1-1.7,0.2-2.5,0.2c-2.3,0-4.5-0.5-6.7-1.4c-2.2-0.9-4.1-2.3-5.8-4c-1.7-1.7-3-3.8-4-6.3c-1-2.5-1.5-5.3-1.5-8.6
			c0-3.3,0.5-6.3,1.6-9c1.1-2.7,2.6-4.9,4.5-6.7c1.9-1.8,4.2-3.2,6.8-4.2c2.6-1,5.4-1.4,8.4-1.4c3,0,5.8,0.5,8.4,1.4
			c2.6,0.9,4.9,2.3,6.8,4.1c1.9,1.8,3.4,4,4.5,6.6c1.1,2.6,1.6,5.6,1.6,9C167.4,245.9,166.8,248.9,165.7,251.9z M152.3,235.4
			c-1.6-1.7-3.7-2.6-6.3-2.6c-2.5,0-4.6,0.9-6.3,2.6c-1.6,1.7-2.5,4.2-2.5,7.4c0,3.1,0.8,5.5,2.4,7.3c1.6,1.8,3.7,2.7,6.4,2.7
			c2.5,0,4.6-0.9,6.3-2.6c1.6-1.7,2.5-4.2,2.5-7.4C154.8,239.6,154,237.2,152.3,235.4z"/>
		<path class="st1" d="M217.7,278.9c-1.1,2.6-2.6,4.9-4.5,6.7c-1.9,1.8-4.2,3.2-6.8,4.2c-2.6,1-5.4,1.4-8.4,1.4
			c-3,0-5.8-0.5-8.4-1.4c-2.6-0.9-4.9-2.3-6.8-4.1c-1.9-1.8-3.4-4-4.5-6.6c-1.1-2.6-1.6-5.6-1.6-9c0-3.1,0.6-6.2,1.7-9.1
			c1.2-2.9,2.5-6,4-9.1l14.4-29.6h13.6l-14.2,28.3c0.8-0.3,1.7-0.5,2.5-0.7c0.9-0.1,1.7-0.2,2.5-0.2c2.3,0,4.5,0.5,6.7,1.4
			c2.1,0.9,4.1,2.3,5.8,4c1.7,1.7,3,3.9,4,6.4c1,2.5,1.5,5.4,1.5,8.5C219.3,273.2,218.7,276.2,217.7,278.9z M204.3,262.6
			c-1.6-1.8-3.7-2.7-6.4-2.7c-2.5,0-4.6,0.9-6.3,2.6c-1.6,1.7-2.5,4.2-2.5,7.4c0,3.2,0.8,5.7,2.5,7.4c1.6,1.7,3.7,2.6,6.3,2.6
			c2.5,0,4.6-0.9,6.3-2.6c1.6-1.7,2.5-4.2,2.5-7.4C206.7,266.8,205.9,264.4,204.3,262.6z"/>
		<path class="st1" d="M239.4,268.4c0,4.8-2.4,7.5-6.2,7.5c-4.2,0-6.2-3.3-6.2-7.4c0-5.4,2.8-7.6,6.2-7.6
			C237,260.8,239.4,263.6,239.4,268.4z M230.8,268.4c0,1.1,0,4.3,2.4,4.3c2.4,0,2.4-3.2,2.4-4.3c0-1.2,0-4.4-2.4-4.4
			C230.8,264,230.8,267.2,230.8,268.4z M233.2,290.6l16-29.2h3.9l-16,29.2H233.2z M259.2,283.6c0,4.8-2.4,7.6-6.2,7.6
			c-4.2,0-6.2-3.4-6.2-7.4c0-5.4,2.8-7.7,6.2-7.7C256.8,276,259.2,278.8,259.2,283.6z M250.6,283.6c0,1.1,0,4.3,2.4,4.3
			c2.4,0,2.4-3.2,2.4-4.3c0-1.1,0-4.4-2.4-4.4C250.6,279.2,250.6,282.4,250.6,283.6z"/>
	</g>
	<g>
		<g>
			<g>
				<path class="st3" d="M292.6,241.3c-0.7,0.8-1.2,1.1-1.5,1.3l-0.7-0.6c2-1.2,3.1-2.9,3.5-3.6h-3.1v-0.8h1.8v-2.4l0.8,0
					c0.1,0,0.3,0,0.3,0.1c0,0.1,0,0.1-0.2,0.3v1.9h1.3l0.3,0.3c-0.3,0.8-0.8,1.5-1.3,2.1c0.7,0.8,1.3,1.2,1.8,1.5l-0.6,0.6
					c-0.7-0.4-1.1-0.8-1.5-1.3v5.1h-0.8V241.3z M297.7,235.3l0.8,0.1c0.1,0,0.2,0,0.2,0.1c0,0.1-0.1,0.2-0.2,0.3v3.1h2v0.8h-2v4.8
					h2.4v0.8H295v-0.8h2.7v-4.8h-2.2v-0.8h2.2V235.3z"/>
				<path class="st3" d="M305.8,244.9c-0.8,0.6-1.8,1-2.8,1.3l-0.6-0.8c1.1-0.2,2-0.5,3.1-1.2l0.7,0.4c0.1,0,0.1,0.1,0.1,0.2
					C306.3,244.9,306.1,244.9,305.8,244.9z M303.5,244.1v-5.3h7.4v5.3H303.5z M304.1,238.1v-2.7h6.1v2.7H304.1z M310,239.5h-5.7v0.8
					h5.7V239.5z M310,241h-5.7v0.8h5.7V241z M310,242.5h-5.7v0.9h5.7V242.5z M309.4,236.2h-4.5v1.2h4.5V236.2z M311.2,246.2
					c-1.2-0.3-2.1-0.7-3-1.5l0.5-0.5c1,0.7,2.2,1,3.1,1.2L311.2,246.2z"/>
				<path class="st3" d="M320,245.4c-1.1,0.2-2.3,0.2-2.6,0.2c-0.4,0-2.6,0-2.6-1.9c0-1.6,1.4-2.4,2.5-3.1c0-0.3-0.1-1-0.6-1
					c-1,0-1.9,1.4-2.7,2.5l-0.7-0.4c1.2-1.4,1.7-2.2,2.1-3.5c-1,0.1-1.4,0.1-1.8,0.1l-0.2-0.9c0.4,0,0.7,0.1,1.3,0.1
					c0.4,0,0.7,0,0.9,0c0.3-0.9,0.4-1.4,0.5-1.9l0.9,0.2c-0.1,0.4-0.3,0.8-0.5,1.6c1.5-0.2,2.2-0.6,2.6-0.8l0.1,0.9
					c-1.4,0.4-2.1,0.6-3,0.7c-0.3,0.9-0.4,1.1-0.5,1.4c0.1-0.1,0.5-0.4,1-0.4c1,0,1.1,0.9,1.2,1.3c1.4-0.7,1.7-0.8,2.3-1.2l0.2,0.9
					c-1.4,0.5-1.7,0.6-2.5,1c0.1,1.2,0.1,1.5,0.1,2.5h-0.8c0-0.1,0-0.6,0-0.9c0-0.5,0-0.8,0-1.2c-0.9,0.6-1.7,1.2-1.7,2.1
					c0,1.2,1.3,1.2,1.7,1.2c0.8,0,1.8-0.1,2.5-0.4L320,245.4z"/>
				<path class="st3" d="M279.6,261.9c-1.1-0.6-2.1-1.4-2.9-2.4c-0.7-1-1.1-1.8-1.4-3c-0.4,1.5-1.1,3.8-4.2,5.5l-0.8-0.7
					c2.1-0.9,3.7-2.4,4.3-5.8h-4.3v-0.8h4.4c0-0.4,0-0.7,0-1.6c0-0.6,0-1,0-1.6l0.9,0.1c0.1,0,0.3,0,0.3,0.2c0,0,0,0.1-0.3,0.3
					c0,1.1,0,1.3-0.1,2.8h4.6v0.8h-4.4c0.2,1.4,1.1,2.9,1.4,3.4c0.4,0.5,1.3,1.6,3,2.4L279.6,261.9z"/>
				<path class="st3" d="M284.3,260.3c-0.6,0-1.1-0.1-1.1-1v-3.4l-1.5,0.4l-0.1-0.9l1.6-0.4v-3.8l0.9,0.1c0.1,0,0.3,0,0.3,0.2
					c0,0.1-0.1,0.2-0.3,0.3v3l2.7-0.6l0.1,0.9l-2.8,0.7v3.2c0,0.3,0.1,0.4,0.4,0.4h0.7c0.4,0,0.5-0.3,0.7-1.5l0.8,0.5
					c-0.4,1.5-0.5,1.9-1.3,1.9H284.3z M291.8,252.2c0,2.4-0.1,5.4-0.3,7.2c-0.4,2.4-1,2.4-1.8,2.4c0,0-0.5,0-1-0.1l-0.2-1.1
					c0.5,0.2,0.8,0.2,1.1,0.2c0.6,0,0.9-0.2,1.1-1.9c0.3-1.8,0.3-4.4,0.3-6h-2.3c0,4-0.4,6.9-3,9l-0.8-0.6c2.6-1.7,2.9-4.3,3-8.4h-2
					v-0.8H291.8z"/>
				<path class="st3" d="M295.6,252.5c-0.2,0.6-0.4,1.1-0.6,2.4c-0.1,0.8-0.2,1.6-0.2,2.4c0,0.7,0.1,1.2,0.1,1.7
					c0,0.4,0.1,0.4,0.1,0.6c0.1-0.4,0.2-0.6,0.6-1.8l0.7,0.5c-0.2,0.4-0.4,1.1-0.8,2.8l-0.7,0.1c-0.5-1.2-0.7-2.2-0.7-3.8
					c0-1,0.1-2.4,0.3-3.1c0.3-1.1,0.3-1.2,0.3-1.5c0.1-0.5,0.1-0.6,0.1-0.7L295.6,252.5z M298,257.9c0,0.1,0,0.7,0,0.8
					c0.2,0.9,0.9,1,1.7,1c1.4,0,2.1-0.2,2.8-0.5v0.9c-0.6,0.2-1.2,0.3-2.9,0.3c-1.4,0-2.4-0.1-2.4-2.4L298,257.9z M297.8,252.9
					c0.3,0,0.8,0.1,1.6,0.1c0.6,0,1.7-0.1,2.7-0.5l0,0.9c-1.7,0.3-2.6,0.3-3.7,0.3c-0.3,0-0.4,0-0.6,0L297.8,252.9z"/>
				<path class="st3" d="M305.6,252.1c-0.3,2.4-0.3,5.6-0.3,5.9c0,1.5,0.1,1.7,0.2,1.9c0.3,0.7,1,0.9,1.3,0.9c0.7,0,2.3-0.4,3.6-3.5
					l0.7,0.8c-0.4,0.7-2,3.5-4.4,3.5c-1.1,0-1.8-0.8-2-1.5c-0.2-0.5-0.2-0.9-0.2-2.9c0-0.6,0-3,0-3.5c0-0.5,0-1.2-0.1-1.7
					L305.6,252.1z"/>
				<path class="st3" d="M312.7,253.1c1,0,1.8,0,4.3-0.4c2.5-0.3,3.2-0.5,4-0.7l0.1,1c-1.1,0.2-2.1,0.8-3,1.5
					c-1.6,1.4-1.8,2.8-1.8,3.4c0,1.5,0.8,2.2,3,2.7l-0.3,1c-1.1-0.3-3.5-0.9-3.5-3.4c0-1.5,0.8-2.8,1.6-3.6c0.5-0.6,1-0.9,1.6-1.3
					c-1.7,0.2-3.9,0.5-5.8,0.8L312.7,253.1z"/>
				<path class="st3" d="M323.9,253.9c-0.1,0.3-0.2,1-0.2,2c0,2.9,1,4,1.4,4c0.4,0,0.8-1.5,1-2.2l0.7,0.7c-0.3,0.8-0.8,2.5-1.7,2.5
					c-1,0-1.7-1.8-1.8-2c-0.5-1.2-0.5-2.8-0.5-3.7c0-0.8,0-1.4,0.1-1.7L323.9,253.9z M329.8,253.6c1.3,1.6,1.8,3.8,2,4.8l-0.9,0.3
					c-0.4-2.6-1.2-3.9-1.9-4.8L329.8,253.6z"/>
				<path class="st3" d="M334.5,252.6c2.5,0,3.9-0.4,4.8-0.7l0.4,0.7c-0.1,0.1-0.6,0.5-0.6,0.6c-1,1.1-1.6,1.8-2.4,2.5
					c0.4-0.2,0.8-0.4,1.4-0.4c0.8,0,2.8,0.4,2.8,2.7c0,2.3-2.2,3.3-3.6,3.3c-1,0-2.2-0.4-2.2-1.6c0-0.7,0.6-1.4,1.6-1.4
					c1.5,0,2.1,1.2,2.3,1.7c0.3-0.2,1.1-0.9,1.1-2c0-0.8-0.5-1.9-2.1-1.9c-2,0-3.9,2.1-4,2.3l-0.7-0.6c2-1.6,3.6-3.3,4.7-4.8
					c-0.6,0.2-1.8,0.4-3.2,0.5L334.5,252.6z M336.6,259.1c-0.5,0-0.8,0.3-0.8,0.6c0,0.5,0.8,0.8,1.4,0.8c0.3,0,0.6,0,0.9-0.1
					C338,260,337.6,259.1,336.6,259.1z"/>
				<path class="st3" d="M298.6,273.6c-0.1-0.3-0.2-0.5-0.3-0.7c-0.4,0.1-0.5,0.1-1,0.2v5h-0.8v-4.9c-0.9,0.1-1.1,0.1-1.4,0.2
					c0,0-0.2,0.2-0.3,0.2c-0.1,0-0.1-0.1-0.1-0.2l-0.1-0.9c0.7,0,0.9,0,1.2,0c0.2-0.2,0.6-0.7,0.8-1.1c-0.4-0.5-0.9-1-1.8-1.7
					l0.4-0.7c0.2,0.2,0.4,0.3,0.6,0.5c0.4-0.6,0.9-1.5,1.2-2.3l0.7,0.4c0,0,0.1,0.1,0.1,0.1c0,0,0,0.1-0.3,0.2
					c-0.6,1.1-0.6,1.1-1.1,2c0.1,0.1,0.5,0.5,0.6,0.6c0.4-0.6,0.6-0.9,1-1.7l0.7,0.5c0,0,0.1,0.1,0.1,0.1c0,0.1-0.1,0.1-0.4,0.2
					c-0.3,0.4-1.5,2.2-1.8,2.6c0.5,0,0.7,0,1.3-0.1c-0.1-0.3-0.3-0.5-0.5-0.9l0.6-0.4c0.5,0.7,0.8,1.4,1.1,2.2L298.6,273.6z
					 M296.1,274.2c0,0.9-0.1,2.2-0.5,3.3l-0.7-0.2c0.3-1,0.4-1.9,0.4-3.5l0.8,0.1c0.1,0,0.2,0.1,0.2,0.1
					C296.3,274.1,296.1,274.2,296.1,274.2z M298.3,277c-0.1-1-0.3-2.1-0.6-3l0.7-0.2c0.2,0.7,0.5,1.6,0.7,3.1L298.3,277z
					 M302.4,269.8v1.5h2.2v0.8h-5.2v-0.8h2.2v-1.5h-2.5V269h2.5v-1.8l0.9,0.1c0.1,0,0.2,0.1,0.2,0.1c0,0.1-0.1,0.2-0.2,0.2v1.3h2.5
					v0.8H302.4z M303.6,278v-0.7h-3v0.8h-0.8v-4.5h4.6v4.5H303.6z M303.6,274.3h-3v2.1h3V274.3z"/>
				<path class="st3" d="M316.1,277.5c-2.4-0.9-3.6-2.3-4.2-2.9v3.5h-0.9v-3.5c-1.1,1.4-2.6,2.4-4.2,3l-0.5-0.7
					c2.5-0.9,3.7-2.2,4.1-2.7h-3.9v-0.7h4.6v-1.2h-3.3v-4.7h7.4v4.7h-3.3v1.2h4.7v0.7h-4.1c1.3,1.3,2.5,1.9,4.2,2.5L316.1,277.5z
					 M311.1,268.3h-2.4v1.2h2.4V268.3z M311.1,270.3h-2.4v1.3h2.4V270.3z M314.4,268.3h-2.5v1.2h2.5V268.3z M314.4,270.3h-2.5v1.3
					h2.5V270.3z"/>
			</g>
		</g>
		<g>
			
				<ellipse transform="matrix(0.7071 -0.7071 0.7071 0.7071 -91.8685 291.2799)" class="st4" cx="305.7" cy="256.5" rx="42.6" ry="42.6"/>
		</g>
	</g>
	<g>
		<g>
			<defs>
				<rect id="SVGID_1_" x="14.3" y="189.9" width="457.6" height="109.2"/>
			</defs>
			<clipPath id="SVGID_2_">
				<use xlink:href="#SVGID_1_"  style="overflow:visible;"/>
			</clipPath>
			<g class="st5">
				<g>
					<path class="st3" d="M47.3,267c0,3.6-2.9,6.5-6.5,6.5c-3.6,0-6.5-2.9-6.5-6.5c0-3.6,2.9-6.5,6.5-6.5
						C44.4,260.5,47.3,263.4,47.3,267z"/>
				</g>
				<g>
					<rect x="39.3" y="274.1" class="st1" width="2.9" height="1.5"/>
					<polygon class="st1" points="40.8,281.7 42.3,279.8 42.3,276.2 39.3,276.2 39.3,279.8 					"/>
					<path class="st3" d="M64.4,258.9c-1.1-0.9-2.7-0.7-3.6,0.4l-8.6,9.8L40.8,283l-11.4-13.9l-8.6-9.8c-0.9-1.1-2.5-1.3-3.6-0.4
						c-1.1,0.9-1.3,2.5-0.4,3.6l7.7,10.5l6.7,8.7c0.2,9.1,1.6,55.3,1.6,55.3c0,1.8,1.5,3.3,3.3,3.3c1.8,0,3.3-1.5,3.3-3.3l1.3-29.7
						l1.3,29.7c0,1.8,1.5,3.3,3.3,3.3c1.8,0,3.3-1.5,3.3-3.3c0,0,1.4-46.3,1.6-55.3L57,273l7.7-10.5
						C65.6,261.4,65.5,259.8,64.4,258.9z M40.8,292.5c-0.5,0-0.8-0.4-0.8-0.8c0-0.5,0.4-0.8,0.8-0.8c0.5,0,0.8,0.4,0.8,0.8
						C41.6,292.1,41.3,292.5,40.8,292.5z M40.8,288.1c-0.5,0-0.8-0.4-0.8-0.8c0-0.5,0.4-0.8,0.8-0.8c0.5,0,0.8,0.4,0.8,0.8
						C41.6,287.7,41.3,288.1,40.8,288.1z"/>
				</g>
			</g>
			<g class="st5">
				<g>
					<path class="st3" d="M98.6,267c0,3.6-2.9,6.5-6.5,6.5c-3.6,0-6.5-2.9-6.5-6.5c0-3.6,2.9-6.5,6.5-6.5
						C95.7,260.5,98.6,263.4,98.6,267z"/>
				</g>
				<g>
					<rect x="90.7" y="274.1" class="st1" width="2.9" height="1.5"/>
					<polygon class="st1" points="92.2,281.7 93.6,279.8 93.6,276.2 90.7,276.2 90.7,279.8 					"/>
					<path class="st3" d="M115.7,258.9c-1.1-0.9-2.7-0.7-3.6,0.4l-8.6,9.8L92.2,283l-11.4-13.9l-8.6-9.8c-0.9-1.1-2.5-1.3-3.6-0.4
						c-1.1,0.9-1.3,2.5-0.4,3.6l7.7,10.5l6.7,8.7c0.2,9.1,1.6,55.3,1.6,55.3c0,1.8,1.5,3.3,3.3,3.3c1.8,0,3.3-1.5,3.3-3.3l1.3-29.7
						l1.3,29.7c0,1.8,1.5,3.3,3.3,3.3c1.8,0,3.3-1.5,3.3-3.3c0,0,1.4-46.3,1.6-55.3l6.7-8.7l7.7-10.5
						C117,261.4,116.8,259.8,115.7,258.9z M92.2,292.5c-0.5,0-0.8-0.4-0.8-0.8c0-0.5,0.4-0.8,0.8-0.8c0.5,0,0.8,0.4,0.8,0.8
						C93,292.1,92.6,292.5,92.2,292.5z M92.2,288.1c-0.5,0-0.8-0.4-0.8-0.8c0-0.5,0.4-0.8,0.8-0.8c0.5,0,0.8,0.4,0.8,0.8
						C93,287.7,92.6,288.1,92.2,288.1z"/>
				</g>
			</g>
		</g>
	</g>
	<g>
		<g>
			<defs>
				<rect id="SVGID_3_" x="1.3" y="189.1" width="460.9" height="110"/>
			</defs>
			<clipPath id="SVGID_4_">
				<use xlink:href="#SVGID_3_"  style="overflow:visible;"/>
			</clipPath>
			<g class="st6">
				<g>
					<path class="st3" d="M428.9,266.8c0,3.6,2.9,6.5,6.5,6.5c3.6,0,6.5-2.9,6.5-6.5c0-3.6-2.9-6.5-6.5-6.5
						C431.8,260.2,428.9,263.2,428.9,266.8z"/>
				</g>
				<g>
					<rect x="434" y="273.9" class="st1" width="3" height="1.5"/>
					<polygon class="st1" points="435.4,281.6 434,279.7 434,276 436.9,276 436.9,279.7 					"/>
					<path class="st3" d="M411.3,262.2l7.8,10.6l6.7,8.8c0.3,9.2,1.6,55.7,1.6,55.7c0,1.8,1.5,3.3,3.3,3.3c1.8,0,3.3-1.5,3.3-3.3
						l1.3-29.9l1.3,29.9c0,1.8,1.5,3.3,3.3,3.3c1.8,0,3.3-1.5,3.3-3.3c0,0,1.4-46.6,1.6-55.7l6.8-8.8l7.8-10.6
						c0.9-1.1,0.7-2.7-0.4-3.6c-1.1-0.9-2.7-0.7-3.6,0.4l-8.7,9.8l-11.5,14l-11.5-14l-8.7-9.8c-0.9-1.1-2.5-1.3-3.6-0.4
						C410.6,259.5,410.4,261.1,411.3,262.2z M434.6,291.6c0-0.5,0.4-0.8,0.8-0.8c0.5,0,0.8,0.4,0.8,0.8c0,0.5-0.4,0.8-0.8,0.8
						C435,292.5,434.6,292.1,434.6,291.6z M434.6,287.2c0-0.5,0.4-0.8,0.8-0.8c0.5,0,0.8,0.4,0.8,0.8c0,0.5-0.4,0.8-0.8,0.8
						C435,288,434.6,287.6,434.6,287.2z"/>
				</g>
			</g>
			<g class="st6">
				<g>
					<path class="st3" d="M377.2,266.8c0,3.6,2.9,6.5,6.5,6.5c3.6,0,6.5-2.9,6.5-6.5c0-3.6-2.9-6.5-6.5-6.5
						C380.1,260.2,377.2,263.2,377.2,266.8z"/>
				</g>
				<g>
					<rect x="382.2" y="273.9" class="st1" width="3" height="1.5"/>
					<polygon class="st1" points="383.7,281.6 382.2,279.7 382.2,276 385.2,276 385.2,279.7 					"/>
					<path class="st3" d="M359.6,262.2l7.8,10.6l6.7,8.8c0.3,9.2,1.6,55.7,1.6,55.7c0,1.8,1.5,3.3,3.3,3.3c1.8,0,3.3-1.5,3.3-3.3
						l1.3-29.9l1.3,29.9c0,1.8,1.5,3.3,3.3,3.3c1.8,0,3.3-1.5,3.3-3.3c0,0,1.4-46.6,1.6-55.7l6.8-8.8l7.8-10.6
						c0.9-1.1,0.7-2.7-0.4-3.6c-1.1-0.9-2.7-0.7-3.6,0.4l-8.7,9.8l-11.5,14l-11.5-14l-8.7-9.8c-0.9-1.1-2.5-1.3-3.6-0.4
						C358.9,259.5,358.7,261.1,359.6,262.2z M382.9,291.6c0-0.5,0.4-0.8,0.8-0.8c0.5,0,0.8,0.4,0.8,0.8c0,0.5-0.4,0.8-0.8,0.8
						C383.3,292.5,382.9,292.1,382.9,291.6z M382.9,287.2c0-0.5,0.4-0.8,0.8-0.8c0.5,0,0.8,0.4,0.8,0.8c0,0.5-0.4,0.8-0.8,0.8
						C383.3,288,382.9,287.6,382.9,287.2z"/>
				</g>
			</g>
		</g>
	</g>
</g>
<rect x="-6" y="-19.7" class="st7" width="490" height="328.8"/>
</svg>
