<?xml version="1.0" encoding="utf-8"?>
<!-- Generator: Adobe Illustrator 24.1.1, SVG Export Plug-In . SVG Version: 6.00 Build 0)  -->
<svg version="1.1" id="レイヤー_1" xmlns="http://www.w3.org/2000/svg" xmlns:xlink="http://www.w3.org/1999/xlink" x="0px"
	 y="0px" viewBox="0 0 480 255" style="enable-background:new 0 0 480 255;" xml:space="preserve">
<style type="text/css">
	.st0{fill:#B06CAA;}
	.st1{fill:#2289AD;}
	.st2{fill:none;stroke:#2289AD;stroke-width:4.7982;stroke-miterlimit:10;stroke-dasharray:0.4796,1.4389;}
</style>
<g>
	<g>
		<path class="st0" d="M45.7,119.5V70.3L33.2,81.1V69l12.5-10.9H57v61.3H45.7z"/>
		<path class="st0" d="M77,133.7v-26.4h12.3v17L77,133.7z"/>
		<path class="st0" d="M136.7,107.9c-0.7,2.6-2.2,5-4.4,7.2c-1.4,1.4-3.2,2.6-5.4,3.5c-2.2,1-4.9,1.5-8.1,1.5c-3.2,0-6-0.5-8.3-1.5
			c-2.3-1-4.1-2.1-5.4-3.4c-1.9-1.9-3.2-3.9-3.8-6.1c-0.6-2.2-1-4.4-1.2-6.6h11.2c0.3,2.4,1,4.3,2.2,5.6c1.2,1.3,2.9,2,5.3,2
			c2.2,0,4-0.7,5.3-2c1-1,1.6-2.3,1.9-3.8c0.3-1.6,0.5-3.3,0.5-5.3c0-3.6-0.6-6.3-1.7-8.2c-1.1-1.9-3-2.8-5.8-2.8
			c-2.3,0-4,0.5-5.1,1.6c-1.1,1.1-1.9,2.2-2.3,3.4h-10.3V58.2h35v10.1h-24.8v13.2c0.8-0.8,2-1.5,3.7-2.2c1.6-0.6,3.5-0.9,5.6-0.9
			c2.6,0,4.8,0.4,6.7,1.1c1.9,0.7,3.5,1.8,4.7,3c2.4,2.4,3.9,5,4.6,7.8c0.6,2.8,0.9,5.6,0.9,8.6
			C137.7,102.3,137.4,105.3,136.7,107.9z"/>
		<path class="st0" d="M183.1,109.8c-1,2.3-2.4,4.2-4.2,5.7c-1.8,1.5-3.9,2.7-6.2,3.4c-2.4,0.7-4.9,1.1-7.5,1.1c-2.5,0-5-0.3-7.3-1
			c-2.3-0.7-4.4-1.8-6.2-3.2c-1.8-1.5-3.3-3.3-4.4-5.6c-1.1-2.3-1.7-5-1.7-8.2h11.2c0.1,1.4,0.3,2.6,0.8,3.6c0.5,1,1.1,1.8,1.8,2.5
			c0.7,0.7,1.6,1.1,2.6,1.5c1,0.3,2.1,0.5,3.1,0.5c2.4,0,4.4-0.7,5.9-2.2s2.3-3.6,2.3-6.3c0-2.6-0.7-4.6-2.2-6.2
			c-1.5-1.5-3.6-2.3-6.4-2.3h-1.6v-9.7h1.6c2.8,0,4.7-0.7,5.9-2.2c1.2-1.5,1.8-3.3,1.8-5.5c0-2.6-0.7-4.5-2.2-5.9
			c-1.5-1.3-3.2-2-5.3-2c-2.1,0-3.9,0.6-5.3,1.9c-1.4,1.3-2.2,3.1-2.3,5.5h-11.2c0.1-2.8,0.6-5.2,1.6-7.4c1-2.2,2.3-4,4-5.5
			c1.7-1.5,3.6-2.6,5.9-3.4c2.3-0.8,4.7-1.2,7.3-1.2c2.7,0,5.2,0.4,7.5,1.3c2.3,0.9,4.3,2.1,6,3.6c1.7,1.6,3,3.4,3.9,5.6
			c0.9,2.2,1.4,4.5,1.4,7.1c0,3.3-0.7,6-2,8c-1.4,2-3.1,3.5-5.1,4.6c2.2,1.1,4,2.8,5.6,5c1.6,2.2,2.3,5.2,2.3,8.9
			C184.6,104.8,184.1,107.5,183.1,109.8z"/>
		<path class="st0" d="M230.2,107.9c-0.7,2.6-2.2,5-4.4,7.2c-1.4,1.4-3.2,2.6-5.4,3.5c-2.2,1-4.9,1.5-8.1,1.5c-3.2,0-6-0.5-8.3-1.5
			c-2.3-1-4.1-2.1-5.4-3.4c-1.9-1.9-3.2-3.9-3.8-6.1c-0.6-2.2-1-4.4-1.2-6.6h11.2c0.3,2.4,1,4.3,2.2,5.6c1.2,1.3,2.9,2,5.3,2
			c2.2,0,4-0.7,5.3-2c1-1,1.6-2.3,1.9-3.8c0.3-1.6,0.5-3.3,0.5-5.3c0-3.6-0.6-6.3-1.7-8.2c-1.1-1.9-3-2.8-5.8-2.8
			c-2.3,0-4,0.5-5.1,1.6c-1.1,1.1-1.9,2.2-2.3,3.4h-10.3V58.2h35v10.1h-24.8v13.2c0.8-0.8,2-1.5,3.7-2.2c1.6-0.6,3.5-0.9,5.6-0.9
			c2.6,0,4.8,0.4,6.7,1.1c1.9,0.7,3.5,1.8,4.7,3c2.4,2.4,3.9,5,4.6,7.8c0.6,2.8,0.9,5.6,0.9,8.6
			C231.3,102.3,230.9,105.3,230.2,107.9z"/>
		<path class="st0" d="M241.3,133.7v-26.4h12.3v17L241.3,133.7z"/>
		<path class="st0" d="M300.1,109.6c-1,2.3-2.4,4.2-4,5.7c-1.7,1.6-3.7,2.7-5.9,3.5c-2.3,0.8-4.6,1.2-7.1,1.2
			c-2.5,0-4.9-0.4-7.2-1.2c-2.2-0.8-4.2-2-5.9-3.5s-3.1-3.5-4.1-5.7c-1-2.3-1.5-4.9-1.5-7.8V75.9c0-2.9,0.5-5.5,1.5-7.8
			c1-2.3,2.4-4.2,4.1-5.7s3.7-2.7,5.9-3.5c2.2-0.8,4.6-1.2,7.2-1.2c2.5,0,4.8,0.4,7.1,1.2c2.3,0.8,4.3,2,5.9,3.5
			c1.7,1.6,3,3.5,4,5.7c1,2.3,1.5,4.9,1.5,7.8v25.8C301.6,104.7,301.1,107.3,300.1,109.6z M290.3,76.1c0-2.6-0.7-4.6-2-6.1
			c-1.4-1.5-3.1-2.2-5.3-2.2c-2.2,0-3.9,0.7-5.3,2.2c-1.4,1.5-2.1,3.5-2.1,6.1v25.6c0,2.6,0.7,4.6,2.1,6.1s3.2,2.2,5.3,2.2
			c2.2,0,3.9-0.7,5.3-2.2c1.4-1.5,2-3.5,2-6.1V76.1z"/>
		<path class="st0" d="M346.8,109.6c-1,2.3-2.4,4.2-4,5.7c-1.7,1.6-3.7,2.7-5.9,3.5c-2.3,0.8-4.6,1.2-7.1,1.2
			c-2.5,0-4.9-0.4-7.2-1.2c-2.2-0.8-4.2-2-5.9-3.5s-3.1-3.5-4.1-5.7c-1-2.3-1.5-4.9-1.5-7.8V75.9c0-2.9,0.5-5.5,1.5-7.8
			c1-2.3,2.4-4.2,4.1-5.7s3.7-2.7,5.9-3.5c2.2-0.8,4.6-1.2,7.2-1.2c2.5,0,4.8,0.4,7.1,1.2c2.3,0.8,4.2,2,5.9,3.5
			c1.7,1.6,3,3.5,4,5.7c1,2.3,1.5,4.9,1.5,7.8v25.8C348.3,104.7,347.8,107.3,346.8,109.6z M337.1,76.1c0-2.6-0.7-4.6-2-6.1
			c-1.4-1.5-3.1-2.2-5.3-2.2c-2.2,0-3.9,0.7-5.3,2.2c-1.4,1.5-2.1,3.5-2.1,6.1v25.6c0,2.6,0.7,4.6,2.1,6.1c1.4,1.5,3.2,2.2,5.3,2.2
			c2.2,0,3.9-0.7,5.3-2.2c1.4-1.5,2-3.5,2-6.1V76.1z"/>
		<path class="st0" d="M393.6,109.6c-1,2.3-2.4,4.2-4,5.7c-1.7,1.6-3.7,2.7-5.9,3.5c-2.3,0.8-4.6,1.2-7.1,1.2
			c-2.5,0-4.9-0.4-7.2-1.2c-2.2-0.8-4.2-2-5.9-3.5s-3.1-3.5-4.1-5.7c-1-2.3-1.5-4.9-1.5-7.8V75.9c0-2.9,0.5-5.5,1.5-7.8
			c1-2.3,2.4-4.2,4.1-5.7s3.7-2.7,5.9-3.5c2.2-0.8,4.6-1.2,7.2-1.2c2.5,0,4.8,0.4,7.1,1.2c2.3,0.8,4.3,2,5.9,3.5
			c1.7,1.6,3,3.5,4,5.7c1,2.3,1.5,4.9,1.5,7.8v25.8C395.1,104.7,394.6,107.3,393.6,109.6z M383.8,76.1c0-2.6-0.7-4.6-2-6.1
			c-1.4-1.5-3.1-2.2-5.3-2.2c-2.2,0-3.9,0.7-5.3,2.2c-1.4,1.5-2.1,3.5-2.1,6.1v25.6c0,2.6,0.7,4.6,2.1,6.1s3.2,2.2,5.3,2.2
			c2.2,0,3.9-0.7,5.3-2.2c1.4-1.5,2-3.5,2-6.1V76.1z"/>
		<path class="st0" d="M436,121.9l-2.7-6.2c0.8,0.2,1.7,0.3,4.4,0.3c1.7,0,2.2-0.2,2.2-1.7v-10.8h-28v18h-5.8v-42h39.8v36
			C445.9,121,443.5,121.9,436,121.9z M422.6,85.2h-10.7v12.7h10.7V85.2z M440,85.2h-10.8v12.7H440V85.2z"/>
	</g>
	<g>
		<path class="st1" d="M30.3,41.8c0.6-4.1,2-6.5,7.1-10.3c3.4-2.4,4.4-3.7,4.4-5.7c0-2.2-1.5-3.8-3.6-3.8c-3.2,0-3.3,3.3-3.3,5h-4
			c0.1-2,0.3-8.5,7.4-8.5c4.7,0,7.7,3.3,7.7,7.3c0,3.7-2.6,5.7-5.6,7.8c-3.1,2.1-3.9,3-4.8,4.9h10.6v3.3H30.3z"/>
		<path class="st1" d="M57.3,42.3c-7.3,0-8-8.5-8-11.5c0-3.8,0.7-12.2,8-12.2c2.9,0,4.8,1.4,6,3.4c1.6,2.5,1.9,5.5,1.9,8.5
			C65.2,33.3,64.7,42.3,57.3,42.3z M57.2,21.9c-2.1,0-3.6,1.5-3.6,8.5c0,7.2,1.6,8.5,3.7,8.5c2.3,0,3.6-1.8,3.6-8.5
			C60.9,23.2,59.3,21.9,57.2,21.9z"/>
		<path class="st1" d="M74.9,41.8V25.9h-6.2v-3h1.8c1.7,0,4.3-1,5-4h3.4v22.9H74.9z"/>
		<path class="st1" d="M94.6,42.3c-1.8,0-3.5-0.7-4.9-1.9c-1.3-1.2-1.7-2.2-2-4.3h4.1c0.1,1.4,1.1,2.7,2.9,2.7c3.4,0,3.9-4,4.3-7.1
			c-1.2,2.1-3.4,2.5-4.7,2.5c-3.9,0-6.9-3.2-6.9-7.4c0-3.7,2.6-8.2,7.6-8.2c6.3,0,8.1,6.1,8.1,10.8C103.1,31.7,102.8,42.3,94.6,42.3
			z M95.2,22.3c-1.9,0-3.5,1.4-3.5,4.1c0,2.4,1.3,4.3,3.4,4.3c2.5,0,3.8-2.2,3.8-4.3C98.8,24,97.3,22.3,95.2,22.3z"/>
		<path class="st1" d="M125.1,37.3v6.2h-3.9v-6.2h-13.3v-3.3h4.5v-7.5h8.8v-3.8H114c-1.8,2.9-2.8,3.9-3.5,4.7l-3.4-1.8
			c2.9-2.9,4.9-6.4,6.1-9.5l3.9,1.4c0.2,0.1,0.2,0.2,0.2,0.3c0,0.1-0.1,0.2-0.2,0.3c-0.1,0-0.6,0.2-0.7,0.3c-0.1,0-0.6,1.1-0.7,1.2
			h17.4v3.2H125v3.8h5.5v3.2H125v4.2h9.6v3.3H125.1z M121.2,29.7h-5v4.2h5V29.7z"/>
		<path class="st1" d="M161.1,21.2V23h5.2v2.8h-5.2v4.5h-11.6v-4.5h-3.3c-0.1,3-0.1,6.6-0.9,10.9c-0.7,3.4-1.3,4.8-2.1,6.4l-3.4-0.9
			c0.7-1.2,1.2-2.1,1.7-4c0.9-3.4,1.3-7,1.3-11.8c0-2.6-0.1-5.4-0.3-7.9h9.6v-2l4.2,0.3c0.1,0,0.6,0.1,0.6,0.4
			c0,0.3-0.1,0.3-0.3,0.4c-0.2,0.1-0.3,0.3-0.3,0.3v0.6h11.1v2.8H161.1z M164.7,43.5c-4-0.6-6.5-1.3-9.7-3.1
			c-2.4,1.2-4.4,1.9-8.1,2.8l-1.8-2.8c2.4-0.4,4.5-0.9,7.1-2c-0.8-0.6-1.8-1.5-3.3-3.2l2.9-1h-4.9v-2.9h15.7l1.4,1.4
			c-1.7,2.4-3.1,3.9-5.5,5.6c1.8,0.7,3.9,1.4,8.3,1.9L164.7,43.5z M149.5,21.2h-3.3V23h3.3V21.2z M152.3,34.3
			c0.8,1.1,1.6,1.8,2.9,2.6c1.7-1.2,2.4-2,2.9-2.6H152.3z M157.7,21.2h-4.8V23h4.8V21.2z M157.7,25.8h-4.8v1.9h4.8V25.8z"/>
	</g>
</g>
<g>
	<g>
		<g>
			<g>
				<path class="st1" d="M159.4,162.2c-0.7,0.5-1.9,1.4-2.7,1.8c-0.1,0.2-0.2,0.5-0.3,0.5c-0.1,0-0.2-0.1-0.2-0.2l-0.5-0.9
					c1.4-0.7,2.4-1.4,3.6-2.2L159.4,162.2z M156.5,158.9c0.5,0.2,1.7,0.6,2.4,1.1l-0.5,0.9c-0.5-0.4-1.1-0.7-2.2-1.2L156.5,158.9z
					 M160,169.6l0.6,0.8c0,0,0.1,0.1,0.1,0.1c0,0.1-0.2,0.1-0.5,0.1c-0.5,0.3-1.7,0.8-3.1,1.3l-0.6-0.9
					C157.6,170.8,159,170.2,160,169.6h-1.9v-6h3.3l-0.8-0.7c0.4-0.1,1.1-0.3,1.8-1c0.6-0.6,0.8-1.2,1-1.5h-1.4
					c-0.5,0.6-0.8,1-1.1,1.2L160,161c0.9-0.8,1.4-1.6,1.8-2.4l0.8,0.3c0,0,0.2,0.1,0.2,0.2s-0.1,0.1-0.2,0.2l-0.2,0.2h4.8l0.4,0.6
					c-0.6,0.8-1.1,1.2-1.5,1.6l-0.9-0.4c0.4-0.3,0.6-0.5,0.8-0.9h-1.8c0.1,0.4,0.3,1.2,1.6,1.8c0.4,0.2,1.2,0.5,2.5,0.8l-0.5,0.9
					c-2.6-0.6-3.5-1.6-4.2-2.4c-0.5,0.8-1.2,1.6-2.4,2.2h4.6v6H160z M165.1,165.4v-0.9h-6v0.9H165.1z M165.1,167v-0.8h-6v0.8H165.1z
					 M165.1,168.7v-0.9h-6v0.9H165.1z M164.4,169.6c1.1,0.6,2.2,1.1,3.4,1.4l-0.6,0.8c-1.1-0.3-2.2-0.7-3.4-1.5L164.4,169.6z"/>
				<path class="st1" d="M175.3,165.7c-0.4-0.5-0.6-0.8-0.8-1.2v7.2h-1v-6.9c-0.3,1-0.6,1.9-1.5,3.4l-0.9-0.7c0.7-1,1.5-2.4,1.9-4.6
					h-1.6v-1h2v-3l1.1,0.1c0.1,0,0.2,0,0.2,0.1c0,0.1-0.1,0.2-0.4,0.3v2.5h1.2v1h-1.1c0.4,1.1,1,1.8,1.5,2.3L175.3,165.7z
					 M184.1,167c-1.9-0.8-3-1.6-3.8-2.4c-1.2,1.1-2.1,1.8-4.2,2.5l-0.9-0.9c1.5-0.4,2.7-0.8,4.4-2.4c-0.4-0.5-0.8-1-1.4-2.4
					c-0.3,0.6-0.7,1.5-1.4,2.2l-0.8-0.7c1.2-1.3,2-3.6,2.1-4.5l1.1,0.3c0.1,0,0.2,0.1,0.2,0.2c0,0.2-0.3,0.2-0.4,0.3
					c-0.1,0.2-0.1,0.3-0.2,0.6h3.7l0.4,0.4c-0.6,1.4-1.1,2.4-2.1,3.6c1,1,2.1,1.6,3.9,2.3L184.1,167z M182.3,171.4v-0.5h-4v0.6h-1.1
					v-4.7h6.1v4.6H182.3z M182.3,167.8h-4v2.2h4V167.8z M179.1,160.7c0.5,1.3,0.7,1.7,1.3,2.4c0.5-0.6,1-1.4,1.4-2.4H179.1z"/>
				<path class="st1" d="M187.3,169.3c0.6-0.1,0.9-0.2,1.6-0.4v-8.6h-1.7v-0.9h7.3v0.8h4.7l0.5,0.5c-0.3,2.4-0.7,4.6-2.1,7.1
					c0.9,1.2,1.8,1.8,2.9,2.4l-0.7,0.8c-1-0.6-2-1.5-2.8-2.4c-1.1,1.5-2.1,2.2-2.8,2.6l-0.7-0.8c1.2-0.6,2.1-1.4,3-2.7
					c-0.6-0.9-1.7-2.7-2.1-5.9l0.9-0.2c0.2,1.5,0.5,3.3,1.7,5.2c0.9-1.8,1.4-3.7,1.6-5.7H194v-0.8h-0.8v11.3h-1v-2.9
					c-1.6,0.7-2.3,1-4,1.6c-0.1,0.2-0.2,0.4-0.3,0.4c-0.1,0-0.2-0.1-0.2-0.3L187.3,169.3z M192.2,160.2h-2.3v2h2.3V160.2z
					 M192.2,163.2h-2.3v2.1h2.3V163.2z M189.9,168.6c1.1-0.3,1.7-0.5,2.3-0.8v-1.7h-2.3V168.6z"/>
				<path class="st1" d="M206.7,159.7c-1,1-2,2-3.2,2.8l-0.7-0.8c1.2-0.8,2.3-1.7,3.4-3.1l0.9,0.6c0.1,0.1,0.2,0.2,0.2,0.2
					C207.2,159.7,207,159.7,206.7,159.7z M207.2,162.7c-0.3,0.4-0.4,0.6-1.1,1.5c0.2,0.2,0.2,0.2,0.2,0.3c0,0.1-0.1,0.2-0.3,0.3v7.1
					h-1v-6.3c-0.4,0.5-0.7,0.8-1.2,1.2l-0.8-0.7c1.5-1.4,2.6-2.5,3.7-4.5l0.9,0.8c0.1,0.1,0.1,0.1,0.1,0.2
					C207.6,162.7,207.3,162.7,207.2,162.7z M206.8,165.8v-0.9h9.3v0.9H206.8z M214,168.2v2.3c0,0.8,0,1.3-1.3,1.3H212l-0.5-1.1
					c0.2,0,0.4,0,0.8,0c0.6,0,0.6-0.1,0.6-0.6v-2.1h-6.1v-0.9h6.1v-1.1l1.1,0c0.1,0,0.2,0,0.2,0.1c0,0.1-0.1,0.2-0.3,0.3v0.6h2.1
					v0.9H214z M209.8,170.9c-0.4-0.5-0.8-1-1.5-1.6l0.7-0.6c0.6,0.4,1.1,1,1.6,1.6L209.8,170.9z M208.5,164v-4.7h6.5v4.7H208.5z
					 M213.9,160.1h-4.4v1h4.4V160.1z M213.9,162h-4.4v1.1h4.4V162z"/>
				<path class="st1" d="M227.3,171c-1.4,0.2-3,0.3-3.2,0.3c-0.5,0-3.3,0-3.3-2.2c0-1.9,1.8-2.9,3.2-3.7c-0.1-0.4-0.2-1.2-0.8-1.2
					c-1.3,0-2.5,1.7-3.4,2.9l-0.9-0.5c1.5-1.6,2.1-2.6,2.7-4.2c-1.3,0.1-1.8,0.1-2.2,0.1l-0.2-1.1c0.4,0.1,0.9,0.1,1.7,0.1
					c0.5,0,0.8,0,1.1,0c0.4-1.1,0.5-1.7,0.6-2.2l1.2,0.2c-0.2,0.5-0.3,0.9-0.7,1.9c1.8-0.3,2.7-0.7,3.3-1l0.1,1.1
					c-1.8,0.5-2.7,0.7-3.7,0.8c-0.4,1.1-0.5,1.3-0.7,1.7c0.2-0.2,0.6-0.5,1.2-0.5c1.2,0,1.4,1.1,1.5,1.6c1.8-0.8,2.1-1,2.9-1.4
					l0.2,1.1c-1.8,0.6-2.2,0.8-3.2,1.2c0.1,1.5,0.1,1.8,0.1,3h-1c0-0.1,0-0.7,0-1c0-0.6,0-1,0-1.5c-1.1,0.7-2.2,1.5-2.2,2.6
					c0,1.4,1.6,1.5,2.2,1.5c1,0,2.2-0.1,3.1-0.5L227.3,171z"/>
				<path class="st1" d="M171.4,183.4c-1.3-0.5-2.6-1.2-3.7-2c-0.9-0.7-1.6-1.5-2.3-2.4c-0.9,1.2-2.7,3.2-6,4.6l-0.8-0.9
					c3-1.1,5.1-2.8,6.3-5l1.1,0.4c0.2,0.1,0.3,0.1,0.3,0.3c0,0.1,0,0.1-0.1,0.2c0.8,1.4,2.9,2.9,5.8,3.9L171.4,183.4z M165.1,186.4
					c-0.9,1.6-1.5,2.5-1.8,3c1.3-0.2,2.8-0.3,4-0.5c0.4-0.1,0.7-0.1,0.9-0.1c-0.7-0.9-0.8-1.1-1.2-1.5l0.9-0.5
					c0.8,0.8,1.6,1.8,2.6,3.7l-1,0.5c-0.6-1.1-0.7-1.1-0.8-1.4c-1.8,0.3-4,0.7-7.7,1.2c-0.1,0.1-0.2,0.3-0.3,0.3
					c-0.1,0-0.2-0.2-0.2-0.3l-0.3-1.1c0.5,0,0.7,0,1.8-0.1c0.9-1.3,1.6-2.7,1.8-3.2h-4.3v-1h12v1H165.1z M162.3,183.5v-1h6.3v1
					H162.3z"/>
				<path class="st1" d="M177.2,185.3c-0.9,0.9-1.5,1.3-1.9,1.6l-0.9-0.7c2.5-1.5,3.9-3.5,4.4-4.3h-3.9v-0.9h2.3v-2.9l1,0.1
					c0.1,0,0.3,0,0.3,0.2c0,0.1,0,0.1-0.3,0.3v2.3h1.6l0.3,0.4c-0.4,0.9-1,1.7-1.6,2.5c0.9,1,1.7,1.5,2.2,1.8l-0.7,0.7
					c-0.9-0.5-1.4-1-1.8-1.5v6.1h-1V185.3z M183.6,178.1l1,0.1c0.1,0,0.3,0,0.3,0.2s-0.1,0.2-0.3,0.4v3.7h2.5v1h-2.5v5.8h3v1h-7.5
					v-1h3.4v-5.8h-2.7v-1h2.7V178.1z"/>
				<path class="st1" d="M194,178.5c0,0.4,0.1,1.9,0.1,2.2c0.1,0.7,0.2,1.3,0.6,1.9c0.1,0.2,0.3,0.3,0.5,0.4c0.6-0.3,3.4-1.5,4-1.8
					l0.2,1.2c-1.4,0.4-3.1,1-5.3,2.2c-0.7,0.4-2.1,1.2-2.1,2.6c0,2,1.6,2,2.5,2c0.2,0,1.8,0,3.3-0.2c0.7-0.1,1.1-0.2,1.7-0.3v1.3
					c-1.6,0.2-2.9,0.3-4.8,0.3c-1.8,0-2.5-0.3-3-0.8c-0.6-0.6-0.8-1.5-0.8-2.1c0-1.5,1.2-2.5,1.5-2.8c0.6-0.5,1.3-0.8,1.7-1
					c-1-1-1.1-2.1-1.3-3.7c0-0.4-0.1-0.6-0.1-0.8c-0.1-0.2-0.1-0.3-0.1-0.4L194,178.5z"/>
				<path class="st1" d="M204.2,179.1c-0.3,2.9-0.3,6.7-0.3,7c0,1.8,0.1,2.1,0.2,2.3c0.4,0.9,1.2,1,1.6,1c0.9,0,2.9-0.5,4.6-4.2
					l0.9,0.9c-0.5,0.9-2.5,4.2-5.5,4.2c-1.4,0-2.3-0.9-2.5-1.8c-0.2-0.6-0.2-1.1-0.2-3.5c0-0.7,0-3.6,0-4.2c0-0.6,0-1.4-0.1-2
					L204.2,179.1z"/>
				<path class="st1" d="M214.2,180.3c1.3,0,2.2,0,5.5-0.4c3.2-0.4,4-0.6,5-0.9l0.1,1.2c-1.4,0.2-2.7,0.9-3.8,1.8
					c-2,1.6-2.3,3.3-2.3,4.1c0,1.8,1,2.7,3.8,3.2l-0.4,1.2c-1.4-0.3-4.4-1.1-4.4-4.1c0-1.8,1-3.3,2-4.3c0.7-0.7,1.2-1,2-1.5
					c-2.1,0.2-4.9,0.6-7.3,0.9L214.2,180.3z"/>
				<path class="st1" d="M153.5,207.4c0.7-0.8,1.5-1.7,2.2-3.7c0.7-1.8,0.9-3.1,1-4.2l1.2,0.4c0.1,0,0.3,0.1,0.3,0.3
					c0,0.2-0.2,0.2-0.5,0.3c-0.4,1.9-0.8,3.6-1.9,5.7c-0.5,0.9-0.8,1.3-1.4,2.1L153.5,207.4z M161.8,199.7c0.7,0.9,1.5,1.9,2.4,3.8
					c0.8,1.7,1.1,2.7,1.3,3.5l-1.2,0.6c-0.3-1.2-0.7-2.6-1.7-4.4c-0.8-1.5-1.4-2.2-1.9-2.7L161.8,199.7z M164,200.1
					c-0.5-0.6-1.2-1.1-1.4-1.3l0.7-0.7c0.1,0.1,0.9,0.7,1.4,1.3L164,200.1z M165.5,199.1c-0.5-0.5-1.1-1.1-1.4-1.3l0.7-0.7
					c0.4,0.4,1,0.8,1.4,1.3L165.5,199.1z"/>
				<path class="st1" d="M169.4,202.6c0.2,0.4,0.7,1.2,1,2.1l-0.8,0.4c-0.3-0.9-0.7-1.6-1-2.1L169.4,202.6z M170.4,209.4
					c1.2-0.4,2.6-0.9,3.9-2.8c1.2-1.7,1.4-3.3,1.6-4.6l0.7,0.3c0.3,0.1,0.4,0.2,0.4,0.2c0,0.1,0,0.1-0.3,0.2
					c-0.4,1.4-0.9,3.1-1.8,4.4c-1.2,1.8-2.5,2.4-3.7,3L170.4,209.4z M172.2,201.9c0.3,0.4,0.7,1.2,1,2.1l-0.8,0.3
					c-0.3-0.9-0.8-1.7-1-2.1L172.2,201.9z"/>
				<path class="st1" d="M188.6,199.7c0.2,0,0.3,0,0.5-0.1l0.7,0.8c-0.6,0.5-0.6,0.6-0.7,0.9c-1.2,3.1-1.9,4.5-3.6,6.1
					c-1,0.9-1.7,1.4-2.9,2.1l-1.1-0.9c1.3-0.6,2.8-1.4,4.4-3.3c1.5-1.9,1.9-3.4,2.2-4.6h-4.3c-0.6,0.9-1.3,1.7-2.8,3.1l-0.9-0.7
					c0.8-0.6,1.7-1.3,2.7-2.6c0.9-1.2,1.1-1.9,1.3-2.5l1,0.4c0.3,0.1,0.3,0.2,0.3,0.3c0,0.1-0.2,0.2-0.5,0.2c-0.1,0.3-0.3,0.6-0.5,1
					H188.6z"/>
				<path class="st1" d="M193.1,200.1v-1h10.2c0.1,0,0.3-0.1,0.5-0.3l0.8,0.8c-1.1,1.8-2.4,3.6-3.9,5l-0.8-0.7
					c0.3-0.3,0.8-0.7,1.6-1.7c0.9-1.1,1.2-1.6,1.4-2.1H193.1z M194.3,208.4c1.2-0.7,2.2-1.4,3-3.4c0.6-1.6,0.6-3,0.7-4.2l1.2,0.2
					c0.1,0,0.2,0.1,0.2,0.2c0,0.1,0,0.1-0.3,0.3c-0.2,2.1-0.4,3.5-1.4,5.4c-0.6,1-1.1,1.5-2.3,2.4L194.3,208.4z"/>
				<path class="st1" d="M208.4,202.6c0.2,0.4,0.7,1.2,1,2.1l-0.8,0.4c-0.3-0.9-0.7-1.6-1-2.1L208.4,202.6z M209.4,209.4
					c1.2-0.4,2.6-0.9,3.9-2.8c1.2-1.7,1.4-3.3,1.6-4.6l0.7,0.3c0.3,0.1,0.4,0.2,0.4,0.2c0,0.1,0,0.1-0.3,0.2
					c-0.4,1.4-0.9,3.1-1.8,4.4c-1.2,1.8-2.5,2.4-3.7,3L209.4,209.4z M211.2,201.9c0.3,0.4,0.7,1.2,1,2.1l-0.8,0.3
					c-0.3-0.9-0.8-1.7-1-2.1L211.2,201.9z"/>
				<path class="st1" d="M219,200.4v-1h7.9c0.1,0,0.3-0.1,0.6-0.3l1.1,0.9c-0.4,0.4-0.4,0.4-0.5,0.6c-1.1,3.9-2,5.3-3.8,6.8
					c-0.9,0.7-1.6,1.1-3.2,1.8l-1-1c1.2-0.4,2.7-0.9,4.2-2.5c1.9-1.9,2.2-3.7,2.6-5.5H219z M228.2,198.2c0-0.8,0.7-1.4,1.4-1.4
					s1.4,0.6,1.4,1.4c0,0.7-0.6,1.4-1.4,1.4C228.8,199.6,228.2,199,228.2,198.2z M230.3,198.2c0-0.4-0.3-0.8-0.8-0.8
					c-0.4,0-0.8,0.3-0.8,0.8c0,0.4,0.3,0.8,0.8,0.8C230,199,230.3,198.7,230.3,198.2z"/>
			</g>
		</g>
		<g>
			
				<ellipse transform="matrix(0.3162 -0.9487 0.9487 0.3162 -42.0527 306.9365)" class="st2" cx="191.9" cy="182.6" rx="51" ry="51"/>
		</g>
	</g>
	<g>
		<path class="st1" d="M308.1,167c-0.5,4.1-4.3,7-8.4,6.5c-4.1-0.5-7-4.3-6.5-8.4c0.5-4.1,4.2-7,8.4-6.5
			C305.7,159.2,308.6,162.9,308.1,167z"/>
		<g>
			<path class="st1" d="M327.1,168.1c-0.7-1.4-2.5-2-3.9-1.2c0,0-24.1,9.9-25.3,10.6c-0.1,0.1-0.3,0.2-0.4,0.2
				c-0.2,0.1-0.5,0.3-0.7,0.5c-7.7,5.3-14.7,21.6-16.8,26l-14.3,27.6c-1.1,1.8-0.5,4.1,1.3,5.2c1.8,1.1,4.1,0.5,5.2-1.3l16.6-25.7
				c1.6-2.4,2.2-2.7,3-1.2l7.1,12.4l5,17.2c0.7,2.3,2.7,3.3,4.8,2.9c2.2-0.5,2.9-2.9,2.5-5l-3.3-16.9c-0.2-0.9-0.3-1.5-0.6-2.1
				l-5.6-12.5c-0.9-2.6,4.8-16.6,5.4-22.1l18.9-10.8C327.3,171.3,327.9,169.5,327.1,168.1z"/>
			<path class="st1" d="M311.4,187c-2.2,0-4,1.8-4,4c0,2.2,1.8,4,4,4c2.2,0,4-1.8,4-4C315.4,188.8,313.6,187,311.4,187z"/>
		</g>
		<path class="st0" d="M333.3,141.8l-16.2-2.3c-2.4-0.4-3.7-0.1-3.9,1.9l-0.7,4.6l-13.3,0.7c0,0,14.7,9.7,16.4,10.9
			c1.8,1.2,3.4,1,3.8-0.9l0.4-2.2l6.2,2.7l-21.4,45.1l2.3,1.1l28.7-60.6L333.3,141.8z"/>
	</g>
</g>
</svg>
