<svg xmlns="http://www.w3.org/2000/svg" xmlns:xlink="http://www.w3.org/1999/xlink" viewBox="0 0 1373.19 402.55"><defs><style>.cls-1{fill:#525fa5;}.cls-2{fill:#63893b;}.cls-3{fill:url(#radial-gradient);}.cls-4{fill:url(#radial-gradient-2);}</style><radialGradient id="radial-gradient" cx="123.54" cy="276.24" r="161.84" gradientUnits="userSpaceOnUse"><stop offset="0" stop-color="#9778a7"/><stop offset="0.07" stop-color="#936ea0"/><stop offset="0.32" stop-color="#854e8b"/><stop offset="0.57" stop-color="#7b377b"/><stop offset="0.8" stop-color="#752a72"/><stop offset="1" stop-color="#73256f"/></radialGradient><radialGradient id="radial-gradient-2" cx="124.5" cy="276.24" r="161.3" xlink:href="#radial-gradient"/></defs><g id="Layer_2" data-name="Layer 2"><g id="Layer_1-2" data-name="Layer 1"><path class="cls-1" d="M124.05,154.45A124.05,124.05,0,1,0,248.1,278.5,124.05,124.05,0,0,0,124.05,154.45Zm-67,206.47a106.19,106.19,0,0,1,67-188.61c1.76,0,3.51.05,5.25.13-41.18,18.35-69.05,43.71-64.48,66.27,4.37,21.48,55.57,29.71,61.4,48.52C130.16,299.94,114.75,322.77,57.09,360.92Zm88.06,21.67C194.5,338.3,202.22,307.64,192.41,281c-11-29.87-83.53-33.74-89-52.77-5-17.35,20.67-33.62,48.25-52.25a106.22,106.22,0,0,1-6.48,206.66Z"/><path class="cls-1" d="M150.42,160.19l21.28-11.77,16.75-.45s-22.69,18-36.59,28Z"/><path class="cls-2" d="M393.51,42.47V152.69H368.44V16q0-7.25,3.63-11.5A12.27,12.27,0,0,1,381.91.21a13.23,13.23,0,0,1,5.6,1.24,20.31,20.31,0,0,1,5.59,4.14L499.39,111.05V.82h25.07v138c0,5-1.21,8.84-3.63,11.61a12,12,0,0,1-9.43,4.14q-6.42,0-12-5.6Z"/><path class="cls-2" d="M707,152.69,684.4,114.78H613.13l12.43-21.34h46.2L638.2,37.08,569.83,152.69H539.78L626.39,8.49a20,20,0,0,1,5.38-6.21A12.28,12.28,0,0,1,639.23,0a11.84,11.84,0,0,1,7.36,2.28,20.7,20.7,0,0,1,5.28,6.21l86.81,144.2Z"/><path class="cls-2" d="M800.22,110.84V85.36h60.49q13.89,0,21.66-7.87t7.76-20.72q0-13.05-7.76-20.72t-21.66-7.67H781V152.69H754.84V2.07H860.71A66.33,66.33,0,0,1,884,5.9a48.5,48.5,0,0,1,17.31,10.78A46.14,46.14,0,0,1,912.1,33.56a63.51,63.51,0,0,1,3.73,22.38,63.72,63.72,0,0,1-3.73,22.27A47.49,47.49,0,0,1,884,106.81a63.22,63.22,0,0,1-23.31,4Z"/><path class="cls-2" d="M1069.76,152.69l-22.58-37.91H975.91l12.43-21.34h46.2L1001,37.08,932.61,152.69H902.56L989.17,8.49a19.88,19.88,0,0,1,5.39-6.21A12.24,12.24,0,0,1,1002,0a11.79,11.79,0,0,1,7.35,2.28,20.7,20.7,0,0,1,5.28,6.21l86.81,144.2Z"/><path class="cls-1" d="M335,355.23a61.52,61.52,0,0,1-25.11-5.09,62.28,62.28,0,0,1-20-13.94,63.06,63.06,0,0,1-13.23-21,71.62,71.62,0,0,1-4.73-26.27,69.36,69.36,0,0,1,4.73-26.09,57.9,57.9,0,0,1,13.23-20.1,59.64,59.64,0,0,1,20-12.87A67.66,67.66,0,0,1,335,225.31h31.63A69.43,69.43,0,0,1,392.48,230a57.6,57.6,0,0,1,33.15,33.15,69.53,69.53,0,0,1,4.64,25.82,71.62,71.62,0,0,1-4.74,26.27,62.87,62.87,0,0,1-13.22,21,62,62,0,0,1-20.1,13.94,63.06,63.06,0,0,1-25.56,5.09Zm31.63-22.69a41.39,41.39,0,0,0,16.44-3.22A38.8,38.8,0,0,0,404.53,307a46.6,46.6,0,0,0,3-17,45.87,45.87,0,0,0-3-16.88,38.15,38.15,0,0,0-21.44-22A42.42,42.42,0,0,0,366.65,248H335a41.28,41.28,0,0,0-16.17,3.12,38.37,38.37,0,0,0-12.78,8.67,39.93,39.93,0,0,0-8.4,13.23,45.67,45.67,0,0,0-3,17,46.6,46.6,0,0,0,3,17,40.4,40.4,0,0,0,8.4,13.49,38.68,38.68,0,0,0,12.78,8.85A40.28,40.28,0,0,0,335,332.54Z"/><path class="cls-1" d="M448.68,355.23V225.31h22.69V332.54h87.39v22.69Z"/><path class="cls-1" d="M691.17,225.31h22.16v72.56q0,15-3.93,26.18a42.94,42.94,0,0,1-12.33,18.49q-8.4,7.33-21.71,10.91T643.1,357q-18.76,0-32.08-3.57t-21.71-10.91A42.94,42.94,0,0,1,577,324.05q-3.93-11.18-3.93-26.18V225.31h23.41v72.56a51.77,51.77,0,0,0,2.41,16.79,25.08,25.08,0,0,0,7.86,11.44q5.46,4.47,14.57,6.53a124.67,124.67,0,0,0,45,0q9.12-2.06,14.57-6.53a25.08,25.08,0,0,0,7.86-11.44,51.5,51.5,0,0,0,2.41-16.79Z"/><path class="cls-1" d="M775.52,355.23V248H726.2v-22.7H847.54V248H798.22V355.23Z"/><path class="cls-1" d="M863.8,355.23V225.31h22.7V355.23Z"/><path class="cls-1" d="M969.59,355.23a61.56,61.56,0,0,1-25.11-5.09,61.84,61.84,0,0,1-33.23-34.94,71.62,71.62,0,0,1-4.74-26.27,69.36,69.36,0,0,1,4.74-26.09,57.74,57.74,0,0,1,13.22-20.1,59.64,59.64,0,0,1,20-12.87,67.7,67.7,0,0,1,25.11-4.56h31.64a69.41,69.41,0,0,1,25.82,4.65,57.6,57.6,0,0,1,33.15,33.15,69.53,69.53,0,0,1,4.64,25.82,71.83,71.83,0,0,1-4.73,26.27,63.06,63.06,0,0,1-13.23,21,61.91,61.91,0,0,1-20.1,13.94,63,63,0,0,1-25.55,5.09Zm31.64-22.69a41.42,41.42,0,0,0,16.44-3.22,39.4,39.4,0,0,0,12.95-8.85,39.82,39.82,0,0,0,8.49-13.49,46.81,46.81,0,0,0,3-17,46.08,46.08,0,0,0-3-16.88,38.23,38.23,0,0,0-21.44-22,42.46,42.46,0,0,0-16.44-3.12H969.59a41.28,41.28,0,0,0-16.17,3.12,38.37,38.37,0,0,0-12.78,8.67,40.09,40.09,0,0,0-8.4,13.23,45.87,45.87,0,0,0-3,17,46.8,46.8,0,0,0,3,17,40.56,40.56,0,0,0,8.4,13.49,38.68,38.68,0,0,0,12.78,8.85,40.28,40.28,0,0,0,16.17,3.22Z"/><path class="cls-1" d="M1104.34,260.16v95.07h-21.63V237.29q0-6.25,3.13-9.92a10.57,10.57,0,0,1,8.49-3.66,11.32,11.32,0,0,1,4.82,1.07,17.18,17.18,0,0,1,4.83,3.57l91.67,91V224.24h21.63v119q0,6.44-3.13,10a10.31,10.31,0,0,1-8.13,3.57q-5.55,0-10.37-4.83Z"/><path class="cls-1" d="M1235.41,355.23V332.54h97.4q9.11,0,14-4.65t4.91-12.33q0-8.4-4.91-12.6t-14-4.2h-59.69a46.83,46.83,0,0,1-16.53-2.77,35.65,35.65,0,0,1-12.51-7.68,33.79,33.79,0,0,1-7.86-11.71,38.8,38.8,0,0,1-2.77-14.83,40,40,0,0,1,2.59-14.56,31.14,31.14,0,0,1,7.68-11.53,36.43,36.43,0,0,1,12.6-7.6,49.53,49.53,0,0,1,17.16-2.77h93.28V248h-93.28c-5.25,0-9.29,1.4-12.15,4.2s-4.3,6.7-4.3,11.7,1.46,8.88,4.38,11.62,6.88,4.11,11.89,4.11h59.51q19.83,0,30.11,9.29t10.27,28.24a44.62,44.62,0,0,1-2.5,15.19,32.87,32.87,0,0,1-7.5,12.06,34.34,34.34,0,0,1-12.6,7.95,50.31,50.31,0,0,1-17.78,2.86Z"/><path class="cls-3" d="M60.66,348.29A94.29,94.29,0,0,1,72,199.94c-12.63,13.35-18.18,27.22-15.47,40.44,3.09,15.31,20.18,23.92,36.72,32.18,10.3,5.22,23.63,13,24.53,18.95C118.77,298.13,111.23,313.2,60.66,348.29Z"/><path class="cls-4" d="M218.3,278.5A94,94,0,0,1,188.79,347c16.28-24.33,19.76-46.59,11.58-68.94-7.46-20.3-34.35-29.55-58.09-37.73-11-3.82-28.13-9-30.14-15.17-3.26-9.93,17.42-24.09,37.18-37.4A94.16,94.16,0,0,1,218.3,278.5Z"/></g></g></svg>