<svg id="Layer_1" data-name="Layer 1" xmlns="http://www.w3.org/2000/svg" viewBox="0 0 1071.75 185.19"><defs><style>.cls-1{fill:#fff;}</style></defs><path class="cls-1" d="M248.68,171.19l-8.51-12h-.09v12H231v-37h11.65c1.24,0,2.23,0,3,.08a23.11,23.11,0,0,1,3,.31,11.69,11.69,0,0,1,5.44,2.28,13.32,13.32,0,0,1,2.15,17.7,10.16,10.16,0,0,1-6.78,4l10,12.6Zm-.93-27.57a7.16,7.16,0,0,0-4.27-1.14H240v10.3h3.34c4.13,0,6.19-1.77,6.2-5.3a4.43,4.43,0,0,0-1.83-3.89Z"/><path class="cls-1" d="M297.39,159.8h-20.8q.78,5.25,6.49,5.25a6.3,6.3,0,0,0,5.06-2.59h8.49a16.34,16.34,0,0,1-5.32,6.89,13.55,13.55,0,0,1-8.23,2.71,14.75,14.75,0,0,1-14.69-14.7,14.65,14.65,0,0,1,24.67-10.87l.4.4a15,15,0,0,1,4.13,10.72A11.51,11.51,0,0,1,297.39,159.8Zm-8.11-5.61c-.67-3.17-2.76-4.75-6.29-4.76s-5.63,1.58-6.3,4.76Z"/><path class="cls-1" d="M330.52,171.19v-3h-.09a6.71,6.71,0,0,1-3.49,3,11.44,11.44,0,0,1-4.62.91,13.09,13.09,0,0,1-10.15-4.31,15.17,15.17,0,0,1-3.76-10.53,15,15,0,0,1,3.76-10.44,13.09,13.09,0,0,1,10.11-4.37,11.14,11.14,0,0,1,4.59.92,7.46,7.46,0,0,1,3.52,3h.09v-3h8.31v27.77Zm-2-19a6.79,6.79,0,0,0-5-2,6.46,6.46,0,0,0-4.95,2.1,7.07,7.07,0,0,0-1.91,5,6.79,6.79,0,0,0,2,4.93,7,7,0,0,0,9.9,0h0a7,7,0,0,0,2-5.06,6.87,6.87,0,0,0-2-5Z"/><path class="cls-1" d="M352.36,171.19v-37h8.3v37Z"/><path class="cls-1" d="M374.17,140.47v-6.28h8.3v6.33Zm0,30.72V143.4h8.3v27.79Z"/><path class="cls-1" d="M393.67,171.19V165.5l11.7-15.77h-11.7v-6.3h20.66v6.3l-10.87,15.16h10.87v6.3Z"/><path class="cls-1" d="M453.17,159.8h-20.8q.78,5.25,6.49,5.25a6.24,6.24,0,0,0,5.05-2.59h8.5a16.46,16.46,0,0,1-5.32,6.89,13.55,13.55,0,0,1-8.23,2.71,14.75,14.75,0,0,1-14.7-14.7,14.5,14.5,0,0,1,4.23-10.47,13.79,13.79,0,0,1,10.32-4.44,14,14,0,0,1,10.46,4.44,15,15,0,0,1,4.12,10.72A11.45,11.45,0,0,1,453.17,159.8ZM445,154.19c-.67-3.17-2.77-4.75-6.3-4.76s-5.63,1.58-6.3,4.76Z"/><path class="cls-1" d="M506.31,157.7v13.49h-9.45V157.7L485.8,134.19h10.26l5.49,14.87,5.54-14.87h10.16Z"/><path class="cls-1" d="M547.92,167.81a15.63,15.63,0,0,1-21.32,0,15.14,15.14,0,0,1,0-21.12,15.63,15.63,0,0,1,21.32,0A15.14,15.14,0,0,1,547.92,167.81ZM542,152.36a6.48,6.48,0,0,0-9.14-.4c-.14.13-.27.26-.4.4a6.9,6.9,0,0,0-1.88,4.9,7,7,0,0,0,1.88,4.91,6.51,6.51,0,0,0,9.2.34l.34-.34a7,7,0,0,0,1.88-4.91A6.9,6.9,0,0,0,542,152.36Z"/><path class="cls-1" d="M582.22,171.19v-3h-.05a6.25,6.25,0,0,1-3,3,9.76,9.76,0,0,1-4.23.81c-3.53,0-6.24-1.16-8.15-3.49a10.64,10.64,0,0,1-2.08-4,19.61,19.61,0,0,1-.41-4.52v-16.6h8.3v15.35a7.51,7.51,0,0,0,.83,4,4,4,0,0,0,3.61,1.59c3.18,0,4.76-1.88,4.76-5.64V143.4h8.31v27.79Z"/><path class="cls-1" d="M618.36,150.79a10.06,10.06,0,0,0-4.64,1q-1.9,1.17-1.9,4.13v15.27h-8.3V143.4h7.79v2.95h.12q2-3.9,6.93-3.9Z"/><path class="cls-1" d="M672,171.19h-9.74l-12.35-37h9.69l7.45,26h.09l7.49-26h9.75Z"/><path class="cls-1" d="M693.94,140.47v-6.28h8.3v6.33Zm0,30.69V143.4h8.3v27.79Z"/><path class="cls-1" d="M733,169.72a12.61,12.61,0,0,1-7.76,2.39,12.21,12.21,0,0,1-7.59-2.32,9.46,9.46,0,0,1-3.71-6.89h8.23c.24,1.71,1.29,2.57,3.15,2.57a3.57,3.57,0,0,0,1.93-.54,1.86,1.86,0,0,0,1-1.64,2.46,2.46,0,0,0-1.31-2.12l-1.22-.59-4.81-1.73a12.93,12.93,0,0,1-4.55-2.61,6.19,6.19,0,0,1-2.07-4.64,8.13,8.13,0,0,1,3.37-6.74,11.63,11.63,0,0,1,7.4-2.41,11.52,11.52,0,0,1,7.2,2.17,8.88,8.88,0,0,1,3.44,6.59h-8.15c0-1.4-.92-2.1-2.59-2.1s-2.37.62-2.37,1.86c0,.92.73,1.68,2.2,2.27A22.28,22.28,0,0,0,727,154l.32.08,2.24.7a19.53,19.53,0,0,1,2.57,1,9.07,9.07,0,0,1,2.22,1.51,7,7,0,0,1,2.2,5.35A8.37,8.37,0,0,1,733,169.72Z"/><path class="cls-1" d="M748.17,140.47v-6.28h8.3v6.33Zm0,30.72V143.4h8.3v27.79Z"/><path class="cls-1" d="M794.25,167.81a15.63,15.63,0,0,1-21.32,0,15.12,15.12,0,0,1,0-21.12,15.63,15.63,0,0,1,21.32,0A15.14,15.14,0,0,1,794.25,167.81Zm-5.89-15.45a6.48,6.48,0,0,0-9.14-.4c-.14.13-.27.26-.4.4a6.9,6.9,0,0,0-1.88,4.9,7,7,0,0,0,1.88,4.91,6.51,6.51,0,0,0,9.2.34c.12-.11.23-.22.34-.34a7.34,7.34,0,0,0,0-9.81Z"/><path class="cls-1" d="M828.11,171.19V156a8.13,8.13,0,0,0-.78-4,3.76,3.76,0,0,0-3.56-1.71,4.3,4.3,0,0,0-3.84,1.66,7.5,7.5,0,0,0-.92,4.15v15.1h-8.3V143.4h7.73v2.95h.13c1.59-2.6,4.11-3.9,7.54-3.9a10.66,10.66,0,0,1,7.1,2.41,8.27,8.27,0,0,1,2.59,4.08,16.62,16.62,0,0,1,.61,4.86v17.39Z"/><path class="cls-1" d="M14.67,32.19v64.5H0v-80a10,10,0,0,1,2.17-6.8A7.17,7.17,0,0,1,7.93,7.41a7.83,7.83,0,0,1,3.27.72,12.21,12.21,0,0,1,3.28,2.43L76.67,72.27V7.77H91.34V88.52a10,10,0,0,1-2.12,6.79,7,7,0,0,1-5.52,2.42,9.84,9.84,0,0,1-7-3.27Z"/><path class="cls-1" d="M198.11,97.25,184.89,75.06H143.17l7.28-12.49h27l-19.64-33-40,67.66H100.26l50.68-84.39a11.8,11.8,0,0,1,3.15-3.63,7.2,7.2,0,0,1,4.37-1.34,6.85,6.85,0,0,1,4.3,1.34,12.12,12.12,0,0,1,3.09,3.63l50.81,84.39Z"/><path class="cls-1" d="M252.66,72.19V57.24h35.41q8.12,0,12.67-4.61t4.54-12.12q0-7.65-4.54-12.13T288.07,23.9H241.39V96.64H226.11V8.5h62a39.13,39.13,0,0,1,13.64,2.24,28.32,28.32,0,0,1,10.12,6.31,26.76,26.76,0,0,1,6.3,9.88,40,40,0,0,1,0,26.12,27.75,27.75,0,0,1-16.42,16.74,37.16,37.16,0,0,1-13.68,2.4Z"/><path class="cls-1" d="M410.4,97.25,397.17,75.06h-41.7l7.27-12.49h27l-19.57-33-40,67.66H312.56l50.68-84.39a11.69,11.69,0,0,1,3.15-3.63,7.17,7.17,0,0,1,4.36-1.34,6.94,6.94,0,0,1,4.31,1.34,12.12,12.12,0,0,1,3.09,3.63L429,97.25Z"/><path class="cls-1" d="M505.56,96.64A41.86,41.86,0,0,1,466,69.48a48.66,48.66,0,0,1-3.21-17.82A47,47,0,0,1,466,34a39.33,39.33,0,0,1,9-13.64,40.26,40.26,0,0,1,13.57-8.73,46.16,46.16,0,0,1,17-3.09h47.77V23.9H505.56a27.88,27.88,0,0,0-11,2.12,25.78,25.78,0,0,0-8.67,5.88,26.9,26.9,0,0,0-5.7,9,31.11,31.11,0,0,0-2,11.49,31.51,31.51,0,0,0,2.06,11.52,27.22,27.22,0,0,0,5.7,9.15,26.06,26.06,0,0,0,8.67,6,27.18,27.18,0,0,0,11,2.18h37.67V58.33H503.5v-13h55.28V96.61Z"/><path class="cls-1" d="M573,96.64V8.5h15.4V81.24h59.28v15.4Z"/><path class="cls-1" d="M775.92,96.64V8.5h64.5A44,44,0,0,1,852.12,10a26.46,26.46,0,0,1,9,4.31,19.35,19.35,0,0,1,5.82,7.15A22.74,22.74,0,0,1,869,31.29a25.71,25.71,0,0,1-1,7.4,17.31,17.31,0,0,1-2.67,5.39,16.95,16.95,0,0,1-8.61,6,19.8,19.8,0,0,1,9.94,7q3.89,5.09,3.88,12.85a28.75,28.75,0,0,1-2,11,23.89,23.89,0,0,1-5.7,8.43,24.84,24.84,0,0,1-9,5.39,34.48,34.48,0,0,1-11.7,1.88Zm26.56-38.31v-13h38.07q6.54,0,9.69-2.43t3.16-8.24A10.49,10.49,0,0,0,852.06,29a8.68,8.68,0,0,0-3.82-3.27,18.51,18.51,0,0,0-5.94-1.52,76.17,76.17,0,0,0-7.7-.36H791.32V81.33h44.62a45.5,45.5,0,0,0,7.64-.6,19.38,19.38,0,0,0,6.06-2,10.6,10.6,0,0,0,3.94-3.58A9.93,9.93,0,0,0,855,69.7q0-5.46-3.39-8.43t-9.94-3Z"/><path class="cls-1" d="M969.06,97.25,955.85,75.06H914.17l7.27-12.49h27l-19.64-33-40,67.66H871.22L921.9,12.84a11.8,11.8,0,0,1,3.15-3.63,7.2,7.2,0,0,1,4.37-1.34,6.91,6.91,0,0,1,4.3,1.34,12.12,12.12,0,0,1,3.09,3.63l50.8,84.39Z"/><path class="cls-1" d="M997.07,96.64V8.5h15.4V81.24h59.28v15.4Z"/><path class="cls-1" d="M711.66,90.19l-1.48.82a125.42,125.42,0,0,1-23.56,9.72c.7-5.4,1.46-10.69,2.55-15.9.3-1.49.63-3,1-4.44a4.21,4.21,0,0,0,1.78-.76,95.88,95.88,0,0,0,8.85,5.49A98.3,98.3,0,0,0,711.66,90.19Z"/><path class="cls-1" d="M688.87,70.83c-.09.31-.18.63-.26,1a4.36,4.36,0,0,0-1.4.51c-.75-.62-1.47-1.25-2.19-1.9C686.3,70.57,687.58,70.72,688.87,70.83Z"/><path class="cls-1" d="M735.23,96.25a3,3,0,0,1-5.79-.88,93.64,93.64,0,0,1-14.72-4h0c-1.15.62-2.31,1.2-3.48,1.77a88.35,88.35,0,0,1-24.62,7.7v-.07h0a65.79,65.79,0,0,1-.31-16.35c.16-1.57.36-3.14.63-4.7a4.39,4.39,0,0,1-1.9-3.61,4.31,4.31,0,0,1,.29-1.55c-1.9-1.62-3.71-3.31-5.45-5.09h0a58,58,0,0,1-21.94-9.7,68.43,68.43,0,0,0,19.54,7.13,67.37,67.37,0,0,1-7.88-10.74l-.27-.48a4.06,4.06,0,0,1-.92.11,4.15,4.15,0,0,1-2.57-7.4,43.5,43.5,0,0,1-1.78-5.46,42.25,42.25,0,0,1-1.18-7.07,36.63,36.63,0,0,1,.17-7.1,45.56,45.56,0,0,0,.65,7,43.81,43.81,0,0,0,1.77,6.75,46.17,46.17,0,0,0,2,5.08,4.41,4.41,0,0,1,.89-.09,4.14,4.14,0,0,1,2.94,7.06l.24.38a75.33,75.33,0,0,0,8.63,10.79c.63.66,1.28,1.31,1.93,2,.95.13,1.9.24,2.85.34,1.54.14,3.09.25,4.64.3v-.14a77.83,77.83,0,0,1,6.71-15.17A66.29,66.29,0,0,1,703.47,43a3.34,3.34,0,1,1,2.27.9,3.23,3.23,0,0,1-1.4-.32c-2,3.6-3.79,7.19-5.42,10.88a143.32,143.32,0,0,0-5.46,14c1.86,0,3.72-.1,5.58-.26A79,79,0,0,0,713,65.82c1.77-.45,3.53-1,5.26-1.52v-.44a4.7,4.7,0,0,1,3.59-4.57c0-.85,0-1.71-.07-2.56s-.06-1.56-.1-2.34a7.47,7.47,0,0,1-1.47-14.5c-.13-.77-.27-1.53-.42-2.3l-.44-2.36-.53-2.34c-.31-1.57-.79-3.1-1.18-4.65s-.89-3.08-1.38-4.6-1-3-1.59-4.46a3.11,3.11,0,0,1-.61,0A4.26,4.26,0,0,1,709.89,16,113.61,113.61,0,0,0,693,14.89a99.73,99.73,0,0,0-22.56,2.92,53.18,53.18,0,0,0,16,82.93h.16a53.21,53.21,0,0,0,54.16-4.15A37.93,37.93,0,0,1,735.23,96.25ZM710.23,0a53.09,53.09,0,0,0-39.7,17.78A65.57,65.57,0,0,1,692.86,12a83.41,83.41,0,0,1,17.8.34,3.66,3.66,0,0,1,.73-.74c-.21-.45-.43-.89-.65-1.33-1.44-2.89-3.11-5.65-4.85-8.42A56.5,56.5,0,0,1,712,9.57c.28.43.55.87.82,1.31A4.12,4.12,0,0,1,714,10.7a4.26,4.26,0,0,1,4,2.92,87.62,87.62,0,0,1,20.63,7.05,72.52,72.52,0,0,1,17.2,11.6,2.07,2.07,0,0,1,1.13-.33,2.15,2.15,0,0,1,.92,4.1,52.83,52.83,0,0,1-7.52,22.43c-.57,1-1.13,1.91-1.71,2.85l-1.9,2.73c-.61.92-1.32,1.78-2,2.65s-1.35,1.76-2.08,2.59c-1.47,1.65-2.92,3.33-4.52,4.86-.79.77-1.55,1.58-2.37,2.32l-2.47,2.22A95.62,95.62,0,0,1,717.3,89.94a118.29,118.29,0,0,0,12.42,4.16,2.94,2.94,0,0,1,2.67-1.71,3,3,0,0,1,3,3v.16c1.83.41,3.68.79,5.53,1.12A53.19,53.19,0,0,0,710.17,0ZM757,36.25h-.45a56.06,56.06,0,0,1-16.54,19.89,69.72,69.72,0,0,1-12.36,7.54.61.61,0,0,1,0,.19,4.69,4.69,0,0,1-4.7,4.7h0a74.18,74.18,0,0,1-1.82,7.52c.22-2.59.4-5.17.52-7.74A4.63,4.63,0,0,1,719.46,67c-1.88.65-3.79,1.22-5.72,1.73A78.56,78.56,0,0,1,699.28,71c-2.2.11-4.41.15-6.62.09-.17.56-.34,1.12-.5,1.68h0a4.36,4.36,0,0,1,1.57,3.36,4.2,4.2,0,0,1-.15,1.12,96,96,0,0,0,8.56,5.46,113.4,113.4,0,0,0,12.1,6l1.51-.9c1.87-1.07,3.64-2.3,5.43-3.49.9-.59,1.76-1.23,2.63-1.86l2.61-1.9,2.5-2c.84-.67,1.67-1.34,2.46-2.07a92.44,92.44,0,0,0,17-19.18,62.62,62.62,0,0,0,9.17-21.07,1.66,1.66,0,0,1-.54.06Zm-2.15-2.15a2.15,2.15,0,0,1,.61-1.5,112.5,112.5,0,0,0-18-9.26,116.76,116.76,0,0,0-19.94-6,4.85,4.85,0,0,1-.8.89,76.1,76.1,0,0,1,3.55,9.21c.47,1.58,1,3.16,1.32,4.77l.58,2.4.48,2.43q.22,1.23.42,2.46a7.46,7.46,0,0,1,1.06,14.75c0,.82,0,1.64-.06,2.45s-.06,1.7-.12,2.54A4.69,4.69,0,0,1,726.7,61a76.06,76.06,0,0,0,11.94-6.79,64.29,64.29,0,0,0,17.53-18.1,2.14,2.14,0,0,1-1.31-2Z"/><path class="cls-1" d="M670.49,17.79l-.06.07-.2.05Z"/><path class="cls-1" d="M741.6,96.77h-.84a.38.38,0,0,0,.13-.09Z"/></svg>