<svg id="Layer" xmlns="http://www.w3.org/2000/svg" viewBox="0 0 492.75 224.47"><defs><style>.cls-1,.cls-5{opacity:0.4;}.cls-2,.cls-3,.cls-4,.cls-5,.cls-6{fill:#43687a;}.cls-2{opacity:0.1;}.cls-3{opacity:0.2;}.cls-4{opacity:0.3;}.cls-6{opacity:0.5;}.cls-7{fill:#9dbbc9;}.cls-8{fill:#709cb1;}.cls-9{fill:#84aabb;}.cls-10{fill:#3d5f6f;}.cls-11{fill:#d32f2f;}.cls-12{fill:#c62828;}</style></defs><g class="cls-1"><polygon class="cls-2" points="129.43 61.98 120.14 33.31 128.37 18.7 129.43 61.98"/><polygon class="cls-3" points="109.18 79.21 115.43 77.25 102.88 39.02 109.18 79.21"/><polygon class="cls-4" points="151.73 12.15 140.81 27.97 128.78 18.61 151.73 12.15"/><polygon class="cls-5" points="214.8 1.31 193.29 19.37 187.45 9.54 214.8 1.31"/><polygon class="cls-2" points="88.67 37.69 66.37 62.78 88.16 52.12 88.67 37.69"/><polygon class="cls-3" points="125.24 70.85 66.24 62.78 124.39 52.56 125.24 70.85"/><polygon class="cls-4" points="102.72 39.51 101.09 65.5 144.7 55.94 102.72 39.51"/><polygon class="cls-4" points="71.61 15.12 88.94 18.7 54.89 21.69 71.61 15.12"/><polygon class="cls-5" points="95.31 81.5 90.14 93.32 80.05 96.77 95.31 81.5"/><polygon class="cls-5" points="109.25 92.92 113.65 88.58 121 96.37 109.25 92.92"/><polygon class="cls-5" points="99.5 27.66 112.24 18.9 102.68 38.42 99.5 27.66"/><polygon class="cls-5" points="150.68 147.48 126.91 119.74 118.55 153.59 150.68 147.48"/><polygon class="cls-4" points="162.63 150.98 126.91 119.74 136.54 149.98 162.63 150.98"/><polygon class="cls-4" points="134.21 213.33 142.48 159.79 149.94 161.72 134.21 213.33"/><polygon class="cls-4" points="81.37 26.67 128.37 18.7 120.14 33.31 81.37 26.67"/><polygon class="cls-2" points="162.09 4.9 172.01 1.01 173.78 10.21 162.09 4.9"/><polygon class="cls-3" points="101.14 65.41 74.11 90.8 88.34 52.16 101.14 65.41"/><polygon class="cls-4" points="124.39 52.56 112.44 47.98 145.27 47.8 124.39 52.56"/><polygon class="cls-5" points="126.25 159.7 128.37 179.88 137.13 169.79 126.25 159.7"/><polygon class="cls-5" points="166.08 166.6 150.68 147.48 156.78 173.24 166.08 166.6"/><polygon class="cls-2" points="103.84 94.99 102.04 102.08 74.36 90.89 103.84 94.99"/><polygon class="cls-4" points="219.71 84.55 230.86 103.14 199.53 95.97 219.71 84.55"/><polygon class="cls-5" points="219.05 41.41 226.22 57.74 227.81 45.92 219.05 41.41"/><polygon class="cls-3" points="265.25 47.51 272.29 40.74 248.52 51.23 265.25 47.51"/><polygon class="cls-2" points="251.84 150.4 250.78 125.98 281.05 157.31 251.84 150.4"/><polygon class="cls-5" points="260.87 105.8 250.78 125.98 293 103.94 260.87 105.8"/><polygon class="cls-4" points="265.65 61.45 280.12 55.08 278.13 75.53 265.65 61.45"/><polygon class="cls-3" points="245.87 42.2 248.52 51.23 240.29 62.38 245.87 42.2"/><polygon class="cls-2" points="396.02 27.73 285.83 35.96 303.09 42.34 396.02 27.73"/><polygon class="cls-5" points="366.55 95.17 347.69 99.69 336.54 74.46 366.55 95.17"/><polygon class="cls-3" points="235.78 32.91 272.29 40.74 262.73 26.14 235.78 32.91"/><polygon class="cls-2" points="255.69 31.58 262.73 26.14 265.25 47.51 255.69 31.58"/><polygon class="cls-3" points="226.36 57.2 211.01 66.48 221.72 66.4 226.36 57.2"/><polygon class="cls-4" points="272.29 40.74 228.08 46.05 234.32 55.35 272.29 40.74"/><polygon class="cls-2" points="303.09 42.34 272.29 40.74 313.71 56.14 303.09 42.34"/><polygon class="cls-3" points="250.78 125.98 230.86 103.14 237.77 87.74 250.78 125.98"/><polygon class="cls-6" points="234.4 75.22 238.02 87.58 231.09 103.04 234.4 75.22"/><polygon class="cls-2" points="356.19 118.28 370 109.65 366.55 95.31 356.19 118.28"/><polygon class="cls-4" points="390.21 170.94 417.13 188.51 413.21 173.25 390.21 170.94"/><polygon class="cls-6" points="352.81 121.26 361.17 138.19 366.94 134.21 352.81 121.26"/><polygon class="cls-4" points="286.09 35.96 332.56 30.12 353.8 39.15 286.09 35.96"/><polygon class="cls-2" points="234.18 55.48 226.2 57.44 234.71 40.61 234.18 55.48"/><polygon class="cls-2" points="272.29 40.74 255.69 31.58 245.87 42.2 272.29 40.74"/><polygon class="cls-3" points="265.25 55.74 269.76 51.36 260.47 52.42 265.25 55.74"/><polygon class="cls-4" points="320.08 101.02 327.51 115.36 336.54 74.2 320.08 101.02"/><polygon class="cls-2" points="257.02 90.79 260.4 105.73 243.88 109.11 257.02 90.79"/></g><path class="cls-7" d="M67.35,73.85,88.54,51.42,84.82,66.19Zm20.43-21L69,72.7l15.49-6.8Z"/><path class="cls-7" d="M75.23,82.82l-7.58-9.73,35.06-8.37Zm-6.54-9.36L75.36,82,99.54,66.09Z"/><path class="cls-7" d="M68.15,74.22,65.9,62.62l0-.06L75,45.22ZM66.31,62.68l1.88,9.65,5.72-24.12Z"/><path class="cls-7" d="M95.27,82.16,87.8,51.48l14,13.91Zm-6.75-29.4,6.84,28.08,6-15.35Z"/><path class="cls-7" d="M65.55,63.4,88.89,37.14l-.54,15.1ZM88.46,38.23,67.19,62.16,88,52Z"/><path class="cls-7" d="M85.07,67.48,74.15,46.74,81.55,25ZM74.79,46.69l9.44,17.92-3-36.75Z"/><path class="cls-7" d="M87.48,52.45l15.4-13.7,9.79,8.75Zm15.4-13.17-14,12.5,23-4.52Z"/><path class="cls-7" d="M125.33,71.09,85.71,51.23l43.88,10.48ZM90.6,53,125,70.27l3.71-8.15Z"/><path class="cls-7" d="M115.52,77.58l-15-12.31,24.22-13.14ZM101.24,65.34l14.1,11.58L124,53Z"/><path class="cls-7" d="M111.77,47.82l8.38-15.28,8.79,7.12Zm8.5-14.67-7.56,13.79,15.49-7.37Z"/><path class="cls-7" d="M74.94,82.63l9.69-17,11.05,16Zm9.72-16.21-9,15.78L95,81.32Z"/><path class="cls-7" d="M88.87,38.35l-7.75-12,8-8.17ZM81.63,26.43,88.49,37l.24-17.83Z"/><path class="cls-7" d="M88.22,52.67l-16.16-20,28.36-4.56Zm-15-19.61L88.1,51.57,99.37,28.85Z"/><path class="cls-7" d="M89.19,38,60.94,30.37,71.61,14.78ZM61.58,30.14l26.59,7.2L71.62,15.46Z"/><path class="cls-7" d="M102.91,38.63l-14.57-.76,12.08-21ZM89,37.51l13.45.7-2.3-20.08Z"/><path class="cls-7" d="M120.66,35.3l-8.75-16.38,3.82-9.65Zm-8.09-16.42,6.78,12.7-3.82-20.17Z"/><path class="cls-7" d="M129.16,18.69,104.29,14l11.36-3.86.08.05Zm-23.31-4.82,21.34,4.05L115.6,10.56Z"/><path class="cls-7" d="M102.64,39,99.26,27.58l13.49-9.27ZM99.73,27.75l3,10.12,9-18.37Z"/><path class="cls-7" d="M112.62,49l-12.25-32.4L113,19.54v.16ZM101,17.19l11.25,29.74.38-27.07Z"/><path class="cls-7" d="M53.53,22l18.07-7.1h.06l18.65,3.86Zm18.1-6.68-15.39,6,31.33-2.75Z"/><path class="cls-7" d="M46.27,36.55,48,26.62l13.93,3.59Zm2-9.44-1.5,8.8L60.63,30.3Z"/><path class="cls-7" d="M47.52,27.08l7.32-5.6h.08l26.49,4.72,0,.39Zm7.42-5.18-6.22,4.76,30.56-.43Z"/><path class="cls-7" d="M99.65,28.06,88.48,18.57l12.44-1.89ZM89.4,18.83l9.94,8.44,1.12-10.12Z"/><path class="cls-7" d="M128.06,39.82,140.91,27.6l3.74,11.92Zm12.66-11.49L129.08,39.41l15-.27Z"/><path class="cls-7" d="M112.89,19.89l-.14-.37,34.43-16-8.26,9.23-.06,0Zm32.7-15.17L115.07,18.88l23.63-6.46Z"/><path class="cls-7" d="M138.35,12.81l8.06-9,5.69,8.54Zm8-8.36-7.09,7.93,12.1-.42Z"/><path class="cls-7" d="M137.5,12.84l24.91-8.63L151.8,12.35h-.06Zm22.71-7.45-20.09,7,11.54-.4Z"/><path class="cls-7" d="M161.34,5h0l-14.92-.66,0-.4L173.78.59ZM148.79,4l12.49.56,8.95-3.17Z"/><path class="cls-7" d="M128.18,18.55l-.11-.08-13-8.23,32.07-6.47Zm-12-8.11,12,7.62L145.59,4.49Z"/><path class="cls-7" d="M119.24,34.19l8.51-15.5,12.07-6.9ZM128,19,121.17,31.5,137.8,13.4Z"/><path class="cls-7" d="M140.86,28.25l-12.51-9.73,23.86-6.71Zm-11.64-9.56,11.55,9,10.48-15.19Z"/><path class="cls-7" d="M140.65,28.24,138.57,12.3l23.1,8.31Zm-1.6-15.35L141,27.7l19.52-7.08Z"/><path class="cls-7" d="M153.54,32.6l-2.41-20.48,10.36,8.43Zm-1.65-19.09,2.05,17.4,6.75-10.23Z"/><path class="cls-7" d="M154.18,32.65,138.55,12.59l7.93-8.87Zm-15.11-20,14.22,18.26-7-26.32Z"/><path class="cls-7" d="M159.61,41.64l-15.38-2.13-3.79-12.07Zm-15.08-2.49L158.12,41,141.19,28.49Z"/><path class="cls-7" d="M154.06,49.66l-9-1.7-1-9.21Zm-8.61-2L153,49.05l-8.33-9.14Z"/><path class="cls-7" d="M129.59,61.63,124,52.29l21.61,3.45Zm-4.81-8.81,5,8.32L144,55.89Z"/><path class="cls-7" d="M145,56.26l-17.19-16.7,17.67,8.11ZM129.75,40.88l14.9,14.49.41-7.45Z"/><path class="cls-7" d="M99.5,66.28l29.73-26.73L124.55,52.7l-.07,0Zm28.83-25.39L102.27,64.33l22-11.91Z"/><path class="cls-7" d="M124.37,52.77l-13-5,35.7-.19Zm-10.87-4.6,10.9,4.18L143.46,48Z"/><path class="cls-7" d="M129.9,62.73,111.71,47.07l17-7.76ZM112.44,47.18l17,14.64-1.06-21.9Z"/><path class="cls-7" d="M115.18,77.78l-3.33-31.39,13.73,24.38ZM112.75,49.2l2.92,27.53,9.12-6.14Z"/><path class="cls-7" d="M109,79.47l-6.34-40.42.39-.1,12.61,38.43Zm-5.56-38.06L109.34,79l5.84-1.83Z"/><path class="cls-7" d="M113.31,89.77l-4.4-10.69L115.68,77Zm-3.87-10.44,3.72,9,2-10.83Z"/><path class="cls-7" d="M79.3,97.23,95.92,80.61,90.28,93.48ZM94.71,82.39,80.79,96.3,90,93.16Z"/><path class="cls-7" d="M74.29,91.52,67.58,72.2,75.5,82.36ZM68.75,74.35,74.12,89.8l1-7.32Z"/><path class="cls-7" d="M79.92,97l-5-15.13L90.56,93.38ZM75.68,83l4.49,13.56,9.54-3.26Z"/><path class="cls-7" d="M92.55,102.69l-13-6,10.77-3.68Zm-12-5.9L92,102l-2-8.41Z"/><path class="cls-7" d="M91.54,102.58l12.73-8.39-2,7.81Zm12.08-7.49-10.64,7,9-.49Z"/><path class="cls-7" d="M105.56,114l-3.79-12.54,6.12,2.63Zm-3.16-11.84,3.11,10.3,1.92-8.14Z"/><path class="cls-7" d="M106.77,114.5l-14.69-12-2.35-10ZM92.44,102.23,104.3,112,90.54,94.16Z"/><path class="cls-7" d="M114.06,115.71l-8.68-2.32,0-.1L101.61,101Zm-8.37-2.64,7.25,1.93-10.39-12.32Z"/><path class="cls-7" d="M95,81.75l6-16.24,8.52,13.85Zm6.06-15.33L95.62,81.25l13.23-2.19Z"/><path class="cls-7" d="M187.41,10.88,170.92.69l22.78.47ZM173.09,1.33l14.14,8.73,5.39-8.33Z"/><path class="cls-7" d="M174,10.55,161.58,4.88,172.16.74ZM162.6,4.91l10.91,5-1.65-8.59Z"/><path class="cls-7" d="M170.25,21.84,173.62,10h.15l14.49-.56Zm3.68-11.44-3,10.48,16-11Z"/><path class="cls-7" d="M177.22,31l-7.08-9.91,13,2.55ZM171,21.65l6.2,8.67,5.2-6.44Z"/><path class="cls-7" d="M182.46,24.14l5.07-14.93,5.91,9.58Zm5.18-14-4.49,13.22,9.72-4.74Z"/><path class="cls-7" d="M208.35,11.81,192.52,1.26,215.3.71ZM193.79,1.63l14.44,9.62,6.34-10.13Z"/><path class="cls-7" d="M193.05,19.1l-6-9.75,22.08,1.15ZM188.14,10l5.13,8.31L206.94,11Z"/><path class="cls-7" d="M182.42,24.27l5-14.75.09,0L216.09.33Zm5.32-14.44-4.55,13.4L213.77,1.49Z"/><path class="cls-7" d="M74.41,47.53,71.94,33.1l9.62-6.85Zm-2-14.25L74.53,45.9l6.26-18.61Z"/><path class="cls-7" d="M47.67,36a1.35,1.35,0,1,1-1.35-1.35A1.34,1.34,0,0,1,47.67,36Z"/><path class="cls-7" d="M49.53,27.2a1.35,1.35,0,1,1-1.35-1.35A1.34,1.34,0,0,1,49.53,27.2Z"/><path class="cls-7" d="M62.54,30.65a1.35,1.35,0,1,1-1.35-1.35A1.34,1.34,0,0,1,62.54,30.65Z"/><circle class="cls-7" cx="72.35" cy="33.04" r="1.35"/><path class="cls-8" d="M75.82,46.58a1.35,1.35,0,1,1-1.35-1.35A1.34,1.34,0,0,1,75.82,46.58Z"/><path class="cls-7" d="M90.16,37.82a1.35,1.35,0,1,1-1.35-1.35A1.35,1.35,0,0,1,90.16,37.82Z"/><path class="cls-7" d="M121.49,33.31A1.35,1.35,0,1,1,120.14,32,1.35,1.35,0,0,1,121.49,33.31Z"/><circle class="cls-7" cx="128.77" cy="39.68" r="1.35"/><path class="cls-7" d="M142.33,28.26A1.35,1.35,0,1,1,141,26.91,1.34,1.34,0,0,1,142.33,28.26Z"/><path class="cls-7" d="M101.24,28.06a1.35,1.35,0,1,1-1.35-1.35A1.34,1.34,0,0,1,101.24,28.06Z"/><path class="cls-7" d="M113.39,47.58A1.35,1.35,0,1,1,112,46.23,1.35,1.35,0,0,1,113.39,47.58Z"/><path class="cls-7" d="M89.69,52.16a1.35,1.35,0,1,1-1.35-1.35A1.35,1.35,0,0,1,89.69,52.16Z"/><path class="cls-7" d="M86.11,66.1a1.35,1.35,0,1,1-1.35-1.35A1.35,1.35,0,0,1,86.11,66.1Z"/><circle class="cls-7" cx="101.09" cy="65.5" r="1.35"/><path class="cls-7" d="M146.05,55.94a1.35,1.35,0,1,1-1.35-1.35A1.34,1.34,0,0,1,146.05,55.94Z"/><path class="cls-7" d="M146.65,48a1.35,1.35,0,1,1-1.35-1.35A1.36,1.36,0,0,1,146.65,48Z"/><path class="cls-7" d="M154.41,49.77a1.35,1.35,0,1,1-1.34-1.35A1.34,1.34,0,0,1,154.41,49.77Z"/><path class="cls-7" d="M160.25,41.57a1.35,1.35,0,1,1-1.35-1.35A1.36,1.36,0,0,1,160.25,41.57Z"/><path class="cls-7" d="M154.91,31.34A1.35,1.35,0,1,1,153.56,30,1.36,1.36,0,0,1,154.91,31.34Z"/><path class="cls-7" d="M145.85,39.61a1.35,1.35,0,1,1-1.35-1.35A1.34,1.34,0,0,1,145.85,39.61Z"/><path class="cls-7" d="M104.23,38.82a1.35,1.35,0,1,1-1.35-1.35A1.35,1.35,0,0,1,104.23,38.82Z"/><path class="cls-7" d="M125.74,52.56a1.35,1.35,0,1,1-1.35-1.35A1.36,1.36,0,0,1,125.74,52.56Z"/><circle class="cls-7" cx="81.37" cy="26.67" r="1.35"/><path class="cls-7" d="M56.44,22.16a1.35,1.35,0,1,1-1.35-1.35A1.35,1.35,0,0,1,56.44,22.16Z"/><path class="cls-7" d="M72.9,15.52a1.35,1.35,0,1,1-1.35-1.35A1.36,1.36,0,0,1,72.9,15.52Z"/><path class="cls-7" d="M90.42,19a1.35,1.35,0,1,1-1.35-1.35A1.35,1.35,0,0,1,90.42,19Z"/><path class="cls-7" d="M102.11,17.11a1.35,1.35,0,1,1-1.35-1.35A1.35,1.35,0,0,1,102.11,17.11Z"/><path class="cls-8" d="M114.05,19.5a1.35,1.35,0,1,1-1.34-1.35A1.34,1.34,0,0,1,114.05,19.5Z"/><path class="cls-7" d="M106.89,13.92a1.35,1.35,0,1,1-1.35-1.35A1.35,1.35,0,0,1,106.89,13.92Z"/><path class="cls-7" d="M117,10.74a1.35,1.35,0,1,1-1.35-1.35A1.36,1.36,0,0,1,117,10.74Z"/><path class="cls-7" d="M129.72,18.7a1.35,1.35,0,1,1-1.35-1.35A1.34,1.34,0,0,1,129.72,18.7Z"/><path class="cls-7" d="M140.47,12.53a1.35,1.35,0,1,1-1.34-1.35A1.34,1.34,0,0,1,140.47,12.53Z"/><path class="cls-8" d="M153.09,12.56a1.35,1.35,0,1,1-1.35-1.35A1.35,1.35,0,0,1,153.09,12.56Z"/><circle class="cls-7" cx="161.23" cy="20.89" r="1.35"/><path class="cls-7" d="M147.64,4.56a1.35,1.35,0,1,1-1.35-1.34A1.34,1.34,0,0,1,147.64,4.56Z"/><path class="cls-7" d="M173.33,1.38A1.35,1.35,0,1,1,172,0,1.35,1.35,0,0,1,173.33,1.38Z"/><path class="cls-7" d="M163.18,5a1.35,1.35,0,1,1-1.35-1.35A1.35,1.35,0,0,1,163.18,5Z"/><path class="cls-7" d="M175.32,10.34A1.35,1.35,0,1,1,174,9,1.35,1.35,0,0,1,175.32,10.34Z"/><path class="cls-7" d="M171.86,21.56a1.35,1.35,0,1,1-1.35-1.35A1.36,1.36,0,0,1,171.86,21.56Z"/><path class="cls-8" d="M178.48,31.16a1.35,1.35,0,1,1-1.35-1.35A1.36,1.36,0,0,1,178.48,31.16Z"/><path class="cls-7" d="M184.44,24.07a1.35,1.35,0,1,1-1.35-1.35A1.35,1.35,0,0,1,184.44,24.07Z"/><path class="cls-7" d="M194.64,19.3A1.35,1.35,0,1,1,193.29,18,1.34,1.34,0,0,1,194.64,19.3Z"/><circle class="cls-7" cx="208.23" cy="11.14" r="1.35"/><path class="cls-7" d="M216.16,1.35A1.35,1.35,0,1,1,214.81,0,1.35,1.35,0,0,1,216.16,1.35Z"/><path class="cls-7" d="M194.44,1.58A1.35,1.35,0,1,1,193.09.23,1.35,1.35,0,0,1,194.44,1.58Z"/><path class="cls-7" d="M189.07,9.94a1.35,1.35,0,1,1-1.35-1.35A1.35,1.35,0,0,1,189.07,9.94Z"/><path class="cls-7" d="M67.59,62.78a1.35,1.35,0,1,1-1.35-1.35A1.35,1.35,0,0,1,67.59,62.78Z"/><path class="cls-7" d="M69.71,73.4a1.35,1.35,0,1,1-1.35-1.35A1.34,1.34,0,0,1,69.71,73.4Z"/><circle class="cls-7" cx="74.2" cy="90.66" r="1.35"/><circle class="cls-7" cx="75.27" cy="82.43" r="1.35"/><circle class="cls-7" cx="80.31" cy="96.77" r="1.35"/><path class="cls-7" d="M93.61,102.34A1.35,1.35,0,1,1,92.26,101,1.34,1.34,0,0,1,93.61,102.34Z"/><circle class="cls-7" cx="104.08" cy="94.98" r="1.35"/><path class="cls-7" d="M103.63,102a1.35,1.35,0,1,1-1.35-1.35A1.35,1.35,0,0,1,103.63,102Z"/><path class="cls-7" d="M109.41,104.53a1.35,1.35,0,1,1-1.35-1.34A1.35,1.35,0,0,1,109.41,104.53Z"/><path class="cls-7" d="M106.62,113.3a1.35,1.35,0,1,1-1.35-1.35A1.35,1.35,0,0,1,106.62,113.3Z"/><path class="cls-7" d="M114.78,115.69a1.35,1.35,0,1,1-1.34-1.35A1.35,1.35,0,0,1,114.78,115.69Z"/><path class="cls-7" d="M91.75,93.05A1.35,1.35,0,1,1,90.4,91.7,1.34,1.34,0,0,1,91.75,93.05Z"/><path class="cls-7" d="M96.8,81.63a1.35,1.35,0,1,1-1.35-1.35A1.35,1.35,0,0,1,96.8,81.63Z"/><circle class="cls-7" cx="108.99" cy="79.24" r="1.35"/><circle class="cls-7" cx="113.5" cy="88.54" r="1.35"/><circle class="cls-7" cx="115.36" cy="77.38" r="1.35"/><path class="cls-7" d="M126.53,70.75a1.35,1.35,0,1,1-1.34-1.35A1.35,1.35,0,0,1,126.53,70.75Z"/><circle class="cls-7" cx="129.43" cy="61.98" r="1.35"/><path class="cls-9" d="M62.54,30.65a1.35,1.35,0,1,1-1.35-1.35A1.34,1.34,0,0,1,62.54,30.65Z"/><path class="cls-9" d="M90.16,37.82a1.35,1.35,0,1,1-1.35-1.35A1.35,1.35,0,0,1,90.16,37.82Z"/><circle class="cls-9" cx="128.77" cy="39.68" r="1.35"/><path class="cls-9" d="M142.33,28.26A1.35,1.35,0,1,1,141,26.91,1.34,1.34,0,0,1,142.33,28.26Z"/><path class="cls-9" d="M89.69,52.16a1.35,1.35,0,1,1-1.35-1.35A1.35,1.35,0,0,1,89.69,52.16Z"/><circle class="cls-9" cx="101.09" cy="65.5" r="1.35"/><path class="cls-9" d="M160.25,41.57a1.35,1.35,0,1,1-1.35-1.35A1.36,1.36,0,0,1,160.25,41.57Z"/><path class="cls-9" d="M154.91,31.34A1.35,1.35,0,1,1,153.56,30,1.36,1.36,0,0,1,154.91,31.34Z"/><path class="cls-9" d="M104.23,38.82a1.35,1.35,0,1,1-1.35-1.35A1.35,1.35,0,0,1,104.23,38.82Z"/><path class="cls-9" d="M90.42,19a1.35,1.35,0,1,1-1.35-1.35A1.35,1.35,0,0,1,90.42,19Z"/><path class="cls-9" d="M117,10.74a1.35,1.35,0,1,1-1.35-1.35A1.36,1.36,0,0,1,117,10.74Z"/><path class="cls-9" d="M129.72,18.7a1.35,1.35,0,1,1-1.35-1.35A1.34,1.34,0,0,1,129.72,18.7Z"/><path class="cls-9" d="M175.32,10.34A1.35,1.35,0,1,1,174,9,1.35,1.35,0,0,1,175.32,10.34Z"/><path class="cls-9" d="M194.64,19.3A1.35,1.35,0,1,1,193.29,18,1.34,1.34,0,0,1,194.64,19.3Z"/><path class="cls-9" d="M216.16,1.35A1.35,1.35,0,1,1,214.81,0,1.35,1.35,0,0,1,216.16,1.35Z"/><path class="cls-9" d="M189.07,9.94a1.35,1.35,0,1,1-1.35-1.35A1.35,1.35,0,0,1,189.07,9.94Z"/><circle class="cls-9" cx="74.2" cy="90.66" r="1.35"/><circle class="cls-9" cx="75.27" cy="82.43" r="1.35"/><circle class="cls-9" cx="104.08" cy="94.98" r="1.35"/><path class="cls-9" d="M103.63,102a1.35,1.35,0,1,1-1.35-1.35A1.35,1.35,0,0,1,103.63,102Z"/><path class="cls-9" d="M96.8,81.63a1.35,1.35,0,1,1-1.35-1.35A1.35,1.35,0,0,1,96.8,81.63Z"/><path class="cls-9" d="M126.53,70.75a1.35,1.35,0,1,1-1.34-1.35A1.35,1.35,0,0,1,126.53,70.75Z"/><path class="cls-9" d="M103.15,39l-.29-.06L60.78,30.69,89.12,18.82l0,.08ZM61.6,30.61l41,8L89,19.12Z"/><path class="cls-9" d="M101.12,65.58,88.24,52.29,103,38.52ZM88.58,52.3,100.92,65l1.82-25.92Z"/><path class="cls-9" d="M125.86,71.09l-.43-.09-24.09-5.19,0-.06L88.46,37.22l.43.38ZM101.5,65.6,125,70.67,89.15,38.16Z"/><path class="cls-9" d="M128.79,39.58l-.54-20.81,25.66,12.57Zm-.29-20.42L129,39.25l24.26-8Z"/><path class="cls-9" d="M159.82,42l-19.41-14.1,13.26,3.35,0,.05ZM141.56,28.4l17.5,12.71-5.54-9.69Z"/><path class="cls-9" d="M129,40.15,115.47,10.26l.36.25,25.34,17.6-.1.11Zm-13-29.2,13,28.79L140.8,28.15Z"/><path class="cls-9" d="M101.52,39.51l26.71-21,13.43,9.79Zm26.73-20.3-24,18.92L140.31,28Z"/><path class="cls-9" d="M193.26,19.55l-6-10.08.15,0L215.32,1Zm-5.63-9.94,5.69,9.58,21-17.6Z"/><path class="cls-9" d="M102.12,102.25,73.42,90.64,104,94.89ZM75.3,91.14,102,101.92l1.73-6.83Z"/><path class="cls-9" d="M74.06,90.85l1.1-8.54h.1l20.83-.82Zm1.31-8.31-1,7.93L94.8,81.78Z"/><path class="cls-9" d="M73.82,91.24,88.3,51.94l.13.14,12.88,13.33ZM88.39,52.38l-14,38,26.58-25Z"/><path class="cls-7" d="M114.66,124.32l1.72-8.59.05,0,7.38-6.53.1,0,11.34,3.18Zm2.08-8.38-1.52,7.6,19-11-10.33-2.9Z"/><path class="cls-7" d="M127.22,120.06,116.31,116,124,109Zm-10.16-4.25,9.55,3.6-2.85-9.67Z"/><path class="cls-7" d="M123.15,131.37l-8.57-7.73,12.65-4.22Zm-7.8-7.57,7.62,6.87,3.62-10.62Z"/><path class="cls-7" d="M143.21,120.48l-16.79-.56,8.33-7.76Zm-15.81-.93,14.81.5-7.47-7.34Z"/><path class="cls-7" d="M143.66,130.17l-1.17-10.1h5.71Zm-.73-9.7,1,8.22,3.69-8.22Z"/><path class="cls-7" d="M118.23,154.18,123,130.57l8.75,10.56Zm4.94-22.71L118.87,153l12.28-11.9Z"/><path class="cls-7" d="M119,155.22l-9.58-18.74,5.66-13.95Zm-8.93-18.77L118.05,152,114.8,124.9Z"/><path class="cls-7" d="M151.07,148l-28.83-17.54,21.67-1.2.05.14Zm-27.53-17.21L150.28,147l-6.64-17.38Z"/><path class="cls-7" d="M138.72,154.27l-.1-.17L131,140.76l20.18,6.68Zm-6.86-12.81,7,12.27,11.31-6.2Z"/><path class="cls-7" d="M126.22,159.93,118,153.38l21.71.44Zm-7.09-6.13,7.15,5.67,11.63-5.29Z"/><path class="cls-7" d="M150.63,149l-3-29.64,6.07,10.12v.07Zm-2.45-27.9,2.54,24.79,2.54-16.33Z"/><path class="cls-7" d="M163.3,152.88,152.81,128.8l9.31,5.77Zm-9.18-22.56,8.36,19.2-.94-14.61Z"/><path class="cls-7" d="M162.42,151.69l7.65-14.9,4.24,8.39Zm7.65-14-6.71,13,10.42-5.7Z"/><path class="cls-7" d="M168.86,157l-7.34-22.57,8.76,2.64Zm-6.73-22L168.6,155l1.26-17.58Z"/><path class="cls-7" d="M151.66,163l23-18.65-5.74,11.77-.07,0Zm21.81-17.2-19.53,15.86,14.65-5.86Z"/><path class="cls-7" d="M156,174.07l13.17-19.56-3.1,12.19Zm12.21-17.43-10.61,15.77,8.12-5.95Z"/><path class="cls-7" d="M152.66,162.8l-2.23-15.6,12.82,3.9Zm-1.74-15,2,14.14,9.59-10.6Z"/><path class="cls-7" d="M140.29,183.09l12.55-21.2L157,173.33l-.15.08Zm12.47-20.27L141.41,182l15.13-8.82Z"/><path class="cls-7" d="M148.56,193.5l-8.28-11.42,12.56,5.14ZM141.42,183l7.13,9.83,3.68-5.41Z"/><path class="cls-7" d="M152.62,187.71l-16-18.22L157,173.08Zm-15-17.63,14.79,16.83,4.08-13.51Z"/><path class="cls-7" d="M136.9,170.12l1.73-16.45,14.59,8.7ZM139,154.33l-1.59,15.13,15-7.13Z"/><path class="cls-7" d="M128.22,180.35,126,159.19l11.42,10.58ZM126.5,160.2l2,19.2,8.34-9.6Z"/><path class="cls-7" d="M128.07,193.8V179.51l13.44,2.86Zm.6-13.55v12.26l11.53-9.81Z"/><path class="cls-7" d="M134.13,213.48,128,192.59,141.93,204Zm-5.39-19.76,5.56,18.93,7.07-8.58Z"/><path class="cls-7" d="M141.47,204.69l-.84-22.8,8.16,11.26-.07.11Zm-.4-21.51.75,20.21,6.49-10.23Z"/><path class="cls-7" d="M148.24,222l-14.81-9.19,8.59.6,0,.07ZM135,213.32l11.74,7.28-4.93-6.81Z"/><path class="cls-7" d="M142.26,215.26,128.09,180l.54-.26L141.94,204Zm-11.77-30.9,11.08,27.58-.22-7.82Z"/><path class="cls-7" d="M121.65,96.77,108.87,93l4.78-4.72Zm-12-4L120.35,96l-6.71-7.12Z"/><path class="cls-7" d="M129,99.2l-8.33-2.75L112,87.28Zm-8.08-3.06L126.57,98,115,89.88Z"/><circle class="cls-7" cx="127.97" cy="98.76" r="1.35"/><path class="cls-7" d="M122.42,96.5a1.35,1.35,0,1,1-1.35-1.35A1.35,1.35,0,0,1,122.42,96.5Z"/><path class="cls-8" d="M110.6,92.92a1.35,1.35,0,1,1-1.35-1.35A1.35,1.35,0,0,1,110.6,92.92Z"/><circle class="cls-7" cx="123.86" cy="109.38" r="1.35"/><path class="cls-7" d="M118,115.89a1.35,1.35,0,1,1-1.35-1.35A1.36,1.36,0,0,1,118,115.89Z"/><circle class="cls-8" cx="114.96" cy="123.72" r="1.35"/><path class="cls-7" d="M111.13,136.46a1.35,1.35,0,1,1-1.35-1.35A1.34,1.34,0,0,1,111.13,136.46Z"/><circle class="cls-7" cx="123.06" cy="131.02" r="1.35"/><circle class="cls-7" cx="126.91" cy="119.74" r="1.35"/><path class="cls-7" d="M136.09,112.43a1.35,1.35,0,1,1-1.35-1.35A1.34,1.34,0,0,1,136.09,112.43Z"/><path class="cls-7" d="M144.06,120.27a1.35,1.35,0,1,1-1.35-1.35A1.36,1.36,0,0,1,144.06,120.27Z"/><path class="cls-7" d="M149.24,120.27a1.35,1.35,0,1,1-1.35-1.35A1.36,1.36,0,0,1,149.24,120.27Z"/><path class="cls-7" d="M154.81,129.56a1.35,1.35,0,1,1-1.35-1.35A1.34,1.34,0,0,1,154.81,129.56Z"/><path class="cls-7" d="M145.12,129.43a1.35,1.35,0,1,1-1.35-1.35A1.35,1.35,0,0,1,145.12,129.43Z"/><path class="cls-7" d="M132.77,141.11a1.35,1.35,0,1,1-1.34-1.35A1.34,1.34,0,0,1,132.77,141.11Z"/><circle class="cls-7" cx="118.55" cy="153.59" r="1.35"/><circle class="cls-8" cx="126.25" cy="159.7" r="1.35"/><circle class="cls-7" cx="138.99" cy="154.39" r="1.35"/><circle class="cls-7" cx="150.68" cy="147.48" r="1.35"/><path class="cls-7" d="M163.18,134.74a1.35,1.35,0,1,1-1.35-1.35A1.36,1.36,0,0,1,163.18,134.74Z"/><path class="cls-7" d="M171.41,137.66a1.35,1.35,0,1,1-1.35-1.35A1.36,1.36,0,0,1,171.41,137.66Z"/><path class="cls-7" d="M175.39,145.09a1.35,1.35,0,1,1-1.35-1.35A1.34,1.34,0,0,1,175.39,145.09Z"/><path class="cls-7" d="M164.24,151.2a1.35,1.35,0,1,1-1.35-1.35A1.35,1.35,0,0,1,164.24,151.2Z"/><path class="cls-7" d="M170.08,156a1.35,1.35,0,1,1-1.35-1.35A1.34,1.34,0,0,1,170.08,156Z"/><path class="cls-7" d="M167.43,166.6a1.35,1.35,0,1,1-1.35-1.35A1.35,1.35,0,0,1,167.43,166.6Z"/><path class="cls-7" d="M154.15,162.35A1.35,1.35,0,1,1,152.8,161,1.35,1.35,0,0,1,154.15,162.35Z"/><circle class="cls-7" cx="156.78" cy="173.24" r="1.35"/><circle class="cls-7" cx="137.13" cy="169.79" r="1.35"/><path class="cls-7" d="M129.72,179.88a1.35,1.35,0,1,1-1.35-1.35A1.35,1.35,0,0,1,129.72,179.88Z"/><path class="cls-7" d="M142.2,182.53a1.35,1.35,0,1,1-1.35-1.35A1.34,1.34,0,0,1,142.2,182.53Z"/><circle class="cls-8" cx="152.53" cy="187.31" r="1.35"/><path class="cls-7" d="M149.9,193.15a1.35,1.35,0,1,1-1.35-1.35A1.34,1.34,0,0,1,149.9,193.15Z"/><path class="cls-7" d="M129.72,193.15a1.35,1.35,0,1,1-1.35-1.35A1.34,1.34,0,0,1,129.72,193.15Z"/><path class="cls-7" d="M143,204a1.35,1.35,0,1,1-1.35-1.35A1.35,1.35,0,0,1,143,204Z"/><circle class="cls-7" cx="134.21" cy="213.07" r="1.35"/><path class="cls-7" d="M143.26,213.6a1.35,1.35,0,1,1-1.35-1.35A1.35,1.35,0,0,1,143.26,213.6Z"/><circle class="cls-7" cx="147.49" cy="221.3" r="1.35"/><path class="cls-9" d="M131.12,141.73,126.45,119l17.79,10.22Zm-3.81-21.53,4.18,20.36,11.76-11.2Z"/><path class="cls-9" d="M118.47,153.74l0-.18,8.31-33.84.15.17,23.82,27.55-.2,0Zm8.47-33.52-8.15,33.21,31.55-6.14Z"/><path class="cls-9" d="M152.63,162.67l-2.2-15.41h.12l24-2.56Zm-1.93-15.2,2.11,14.74L173.75,145Z"/><path class="cls-9" d="M140.76,182.75l-3.6-13.27,0,0,13.73-22.9Zm-3.34-13.24,3.34,12.34,9.45-33.66Z"/><path class="cls-9" d="M148.6,193.48l-11.47-24,.11-.05,15.63-7.15,0,.22Zm-11.15-23.92,11,23.09,4.1-30Z"/><path class="cls-9" d="M148.64,193.41l-8-11.09v-.06L151,146.41Zm-7.75-11.13,7.54,10.44,2.2-44.26Z"/><path class="cls-9" d="M153.12,162.67l-34.73-9,.15-.15L131.31,141Zm-34.26-9.15,33.46,8.69-21-20.9Z"/><path class="cls-9" d="M150.72,147.56l0-.08-7.05-18.07.28.14,30.63,15.38-.4,0Zm-6.63-17.65,6.79,17.4,22.84-2.53Z"/><circle class="cls-9" cx="126.91" cy="119.74" r="1.35"/><path class="cls-8" d="M145.12,129.43a1.35,1.35,0,1,1-1.35-1.35A1.35,1.35,0,0,1,145.12,129.43Z"/><path class="cls-9" d="M132.77,141.11a1.35,1.35,0,1,1-1.34-1.35A1.34,1.34,0,0,1,132.77,141.11Z"/><circle class="cls-9" cx="118.55" cy="153.59" r="1.35"/><circle class="cls-9" cx="150.68" cy="147.48" r="1.35"/><path class="cls-9" d="M175.39,145.09a1.35,1.35,0,1,1-1.35-1.35A1.34,1.34,0,0,1,175.39,145.09Z"/><path class="cls-9" d="M154.15,162.35A1.35,1.35,0,1,1,152.8,161,1.35,1.35,0,0,1,154.15,162.35Z"/><circle class="cls-9" cx="137.13" cy="169.79" r="1.35"/><path class="cls-9" d="M142.2,182.53a1.35,1.35,0,1,1-1.35-1.35A1.34,1.34,0,0,1,142.2,182.53Z"/><path class="cls-9" d="M149.9,193.15a1.35,1.35,0,1,1-1.35-1.35A1.34,1.34,0,0,1,149.9,193.15Z"/><circle class="cls-9" cx="134.21" cy="213.07" r="1.35"/><path class="cls-10" d="M129.38,62.13l-5.21-9.73,21,3.5Zm-4.77-9.41,4.88,9.11L144.26,56Z"/><path class="cls-10" d="M100.49,65.7l24-13.31,5.18,9.69-.17,0Zm23.85-13L101.68,65.31l27.57-3.42Z"/><path class="cls-10" d="M90.45,93.25l-.13-.11L68.11,73.34l.22,0,33-8-.08.22ZM68.61,73.46,90.35,92.85l10.54-27.18Z"/><path class="cls-10" d="M101,65.65l1.65-26.31.15.06L145.11,56l-.38.08Zm1.86-26-1.6,25.67,43.07-9.44Z"/><path class="cls-10" d="M102.21,102l-11.9-8.91L66.15,62.86l.18-.16,36,39.16ZM90.49,93l10.83,8.11L68.45,65.36Z"/><path class="cls-10" d="M113.49,88.77l-.09-.18L100.86,65.33l.25.06,24.33,5.38-.1.15ZM101.32,65.68,113.51,88.3l11.54-17.37Z"/><path class="cls-10" d="M129.57,62.8,120,33.29l8.47-15v.43Zm-9.3-29.48,9,27.85-1-42Z"/><path class="cls-10" d="M124.57,52.8l-.24-.14L80.77,26.44l39.47,6.76,0,.08ZM82,26.89l42.23,25.42L120,33.41Z"/><path class="cls-10" d="M120.2,33.44,80.66,26.67l.69-.12,47.25-8ZM82.09,26.67l38,6.51,8.06-14.32Z"/><path class="cls-10" d="M102.67,39.63,55.05,22.27l.06-.23,26.33,4.53,21.34,12.84ZM56.38,22.5,101.59,39,81.33,26.78Z"/><path class="cls-10" d="M129.07,62.26l.27-.35,24.58-31.23L144.8,56l-.05,0ZM153.2,32,129.8,61.71l14.81-5.86Z"/><path class="cls-10" d="M125.37,71l-.14,0L65.46,62.8l.76-.14L124.5,52.42ZM67,62.77l58.11,7.94-.84-18Z"/><path class="cls-10" d="M101.29,65.64l-.21,0-35-2.73.07-.16L81.36,26.39l.12.23Zm-34.88-3,34.48,2.7L81.38,27Z"/><path class="cls-10" d="M125.26,71.08l-.12-.16L102.06,38.81,129.58,62l0,.09ZM103.37,40.22l21.85,30.4,4.07-8.6Z"/><path class="cls-10" d="M129.65,62.18l-14-4.78,7.79-9.85ZM116,57.28l13.2,4.5L123.36,48Z"/><path class="cls-10" d="M170.05,21.73l17.7-12,5.74,9.63-.19,0Zm17.63-11.62L171,21.39l22.12-2.19Z"/><path class="cls-10" d="M124.24,52.82l0-.28,4-34,.16.08,25.36,12.72Zm4.23-33.93L124.54,52.3l28.79-20.95Z"/><path class="cls-10" d="M118.39,153.74l0-.18,8.42-34.08.15.18,23.9,27.9-.2,0ZM127,120l-8.26,33.45,31.74-6Z"/><path class="cls-10" d="M156.71,173.44l0-.17L150.44,147l15.81,19.62-.1.08ZM150.91,148l6,25.07,9-6.46Z"/><path class="cls-10" d="M148.67,193.7l-.18-.11-20.13-13.33.07-.1,22.38-33.1Zm-20-13.51,19.76,13.08,2.09-45.37Z"/><path class="cls-10" d="M167.08,167l-17.22-5.22-14.26-12.5ZM150,161.61l15.07,4.56-27.59-15.52Z"/><path class="cls-10" d="M157.32,173.91l-15.26-14.36,7.95,2.07,0,0ZM142.9,160l13.35,12.55-6.39-10.75Z"/><path class="cls-10" d="M156.87,173.52l-.18-.2-20.53-23.59,22.75,7.63v.09Zm-20-23.29L156.7,173l2-15.44Z"/><path class="cls-10" d="M148.61,193.67l-.12-.08-20.81-13.9.27-.06,29-6.56ZM128.27,179.8l20.23,13.51,8.09-19.9Z"/><path class="cls-10" d="M157.11,173.54,118,153.44l27.71,1.49,0,.06Zm-38-19.8,37.36,19.2-10.9-17.77Z"/><path class="cls-10" d="M134.31,213.4l-.21-.12L162.79,151l.22.09L149.18,193Zm27.81-60.34-27.29,59.22L149,192.83Z"/><path class="cls-10" d="M153.53,159.65l-3-12.34.2.06L163.13,151Zm-2.69-12,2.82,11.55,9-8.07Z"/><path class="cls-10" d="M163,151.11h-.34l-26.17-1,0-.08-9.76-30.66Zm-26.33-1.25,25.66,1-35.14-30.74Z"/><path class="cls-10" d="M134.33,213.37l-.23-.06,8.28-53.67,7.71,2,0,.12Zm8.25-53.43-8,51.76,15.2-49.9Z"/><path class="cls-7" d="M210.37,44.33l9-11.63-.29,8.72ZM219,33.92l-7.47,9.62,7.23-2.41Z"/><path class="cls-7" d="M225,43.31l-6.3-1.89.19-9Zm-5.89-2.18,5.06,1.51-4.91-8.76Z"/><path class="cls-7" d="M218.21,46.25l.53-5.24,6.67,2.09Zm.88-4.71-.41,4.07,5.59-2.45Z"/><path class="cls-7" d="M226.67,57.93,217.84,50,228,45.61Zm-8.1-7.78,7.79,7,1.2-10.87Z"/><path class="cls-7" d="M221.8,67.61,211,57.48l10.05.17ZM212,57.89l9.32,8.73L220.66,58Z"/><path class="cls-7" d="M210.78,67l.52-9.46,10.15-.09Zm.9-9.07L211.23,66l9.17-8.2Z"/><path class="cls-7" d="M210.29,66.68l16.56-10-5,9.92Zm15.58-9-14.14,8.54,9.87-.07Z"/><path class="cls-7" d="M226.18,59l-2-16.6L228,45.86ZM224.7,43.4l1.51,12.5L227.59,46Z"/><path class="cls-7" d="M240.17,54.81l-12.71-8.87,7.35-5.65Zm-12-8.89,11.22,7.84-4.73-12.83Z"/><path class="cls-7" d="M240.81,63,234,55l6-1.32Zm-6.13-7.79,5.62,6.58-.72-7.65Z"/><path class="cls-7" d="M238.79,68.62l1.34-7,6,.59Zm1.66-6.55-1,5.49,5.72-5Z"/><path class="cls-7" d="M225.82,57.74l9.13-18-.57,15.93Zm8.66-16.23-7.91,15.64L234,55.32Z"/><path class="cls-7" d="M236.07,33.46l-8.32-3.59,9.47-5Zm-7.4-3.62,7.08,3.05,1-7.32Z"/><path class="cls-7" d="M236.46,25.47l8.09-8.79,5.95,7.09Zm8.07-8.19L237.48,25l12.25-1.49Z"/><path class="cls-7" d="M241.94,37.53l-6.38-4.35,6.67-4.78Zm-5.68-4.36,5.3,3.62.24-7.6Z"/><path class="cls-7" d="M241.57,29.45l2.8-13.11,6.33,7.07Zm3.14-11.84-2.25,10.53,7.33-4.85Z"/><path class="cls-7" d="M263.3,26.41l-13.57-3,10.18-6.5Zm-12.54-3.15,11.92,2.61-3-8.32Z"/><path class="cls-7" d="M250.21,23.61l-6.12-6.84,16.8.29ZM245,17.18l5.29,5.91,9.24-5.66Z"/><path class="cls-7" d="M256.26,32.15l-8.94-2,2.88-7.21Zm-8.4-2.3,7.53,1.69-5.1-7.76Z"/><path class="cls-7" d="M266.09,34.65l-10.7-2.71,7.7-6.13Zm-9.83-2.9,9.21,2.34-2.57-7.62Z"/><path class="cls-7" d="M234.15,41.14,242.25,28l-.44,9Zm7.63-11.58-6.51,10.52,6.15-3.31Z"/><path class="cls-7" d="M257.84,44.75l-12.67-2,3.7-7.27Zm-12.07-2.3,11,1.72-7.76-8Z"/><path class="cls-7" d="M257.15,44.93l-2-13.62,10.95,2.95Zm-1.48-13.08L257.42,44l8-9.51Z"/><path class="cls-7" d="M248.72,52.75V35.45l7.06-4.32Zm.4-17.07V50.25L255.07,32Z"/><path class="cls-7" d="M248.74,51.76,234,40.31,246,42ZM235.43,40.91,248,50.7l-2.32-8.32Z"/><path class="cls-7" d="M249.28,61.76l-9.94-7.95L248.57,51l0,.25ZM240.18,54l8.64,6.91-.61-9.39Z"/><path class="cls-7" d="M250.27,68.91l-1.18-7.37,6.19-.59Zm-.72-7,.94,5.9,4-6.38Z"/><path class="cls-7" d="M254.9,61.56,248,51l12.82,1.27Zm-6.12-10.09,6.11,9.35,5.24-8.23Z"/><path class="cls-7" d="M259.93,52.69l12.71-12.85-2.71,11.71Zm12-11.57L261,52.16l8.59-1Z"/><path class="cls-7" d="M260.5,53l-3.45-8.61,9.19-10.9Zm-3-8.53,2.93,7.32,4.88-16.6Z"/><path class="cls-7" d="M265.27,56l-5.35-3.71,10.4-1.19ZM261,52.56l4.21,2.93,4-3.86Z"/><path class="cls-7" d="M257.7,69.86l-3.23-9,11.46-.14Zm-2.38-8.38,2.61,7.24,6.64-7.36Z"/><path class="cls-7" d="M268.49,69l-3-8.39,11.24-.29Zm-2.43-8,2.59,7.27,7.14-7.52Z"/><path class="cls-7" d="M276.27,60.87l-7-9.9,11.05,3.87Zm-6-9.11,6,8.41,3.42-5.12Z"/><path class="cls-7" d="M257.29,69.53,265.72,61l3.14,7.56Zm8.29-7.86L258.33,69l9.95-.86Z"/><path class="cls-7" d="M267.55,77.5,268.4,68l9.8,7.39Zm1.18-8.77L268,77l9.27-1.85Z"/><path class="cls-7" d="M289.57,51,271.81,40.42l14.43-4.72ZM272.76,40.53,289,50.16l-3-13.94Z"/><path class="cls-7" d="M286.45,36.19l-21-1.65,11.41-15.67Zm-20.3-2,19.59,1.54-9-16.14Z"/><path class="cls-7" d="M285.56,36.46l7.29-17.11L310,28.05Zm7.59-16.28-6.52,15.28,21.8-7.52Z"/><path class="cls-7" d="M305.35,71.29,285.44,35.41l17.66,6.45,0,.19ZM286.74,36.52l17.8,32.09-2-26.33Z"/><path class="cls-7" d="M276.84,19.43l-.12-.38,15.45-6.66h.05l10.46,1.19Zm15.39-6.63-13.38,5.77,21.45-4.85Z"/><path class="cls-7" d="M311.05,29.27,292.72,20l-.9-8.11Zm-17.77-9.7,14.06,7.15L292.58,13.35Z"/><path class="cls-7" d="M309.32,28.65l-8.1-15.08,10.34-5,0,.36Zm-7.55-14.9,7.3,13.59,2-18.12Z"/><path class="cls-7" d="M355.45,39.53l-69.37-3.27,0-.59,46.54-5.86.08,0Zm-65.88-3.7,62.58,2.94-19.63-8.34Z"/><path class="cls-7" d="M272.29,40.75l-6.85-6.42L294.09,19Zm-6.17-6.34,6.16,5.79L291.9,20.58Z"/><path class="cls-7" d="M288.51,59.93l.58-9.48.08-.05,14.57-9.14Zm1-9.25-.49,8L301.9,42.88Z"/><path class="cls-7" d="M280.19,54.68l5.94-19.52,3.11,14.72Zm5.87-17.92-5.21,17.12,7.94-4.22Z"/><path class="cls-7" d="M284.05,66.75,276,60.57l4.6-6.76Zm-7.51-6.27,6.82,5.24-2.92-11Z"/><path class="cls-7" d="M271.27,87.81l-5.41-5.42,12.39-7.69Zm-4.77-5.34,4.67,4.67,6-11.32Z"/><path class="cls-7" d="M277.59,75.84,276,60.09l7.94,6.1ZM276.51,61l1.36,13.72,5.57-8.4Z"/><path class="cls-7" d="M293.4,70.69l0-.13-5.61-12,17.83,11.6Zm-4.71-11.08,5,10.67,10.67-.5Z"/><path class="cls-7" d="M295.9,85.24l-10.88-5L283.25,65Zm-10.33-5.4,8.77,4L284.15,67.52Z"/><path class="cls-7" d="M295.51,85.73l-12.5-20,11.33,3.77Zm-11.11-19,10.34,16.59-1-13.47Z"/><path class="cls-7" d="M304.12,70.9l9.45-15.18.05,0,20-9.43ZM313.85,56l-8.08,13L331,48Z"/><path class="cls-7" d="M279.7,100.81l-.15-.22-8.72-13.35,19.39,1.66Zm-8.09-13.1,8.13,12.45,9.66-10.93Z"/><path class="cls-7" d="M290.68,90.37l-14-16,8.77,5.54,0,0Zm-11.9-14.21,10.16,11.61-3.8-7.59Z"/><path class="cls-7" d="M293.21,104.58,289.54,88.8l9.31,2.25-.09.22Zm-3.13-15.24,3.24,14,5-12Z"/><path class="cls-7" d="M281.16,109l-1.69-8.77,14.43,3.67ZM280,100.76l1.48,7.68L292.62,104Z"/><path class="cls-7" d="M265.69,35l-3.06-9,14.72-7.54Zm-2.33-8.73,2.52,7.43,9.59-13.63Z"/><path class="cls-7" d="M324.23,19.74l-13.8-11.5,19.41.14ZM312.1,8.85,324,18.8,328.88,9Z"/><path class="cls-7" d="M332.45,30.71,329.11,8.37l13.27,5.17-.11.2ZM329.61,9l3.06,20.54,9.14-15.79Z"/><path class="cls-7" d="M354.14,39.93l-.36-.26L323.85,18.59,351.52,16l0,.19ZM325,18.88l28.69,20.21L351.17,16.4Z"/><path class="cls-7" d="M313.35,56.76l-4.72-28.88,16.11-9.58Zm-4.28-28.68L313.46,55l10.61-35.81Z"/><path class="cls-7" d="M343.8,57.38l-12-10.54v-.1l.55-17.57ZM332.24,46.66,342.8,56,332.73,31.07Z"/><path class="cls-7" d="M310.81,87.19l-16-2.49L305,69.5Zm-15.35-2.78,14.77,2.29-5.35-16.3Z"/><path class="cls-7" d="M318.26,73.08,304.21,70l40.59-14Zm-12.58-3.17,12.5,2.75L341.81,57.4Z"/><path class="cls-7" d="M336.63,74.44l-18.56-1.38,0-.14-5-17.61Zm-18.25-1.76,17,1.27L313.77,56.42Z"/><path class="cls-7" d="M319.5,91.24,310.24,87l8.14-14.87Zm-8.7-4.39,8.27,3.76-1-17Z"/><path class="cls-7" d="M351.34,16.39h0l-10.47-2.33,23.32-.86.05.4Zm-7.4-2.06,7.4,1.65,10.6-2.31Z"/><path class="cls-7" d="M353.31,40.54l10.13-28.23,2,13.35Zm10-26.6-8.81,24.54L365,25.55Z"/><path class="cls-7" d="M381.94,33,362.47,12.63l15.75,3.43ZM364.25,13.63,380.9,31l-3.19-14.44Z"/><path class="cls-7" d="M395.63,28.06l-.25-.16L376.6,15.47l21,2.8Zm-17.36-12L395.35,27.4l1.76-8.79Z"/><path class="cls-7" d="M393.5,33.52l-13-1.44,15.56-5.47Zm-11.19-1.64,10.92,1.21,2.19-5.83Z"/><path class="cls-7" d="M413.3,23.43l-.08,0-17.55-5.27,25.56,1.47ZM399,18.73,413.26,23l6.41-3.08Z"/><path class="cls-7" d="M400.47,28l12.89-5,2.93,4.69Zm12.73-4.49-10.48,4.05,12.86-.24Z"/><path class="cls-7" d="M401.93,28l-6.41-.88,1.75-9.32ZM396,26.77l5.27.72-3.83-8.4Z"/><path class="cls-7" d="M400.28,38.87l1.17-11.66,4.66,6.12Zm1.46-10.62-.95,9.59,4.79-4.55Z"/><path class="cls-7" d="M408.28,47l-6.94-19.42,12.21-4.72Zm-6.43-19.19,6.34,17.75L413,23.54Z"/><path class="cls-7" d="M408.55,46.93l-8.3-8.58.15-.14,5.57-5.3Zm-7.73-8.57,7.1,7.35-2.2-12Z"/><path class="cls-7" d="M378.57,41.13l-14-16,17.13,6.74-.05.18Zm-12.66-15,12.51,14.26,2.75-8.25Z"/><path class="cls-7" d="M389.28,60.78,377.85,40.2l13.72,4.86ZM379.14,41.29,389,58.94l2-13.48Z"/><path class="cls-7" d="M359.36,75.37l-5.82-36.8,9.77,15.67Zm-5.12-34.92L359.39,73l3.5-18.71Z"/><path class="cls-7" d="M372.59,65.13,362.53,54l26.83,5.86Zm-8.93-10.52,9.06,10.07,15.1-4.78Z"/><path class="cls-7" d="M381.64,65.65l-9.24-.56,6.16-25.47Zm-8.74-.93,8.29.5-2.76-23.35Z"/><path class="cls-7" d="M387.13,73.94l-6-8.54,7.7-6Zm-5.44-8.46,5.17,7.38,1.47-12.55Z"/><path class="cls-7" d="M379.88,91.33,372.19,64l10,12.82Zm-6.76-25.5,6.65,23.63,2-12.55Z"/><path class="cls-7" d="M366.74,95.56l-.11-.32L359.08,74l24.06,3Zm-7.07-21.12,7.22,20.35,15.46-17.52Z"/><path class="cls-7" d="M359.84,74.4H336.25l7.13-17.56Zm-23-.4h22.08L343.51,57.57Z"/><path class="cls-7" d="M367.61,95.48,343,92.17l-6.91-18.5Zm-24.28-3.67L366,94.87,337,74.72Z"/><path class="cls-7" d="M366.61,101.81l-19.31-1.13-4.54-9.09Zm-19.05-1.52,16.8,1L343.6,92.39Z"/><path class="cls-7" d="M352.91,102.89l14.19-8.11-1.45,7Zm13.62-7.32-11.83,6.76,10.62-1Z"/><path class="cls-7" d="M372.22,109.71l-14.6-1.24L353,102ZM358,107.9l10.36.88-13.67-5.51Z"/><path class="cls-7" d="M365.23,114.92l-7.9-6.73,8.48-7.32Zm-7-6.74,6.44,5.49.48-11.45Z"/><path class="cls-7" d="M356.19,119.87l-2.71-18.05,4.51,6.32Zm-2.07-16.47,2.07,13.81,1.39-9Z"/><path class="cls-7" d="M363,128.55l-7-10v-.08l1.75-11.34Zm-6.61-10.06,5.72,8.1-4.29-17.39Z"/><path class="cls-7" d="M331.54,103.46l-11.65-2.28L319,90.38Zm-11.27-2.61,10.12,2L319.53,91.47Z"/><path class="cls-7" d="M334.17,120.31l-6.88-4.87L331,102.25Zm-6.42-5,5.86,4.16L330.92,104Z"/><path class="cls-7" d="M327.59,115.94,319.85,101l.06-.1L337,73.09ZM320.31,101l7.13,13.75,8.66-39.46Z"/><path class="cls-7" d="M331,103.42,319.34,90.71l24.33,1.1ZM320.29,91.15,331,102.86l11.71-10.69Z"/><path class="cls-10" d="M131.31,62a1.88,1.88,0,1,1-1.88-1.88A1.88,1.88,0,0,1,131.31,62Z"/><path class="cls-10" d="M70.14,73.4a1.78,1.78,0,1,1-1.78-1.77A1.78,1.78,0,0,1,70.14,73.4Z"/><path class="cls-10" d="M127.92,119.74a1,1,0,1,1-1-1A1,1,0,0,1,127.92,119.74Z"/><circle class="cls-10" cx="118.55" cy="153.59" r="1.01"/><path class="cls-10" d="M167.09,166.6a1.12,1.12,0,0,1-1,1,1,1,0,1,1,0-2A1.12,1.12,0,0,1,167.09,166.6Z"/><path class="cls-10" d="M164.88,151.09a2.18,2.18,0,0,1-2,2,2,2,0,0,1,0-4A2.18,2.18,0,0,1,164.88,151.09Z"/><path class="cls-10" d="M136.27,213.33a2.27,2.27,0,0,1-2.06,2.06,2.06,2.06,0,0,1,0-4.11A2.26,2.26,0,0,1,136.27,213.33Z"/><path class="cls-10" d="M154.26,159.56a.73.73,0,0,1-.66.67.67.67,0,1,1,0-1.33A.72.72,0,0,1,154.26,159.56Z"/><path class="cls-10" d="M150.74,161.86a.74.74,0,0,1-.66.67.67.67,0,1,1,0-1.34A.73.73,0,0,1,150.74,161.86Z"/><path class="cls-10" d="M143,159.92a.74.74,0,0,1-.67.67.67.67,0,1,1,0-1.33A.74.74,0,0,1,143,159.92Z"/><path class="cls-10" d="M137.21,150.12a.74.74,0,0,1-.67.67.67.67,0,0,1,0-1.34A.74.74,0,0,1,137.21,150.12Z"/><circle class="cls-10" cx="156.78" cy="173.24" r="1.01"/><path class="cls-10" d="M149.9,193.15a1.35,1.35,0,1,1-1.35-1.35A1.34,1.34,0,0,1,149.9,193.15Z"/><circle class="cls-10" cx="124.39" cy="52.56" r="1.63"/><path class="cls-10" d="M146.05,55.94a1.35,1.35,0,1,1-1.35-1.35A1.34,1.34,0,0,1,146.05,55.94Z"/><circle class="cls-10" cx="150.68" cy="147.48" r="2.01"/><circle class="cls-10" cx="101.09" cy="65.5" r="1.35"/><path class="cls-10" d="M67.25,62.78a1,1,0,1,1-1-1A1,1,0,0,1,67.25,62.78Z"/><path class="cls-10" d="M92.19,93.05a1.79,1.79,0,1,1-1.79-1.78A1.79,1.79,0,0,1,92.19,93.05Z"/><path class="cls-10" d="M129.72,179.88a1.35,1.35,0,1,1-1.35-1.35A1.35,1.35,0,0,1,129.72,179.88Z"/><path class="cls-10" d="M154.57,31.34a1,1,0,1,1-1-1A1,1,0,0,1,154.57,31.34Z"/><path class="cls-10" d="M126.25,70.85a1,1,0,1,1-1-1A1,1,0,0,1,126.25,70.85Z"/><path class="cls-10" d="M56.1,22.16a1,1,0,0,1-2,0,1,1,0,1,1,2,0Z"/><path class="cls-10" d="M171.52,21.56a1,1,0,1,1-1-1A1,1,0,0,1,171.52,21.56Z"/><path class="cls-10" d="M194.3,19.3a1,1,0,1,1-1-1A1,1,0,0,1,194.3,19.3Z"/><path class="cls-10" d="M188.73,9.94a1,1,0,1,1-1-1A1,1,0,0,1,188.73,9.94Z"/><path class="cls-10" d="M121.15,33.31a1,1,0,1,1-1-1A1,1,0,0,1,121.15,33.31Z"/><path class="cls-10" d="M129.38,18.7a1,1,0,1,1-1-1A1,1,0,0,1,129.38,18.7Z"/><path class="cls-10" d="M82.39,26.67a1,1,0,1,1-1-1A1,1,0,0,1,82.39,26.67Z"/><path class="cls-10" d="M103.89,39a1,1,0,1,1-1-1A1,1,0,0,1,103.89,39Z"/><circle class="cls-10" cx="115.63" cy="57.34" r="0.83"/><path class="cls-10" d="M124.22,47.58a.83.83,0,1,1-.83-.83A.83.83,0,0,1,124.22,47.58Z"/><circle class="cls-10" cx="132.16" cy="58.73" r="0.83"/><path class="cls-10" d="M120,53.35a.83.83,0,1,1-.83-.83A.84.84,0,0,1,120,53.35Z"/><path class="cls-10" d="M125.58,60.32a.83.83,0,1,1-.83-.83A.84.84,0,0,1,125.58,60.32Z"/><circle class="cls-10" cx="101.49" cy="56.74" r="0.83"/><path class="cls-10" d="M119.84,61.72a.83.83,0,1,1-.83-.83A.83.83,0,0,1,119.84,61.72Z"/><path class="cls-10" d="M74.64,72.27a.83.83,0,0,1-.83.83.83.83,0,1,1,0-1.66A.83.83,0,0,1,74.64,72.27Z"/><path class="cls-10" d="M137.57,52.76a.84.84,0,1,1-.83-.83A.83.83,0,0,1,137.57,52.76Z"/><circle class="cls-10" cx="113.5" cy="88.54" r="1.01"/><circle class="cls-10" cx="102.28" cy="101.95" r="1.01"/><path class="cls-7" d="M212.35,66.7A1.35,1.35,0,1,1,211,65.35,1.35,1.35,0,0,1,212.35,66.7Z"/><circle class="cls-7" cx="211.48" cy="58" r="1.35"/><circle class="cls-7" cx="220.77" cy="58" r="1.35"/><path class="cls-8" d="M222.92,66.76a1.35,1.35,0,1,1-1.35-1.35A1.34,1.34,0,0,1,222.92,66.76Z"/><path class="cls-7" d="M227.7,57.47a1.35,1.35,0,1,1-1.35-1.35A1.34,1.34,0,0,1,227.7,57.47Z"/><path class="cls-7" d="M235.67,55.35A1.35,1.35,0,1,1,234.32,54,1.36,1.36,0,0,1,235.67,55.35Z"/><path class="cls-7" d="M241.75,62.08a1.35,1.35,0,1,1-1.35-1.35A1.35,1.35,0,0,1,241.75,62.08Z"/><path class="cls-7" d="M247,62.76a1.35,1.35,0,1,1-1.35-1.35A1.35,1.35,0,0,1,247,62.76Z"/><circle class="cls-7" cx="239.1" cy="68.09" r="1.35"/><path class="cls-7" d="M219.73,50.3A1.35,1.35,0,1,1,218.38,49,1.34,1.34,0,0,1,219.73,50.3Z"/><path class="cls-7" d="M229.29,46.05a1.35,1.35,0,1,1-1.35-1.35A1.34,1.34,0,0,1,229.29,46.05Z"/><path class="cls-7" d="M220,45.79a1.35,1.35,0,1,1-1.35-1.35A1.35,1.35,0,0,1,220,45.79Z"/><path class="cls-7" d="M220.26,41.27a1.35,1.35,0,1,1-1.34-1.35A1.34,1.34,0,0,1,220.26,41.27Z"/><path class="cls-7" d="M212.44,43.83a1.35,1.35,0,1,1-1.35-1.35A1.36,1.36,0,0,1,212.44,43.83Z"/><path class="cls-7" d="M220.53,33.31A1.35,1.35,0,1,1,219.18,32,1.35,1.35,0,0,1,220.53,33.31Z"/><path class="cls-7" d="M225.84,43.13a1.35,1.35,0,1,1-1.35-1.35A1.34,1.34,0,0,1,225.84,43.13Z"/><path class="cls-7" d="M235.93,40.74a1.35,1.35,0,1,1-1.35-1.35A1.34,1.34,0,0,1,235.93,40.74Z"/><path class="cls-7" d="M247.08,42.34A1.35,1.35,0,1,1,245.73,41,1.34,1.34,0,0,1,247.08,42.34Z"/><path class="cls-7" d="M250,51.36A1.35,1.35,0,1,1,248.65,50,1.34,1.34,0,0,1,250,51.36Z"/><path class="cls-7" d="M241.24,54.28a1.35,1.35,0,1,1-1.35-1.35A1.34,1.34,0,0,1,241.24,54.28Z"/><path class="cls-7" d="M250.8,61.72a1.35,1.35,0,1,1-1.35-1.35A1.35,1.35,0,0,1,250.8,61.72Z"/><path class="cls-7" d="M256.11,61.19a1.35,1.35,0,1,1-1.35-1.35A1.35,1.35,0,0,1,256.11,61.19Z"/><path class="cls-7" d="M259.3,69.42A1.35,1.35,0,1,1,258,68.07,1.36,1.36,0,0,1,259.3,69.42Z"/><circle class="cls-7" cx="268.6" cy="68.65" r="1.35"/><path class="cls-8" d="M251.86,68.36A1.35,1.35,0,1,1,250.51,67,1.35,1.35,0,0,1,251.86,68.36Z"/><path class="cls-7" d="M261.88,52.71a1.35,1.35,0,1,1-1.35-1.35A1.36,1.36,0,0,1,261.88,52.71Z"/><circle class="cls-8" cx="265.21" cy="55.75" r="1.35"/><path class="cls-7" d="M271.25,51.63a1.35,1.35,0,1,1-1.35-1.35A1.36,1.36,0,0,1,271.25,51.63Z"/><path class="cls-8" d="M277.35,60.66A1.35,1.35,0,1,1,276,59.31,1.35,1.35,0,0,1,277.35,60.66Z"/><path class="cls-7" d="M266.73,61.19a1.35,1.35,0,1,1-1.35-1.35A1.35,1.35,0,0,1,266.73,61.19Z"/><path class="cls-7" d="M250.27,36a1.35,1.35,0,1,1-1.35-1.35A1.35,1.35,0,0,1,250.27,36Z"/><path class="cls-7" d="M256.91,31.71a1.35,1.35,0,1,1-1.35-1.35A1.35,1.35,0,0,1,256.91,31.71Z"/><circle class="cls-7" cx="247.86" cy="29.86" r="1.35"/><circle class="cls-7" cx="249.98" cy="23.48" r="1.35"/><path class="cls-7" d="M243.37,29.06A1.35,1.35,0,1,1,242,27.71,1.36,1.36,0,0,1,243.37,29.06Z"/><path class="cls-7" d="M243.1,37a1.35,1.35,0,1,1-1.35-1.34A1.34,1.34,0,0,1,243.1,37Z"/><circle class="cls-7" cx="235.91" cy="33.04" r="1.35"/><path class="cls-7" d="M229.56,30.12a1.35,1.35,0,1,1-1.35-1.35A1.35,1.35,0,0,1,229.56,30.12Z"/><path class="cls-7" d="M238.32,25.63A1.35,1.35,0,1,1,237,24.28,1.35,1.35,0,0,1,238.32,25.63Z"/><path class="cls-7" d="M246,17.13a1.35,1.35,0,1,1-1.35-1.35A1.34,1.34,0,0,1,246,17.13Z"/><circle class="cls-7" cx="260.07" cy="17.11" r="1.35"/><path class="cls-7" d="M264.08,26.14a1.35,1.35,0,1,1-1.35-1.35A1.36,1.36,0,0,1,264.08,26.14Z"/><path class="cls-8" d="M277.86,19.14a1.35,1.35,0,1,1-1.35-1.34A1.34,1.34,0,0,1,277.86,19.14Z"/><path class="cls-8" d="M294.35,20A1.35,1.35,0,1,1,293,18.68,1.35,1.35,0,0,1,294.35,20Z"/><path class="cls-7" d="M293.38,12.78A1.35,1.35,0,1,1,292,11.43,1.34,1.34,0,0,1,293.38,12.78Z"/><path class="cls-7" d="M302.75,13.66a1.35,1.35,0,1,1-1.35-1.35A1.34,1.34,0,0,1,302.75,13.66Z"/><path class="cls-7" d="M287.71,36a1.35,1.35,0,1,1-1.35-1.35A1.35,1.35,0,0,1,287.71,36Z"/><path class="cls-7" d="M267,34.37A1.35,1.35,0,1,1,265.65,33,1.36,1.36,0,0,1,267,34.37Z"/><path class="cls-7" d="M258.77,44.19a1.35,1.35,0,1,1-1.35-1.35A1.35,1.35,0,0,1,258.77,44.19Z"/><circle class="cls-7" cx="272.29" cy="40.74" r="1.35"/><path class="cls-7" d="M281.6,55.08a1.35,1.35,0,1,1-1.35-1.35A1.34,1.34,0,0,1,281.6,55.08Z"/><path class="cls-7" d="M290.63,50.57a1.35,1.35,0,1,1-1.35-1.35A1.36,1.36,0,0,1,290.63,50.57Z"/><path class="cls-7" d="M289.83,59.59a1.35,1.35,0,1,1-1.35-1.34A1.34,1.34,0,0,1,289.83,59.59Z"/><circle class="cls-7" cx="293.79" cy="69.95" r="1.35"/><path class="cls-7" d="M285.32,66.23A1.35,1.35,0,1,1,284,64.88,1.35,1.35,0,0,1,285.32,66.23Z"/><circle class="cls-7" cx="285.44" cy="80.02" r="1.35"/><path class="cls-8" d="M296.2,84.82a1.35,1.35,0,1,1-1.34-1.35A1.35,1.35,0,0,1,296.2,84.82Z"/><path class="cls-7" d="M312.14,86.94a1.35,1.35,0,1,1-1.35-1.35A1.35,1.35,0,0,1,312.14,86.94Z"/><path class="cls-8" d="M319.84,72.87a1.35,1.35,0,1,1-1.35-1.35A1.35,1.35,0,0,1,319.84,72.87Z"/><path class="cls-7" d="M306,70a1.35,1.35,0,1,1-1.35-1.35A1.34,1.34,0,0,1,306,70Z"/><path class="cls-7" d="M315.06,56.14a1.35,1.35,0,1,1-1.35-1.35A1.35,1.35,0,0,1,315.06,56.14Z"/><path class="cls-7" d="M304.17,42.34A1.35,1.35,0,1,1,302.82,41,1.34,1.34,0,0,1,304.17,42.34Z"/><path class="cls-7" d="M310.28,28.26a1.35,1.35,0,1,1-1.35-1.35A1.35,1.35,0,0,1,310.28,28.26Z"/><path class="cls-7" d="M312.53,8.73a1.35,1.35,0,1,1-1.35-1.35A1.35,1.35,0,0,1,312.53,8.73Z"/><path class="cls-7" d="M330.7,8.88a1.35,1.35,0,1,1-1.35-1.35A1.35,1.35,0,0,1,330.7,8.88Z"/><path class="cls-8" d="M325.66,19a1.35,1.35,0,1,1-1.35-1.35A1.36,1.36,0,0,1,325.66,19Z"/><path class="cls-7" d="M333.89,30.12a1.35,1.35,0,1,1-1.35-1.35A1.35,1.35,0,0,1,333.89,30.12Z"/><path class="cls-7" d="M343.47,13.92a1.35,1.35,0,1,1-1.35-1.35A1.35,1.35,0,0,1,343.47,13.92Z"/><path class="cls-7" d="M352.76,16.31A1.35,1.35,0,1,1,351.41,15,1.34,1.34,0,0,1,352.76,16.31Z"/><circle class="cls-7" cx="363.89" cy="13.39" r="1.35"/><path class="cls-8" d="M379.31,16.31A1.35,1.35,0,1,1,378,15,1.34,1.34,0,0,1,379.31,16.31Z"/><circle class="cls-7" cx="381.15" cy="31.98" r="1.35"/><path class="cls-7" d="M394.53,33.2a1.35,1.35,0,1,1-1.35-1.35A1.35,1.35,0,0,1,394.53,33.2Z"/><path class="cls-7" d="M397.1,27.47a1.35,1.35,0,1,1-1.35-1.35A1.35,1.35,0,0,1,397.1,27.47Z"/><path class="cls-7" d="M403.21,28.26a1.35,1.35,0,1,1-1.35-1.35A1.34,1.34,0,0,1,403.21,28.26Z"/><circle class="cls-7" cx="400.27" cy="38.11" r="1.35"/><path class="cls-8" d="M409.32,46.87A1.35,1.35,0,1,1,408,45.52,1.35,1.35,0,0,1,409.32,46.87Z"/><path class="cls-7" d="M407.18,33.29a1.35,1.35,0,1,1-1.35-1.35A1.35,1.35,0,0,1,407.18,33.29Z"/><circle class="cls-7" cx="415.67" cy="28" r="1.35"/><path class="cls-7" d="M414.63,23.22a1.35,1.35,0,1,1-1.35-1.35A1.36,1.36,0,0,1,414.63,23.22Z"/><path class="cls-7" d="M421.53,19.77a1.35,1.35,0,1,1-1.35-1.35A1.35,1.35,0,0,1,421.53,19.77Z"/><circle class="cls-7" cx="397.08" cy="18.17" r="1.35"/><path class="cls-7" d="M379.85,40.21a1.35,1.35,0,1,1-1.35-1.35A1.35,1.35,0,0,1,379.85,40.21Z"/><circle class="cls-7" cx="390.98" cy="45.52" r="1.35"/><circle class="cls-7" cx="388.85" cy="59.86" r="1.35"/><path class="cls-7" d="M382.77,65.7a1.35,1.35,0,1,1-1.35-1.35A1.35,1.35,0,0,1,382.77,65.7Z"/><path class="cls-7" d="M388.61,73.67a1.35,1.35,0,1,1-1.35-1.35A1.36,1.36,0,0,1,388.61,73.67Z"/><path class="cls-7" d="M374,64.37A1.35,1.35,0,1,1,372.65,63,1.34,1.34,0,0,1,374,64.37Z"/><circle class="cls-7" cx="382.48" cy="77.38" r="1.35"/><path class="cls-7" d="M381.44,90.4a1.35,1.35,0,1,1-1.35-1.35A1.35,1.35,0,0,1,381.44,90.4Z"/><path class="cls-7" d="M367.9,95.44a1.35,1.35,0,1,1-1.35-1.35A1.35,1.35,0,0,1,367.9,95.44Z"/><path class="cls-7" d="M367.1,101.55a1.35,1.35,0,1,1-1.35-1.35A1.35,1.35,0,0,1,367.1,101.55Z"/><path class="cls-7" d="M371.35,109.78a1.35,1.35,0,1,1-1.35-1.35A1.36,1.36,0,0,1,371.35,109.78Z"/><circle class="cls-7" cx="365.45" cy="114.86" r="1.35"/><path class="cls-7" d="M359.4,108.45a1.35,1.35,0,1,1-1.35-1.35A1.34,1.34,0,0,1,359.4,108.45Z"/><path class="cls-7" d="M364.18,126.77a1.35,1.35,0,1,1-1.35-1.35A1.34,1.34,0,0,1,364.18,126.77Z"/><path class="cls-7" d="M357.54,118.28a1.35,1.35,0,1,1-1.35-1.35A1.34,1.34,0,0,1,357.54,118.28Z"/><path class="cls-7" d="M355.11,102.61a1.35,1.35,0,1,1-1.35-1.35A1.34,1.34,0,0,1,355.11,102.61Z"/><circle class="cls-7" cx="347.69" cy="100.24" r="1.35"/><path class="cls-7" d="M345.06,92.28a1.35,1.35,0,1,1-1.35-1.35A1.35,1.35,0,0,1,345.06,92.28Z"/><path class="cls-7" d="M332.58,103.69a1.35,1.35,0,1,1-1.35-1.35A1.34,1.34,0,0,1,332.58,103.69Z"/><path class="cls-7" d="M328.86,115.35a1.35,1.35,0,1,1-1.35-1.34A1.34,1.34,0,0,1,328.86,115.35Z"/><path class="cls-7" d="M335,119.6a1.35,1.35,0,1,1-1.35-1.35A1.34,1.34,0,0,1,335,119.6Z"/><path class="cls-8" d="M321.7,100.75a1.35,1.35,0,1,1-1.35-1.35A1.35,1.35,0,0,1,321.7,100.75Z"/><circle class="cls-7" cx="319.55" cy="90.93" r="1.35"/><path class="cls-7" d="M299.92,91.46a1.35,1.35,0,1,1-1.35-1.35A1.35,1.35,0,0,1,299.92,91.46Z"/><circle class="cls-7" cx="293" cy="103.96" r="1.35"/><circle class="cls-7" cx="281.58" cy="108.21" r="1.35"/><path class="cls-8" d="M281.07,101a1.35,1.35,0,1,1-1.35-1.35A1.35,1.35,0,0,1,281.07,101Z"/><circle class="cls-7" cx="271.49" cy="87.74" r="1.35"/><circle class="cls-7" cx="266.18" cy="82.43" r="1.35"/><path class="cls-7" d="M269.29,77.21a1.35,1.35,0,1,1-1.35-1.35A1.36,1.36,0,0,1,269.29,77.21Z"/><path class="cls-7" d="M279.21,75.53a1.35,1.35,0,1,1-1.35-1.35A1.35,1.35,0,0,1,279.21,75.53Z"/><path class="cls-7" d="M290.89,89.33A1.35,1.35,0,1,1,289.55,88,1.34,1.34,0,0,1,290.89,89.33Z"/><circle class="cls-7" cx="336.54" cy="74.2" r="1.35"/><path class="cls-7" d="M361,74.73a1.35,1.35,0,1,1-1.35-1.35A1.35,1.35,0,0,1,361,74.73Z"/><circle class="cls-8" cx="363.1" cy="54.55" r="1.35"/><path class="cls-7" d="M344.53,56.94a1.35,1.35,0,1,1-1.35-1.35A1.35,1.35,0,0,1,344.53,56.94Z"/><circle class="cls-7" cx="353.8" cy="39.68" r="1.35"/><circle class="cls-8" cx="365.22" cy="25.61" r="1.35"/><circle class="cls-7" cx="332.29" cy="47.11" r="1.35"/><path class="cls-7" d="M220,86.44,210.24,65.9l5.8,4.48Zm-8.67-19.2,7.34,15.47-3-12.1Z"/><path class="cls-7" d="M208.86,77.62l6.9-7.32h.08l21.25-2.41ZM216,70.68l-5.69,6,23.28-8Z"/><path class="cls-7" d="M218.1,85.54l17.44-17.77-.43,7.61Zm17-16.73-14.53,14.8,14.17-8.47Z"/><path class="cls-7" d="M201.58,86.79l7.93-10,10.59,8Zm8-9.21L202.93,86l15.61-1.68Z"/><path class="cls-7" d="M248.18,80.69l1.53-5.88,11.11,3.7ZM250,75.32l-1.27,4.87,10.47-1.8Z"/><path class="cls-7" d="M266.29,82.53l-6.85-4.2L268.06,77Zm-5.72-4,5.5,3.37,1.41-4.43Z"/><path class="cls-7" d="M257,91.08l-.13-.16L247.37,80l19.26,2.09Zm-8.66-10.59,8.69,10,8.7-8.13Z"/><path class="cls-7" d="M260.14,106l6-24.47,7.26,22.4Zm6.07-23-5.54,22.53,12.22-1.91Z"/><path class="cls-7" d="M243.19,109.56l14-19.48,3.6,15.88Zm13.68-18-12.31,17.16,15.49-3.17Z"/><path class="cls-7" d="M237.57,88.15l-2.93-13.21,13.63,5.24Zm-2.38-12.57,2.64,11.88,9.62-7.16Z"/><path class="cls-7" d="M213.33,99.06,199,96.32,202.17,86Zm-13.81-3,12.77,2.44-9.95-11.64Z"/><path class="cls-7" d="M219,113.79l-20.15-6.72.21-11.34Zm-19.75-7,18.08,6-17.89-16.2Z"/><path class="cls-7" d="M218.34,114.3l-5.75-15.55,0-.07,6.93-15.1ZM213,98.77l5,13.52,1.05-26.72Z"/><path class="cls-7" d="M210,122.53l-11.71-16.18,20.44,6.81Zm-10.14-15,10.2,14.09,7.6-8.16Z"/><path class="cls-7" d="M209.49,122.34l8.67-9.31,8.89,6.77Zm8.72-8.78-7.66,8.22,15.5-2.24Z"/><path class="cls-7" d="M244.19,109.48l-13.32-6.24,6.87-16ZM231.39,103l12.17,5.71-5.9-20.35Z"/><path class="cls-7" d="M226.66,120l-8.8-6.71,13.62-10.69Zm-8.15-6.72,7.93,6,4.34-15.66Z"/><path class="cls-7" d="M231.16,103.57,218.91,84.3,238,87.65ZM219.73,84.85l11.37,17.87L237.42,88Z"/><path class="cls-7" d="M234.21,125.27,226,119.65l18.79-11.44Zm-7.11-5.59,6.93,4.74L243,110Z"/><path class="cls-7" d="M232.25,132.53l1.71-7.89h.17l17.52.84Zm2-7.48-1.49,6.86,16.85-6.12Z"/><path class="cls-7" d="M265.27,114.1,260,105.37,283,113Zm-4.41-8,4.63,7.6,15.38-.93Z"/><path class="cls-7" d="M282.18,113.47l-10-10.5,9.36,5Zm-8-9,7.48,7.82-.51-4.08Z"/><path class="cls-7" d="M285.05,125.66l-3.38-12.9,10.15-3ZM282.15,113l3,11.39,6-14Z"/><path class="cls-7" d="M250.52,126.13l-7.14-17.43,22.68,5Zm-6.15-16.6,6.4,15.63,13.94-11.11Z"/><path class="cls-7" d="M269.76,129.59l-4.88-16.32,21,11.87Zm-3.88-15.07,4.28,14.34L284.32,125Z"/><path class="cls-7" d="M274.42,137.56,249.59,126l36.19-1.27ZM252.1,126.5l22.17,10.33,10.14-11.46Z"/><path class="cls-7" d="M277,156.3l-11.83-16.69,0-.11L270,128.62Zm-11.38-16.74,10.47,14.77-6.17-24.49Z"/><path class="cls-7" d="M287,165.22l-5.77-8.34,7.7-7.06Zm-5.24-8.28,5,7.19,1.66-13.28Z"/><path class="cls-7" d="M280.49,172.2l.86-15.88,5.79,8.37Zm1.19-14.7L281,171.09l5.69-6.43Z"/><path class="cls-7" d="M239.2,142.58l-.07-.1-7-10.57.49.11,34,7.63ZM233,132.52l6.43,9.64,24.77-2.65Z"/><path class="cls-7" d="M252.05,150.3l-13-7.87,12-16.77Zm-12.47-8,12,7.27-1-22.75Z"/><path class="cls-7" d="M259.9,159.71l-8.35-9.8,14.19-10.85ZM252.13,150l7.59,8.92L265,140.11Z"/><path class="cls-7" d="M268.64,161.81l-10.09-2.52,19.26-4.58Zm-7.57-2.5,7.43,1.85,6.76-5.23Z"/><path class="cls-7" d="M265,172.57,268.51,161l3.5,6.34-.14.1Zm3.6-10.57-2.87,9.52,5.75-4.31Z"/><path class="cls-7" d="M240.32,152,239,142l13.37,8.06Zm-.78-9.21,1.12,8.75,10.61-1.67Z"/><path class="cls-7" d="M261.68,159.71l-25.49-1.54,4.18-6.81Zm-24.46-2.07,20.72,1.25-17.33-6.79Z"/><path class="cls-7" d="M267.24,172.63l-25.76-3.9-5.41-11.47Zm-25.35-4.44,21.63,3.27-26.18-12.91Z"/><path class="cls-7" d="M241.28,176.89l.21-8.71,13.18,4.88Zm.6-8.15-.19,7.62,11.7-3.34Z"/><path class="cls-7" d="M258.17,184.65l-4.42-11.79,12-1.05Zm-3.86-11.43,3.94,10.51L265,172.28Z"/><path class="cls-7" d="M247,187.82l-5.91-11.61,17.73,8Zm-5-10.78,5.24,10.3,10.49-3.18Z"/><path class="cls-7" d="M253.5,174.51l-1.9-25.15,8.24,9.3Zm-1.42-24,1.69,22.26,5.61-14Z"/><path class="cls-7" d="M217.21,70.49a1.35,1.35,0,1,1-1.35-1.35A1.35,1.35,0,0,1,217.21,70.49Z"/><path class="cls-7" d="M211,77.19a1.35,1.35,0,1,1-1.35-1.35A1.36,1.36,0,0,1,211,77.19Z"/><circle class="cls-7" cx="202.24" cy="86.65" r="1.35"/><path class="cls-7" d="M200.59,96.12a1.35,1.35,0,1,1-1.35-1.35A1.36,1.36,0,0,1,200.59,96.12Z"/><path class="cls-7" d="M200.36,106.73a1.35,1.35,0,1,1-1.35-1.34A1.35,1.35,0,0,1,200.36,106.73Z"/><path class="cls-7" d="M211.44,121.74a1.35,1.35,0,1,1-1.35-1.35A1.36,1.36,0,0,1,211.44,121.74Z"/><path class="cls-7" d="M228.06,119.66a1.35,1.35,0,1,1-1.35-1.35A1.35,1.35,0,0,1,228.06,119.66Z"/><path class="cls-7" d="M235.68,124.74a1.35,1.35,0,1,1-1.35-1.35A1.35,1.35,0,0,1,235.68,124.74Z"/><circle class="cls-8" cx="232.94" cy="131.9" r="1.35"/><path class="cls-7" d="M240.75,142.51a1.35,1.35,0,1,1-1.35-1.34A1.34,1.34,0,0,1,240.75,142.51Z"/><path class="cls-7" d="M241.68,151.75a1.35,1.35,0,1,1-1.35-1.35A1.36,1.36,0,0,1,241.68,151.75Z"/><path class="cls-7" d="M238.22,158a1.35,1.35,0,1,1-1.35-1.35A1.35,1.35,0,0,1,238.22,158Z"/><circle class="cls-7" cx="241.94" cy="168.14" r="1.35"/><path class="cls-7" d="M243.06,176.45a1.35,1.35,0,1,1-1.35-1.35A1.35,1.35,0,0,1,243.06,176.45Z"/><path class="cls-7" d="M248.6,187.76a1.35,1.35,0,1,1-1.35-1.35A1.35,1.35,0,0,1,248.6,187.76Z"/><path class="cls-7" d="M259.68,184.3a1.35,1.35,0,1,1-1.35-1.35A1.35,1.35,0,0,1,259.68,184.3Z"/><path class="cls-8" d="M267.07,172.06a1.35,1.35,0,1,1-1.35-1.35A1.34,1.34,0,0,1,267.07,172.06Z"/><path class="cls-7" d="M272.84,167.68a1.35,1.35,0,1,1-1.35-1.35A1.35,1.35,0,0,1,272.84,167.68Z"/><path class="cls-7" d="M270.07,161.67a1.35,1.35,0,1,1-1.35-1.35A1.34,1.34,0,0,1,270.07,161.67Z"/><path class="cls-7" d="M277.92,155.44a1.35,1.35,0,1,1-1.35-1.35A1.34,1.34,0,0,1,277.92,155.44Z"/><path class="cls-8" d="M275.61,137.44a1.35,1.35,0,1,1-1.35-1.35A1.35,1.35,0,0,1,275.61,137.44Z"/><path class="cls-7" d="M286.46,125a1.35,1.35,0,1,1-1.35-1.35A1.34,1.34,0,0,1,286.46,125Z"/><circle class="cls-7" cx="291.57" cy="110.43" r="1.35"/><path class="cls-7" d="M283,113a1.35,1.35,0,1,1-1.35-1.35A1.36,1.36,0,0,1,283,113Z"/><path class="cls-7" d="M274.23,103.73a1.35,1.35,0,1,1-1.35-1.35A1.35,1.35,0,0,1,274.23,103.73Z"/><path class="cls-8" d="M258.53,90.58a1.35,1.35,0,1,1-1.35-1.35A1.36,1.36,0,0,1,258.53,90.58Z"/><path class="cls-7" d="M261.3,78.8A1.35,1.35,0,1,1,260,77.45,1.35,1.35,0,0,1,261.3,78.8Z"/><circle class="cls-7" cx="249.79" cy="75.8" r="1.35"/><path class="cls-7" d="M249.53,80.42a1.35,1.35,0,1,1-1.35-1.35A1.36,1.36,0,0,1,249.53,80.42Z"/><path class="cls-7" d="M236.14,75.11a1.35,1.35,0,1,1-1.35-1.35A1.35,1.35,0,0,1,236.14,75.11Z"/><circle class="cls-7" cx="235.25" cy="68.18" r="1.35"/><circle class="cls-7" cx="219.32" cy="84.57" r="1.35"/><path class="cls-7" d="M239.37,87.58A1.35,1.35,0,1,1,238,86.23,1.34,1.34,0,0,1,239.37,87.58Z"/><path class="cls-7" d="M214.21,98.89a1.35,1.35,0,1,1-1.35-1.35A1.36,1.36,0,0,1,214.21,98.89Z"/><circle class="cls-7" cx="218.17" cy="113.2" r="1.35"/><circle class="cls-7" cx="231.09" cy="103.04" r="1.35"/><circle class="cls-7" cx="243.79" cy="109.27" r="1.35"/><path class="cls-7" d="M262,105.81a1.35,1.35,0,1,1-1.35-1.35A1.34,1.34,0,0,1,262,105.81Z"/><circle class="cls-8" cx="265.49" cy="113.89" r="1.35"/><path class="cls-7" d="M252.3,125.89a1.35,1.35,0,1,1-1.35-1.35A1.35,1.35,0,0,1,252.3,125.89Z"/><path class="cls-7" d="M271.46,129.36a1.35,1.35,0,1,1-1.35-1.35A1.36,1.36,0,0,1,271.46,129.36Z"/><path class="cls-7" d="M267.07,140a1.35,1.35,0,1,1-1.35-1.35A1.34,1.34,0,0,1,267.07,140Z"/><circle class="cls-7" cx="251.64" cy="150.36" r="1.35"/><circle class="cls-8" cx="259.72" cy="159.13" r="1.35"/><path class="cls-7" d="M255.3,173.22a1.35,1.35,0,1,1-1.35-1.35A1.36,1.36,0,0,1,255.3,173.22Z"/><circle class="cls-7" cx="280.72" cy="171.83" r="1.35"/><path class="cls-7" d="M289.92,150.36a1.35,1.35,0,1,1-1.35-1.35A1.34,1.34,0,0,1,289.92,150.36Z"/><path class="cls-7" d="M288.08,164.68a1.35,1.35,0,1,1-1.35-1.35A1.35,1.35,0,0,1,288.08,164.68Z"/><path class="cls-7" d="M283,157.06a1.35,1.35,0,1,1-1.35-1.35A1.36,1.36,0,0,1,283,157.06Z"/><path class="cls-9" d="M261,106l-.4,0-29.71-2.79L231,103l7-15.61Zm-29.76-3,29,2.72L238.07,87.77Z"/><path class="cls-9" d="M265.89,140.3l-15.14-14.11,0-.08,9.92-20.7ZM251,126.14l14.51,13.52-5-33.45Z"/><path class="cls-9" d="M282,157.26l-30.5-6.8v-.09l-.76-24.5.22.21Zm-30.26-7,29.52,6.58L251,126.46Z"/><path class="cls-9" d="M218.18,113.37l-.09-.08L199,96.05l39.33-8.66ZM199.49,96.18,218.15,113l19.57-25.26Z"/><path class="cls-9" d="M230.88,103.81l3.47-29.19,3.8,13Zm3.57-28-3.14,26.47,6.58-14.71Z"/><path class="cls-9" d="M251.19,126l-33.26-12.8,13.18-10.35.08.08Zm-32.78-12.87,32,12.3-19.3-22.25Z"/><path class="cls-9" d="M247.05,188.48l4.6-39.24,2.36,24.3v0Zm4.58-37L247.46,187l6.31-13.55Z"/><path class="cls-9" d="M200.59,96.12a1.35,1.35,0,1,1-1.35-1.35A1.36,1.36,0,0,1,200.59,96.12Z"/><path class="cls-9" d="M248.6,187.76a1.35,1.35,0,1,1-1.35-1.35A1.35,1.35,0,0,1,248.6,187.76Z"/><path class="cls-8" d="M236.14,75.11a1.35,1.35,0,1,1-1.35-1.35A1.35,1.35,0,0,1,236.14,75.11Z"/><path class="cls-9" d="M239.37,87.58A1.35,1.35,0,1,1,238,86.23,1.34,1.34,0,0,1,239.37,87.58Z"/><circle class="cls-8" cx="218.17" cy="113.2" r="1.35"/><circle class="cls-9" cx="231.09" cy="103.04" r="1.35"/><path class="cls-9" d="M262,105.81a1.35,1.35,0,1,1-1.35-1.35A1.34,1.34,0,0,1,262,105.81Z"/><path class="cls-9" d="M252.3,125.89a1.35,1.35,0,1,1-1.35-1.35A1.35,1.35,0,0,1,252.3,125.89Z"/><path class="cls-9" d="M267.07,140a1.35,1.35,0,1,1-1.35-1.35A1.34,1.34,0,0,1,267.07,140Z"/><circle class="cls-9" cx="251.64" cy="150.36" r="1.35"/><path class="cls-8" d="M288.08,164.68a1.35,1.35,0,1,1-1.35-1.35A1.35,1.35,0,0,1,288.08,164.68Z"/><path class="cls-9" d="M283,157.06a1.35,1.35,0,1,1-1.35-1.35A1.36,1.36,0,0,1,283,157.06Z"/><path class="cls-9" d="M226.42,58.05l-7.84-16.82,6,1.81v.08ZM219,41.61l7,15-1.62-13.36Z"/><path class="cls-9" d="M240.22,63.89l-.63-9.67,5.87-12,.56.21Zm0-9.55.38,5.92,4-15Z"/><path class="cls-9" d="M236.18,32.76l0-.23,11.71-2.8h0l8.51,2.05ZM247.86,30l-10.41,2.48,17.27-.83Z"/><path class="cls-9" d="M272.64,41.07l-17.3-9.34L262.76,26ZM255.78,31.7l16.15,8.71-9.23-14.1Z"/><path class="cls-9" d="M289.25,60.14l-9.09-5-8.23-15.62ZM280.34,55l7.91,4.33L273.18,41.4Z"/><path class="cls-9" d="M314.07,56.41l-42.29-16.1,31.1,1.91,0,0ZM273.33,40.64l40,15.24L302.76,42.45Z"/><path class="cls-9" d="M245.58,42.07l9.95-10.5.08,0,17.11,9.23-.43,0Zm10-10.21-9.42,9.94,25.69-1.16Z"/><path class="cls-9" d="M278.22,76.08l-13-14.94.16-.06,15.05-6.19,0,.2ZM265.58,61.23,278,75.51l2.07-20.24Z"/><path class="cls-9" d="M288.51,59.75,280,55.08l23.05-12.9Zm-8-4.67,7.95,4.36L302.06,43Z"/><path class="cls-9" d="M305,70.11,288.14,59.52,314,56l-.14.22ZM288.82,59.67l16.09,10.12,8.56-13.49Z"/><path class="cls-9" d="M310.63,86.84l-.09-.26-5.73-16.67.06,0L332.7,46.62l-.3.55ZM305.09,70l5.59,16.26,21.21-38.64Z"/><path class="cls-9" d="M293.19,104.25,271.08,87.58l18.56,1.64,0,.09ZM271.89,87.9l20.91,15.76-3.35-14.22Z"/><path class="cls-9" d="M281.11,108.25l17.82-17.31-5.84,13.11,0,0ZM298.21,92l-16.15,15.69,10.85-3.81Z"/><path class="cls-9" d="M309,87.68l35-31.81-7.13,18.55ZM342.45,58l-30.1,27.4,24-11.43Z"/><path class="cls-9" d="M358.9,75.17l13.72-10.92h.05l9.19,1.39ZM372.69,64.5l-12.31,9.79L381,65.76Z"/><path class="cls-9" d="M366.47,95.6l0-.12-7-21.08,20.92,16Zm-6.59-20.54,6.74,20.23,13.22-4.93Z"/><path class="cls-9" d="M347.63,100.38l0-.09L336.27,73.86l.34.24,30.22,21.39ZM336.82,74.54l10.94,25.56,18.51-4.71Z"/><path class="cls-9" d="M333.78,119.86l-6.41-4.46,0-.08,3.87-12.15.08.51Zm-6.12-4.55,5.8,4-2.27-15.13Z"/><path class="cls-9" d="M331.24,103.86,310.39,86.48l.24,0L360,74.52l-.29.29ZM310.91,86.61l20.31,16.92,28-28.59Z"/><path class="cls-9" d="M366.6,95.77l-.16-.27L342.93,56.75l29.86,7.54,0,.11ZM343.43,57.13l23.06,38,6-30.65Z"/><path class="cls-9" d="M387.73,74.11l-15.62-9.94,9.37,1.42,0,0ZM373.2,64.58l13.59,8.64-5.44-7.41Z"/><path class="cls-9" d="M362.79,127.48l-.12-.17L356,118.24l.11-.07,14.12-8.69-.14.34Zm-6.43-9.17,6.37,8.69,7-16.93Z"/><path class="cls-10" d="M226.26,58l-.12-.26-7.26-16.54,9,4.65v0Zm-7-16.45,7,15.86L227.72,46Z"/><path class="cls-10" d="M246.1,42.31l-11.61-1.5v-.08l1.22-8,.11.1Zm-11.43-1.64,11,1.42-9.8-9Z"/><path class="cls-10" d="M265.37,47.87l-9.78-16.31,0,0L262.79,26l0,.14ZM255.8,31.6l9.33,15.55-2.47-20.86Z"/><path class="cls-10" d="M245.67,42.29l10-10.81.06,0,16.84,9.3h-.28Zm10-10.61-9.65,10.43L272,40.68Z"/><path class="cls-10" d="M280.14,55.28l-8.1-15,.09,0,14.49-4.56-.05.15Zm-7.87-14.89,7.83,14.49L286.37,36Z"/><path class="cls-10" d="M313.94,56.31,271.77,40.64l.52,0,30.84,1.6,0,0ZM272.8,40.85,313.48,56,303.05,42.41Z"/><path class="cls-10" d="M248.54,51.31l0-.15,24.17-10.67-7.37,7.1h0ZM271.91,41,249.29,51l15.92-3.54Z"/><path class="cls-10" d="M254.75,61.19l-.06-.09-6.3-9.92,17.06-3.79Zm-6.1-9.91,6.12,9.64,10.28-13.28Z"/><path class="cls-10" d="M240.1,62.78l5.76-20.87,2.75,9.34,0,0Zm5.77-20.29L240.48,62l8-10.78Z"/><path class="cls-10" d="M234.39,55.6l-6.69-9.7,7-5.32Zm-6.47-9.66,6.32,9.16.26-14.19Z"/><path class="cls-10" d="M210.33,67.08l10.28-9.29,6.19-.28-.28.16ZM220.67,58l-9.1,8.23,14.59-8.48Z"/><path class="cls-10" d="M220.48,58l7.59-12.07,6.38,9.49-.12,0Zm7.6-11.78-7.27,11.56,13.37-2.47Z"/><path class="cls-10" d="M240.46,62.7l-6.22-7.33v0l.27-15.17Zm-6.06-7.38,5.72,6.74-5.47-20.74Z"/><path class="cls-10" d="M234.28,55.44l0,0L227.94,46l.13,0,44.84-5.38-.6.23Zm-6.07-9.32,6.14,9.13L271.66,40.9Z"/><path class="cls-10" d="M272.46,40.86l-.19,0-36.85-7.9,27.34-6.87,0,0Zm-36.33-8,36,7.72-9.42-14.39Z"/><path class="cls-10" d="M278.19,75.72l-.12-.14L265.51,61.42l.1,0L280.21,55v.14ZM265.78,61.48l12.29,13.86,2-20.13Z"/><path class="cls-10" d="M311.25,88.12,279.64,55l23.67-13.14.07.41Zm-30.65-33,29.73,31.14L302.86,42.8Z"/><path class="cls-10" d="M336.58,74.59l-.09-.06-23-18.48h.24l29.59,1.07ZM314,56.23l22.56,18.1,6.56-17Z"/><path class="cls-10" d="M347.65,99.78l0-.06L336.36,74.24l.23.16,30.15,20.81ZM336.73,74.69l11,24.91,18.61-4.46Z"/><path class="cls-10" d="M366.39,95.31l.09-.17,15-30.07-1.08,25.38Zm14.93-29.5L366.71,95l13.57-4.7Z"/><path class="cls-10" d="M387.48,73.57,343.15,57.28l.05-.15,38.26,8.23,0,0Zm-43.21-16L387,73.24l-5.67-7.73Z"/><path class="cls-10" d="M310.84,87.51,286.28,35.57l27.51,20.54v0ZM286.7,36.09l24,50.82,2.89-30.73Z"/><path class="cls-10" d="M370.17,109.41l-.2-.09-22.35-9.58v0l-4.56-42.91Zm-22.4-9.78,22.06,9.46L343.31,57.62Z"/><path class="cls-10" d="M293,104.19l-3.54-15,.12,0,8.86,2.14,0,.09Zm-3.33-14.75L293,103.68l5.18-12.17Z"/><path class="cls-10" d="M289.72,89.42,237.28,87.8l.46-.14,40.42-12.23,0,0Zm-51.46-1.74,51.11,1.57L278.1,75.62Z"/><path class="cls-10" d="M251,126.33l-.26-.3-19.95-22.88,0,0,7-15.59.06.19Zm-20-23.2,19.61,22.49L237.76,88Z"/><path class="cls-10" d="M250.6,126.16l10.22-20.44h0l32.5-1.88L293,104Zm10.32-20.29-10,19.92L292.63,104Z"/><path class="cls-10" d="M231,103.26l-.18,0L199.31,96l.18-.1,20.25-11.45Zm-31.28-7.32L230.7,103l-11-18.36Z"/><path class="cls-10" d="M219.78,84.88l-8.93-18.27.05,0,9.83-8.89v.19Zm-8.73-18.23,8.59,17.58.92-26.18Z"/><path class="cls-10" d="M281.29,157.45l-29.53-7v-.06l-1.07-24.64.15.15Zm-29.37-7.11,28.88,6.83-29.93-31Z"/><path class="cls-10" d="M247.32,188.32,237.69,87.75l.16,0,14.07,62.68h0ZM238,89l9.37,97.84,4.42-36.43Z"/><path class="cls-10" d="M303.08,42.42h0l-17.6-6.5.36,0L396,27.65l0,.16ZM286.2,36l16.9,6.24,91-14.29Z"/><path class="cls-7" d="M399.24,67.84l-3.53-17.23L405,56.8Zm-2.95-16.36,3.11,15.18,5.06-9.73Z"/><path class="cls-7" d="M404.76,72.89,399.14,67l-3.34-16,.38-.11Zm-5.25-6,4.14,4.33-7-17.83Z"/><path class="cls-7" d="M393.36,80,392,72.1l8.41-5.77Zm-.67-7.65,1,5.78,5.17-10Z"/><path class="cls-7" d="M404,73.41l.05-1.48-12.08.53,13-16.19-.52,15.25h.17Zm.54-15.95L392.79,72,404,71.53Z"/><path class="cls-7" d="M361.09,138.49l-.1-.21-8.83-17.88,15.1,13.83Zm-7.63-16.36,7.79,15.77,5.38-3.71Z"/><path class="cls-7" d="M369.5,141.32l-8.55-3,1.92-12.19Zm-8.11-3.26,7.38,2.58-5.72-13.1Z"/><path class="cls-7" d="M374.42,135.05l-.08-.15-3.84-7.45,11.74,4.78Zm-3.07-6.83,3.26,6.34,6.52-2.36Z"/><path class="cls-7" d="M374.69,134.89l-.36-.15,10.15-27.88.38.11-2.59,11.35ZM383.77,110,376.4,130.2l5.5-12Z"/><path class="cls-7" d="M394.12,110.67l-9.89-3,1.94-8.39Zm-9.41-3.28,8.43,2.56-6.78-9.71Z"/><path class="cls-7" d="M391.88,120.54l-6.13-21.86,8.09,11.58Zm-5.11-19.71,5,18,1.62-8.45Z"/><path class="cls-7" d="M390.36,137.7l-9.13-5.53,12.31-4.67Zm-8.22-5.44,8,4.83,2.79-8.92Z"/><path class="cls-7" d="M381.87,132.53l-11.52-5.45,11.94-9.22ZM371.11,127l10.38,4.91.38-13.22Z"/><path class="cls-7" d="M387.88,147.07l-21.47-6.62L396.33,143Zm-16-5.56,16,4.92,6.29-3.05Z"/><path class="cls-7" d="M413.85,144.38l-21.6-17.07,14.26,4.54,0,.07Zm-19.64-16,18.23,14.4-6.2-10.57Z"/><path class="cls-7" d="M425.59,146.51l-21.47-16.28,19.44,8.14ZM408.24,132.6,424.6,145l-1.55-6.2Z"/><path class="cls-7" d="M425.36,146l-12.84-2.36,10.92-5.35Zm-11.58-2.53,11.05,2-1.66-6.63Z"/><path class="cls-7" d="M413.17,175.3l-1.82-15.23,4.54-13.18Zm-1.41-15.18,1.37,11.46,2.05-21.38Z"/><path class="cls-7" d="M412.88,174.09l2.53-26.33,6.53,15Zm2.78-24.76-2.25,23.46,8.07-10.14Z"/><path class="cls-7" d="M426.61,174.39l-15.76-14.68,11,2.81Zm-14.35-13.91,13.32,12.4-4-10Z"/><path class="cls-7" d="M401.62,165.29l3.87-9.68,6.45,4.51Zm4.05-9.07-3.3,8.24,8.8-4.39Z"/><path class="cls-7" d="M405.7,156.31l-7.57-7.14,9.09-.44Zm-6.61-6.79,6.36,6,1.28-6.37Z"/><path class="cls-7" d="M402.59,166.19l-8.54-11.68,4.72-5.84Zm-7.79-11.66,6.6,9L398.45,150Z"/><path class="cls-7" d="M390.53,171.36,384,160.83l10.74-6.74Zm-6-10.4,5.82,9.38L394.12,155Z"/><path class="cls-7" d="M395.44,182.52l-5.25-11.76,12.18-6.3Zm-4.74-11.58,4.71,10.54,6.21-16.19Z"/><path class="cls-7" d="M398.32,190l3.52-25.47,11.6,8.9Zm3.82-24.74-3.25,23.52,14-15.3Z"/><path class="cls-7" d="M417.47,188.67l-4.59-15.44,13.56.21Zm-4.05-15,4.17,14,8.16-13.85Z"/><path class="cls-7" d="M407.78,194.58l-9.87-5.37,20.38-1.28Zm-8.47-5.06,8.45,4.6,9-5.7Z"/><path class="cls-7" d="M398.55,189.73l-3.39-7.82.18-.09,18.65-9Zm-2.87-7.63,3,6.91,13.63-14.94Z"/><path class="cls-7" d="M376.78,175.68l-4-10.74,17.69,6.32Zm-3.33-10.08,3.57,9.58,12.21-3.94Z"/><path class="cls-7" d="M383.44,186.78l-10.6-21.61.21-.08,11.43-4.49v.3Zm-10.05-21.4,9.72,19.81.95-24Z"/><path class="cls-7" d="M371.69,186.43l1.45-20.83,17.11,5.57Zm1.81-20.29-1.34,19.4,17.28-14.22Z"/><path class="cls-7" d="M383.15,185.73l-7.83-11.09,21.1,7.39Zm-6.26-9.91L383.4,185l11-3.07Z"/><path class="cls-7" d="M371.07,186.3l19.66-16.16-7.86,15.94ZM389,172.36l-16.19,13.31,9.71-.18Z"/><path class="cls-7" d="M404.17,202.23l3.44-8,.05,0,11.18-7.07Zm3.76-7.75-2.54,5.93,10.83-11.17Z"/><path class="cls-7" d="M426.35,207.81,446,186.88l5.28,5.92-.2.13ZM446,187.47,428.62,206l22.06-13.27Z"/><path class="cls-7" d="M442.26,200.28l3.65-13.51,5.36,6Zm3.84-12.69L443,199.17l7.72-6.44Z"/><path class="cls-9" d="M376,134.76a1.35,1.35,0,1,1-1.35-1.35A1.34,1.34,0,0,1,376,134.76Z"/><path class="cls-9" d="M383.21,118.37a1.35,1.35,0,1,1-1.35-1.35A1.35,1.35,0,0,1,383.21,118.37Z"/><path class="cls-9" d="M353.81,121.09a1.35,1.35,0,1,1-1.35-1.35A1.35,1.35,0,0,1,353.81,121.09Z"/><circle class="cls-9" cx="368.93" cy="140.81" r="1.35"/><path class="cls-9" d="M391.56,137.4a1.35,1.35,0,1,1-1.35-1.35A1.36,1.36,0,0,1,391.56,137.4Z"/><path class="cls-9" d="M418.44,188.16a1.35,1.35,0,1,1-1.35-1.35A1.34,1.34,0,0,1,418.44,188.16Z"/><circle class="cls-9" cx="421.44" cy="162.53" r="1.35"/><path class="cls-9" d="M414.56,173.24a1.35,1.35,0,1,1-1.35-1.34A1.35,1.35,0,0,1,414.56,173.24Z"/><path class="cls-9" d="M391.56,170.94a1.35,1.35,0,1,1-1.35-1.35A1.35,1.35,0,0,1,391.56,170.94Z"/><path class="cls-9" d="M429,206.74a1.35,1.35,0,1,1-1.35-1.34A1.35,1.35,0,0,1,429,206.74Z"/><path class="cls-9" d="M394.72,78.65a1.35,1.35,0,1,1-1.35-1.35A1.34,1.34,0,0,1,394.72,78.65Z"/><path class="cls-9" d="M405.53,72a1.35,1.35,0,1,1-1.35-1.35A1.35,1.35,0,0,1,405.53,72Z"/><circle class="cls-9" cx="395.95" cy="51.04" r="1.35"/><path class="cls-9" d="M393.23,78.88l0-.24,2.62-28.11,8.45,21.53-.08,0ZM396,51.55l-2.5,26.88L404,72Z"/><path class="cls-9" d="M363,127.8l-11.08-5.86,3.94-4.25Zm-10.69-5.93,9.92,5.25-6.4-9.05Z"/><path class="cls-9" d="M390.4,137.55l-.21,0-15.69-2.66,7.36-16.78.11.25Zm-15.56-2.89L390,137.24l-8.15-18.58Z"/><path class="cls-9" d="M368.89,141l-6.2-14.72.34.23,11.83,8.2-.1.1ZM363.23,127,369,140.6l5.52-5.83Z"/><path class="cls-9" d="M390.43,137.61l-27.78-11,.27-.12,19-8.32,0,.11Zm-27.16-11L390,137.18l-8.18-18.66Z"/><path class="cls-9" d="M417.14,189.65l-4.26-17.84,9-10.27ZM413.53,172,417,186.66,421,163.52Z"/><path class="cls-9" d="M417.28,188.42l-.25-.16-27.31-17.48.5,0,23,2.31,0,.08Zm-26.59-17.31,26.21,16.78-3.85-14.54Z"/><path class="cls-9" d="M413.2,173.36h-.07L389.55,171l.62-.17,31.58-8.51Zm-22.33-2.47,22.22,2.22,8-10.37Z"/><path class="cls-9" d="M212.35,66.7A1.35,1.35,0,1,1,211,65.35,1.35,1.35,0,0,1,212.35,66.7Z"/><path class="cls-9" d="M227.7,57.47a1.35,1.35,0,1,1-1.35-1.35A1.34,1.34,0,0,1,227.7,57.47Z"/><path class="cls-9" d="M241.75,62.08a1.35,1.35,0,1,1-1.35-1.35A1.35,1.35,0,0,1,241.75,62.08Z"/><path class="cls-9" d="M229.29,46.05a1.35,1.35,0,1,1-1.35-1.35A1.34,1.34,0,0,1,229.29,46.05Z"/><path class="cls-9" d="M220.26,41.27a1.35,1.35,0,1,1-1.34-1.35A1.34,1.34,0,0,1,220.26,41.27Z"/><path class="cls-9" d="M225.84,43.13a1.35,1.35,0,1,1-1.35-1.35A1.34,1.34,0,0,1,225.84,43.13Z"/><path class="cls-9" d="M247.08,42.34A1.35,1.35,0,1,1,245.73,41,1.34,1.34,0,0,1,247.08,42.34Z"/><path class="cls-9" d="M250,51.36A1.35,1.35,0,1,1,248.65,50,1.34,1.34,0,0,1,250,51.36Z"/><path class="cls-9" d="M241.24,54.28a1.35,1.35,0,1,1-1.35-1.35A1.34,1.34,0,0,1,241.24,54.28Z"/><path class="cls-9" d="M266.73,61.19a1.35,1.35,0,1,1-1.35-1.35A1.35,1.35,0,0,1,266.73,61.19Z"/><path class="cls-9" d="M256.91,31.71a1.35,1.35,0,1,1-1.35-1.35A1.35,1.35,0,0,1,256.91,31.71Z"/><circle class="cls-9" cx="247.86" cy="29.86" r="1.35"/><circle class="cls-9" cx="235.91" cy="33.04" r="1.35"/><path class="cls-9" d="M264.08,26.14a1.35,1.35,0,1,1-1.35-1.35A1.36,1.36,0,0,1,264.08,26.14Z"/><circle class="cls-9" cx="272.29" cy="40.74" r="1.35"/><path class="cls-9" d="M281.6,55.08a1.35,1.35,0,1,1-1.35-1.35A1.34,1.34,0,0,1,281.6,55.08Z"/><path class="cls-9" d="M289.83,59.59a1.35,1.35,0,1,1-1.35-1.34A1.34,1.34,0,0,1,289.83,59.59Z"/><path class="cls-9" d="M312.14,86.94a1.35,1.35,0,1,1-1.35-1.35A1.35,1.35,0,0,1,312.14,86.94Z"/><path class="cls-9" d="M306,70a1.35,1.35,0,1,1-1.35-1.35A1.34,1.34,0,0,1,306,70Z"/><path class="cls-9" d="M315.06,56.14a1.35,1.35,0,1,1-1.35-1.35A1.35,1.35,0,0,1,315.06,56.14Z"/><path class="cls-9" d="M304.17,42.34A1.35,1.35,0,1,1,302.82,41,1.34,1.34,0,0,1,304.17,42.34Z"/><path class="cls-9" d="M382.77,65.7a1.35,1.35,0,1,1-1.35-1.35A1.35,1.35,0,0,1,382.77,65.7Z"/><path class="cls-9" d="M388.61,73.67a1.35,1.35,0,1,1-1.35-1.35A1.36,1.36,0,0,1,388.61,73.67Z"/><path class="cls-9" d="M374,64.37A1.35,1.35,0,1,1,372.65,63,1.34,1.34,0,0,1,374,64.37Z"/><path class="cls-9" d="M381.44,90.4a1.35,1.35,0,1,1-1.35-1.35A1.35,1.35,0,0,1,381.44,90.4Z"/><path class="cls-9" d="M367.9,95.44a1.35,1.35,0,1,1-1.35-1.35A1.35,1.35,0,0,1,367.9,95.44Z"/><path class="cls-9" d="M371.35,109.78a1.35,1.35,0,1,1-1.35-1.35A1.36,1.36,0,0,1,371.35,109.78Z"/><path class="cls-9" d="M364.18,126.77a1.35,1.35,0,1,1-1.35-1.35A1.34,1.34,0,0,1,364.18,126.77Z"/><path class="cls-9" d="M357.54,118.28a1.35,1.35,0,1,1-1.35-1.35A1.34,1.34,0,0,1,357.54,118.28Z"/><circle class="cls-9" cx="347.69" cy="100.24" r="1.35"/><path class="cls-9" d="M332.58,103.69a1.35,1.35,0,1,1-1.35-1.35A1.34,1.34,0,0,1,332.58,103.69Z"/><path class="cls-9" d="M328.86,115.35a1.35,1.35,0,1,1-1.35-1.34A1.34,1.34,0,0,1,328.86,115.35Z"/><path class="cls-9" d="M335,119.6a1.35,1.35,0,1,1-1.35-1.35A1.34,1.34,0,0,1,335,119.6Z"/><path class="cls-9" d="M299.92,91.46a1.35,1.35,0,1,1-1.35-1.35A1.35,1.35,0,0,1,299.92,91.46Z"/><circle class="cls-9" cx="293" cy="103.96" r="1.35"/><circle class="cls-9" cx="281.58" cy="108.21" r="1.35"/><circle class="cls-9" cx="271.49" cy="87.74" r="1.35"/><circle class="cls-9" cx="266.18" cy="82.43" r="1.35"/><path class="cls-9" d="M279.21,75.53a1.35,1.35,0,1,1-1.35-1.35A1.35,1.35,0,0,1,279.21,75.53Z"/><path class="cls-9" d="M290.89,89.33A1.35,1.35,0,1,1,289.55,88,1.34,1.34,0,0,1,290.89,89.33Z"/><circle class="cls-9" cx="336.54" cy="74.2" r="1.35"/><path class="cls-8" d="M361,74.73a1.35,1.35,0,1,1-1.35-1.35A1.35,1.35,0,0,1,361,74.73Z"/><path class="cls-9" d="M344.53,56.94a1.35,1.35,0,1,1-1.35-1.35A1.35,1.35,0,0,1,344.53,56.94Z"/><circle class="cls-9" cx="332.29" cy="47.11" r="1.35"/><path class="cls-10" d="M362.86,127,356,118.24l14.23-8.89Zm-6.49-8.7,6.43,8.23L369.74,110Z"/><path class="cls-10" d="M390.16,137.51,362.6,126.73l-6.87-8.85.52.29,34,19.12Zm-27.41-11,25.9,10.13-32-18Z"/><path class="cls-10" d="M355.92,118.59l.16-.36,10.5-23.29,3.56,14.76-.08,0Zm10.59-22.92L356.46,118l13.4-8.38Z"/><path class="cls-10" d="M417.32,188.77l-.26-.16-27.33-17.83.49,0,23.08,2.31Zm-26.64-17.66,26.26,17.13-3.83-14.88Z"/><path class="cls-7" d="M372.14,127.46a1.35,1.35,0,1,1-1.35-1.35A1.34,1.34,0,0,1,372.14,127.46Z"/><path class="cls-7" d="M376,134.76a1.35,1.35,0,1,1-1.35-1.35A1.34,1.34,0,0,1,376,134.76Z"/><circle class="cls-7" cx="381.66" cy="132.12" r="1.35"/><path class="cls-7" d="M383.21,118.37a1.35,1.35,0,1,1-1.35-1.35A1.35,1.35,0,0,1,383.21,118.37Z"/><path class="cls-8" d="M387.36,99.34A1.35,1.35,0,1,1,386,98,1.34,1.34,0,0,1,387.36,99.34Z"/><path class="cls-7" d="M386,107a1.35,1.35,0,1,1-1.35-1.35A1.34,1.34,0,0,1,386,107Z"/><path class="cls-8" d="M393.11,119.85a1.35,1.35,0,1,1-1.35-1.35A1.35,1.35,0,0,1,393.11,119.85Z"/><path class="cls-7" d="M394.82,110.53a1.35,1.35,0,1,1-1.35-1.35A1.36,1.36,0,0,1,394.82,110.53Z"/><path class="cls-7" d="M368.26,134.13a1.35,1.35,0,1,1-1.35-1.35A1.35,1.35,0,0,1,368.26,134.13Z"/><path class="cls-7" d="M353.81,121.09a1.35,1.35,0,1,1-1.35-1.35A1.35,1.35,0,0,1,353.81,121.09Z"/><circle class="cls-7" cx="361.32" cy="137.55" r="1.35"/><circle class="cls-7" cx="368.93" cy="140.81" r="1.35"/><circle class="cls-7" cx="387.72" cy="146.56" r="1.35"/><path class="cls-7" d="M396.37,143.3A1.35,1.35,0,1,1,395,142,1.35,1.35,0,0,1,396.37,143.3Z"/><path class="cls-7" d="M391.56,137.4a1.35,1.35,0,1,1-1.35-1.35A1.36,1.36,0,0,1,391.56,137.4Z"/><circle class="cls-7" cx="393" cy="127.92" r="1.35"/><path class="cls-7" d="M407.55,131.8a1.35,1.35,0,1,1-1.35-1.35A1.34,1.34,0,0,1,407.55,131.8Z"/><path class="cls-7" d="M424.79,138.79a1.35,1.35,0,1,1-1.35-1.35A1.34,1.34,0,0,1,424.79,138.79Z"/><path class="cls-7" d="M426,145.78a1.35,1.35,0,1,1-1.35-1.35A1.35,1.35,0,0,1,426,145.78Z"/><path class="cls-8" d="M414.23,143.61a1.35,1.35,0,1,1-1.35-1.35A1.35,1.35,0,0,1,414.23,143.61Z"/><path class="cls-7" d="M417.18,148.58a1.35,1.35,0,1,1-1.35-1.35A1.35,1.35,0,0,1,417.18,148.58Z"/><path class="cls-7" d="M412.68,160.07a1.35,1.35,0,1,1-1.35-1.35A1.35,1.35,0,0,1,412.68,160.07Z"/><path class="cls-7" d="M406.78,155.88a1.35,1.35,0,1,1-1.35-1.35A1.36,1.36,0,0,1,406.78,155.88Z"/><circle class="cls-7" cx="406.95" cy="149.08" r="1.35"/><path class="cls-7" d="M400.07,149.24a1.35,1.35,0,1,1-1.35-1.35A1.36,1.36,0,0,1,400.07,149.24Z"/><path class="cls-8" d="M395.59,154.79a1.35,1.35,0,1,1-1.35-1.35A1.34,1.34,0,0,1,395.59,154.79Z"/><circle class="cls-7" cx="384.3" cy="161" r="1.35"/><path class="cls-7" d="M374.94,165.66a1.35,1.35,0,1,1-1.35-1.35A1.35,1.35,0,0,1,374.94,165.66Z"/><circle class="cls-7" cx="372.34" cy="185.85" r="1.35"/><circle class="cls-7" cx="383.37" cy="185.7" r="1.35"/><path class="cls-8" d="M397,182.13a1.35,1.35,0,1,1-1.35-1.35A1.35,1.35,0,0,1,397,182.13Z"/><path class="cls-7" d="M400.1,189.27a1.35,1.35,0,1,1-1.35-1.35A1.35,1.35,0,0,1,400.1,189.27Z"/><circle class="cls-7" cx="407.77" cy="194.37" r="1.35"/><path class="cls-7" d="M418.44,188.16a1.35,1.35,0,1,1-1.35-1.35A1.34,1.34,0,0,1,418.44,188.16Z"/><path class="cls-7" d="M427.6,173.87a1.35,1.35,0,1,1-1.35-1.35A1.35,1.35,0,0,1,427.6,173.87Z"/><circle class="cls-7" cx="421.44" cy="162.53" r="1.35"/><path class="cls-7" d="M414.56,173.24a1.35,1.35,0,1,1-1.35-1.34A1.35,1.35,0,0,1,414.56,173.24Z"/><path class="cls-7" d="M403.51,164.89a1.35,1.35,0,1,1-1.34-1.35A1.35,1.35,0,0,1,403.51,164.89Z"/><path class="cls-7" d="M391.56,170.94a1.35,1.35,0,1,1-1.35-1.35A1.35,1.35,0,0,1,391.56,170.94Z"/><path class="cls-8" d="M377.89,175.29a1.35,1.35,0,1,1-1.35-1.35A1.35,1.35,0,0,1,377.89,175.29Z"/><path class="cls-7" d="M406,200.92a1.35,1.35,0,1,1-1.35-1.35A1.34,1.34,0,0,1,406,200.92Z"/><path class="cls-7" d="M429,206.74a1.35,1.35,0,1,1-1.35-1.34A1.35,1.35,0,0,1,429,206.74Z"/><path class="cls-8" d="M444,199.29a1.35,1.35,0,1,1-1.35-1.35A1.35,1.35,0,0,1,444,199.29Z"/><path class="cls-7" d="M452,192.92a1.35,1.35,0,1,1-1.35-1.35A1.35,1.35,0,0,1,452,192.92Z"/><path class="cls-7" d="M447.25,187.56a1.35,1.35,0,1,1-1.35-1.35A1.34,1.34,0,0,1,447.25,187.56Z"/><path class="cls-7" d="M394.72,78.65a1.35,1.35,0,1,1-1.35-1.35A1.34,1.34,0,0,1,394.72,78.65Z"/><path class="cls-8" d="M405.53,72a1.35,1.35,0,1,1-1.35-1.35A1.35,1.35,0,0,1,405.53,72Z"/><path class="cls-7" d="M406,56.94a1.35,1.35,0,1,1-1.35-1.35A1.34,1.34,0,0,1,406,56.94Z"/><circle class="cls-7" cx="395.95" cy="51.04" r="1.35"/><circle class="cls-7" cx="399.52" cy="67.04" r="1.35"/><path class="cls-7" d="M393.73,72.47a1.35,1.35,0,1,1-1.35-1.35A1.34,1.34,0,0,1,393.73,72.47Z"/><path class="cls-10" d="M364.18,126.77a1.35,1.35,0,1,1-1.35-1.35A1.34,1.34,0,0,1,364.18,126.77Z"/><path class="cls-10" d="M357.54,118.28a1.35,1.35,0,1,1-1.35-1.35A1.34,1.34,0,0,1,357.54,118.28Z"/><path class="cls-10" d="M391.56,137.4a1.35,1.35,0,1,1-1.35-1.35A1.36,1.36,0,0,1,391.56,137.4Z"/><path class="cls-10" d="M418.44,188.16a1.35,1.35,0,1,1-1.35-1.35A1.34,1.34,0,0,1,418.44,188.16Z"/><path class="cls-10" d="M415.39,173.24a2.19,2.19,0,1,1-2.18-2.18A2.19,2.19,0,0,1,415.39,173.24Z"/><path class="cls-10" d="M391.56,170.94a1.35,1.35,0,1,1-1.35-1.35A1.35,1.35,0,0,1,391.56,170.94Z"/><path class="cls-10" d="M397.1,27.47a1.35,1.35,0,1,1-1.35-1.35A1.35,1.35,0,0,1,397.1,27.47Z"/><path class="cls-10" d="M200.59,96.12a1.35,1.35,0,1,1-1.35-1.35A1.36,1.36,0,0,1,200.59,96.12Z"/><path class="cls-10" d="M249,187.76a1.73,1.73,0,1,1-1.73-1.72A1.72,1.72,0,0,1,249,187.76Z"/><path class="cls-10" d="M239.37,87.58A1.35,1.35,0,1,1,238,86.23,1.34,1.34,0,0,1,239.37,87.58Z"/><circle class="cls-10" cx="231.09" cy="103.04" r="1.35"/><path class="cls-10" d="M262,105.81a1.35,1.35,0,1,1-1.35-1.35A1.34,1.34,0,0,1,262,105.81Z"/><path class="cls-10" d="M252.85,125.89A1.9,1.9,0,1,1,251,124,1.9,1.9,0,0,1,252.85,125.89Z"/><path class="cls-10" d="M283,157.06a1.35,1.35,0,1,1-1.35-1.35A1.36,1.36,0,0,1,283,157.06Z"/><path class="cls-10" d="M213.07,66.7A2.07,2.07,0,1,1,211,64.63,2.08,2.08,0,0,1,213.07,66.7Z"/><path class="cls-10" d="M228.2,57.47a1.85,1.85,0,1,1-1.85-1.85A1.85,1.85,0,0,1,228.2,57.47Z"/><path class="cls-10" d="M241.75,62.08a1.35,1.35,0,1,1-1.35-1.35A1.35,1.35,0,0,1,241.75,62.08Z"/><path class="cls-10" d="M229.29,46.05a1.35,1.35,0,1,1-1.35-1.35A1.34,1.34,0,0,1,229.29,46.05Z"/><path class="cls-10" d="M247.08,42.34A1.35,1.35,0,1,1,245.73,41,1.34,1.34,0,0,1,247.08,42.34Z"/><path class="cls-10" d="M250.56,51.36a1.91,1.91,0,1,1-1.91-1.9A1.9,1.9,0,0,1,250.56,51.36Z"/><path class="cls-10" d="M267.12,61.19a1.74,1.74,0,1,1-1.74-1.74A1.74,1.74,0,0,1,267.12,61.19Z"/><path class="cls-10" d="M256.91,31.71a1.35,1.35,0,1,1-1.35-1.35A1.35,1.35,0,0,1,256.91,31.71Z"/><circle class="cls-10" cx="235.91" cy="33.04" r="1.35"/><path class="cls-10" d="M264.08,26.14a1.35,1.35,0,1,1-1.35-1.35A1.36,1.36,0,0,1,264.08,26.14Z"/><circle class="cls-10" cx="272.29" cy="40.74" r="2.39"/><path class="cls-10" d="M312.14,86.94a1.35,1.35,0,1,1-1.35-1.35A1.35,1.35,0,0,1,312.14,86.94Z"/><path class="cls-10" d="M304.17,42.34A1.35,1.35,0,1,1,302.82,41,1.34,1.34,0,0,1,304.17,42.34Z"/><path class="cls-10" d="M381.44,90.4a1.35,1.35,0,1,1-1.35-1.35A1.35,1.35,0,0,1,381.44,90.4Z"/><path class="cls-10" d="M367.9,95.44a1.35,1.35,0,1,1-1.35-1.35A1.35,1.35,0,0,1,367.9,95.44Z"/><path class="cls-10" d="M349.49,100.24a1.8,1.8,0,1,1-1.8-1.8A1.79,1.79,0,0,1,349.49,100.24Z"/><path class="cls-10" d="M266.15,47.47a.94.94,0,1,1-.94-.93A.94.94,0,0,1,266.15,47.47Z"/><path class="cls-10" d="M235.31,55.26a.94.94,0,1,1-.94-.93A.94.94,0,0,1,235.31,55.26Z"/><path class="cls-10" d="M221.06,41.36a2,2,0,1,1-2-2A2,2,0,0,1,221.06,41.36Z"/><path class="cls-10" d="M221.71,58a.94.94,0,1,1-.94-.94A.94.94,0,0,1,221.71,58Z"/><path class="cls-10" d="M235.52,40.74a.94.94,0,1,1-.94-.94A.94.94,0,0,1,235.52,40.74Z"/><circle class="cls-10" cx="254.89" cy="61.19" r="0.94"/><path class="cls-10" d="M281.19,55.08a.94.94,0,1,1-.94-.94A.94.94,0,0,1,281.19,55.08Z"/><path class="cls-10" d="M279.1,75.6a.94.94,0,1,1-.94-.93A.94.94,0,0,1,279.1,75.6Z"/><path class="cls-10" d="M220.5,84.53a.94.94,0,1,1-.93-.94A.94.94,0,0,1,220.5,84.53Z"/><path class="cls-10" d="M290.48,89.33a.94.94,0,1,1-.93-.93A.94.94,0,0,1,290.48,89.33Z"/><circle class="cls-10" cx="251.7" cy="150.59" r="0.94"/><path class="cls-10" d="M287.1,36a.74.74,0,1,1-.74-.73A.74.74,0,0,1,287.1,36Z"/><path class="cls-10" d="M314.44,56.14a.74.74,0,1,1-.73-.73A.74.74,0,0,1,314.44,56.14Z"/><path class="cls-10" d="M343.92,56.94a.74.74,0,1,1-.74-.74A.74.74,0,0,1,343.92,56.94Z"/><path class="cls-10" d="M382.15,65.7a.74.74,0,1,1-.73-.74A.74.74,0,0,1,382.15,65.7Z"/><path class="cls-10" d="M388,73.67a.74.74,0,1,1-.74-.74A.74.74,0,0,1,388,73.67Z"/><path class="cls-10" d="M370.87,109.51a.74.74,0,1,1-.74-.73A.74.74,0,0,1,370.87,109.51Z"/><path class="cls-10" d="M337.41,74.46a.74.74,0,1,1-.73-.73A.74.74,0,0,1,337.41,74.46Z"/><path class="cls-10" d="M299.38,91.45a.74.74,0,1,1-.74-.74A.74.74,0,0,1,299.38,91.45Z"/><path class="cls-10" d="M293.73,104a.74.74,0,1,1-.73-.74A.74.74,0,0,1,293.73,104Z"/><path class="cls-11" d="M400.54,30.71v7.22a5.75,5.75,0,1,1,0,11.5v16a99.93,99.93,0,0,0,4.1-10.13,12.65,12.65,0,0,0-4.1-24.6Z"/><path class="cls-12" d="M400.54,49.43a5.75,5.75,0,0,1,0-11.5h0V30.71h0a12.64,12.64,0,0,0-4.16,24.58,96,96,0,0,0,4.19,10.15v-16Z"/><path class="cls-11" d="M367.77,72.72v7.21a5.76,5.76,0,0,1,0,11.51v16a101,101,0,0,0,4.09-10.14,12.64,12.64,0,0,0-4.09-24.59Z"/><path class="cls-12" d="M367.76,91.44a5.76,5.76,0,0,1,0-11.51h0V72.72h0a12.65,12.65,0,0,0-4.16,24.59,94.75,94.75,0,0,0,4.2,10.15v-16Z"/></svg>