<svg id="Layer" xmlns="http://www.w3.org/2000/svg" viewBox="0 0 407.03 224.47"><defs><style>.cls-1,.cls-5{opacity:0.4;}.cls-2,.cls-3,.cls-4,.cls-5,.cls-6{fill:#43687a;isolation:isolate;}.cls-2{opacity:0.1;}.cls-3{opacity:0.2;}.cls-4{opacity:0.3;}.cls-6{opacity:0.5;}.cls-7{fill:#9dbbc9;}.cls-8{fill:#709cb1;}.cls-9{fill:#84aabb;}.cls-10{fill:#3d5f6f;}.cls-11{fill:#d32f2f;}.cls-12{fill:#c62828;}</style></defs><g class="cls-1"><polygon class="cls-2" points="84.46 61.98 75.17 33.31 83.4 18.7 84.46 61.98"/><polygon class="cls-3" points="64.21 79.21 70.46 77.25 57.91 39.02 64.21 79.21"/><polygon class="cls-4" points="106.76 12.15 95.84 27.97 83.81 18.61 106.76 12.15"/><polygon class="cls-5" points="169.83 1.31 148.32 19.37 142.48 9.54 169.83 1.31"/><polygon class="cls-2" points="43.7 37.69 21.4 62.78 43.19 52.12 43.7 37.69"/><polygon class="cls-3" points="80.27 70.85 21.27 62.78 79.42 52.56 80.27 70.85"/><polygon class="cls-4" points="57.75 39.51 56.12 65.5 99.73 55.94 57.75 39.51"/><polygon class="cls-4" points="26.64 15.12 43.97 18.7 9.92 21.69 26.64 15.12"/><polygon class="cls-5" points="50.34 81.5 45.17 93.32 35.08 96.77 50.34 81.5"/><polygon class="cls-5" points="64.28 92.92 68.68 88.58 76.03 96.37 64.28 92.92"/><polygon class="cls-5" points="54.53 27.66 67.27 18.9 57.71 38.42 54.53 27.66"/><polygon class="cls-5" points="105.71 147.48 81.94 119.74 73.58 153.59 105.71 147.48"/><polygon class="cls-4" points="117.66 150.98 81.94 119.74 91.57 149.98 117.66 150.98"/><polygon class="cls-4" points="89.24 213.33 97.51 159.79 104.97 161.72 89.24 213.33"/><polygon class="cls-4" points="36.4 26.67 83.4 18.7 75.17 33.31 36.4 26.67"/><polygon class="cls-2" points="117.12 4.9 127.04 1.01 128.81 10.21 117.12 4.9"/><polygon class="cls-3" points="56.17 65.41 29.14 90.8 43.37 52.16 56.17 65.41"/><polygon class="cls-4" points="79.42 52.56 67.47 47.98 100.3 47.8 79.42 52.56"/><polygon class="cls-5" points="81.28 159.7 83.4 179.88 92.16 169.79 81.28 159.7"/><polygon class="cls-5" points="121.11 166.6 105.71 147.48 111.81 173.24 121.11 166.6"/><polygon class="cls-2" points="58.87 94.99 57.07 102.08 29.39 90.89 58.87 94.99"/><polygon class="cls-4" points="174.74 84.55 185.89 103.14 154.56 95.97 174.74 84.55"/><polygon class="cls-5" points="174.08 41.41 181.25 57.74 182.84 45.92 174.08 41.41"/><polygon class="cls-3" points="220.28 47.51 227.32 40.74 203.55 51.23 220.28 47.51"/><polygon class="cls-2" points="206.87 150.4 205.81 125.98 236.08 157.31 206.87 150.4"/><polygon class="cls-5" points="215.9 105.8 205.81 125.98 248.03 103.94 215.9 105.8"/><polygon class="cls-4" points="220.68 61.45 235.15 55.08 233.16 75.53 220.68 61.45"/><polygon class="cls-3" points="200.9 42.2 203.55 51.23 195.32 62.38 200.9 42.2"/><polygon class="cls-2" points="351.05 27.73 240.86 35.96 258.12 42.34 351.05 27.73"/><polygon class="cls-5" points="321.58 95.17 302.72 99.69 291.57 74.46 321.58 95.17"/><polygon class="cls-3" points="190.81 32.91 227.32 40.74 217.76 26.14 190.81 32.91"/><polygon class="cls-2" points="210.72 31.58 217.76 26.14 220.28 47.51 210.72 31.58"/><polygon class="cls-3" points="181.39 57.2 166.04 66.48 176.75 66.4 181.39 57.2"/><polygon class="cls-4" points="227.32 40.74 183.11 46.05 189.35 55.35 227.32 40.74"/><polygon class="cls-2" points="258.12 42.34 227.32 40.74 268.74 56.14 258.12 42.34"/><polygon class="cls-3" points="205.81 125.98 185.89 103.14 192.8 87.74 205.81 125.98"/><polygon class="cls-6" points="189.43 75.22 193.05 87.58 186.12 103.04 189.43 75.22"/><polygon class="cls-2" points="311.22 118.28 325.03 109.65 321.58 95.31 311.22 118.28"/><polygon class="cls-4" points="345.24 170.94 372.16 188.51 368.24 173.25 345.24 170.94"/><polygon class="cls-6" points="307.84 121.26 316.2 138.19 321.97 134.21 307.84 121.26"/><polygon class="cls-4" points="241.12 35.96 287.59 30.12 308.83 39.15 241.12 35.96"/><polygon class="cls-2" points="189.21 55.48 181.23 57.44 189.74 40.61 189.21 55.48"/><polygon class="cls-2" points="227.32 40.74 210.72 31.58 200.9 42.2 227.32 40.74"/><polygon class="cls-3" points="220.28 55.74 224.79 51.36 215.5 52.42 220.28 55.74"/><polygon class="cls-4" points="275.11 101.02 282.54 115.36 291.57 74.2 275.11 101.02"/><polygon class="cls-2" points="212.05 90.79 215.43 105.73 198.91 109.11 212.05 90.79"/></g><path class="cls-7" d="M22.38,73.85,43.57,51.42,39.85,66.19Zm20.43-21L24,72.7l15.49-6.8Z"/><path class="cls-7" d="M30.26,82.82l-7.58-9.73,35.06-8.37Zm-6.54-9.36L30.39,82,54.57,66.09Z"/><path class="cls-7" d="M23.18,74.22l-2.25-11.6v-.06L30,45.22ZM21.34,62.68l1.88,9.65,5.72-24.12Z"/><path class="cls-7" d="M50.3,82.16,42.83,51.48l14,13.91Zm-6.75-29.4,6.84,28.08,6-15.35Z"/><path class="cls-7" d="M20.58,63.4,43.92,37.14l-.54,15.1ZM43.49,38.23,22.22,62.16,43,52Z"/><path class="cls-7" d="M40.1,67.48,29.18,46.74,36.58,25ZM29.82,46.69l9.44,17.92-3-36.75Z"/><path class="cls-7" d="M42.51,52.45l15.4-13.7L67.7,47.5Zm15.4-13.17-14,12.5,23-4.52Z"/><path class="cls-7" d="M80.36,71.09,40.74,51.23,84.62,61.71ZM45.63,53,80,70.27l3.71-8.15Z"/><path class="cls-7" d="M70.55,77.58l-15-12.31L79.77,52.13ZM56.27,65.34l14.1,11.58L79,53Z"/><path class="cls-7" d="M66.8,47.82l8.38-15.28L84,39.66Zm8.5-14.67L67.74,46.94l15.49-7.37Z"/><path class="cls-7" d="M30,82.63l9.69-17,11.05,16Zm9.72-16.21-9,15.78L50,81.32Z"/><path class="cls-7" d="M43.9,38.35l-7.75-12,8-8.17ZM36.66,26.43,43.52,37l.24-17.83Z"/><path class="cls-7" d="M43.25,52.67l-16.16-20,28.36-4.56Zm-15-19.61L43.13,51.57,54.4,28.85Z"/><path class="cls-7" d="M44.22,38,16,30.37,26.64,14.78ZM16.61,30.14l26.59,7.2L26.65,15.46Z"/><path class="cls-7" d="M57.94,38.63l-14.57-.76,12.08-21ZM44,37.51l13.45.7-2.3-20.08Z"/><path class="cls-7" d="M75.69,35.3,66.94,18.92l3.82-9.65ZM67.6,18.88l6.78,12.7L70.56,11.41Z"/><path class="cls-7" d="M84.19,18.69,59.32,14l11.36-3.86.08,0ZM60.88,13.87l21.34,4.05L70.63,10.56Z"/><path class="cls-7" d="M57.67,39,54.29,27.58l13.49-9.27ZM54.76,27.75l3,10.12,9-18.37Z"/><path class="cls-7" d="M67.65,49,55.4,16.6,68,19.54v.16ZM56,17.19,67.28,46.93l.38-27.07Z"/><path class="cls-7" d="M8.56,22l18.07-7.1h.06l18.65,3.86Zm18.1-6.68-15.39,6L42.6,18.57Z"/><path class="cls-7" d="M1.3,36.55,3,26.62,17,30.21Zm2-9.44-1.5,8.8L15.66,30.3Z"/><path class="cls-7" d="M2.55,27.08l7.32-5.6H10L36.44,26.2v.39ZM10,21.9,3.75,26.66l30.56-.43Z"/><path class="cls-7" d="M54.68,28.06,43.51,18.57,56,16.68ZM44.43,18.83l9.94,8.44,1.12-10.12Z"/><path class="cls-7" d="M83.09,39.82,95.94,27.6l3.74,11.92ZM95.75,28.33,84.11,39.41l15-.27Z"/><path class="cls-7" d="M67.92,19.89l-.14-.37,34.43-16L94,12.75h-.06Zm32.7-15.17L70.1,18.88l23.63-6.46Z"/><path class="cls-7" d="M93.38,12.81l8.06-9,5.69,8.54Zm8-8.36-7.09,7.93,12.1-.42Z"/><path class="cls-7" d="M92.53,12.84l24.91-8.63-10.61,8.14h-.06Zm22.71-7.45-20.09,7,11.54-.4Z"/><path class="cls-7" d="M116.37,5h0l-14.92-.66v-.4L128.81.59ZM103.82,4l12.49.56,9-3.17Z"/><path class="cls-7" d="M83.21,18.55l-.11-.08-13-8.23,32.07-6.47Zm-12-8.11,12,7.62L100.62,4.49Z"/><path class="cls-7" d="M74.27,34.19l8.51-15.5,12.07-6.9ZM83,19,76.2,31.5,92.83,13.4Z"/><path class="cls-7" d="M95.89,28.25,83.38,18.52l23.86-6.71ZM84.25,18.69l11.55,9L106.28,12.5Z"/><path class="cls-7" d="M95.68,28.24,93.6,12.3l23.1,8.31Zm-1.6-15.35L96,27.7l19.52-7.08Z"/><path class="cls-7" d="M108.57,32.6l-2.41-20.48,10.36,8.43Zm-1.65-19.09,2,17.4,6.75-10.23Z"/><path class="cls-7" d="M109.21,32.65,93.58,12.59l7.93-8.87Zm-15.11-20,14.22,18.26-7-26.32Z"/><path class="cls-7" d="M114.64,41.64,99.26,39.51,95.47,27.44ZM99.56,39.15,113.15,41,96.22,28.49Z"/><path class="cls-7" d="M109.09,49.66l-9-1.7-1-9.21Zm-8.61-2L108,49.05,99.7,39.91Z"/><path class="cls-7" d="M84.62,61.63,79,52.29l21.61,3.45Zm-4.81-8.81,5,8.32L99,55.89Z"/><path class="cls-7" d="M100,56.26,82.84,39.56l17.67,8.11ZM84.78,40.88l14.9,14.49.41-7.45Z"/><path class="cls-7" d="M54.53,66.28,84.26,39.55,79.58,52.7h-.07ZM83.36,40.89,57.3,64.33l22-11.91Z"/><path class="cls-7" d="M79.4,52.77l-13-5,35.7-.19Zm-10.87-4.6,10.9,4.18L98.49,48Z"/><path class="cls-7" d="M84.93,62.73,66.74,47.07l17-7.76ZM67.47,47.18l17,14.64-1.06-21.9Z"/><path class="cls-7" d="M70.21,77.78,66.88,46.39,80.61,70.77ZM67.78,49.2,70.7,76.73l9.12-6.14Z"/><path class="cls-7" d="M64,79.47,57.69,39.05l.39-.1L70.69,77.38ZM58.47,41.41,64.37,79l5.84-1.83Z"/><path class="cls-7" d="M68.34,89.77l-4.4-10.69L70.71,77ZM64.47,79.33l3.72,9,2-10.83Z"/><path class="cls-7" d="M34.33,97.23,51,80.61,45.31,93.48ZM49.74,82.39,35.82,96.3,45,93.16Z"/><path class="cls-7" d="M29.32,91.52,22.61,72.2l7.92,10.16ZM23.78,74.35,29.15,89.8l1-7.32Z"/><path class="cls-7" d="M35,97,30,81.87,45.59,93.38ZM30.71,83,35.2,96.56l9.54-3.26Z"/><path class="cls-7" d="M47.58,102.69l-13-6L45.35,93Zm-12-5.9L47,102l-2-8.41Z"/><path class="cls-7" d="M46.57,102.58,59.3,94.19l-2,7.81Zm12.08-7.49-10.64,7,9-.49Z"/><path class="cls-7" d="M60.59,114,56.8,101.46l6.12,2.63Zm-3.16-11.84,3.11,10.3,1.92-8.14Z"/><path class="cls-7" d="M61.8,114.5l-14.69-12-2.35-10ZM47.47,102.23,59.33,112,45.57,94.16Z"/><path class="cls-7" d="M69.09,115.71l-8.68-2.32v-.1L56.64,101Zm-8.37-2.64L68,115,57.58,102.68Z"/><path class="cls-7" d="M50,81.75l6-16.24,8.52,13.85Zm6.06-15.33L50.65,81.25l13.23-2.19Z"/><path class="cls-7" d="M142.44,10.88,126,.69l22.78.47ZM128.12,1.33l14.14,8.73,5.39-8.33Z"/><path class="cls-7" d="M129,10.55,116.61,4.88,127.19.74Zm-11.4-5.64,10.91,5-1.65-8.59Z"/><path class="cls-7" d="M125.28,21.84,128.65,10h.15l14.49-.56ZM129,10.4l-3,10.48,16-11Z"/><path class="cls-7" d="M132.25,31l-7.08-9.91,13,2.55ZM126,21.65l6.2,8.67,5.2-6.44Z"/><path class="cls-7" d="M137.49,24.14l5.07-14.93,5.91,9.58Zm5.18-14-4.49,13.22,9.72-4.74Z"/><path class="cls-7" d="M163.38,11.81,147.55,1.26,170.33.71ZM148.82,1.63l14.44,9.62L169.6,1.12Z"/><path class="cls-7" d="M148.08,19.1l-6-9.75,22.08,1.15ZM143.17,10l5.13,8.31L162,11Z"/><path class="cls-7" d="M137.45,24.27l5-14.75h.09L171.12.33Zm5.32-14.44-4.55,13.4L168.8,1.49Z"/><path class="cls-7" d="M29.44,47.53,27,33.1l9.62-6.85Zm-2-14.25L29.56,45.9l6.26-18.61Z"/><path class="cls-7" d="M2.7,36a1.35,1.35,0,1,1-1.35-1.35h0A1.34,1.34,0,0,1,2.7,36Z"/><path class="cls-7" d="M4.56,27.2a1.35,1.35,0,1,1-1.35-1.35h0a1.34,1.34,0,0,1,1.35,1.33Z"/><path class="cls-7" d="M17.57,30.65a1.35,1.35,0,1,1-1.35-1.35h0a1.34,1.34,0,0,1,1.35,1.33Z"/><circle class="cls-7" cx="27.38" cy="33.04" r="1.35"/><path class="cls-8" d="M30.85,46.58a1.35,1.35,0,1,1-1.35-1.35h0a1.34,1.34,0,0,1,1.35,1.33Z"/><path class="cls-7" d="M45.19,37.82a1.35,1.35,0,1,1-1.35-1.35h0A1.34,1.34,0,0,1,45.19,37.82Z"/><path class="cls-7" d="M76.52,33.31A1.35,1.35,0,1,1,75.13,32h0A1.35,1.35,0,0,1,76.52,33.31Z"/><circle class="cls-7" cx="83.8" cy="39.68" r="1.35"/><path class="cls-7" d="M97.36,28.26A1.35,1.35,0,1,1,96,26.91h0a1.34,1.34,0,0,1,1.33,1.35Z"/><path class="cls-7" d="M56.27,28.06a1.35,1.35,0,1,1-1.35-1.35h0A1.34,1.34,0,0,1,56.27,28Z"/><path class="cls-7" d="M68.42,47.58A1.35,1.35,0,1,1,67,46.23a1.35,1.35,0,0,1,1.39,1.35Z"/><path class="cls-7" d="M44.72,52.16a1.35,1.35,0,1,1-1.35-1.35h0A1.34,1.34,0,0,1,44.72,52.16Z"/><path class="cls-7" d="M41.14,66.1a1.35,1.35,0,1,1-1.35-1.35h0A1.34,1.34,0,0,1,41.14,66.1Z"/><circle class="cls-7" cx="56.12" cy="65.5" r="1.35"/><path class="cls-7" d="M101.08,55.94a1.35,1.35,0,1,1-1.35-1.35,1.34,1.34,0,0,1,1.35,1.35Z"/><path class="cls-7" d="M101.68,48a1.35,1.35,0,1,1-1.35-1.35A1.37,1.37,0,0,1,101.68,48Z"/><path class="cls-7" d="M109.44,49.77a1.35,1.35,0,1,1-1.35-1.35h0a1.34,1.34,0,0,1,1.34,1.34Z"/><path class="cls-7" d="M115.28,41.57a1.35,1.35,0,1,1-1.35-1.35A1.37,1.37,0,0,1,115.28,41.57Z"/><path class="cls-7" d="M109.94,31.34A1.35,1.35,0,1,1,108.58,30h0A1.36,1.36,0,0,1,109.94,31.34Z"/><path class="cls-7" d="M100.88,39.61a1.35,1.35,0,1,1-1.35-1.35,1.34,1.34,0,0,1,1.35,1.35Z"/><path class="cls-7" d="M59.26,38.82a1.35,1.35,0,1,1-1.35-1.35h0A1.34,1.34,0,0,1,59.26,38.82Z"/><path class="cls-7" d="M80.77,52.56a1.35,1.35,0,1,1-1.35-1.35h0A1.37,1.37,0,0,1,80.77,52.56Z"/><circle class="cls-7" cx="36.4" cy="26.67" r="1.35"/><path class="cls-7" d="M11.47,22.16a1.35,1.35,0,1,1-1.35-1.35h0A1.34,1.34,0,0,1,11.47,22.16Z"/><path class="cls-7" d="M27.93,15.52a1.35,1.35,0,1,1-1.35-1.35h0A1.37,1.37,0,0,1,27.93,15.52Z"/><path class="cls-7" d="M45.45,19a1.35,1.35,0,1,1-1.35-1.35h0A1.34,1.34,0,0,1,45.45,19Z"/><path class="cls-7" d="M57.14,17.11a1.35,1.35,0,1,1-1.35-1.35h0A1.34,1.34,0,0,1,57.14,17.11Z"/><path class="cls-8" d="M69.08,19.5a1.35,1.35,0,1,1-1.35-1.35h0a1.34,1.34,0,0,1,1.34,1.34Z"/><path class="cls-7" d="M61.92,13.92a1.35,1.35,0,1,1-1.35-1.35h0A1.34,1.34,0,0,1,61.92,13.92Z"/><path class="cls-7" d="M72,10.74a1.35,1.35,0,1,1-1.35-1.35h0A1.37,1.37,0,0,1,72,10.74Z"/><path class="cls-7" d="M84.75,18.7a1.35,1.35,0,1,1-1.35-1.35,1.34,1.34,0,0,1,1.35,1.35Z"/><path class="cls-7" d="M95.5,12.53a1.35,1.35,0,1,1-1.35-1.35h0a1.34,1.34,0,0,1,1.34,1.34Z"/><path class="cls-8" d="M108.12,12.56a1.35,1.35,0,1,1-1.35-1.35,1.34,1.34,0,0,1,1.35,1.35Z"/><circle class="cls-7" cx="116.26" cy="20.89" r="1.35"/><path class="cls-7" d="M102.67,4.56a1.35,1.35,0,1,1-1.36-1.34h0a1.34,1.34,0,0,1,1.35,1.33Z"/><path class="cls-7" d="M128.36,1.38A1.35,1.35,0,1,1,127,0a1.34,1.34,0,0,1,1.33,1.38Z"/><path class="cls-7" d="M118.21,5a1.35,1.35,0,1,1-1.35-1.35A1.34,1.34,0,0,1,118.21,5Z"/><path class="cls-7" d="M130.35,10.34A1.35,1.35,0,1,1,129,9h0A1.36,1.36,0,0,1,130.35,10.34Z"/><path class="cls-7" d="M126.89,21.56a1.35,1.35,0,1,1-1.35-1.35A1.37,1.37,0,0,1,126.89,21.56Z"/><path class="cls-8" d="M133.51,31.16a1.35,1.35,0,1,1-1.35-1.35A1.37,1.37,0,0,1,133.51,31.16Z"/><path class="cls-7" d="M139.47,24.07a1.35,1.35,0,1,1-1.35-1.35,1.34,1.34,0,0,1,1.35,1.35Z"/><path class="cls-7" d="M149.67,19.3a1.35,1.35,0,1,1-1.4-1.3h0A1.33,1.33,0,0,1,149.67,19.3Z"/><circle class="cls-7" cx="163.26" cy="11.14" r="1.35"/><path class="cls-7" d="M171.19,1.35A1.35,1.35,0,1,1,169.84,0a1.34,1.34,0,0,1,1.35,1.35Z"/><path class="cls-7" d="M149.47,1.58A1.35,1.35,0,1,1,148.12.23a1.34,1.34,0,0,1,1.35,1.35Z"/><path class="cls-7" d="M144.1,9.94a1.35,1.35,0,1,1-1.35-1.35,1.34,1.34,0,0,1,1.35,1.35Z"/><path class="cls-7" d="M22.62,62.78a1.35,1.35,0,1,1-1.35-1.35h0A1.34,1.34,0,0,1,22.62,62.78Z"/><path class="cls-7" d="M24.74,73.4a1.35,1.35,0,1,1-1.35-1.35h0a1.34,1.34,0,0,1,1.35,1.33Z"/><circle class="cls-7" cx="29.23" cy="90.66" r="1.35"/><circle class="cls-7" cx="30.3" cy="82.43" r="1.35"/><circle class="cls-7" cx="35.34" cy="96.77" r="1.35"/><path class="cls-7" d="M48.64,102.34A1.35,1.35,0,1,1,47.28,101h0a1.34,1.34,0,0,1,1.35,1.33Z"/><circle class="cls-7" cx="59.11" cy="94.98" r="1.35"/><path class="cls-7" d="M58.66,102a1.35,1.35,0,1,1-1.35-1.35h0A1.34,1.34,0,0,1,58.66,102Z"/><path class="cls-7" d="M64.44,104.53a1.35,1.35,0,1,1-1.36-1.34h0A1.36,1.36,0,0,1,64.44,104.53Z"/><path class="cls-7" d="M61.65,113.3A1.35,1.35,0,1,1,60.3,112h0A1.34,1.34,0,0,1,61.65,113.3Z"/><path class="cls-7" d="M69.81,115.69a1.35,1.35,0,1,1-1.35-1.35h0A1.36,1.36,0,0,1,69.81,115.69Z"/><path class="cls-7" d="M46.78,93.05a1.35,1.35,0,1,1-1.35-1.35,1.34,1.34,0,0,1,1.35,1.35Z"/><path class="cls-7" d="M51.83,81.63a1.35,1.35,0,1,1-1.35-1.35h0A1.34,1.34,0,0,1,51.83,81.63Z"/><circle class="cls-7" cx="64.02" cy="79.24" r="1.35"/><circle class="cls-7" cx="68.53" cy="88.54" r="1.35"/><circle class="cls-7" cx="70.39" cy="77.38" r="1.35"/><path class="cls-7" d="M81.56,70.75a1.35,1.35,0,1,1-1.35-1.35h0A1.36,1.36,0,0,1,81.56,70.75Z"/><circle class="cls-7" cx="84.46" cy="61.98" r="1.35"/><path class="cls-9" d="M17.57,30.65a1.35,1.35,0,1,1-1.35-1.35h0a1.34,1.34,0,0,1,1.35,1.33Z"/><path class="cls-9" d="M45.19,37.82a1.35,1.35,0,1,1-1.35-1.35h0A1.34,1.34,0,0,1,45.19,37.82Z"/><circle class="cls-9" cx="83.8" cy="39.68" r="1.35"/><path class="cls-9" d="M97.36,28.26A1.35,1.35,0,1,1,96,26.91h0a1.34,1.34,0,0,1,1.33,1.35Z"/><path class="cls-9" d="M44.72,52.16a1.35,1.35,0,1,1-1.35-1.35h0A1.34,1.34,0,0,1,44.72,52.16Z"/><circle class="cls-9" cx="56.12" cy="65.5" r="1.35"/><path class="cls-9" d="M115.28,41.57a1.35,1.35,0,1,1-1.35-1.35A1.37,1.37,0,0,1,115.28,41.57Z"/><path class="cls-9" d="M109.94,31.34A1.35,1.35,0,1,1,108.58,30h0A1.36,1.36,0,0,1,109.94,31.34Z"/><path class="cls-9" d="M59.26,38.82a1.35,1.35,0,1,1-1.35-1.35h0A1.34,1.34,0,0,1,59.26,38.82Z"/><path class="cls-9" d="M45.45,19a1.35,1.35,0,1,1-1.35-1.35h0A1.34,1.34,0,0,1,45.45,19Z"/><path class="cls-9" d="M72,10.74a1.35,1.35,0,1,1-1.35-1.35h0A1.37,1.37,0,0,1,72,10.74Z"/><path class="cls-9" d="M84.75,18.7a1.35,1.35,0,1,1-1.35-1.35,1.34,1.34,0,0,1,1.35,1.35Z"/><path class="cls-9" d="M130.35,10.34A1.35,1.35,0,1,1,129,9h0A1.36,1.36,0,0,1,130.35,10.34Z"/><path class="cls-9" d="M149.67,19.3a1.35,1.35,0,1,1-1.4-1.3h0A1.33,1.33,0,0,1,149.67,19.3Z"/><path class="cls-9" d="M171.19,1.35A1.35,1.35,0,1,1,169.84,0a1.34,1.34,0,0,1,1.35,1.35Z"/><path class="cls-9" d="M144.1,9.94a1.35,1.35,0,1,1-1.35-1.35,1.34,1.34,0,0,1,1.35,1.35Z"/><circle class="cls-9" cx="29.23" cy="90.66" r="1.35"/><circle class="cls-9" cx="30.3" cy="82.43" r="1.35"/><circle class="cls-9" cx="59.11" cy="94.98" r="1.35"/><path class="cls-9" d="M58.66,102a1.35,1.35,0,1,1-1.35-1.35h0A1.34,1.34,0,0,1,58.66,102Z"/><path class="cls-9" d="M51.83,81.63a1.35,1.35,0,1,1-1.35-1.35h0A1.34,1.34,0,0,1,51.83,81.63Z"/><path class="cls-9" d="M81.56,70.75a1.35,1.35,0,1,1-1.35-1.35h0A1.36,1.36,0,0,1,81.56,70.75Z"/><path class="cls-9" d="M58.18,39l-.29-.06L15.81,30.69,44.15,18.82v.08ZM16.63,30.61l41,8L44,19.12Z"/><path class="cls-9" d="M56.15,65.58,43.27,52.29,58,38.52ZM43.61,52.3,56,65l1.82-25.92Z"/><path class="cls-9" d="M80.89,71.09,80.46,71,56.37,65.81v-.06L43.49,37.22l.43.38ZM56.53,65.6,80,70.67,44.18,38.16Z"/><path class="cls-9" d="M83.82,39.58l-.54-20.81,25.66,12.57Zm-.29-20.42L84,39.25l24.26-8Z"/><path class="cls-9" d="M114.85,42,95.44,27.9l13.26,3.35v.05ZM96.59,28.4l17.5,12.71-5.54-9.69Z"/><path class="cls-9" d="M84,40.15,70.5,10.26l.36.25L96.2,28.11l-.1.11ZM71,11,84,39.74l11.8-11.59Z"/><path class="cls-9" d="M56.55,39.51l26.71-21L96.69,28.3Zm26.73-20.3-24,18.92L95.34,28Z"/><path class="cls-9" d="M148.29,19.55l-6-10.08h.15L170.35,1Zm-5.63-9.94,5.69,9.58,21-17.6Z"/><path class="cls-9" d="M57.15,102.25,28.45,90.64,59,94.89ZM30.33,91.14,57,101.92l1.73-6.83Z"/><path class="cls-9" d="M29.09,90.85l1.1-8.54h.1l20.83-.82Zm1.31-8.31-1,7.93,20.43-8.69Z"/><path class="cls-9" d="M28.85,91.24l14.48-39.3.13.14L56.34,65.41ZM43.42,52.38l-14,38L56,65.38Z"/><path class="cls-7" d="M69.69,124.32l1.72-8.59h0l7.38-6.53h.1l11.34,3.18Zm2.08-8.38-1.52,7.6,19-11-10.33-2.9Z"/><path class="cls-7" d="M82.25,120.06,71.34,116,79,109Zm-10.16-4.25,9.55,3.6-2.85-9.67Z"/><path class="cls-7" d="M78.18,131.37l-8.57-7.73,12.65-4.22Zm-7.8-7.57L78,130.67l3.62-10.62Z"/><path class="cls-7" d="M98.24,120.48l-16.79-.56,8.33-7.76Zm-15.81-.93,14.81.5-7.47-7.34Z"/><path class="cls-7" d="M98.69,130.17l-1.17-10.1h5.71Zm-.73-9.7,1,8.22,3.69-8.22Z"/><path class="cls-7" d="M73.26,154.18,78,130.57l8.75,10.56Zm4.94-22.71L73.9,153l12.28-11.9Z"/><path class="cls-7" d="M74,155.22l-9.58-18.74,5.66-13.95ZM65.1,136.45l8,15.55-3.25-27.1Z"/><path class="cls-7" d="M106.1,148,77.27,130.46l21.67-1.2,0,.14ZM78.57,130.79,105.31,147l-6.64-17.38Z"/><path class="cls-7" d="M93.75,154.27l-.1-.17L86,140.76l20.18,6.68Zm-6.86-12.81,7,12.27,11.31-6.2Z"/><path class="cls-7" d="M81.25,159.93,73,153.38l21.71.44Zm-7.09-6.13,7.15,5.67,11.63-5.29Z"/><path class="cls-7" d="M105.66,149l-3-29.64,6.07,10.12v.07Zm-2.45-27.9,2.54,24.79,2.54-16.33Z"/><path class="cls-7" d="M118.33,152.88,107.84,128.8l9.31,5.77Zm-9.18-22.56,8.36,19.2-.94-14.61Z"/><path class="cls-7" d="M117.45,151.69l7.65-14.9,4.24,8.39Zm7.65-14-6.71,13,10.42-5.7Z"/><path class="cls-7" d="M123.89,157l-7.34-22.57,8.76,2.64Zm-6.73-22,6.47,20,1.26-17.58Z"/><path class="cls-7" d="M106.69,163l23-18.65L124,156.12h-.07Zm21.81-17.2L109,161.66l14.65-5.86Z"/><path class="cls-7" d="M111,174.07l13.17-19.56-3.1,12.19Zm12.21-17.43-10.61,15.77,8.12-5.95Z"/><path class="cls-7" d="M107.69,162.8l-2.23-15.6,12.82,3.9Zm-1.74-15,2,14.14,9.59-10.6Z"/><path class="cls-7" d="M95.32,183.09l12.55-21.2L112,173.33l-.15.08Zm12.47-20.27L96.44,182l15.13-8.82Z"/><path class="cls-7" d="M103.59,193.5l-8.28-11.42,12.56,5.14ZM96.45,183l7.13,9.83,3.68-5.41Z"/><path class="cls-7" d="M107.65,187.71l-16-18.22L112,173.08Zm-15-17.63,14.79,16.83,4.08-13.51Z"/><path class="cls-7" d="M91.93,170.12l1.73-16.45,14.59,8.7ZM94,154.33l-1.59,15.13,15-7.13Z"/><path class="cls-7" d="M83.25,180.35,81,159.19l11.42,10.58ZM81.53,160.2l2,19.2,8.34-9.6Z"/><path class="cls-7" d="M83.1,193.8V179.51l13.44,2.86Zm.6-13.55v12.26l11.53-9.81Z"/><path class="cls-7" d="M89.16,213.48,83,192.59,97,204Zm-5.39-19.76,5.56,18.93,7.07-8.58Z"/><path class="cls-7" d="M96.5,204.69l-.84-22.8,8.16,11.26-.07.11Zm-.4-21.51.75,20.21,6.49-10.23Z"/><path class="cls-7" d="M103.27,222l-14.81-9.19,8.59.6v.07ZM90,213.32l11.74,7.28-4.93-6.81Z"/><path class="cls-7" d="M97.29,215.26,83.12,180l.54-.26L97,204Zm-11.77-30.9L96.6,211.94l-.22-7.82Z"/><path class="cls-7" d="M76.68,96.77,63.9,93l4.78-4.72Zm-12-4L75.38,96l-6.71-7.12Z"/><path class="cls-7" d="M84,99.2,75.7,96.45,67,87.28ZM76,96.14,81.6,98,70,89.88Z"/><circle class="cls-7" cx="83" cy="98.76" r="1.35"/><path class="cls-7" d="M77.45,96.5a1.35,1.35,0,1,1-1.35-1.35h0A1.34,1.34,0,0,1,77.45,96.5Z"/><path class="cls-8" d="M65.63,92.92a1.35,1.35,0,1,1-1.35-1.35h0A1.34,1.34,0,0,1,65.63,92.92Z"/><circle class="cls-7" cx="78.89" cy="109.38" r="1.35"/><path class="cls-7" d="M73,115.89a1.35,1.35,0,1,1-1.35-1.35h0A1.37,1.37,0,0,1,73,115.89Z"/><circle class="cls-8" cx="69.99" cy="123.72" r="1.35"/><path class="cls-7" d="M66.16,136.46a1.35,1.35,0,1,1-1.35-1.35,1.34,1.34,0,0,1,1.35,1.35Z"/><circle class="cls-7" cx="78.09" cy="131.02" r="1.35"/><circle class="cls-7" cx="81.94" cy="119.74" r="1.35"/><path class="cls-7" d="M91.12,112.43a1.35,1.35,0,1,1-1.35-1.35,1.34,1.34,0,0,1,1.35,1.35Z"/><path class="cls-7" d="M99.09,120.27a1.35,1.35,0,1,1-1.35-1.35A1.37,1.37,0,0,1,99.09,120.27Z"/><path class="cls-7" d="M104.27,120.27a1.35,1.35,0,1,1-1.35-1.35A1.37,1.37,0,0,1,104.27,120.27Z"/><path class="cls-7" d="M109.84,129.56a1.35,1.35,0,1,1-1.35-1.35,1.34,1.34,0,0,1,1.35,1.35Z"/><path class="cls-7" d="M100.15,129.43a1.35,1.35,0,1,1-1.35-1.35,1.34,1.34,0,0,1,1.35,1.35Z"/><path class="cls-7" d="M87.8,141.11a1.35,1.35,0,1,1-1.35-1.35h0a1.34,1.34,0,0,1,1.34,1.34Z"/><circle class="cls-7" cx="73.58" cy="153.59" r="1.35"/><circle class="cls-8" cx="81.28" cy="159.7" r="1.35"/><circle class="cls-7" cx="94.02" cy="154.39" r="1.35"/><circle class="cls-7" cx="105.71" cy="147.48" r="1.35"/><path class="cls-7" d="M118.21,134.74a1.35,1.35,0,1,1-1.35-1.35A1.37,1.37,0,0,1,118.21,134.74Z"/><path class="cls-7" d="M126.44,137.66a1.35,1.35,0,1,1-1.35-1.35A1.37,1.37,0,0,1,126.44,137.66Z"/><path class="cls-7" d="M130.42,145.09a1.35,1.35,0,1,1-1.35-1.35,1.34,1.34,0,0,1,1.35,1.35Z"/><path class="cls-7" d="M119.27,151.2a1.35,1.35,0,1,1-1.35-1.35,1.34,1.34,0,0,1,1.35,1.35Z"/><path class="cls-7" d="M125.11,156a1.35,1.35,0,1,1-1.35-1.35,1.34,1.34,0,0,1,1.35,1.35Z"/><path class="cls-7" d="M122.46,166.6a1.35,1.35,0,1,1-1.35-1.35,1.34,1.34,0,0,1,1.35,1.35Z"/><path class="cls-7" d="M109.18,162.35a1.35,1.35,0,1,1-1.35-1.35h0A1.34,1.34,0,0,1,109.18,162.35Z"/><circle class="cls-7" cx="111.81" cy="173.24" r="1.35"/><circle class="cls-7" cx="92.16" cy="169.79" r="1.35"/><path class="cls-7" d="M84.75,179.88a1.35,1.35,0,1,1-1.35-1.35,1.34,1.34,0,0,1,1.35,1.35Z"/><path class="cls-7" d="M97.23,182.53a1.35,1.35,0,1,1-1.35-1.35,1.34,1.34,0,0,1,1.35,1.35Z"/><circle class="cls-8" cx="107.56" cy="187.31" r="1.35"/><path class="cls-7" d="M104.93,193.15a1.35,1.35,0,1,1-1.35-1.35,1.34,1.34,0,0,1,1.35,1.35Z"/><path class="cls-7" d="M84.75,193.15a1.35,1.35,0,1,1-1.35-1.35,1.34,1.34,0,0,1,1.35,1.35Z"/><path class="cls-7" d="M98,204a1.35,1.35,0,1,1-1.35-1.35A1.34,1.34,0,0,1,98,204Z"/><circle class="cls-7" cx="89.24" cy="213.07" r="1.35"/><path class="cls-7" d="M98.29,213.6a1.35,1.35,0,1,1-1.35-1.35,1.34,1.34,0,0,1,1.35,1.35Z"/><circle class="cls-7" cx="102.52" cy="221.3" r="1.35"/><path class="cls-9" d="M86.15,141.73,81.48,119l17.79,10.22ZM82.34,120.2l4.18,20.36,11.76-11.2Z"/><path class="cls-9" d="M73.5,153.74v-.18l8.31-33.84.15.17,23.82,27.55h-.2ZM82,120.22l-8.15,33.21,31.55-6.14Z"/><path class="cls-9" d="M107.66,162.67l-2.2-15.41h.12l24-2.56Zm-1.93-15.2,2.11,14.74L128.78,145Z"/><path class="cls-9" d="M95.79,182.75l-3.6-13.27h0l13.73-22.9Zm-3.34-13.24,3.34,12.34,9.45-33.66Z"/><path class="cls-9" d="M103.63,193.48l-11.47-24,.11,0,15.63-7.15v.22ZM92.48,169.56l11,23.09,4.1-30Z"/><path class="cls-9" d="M103.67,193.41l-8-11.09v-.06L106,146.41Zm-7.75-11.13,7.54,10.44,2.2-44.26Z"/><path class="cls-9" d="M108.15,162.67l-34.73-9,.15-.15L86.34,141Zm-34.26-9.15,33.46,8.69-21-20.9Z"/><path class="cls-9" d="M105.75,147.56v-.08l-7-18.07.28.14,30.63,15.38h-.4Zm-6.63-17.65,6.79,17.4,22.84-2.53Z"/><circle class="cls-9" cx="81.94" cy="119.74" r="1.35"/><path class="cls-8" d="M100.15,129.43a1.35,1.35,0,1,1-1.35-1.35,1.34,1.34,0,0,1,1.35,1.35Z"/><path class="cls-9" d="M87.8,141.11a1.35,1.35,0,1,1-1.35-1.35h0a1.34,1.34,0,0,1,1.34,1.34Z"/><circle class="cls-9" cx="73.58" cy="153.59" r="1.35"/><circle class="cls-9" cx="105.71" cy="147.48" r="1.35"/><path class="cls-9" d="M130.42,145.09a1.35,1.35,0,1,1-1.35-1.35,1.34,1.34,0,0,1,1.35,1.35Z"/><path class="cls-9" d="M109.18,162.35a1.35,1.35,0,1,1-1.35-1.35h0A1.34,1.34,0,0,1,109.18,162.35Z"/><circle class="cls-9" cx="92.16" cy="169.79" r="1.35"/><path class="cls-9" d="M97.23,182.53a1.35,1.35,0,1,1-1.35-1.35,1.34,1.34,0,0,1,1.35,1.35Z"/><path class="cls-9" d="M104.93,193.15a1.35,1.35,0,1,1-1.35-1.35,1.34,1.34,0,0,1,1.35,1.35Z"/><circle class="cls-9" cx="89.24" cy="213.07" r="1.35"/><path class="cls-10" d="M84.41,62.13,79.2,52.4l21,3.5Zm-4.77-9.41,4.88,9.11L99.29,56Z"/><path class="cls-10" d="M55.52,65.7l24-13.31,5.18,9.69h-.17Zm23.85-13L56.71,65.31l27.57-3.42Z"/><path class="cls-10" d="M45.48,93.25l-.13-.11L23.14,73.34h.22l33-8-.08.22ZM23.64,73.46,45.38,92.85,55.92,65.67Z"/><path class="cls-10" d="M56,65.65l1.65-26.31.15.06L100.14,56l-.38.08Zm1.86-26-1.6,25.67,43.07-9.44Z"/><path class="cls-10" d="M57.24,102l-11.9-8.91L21.18,62.86l.18-.16,36,39.16ZM45.52,93l10.83,8.11L23.48,65.36Z"/><path class="cls-10" d="M68.52,88.77l-.09-.18L55.89,65.33l.25.06,24.33,5.38-.1.15ZM56.35,65.68,68.54,88.3,80.08,70.93Z"/><path class="cls-10" d="M84.6,62.8,75,33.29l8.47-15v.43ZM75.3,33.32l9,27.85-1-42Z"/><path class="cls-10" d="M79.6,52.8l-.24-.14L35.8,26.44,75.27,33.2v.08ZM37,26.89,79.26,52.31,75,33.41Z"/><path class="cls-10" d="M75.23,33.44,35.69,26.67l.69-.12,47.25-8ZM37.12,26.67l38,6.51,8.06-14.32Z"/><path class="cls-10" d="M57.7,39.63,10.08,22.27l.06-.23,26.33,4.53L57.81,39.41ZM11.41,22.5,56.62,39,36.36,26.78Z"/><path class="cls-10" d="M84.1,62.26l.27-.35L109,30.68,99.83,56h0ZM108.23,32,84.83,61.71l14.81-5.86Z"/><path class="cls-10" d="M80.4,71h-.14L20.49,62.8l.76-.14L79.53,52.42ZM22,62.77l58.11,7.94-.84-18Z"/><path class="cls-10" d="M56.32,65.64h-.21l-35-2.73.07-.16L36.39,26.39l.12.23Zm-34.88-3,34.48,2.7L36.41,27Z"/><path class="cls-10" d="M80.29,71.08l-.12-.16L57.09,38.81,84.61,62v.09ZM58.4,40.22l21.85,30.4L84.32,62Z"/><path class="cls-10" d="M84.68,62.18l-14-4.78,7.79-9.85ZM71,57.28l13.2,4.5L78.39,48Z"/><path class="cls-10" d="M125.08,21.73l17.7-12,5.74,9.63h-.19Zm17.63-11.62L126,21.39l22.12-2.19Z"/><path class="cls-10" d="M79.27,52.82v-.28l4-34,.16.08,25.36,12.72ZM83.5,18.89,79.57,52.3l28.79-20.95Z"/><path class="cls-10" d="M73.42,153.74v-.18l8.42-34.08.15.18,23.9,27.9h-.2ZM82,120l-8.26,33.45,31.74-6Z"/><path class="cls-10" d="M111.74,173.44v-.17L105.47,147l15.81,19.62-.1.08ZM105.94,148l6,25.07,9-6.46Z"/><path class="cls-10" d="M103.7,193.7l-.18-.11L83.39,180.26l.07-.1,22.38-33.1Zm-20-13.51,19.76,13.08,2.09-45.37Z"/><path class="cls-10" d="M122.11,167l-17.22-5.22-14.26-12.5ZM105,161.61l15.07,4.56L92.51,150.65Z"/><path class="cls-10" d="M112.35,173.91,97.09,159.55l8,2.07h0ZM97.93,160l13.35,12.55-6.39-10.75Z"/><path class="cls-10" d="M111.9,173.52l-.18-.2L91.19,149.73l22.75,7.63v.09Zm-20-23.29L111.73,173l2-15.44Z"/><path class="cls-10" d="M103.64,193.67l-.12-.08-20.81-13.9.27-.06,29-6.56ZM83.3,179.8l20.23,13.51,8.09-19.9Z"/><path class="cls-10" d="M112.14,173.54,73,153.44l27.71,1.49V155Zm-38-19.8,37.36,19.2-10.9-17.77Z"/><path class="cls-10" d="M89.34,213.4l-.21-.12L117.82,151l.22.09L104.21,193Zm27.81-60.34L89.86,212.28,104,192.83Z"/><path class="cls-10" d="M108.56,159.65l-3-12.34.2.06,12.4,3.63Zm-2.69-12,2.82,11.55,9-8.07Z"/><path class="cls-10" d="M118,151.11h-.34l-26.17-1V150l-9.76-30.66ZM91.7,149.86l25.66,1L82.22,120.12Z"/><path class="cls-10" d="M89.36,213.37l-.23-.06,8.28-53.67,7.71,2v.12Zm8.25-53.43-8,51.76,15.2-49.9Z"/><path class="cls-7" d="M165.4,44.33l9-11.63-.29,8.72ZM174,33.92l-7.47,9.62,7.23-2.41Z"/><path class="cls-7" d="M180,43.31l-6.3-1.89.19-9Zm-5.89-2.18,5.06,1.51-4.91-8.76Z"/><path class="cls-7" d="M173.24,46.25l.53-5.24,6.67,2.09Zm.88-4.71-.41,4.07,5.59-2.45Z"/><path class="cls-7" d="M181.7,57.93,172.87,50,183,45.61Zm-8.1-7.78,7.79,7,1.2-10.87Z"/><path class="cls-7" d="M176.83,67.61,166,57.48l10.05.17ZM167,57.89l9.32,8.73L175.69,58Z"/><path class="cls-7" d="M165.81,67l.52-9.46,10.15-.09Zm.9-9.07L166.26,66l9.17-8.2Z"/><path class="cls-7" d="M165.32,66.68l16.56-10-5,9.92Zm15.58-9-14.14,8.54,9.87-.07Z"/><path class="cls-7" d="M181.21,59l-2-16.6L183,45.86Zm-1.48-15.6,1.51,12.5,1.38-9.9Z"/><path class="cls-7" d="M195.2,54.81l-12.71-8.87,7.35-5.65Zm-12-8.89,11.22,7.84-4.73-12.83Z"/><path class="cls-7" d="M195.84,63,189,55l6-1.32Zm-6.13-7.79,5.62,6.58-.72-7.65Z"/><path class="cls-7" d="M193.82,68.62l1.34-7,6,.59Zm1.66-6.55-1,5.49,5.72-5Z"/><path class="cls-7" d="M180.85,57.74l9.13-18-.57,15.93Zm8.66-16.23L181.6,57.15,189,55.32Z"/><path class="cls-7" d="M191.1,33.46l-8.32-3.59,9.47-5Zm-7.4-3.62,7.08,3.05,1-7.32Z"/><path class="cls-7" d="M191.49,25.47l8.09-8.79,5.95,7.09Zm8.07-8.19L192.51,25l12.25-1.49Z"/><path class="cls-7" d="M197,37.53l-6.38-4.35,6.67-4.78Zm-5.68-4.36,5.3,3.62.24-7.6Z"/><path class="cls-7" d="M196.6,29.45l2.8-13.11,6.33,7.07Zm3.14-11.84-2.25,10.53,7.33-4.85Z"/><path class="cls-7" d="M218.33,26.41l-13.57-3,10.18-6.5Zm-12.54-3.15,11.92,2.61-3-8.32Z"/><path class="cls-7" d="M205.24,23.61l-6.12-6.84,16.8.29ZM200,17.18l5.29,5.91,9.24-5.66Z"/><path class="cls-7" d="M211.29,32.15l-8.94-2,2.88-7.21Zm-8.4-2.3,7.53,1.69-5.1-7.76Z"/><path class="cls-7" d="M221.12,34.65l-10.7-2.71,7.7-6.13Zm-9.83-2.9,9.21,2.34-2.57-7.62Z"/><path class="cls-7" d="M189.18,41.14,197.28,28l-.44,9Zm7.63-11.58L190.3,40.08l6.15-3.31Z"/><path class="cls-7" d="M212.87,44.75l-12.67-2,3.7-7.27Zm-12.07-2.3,11,1.72-7.76-8Z"/><path class="cls-7" d="M212.18,44.93l-2-13.62,10.95,2.95ZM210.7,31.85,212.45,44l8-9.51Z"/><path class="cls-7" d="M203.75,52.75V35.45l7.06-4.32Zm.4-17.07V50.25L210.1,32Z"/><path class="cls-7" d="M203.77,51.76,189,40.31,201,42ZM190.46,40.91,203,50.7l-2.32-8.32Z"/><path class="cls-7" d="M204.31,61.76l-9.94-7.95L203.6,51v.25ZM195.21,54l8.64,6.91-.61-9.39Z"/><path class="cls-7" d="M205.3,68.91l-1.18-7.37,6.19-.59Zm-.72-7,.94,5.9,4-6.38Z"/><path class="cls-7" d="M209.93,61.56,203,51l12.82,1.27Zm-6.12-10.09,6.11,9.35,5.24-8.23Z"/><path class="cls-7" d="M215,52.69l12.71-12.85L225,51.55Zm12-11.57L216,52.16l8.59-1Z"/><path class="cls-7" d="M215.53,53l-3.45-8.61,9.19-10.9Zm-3-8.53,2.93,7.32,4.88-16.6Z"/><path class="cls-7" d="M220.3,56,215,52.29l10.4-1.19ZM216,52.56l4.21,2.93,4-3.86Z"/><path class="cls-7" d="M212.73,69.86l-3.23-9L221,60.72Zm-2.38-8.38L213,68.72l6.64-7.36Z"/><path class="cls-7" d="M223.52,69l-3-8.39,11.24-.29Zm-2.43-8,2.59,7.27,7.14-7.52Z"/><path class="cls-7" d="M231.3,60.87l-7-9.9,11,3.87Zm-6-9.11,6,8.41,3.42-5.12Z"/><path class="cls-7" d="M212.32,69.53,220.75,61l3.14,7.56Zm8.29-7.86L213.36,69l9.95-.86Z"/><path class="cls-7" d="M222.58,77.5l.85-9.5,9.8,7.39Zm1.18-8.77L223,77l9.27-1.85Z"/><path class="cls-7" d="M244.6,51,226.84,40.42l14.43-4.72ZM227.79,40.53,244,50.16l-3-13.94Z"/><path class="cls-7" d="M241.48,36.19l-21-1.65,11.41-15.67Zm-20.3-2,19.59,1.54-9-16.14Z"/><path class="cls-7" d="M240.59,36.46l7.29-17.11L265,28.05Zm7.59-16.28-6.52,15.28,21.8-7.52Z"/><path class="cls-7" d="M260.38,71.29,240.47,35.41l17.66,6.45v.19ZM241.77,36.52l17.8,32.09-2-26.33Z"/><path class="cls-7" d="M231.87,19.43l-.12-.38,15.45-6.66h.05l10.46,1.19Zm15.39-6.63-13.38,5.77,21.45-4.85Z"/><path class="cls-7" d="M266.08,29.27,247.75,20l-.9-8.11Zm-17.77-9.7,14.06,7.15L247.61,13.35Z"/><path class="cls-7" d="M264.35,28.65l-8.1-15.08,10.34-5v.36Zm-7.55-14.9,7.3,13.59,2-18.12Z"/><path class="cls-7" d="M310.48,39.53l-69.37-3.27v-.59l46.54-5.86h.08Zm-65.88-3.7,62.58,2.94-19.63-8.34Z"/><path class="cls-7" d="M227.32,40.75l-6.85-6.42L249.12,19Zm-6.17-6.34,6.16,5.79,19.62-19.62Z"/><path class="cls-7" d="M243.54,59.93l.58-9.48.08-.05,14.57-9.14Zm1-9.25-.49,8,12.88-15.8Z"/><path class="cls-7" d="M235.22,54.68l5.94-19.52,3.11,14.72Zm5.87-17.92-5.21,17.12,7.94-4.22Z"/><path class="cls-7" d="M239.08,66.75,231,60.57l4.6-6.76Zm-7.51-6.27,6.82,5.24-2.92-11Z"/><path class="cls-7" d="M226.3,87.81l-5.41-5.42,12.39-7.69Zm-4.77-5.34,4.67,4.67,6-11.32Z"/><path class="cls-7" d="M232.62,75.84,231,60.09l7.94,6.1ZM231.54,61l1.36,13.72,5.57-8.4Z"/><path class="cls-7" d="M248.43,70.69v-.13l-5.61-12,17.83,11.6Zm-4.71-11.08,5,10.67,10.67-.5Z"/><path class="cls-7" d="M250.93,85.24l-10.88-5L238.28,65Zm-10.33-5.4,8.77,4L239.18,67.52Z"/><path class="cls-7" d="M250.54,85.73l-12.5-20,11.33,3.77Zm-11.11-19,10.34,16.59-1-13.47Z"/><path class="cls-7" d="M259.15,70.9l9.45-15.18h0l20-9.43ZM268.88,56,260.8,69,286,48Z"/><path class="cls-7" d="M234.73,100.81l-.15-.22-8.72-13.35,19.39,1.66Zm-8.09-13.1,8.13,12.45,9.66-10.93Z"/><path class="cls-7" d="M245.71,90.37l-14-16,8.77,5.54h0Zm-11.9-14.21L244,87.77l-3.8-7.59Z"/><path class="cls-7" d="M248.24,104.58,244.57,88.8l9.31,2.25-.09.22Zm-3.13-15.24,3.24,14,5-12Z"/><path class="cls-7" d="M236.19,109l-1.69-8.77,14.43,3.67ZM235,100.76l1.48,7.68L247.65,104Z"/><path class="cls-7" d="M220.72,35l-3.06-9,14.72-7.54Zm-2.33-8.73,2.52,7.43,9.59-13.63Z"/><path class="cls-7" d="M279.26,19.74l-13.8-11.5,19.41.14ZM267.13,8.85l11.9,10L283.91,9Z"/><path class="cls-7" d="M287.48,30.71,284.14,8.37l13.27,5.17-.11.2ZM284.64,9l3.06,20.54,9.14-15.79Z"/><path class="cls-7" d="M309.17,39.93l-.36-.26L278.88,18.59,306.55,16v.19ZM280,18.88l28.69,20.21L306.2,16.4Z"/><path class="cls-7" d="M268.38,56.76l-4.72-28.88,16.11-9.58ZM264.1,28.08,268.49,55,279.1,19.19Z"/><path class="cls-7" d="M298.83,57.38l-12-10.54v-.1l.55-17.57ZM287.27,46.66,297.83,56,287.76,31.07Z"/><path class="cls-7" d="M265.84,87.19l-16-2.49L260,69.5Zm-15.35-2.78,14.77,2.29-5.35-16.3Z"/><path class="cls-7" d="M273.29,73.08,259.24,70l40.59-14Zm-12.58-3.17,12.5,2.75L296.84,57.4Z"/><path class="cls-7" d="M291.66,74.44,273.1,73.06v-.14l-5-17.61Zm-18.25-1.76,17,1.27L268.8,56.42Z"/><path class="cls-7" d="M274.53,91.24,265.27,87l8.14-14.87Zm-8.7-4.39,8.27,3.76-1-17Z"/><path class="cls-7" d="M306.37,16.39h0L295.9,14.06l23.32-.86,0,.4ZM299,14.33l7.4,1.65L317,13.67Z"/><path class="cls-7" d="M308.34,40.54l10.13-28.23,2,13.35Zm10-26.6-8.81,24.54L320,25.55Z"/><path class="cls-7" d="M337,33,317.5,12.63l15.75,3.43ZM319.28,13.63,335.93,31l-3.19-14.44Z"/><path class="cls-7" d="M350.66,28.06l-.25-.16L331.63,15.47l21,2.8Zm-17.36-12L350.38,27.4l1.76-8.79Z"/><path class="cls-7" d="M348.53,33.52l-13-1.44,15.56-5.47Zm-11.19-1.64,10.92,1.21,2.19-5.83Z"/><path class="cls-7" d="M368.33,23.43h-.08L350.7,18.16l25.56,1.47ZM354,18.73,368.29,23l6.41-3.08Z"/><path class="cls-7" d="M355.5,28l12.89-5,2.93,4.69Zm12.73-4.49-10.48,4,12.86-.24Z"/><path class="cls-7" d="M357,28l-6.41-.88,1.75-9.32ZM351,26.77l5.27.72-3.83-8.4Z"/><path class="cls-7" d="M355.31,38.87l1.17-11.66,4.66,6.12Zm1.46-10.62-.95,9.59,4.79-4.55Z"/><path class="cls-7" d="M363.31,47l-6.94-19.42,12.21-4.72Zm-6.43-19.19,6.34,17.75,4.81-22Z"/><path class="cls-7" d="M363.58,46.93l-8.3-8.58.15-.14,5.57-5.3Zm-7.73-8.57,7.1,7.35-2.2-12Z"/><path class="cls-7" d="M333.6,41.13l-14-16,17.13,6.74-.05.18Zm-12.66-15,12.51,14.26,2.75-8.25Z"/><path class="cls-7" d="M344.31,60.78,332.88,40.2l13.72,4.86ZM334.17,41.29,344,58.94l2-13.48Z"/><path class="cls-7" d="M314.39,75.37l-5.82-36.8,9.77,15.67Zm-5.12-34.92L314.42,73l3.5-18.71Z"/><path class="cls-7" d="M327.62,65.13,317.56,54l26.83,5.86Zm-8.93-10.52,9.06,10.07,15.1-4.78Z"/><path class="cls-7" d="M336.67,65.65l-9.24-.56,6.16-25.47Zm-8.74-.93,8.29.5-2.76-23.35Z"/><path class="cls-7" d="M342.16,73.94l-6-8.54,7.7-6Zm-5.44-8.46,5.17,7.38,1.47-12.55Z"/><path class="cls-7" d="M334.91,91.33,327.22,64l10,12.82Zm-6.76-25.5,6.65,23.63,2-12.55Z"/><path class="cls-7" d="M321.77,95.56l-.11-.32L314.11,74l24.06,3ZM314.7,74.44l7.22,20.35,15.46-17.52Z"/><path class="cls-7" d="M314.87,74.4H291.28l7.13-17.56Zm-23-.4H314L298.54,57.57Z"/><path class="cls-7" d="M322.64,95.48,298,92.17l-6.91-18.5Zm-24.28-3.67L321,94.87,292,74.72Z"/><path class="cls-7" d="M321.64,101.81l-19.31-1.13-4.54-9.09Zm-19.05-1.52,16.8,1-20.76-8.9Z"/><path class="cls-7" d="M307.94,102.89l14.19-8.11-1.45,7Zm13.62-7.32-11.83,6.76,10.62-1Z"/><path class="cls-7" d="M327.25,109.71l-14.6-1.24L308,102ZM313,107.9l10.36.88-13.67-5.51Z"/><path class="cls-7" d="M320.26,114.92l-7.9-6.73,8.48-7.32Zm-7-6.74,6.44,5.49.48-11.45Z"/><path class="cls-7" d="M311.22,119.87l-2.71-18.05,4.51,6.32Zm-2.07-16.47,2.07,13.81,1.39-9Z"/><path class="cls-7" d="M318,128.55l-7-10v-.08l1.75-11.34Zm-6.61-10.06,5.72,8.1-4.29-17.39Z"/><path class="cls-7" d="M286.57,103.46l-11.65-2.28L274,90.38Zm-11.27-2.61,10.12,2L274.56,91.47Z"/><path class="cls-7" d="M289.2,120.31l-6.88-4.87L286,102.25Zm-6.42-5,5.86,4.16L286,104Z"/><path class="cls-7" d="M282.62,115.94,274.88,101l.06-.1L292,73.09ZM275.34,101l7.13,13.75,8.66-39.46Z"/><path class="cls-7" d="M286,103.42,274.37,90.71l24.33,1.1ZM275.32,91.15,286,102.86l11.71-10.69Z"/><path class="cls-10" d="M86.34,62a1.88,1.88,0,1,1-1.88-1.88A1.88,1.88,0,0,1,86.34,62Z"/><path class="cls-10" d="M25.17,73.4a1.78,1.78,0,1,1-1.79-1.77h0A1.78,1.78,0,0,1,25.17,73.4Z"/><path class="cls-10" d="M83,119.74a1,1,0,1,1-1-1A1,1,0,0,1,83,119.74Z"/><circle class="cls-10" cx="73.58" cy="153.59" r="1.01"/><path class="cls-10" d="M122.12,166.6a1.11,1.11,0,0,1-1,1,1,1,0,0,1,0-2A1.11,1.11,0,0,1,122.12,166.6Z"/><path class="cls-10" d="M119.91,151.09a2.18,2.18,0,0,1-2,2,2,2,0,0,1,0-4A2.18,2.18,0,0,1,119.91,151.09Z"/><path class="cls-10" d="M91.3,213.33a2.28,2.28,0,0,1-2.06,2.06,2.06,2.06,0,0,1,0-4.11A2.26,2.26,0,0,1,91.3,213.33Z"/><path class="cls-10" d="M109.29,159.56a.74.74,0,0,1-.66.67.67.67,0,0,1-.75-.58.68.68,0,0,1,.59-.75.43.43,0,0,1,.16,0A.73.73,0,0,1,109.29,159.56Z"/><path class="cls-10" d="M105.77,161.86a.75.75,0,0,1-.66.67.67.67,0,0,1,0-1.34h0A.74.74,0,0,1,105.77,161.86Z"/><path class="cls-10" d="M98,159.92a.73.73,0,0,1-.67.67.67.67,0,0,1-.75-.58.68.68,0,0,1,.59-.75h.16A.75.75,0,0,1,98,159.92Z"/><path class="cls-10" d="M92.24,150.12a.73.73,0,0,1-.67.67.67.67,0,0,1,0-1.34A.73.73,0,0,1,92.24,150.12Z"/><circle class="cls-10" cx="111.81" cy="173.24" r="1.01"/><path class="cls-10" d="M104.93,193.15a1.35,1.35,0,1,1-1.35-1.35,1.34,1.34,0,0,1,1.35,1.35Z"/><circle class="cls-10" cx="79.42" cy="52.56" r="1.63"/><path class="cls-10" d="M101.08,55.94a1.35,1.35,0,1,1-1.35-1.35,1.34,1.34,0,0,1,1.35,1.35Z"/><circle class="cls-10" cx="105.71" cy="147.48" r="2.01"/><circle class="cls-10" cx="56.12" cy="65.5" r="1.35"/><path class="cls-10" d="M22.28,62.78a1,1,0,1,1-1-1A1,1,0,0,1,22.28,62.78Z"/><path class="cls-10" d="M47.22,93.05a1.79,1.79,0,1,1-1.8-1.78h0A1.8,1.8,0,0,1,47.22,93.05Z"/><path class="cls-10" d="M84.75,179.88a1.35,1.35,0,1,1-1.35-1.35,1.34,1.34,0,0,1,1.35,1.35Z"/><path class="cls-10" d="M109.6,31.34a1,1,0,1,1-1-1A1,1,0,0,1,109.6,31.34Z"/><path class="cls-10" d="M81.28,70.85a1,1,0,1,1-1-1A1,1,0,0,1,81.28,70.85Z"/><path class="cls-10" d="M11.13,22.16a1,1,0,1,1-1-1A1,1,0,0,1,11.13,22.16Z"/><path class="cls-10" d="M126.55,21.56a1,1,0,1,1-1-1A1,1,0,0,1,126.55,21.56Z"/><path class="cls-10" d="M149.33,19.3a1,1,0,1,1-1-1A1,1,0,0,1,149.33,19.3Z"/><path class="cls-10" d="M143.76,9.94a1,1,0,1,1-1-1A1,1,0,0,1,143.76,9.94Z"/><path class="cls-10" d="M76.18,33.31a1,1,0,1,1-1-1A1,1,0,0,1,76.18,33.31Z"/><path class="cls-10" d="M84.41,18.7a1,1,0,1,1-1-1A1,1,0,0,1,84.41,18.7Z"/><path class="cls-10" d="M37.42,26.67a1,1,0,1,1-1-1A1,1,0,0,1,37.42,26.67Z"/><path class="cls-10" d="M58.92,39a1,1,0,1,1-1-1A1,1,0,0,1,58.92,39Z"/><circle class="cls-10" cx="70.66" cy="57.34" r="0.83"/><path class="cls-10" d="M79.25,47.58a.83.83,0,1,1-.83-.83.83.83,0,0,1,.83.83Z"/><circle class="cls-10" cx="87.19" cy="58.73" r="0.83"/><path class="cls-10" d="M75,53.35a.83.83,0,1,1-.83-.83A.84.84,0,0,1,75,53.35Z"/><path class="cls-10" d="M80.61,60.32a.83.83,0,1,1-.83-.83A.84.84,0,0,1,80.61,60.32Z"/><circle class="cls-10" cx="56.52" cy="56.74" r="0.83"/><path class="cls-10" d="M74.87,61.72a.83.83,0,1,1-.83-.83.83.83,0,0,1,.83.83Z"/><path class="cls-10" d="M29.67,72.27a.83.83,0,0,1-.83.83h0a.83.83,0,1,1,.83-.83Z"/><path class="cls-10" d="M92.6,52.76a.84.84,0,1,1-.85-.83h0a.83.83,0,0,1,.83.83Z"/><circle class="cls-10" cx="68.53" cy="88.54" r="1.01"/><circle class="cls-10" cx="57.31" cy="101.95" r="1.01"/><path class="cls-7" d="M167.38,66.7A1.35,1.35,0,1,1,166,65.35a1.34,1.34,0,0,1,1.35,1.35Z"/><circle class="cls-7" cx="166.51" cy="58" r="1.35"/><circle class="cls-7" cx="175.8" cy="58" r="1.35"/><path class="cls-8" d="M178,66.76a1.35,1.35,0,1,1-1.35-1.35A1.34,1.34,0,0,1,178,66.76Z"/><path class="cls-7" d="M182.73,57.47a1.35,1.35,0,1,1-1.35-1.35,1.34,1.34,0,0,1,1.35,1.35Z"/><path class="cls-7" d="M190.7,55.35A1.35,1.35,0,1,1,189.35,54h0A1.37,1.37,0,0,1,190.7,55.35Z"/><path class="cls-7" d="M196.78,62.08a1.35,1.35,0,1,1-1.35-1.35,1.34,1.34,0,0,1,1.35,1.35Z"/><path class="cls-7" d="M202,62.76a1.35,1.35,0,1,1-1.35-1.35A1.34,1.34,0,0,1,202,62.76Z"/><circle class="cls-7" cx="194.13" cy="68.09" r="1.35"/><path class="cls-7" d="M174.76,50.3a1.35,1.35,0,1,1-1.4-1.3h0A1.33,1.33,0,0,1,174.76,50.3Z"/><path class="cls-7" d="M184.32,46.05A1.35,1.35,0,1,1,183,44.7a1.34,1.34,0,0,1,1.35,1.35Z"/><path class="cls-7" d="M175,45.79a1.35,1.35,0,1,1-1.35-1.35A1.34,1.34,0,0,1,175,45.79Z"/><path class="cls-7" d="M175.29,41.27a1.35,1.35,0,1,1-1.35-1.35h0a1.34,1.34,0,0,1,1.34,1.34Z"/><path class="cls-7" d="M167.47,43.83a1.35,1.35,0,1,1-1.35-1.35A1.37,1.37,0,0,1,167.47,43.83Z"/><path class="cls-7" d="M175.56,33.31A1.35,1.35,0,1,1,174.17,32h0A1.35,1.35,0,0,1,175.56,33.31Z"/><path class="cls-7" d="M180.87,43.13a1.35,1.35,0,1,1-1.35-1.35,1.34,1.34,0,0,1,1.35,1.35Z"/><path class="cls-7" d="M191,40.74a1.35,1.35,0,1,1-1.35-1.35A1.34,1.34,0,0,1,191,40.74Z"/><path class="cls-7" d="M202.11,42.34A1.35,1.35,0,1,1,200.75,41h0a1.34,1.34,0,0,1,1.35,1.33Z"/><path class="cls-7" d="M205,51.36A1.35,1.35,0,1,1,203.68,50,1.34,1.34,0,0,1,205,51.36Z"/><path class="cls-7" d="M196.27,54.28a1.35,1.35,0,1,1-1.35-1.35,1.34,1.34,0,0,1,1.35,1.35Z"/><path class="cls-7" d="M205.83,61.72a1.35,1.35,0,1,1-1.35-1.35,1.34,1.34,0,0,1,1.35,1.35Z"/><path class="cls-7" d="M211.14,61.19a1.35,1.35,0,1,1-1.35-1.35,1.34,1.34,0,0,1,1.35,1.35Z"/><path class="cls-7" d="M214.33,69.42A1.35,1.35,0,1,1,213,68.07H213A1.36,1.36,0,0,1,214.33,69.42Z"/><circle class="cls-7" cx="223.63" cy="68.65" r="1.35"/><path class="cls-8" d="M206.89,68.36A1.35,1.35,0,1,1,205.54,67a1.34,1.34,0,0,1,1.35,1.36Z"/><path class="cls-7" d="M216.91,52.71a1.35,1.35,0,1,1-1.35-1.35A1.37,1.37,0,0,1,216.91,52.71Z"/><circle class="cls-8" cx="220.24" cy="55.75" r="1.35"/><path class="cls-7" d="M226.28,51.63a1.35,1.35,0,1,1-1.35-1.35A1.37,1.37,0,0,1,226.28,51.63Z"/><path class="cls-8" d="M232.38,60.66A1.35,1.35,0,1,1,231,59.31a1.34,1.34,0,0,1,1.35,1.35Z"/><path class="cls-7" d="M221.76,61.19a1.35,1.35,0,1,1-1.35-1.35,1.34,1.34,0,0,1,1.35,1.35Z"/><path class="cls-7" d="M205.3,36A1.35,1.35,0,1,1,204,34.65,1.34,1.34,0,0,1,205.3,36Z"/><path class="cls-7" d="M211.94,31.71a1.35,1.35,0,1,1-1.35-1.35,1.34,1.34,0,0,1,1.35,1.35Z"/><circle class="cls-7" cx="202.89" cy="29.86" r="1.35"/><circle class="cls-7" cx="205.01" cy="23.48" r="1.35"/><path class="cls-7" d="M198.4,29.06A1.35,1.35,0,1,1,197,27.71a1.36,1.36,0,0,1,1.37,1.35Z"/><path class="cls-7" d="M198.13,37a1.35,1.35,0,1,1-1.36-1.34h0A1.34,1.34,0,0,1,198.13,37Z"/><circle class="cls-7" cx="190.94" cy="33.04" r="1.35"/><path class="cls-7" d="M184.59,30.12a1.35,1.35,0,1,1-1.35-1.35,1.34,1.34,0,0,1,1.35,1.35Z"/><path class="cls-7" d="M193.35,25.63A1.35,1.35,0,1,1,192,24.28h0A1.36,1.36,0,0,1,193.35,25.63Z"/><path class="cls-7" d="M201,17.13a1.35,1.35,0,1,1-1.35-1.35A1.34,1.34,0,0,1,201,17.13Z"/><circle class="cls-7" cx="215.1" cy="17.11" r="1.35"/><path class="cls-7" d="M219.11,26.14a1.35,1.35,0,1,1-1.35-1.35A1.37,1.37,0,0,1,219.11,26.14Z"/><path class="cls-8" d="M232.89,19.14a1.35,1.35,0,1,1-1.36-1.34h0a1.34,1.34,0,0,1,1.35,1.33Z"/><path class="cls-8" d="M249.38,20A1.35,1.35,0,1,1,248,18.68h0A1.36,1.36,0,0,1,249.38,20Z"/><path class="cls-7" d="M248.41,12.78A1.35,1.35,0,1,1,247,11.43a1.34,1.34,0,0,1,1.38,1.35Z"/><path class="cls-7" d="M257.78,13.66a1.35,1.35,0,1,1-1.35-1.35,1.34,1.34,0,0,1,1.35,1.35Z"/><path class="cls-7" d="M242.74,36a1.35,1.35,0,1,1-1.35-1.35A1.34,1.34,0,0,1,242.74,36Z"/><path class="cls-7" d="M222,34.37A1.35,1.35,0,1,1,220.68,33,1.36,1.36,0,0,1,222,34.37Z"/><path class="cls-7" d="M213.8,44.19a1.35,1.35,0,1,1-1.35-1.35,1.34,1.34,0,0,1,1.35,1.35Z"/><circle class="cls-7" cx="227.32" cy="40.74" r="1.35"/><path class="cls-7" d="M236.63,55.08a1.35,1.35,0,1,1-1.35-1.35,1.34,1.34,0,0,1,1.35,1.35Z"/><path class="cls-7" d="M245.66,50.57a1.35,1.35,0,1,1-1.35-1.35A1.37,1.37,0,0,1,245.66,50.57Z"/><path class="cls-7" d="M244.86,59.59a1.35,1.35,0,1,1-1.36-1.34h0a1.34,1.34,0,0,1,1.35,1.33Z"/><circle class="cls-7" cx="248.82" cy="69.95" r="1.35"/><path class="cls-7" d="M240.35,66.23A1.35,1.35,0,1,1,239,64.88h0A1.36,1.36,0,0,1,240.35,66.23Z"/><circle class="cls-7" cx="240.47" cy="80.02" r="1.35"/><path class="cls-8" d="M251.23,84.82a1.35,1.35,0,1,1-1.35-1.35h0A1.36,1.36,0,0,1,251.23,84.82Z"/><path class="cls-7" d="M267.17,86.94a1.35,1.35,0,1,1-1.35-1.35,1.34,1.34,0,0,1,1.35,1.35Z"/><path class="cls-8" d="M274.87,72.87a1.35,1.35,0,1,1-1.35-1.35,1.34,1.34,0,0,1,1.35,1.35Z"/><path class="cls-7" d="M261,70a1.35,1.35,0,1,1-1.35-1.35A1.34,1.34,0,0,1,261,70Z"/><path class="cls-7" d="M270.09,56.14a1.35,1.35,0,1,1-1.35-1.35,1.34,1.34,0,0,1,1.35,1.35Z"/><path class="cls-7" d="M259.2,42.34A1.35,1.35,0,1,1,257.84,41h0a1.34,1.34,0,0,1,1.35,1.33Z"/><path class="cls-7" d="M265.31,28.26A1.35,1.35,0,1,1,264,26.91a1.34,1.34,0,0,1,1.35,1.35Z"/><path class="cls-7" d="M267.56,8.73a1.35,1.35,0,1,1-1.35-1.35,1.34,1.34,0,0,1,1.35,1.35Z"/><path class="cls-7" d="M285.73,8.88a1.35,1.35,0,1,1-1.35-1.35,1.34,1.34,0,0,1,1.35,1.35Z"/><path class="cls-8" d="M280.69,19a1.35,1.35,0,1,1-1.35-1.35A1.37,1.37,0,0,1,280.69,19Z"/><path class="cls-7" d="M288.92,30.12a1.35,1.35,0,1,1-1.35-1.35,1.34,1.34,0,0,1,1.35,1.35Z"/><path class="cls-7" d="M298.5,13.92a1.35,1.35,0,1,1-1.35-1.35,1.34,1.34,0,0,1,1.35,1.35Z"/><path class="cls-7" d="M307.79,16.31A1.35,1.35,0,1,1,306.4,15h0A1.34,1.34,0,0,1,307.79,16.31Z"/><circle class="cls-7" cx="318.92" cy="13.39" r="1.35"/><path class="cls-8" d="M334.34,16.31A1.35,1.35,0,1,1,333,15H333A1.34,1.34,0,0,1,334.34,16.31Z"/><circle class="cls-7" cx="336.18" cy="31.98" r="1.35"/><path class="cls-7" d="M349.56,33.2a1.35,1.35,0,1,1-1.35-1.35,1.34,1.34,0,0,1,1.35,1.35Z"/><path class="cls-7" d="M352.13,27.47a1.35,1.35,0,1,1-1.35-1.35,1.34,1.34,0,0,1,1.35,1.35Z"/><path class="cls-7" d="M358.24,28.26a1.35,1.35,0,1,1-1.35-1.35,1.34,1.34,0,0,1,1.35,1.35Z"/><circle class="cls-7" cx="355.3" cy="38.11" r="1.35"/><path class="cls-8" d="M364.35,46.87A1.35,1.35,0,1,1,363,45.52h0A1.36,1.36,0,0,1,364.35,46.87Z"/><path class="cls-7" d="M362.21,33.29a1.35,1.35,0,1,1-1.35-1.35,1.34,1.34,0,0,1,1.35,1.35Z"/><circle class="cls-7" cx="370.7" cy="28" r="1.35"/><path class="cls-7" d="M369.66,23.22a1.35,1.35,0,1,1-1.35-1.35A1.37,1.37,0,0,1,369.66,23.22Z"/><path class="cls-7" d="M376.56,19.77a1.35,1.35,0,1,1-1.35-1.35,1.34,1.34,0,0,1,1.35,1.35Z"/><circle class="cls-7" cx="352.11" cy="18.17" r="1.35"/><path class="cls-7" d="M334.88,40.21a1.35,1.35,0,1,1-1.35-1.35,1.34,1.34,0,0,1,1.35,1.35Z"/><circle class="cls-7" cx="346.01" cy="45.52" r="1.35"/><circle class="cls-7" cx="343.88" cy="59.86" r="1.35"/><path class="cls-7" d="M337.8,65.7a1.35,1.35,0,1,1-1.35-1.35,1.34,1.34,0,0,1,1.35,1.35Z"/><path class="cls-7" d="M343.64,73.67a1.35,1.35,0,1,1-1.35-1.35A1.37,1.37,0,0,1,343.64,73.67Z"/><path class="cls-7" d="M329,64.37A1.35,1.35,0,1,1,327.68,63,1.34,1.34,0,0,1,329,64.37Z"/><circle class="cls-7" cx="337.51" cy="77.38" r="1.35"/><path class="cls-7" d="M336.47,90.4a1.35,1.35,0,1,1-1.35-1.35,1.34,1.34,0,0,1,1.35,1.35Z"/><path class="cls-7" d="M322.93,95.44a1.35,1.35,0,1,1-1.35-1.35,1.34,1.34,0,0,1,1.35,1.35Z"/><path class="cls-7" d="M322.13,101.55a1.35,1.35,0,1,1-1.35-1.35,1.34,1.34,0,0,1,1.35,1.35Z"/><path class="cls-7" d="M326.38,109.78a1.35,1.35,0,1,1-1.35-1.35A1.37,1.37,0,0,1,326.38,109.78Z"/><circle class="cls-7" cx="320.48" cy="114.86" r="1.35"/><path class="cls-7" d="M314.43,108.45a1.35,1.35,0,1,1-1.35-1.35,1.34,1.34,0,0,1,1.35,1.35Z"/><path class="cls-7" d="M319.21,126.77a1.35,1.35,0,1,1-1.35-1.35,1.34,1.34,0,0,1,1.35,1.35Z"/><path class="cls-7" d="M312.57,118.28a1.35,1.35,0,1,1-1.35-1.35,1.34,1.34,0,0,1,1.35,1.35Z"/><path class="cls-7" d="M310.14,102.61a1.35,1.35,0,1,1-1.35-1.35,1.34,1.34,0,0,1,1.35,1.35Z"/><circle class="cls-7" cx="302.72" cy="100.24" r="1.35"/><path class="cls-7" d="M300.09,92.28a1.35,1.35,0,1,1-1.35-1.35,1.34,1.34,0,0,1,1.35,1.35Z"/><path class="cls-7" d="M287.61,103.69a1.35,1.35,0,1,1-1.35-1.35,1.34,1.34,0,0,1,1.35,1.35Z"/><path class="cls-7" d="M283.89,115.35a1.35,1.35,0,1,1-1.36-1.34h0a1.34,1.34,0,0,1,1.35,1.33Z"/><path class="cls-7" d="M290,119.6a1.35,1.35,0,1,1-1.35-1.35A1.34,1.34,0,0,1,290,119.6Z"/><path class="cls-8" d="M276.73,100.75a1.35,1.35,0,1,1-1.35-1.35,1.34,1.34,0,0,1,1.35,1.35Z"/><circle class="cls-7" cx="274.58" cy="90.93" r="1.35"/><path class="cls-7" d="M255,91.46a1.35,1.35,0,1,1-1.35-1.35A1.34,1.34,0,0,1,255,91.46Z"/><circle class="cls-7" cx="248.03" cy="103.96" r="1.35"/><circle class="cls-7" cx="236.61" cy="108.21" r="1.35"/><path class="cls-8" d="M236.1,101a1.35,1.35,0,1,1-1.35-1.35A1.34,1.34,0,0,1,236.1,101Z"/><circle class="cls-7" cx="226.52" cy="87.74" r="1.35"/><circle class="cls-7" cx="221.21" cy="82.43" r="1.35"/><path class="cls-7" d="M224.32,77.21A1.35,1.35,0,1,1,223,75.86,1.37,1.37,0,0,1,224.32,77.21Z"/><path class="cls-7" d="M234.24,75.53a1.35,1.35,0,1,1-1.35-1.35,1.34,1.34,0,0,1,1.35,1.35Z"/><path class="cls-7" d="M245.92,89.33A1.35,1.35,0,1,1,244.55,88h0A1.34,1.34,0,0,1,245.92,89.33Z"/><circle class="cls-7" cx="291.57" cy="74.2" r="1.35"/><path class="cls-7" d="M316,74.73a1.35,1.35,0,1,1-1.35-1.35A1.34,1.34,0,0,1,316,74.73Z"/><circle class="cls-8" cx="318.13" cy="54.55" r="1.35"/><path class="cls-7" d="M299.56,56.94a1.35,1.35,0,1,1-1.35-1.35,1.34,1.34,0,0,1,1.35,1.35Z"/><circle class="cls-7" cx="308.83" cy="39.68" r="1.35"/><circle class="cls-8" cx="320.25" cy="25.61" r="1.35"/><circle class="cls-7" cx="287.32" cy="47.11" r="1.35"/><path class="cls-7" d="M175,86.44,165.27,65.9l5.8,4.48Zm-8.67-19.2,7.34,15.47-3-12.1Z"/><path class="cls-7" d="M163.89,77.62l6.9-7.32h.08l21.25-2.41ZM171,70.68l-5.69,6,23.28-8Z"/><path class="cls-7" d="M173.13,85.54l17.44-17.77-.43,7.61Zm17-16.73L175.6,83.61l14.17-8.47Z"/><path class="cls-7" d="M156.61,86.79l7.93-10,10.59,8Zm8-9.21L158,86l15.61-1.68Z"/><path class="cls-7" d="M203.21,80.69l1.53-5.88,11.11,3.7ZM205,75.32l-1.27,4.87,10.47-1.8Z"/><path class="cls-7" d="M221.32,82.53l-6.85-4.2L223.09,77Zm-5.72-4,5.5,3.37,1.41-4.43Z"/><path class="cls-7" d="M212,91.08l-.13-.16L202.4,80l19.26,2.09Zm-8.66-10.59,8.69,10,8.7-8.13Z"/><path class="cls-7" d="M215.17,106l6-24.47,7.26,22.4Zm6.07-23-5.54,22.53,12.22-1.91Z"/><path class="cls-7" d="M198.22,109.56l14-19.48,3.6,15.88Zm13.68-18-12.31,17.16,15.49-3.17Z"/><path class="cls-7" d="M192.6,88.15l-2.93-13.21,13.63,5.24Zm-2.38-12.57,2.64,11.88,9.62-7.16Z"/><path class="cls-7" d="M168.36,99.06,154,96.32,157.2,86Zm-13.81-3,12.77,2.44-9.95-11.64Z"/><path class="cls-7" d="M174,113.79l-20.15-6.72.21-11.34Zm-19.75-7,18.08,6-17.89-16.2Z"/><path class="cls-7" d="M173.37,114.3l-5.75-15.55v-.07l6.93-15.1ZM168,98.77l5,13.52,1.05-26.72Z"/><path class="cls-7" d="M165,122.53l-11.71-16.18,20.44,6.81Zm-10.14-15,10.2,14.09,7.6-8.16Z"/><path class="cls-7" d="M164.52,122.34l8.67-9.31,8.89,6.77Zm8.72-8.78-7.66,8.22,15.5-2.24Z"/><path class="cls-7" d="M199.22,109.48l-13.32-6.24,6.87-16ZM186.42,103l12.17,5.71-5.9-20.35Z"/><path class="cls-7" d="M181.69,120l-8.8-6.71,13.62-10.69Zm-8.15-6.72,7.93,6,4.34-15.66Z"/><path class="cls-7" d="M186.19,103.57,173.94,84.3,193,87.65ZM174.76,84.85l11.37,17.87L192.45,88Z"/><path class="cls-7" d="M189.24,125.27,181,119.65l18.79-11.44Zm-7.11-5.59,6.93,4.74L198,110Z"/><path class="cls-7" d="M187.28,132.53l1.71-7.89h.17l17.52.84Zm2-7.48-1.49,6.86,16.85-6.12Z"/><path class="cls-7" d="M220.3,114.1,215,105.37,238,113Zm-4.41-8,4.63,7.6,15.38-.93Z"/><path class="cls-7" d="M237.21,113.47l-10-10.5,9.36,5Zm-8-9,7.48,7.82-.51-4.08Z"/><path class="cls-7" d="M240.08,125.66l-3.38-12.9,10.15-3ZM237.18,113l3,11.39,6-14Z"/><path class="cls-7" d="M205.55,126.13l-7.14-17.43,22.68,5Zm-6.15-16.6,6.4,15.63,13.94-11.11Z"/><path class="cls-7" d="M224.79,129.59l-4.88-16.32,21,11.87Zm-3.88-15.07,4.28,14.34L239.35,125Z"/><path class="cls-7" d="M229.45,137.56,204.62,126l36.19-1.27ZM207.13,126.5l22.17,10.33,10.14-11.46Z"/><path class="cls-7" d="M232,156.3,220.2,139.61v-.11L225,128.62Zm-11.38-16.74,10.47,14.77L225,129.84Z"/><path class="cls-7" d="M242,165.22l-5.77-8.34,7.7-7.06Zm-5.24-8.28,5,7.19,1.66-13.28Z"/><path class="cls-7" d="M235.52,172.2l.86-15.88,5.79,8.37Zm1.19-14.7L236,171.09l5.69-6.43Z"/><path class="cls-7" d="M194.23,142.58l-.07-.1-7-10.57.49.11,34,7.63ZM188,132.52l6.43,9.64,24.77-2.65Z"/><path class="cls-7" d="M207.08,150.3l-13-7.87,12-16.77Zm-12.47-8,12,7.27-1-22.75Z"/><path class="cls-7" d="M214.93,159.71l-8.35-9.8,14.19-10.85ZM207.16,150l7.59,8.92L220,140.11Z"/><path class="cls-7" d="M223.67,161.81l-10.09-2.52,19.26-4.58Zm-7.57-2.5,7.43,1.85,6.76-5.23Z"/><path class="cls-7" d="M220,172.57,223.54,161l3.5,6.34-.14.1Zm3.6-10.57-2.87,9.52,5.75-4.31Z"/><path class="cls-7" d="M195.35,152,194,142l13.37,8.06Zm-.78-9.21,1.12,8.75,10.61-1.67Z"/><path class="cls-7" d="M216.71,159.71l-25.49-1.54,4.18-6.81Zm-24.46-2.07L213,158.89l-17.33-6.79Z"/><path class="cls-7" d="M222.27,172.63l-25.76-3.9-5.41-11.47Zm-25.35-4.44,21.63,3.27-26.18-12.91Z"/><path class="cls-7" d="M196.31,176.89l.21-8.71,13.18,4.88Zm.6-8.15-.19,7.62,11.7-3.34Z"/><path class="cls-7" d="M213.2,184.65l-4.42-11.79,12-1.05Zm-3.86-11.43,3.94,10.51L220,172.28Z"/><path class="cls-7" d="M202,187.82l-5.91-11.61,17.73,8ZM197,177l5.24,10.3,10.49-3.18Z"/><path class="cls-7" d="M208.53,174.51l-1.9-25.15,8.24,9.3Zm-1.42-24,1.69,22.26,5.61-14Z"/><path class="cls-7" d="M172.24,70.49a1.35,1.35,0,1,1-1.35-1.35,1.34,1.34,0,0,1,1.35,1.35Z"/><path class="cls-7" d="M166,77.19a1.35,1.35,0,1,1-1.35-1.35A1.37,1.37,0,0,1,166,77.19Z"/><circle class="cls-7" cx="157.27" cy="86.65" r="1.35"/><path class="cls-7" d="M155.62,96.12a1.35,1.35,0,1,1-1.35-1.35A1.37,1.37,0,0,1,155.62,96.12Z"/><path class="cls-7" d="M155.39,106.73a1.35,1.35,0,1,1-1.36-1.34h0A1.36,1.36,0,0,1,155.39,106.73Z"/><path class="cls-7" d="M166.47,121.74a1.35,1.35,0,1,1-1.35-1.35A1.37,1.37,0,0,1,166.47,121.74Z"/><path class="cls-7" d="M183.09,119.66a1.35,1.35,0,1,1-1.35-1.35,1.34,1.34,0,0,1,1.35,1.35Z"/><path class="cls-7" d="M190.71,124.74a1.35,1.35,0,1,1-1.35-1.35,1.34,1.34,0,0,1,1.35,1.35Z"/><circle class="cls-8" cx="187.97" cy="131.9" r="1.35"/><path class="cls-7" d="M195.78,142.51a1.35,1.35,0,1,1-1.36-1.34h0a1.34,1.34,0,0,1,1.35,1.33Z"/><path class="cls-7" d="M196.71,151.75a1.35,1.35,0,1,1-1.35-1.35A1.37,1.37,0,0,1,196.71,151.75Z"/><path class="cls-7" d="M193.25,158a1.35,1.35,0,1,1-1.35-1.35,1.34,1.34,0,0,1,1.35,1.35Z"/><circle class="cls-7" cx="196.97" cy="168.14" r="1.35"/><path class="cls-7" d="M198.09,176.45a1.35,1.35,0,1,1-1.35-1.35,1.34,1.34,0,0,1,1.35,1.35Z"/><path class="cls-7" d="M203.63,187.76a1.35,1.35,0,1,1-1.35-1.35,1.34,1.34,0,0,1,1.35,1.35Z"/><path class="cls-7" d="M214.71,184.3a1.35,1.35,0,1,1-1.35-1.35,1.34,1.34,0,0,1,1.35,1.35Z"/><path class="cls-8" d="M222.1,172.06a1.35,1.35,0,1,1-1.35-1.35,1.34,1.34,0,0,1,1.35,1.35Z"/><path class="cls-7" d="M227.87,167.68a1.35,1.35,0,1,1-1.35-1.35,1.34,1.34,0,0,1,1.35,1.35Z"/><path class="cls-7" d="M225.1,161.67a1.35,1.35,0,1,1-1.35-1.35,1.34,1.34,0,0,1,1.35,1.35Z"/><path class="cls-7" d="M233,155.44a1.35,1.35,0,1,1-1.35-1.35,1.34,1.34,0,0,1,1.35,1.35Z"/><path class="cls-8" d="M230.64,137.44a1.35,1.35,0,1,1-1.35-1.35,1.34,1.34,0,0,1,1.35,1.35Z"/><path class="cls-7" d="M241.49,125a1.35,1.35,0,1,1-1.35-1.35,1.34,1.34,0,0,1,1.35,1.35Z"/><circle class="cls-7" cx="246.6" cy="110.43" r="1.35"/><path class="cls-7" d="M238,113a1.35,1.35,0,1,1-1.35-1.35A1.37,1.37,0,0,1,238,113Z"/><path class="cls-7" d="M229.26,103.73a1.35,1.35,0,1,1-1.35-1.35,1.34,1.34,0,0,1,1.35,1.35Z"/><path class="cls-8" d="M213.56,90.58a1.35,1.35,0,1,1-1.35-1.35A1.37,1.37,0,0,1,213.56,90.58Z"/><path class="cls-7" d="M216.33,78.8A1.35,1.35,0,1,1,215,77.45H215A1.35,1.35,0,0,1,216.33,78.8Z"/><circle class="cls-7" cx="204.82" cy="75.8" r="1.35"/><path class="cls-7" d="M204.56,80.42a1.35,1.35,0,1,1-1.35-1.35A1.37,1.37,0,0,1,204.56,80.42Z"/><path class="cls-7" d="M191.17,75.11a1.35,1.35,0,1,1-1.35-1.35,1.34,1.34,0,0,1,1.35,1.35Z"/><circle class="cls-7" cx="190.28" cy="68.18" r="1.35"/><circle class="cls-7" cx="174.35" cy="84.57" r="1.35"/><path class="cls-7" d="M194.4,87.58A1.35,1.35,0,1,1,193,86.23a1.34,1.34,0,0,1,1.37,1.35Z"/><path class="cls-7" d="M169.24,98.89a1.35,1.35,0,1,1-1.35-1.35A1.37,1.37,0,0,1,169.24,98.89Z"/><circle class="cls-7" cx="173.2" cy="113.2" r="1.35"/><circle class="cls-7" cx="186.12" cy="103.04" r="1.35"/><circle class="cls-7" cx="198.82" cy="109.27" r="1.35"/><path class="cls-7" d="M217,105.81a1.35,1.35,0,1,1-1.35-1.35,1.34,1.34,0,0,1,1.35,1.35Z"/><circle class="cls-8" cx="220.52" cy="113.89" r="1.35"/><path class="cls-7" d="M207.33,125.89a1.35,1.35,0,1,1-1.35-1.35,1.34,1.34,0,0,1,1.35,1.35Z"/><path class="cls-7" d="M226.49,129.36a1.35,1.35,0,1,1-1.35-1.35A1.37,1.37,0,0,1,226.49,129.36Z"/><path class="cls-7" d="M222.1,140a1.35,1.35,0,1,1-1.35-1.35A1.34,1.34,0,0,1,222.1,140Z"/><circle class="cls-7" cx="206.67" cy="150.36" r="1.35"/><circle class="cls-8" cx="214.75" cy="159.13" r="1.35"/><path class="cls-7" d="M210.33,173.22a1.35,1.35,0,1,1-1.35-1.35A1.37,1.37,0,0,1,210.33,173.22Z"/><circle class="cls-7" cx="235.75" cy="171.83" r="1.35"/><path class="cls-7" d="M245,150.36A1.35,1.35,0,1,1,243.6,149a1.34,1.34,0,0,1,1.35,1.35Z"/><path class="cls-7" d="M243.11,164.68a1.35,1.35,0,1,1-1.35-1.35,1.34,1.34,0,0,1,1.35,1.35Z"/><path class="cls-7" d="M238,157.06a1.35,1.35,0,1,1-1.35-1.35A1.37,1.37,0,0,1,238,157.06Z"/><path class="cls-9" d="M216,106h-.4l-29.71-2.79L186,103l7-15.61Zm-29.76-3,29,2.72-22.17-18Z"/><path class="cls-9" d="M220.92,140.3l-15.14-14.11v-.08l9.92-20.7ZM206,126.14l14.51,13.52-5-33.45Z"/><path class="cls-9" d="M237,157.26l-30.5-6.8v-.09l-.76-24.5.22.21Zm-30.26-7,29.52,6.58L206,126.46Z"/><path class="cls-9" d="M173.21,113.37l-.09-.08L154,96.05l39.33-8.66ZM154.52,96.18,173.18,113l19.57-25.26Z"/><path class="cls-9" d="M185.91,103.81l3.47-29.19,3.8,13Zm3.57-28-3.14,26.47,6.58-14.71Z"/><path class="cls-9" d="M206.22,126,173,113.2l13.18-10.35.08.08Zm-32.78-12.87,32,12.3-19.3-22.25Z"/><path class="cls-9" d="M202.08,188.48l4.6-39.24,2.36,24.3h0Zm4.58-37L202.49,187l6.31-13.55Z"/><path class="cls-9" d="M155.62,96.12a1.35,1.35,0,1,1-1.35-1.35A1.37,1.37,0,0,1,155.62,96.12Z"/><path class="cls-9" d="M203.63,187.76a1.35,1.35,0,1,1-1.35-1.35,1.34,1.34,0,0,1,1.35,1.35Z"/><path class="cls-8" d="M191.17,75.11a1.35,1.35,0,1,1-1.35-1.35,1.34,1.34,0,0,1,1.35,1.35Z"/><path class="cls-9" d="M194.4,87.58A1.35,1.35,0,1,1,193,86.23a1.34,1.34,0,0,1,1.37,1.35Z"/><circle class="cls-8" cx="173.2" cy="113.2" r="1.35"/><circle class="cls-9" cx="186.12" cy="103.04" r="1.35"/><path class="cls-9" d="M217,105.81a1.35,1.35,0,1,1-1.35-1.35,1.34,1.34,0,0,1,1.35,1.35Z"/><path class="cls-9" d="M207.33,125.89a1.35,1.35,0,1,1-1.35-1.35,1.34,1.34,0,0,1,1.35,1.35Z"/><path class="cls-9" d="M222.1,140a1.35,1.35,0,1,1-1.35-1.35A1.34,1.34,0,0,1,222.1,140Z"/><circle class="cls-9" cx="206.67" cy="150.36" r="1.35"/><path class="cls-8" d="M243.11,164.68a1.35,1.35,0,1,1-1.35-1.35,1.34,1.34,0,0,1,1.35,1.35Z"/><path class="cls-9" d="M238,157.06a1.35,1.35,0,1,1-1.35-1.35A1.37,1.37,0,0,1,238,157.06Z"/><path class="cls-9" d="M181.45,58.05l-7.84-16.82,6,1.81v.08ZM174,41.61l7,15-1.62-13.36Z"/><path class="cls-9" d="M195.25,63.89l-.63-9.67,5.87-12,.56.21Zm0-9.55.38,5.92,4-15Z"/><path class="cls-9" d="M191.21,32.76v-.23l11.71-2.8h0l8.51,2.05ZM202.89,30l-10.41,2.48,17.27-.83Z"/><path class="cls-9" d="M227.67,41.07l-17.3-9.34L217.79,26ZM210.81,31.7,227,40.41l-9.23-14.1Z"/><path class="cls-9" d="M244.28,60.14l-9.09-5L227,39.52ZM235.37,55l7.91,4.33L228.21,41.4Z"/><path class="cls-9" d="M269.1,56.41l-42.29-16.1,31.1,1.91h0ZM228.36,40.64l40,15.24L257.79,42.45Z"/><path class="cls-9" d="M200.61,42.07l9.95-10.5h.08l17.11,9.23h-.43Zm10-10.21-9.42,9.94,25.69-1.16Z"/><path class="cls-9" d="M233.25,76.08l-13-14.94.16-.06,15.05-6.19v.2ZM220.61,61.23,233,75.51l2.07-20.24Z"/><path class="cls-9" d="M243.54,59.75,235,55.08l23-12.9Zm-8-4.67,8,4.36L257.09,43Z"/><path class="cls-9" d="M260,70.11,243.17,59.52,269,56l-.14.22ZM243.85,59.67l16.09,10.12L268.5,56.3Z"/><path class="cls-9" d="M265.66,86.84l-.09-.26-5.73-16.67h.06l27.83-23.29-.3.55ZM260.12,70l5.59,16.26,21.21-38.64Z"/><path class="cls-9" d="M248.22,104.25,226.11,87.58l18.56,1.64v.09ZM226.92,87.9l20.91,15.76-3.35-14.22Z"/><path class="cls-9" d="M236.14,108.25,254,90.94l-5.84,13.11h0ZM253.24,92l-16.15,15.69,10.85-3.81Z"/><path class="cls-9" d="M264,87.68l35-31.81L291.9,74.42ZM297.48,58l-30.1,27.4,24-11.43Z"/><path class="cls-9" d="M313.93,75.17l13.72-10.92h.05l9.19,1.39ZM327.72,64.5l-12.31,9.79L336,65.76Z"/><path class="cls-9" d="M321.5,95.6v-.12l-7-21.08,20.92,16Zm-6.59-20.54,6.74,20.23,13.22-4.93Z"/><path class="cls-9" d="M302.66,100.38v-.09L291.3,73.86l.34.24,30.22,21.39ZM291.85,74.54l10.94,25.56,18.51-4.71Z"/><path class="cls-9" d="M288.81,119.86l-6.41-4.46v-.08l3.87-12.15.08.51Zm-6.12-4.55,5.8,4-2.27-15.13Z"/><path class="cls-9" d="M286.27,103.86,265.42,86.48h.24l49.37-12-.29.29ZM265.94,86.61l20.31,16.92,28-28.59Z"/><path class="cls-9" d="M321.63,95.77l-.16-.27L298,56.75l29.86,7.54v.11ZM298.46,57.13l23.06,38,6-30.65Z"/><path class="cls-9" d="M342.76,74.11l-15.62-9.94,9.37,1.42h0Zm-14.53-9.53,13.59,8.64-5.44-7.41Z"/><path class="cls-9" d="M317.82,127.48l-.12-.17L311,118.24l.11-.07,14.12-8.69-.14.34Zm-6.43-9.17,6.37,8.69,7-16.93Z"/><path class="cls-10" d="M181.29,58l-.12-.26L173.91,41.2l9,4.65h0Zm-7-16.45,7,15.86L182.75,46Z"/><path class="cls-10" d="M201.13,42.31l-11.61-1.5v-.08l1.22-8,.11.1ZM189.7,40.67l11,1.42-9.8-9Z"/><path class="cls-10" d="M220.4,47.87l-9.78-16.31h0l7.2-5.56v.14ZM210.83,31.6l9.33,15.55-2.47-20.86Z"/><path class="cls-10" d="M200.7,42.29l10-10.81h.06l16.84,9.3h-.28Zm10-10.61-9.65,10.43,26-1.43Z"/><path class="cls-10" d="M235.17,55.28l-8.1-15h.09l14.49-4.56-.05.15ZM227.3,40.39l7.83,14.49L241.4,36Z"/><path class="cls-10" d="M269,56.31,226.8,40.64h.52l30.84,1.6h0ZM227.83,40.85,268.51,56,258.08,42.41Z"/><path class="cls-10" d="M203.57,51.31v-.15l24.17-10.67-7.37,7.1h0ZM226.94,41,204.32,51l15.92-3.54Z"/><path class="cls-10" d="M209.78,61.19l-.06-.09-6.3-9.92,17.06-3.79Zm-6.1-9.91,6.12,9.64,10.28-13.28Z"/><path class="cls-10" d="M195.13,62.78l5.76-20.87,2.75,9.34h0Zm5.77-20.29L195.51,62l8-10.78Z"/><path class="cls-10" d="M189.42,55.6l-6.69-9.7,7-5.32ZM183,45.94l6.32,9.16.26-14.19Z"/><path class="cls-10" d="M165.36,67.08l10.28-9.29,6.19-.28-.28.16ZM175.7,58l-9.1,8.23,14.59-8.48Z"/><path class="cls-10" d="M175.51,58l7.59-12.07,6.38,9.49h-.12Zm7.6-11.78-7.27,11.56,13.37-2.47Z"/><path class="cls-10" d="M195.49,62.7l-6.22-7.33h0l.27-15.17Zm-6.06-7.38,5.72,6.74-5.47-20.74Z"/><path class="cls-10" d="M189.31,55.44h0L183,46h.13l44.84-5.38-.6.23Zm-6.07-9.32,6.14,9.13L226.69,40.9Z"/><path class="cls-10" d="M227.49,40.86h-.19L190.45,33l27.34-6.87h0Zm-36.33-8,36,7.72-9.42-14.39Z"/><path class="cls-10" d="M233.22,75.72l-.12-.14L220.54,61.42h.1L235.24,55v.14ZM220.81,61.48,233.1,75.34l2-20.13Z"/><path class="cls-10" d="M266.28,88.12,234.67,55l23.67-13.14.07.41Zm-30.65-33,29.73,31.14L257.89,42.8Z"/><path class="cls-10" d="M291.61,74.59l-.09-.06-23-18.48h.24l29.59,1.07ZM269,56.23l22.56,18.1,6.56-17Z"/><path class="cls-10" d="M302.68,99.78v-.06L291.39,74.24l.23.16,30.15,20.81ZM291.76,74.69l11,24.91,18.61-4.46Z"/><path class="cls-10" d="M321.42,95.31l.09-.17,15-30.07-1.08,25.38Zm14.93-29.5L321.74,95l13.57-4.7Z"/><path class="cls-10" d="M342.51,73.57,298.18,57.28l.05-.15,38.26,8.23h0Zm-43.21-16L342,73.24l-5.67-7.73Z"/><path class="cls-10" d="M265.87,87.51,241.31,35.57l27.51,20.54h0ZM241.73,36.09l24,50.82,2.89-30.73Z"/><path class="cls-10" d="M325.2,109.41l-.2-.09-22.35-9.58h0l-4.56-42.91Zm-22.4-9.78,22.06,9.46L298.34,57.62Z"/><path class="cls-10" d="M248,104.19l-3.54-15h.12l8.86,2.14v.09ZM244.7,89.44,248,103.68l5.18-12.17Z"/><path class="cls-10" d="M244.75,89.42,192.31,87.8l.46-.14,40.42-12.23h0Zm-51.46-1.74,51.11,1.57L233.13,75.62Z"/><path class="cls-10" d="M206,126.33l-.26-.3-20-22.88h0l7-15.59.06.19Zm-20-23.2,19.61,22.49L192.79,88Z"/><path class="cls-10" d="M205.63,126.16l10.22-20.44h0l32.5-1.88L248,104ZM216,105.87l-10,19.92L247.66,104Z"/><path class="cls-10" d="M186,103.26h-.18L154.34,96l.18-.1,20.25-11.45Zm-31.28-7.32,31,7.06-11-18.36Z"/><path class="cls-10" d="M174.81,84.88l-8.93-18.27h.05l9.83-8.89v.19Zm-8.73-18.23,8.59,17.58.92-26.18Z"/><path class="cls-10" d="M236.32,157.45l-29.53-7v-.06l-1.07-24.64.15.15ZM207,150.34l28.88,6.83-29.93-31Z"/><path class="cls-10" d="M202.35,188.32,192.72,87.75h.16L207,150.43h0ZM193,89l9.37,97.84,4.42-36.43Z"/><path class="cls-10" d="M258.11,42.42h0l-17.6-6.5h.36L351,27.65v.16ZM241.23,36l16.9,6.24,91-14.29Z"/><path class="cls-7" d="M354.27,67.84l-3.53-17.23L360,56.8Zm-2.95-16.36,3.11,15.18,5.06-9.73Z"/><path class="cls-7" d="M359.79,72.89,354.17,67l-3.34-16,.38-.11Zm-5.25-6,4.14,4.33-7-17.83Z"/><path class="cls-7" d="M348.39,80,347,72.1l8.41-5.77Zm-.67-7.65,1,5.78,5.17-10Z"/><path class="cls-7" d="M359,73.41l.05-1.48L347,72.46l13-16.19-.52,15.25h.17Zm.54-15.95L347.82,72,359,71.53Z"/><path class="cls-7" d="M316.12,138.49l-.1-.21-8.83-17.88,15.1,13.83Zm-7.63-16.36,7.79,15.77,5.38-3.71Z"/><path class="cls-7" d="M324.53,141.32l-8.55-3,1.92-12.19Zm-8.11-3.26,7.38,2.58-5.72-13.1Z"/><path class="cls-7" d="M329.45,135.05l-.08-.15-3.84-7.45,11.74,4.78Zm-3.07-6.83,3.26,6.34,6.52-2.36Z"/><path class="cls-7" d="M329.72,134.89l-.36-.15,10.15-27.88.38.11-2.59,11.35ZM338.8,110l-7.37,20.2,5.5-12Z"/><path class="cls-7" d="M349.15,110.67l-9.89-3,1.94-8.39Zm-9.41-3.28,8.43,2.56-6.78-9.71Z"/><path class="cls-7" d="M346.91,120.54l-6.13-21.86,8.09,11.58Zm-5.11-19.71,5,18,1.62-8.45Z"/><path class="cls-7" d="M345.39,137.7l-9.13-5.53,12.31-4.67Zm-8.22-5.44,8,4.83,2.79-8.92Z"/><path class="cls-7" d="M336.9,132.53l-11.52-5.45,11.94-9.22ZM326.14,127l10.38,4.91.38-13.22Z"/><path class="cls-7" d="M342.91,147.07l-21.47-6.62L351.36,143Zm-16-5.56,16,4.92,6.29-3.05Z"/><path class="cls-7" d="M368.88,144.38l-21.6-17.07,14.26,4.54v.07Zm-19.64-16,18.23,14.4-6.2-10.57Z"/><path class="cls-7" d="M380.62,146.51l-21.47-16.28,19.44,8.14ZM363.27,132.6,379.63,145l-1.55-6.2Z"/><path class="cls-7" d="M380.39,146l-12.84-2.36,10.92-5.35Zm-11.58-2.53,11.05,2-1.66-6.63Z"/><path class="cls-7" d="M368.2,175.3l-1.82-15.23,4.54-13.18Zm-1.41-15.18,1.37,11.46,2-21.38Z"/><path class="cls-7" d="M367.91,174.09l2.53-26.33,6.53,15Zm2.78-24.76-2.25,23.46,8.07-10.14Z"/><path class="cls-7" d="M381.64,174.39l-15.76-14.68,11,2.81Zm-14.35-13.91,13.32,12.4-4-10Z"/><path class="cls-7" d="M356.65,165.29l3.87-9.68,6.45,4.51Zm4.05-9.07-3.3,8.24,8.8-4.39Z"/><path class="cls-7" d="M360.73,156.31l-7.57-7.14,9.09-.44Zm-6.61-6.79,6.36,6,1.28-6.37Z"/><path class="cls-7" d="M357.62,166.19l-8.54-11.68,4.72-5.84Zm-7.79-11.66,6.6,9L353.48,150Z"/><path class="cls-7" d="M345.56,171.36,339,160.83l10.74-6.74Zm-6-10.4,5.82,9.38L349.15,155Z"/><path class="cls-7" d="M350.47,182.52l-5.25-11.76,12.18-6.3Zm-4.74-11.58,4.71,10.54,6.21-16.19Z"/><path class="cls-7" d="M353.35,190l3.52-25.47,11.6,8.9Zm3.82-24.74-3.25,23.52,14-15.3Z"/><path class="cls-7" d="M372.5,188.67l-4.59-15.44,13.56.21Zm-4.05-15,4.17,14,8.16-13.85Z"/><path class="cls-7" d="M362.81,194.58l-9.87-5.37,20.38-1.28Zm-8.47-5.06,8.45,4.6,9-5.7Z"/><path class="cls-7" d="M353.58,189.73l-3.39-7.82.18-.09,18.65-9Zm-2.87-7.63,3,6.91,13.63-14.94Z"/><path class="cls-7" d="M331.81,175.68l-4-10.74,17.69,6.32Zm-3.33-10.08,3.57,9.58,12.21-3.94Z"/><path class="cls-7" d="M338.47,186.78l-10.6-21.61.21-.08,11.43-4.49v.3Zm-10.05-21.4,9.72,19.81.95-24Z"/><path class="cls-7" d="M326.72,186.43l1.45-20.83,17.11,5.57Zm1.81-20.29-1.34,19.4,17.28-14.22Z"/><path class="cls-7" d="M338.18,185.73l-7.83-11.09,21.1,7.39Zm-6.26-9.91,6.51,9.18,11-3.07Z"/><path class="cls-7" d="M326.1,186.3l19.66-16.16-7.86,15.94ZM344,172.36l-16.19,13.31,9.71-.18Z"/><path class="cls-7" d="M359.2,202.23l3.44-8h.05l11.18-7.07Zm3.76-7.75-2.54,5.93,10.83-11.17Z"/><path class="cls-7" d="M381.38,207.81,401,186.88l5.28,5.92-.2.13ZM401,187.47,383.65,206l22.06-13.27Z"/><path class="cls-7" d="M397.29,200.28l3.65-13.51,5.36,6Zm3.84-12.69L398,199.17l7.72-6.44Z"/><path class="cls-9" d="M331,134.76a1.35,1.35,0,1,1-1.35-1.35,1.34,1.34,0,0,1,1.35,1.35Z"/><path class="cls-9" d="M338.24,118.37a1.35,1.35,0,1,1-1.35-1.35,1.34,1.34,0,0,1,1.35,1.35Z"/><path class="cls-9" d="M308.84,121.09a1.35,1.35,0,1,1-1.35-1.35,1.34,1.34,0,0,1,1.35,1.35Z"/><circle class="cls-9" cx="323.96" cy="140.81" r="1.35"/><path class="cls-9" d="M346.59,137.4a1.35,1.35,0,1,1-1.35-1.35A1.37,1.37,0,0,1,346.59,137.4Z"/><path class="cls-9" d="M373.47,188.16a1.35,1.35,0,1,1-1.35-1.35,1.34,1.34,0,0,1,1.35,1.35Z"/><circle class="cls-9" cx="376.47" cy="162.53" r="1.35"/><path class="cls-9" d="M369.59,173.24a1.35,1.35,0,1,1-1.36-1.34h0A1.36,1.36,0,0,1,369.59,173.24Z"/><path class="cls-9" d="M346.59,170.94a1.35,1.35,0,1,1-1.35-1.35,1.34,1.34,0,0,1,1.35,1.35Z"/><path class="cls-9" d="M384,206.74a1.35,1.35,0,1,1-1.36-1.34h0A1.36,1.36,0,0,1,384,206.74Z"/><path class="cls-9" d="M349.75,78.65a1.35,1.35,0,1,1-1.35-1.35,1.34,1.34,0,0,1,1.35,1.35Z"/><path class="cls-9" d="M360.56,72a1.35,1.35,0,1,1-1.35-1.35A1.34,1.34,0,0,1,360.56,72Z"/><circle class="cls-9" cx="350.98" cy="51.04" r="1.35"/><path class="cls-9" d="M348.26,78.88v-.24l2.62-28.11,8.45,21.53h-.08ZM351,51.55l-2.5,26.88L359,72Z"/><path class="cls-9" d="M318,127.8,307,121.94l3.94-4.25Zm-10.69-5.93,9.92,5.25-6.4-9.05Z"/><path class="cls-9" d="M345.43,137.55h-.21l-15.69-2.66,7.36-16.78.11.25Zm-15.56-2.89L345,137.24l-8.15-18.58Z"/><path class="cls-9" d="M323.92,141l-6.2-14.72.34.23,11.83,8.2-.1.1Zm-5.66-14L324,140.6l5.52-5.83Z"/><path class="cls-9" d="M345.46,137.61l-27.78-11,.27-.12,19-8.32v.11Zm-27.16-11L345,137.18l-8.18-18.66Z"/><path class="cls-9" d="M372.17,189.65l-4.26-17.84,9-10.27ZM368.56,172,372,186.66l4-23.14Z"/><path class="cls-9" d="M372.31,188.42l-.25-.16-27.31-17.48h.5l23,2.31v.08Zm-26.59-17.31,26.21,16.78-3.85-14.54Z"/><path class="cls-9" d="M368.23,173.36h-.07L344.58,171l.62-.17,31.58-8.51Zm-22.33-2.47,22.22,2.22,8-10.37Z"/><path class="cls-9" d="M167.38,66.7A1.35,1.35,0,1,1,166,65.35a1.34,1.34,0,0,1,1.35,1.35Z"/><path class="cls-9" d="M182.73,57.47a1.35,1.35,0,1,1-1.35-1.35,1.34,1.34,0,0,1,1.35,1.35Z"/><path class="cls-9" d="M196.78,62.08a1.35,1.35,0,1,1-1.35-1.35,1.34,1.34,0,0,1,1.35,1.35Z"/><path class="cls-9" d="M184.32,46.05A1.35,1.35,0,1,1,183,44.7a1.34,1.34,0,0,1,1.35,1.35Z"/><path class="cls-9" d="M175.29,41.27a1.35,1.35,0,1,1-1.35-1.35h0a1.34,1.34,0,0,1,1.34,1.34Z"/><path class="cls-9" d="M180.87,43.13a1.35,1.35,0,1,1-1.35-1.35,1.34,1.34,0,0,1,1.35,1.35Z"/><path class="cls-9" d="M202.11,42.34A1.35,1.35,0,1,1,200.75,41h0a1.34,1.34,0,0,1,1.35,1.33Z"/><path class="cls-9" d="M205,51.36A1.35,1.35,0,1,1,203.68,50,1.34,1.34,0,0,1,205,51.36Z"/><path class="cls-9" d="M196.27,54.28a1.35,1.35,0,1,1-1.35-1.35,1.34,1.34,0,0,1,1.35,1.35Z"/><path class="cls-9" d="M221.76,61.19a1.35,1.35,0,1,1-1.35-1.35,1.34,1.34,0,0,1,1.35,1.35Z"/><path class="cls-9" d="M211.94,31.71a1.35,1.35,0,1,1-1.35-1.35,1.34,1.34,0,0,1,1.35,1.35Z"/><circle class="cls-9" cx="202.89" cy="29.86" r="1.35"/><circle class="cls-9" cx="190.94" cy="33.04" r="1.35"/><path class="cls-9" d="M219.11,26.14a1.35,1.35,0,1,1-1.35-1.35A1.37,1.37,0,0,1,219.11,26.14Z"/><circle class="cls-9" cx="227.32" cy="40.74" r="1.35"/><path class="cls-9" d="M236.63,55.08a1.35,1.35,0,1,1-1.35-1.35,1.34,1.34,0,0,1,1.35,1.35Z"/><path class="cls-9" d="M244.86,59.59a1.35,1.35,0,1,1-1.36-1.34h0a1.34,1.34,0,0,1,1.35,1.33Z"/><path class="cls-9" d="M267.17,86.94a1.35,1.35,0,1,1-1.35-1.35,1.34,1.34,0,0,1,1.35,1.35Z"/><path class="cls-9" d="M261,70a1.35,1.35,0,1,1-1.35-1.35A1.34,1.34,0,0,1,261,70Z"/><path class="cls-9" d="M270.09,56.14a1.35,1.35,0,1,1-1.35-1.35,1.34,1.34,0,0,1,1.35,1.35Z"/><path class="cls-9" d="M259.2,42.34A1.35,1.35,0,1,1,257.84,41h0a1.34,1.34,0,0,1,1.35,1.33Z"/><path class="cls-9" d="M337.8,65.7a1.35,1.35,0,1,1-1.35-1.35,1.34,1.34,0,0,1,1.35,1.35Z"/><path class="cls-9" d="M343.64,73.67a1.35,1.35,0,1,1-1.35-1.35A1.37,1.37,0,0,1,343.64,73.67Z"/><path class="cls-9" d="M329,64.37A1.35,1.35,0,1,1,327.68,63,1.34,1.34,0,0,1,329,64.37Z"/><path class="cls-9" d="M336.47,90.4a1.35,1.35,0,1,1-1.35-1.35,1.34,1.34,0,0,1,1.35,1.35Z"/><path class="cls-9" d="M322.93,95.44a1.35,1.35,0,1,1-1.35-1.35,1.34,1.34,0,0,1,1.35,1.35Z"/><path class="cls-9" d="M326.38,109.78a1.35,1.35,0,1,1-1.35-1.35A1.37,1.37,0,0,1,326.38,109.78Z"/><path class="cls-9" d="M319.21,126.77a1.35,1.35,0,1,1-1.35-1.35,1.34,1.34,0,0,1,1.35,1.35Z"/><path class="cls-9" d="M312.57,118.28a1.35,1.35,0,1,1-1.35-1.35,1.34,1.34,0,0,1,1.35,1.35Z"/><circle class="cls-9" cx="302.72" cy="100.24" r="1.35"/><path class="cls-9" d="M287.61,103.69a1.35,1.35,0,1,1-1.35-1.35,1.34,1.34,0,0,1,1.35,1.35Z"/><path class="cls-9" d="M283.89,115.35a1.35,1.35,0,1,1-1.36-1.34h0a1.34,1.34,0,0,1,1.35,1.33Z"/><path class="cls-9" d="M290,119.6a1.35,1.35,0,1,1-1.35-1.35A1.34,1.34,0,0,1,290,119.6Z"/><path class="cls-9" d="M255,91.46a1.35,1.35,0,1,1-1.35-1.35A1.34,1.34,0,0,1,255,91.46Z"/><circle class="cls-9" cx="248.03" cy="103.96" r="1.35"/><circle class="cls-9" cx="236.61" cy="108.21" r="1.35"/><circle class="cls-9" cx="226.52" cy="87.74" r="1.35"/><circle class="cls-9" cx="221.21" cy="82.43" r="1.35"/><path class="cls-9" d="M234.24,75.53a1.35,1.35,0,1,1-1.35-1.35,1.34,1.34,0,0,1,1.35,1.35Z"/><path class="cls-9" d="M245.92,89.33A1.35,1.35,0,1,1,244.55,88h0A1.34,1.34,0,0,1,245.92,89.33Z"/><circle class="cls-9" cx="291.57" cy="74.2" r="1.35"/><path class="cls-8" d="M316,74.73a1.35,1.35,0,1,1-1.35-1.35A1.34,1.34,0,0,1,316,74.73Z"/><path class="cls-9" d="M299.56,56.94a1.35,1.35,0,1,1-1.35-1.35,1.34,1.34,0,0,1,1.35,1.35Z"/><circle class="cls-9" cx="287.32" cy="47.11" r="1.35"/><path class="cls-10" d="M317.89,127,311,118.24l14.23-8.89Zm-6.49-8.7,6.43,8.23L324.77,110Z"/><path class="cls-10" d="M345.19,137.51l-27.56-10.78-6.87-8.85.52.29,34,19.12Zm-27.41-11,25.9,10.13-32-18Z"/><path class="cls-10" d="M311,118.59l.16-.36,10.5-23.29,3.56,14.76h-.08Zm10.59-22.92L311.49,118l13.4-8.38Z"/><path class="cls-10" d="M372.35,188.77l-.26-.16-27.33-17.83h.49l23.08,2.31Zm-26.64-17.66L372,188.24l-3.83-14.88Z"/><path class="cls-7" d="M327.17,127.46a1.35,1.35,0,1,1-1.35-1.35,1.34,1.34,0,0,1,1.35,1.35Z"/><path class="cls-7" d="M331,134.76a1.35,1.35,0,1,1-1.35-1.35,1.34,1.34,0,0,1,1.35,1.35Z"/><circle class="cls-7" cx="336.69" cy="132.12" r="1.35"/><path class="cls-7" d="M338.24,118.37a1.35,1.35,0,1,1-1.35-1.35,1.34,1.34,0,0,1,1.35,1.35Z"/><path class="cls-8" d="M342.39,99.34A1.35,1.35,0,1,1,341,98a1.34,1.34,0,0,1,1.36,1.34Z"/><path class="cls-7" d="M341,107a1.35,1.35,0,1,1-1.35-1.35A1.34,1.34,0,0,1,341,107Z"/><path class="cls-8" d="M348.14,119.85a1.35,1.35,0,1,1-1.35-1.35,1.34,1.34,0,0,1,1.35,1.35Z"/><path class="cls-7" d="M349.85,110.53a1.35,1.35,0,1,1-1.35-1.35A1.37,1.37,0,0,1,349.85,110.53Z"/><path class="cls-7" d="M323.29,134.13a1.35,1.35,0,1,1-1.35-1.35,1.34,1.34,0,0,1,1.35,1.35Z"/><path class="cls-7" d="M308.84,121.09a1.35,1.35,0,1,1-1.35-1.35,1.34,1.34,0,0,1,1.35,1.35Z"/><circle class="cls-7" cx="316.35" cy="137.55" r="1.35"/><circle class="cls-7" cx="323.96" cy="140.81" r="1.35"/><circle class="cls-7" cx="342.75" cy="146.56" r="1.35"/><path class="cls-7" d="M351.4,143.3A1.35,1.35,0,1,1,350,142h0A1.36,1.36,0,0,1,351.4,143.3Z"/><path class="cls-7" d="M346.59,137.4a1.35,1.35,0,1,1-1.35-1.35A1.37,1.37,0,0,1,346.59,137.4Z"/><circle class="cls-7" cx="348.03" cy="127.92" r="1.35"/><path class="cls-7" d="M362.58,131.8a1.35,1.35,0,1,1-1.35-1.35,1.34,1.34,0,0,1,1.35,1.35Z"/><path class="cls-7" d="M379.82,138.79a1.35,1.35,0,1,1-1.35-1.35,1.34,1.34,0,0,1,1.35,1.35Z"/><path class="cls-7" d="M381,145.78a1.35,1.35,0,1,1-1.35-1.35,1.34,1.34,0,0,1,1.35,1.35Z"/><path class="cls-8" d="M369.26,143.61a1.35,1.35,0,1,1-1.35-1.35,1.34,1.34,0,0,1,1.35,1.35Z"/><path class="cls-7" d="M372.21,148.58a1.35,1.35,0,1,1-1.35-1.35,1.34,1.34,0,0,1,1.35,1.35Z"/><path class="cls-7" d="M367.71,160.07a1.35,1.35,0,1,1-1.35-1.35,1.34,1.34,0,0,1,1.35,1.35Z"/><path class="cls-7" d="M361.81,155.88a1.35,1.35,0,1,1-1.35-1.35A1.37,1.37,0,0,1,361.81,155.88Z"/><circle class="cls-7" cx="361.98" cy="149.08" r="1.35"/><path class="cls-7" d="M355.1,149.24a1.35,1.35,0,1,1-1.35-1.35A1.37,1.37,0,0,1,355.1,149.24Z"/><path class="cls-8" d="M350.62,154.79a1.35,1.35,0,1,1-1.35-1.35,1.34,1.34,0,0,1,1.35,1.35Z"/><circle class="cls-7" cx="339.33" cy="161" r="1.35"/><path class="cls-7" d="M330,165.66a1.35,1.35,0,1,1-1.35-1.35,1.34,1.34,0,0,1,1.35,1.35Z"/><circle class="cls-7" cx="327.37" cy="185.85" r="1.35"/><circle class="cls-7" cx="338.4" cy="185.7" r="1.35"/><path class="cls-8" d="M352,182.13a1.35,1.35,0,1,1-1.35-1.35,1.34,1.34,0,0,1,1.35,1.35Z"/><path class="cls-7" d="M355.13,189.27a1.35,1.35,0,1,1-1.35-1.35,1.34,1.34,0,0,1,1.35,1.35Z"/><circle class="cls-7" cx="362.8" cy="194.37" r="1.35"/><path class="cls-7" d="M373.47,188.16a1.35,1.35,0,1,1-1.35-1.35,1.34,1.34,0,0,1,1.35,1.35Z"/><path class="cls-7" d="M382.63,173.87a1.35,1.35,0,1,1-1.35-1.35,1.34,1.34,0,0,1,1.35,1.35Z"/><circle class="cls-7" cx="376.47" cy="162.53" r="1.35"/><path class="cls-7" d="M369.59,173.24a1.35,1.35,0,1,1-1.36-1.34h0A1.36,1.36,0,0,1,369.59,173.24Z"/><path class="cls-7" d="M358.54,164.89a1.35,1.35,0,1,1-1.35-1.35h0A1.36,1.36,0,0,1,358.54,164.89Z"/><path class="cls-7" d="M346.59,170.94a1.35,1.35,0,1,1-1.35-1.35,1.34,1.34,0,0,1,1.35,1.35Z"/><path class="cls-8" d="M332.92,175.29a1.35,1.35,0,1,1-1.35-1.35,1.34,1.34,0,0,1,1.35,1.35Z"/><path class="cls-7" d="M361,200.92a1.35,1.35,0,1,1-1.35-1.35,1.34,1.34,0,0,1,1.35,1.35Z"/><path class="cls-7" d="M384,206.74a1.35,1.35,0,1,1-1.36-1.34h0A1.36,1.36,0,0,1,384,206.74Z"/><path class="cls-8" d="M399,199.29a1.35,1.35,0,1,1-1.35-1.35,1.34,1.34,0,0,1,1.35,1.35Z"/><path class="cls-7" d="M407,192.92a1.35,1.35,0,1,1-1.35-1.35,1.34,1.34,0,0,1,1.35,1.35Z"/><path class="cls-7" d="M402.28,187.56a1.35,1.35,0,1,1-1.35-1.35,1.34,1.34,0,0,1,1.35,1.35Z"/><path class="cls-7" d="M349.75,78.65a1.35,1.35,0,1,1-1.35-1.35,1.34,1.34,0,0,1,1.35,1.35Z"/><path class="cls-8" d="M360.56,72a1.35,1.35,0,1,1-1.35-1.35A1.34,1.34,0,0,1,360.56,72Z"/><path class="cls-7" d="M361,56.94a1.35,1.35,0,1,1-1.35-1.35A1.34,1.34,0,0,1,361,56.94Z"/><circle class="cls-7" cx="350.98" cy="51.04" r="1.35"/><circle class="cls-7" cx="354.55" cy="67.04" r="1.35"/><path class="cls-7" d="M348.76,72.47a1.35,1.35,0,1,1-1.35-1.35,1.34,1.34,0,0,1,1.35,1.35Z"/><path class="cls-10" d="M319.21,126.77a1.35,1.35,0,1,1-1.35-1.35,1.34,1.34,0,0,1,1.35,1.35Z"/><path class="cls-10" d="M312.57,118.28a1.35,1.35,0,1,1-1.35-1.35,1.34,1.34,0,0,1,1.35,1.35Z"/><path class="cls-10" d="M346.59,137.4a1.35,1.35,0,1,1-1.35-1.35A1.37,1.37,0,0,1,346.59,137.4Z"/><path class="cls-10" d="M373.47,188.16a1.35,1.35,0,1,1-1.35-1.35,1.34,1.34,0,0,1,1.35,1.35Z"/><path class="cls-10" d="M370.42,173.24a2.19,2.19,0,1,1-2.2-2.18h0A2.2,2.2,0,0,1,370.42,173.24Z"/><path class="cls-10" d="M346.59,170.94a1.35,1.35,0,1,1-1.35-1.35,1.34,1.34,0,0,1,1.35,1.35Z"/><path class="cls-10" d="M352.13,27.47a1.35,1.35,0,1,1-1.35-1.35,1.34,1.34,0,0,1,1.35,1.35Z"/><path class="cls-10" d="M155.62,96.12a1.35,1.35,0,1,1-1.35-1.35A1.37,1.37,0,0,1,155.62,96.12Z"/><path class="cls-10" d="M204,187.76a1.73,1.73,0,1,1-1.74-1.72h0a1.72,1.72,0,0,1,1.73,1.71Z"/><path class="cls-10" d="M194.4,87.58A1.35,1.35,0,1,1,193,86.23a1.34,1.34,0,0,1,1.37,1.35Z"/><circle class="cls-10" cx="186.12" cy="103.04" r="1.35"/><path class="cls-10" d="M217,105.81a1.35,1.35,0,1,1-1.35-1.35,1.34,1.34,0,0,1,1.35,1.35Z"/><path class="cls-10" d="M207.88,125.89A1.9,1.9,0,1,1,206,124H206A1.9,1.9,0,0,1,207.88,125.89Z"/><path class="cls-10" d="M238,157.06a1.35,1.35,0,1,1-1.35-1.35A1.37,1.37,0,0,1,238,157.06Z"/><path class="cls-10" d="M168.1,66.7A2.07,2.07,0,1,1,166,64.63,2.07,2.07,0,0,1,168.1,66.7Z"/><path class="cls-10" d="M183.23,57.47a1.85,1.85,0,1,1-1.85-1.85,1.85,1.85,0,0,1,1.85,1.85Z"/><path class="cls-10" d="M196.78,62.08a1.35,1.35,0,1,1-1.35-1.35,1.34,1.34,0,0,1,1.35,1.35Z"/><path class="cls-10" d="M184.32,46.05A1.35,1.35,0,1,1,183,44.7a1.34,1.34,0,0,1,1.35,1.35Z"/><path class="cls-10" d="M202.11,42.34A1.35,1.35,0,1,1,200.75,41h0a1.34,1.34,0,0,1,1.35,1.33Z"/><path class="cls-10" d="M205.59,51.36a1.91,1.91,0,1,1-1.92-1.9h0a1.9,1.9,0,0,1,1.91,1.89Z"/><path class="cls-10" d="M222.15,61.19a1.74,1.74,0,1,1-1.74-1.74h0A1.74,1.74,0,0,1,222.15,61.19Z"/><path class="cls-10" d="M211.94,31.71a1.35,1.35,0,1,1-1.35-1.35,1.34,1.34,0,0,1,1.35,1.35Z"/><circle class="cls-10" cx="190.94" cy="33.04" r="1.35"/><path class="cls-10" d="M219.11,26.14a1.35,1.35,0,1,1-1.35-1.35A1.37,1.37,0,0,1,219.11,26.14Z"/><circle class="cls-10" cx="227.32" cy="40.74" r="2.39"/><path class="cls-10" d="M267.17,86.94a1.35,1.35,0,1,1-1.35-1.35,1.34,1.34,0,0,1,1.35,1.35Z"/><path class="cls-10" d="M259.2,42.34A1.35,1.35,0,1,1,257.84,41h0a1.34,1.34,0,0,1,1.35,1.33Z"/><path class="cls-10" d="M336.47,90.4a1.35,1.35,0,1,1-1.35-1.35,1.34,1.34,0,0,1,1.35,1.35Z"/><path class="cls-10" d="M322.93,95.44a1.35,1.35,0,1,1-1.35-1.35,1.34,1.34,0,0,1,1.35,1.35Z"/><path class="cls-10" d="M304.52,100.24a1.8,1.8,0,1,1-1.8-1.8h0a1.79,1.79,0,0,1,1.8,1.78Z"/><path class="cls-10" d="M221.18,47.47a.94.94,0,1,1-1-.93h0A.94.94,0,0,1,221.18,47.47Z"/><path class="cls-10" d="M190.34,55.26a.94.94,0,1,1-1-.93h0A.94.94,0,0,1,190.34,55.26Z"/><path class="cls-10" d="M176.09,41.36a2,2,0,1,1-2-2A2,2,0,0,1,176.09,41.36Z"/><path class="cls-10" d="M176.74,58a.94.94,0,1,1-.94-.94.94.94,0,0,1,.94.94Z"/><path class="cls-10" d="M190.55,40.74a.94.94,0,1,1-.94-.94.94.94,0,0,1,.94.94Z"/><circle class="cls-10" cx="209.92" cy="61.19" r="0.94"/><path class="cls-10" d="M236.22,55.08a.94.94,0,1,1-.94-.94.94.94,0,0,1,.94.94Z"/><path class="cls-10" d="M234.13,75.6a.94.94,0,1,1-.95-.93h0A.94.94,0,0,1,234.13,75.6Z"/><path class="cls-10" d="M175.53,84.53a.94.94,0,1,1-.94-.94h0A.94.94,0,0,1,175.53,84.53Z"/><path class="cls-10" d="M245.51,89.33a.94.94,0,1,1-.95-.93h0A1,1,0,0,1,245.51,89.33Z"/><circle class="cls-10" cx="206.73" cy="150.59" r="0.94"/><path class="cls-10" d="M242.13,36a.74.74,0,1,1-.75-.73h0A.75.75,0,0,1,242.13,36Z"/><path class="cls-10" d="M269.47,56.14a.74.74,0,1,1-.75-.73h0A.75.75,0,0,1,269.47,56.14Z"/><path class="cls-10" d="M299,56.94a.74.74,0,1,1-.74-.74h0A.74.74,0,0,1,299,56.94Z"/><path class="cls-10" d="M337.18,65.7a.74.74,0,1,1-.74-.74h0A.75.75,0,0,1,337.18,65.7Z"/><path class="cls-10" d="M343,73.67a.74.74,0,1,1-.74-.74h0A.74.74,0,0,1,343,73.67Z"/><path class="cls-10" d="M325.9,109.51a.74.74,0,1,1-.75-.73h0A.75.75,0,0,1,325.9,109.51Z"/><path class="cls-10" d="M292.44,74.46a.74.74,0,1,1-.75-.73h0A.75.75,0,0,1,292.44,74.46Z"/><path class="cls-10" d="M254.41,91.45a.74.74,0,1,1-.74-.74h0A.74.74,0,0,1,254.41,91.45Z"/><path class="cls-10" d="M248.76,104a.74.74,0,1,1-.74-.74h0A.75.75,0,0,1,248.76,104Z"/><path class="cls-11" d="M355.57,30.71v7.22a5.75,5.75,0,0,1,0,11.5v16a99.78,99.78,0,0,0,4.1-10.13,12.65,12.65,0,0,0-4.1-24.6Z"/><path class="cls-12" d="M355.57,49.43a5.75,5.75,0,0,1,0-11.5h0V30.71h0a12.64,12.64,0,0,0-4.16,24.58,95.43,95.43,0,0,0,4.19,10.15v-16Z"/><path class="cls-11" d="M322.8,72.72v7.21a5.76,5.76,0,0,1,0,11.51v16a99.89,99.89,0,0,0,4.09-10.14,12.64,12.64,0,0,0-4.09-24.59Z"/><path class="cls-12" d="M322.79,91.44a5.76,5.76,0,0,1,0-11.51h0V72.72h0a12.65,12.65,0,0,0-4.16,24.59,93.45,93.45,0,0,0,4.2,10.15v-16Z"/></svg>