<svg id="Layer_1" data-name="Layer 1" xmlns="http://www.w3.org/2000/svg" viewBox="0 0 64.03 57.59"><defs><style>.cls-1{fill:#8736bd;}.cls-2{fill:#efc039;}</style></defs><path class="cls-1" d="M62.78,24.26H37.55l-1-3h6.59A3.93,3.93,0,0,0,47,17.33V3.93A3.93,3.93,0,0,0,43.09,0H20.94A3.93,3.93,0,0,0,17,3.93v13.4a3.93,3.93,0,0,0,3.93,3.93H27.4l-1,3H1.25A1.25,1.25,0,0,0,0,25.51H0v4a1.25,1.25,0,0,0,1.25,1.25h2L3.7,56.3A1.25,1.25,0,0,0,5,57.53H7.57a1.33,1.33,0,0,0,.3.06H8a1.36,1.36,0,0,0,1.3-1.32,1.22,1.22,0,0,0,0-.26l1.66-25.25H53L54.68,56a1.34,1.34,0,0,0,1.08,1.56H56a.73.73,0,0,0,.3-.06H59A1.24,1.24,0,0,0,60.2,56.3l.48-25.54h2.1A1.25,1.25,0,0,0,64,29.51v-4A1.25,1.25,0,0,0,62.78,24.26ZM19.51,3.93A1.43,1.43,0,0,1,20.94,2.5H43.09a1.43,1.43,0,0,1,1.43,1.43V14.51h-25Zm1.43,14.83a1.43,1.43,0,0,1-1.43-1.43V17h25v.32a1.43,1.43,0,0,1-1.43,1.43Zm14,5.5H29l1.05-3h3.8ZM6.78,55h-.6L5.73,30.76H8.37Zm50.94,0h-.6L55.53,30.76h2.65Zm3.8-26.77H2.5v-1.5h59Z"/><path class="cls-2" d="M41.14,4.63H36a1.25,1.25,0,0,0,0,2.5h5.12a1.25,1.25,0,0,0,1.2-1.3A1.24,1.24,0,0,0,41.14,4.63Z"/><path class="cls-2" d="M32.52,4.63h-.13a1.25,1.25,0,0,0-1.2,1.3,1.26,1.26,0,0,0,1.2,1.2h.13a1.25,1.25,0,0,0,0-2.5Z"/></svg>