<svg id="Layer_1" data-name="Layer 1" xmlns="http://www.w3.org/2000/svg" viewBox="0 0 64.03 63.97"><defs><style>.cls-1{fill:#8736bd;}.cls-2{fill:#efc039;}</style></defs><path class="cls-1" d="M64,10.23A3.73,3.73,0,0,0,60.3,6.5H58v-2A4.49,4.49,0,0,0,53.53,0H36.17a4.49,4.49,0,0,0-4.5,4.5v2H3.79A3.73,3.73,0,0,0,.06,10.23v7.52A3.75,3.75,0,0,0,3.8,21.49h.88l2.15,4.3a1.27,1.27,0,0,0,1.12.7H30.44a1.25,1.25,0,0,0,1.11-.7l2.16-4.3h3.83a1.25,1.25,0,0,1,1.25,1.25V55.22H31.47A7,7,0,0,0,32.1,49L28.46,37.22l1.91-5.85a1.24,1.24,0,0,0-.79-1.57,1.07,1.07,0,0,0-.39-.07H9.2A1.25,1.25,0,0,0,8,31a1.23,1.23,0,0,0,.06.39L9.52,36H6.33a6.25,6.25,0,1,0-.08,12.5h.2L6.29,49a7,7,0,0,0,.63,6.23H3.79A3.73,3.73,0,0,0,.06,59v3.77A1.25,1.25,0,0,0,1.31,64H62.78A1.25,1.25,0,0,0,64,62.72h0V56.47h0ZM34.17,4.5a2,2,0,0,1,2-2H53.54a2,2,0,0,1,2,2v2H34.17ZM29.67,24h-21l-1.25-2.5H30.91Zm7.88-5H3.79a1.23,1.23,0,0,1-1.23-1.24V10.23A1.23,1.23,0,0,1,3.79,9H60.3a1.24,1.24,0,0,1,1.24,1.23v45H41.29V22.74A3.75,3.75,0,0,0,37.54,19ZM27.47,32.23,26.24,36H12.15l-1.23-3.75Zm.43,11.62a6.14,6.14,0,0,0-5,1.93c-1,.86-1.69,1.48-3.18,1.31A5.74,5.74,0,0,1,16,45a8.43,8.43,0,0,0-5-2.84l1.13-3.66H26.23Zm-13.67,2.9a8,8,0,0,0,5.23,2.83,6.34,6.34,0,0,0,.76,0,6.27,6.27,0,0,0,4.34-1.94c1.14-1,2-1.73,4.17-1.14l1,3.19a4.55,4.55,0,0,1-.33,4.12,3.75,3.75,0,0,1-3.09,1.37H12.08A3.72,3.72,0,0,1,9,53.84a4.53,4.53,0,0,1-.33-4.11l.57-1.84a1.33,1.33,0,0,0,.19-.62l.84-2.72A6,6,0,0,1,14.23,46.75Zm-8-.77a3.78,3.78,0,0,1-3.73-4.17,3.78,3.78,0,0,1,3.81-3.33h3.2L7.21,46ZM61.53,61.47h-59V59a1.23,1.23,0,0,1,1.23-1.23H61.53v3.75Z"/><path class="cls-2" d="M56.78,44.85H49.54a1.25,1.25,0,0,0,0,2.5h7.24a1.25,1.25,0,0,0,0-2.5Z"/><path class="cls-2" d="M56.78,39.86H45.91a1.25,1.25,0,0,0,0,2.5H56.78a1.25,1.25,0,0,0,0-2.5Z"/><path class="cls-2" d="M51.35,18.93a6.73,6.73,0,1,0,6.72,6.72h0A6.72,6.72,0,0,0,51.35,18.93Zm0,11a4.23,4.23,0,1,1,4.22-4.23h0a4.24,4.24,0,0,1-4.22,4.23Z"/><path class="cls-2" d="M15.18,14H7.93a1.25,1.25,0,0,0,0,2.5h7.25a1.25,1.25,0,1,0,0-2.5Z"/><path class="cls-2" d="M18.93,14H18.8a1.25,1.25,0,0,0,0,2.5h.13a1.25,1.25,0,0,0,0-2.5Z"/></svg>