<svg id="Layer_1" data-name="Layer 1" xmlns="http://www.w3.org/2000/svg" xmlns:xlink="http://www.w3.org/1999/xlink" viewBox="0 0 1024 599.65"><defs><style>.cls-1{fill:none;}.cls-2{fill:#82b479;}.cls-3{fill:#a8d29f;}.cls-4{fill:#699dee;}.cls-5{fill:#afcdfb;}.cls-28,.cls-6{fill:#fff;}.cls-10,.cls-7{fill:#d86713;}.cls-8{fill:#f1a34f;}.cls-9{fill:#ee9849;}.cls-10,.cls-28{opacity:0.4;isolation:isolate;}.cls-11{fill:#e9f3fe;}.cls-12{fill:#f5d857;}.cls-13{fill:#233862;}.cls-14{fill:#4a75cb;}.cls-15{fill:#ffb27d;}.cls-16{fill:#163560;}.cls-17{fill:#5d42bf;}.cls-18{fill:#6f5eea;}.cls-19{fill:#c0d8f9;}.cls-20{fill:#d4e3f4;}.cls-21{clip-path:url(#clip-path);}.cls-22{fill:#e49963;}.cls-23{fill:#d68d5d;}.cls-24{fill:#3e5b96;}.cls-25{fill:#e7f1fd;}.cls-26{fill:#551b8c;}.cls-27{fill:#e2ba14;}.cls-29{fill:#283250;}</style><clipPath id="clip-path"><polygon class="cls-1" points="312.46 122.25 248.41 122.25 268.46 41.79 332.51 41.79 312.46 122.25"/></clipPath></defs><rect class="cls-2" x="700.96" y="332.45" width="71.45" height="266.24"/><rect class="cls-3" x="667.61" y="332.45" width="52.5" height="266.24"/><circle class="cls-2" cx="694.74" cy="570.49" r="11.72"/><rect class="cls-4" x="805.77" y="332.45" width="71.45" height="266.24"/><rect class="cls-5" x="772.41" y="332.45" width="52.5" height="266.24"/><circle class="cls-4" cx="799.55" cy="570.49" r="11.72"/><rect class="cls-6" x="787.83" y="359.55" width="23.44" height="139.74"/><rect class="cls-7" x="909.35" y="332.45" width="71.45" height="266.24"/><rect class="cls-8" x="875.99" y="332.45" width="52.5" height="266.24"/><circle class="cls-7" cx="903.13" cy="570.49" r="11.72"/><rect class="cls-6" x="891.41" y="359.55" width="23.44" height="139.74"/><rect class="cls-6" x="682.14" y="361.34" width="23.44" height="139.74"/><path class="cls-7" d="M529.45,280.86l25.19,299.53s2.64,18.2-10.87,18.2H433.25s16.71-3.78,16.51-12.28c-.24-10-29.44-308.27-29.44-308.27Z"/><path class="cls-9" d="M426.08,593.15c4.37,0,88.73.27,110.35,0,9.43-.12,11.08-8.38,11.16-13.73a26.6,26.6,0,0,0-.29-4.46l-.65-7.78L545,547.33l-1.48-17.53-1.89-22.52-1.6-19-17.9-212.83L413,272.59s12.3,124.81,21,215.66c1,10.13,1.89,19.83,2.75,28.89.27,2.89.53,5.72.8,8.48.81,8.59,1.54,16.49,2.18,23.46.34,3.67.65,7.08.94,10.21,1.11,12.25,1.76,20.08,1.77,21.56a12.41,12.41,0,0,1-.22,2.43C440.41,592.83,427.72,593.15,426.08,593.15Z"/><polygon class="cls-8" points="270.53 117.87 794.49 117.87 733.13 364.35 724.73 398.1 696.15 512.9 165.2 512.9 270.53 117.87"/><polygon class="cls-9" points="794.49 117.87 802.99 120.71 707.45 521.48 696.15 512.9 794.49 117.87"/><polygon class="cls-7" points="707.45 521.48 179.77 521.48 165.2 512.9 696.15 512.9 707.45 521.48"/><rect class="cls-8" x="407.89" y="593.27" width="114.25" height="5.43"/><polygon class="cls-7" points="436.94 521.48 437.53 525.63 544.98 547.33 543.5 529.8 542.8 521.48 436.94 521.48"/><path class="cls-10" d="M426.08,593.15c4.37,0,88.73.27,110.35,0,9.43-.12,11.08-8.38,11.16-13.73L440.65,559.3c1.11,12.25,1.76,20.08,1.77,21.56a12.41,12.41,0,0,1-.22,2.43C440.41,592.83,427.72,593.15,426.08,593.15Z"/><polygon class="cls-10" points="469.81 435.3 696.15 512.9 715.48 435.25 469.81 435.3"/><polygon class="cls-8" points="270.53 117.87 794.49 117.87 715.52 435.25 185.52 435.35 270.53 117.87"/><path class="cls-7" d="M416.6,475.49c1.51-7.79,9-14.1,16.83-14.1s12.87,6.31,11.36,14.1-9.05,14.1-16.79,14.1S415.08,483.27,416.6,475.49Z"/><polygon class="cls-11" points="210.23 421.59 700.81 421.59 756.37 200.27 760.63 183.3 764.26 168.82 772.78 134.88 289.27 134.88 279.92 168.82 275.93 183.3 271.25 200.27 210.23 421.59"/><polygon class="cls-12" points="289.27 134.88 772.78 134.88 764.26 168.82 279.92 168.82 289.27 134.88"/><path class="cls-11" d="M749.6,146a3.19,3.19,0,0,1,3.35,3,3.26,3.26,0,0,1-.17,1.2,5.79,5.79,0,0,1-5.3,4.24,3.2,3.2,0,0,1-3.35-3,3.23,3.23,0,0,1,.17-1.2A5.79,5.79,0,0,1,749.6,146Z"/><path class="cls-11" d="M735.5,146a3.19,3.19,0,0,1,3.35,3,3.26,3.26,0,0,1-.17,1.2,5.79,5.79,0,0,1-5.3,4.24,3.2,3.2,0,0,1-3.35-3,3.23,3.23,0,0,1,.17-1.2A5.79,5.79,0,0,1,735.5,146Z"/><path class="cls-11" d="M715,150.22a5.8,5.8,0,0,1,5.31-4.24,3.19,3.19,0,0,1,3.35,3,3.26,3.26,0,0,1-.17,1.2,5.8,5.8,0,0,1-5.3,4.24,3.22,3.22,0,0,1-3.36-3.06A3.16,3.16,0,0,1,715,150.22Z"/><g id="man"><path class="cls-13" d="M33.13,568.18s-6.24,5.79-5,9.9S35,584.93,35.75,590s3.81,7.77,6.55,7.77h13s2-3.54-2.86-4.6-6.71-7-6.4-12.46a99.31,99.31,0,0,0-.46-12.79l-10.36-2.44Z"/><path class="cls-13" d="M146.35,597.72H111.64a3.31,3.31,0,0,1-.68-.2c-2.31-1.16-1.59-10-1.31-12.75.06-.51.09-.81.09-.81s12.19-9.75,13.87-2.28a2.36,2.36,0,0,0,.18.68c2.1,7,11.56,10.16,17,11C145,594.08,146.07,596.5,146.35,597.72Z"/><path class="cls-4" d="M139.37,397.89s-1.85,23.09-4,50.85c-3,37.7-6.51,84-6.86,92.78-.61,15.24-3,39.61-3,39.61s-5.78,5.79-17.36,3.35c0,0-10.32-34.79-13.27-71.6,0-.6-.09-1.21-.14-1.82-2.74-37.46-7-116.36-7-116.36Z"/><path class="cls-14" d="M139.37,397.89s-1.85,23.09-4,50.85L94.8,512.88c0-.6-.09-1.21-.14-1.82-2.74-37.46-7-116.36-7-116.36Z"/><path class="cls-4" d="M130.92,400.64s-33.36,83.62-55.29,123-28.79,50.27-28.79,50.27-12.57-5-13.71-8.46c0,0,8.39-75.86,23.08-94.36,8.3-10.44,18.05-41.8,18.5-52.77s3-32.67,3-32.67Z"/><path class="cls-15" d="M164.65,377.59l1.91,3.8s9.69,1.36,7,11.46c0,0-1.44,4.16-4.11,2.85s-1.36-1.21-5.19-3-6-5.17-5.19-8.29l-.61-3.31Z"/><path class="cls-15" d="M113.81,271.59a99.74,99.74,0,0,0,1.53-14L98.41,244C99,262.73,87,271.75,87,271.75s22.56,11.1,35.59,7A31.28,31.28,0,0,0,113.81,271.59Z"/><path class="cls-15" d="M119.32,257.31s-21.53,3.57-23.55-9.87-6.16-22,7.5-24.89,17.11,1.88,18.88,6.2S124.87,256,119.32,257.31Z"/><path class="cls-16" d="M95.91,248.37s.44-18,20.06-20.9c13.43-2,5.3-13.21,3.76-15,0,0-10.27,2-20.79,4.27C76.88,221.59,93.58,245.69,95.91,248.37Z"/><path class="cls-17" d="M162.39,382.83a36.59,36.59,0,0,0,5-6.79s-24.45-30.4-26.39-33.55-16.84-53.7-16.84-53.7l-37.57-7.62s31.36,64.7,36.55,72.59c8.59,13,34.27,32.43,34.27,32.43A15.64,15.64,0,0,0,162.39,382.83Z"/><path class="cls-18" d="M140.81,399.82a2.16,2.16,0,0,1-1.37.52c-4.9-.07-19.17,2.65-31.25,1.41-10.18-1-19.19-4-28.87-8.33-1.29-.58-4.25-2.15-4.18-3.59s.2-3.86.4-6.73a359.64,359.64,0,0,0,.71-47c-.21-3.69-.32-7.35-.33-11-.1-26.86,5.13-50.63,15.84-58.62.91-.66,6.62,2.22,11.78,4.76,4.76,2.35,8.09,2.3,12.6,1.39l5.93,4.29c5.48,5.09,11.49,12,14.1,22.52,2.22,8.94,3.52,25.07,4.24,41.78.33,7.57.59,15.21.66,22.45v.26c.06.72.06,1.5.06,2.22C141.39,384.8,141.13,399.59,140.81,399.82Z"/><path class="cls-17" d="M75.54,383.1a359.64,359.64,0,0,0,.71-47c-.21-3.69-.32-7.35-.33-11C80.38,314.33,84,306.49,84,306.49H95.26S103.5,362.77,75.54,383.1Z"/><path class="cls-15" d="M53.67,386.59l-2.13,3.68s4.18,8.85-5.74,12.16c0,0-4.27,1.07-4.63-1.88s.26-1.8-.36-6,1-7.9,4.1-8.89l2.43-2.33Z"/><path class="cls-18" d="M48,387.59a36.73,36.73,0,0,0,8.44.47S68.46,351,70,347.59s35.69-43.53,35.69-43.53L91.48,268.45S54.55,330.13,50.8,338.8c-6.2,14.33-8.35,46.44-8.35,46.44A15.42,15.42,0,0,0,48,387.59Z"/></g><polygon class="cls-5" points="479.15 371.58 250.13 371.58 328.42 54.83 557.45 54.83 479.15 371.58"/><polygon class="cls-19" points="444.94 351.82 215.91 351.82 294.21 35.06 523.24 35.06 444.94 351.82"/><polygon class="cls-20" points="407.87 329.23 178.85 329.23 257.14 12.48 486.17 12.48 407.87 329.23"/><polygon class="cls-4" points="518.57 54.83 446.11 349.92 255.71 351.82 451.86 356.13 518.57 54.83"/><polygon class="cls-4" points="480.53 35.06 411.69 327.34 221.29 329.23 414.92 334.01 480.53 35.06"/><polygon class="cls-11" points="312.46 122.25 248.41 122.25 268.46 41.79 332.51 41.79 312.46 122.25"/><polygon class="cls-5" points="458.68 52.9 343.92 52.9 346.75 41.79 461.5 41.79 458.68 52.9"/><polygon class="cls-5" points="453.5 75.72 338.75 75.72 341.57 64.61 456.33 64.61 453.5 75.72"/><polygon class="cls-5" points="448.09 98.55 333.33 98.55 336.16 87.43 450.92 87.43 448.09 98.55"/><polygon class="cls-5" points="441.74 121.37 326.98 121.37 329.81 110.25 444.56 110.25 441.74 121.37"/><polygon class="cls-5" points="441.74 145.13 231.66 145.13 234.49 134.02 444.56 134.02 441.74 145.13"/><polygon class="cls-5" points="436.13 168.9 226.06 168.9 228.88 157.78 438.96 157.78 436.13 168.9"/><polygon class="cls-5" points="428.37 195.65 218.29 195.65 221.12 184.54 431.19 184.54 428.37 195.65"/><polygon class="cls-5" points="421.31 218.76 211.24 218.76 214.06 207.64 424.13 207.64 421.31 218.76"/><g class="cls-21"><path class="cls-22" d="M318.05,130.25s3.75-1.71,5.22-1.19,5.45,2.24,5.36,4-6.48,3.63-10.74,1.55S318.05,130.25,318.05,130.25Z"/><path class="cls-18" d="M319.16,135a2.58,2.58,0,0,1-.26.59c-1.27,2-22.09,2.14-24.47.43-1.06-.76-1.39-11.29-1.42-22.71,0-14.11.36-29.56.36-29.56s8.15,3.78,8.55,8.43-3,32.62-.65,34.33,13.35,1.93,17,3C318.28,129.48,319.84,132.83,319.16,135Z"/><path class="cls-16" d="M298.1,51.64c-1.43-1.49-3.75-1.62-5.25-1.73a2.44,2.44,0,0,1,1.2-.39,8.24,8.24,0,0,0-3.08.39s-7.27-5-12.2,4.76c0,0,.72-.69,1.68-1.45-2.84,5.61-1.89,14.79,4.47,17.22C289.06,72,312.7,66.84,298.1,51.64Z"/><path class="cls-22" d="M293.69,86.05s-4.4,1.65-7.42.38c-2.84-1.18-4.27-5.25-4.23-5.25,1.28-.09,1.86-1.75,2.79-9.12l.55.18,9.24,3.11s-.61,3-1,5.76C293.33,83.47,293.18,85.73,293.69,86.05Z"/><path class="cls-23" d="M294.62,75.35s-.61,3-1,5.76c-5.28-.83-7.46-6-8.26-8.87Z"/><path class="cls-16" d="M284.54,71.08s-2.22-4.75-2.4-8.59c-.12-2.74,2.53-12.5,12.33-9.78a13.68,13.68,0,0,1,5.35,2.86c2,1.74,4.7,5.31.08,13.53l-1.29,2.81Z"/><path class="cls-22" d="M296,78.24S283.43,76.82,284.43,69s.06-13.27,8.13-12.69,9.25,3.76,9.55,6.45S299.34,78.41,296,78.24Z"/><path class="cls-2" d="M296.87,95.94c-.11-.92,1.86-1.34,2.22-.49a17.25,17.25,0,0,1,.74,5c.44,4.39-1.3,10.1-1.3,10.1Z"/><path class="cls-16" d="M302.34,58.37c-1.64-2.6-3.17-2.28-4.08-1.68-2.19-4.41-11.52.34-11.52.34a15,15,0,0,1-6,8.19s2.11,1.71,7.56,1c4.29-.53,8.06-6,9.48-8.37a10,10,0,0,1,2.31,4c.37,2.08.12,6.21,1.33,6.23C301.39,68.17,304.79,62.27,302.34,58.37Z"/><path class="cls-6" d="M293.87,73.14s.1,1,2.59,1.19c0,0,2.09.14,2.17-1A6.68,6.68,0,0,0,293.87,73.14Z"/><path class="cls-2" d="M319.16,135a2.58,2.58,0,0,1-.26.59c-1.27,2-22.09,2.14-24.47.43-1.06-.76-1.4-13.85,1.53-25.14.69,6.76-.58,20.29,3,21.39C302.93,133.49,313.89,133.52,319.16,135Z"/><path class="cls-18" d="M299.22,111.21c-8.26,23.86-4.49,28.17-7.45,30.24,0,0-2.47.71-2.49.73-3.07,2-2.76-.88-11.9,1.75a140.91,140.91,0,0,1-14.75,3.74,28.88,28.88,0,0,1-5,.46c-2.82,0-4.83-.78-5.27-2.75-1.26-5.72,10.07-19,9-29.19v-.26a11.61,11.61,0,0,1,.27-3c1.16-5.46,5.69-13,10.19-19.42,5-7,9.9-12.63,10.24-12.36,9.71,7.6,11.33,2.54,11.33,2.54S302,103.07,299.22,111.21Z"/><path class="cls-17" d="M290.16,141.94h0c-3.06,2-3.64-.64-12.78,2a140.91,140.91,0,0,1-14.75,3.74,29.9,29.9,0,0,0-5,.46c-2.82,0-4.83-.78-5.27-2.75-1.26-5.72,10.07-19,9-29.19v-.26a9.47,9.47,0,0,1,.27-3c1-4.13,4.72-8.28,9.07-14.46,2,2.78,19.95,2.19,12.63,26C281.07,131.86,289.82,136,290.16,141.94Z"/><path class="cls-22" d="M289.15,143.08s4-.42,5.66.53,5,3.25,4.53,4.19-4.72.92-6.37-.29-3.11-.14-5.19-1.14S289.15,143.08,289.15,143.08Z"/><path class="cls-18" d="M282,81.18s-14.3-1.66-17.75,4.89-5.8,30.86-3,38.62,22.77,20.36,25.08,21.06,4.25-2.75,4.21-3.16S270.63,121.3,271,119.45,282,81.18,282,81.18Z"/></g><polygon class="cls-22" points="759.64 560.18 754.54 581.69 746.89 581.64 746.61 560.18 759.64 560.18"/><polygon class="cls-22" points="695.3 561.1 680.77 581.69 675.11 574.42 683.86 558.27 695.3 561.1"/><path class="cls-16" d="M733.08,277.59a14.68,14.68,0,0,1,8-1.54,3.73,3.73,0,0,0-1.69-.8c1.37-.21,4.43,1.16,4.43,1.16,19.09-7.36,22.09,20.75,21.69,27.28s6.42,8.66,16.35,13.81c19,9.82,20.62,23,20.62,23l-.47.3c-.94-1.59-2.87-4.58-4.51-5a63.52,63.52,0,0,1,2.63,6.39c-5.59,4.26-16,13.68-23.34,20.36a10.56,10.56,0,0,0-.5-4.14l-.9,5.43c-3.9,3.58-6.59,6.11-6.59,6.11.48-5.28-23.87-33.13-36.57-41.47-3.09-4.56-4.19-12.6-4.28-13.23.54,6.37,1.63,9.95,2.6,12C719.82,317.21,726.08,281.53,733.08,277.59Z"/><path class="cls-22" d="M733,328.79c-.06,0,6.13,3.25,10.8,2,4.38-1.19,7.25-6.88,7.19-6.89-1.86-.37-2.4-2.92-2.36-13.89l-.84.17L733.68,313s.32,4.44.33,8.63C734,325.08,733.81,328.42,733,328.79Z"/><path class="cls-23" d="M733.68,312.94s.32,4.44.33,8.63c7.9-.22,12.07-7.43,13.78-11.42Z"/><path class="cls-16" d="M749.25,308.59s4.14-6.54,5.13-12.13c.71-4-1.32-18.8-16.19-16.66a20.13,20.13,0,0,0-8.38,3.16c-3.23,2.18-7.89,6.89-2.68,19.81l1.35,4.36Z"/><path class="cls-24" d="M677.42,568.77l7.48.23,8.1.25s18.71-20.83,29.2-54.22c.24-.77.5-1.56.77-2.36,5.75-16.74,17.65-37.76,23.93-56.79,1-3,1.89-5.88,2.7-8.58.26-.86.51-1.71.74-2.55a200.85,200.85,0,0,0,7.2-37.88l-45.3.36S704.92,484.19,677.42,568.77Z"/><path class="cls-25" d="M718.58,381.2c.11,21.56-3.16,30.81-3.16,30.81a60.92,60.92,0,0,0,42.45,2.6c.27-.09,17.34-3.51,17.34-3.51-.39-.88-5.1-15.79-5.47-16.59-4.87-10.45-5.54-15.52-6.12-18.74a68.71,68.71,0,0,1-.56-18.06,145.57,145.57,0,0,1,5.59-28.36c-6.28-1.43-12.16-3.94-18.7-6.39-1.5,1.87-6.1,3.83-10.09,3.74-4.59-.1-6.08-2.07-5.84-4.22-4.9,2.73-8.8,5.3-8.8,5.3C721.06,335,712.63,342,712,353.1,711.86,355.83,718.58,380.59,718.58,381.2Z"/><path class="cls-26" d="M692.28,349.17c6.65-7.77,23.88-24.62,41.66-26.69l-15.34,29.9a13.27,13.27,0,0,1-5.41,8.11C702.06,367.8,687.91,371,687.91,371s-9.59-4.18-22.69-13.78c-4.11-3-11.33-14.5-11.33-14.5l2-6.52s12.26,6.85,16.65,8.83c2.49,1.13,8.24,3.82,12.29,5.72A6.32,6.32,0,0,0,692.28,349.17Z"/><path class="cls-22" d="M731,316.9s18.69.31,18.7-11.33,2.44-19.44-9.5-20.13-14.2,3.75-15.2,7.64S726.18,316.52,731,316.9Z"/><path class="cls-16" d="M731.73,285.16s5.12,13.65,13,15.67,11.26-.08,11.26-.08a22.25,22.25,0,0,1-7.3-13.16S735.59,278.65,731.73,285.16Z"/><path class="cls-16" d="M733,286.26s-3.82,3.05-4.75,6-1.35,9.06-3.13,8.86c0,0-3.86-9.29.47-14.54C730.19,281,733,286.26,733,286.26Z"/><path class="cls-22" d="M655.84,336.23s-2.64-9.5-13.08-8.16c-1.2.38-4.7,1.77-2.46,5.52,1.65,2.76,2.37,1.34,5,5s5.41,4.55,8.63,4.11Z"/><path class="cls-22" d="M754.79,580.49a20.75,20.75,0,0,0,1,8.81s1.25,5.71-4.37,5.81-7-.42-6.36-3.92,1.85-9.55,1.85-9.55Z"/><path class="cls-7" d="M744.51,597.59l.35.19h11l.31-.19c.64-2.86-.4-8.25-.4-8.25-6.36,5.83-10.34-.14-10.34-.14C744.39,591.65,744.51,597.59,744.51,597.59Z"/><path class="cls-22" d="M661.57,591.76s10.36-11.49,13.54-17.34l7.7,3.94L665.6,594.53l-4-.53Z"/><path class="cls-7" d="M655.15,597.74h14.17c1.37-1,2.64-3.38,4.22-6.55.85-1.69,2.75-2.63,4.69-3.14v9.54h2.94L684,587.45c1.83-3.37.14-6.43-1.15-9.09-1.5,0-5.54,1-13.19,9.65a10,10,0,0,1-8,3.75.24.24,0,0,1-.11.06C656.84,593.9,655.52,596.48,655.15,597.74Z"/><path class="cls-26" d="M734,322.48s-10.79,26.72-11.11,32.11S721.62,443,721.62,443s.63,3.81-6.68,2.22-9.22-3.18-9.22-3.18,7-51.2,5.08-69,14.63-46.86,14.63-46.86Z"/><path class="cls-13" d="M684.9,569l8.1.25s18.71-20.83,29.2-54.22c.24-.77.5-1.56.77-2.36,5.75-16.74,17.65-37.76,23.93-56.79,1-3,1.89-5.88,2.7-8.58.26-.86.51-1.71.74-2.55l-6.67-5.06s-20,32.43-26.23,63C712.05,529.16,690.48,561.07,684.9,569Z"/><path class="cls-24" d="M743,505.49c-.12,14.85.63,49,2.57,63.1h7.17c4,0,5.94-.06,5.94-.06,4.85-24.56,8.3-44.89,10.82-62.4,2.06-14.38,3.89-26.7,5.3-37.31s2.4-19.61,2.75-27.16c.06-1.19.1-2.35.12-3.47s0-2.23,0-3.29l-39.14-3.82C739,457.09,743,496.86,743,505.49Z"/><path class="cls-13" d="M752.72,568.59c4,0,5.94-.06,5.94-.06,4.85-24.56,8.3-44.89,10.82-62.4,2.06-14.38,3.89-26.7,5.3-37.31s2.4-19.61,2.75-27.16l-14.36,8.45s9.17,3.23,5.67,27.72S757.59,565.13,752.72,568.59Z"/><path class="cls-26" d="M750.87,441.42s2.76,10,12.3,8.69,23.1-7,23.1-7-4.07-12.88-9.14-29.81c-6.14-20.48-13.74-46.9-17.32-63.56a101.7,101.7,0,0,1-1.94-11.36L750,323s-11.8,26.48-12.43,33.16S750.87,441.42,750.87,441.42Z"/><path class="cls-26" d="M751.29,370.18c.43,10.82,3,31.8,25.66,43l.18.08c-6.14-20.48-13.74-46.9-17.32-63.56C755.65,356,751.06,364.23,751.29,370.18Z"/><rect class="cls-27" x="629.32" y="279.73" width="10.12" height="40.23" transform="translate(-26.22 536.4) rotate(-45)"/><path class="cls-12" d="M643.53,309h0a14.34,14.34,0,0,1,20.28,0L800.52,445.71a14.33,14.33,0,0,1,0,20.27h0a14.33,14.33,0,0,1-20.27,0L643.53,329.27A14.34,14.34,0,0,1,643.53,309Z"/><path class="cls-12" d="M451.68,117.15a119,119,0,1,0,168.29,0l0,0A119,119,0,0,0,451.68,117.15Zm159,159a105.88,105.88,0,1,1,0-149.74h0A105.89,105.89,0,0,1,610.68,276.15Z"/><path class="cls-22" d="M760.4,355.2,750,323s13.19,3.92,19.82,7.26c0,0,4.14,5.34,6.7,17.65,0,0,2.7,29.56-3.34,40.37,0,0-19.08,3.82-49.61-6.68v-7s33.39,1.75,40.23,2.54Z"/><path class="cls-26" d="M750,323s19.37,1.36,24,11.75,6.15,44.94.21,55.12c0,0-8.17,2.33-22.62-.38l-.54-.1s-4.61-11.29-.48-13.51c0,0,12.19.63,10.92-3.39S750,323,750,323Z"/><path class="cls-22" d="M727,376.5a16.85,16.85,0,0,1-3.23-6.52c-.57-3.29-2.33-5.73-6.92-6.33s-6.56-.67-6.55.62S714,374.59,720.59,380,727,376.5,727,376.5Z"/><path class="cls-28" d="M582.7,105.59,440.91,247.39a106.48,106.48,0,0,0,7.91,13.43L596.13,113.51A106.55,106.55,0,0,0,582.7,105.59Z"/><path class="cls-28" d="M573,101.39A105.92,105.92,0,0,0,436.7,237.67Z"/><path class="cls-28" d="M489,295.52A105.91,105.91,0,0,0,630.83,153.68Z"/><path class="cls-29" d="M-54.49,599.65H1020.08a1,1,0,0,0,1-.95h0a1,1,0,0,0-1-1H-54.49a1,1,0,0,0-.95,1h0A1,1,0,0,0-54.49,599.65Z"/></svg>