<svg id="Layer_1" data-name="Layer 1" xmlns="http://www.w3.org/2000/svg" xmlns:xlink="http://www.w3.org/1999/xlink" viewBox="0 0 958.64 569.45"><defs><style>.cls-1{fill:url(#linear-gradient);}.cls-2{fill:url(#linear-gradient-2);}.cls-3{fill:#bdd0fb;}.cls-4{fill:url(#linear-gradient-3);}.cls-11,.cls-34,.cls-35,.cls-5{fill:#fff;}.cls-5{opacity:0.5;}.cls-34,.cls-35,.cls-5{isolation:isolate;}.cls-6{fill:url(#linear-gradient-4);}.cls-7{fill:url(#linear-gradient-5);}.cls-8{fill:url(#linear-gradient-6);}.cls-9{fill:url(#linear-gradient-7);}.cls-10{fill:#551b8c;}.cls-12{fill:#f1a34f;}.cls-13{fill:#6028ce;}.cls-14{fill:url(#linear-gradient-8);}.cls-15{fill:#82b479;}.cls-16{fill:#5d42bf;}.cls-17{fill:url(#linear-gradient-9);}.cls-18{fill:url(#linear-gradient-10);}.cls-19{fill:url(#linear-gradient-11);}.cls-20{fill:#6f5eea;}.cls-21{fill:url(#linear-gradient-12);}.cls-22{fill:url(#linear-gradient-13);}.cls-23{fill:url(#linear-gradient-14);}.cls-24{fill:url(#linear-gradient-15);}.cls-25{fill:url(#linear-gradient-16);}.cls-26{fill:url(#linear-gradient-17);}.cls-27{fill:url(#linear-gradient-18);}.cls-28{fill:#efca30;}.cls-29{fill:url(#linear-gradient-19);}.cls-30{fill:url(#linear-gradient-20);}.cls-31{fill:url(#linear-gradient-21);}.cls-32{fill:url(#linear-gradient-22);}.cls-33{fill:url(#linear-gradient-23);}.cls-34{opacity:0.2;}.cls-35{opacity:0.53;}.cls-36{fill:#7d97f4;}.cls-37{fill:#91b3fa;}</style><linearGradient id="linear-gradient" x1="961.46" y1="33.52" x2="629.2" y2="607.42" gradientTransform="matrix(1, 0, 0, -1, 0, 495.35)" gradientUnits="userSpaceOnUse"><stop offset="0" stop-color="#e6ecfd"/><stop offset="1" stop-color="#e9effd"/></linearGradient><linearGradient id="linear-gradient-2" x1="582.35" y1="-178.27" x2="265.17" y2="369.6" xlink:href="#linear-gradient"/><linearGradient id="linear-gradient-3" x1="707.95" y1="158.22" x2="876.96" y2="158.22" gradientTransform="matrix(1, 0, 0, -1, 0, 495.35)" gradientUnits="userSpaceOnUse"><stop offset="0" stop-color="#dae3fe"/><stop offset="1" stop-color="#e9effd"/></linearGradient><linearGradient id="linear-gradient-4" x1="86.85" y1="21.82" x2="217.12" y2="21.82" xlink:href="#linear-gradient-3"/><linearGradient id="linear-gradient-5" x1="167.77" y1="348.74" x2="269.88" y2="348.74" xlink:href="#linear-gradient-3"/><linearGradient id="linear-gradient-6" x1="88.55" y1="227.27" x2="213.8" y2="227.27" xlink:href="#linear-gradient-3"/><linearGradient id="linear-gradient-7" x1="85.04" y1="112.48" x2="199.52" y2="112.48" xlink:href="#linear-gradient-3"/><linearGradient id="linear-gradient-8" x1="435.07" y1="75.05" x2="553.27" y2="75.05" gradientTransform="matrix(1, 0, 0, -1, 0, 495.35)" gradientUnits="userSpaceOnUse"><stop offset="0" stop-color="#febbba"/><stop offset="1" stop-color="#ff928e"/></linearGradient><linearGradient id="linear-gradient-9" x1="508.45" y1="188.28" x2="225.27" y2="47.41" xlink:href="#linear-gradient-8"/><linearGradient id="linear-gradient-10" x1="505.7" y1="211.48" x2="478.35" y2="182.92" xlink:href="#linear-gradient-8"/><linearGradient id="linear-gradient-11" x1="509.3" y1="189.43" x2="323.86" y2="97.18" xlink:href="#linear-gradient-8"/><linearGradient id="linear-gradient-12" x1="268.95" y1="159.52" x2="293.59" y2="226.81" xlink:href="#linear-gradient-8"/><linearGradient id="linear-gradient-13" x1="387.95" y1="72.43" x2="302.02" y2="9.25" xlink:href="#linear-gradient-8"/><linearGradient id="linear-gradient-14" x1="323.69" y1="255.14" x2="251.44" y2="199.86" xlink:href="#linear-gradient-8"/><linearGradient id="linear-gradient-15" x1="272.84" y1="298.95" x2="340.13" y2="212.31" gradientTransform="matrix(1, 0, 0, -1, 0, 495.35)" gradientUnits="userSpaceOnUse"><stop offset="0" stop-color="#090056"/><stop offset="1" stop-color="#020039"/></linearGradient><linearGradient id="linear-gradient-16" x1="314.72" y1="266.87" x2="242.47" y2="211.59" xlink:href="#linear-gradient-8"/><linearGradient id="linear-gradient-17" x1="432.93" y1="45.19" x2="462.04" y2="45.19" xlink:href="#linear-gradient-8"/><linearGradient id="linear-gradient-18" x1="699.58" y1="193.33" x2="680.63" y2="250.19" xlink:href="#linear-gradient-8"/><linearGradient id="linear-gradient-19" x1="728.95" y1="109.39" x2="809.88" y2="66.3" gradientTransform="matrix(1, 0, 0, -1, 0, 495.35)" gradientUnits="userSpaceOnUse"><stop offset="0" stop-color="#4f52ff"/><stop offset="1" stop-color="#4042e2"/></linearGradient><linearGradient id="linear-gradient-20" x1="814.65" y1="27.67" x2="753.04" y2="-90.8" xlink:href="#linear-gradient-8"/><linearGradient id="linear-gradient-21" x1="-56.77" y1="-1756.78" x2="-124.9" y2="-1846.92" gradientTransform="matrix(-0.69, -0.73, 0.73, -0.69, 1925.98, -1021.97)" xlink:href="#linear-gradient-8"/><linearGradient id="linear-gradient-22" x1="-110.07" y1="-1769.2" x2="-28.68" y2="-1769.2" gradientTransform="matrix(-0.69, -0.73, 0.73, -0.69, 1925.98, -1021.97)" xlink:href="#linear-gradient-15"/><linearGradient id="linear-gradient-23" x1="-157.61" y1="-1827.41" x2="-102.96" y2="-1771.34" gradientTransform="matrix(-0.69, -0.73, 0.73, -0.69, 1925.98, -1021.97)" xlink:href="#linear-gradient-8"/></defs><path class="cls-1" d="M601.07,44.58c-13.44,20.86,14.86,62.14,71.12,144.19C738.41,285.37,822,407.26,885.53,388.16c46.78-14.06,76.42-102.64,62.65-170.9C915.37,54.68,633.57-5.82,601.07,44.58Z"/><path class="cls-2" d="M892.05,506.92c-1.6,11.45-17.92,45.45-484.46,49.77C166.08,558.92,123.76,550.24,86,512.21,4.45,430-4.22,262.42,66,156c94.83-143.61,298.13-121.8,406.7-78.63,12.15,4.84,21.95,9.43,31.41,15.39C672.85,199,673.47,310.81,847.85,457.75,878.38,483.47,894,493,892.05,506.92Z"/><path class="cls-3" d="M691.3,517.58a1.49,1.49,0,0,1-2.88-.78c8.83-36.07,6.64-20.39,14-51.12,18.5-76.83-.87-113.6-2.3-154.25s29.86-88.27,95.73-64C849.61,267.33,892,281.57,912.73,281a4.93,4.93,0,0,1,5,4.84,4.87,4.87,0,0,1-.81,2.8c-14.44,21.88-52.41,70.74-102.93,69-65-2.19-63.86-19.92-79.44-4.41s-16.85,32.35-19.5,63.95C712.75,444.42,712.59,446.47,691.3,517.58Z"/><path class="cls-4" d="M712.35,390.87a129.22,129.22,0,0,1-3-15.2A137.09,137.09,0,0,1,708,360.26a97.4,97.4,0,0,1,3.73-30.79,65.39,65.39,0,0,1,6.35-14.4,53.24,53.24,0,0,1,10-12.22,58.47,58.47,0,0,1,13.11-8.75c2.32-1.1,4.63-2.23,7-3.22s4.77-1.94,7.18-2.84a117,117,0,0,1,14.9-4.23A97.3,97.3,0,0,1,785.7,282a99.87,99.87,0,0,1,15.46.69c5.11.61,10.15,1.56,15.14,2.64,10,2.17,19.75,4.75,29.68,6.46a132.32,132.32,0,0,0,30.07,1.89h0a.84.84,0,0,1,.91.78v0a.85.85,0,0,1-.79.9,133.26,133.26,0,0,1-30.59-1.07c-10.13-1.46-20-3.91-29.93-5.85s-19.87-3.28-29.8-2.79a91.77,91.77,0,0,0-14.76,1.93,111.76,111.76,0,0,0-14.3,4.26c-2.32.9-4.65,1.8-6.92,2.85s-4.53,2.1-6.78,3.21a50.67,50.67,0,0,0-27,32.87,93.06,93.06,0,0,0-3.6,29.36,146,146,0,0,0,1.13,14.91,128,128,0,0,0,2.74,14.67v.07a2.07,2.07,0,0,1-4,1.05Z"/><path class="cls-5" d="M727.43,519.82a30.11,30.11,0,0,0,5.11-1.37,48.7,48.7,0,0,0,5-2.06A76.67,76.67,0,0,0,746.8,511a121.12,121.12,0,0,0,16.62-13.68c10.32-10.07,19.2-21.54,27.63-33.39,4.24-5.9,8.42-11.9,13-17.69s9.57-11.36,15.75-15.66a40.57,40.57,0,0,1,10-5.12,39.31,39.31,0,0,1,11-2.1,67.16,67.16,0,0,1,21.82,2.95.45.45,0,0,1,.34.55v0a.48.48,0,0,1-.56.34h0c-7.07-1.54-14.31-2.59-21.44-1.9a41.2,41.2,0,0,0-10.33,2.36,37.39,37.39,0,0,0-9.26,5.06c-5.73,4.19-10.4,9.72-14.76,15.45S798.17,460,794,466s-8.54,11.89-13.13,17.62c-1.17,1.42-2.38,2.81-3.57,4.21s-2.4,2.86-3.7,4.14l-3.78,4-4,3.83a106.87,106.87,0,0,1-17.54,13.5,65.46,65.46,0,0,1-9.93,5,36.44,36.44,0,0,1-10.82,2.76.63.63,0,0,1-.65-.59.61.61,0,0,1,.51-.64Z"/><path class="cls-3" d="M220.85,516.54s-54.9,38.09-88.77,3.87c-31.53-31.83-31.23-66.3-64.36-73.73A5.18,5.18,0,0,1,65,438.21c10.25-11.71,35.51-32.08,79.36-17.6C203.85,440.21,220.85,516.54,220.85,516.54Z"/><path class="cls-6" d="M216.5,514.89a33.12,33.12,0,0,1-10.1-1.84,59.48,59.48,0,0,1-9.41-4,97.85,97.85,0,0,1-16.9-11.3l-3.88-3.27L172.5,491c-1.25-1.14-2.42-2.36-3.59-3.57s-2.37-2.41-3.53-3.64c-4.54-5-8.87-10.14-13.07-15.36s-8.27-10.51-12.62-15.5-8.92-9.77-14.39-13.26a34.47,34.47,0,0,0-8.75-4,37.45,37.45,0,0,0-9.58-1.55c-6.54-.22-13.11,1.16-19.5,3h0a.49.49,0,0,1-.6-.33.48.48,0,0,1,.3-.58A61.22,61.22,0,0,1,107,432.17a36,36,0,0,1,10.22,1.26,37,37,0,0,1,9.49,4.09c5.93,3.57,10.88,8.4,15.39,13.4s8.7,10.27,12.94,15.42c8.42,10.34,17.23,20.3,27.26,28.9a112,112,0,0,0,16,11.54,70.76,70.76,0,0,0,8.81,4.37,45.4,45.4,0,0,0,4.64,1.6,27.37,27.37,0,0,0,4.74,1h.08a.62.62,0,0,1,.56.68A.61.61,0,0,1,216.5,514.89Z"/><path class="cls-3" d="M265.43,267s-3.15-54.81-29.55-67.4-75-17.87-83.24-96.26c-4.8-45.9-7.57-65.92-9-74.62a5.21,5.21,0,0,1,4.25-6,5.13,5.13,0,0,1,1.41,0C173.53,25.17,252.57,37.36,273.13,89,297.46,150.12,265.43,267,265.43,267Z"/><path class="cls-7" d="M169.63,42.8A231.68,231.68,0,0,1,192,62.3l2.64,2.6,2.59,2.66c1.73,1.77,3.46,3.54,5.12,5.37,3.39,3.61,6.61,7.36,9.87,11.1s6.34,7.61,9.31,11.58,6,7.93,8.83,12a278.16,278.16,0,0,1,15.82,25.26c1.17,2.21,2.38,4.41,3.53,6.63l3.1,6.84,1.55,3.42,1.34,3.51,2.64,7,2.24,7.15L261.7,171l.93,3.62c.62,2.42,1.27,4.83,1.82,7.26l1.47,7.33a213.71,213.71,0,0,1,3,59.47,2.14,2.14,0,0,1-4.27-.27v-.15a226.45,226.45,0,0,0-.87-29,263.76,263.76,0,0,0-4.26-28.76L258,183.41c-.58-2.35-1.24-4.67-1.85-7l-.93-3.51-1.1-3.44-2.22-6.94-2.59-6.76L248,152.38l-1.48-3.3-3-6.59c-1.09-2.14-2.25-4.25-3.38-6.38-2.16-4.26-4.79-8.39-7.25-12.59-1.22-2.1-2.61-4.1-3.9-6.16s-2.59-4.12-4-6.1c-5.4-8.1-11.21-15.91-17.19-23.6-3.06-3.8-6.1-7.61-9.3-11.3-1.55-1.88-3.16-3.7-4.78-5.53l-2.42-2.75-2.43-2.68c-6.58-7.18-13.47-14.18-20.68-20.69h0a1.2,1.2,0,0,1,1.46-1.91Z"/><path class="cls-3" d="M272.18,511.29c5.14,2.94-46-70.53-56.48-181.47-4.92-52.27-.91-117.13-28.81-144-23.21-22.34-107.54-14.51-135.18-11.25a4.09,4.09,0,0,0-3.61,4.53,4.14,4.14,0,0,0,1.25,2.52c12.4,11.83,38.78,39.56,44.42,66.18,7.44,35.09,38.82,59.09,67.79,66.9s44.93,14.59,56.24,62.43S257.55,502.93,272.18,511.29Z"/><path class="cls-8" d="M89.2,191.68a132.58,132.58,0,0,1,50.21,16,103.54,103.54,0,0,1,21.44,15.83,90.25,90.25,0,0,1,16.41,21.17l1.59,3c.53,1,1,2,1.45,3s1,2,1.39,3l1.27,3c1.7,4,3.39,8.09,5,12.15q4.93,12.19,9.5,24.55c6.09,16.47,11.65,33.12,16.17,50.11a.84.84,0,0,1-1.6.48h0c-2.75-8.28-5.64-16.55-8.7-24.74s-6.13-16.37-9.33-24.51l-4.83-12.19-5-12.14c-1.65-4-3.35-8.07-5.06-12.1l-1.28-3c-.42-1-.89-1.94-1.34-2.92s-.87-2-1.37-2.9l-1.44-2.79a89,89,0,0,0-15.5-20.38,97.62,97.62,0,0,0-9.75-8.42l-1.28-1-1.31-.93c-.89-.62-1.75-1.26-2.64-1.87-1.81-1.17-3.6-2.38-5.47-3.46a132.94,132.94,0,0,0-23.49-11A139.58,139.58,0,0,0,89.06,193h0a.67.67,0,0,1,.18-1.32Z"/><path class="cls-3" d="M223.3,519.75c3.16,1.67-17.79-34.4-19.4-66.18s-8.77-86-36.18-118.45-57.41-35.4-95.22-5.91C41,353.79,21.34,366.21,9.81,368.5a4.35,4.35,0,0,0-3.41,5.12,4.55,4.55,0,0,0,.45,1.23c7.39,13.6,28.29,44.89,63.39,42.69,44.77-2.81,99-31.91,115.56-7.65s14.41,37.86,14.92,49.37S202.4,508.73,223.3,519.75Z"/><path class="cls-9" d="M85.27,368.24a85.38,85.38,0,0,1,7.79-6.57c2.7-2,5.49-4,8.39-5.8A84,84,0,0,1,120,347.1a57.31,57.31,0,0,1,10.17-2.29,42.4,42.4,0,0,1,10.56,0c.88.14,1.77.23,2.64.42s1.76.37,2.59.6l4.95,1.54,4.84,1.88,4.69,2.26a59,59,0,0,1,16.4,12.75,72.65,72.65,0,0,1,11.29,17.22l1.13,2.29c.38.78.66,1.59,1,2.36.63,1.59,1.32,3.14,1.91,4.74l1.66,4.82c.58,1.6.95,3.26,1.43,4.89a176.63,176.63,0,0,1,4.24,19.83.73.73,0,0,1-.61.84h0a.73.73,0,0,1-.84-.55h0c-1.6-6.5-3.12-13-5.31-19.32-1-3.18-2.24-6.26-3.4-9.37-.63-1.53-1.34-3-2-4.53-.35-.75-.64-1.54-1-2.25L185.19,383A75.15,75.15,0,0,0,174,366.94,57.58,57.58,0,0,0,158.6,355.2l-4.4-2.09-4.56-1.74-4.79-1.44c-.78-.22-1.53-.37-2.3-.56s-1.56-.25-2.34-.39a39,39,0,0,0-9.54,0,55,55,0,0,0-9.5,1.91A92.79,92.79,0,0,0,103,358.58c-2.9,1.61-5.78,3.29-8.57,5.1s-5.53,3.74-8.16,5.75h0a.79.79,0,0,1-1.08-.14h0A.78.78,0,0,1,85.27,368.24Z"/><path class="cls-10" d="M202.16,332.68l5.5,171a55.63,55.63,0,0,0,55.39,53.7l409.41,2.42a40.14,40.14,0,0,0,40-34.16c6.39-43.17,14.57-120.43,5.39-193Z"/><path class="cls-11" d="M658,549.29h-3a.52.52,0,0,1-.49-.5.5.5,0,0,1,.5-.5h3a.5.5,0,0,1,.5.5.5.5,0,0,1-.5.5Zm6.95,0a.5.5,0,0,1,0-1c1-.06,2-.16,2.93-.29a.5.5,0,0,1,.56.42.48.48,0,0,1-.41.55h0c-1,.14-2,.24-3,.31Zm-16.89,0h-3a.51.51,0,0,1-.5-.5.5.5,0,0,1,.5-.5h3a.48.48,0,0,1,.49.48v0a.49.49,0,0,1-.49.45Zm-9.94-.06h-3a.51.51,0,0,1-.49-.5.48.48,0,0,1,.49-.49h3a.5.5,0,0,1,.5.5.5.5,0,0,1-.5.5Zm-9.94-.06h-3a.49.49,0,0,1-.49-.49h0a.53.53,0,0,1,.5-.49h3a.5.5,0,0,1,.49.5.49.49,0,0,1-.5.44Zm-9.94-.06h-3a.51.51,0,0,1-.5-.5.5.5,0,0,1,.5-.5h3a.5.5,0,0,1,.5.5A.5.5,0,0,1,618.2,549.11Zm-9.94-.06h-3a.49.49,0,0,1-.49-.49h0a.5.5,0,0,1,.5-.49h3a.5.5,0,0,1,.5.5.5.5,0,0,1-.5.5Zm-10-.06h-3a.51.51,0,0,1-.5-.5.5.5,0,0,1,.5-.5h3a.5.5,0,0,1,.5.5A.5.5,0,0,1,598.31,549Zm-9.94-.06h-3a.51.51,0,0,1-.5-.5.5.5,0,0,1,.5-.5h3a.5.5,0,0,1,.5.5A.5.5,0,0,1,588.37,548.93Zm-9.94,0h-3a.5.5,0,0,1,0-1h3a.5.5,0,0,1,.5.5A.5.5,0,0,1,578.43,548.88Zm-9.94-.06h-3a.51.51,0,0,1-.5-.5.5.5,0,0,1,.5-.5h3a.5.5,0,0,1,.5.5A.5.5,0,0,1,568.49,548.82Zm-9.94-.14h-3a.51.51,0,0,1-.5-.5.5.5,0,0,1,.5-.5h3a.5.5,0,0,1,.49.5A.51.51,0,0,1,558.55,548.68Zm-9.94-.06h-3a.51.51,0,0,1-.5-.5.5.5,0,0,1,.5-.5h3a.5.5,0,0,1,.5.5A.5.5,0,0,1,548.61,548.62Zm-9.94-.06h-3a.51.51,0,0,1-.5-.5.5.5,0,0,1,.5-.5h3a.5.5,0,0,1,.5.5A.5.5,0,0,1,538.67,548.56Zm-9.94-.06h-3a.51.51,0,0,1-.5-.5.5.5,0,0,1,.5-.5h3a.5.5,0,0,1,.5.5A.5.5,0,0,1,528.73,548.5Zm-9.94-.06h-3a.52.52,0,0,1-.49-.5.5.5,0,0,1,.5-.5h3a.5.5,0,0,1,.5.5.5.5,0,0,1-.5.5Zm-9.94,0h-3a.51.51,0,0,1-.49-.5.55.55,0,0,1,.5-.5h3a.5.5,0,0,1,.5.5.51.51,0,0,1-.51.48Zm-9.94-.06h-3a.51.51,0,0,1-.5-.5.5.5,0,0,1,.5-.5h3a.5.5,0,0,1,.5.5.51.51,0,0,1-.5.48Zm-9.94-.06h-3a.49.49,0,0,1-.49-.49h0a.51.51,0,0,1,.5-.49h3a.5.5,0,0,1,.5.5.5.5,0,0,1-.5.5Zm-9.94-.06h-3a.51.51,0,0,1-.5-.5.5.5,0,0,1,.5-.5h3a.47.47,0,0,1,.49.46v0a.49.49,0,0,1-.49.48Zm-9.94-.06h-3a.49.49,0,0,1-.49-.49h0a.51.51,0,0,1,.5-.49h3a.5.5,0,0,1,.5.5.5.5,0,0,1-.5.5Zm-9.94-.06h-3a.51.51,0,0,1-.5-.5.5.5,0,0,1,.5-.5h3a.5.5,0,0,1,.5.5A.5.5,0,0,1,459.15,548.14Zm-9.94-.06h-3a.51.51,0,0,1-.49-.5.48.48,0,0,1,.48-.5h3a.49.49,0,1,1,0,1Zm-9.95,0h-3a.51.51,0,0,1-.5-.5.5.5,0,0,1,.5-.5h3a.5.5,0,0,1,.5.5A.5.5,0,0,1,439.26,548.08Zm-9.94-.06h-3a.49.49,0,0,1-.49-.49h0a.49.49,0,0,1,.49-.5h3a.5.5,0,0,1,.5.5A.5.5,0,0,1,429.32,548Zm-9.94-.06h-3a.51.51,0,0,1-.5-.5.5.5,0,0,1,.5-.5h3a.5.5,0,0,1,.5.5A.5.5,0,0,1,419.38,548Zm-9.94-.06h-3a.5.5,0,1,1,0-1h3a.5.5,0,0,1,.5.5.5.5,0,0,1-.5.5Zm-9.94-.06h-3a.51.51,0,0,1-.5-.5.5.5,0,0,1,.5-.5h3a.5.5,0,0,1,.5.5A.5.5,0,0,1,399.5,547.84Zm-9.94-.06h-3a.51.51,0,0,1-.5-.5.5.5,0,0,1,.5-.5h3a.5.5,0,0,1,.5.5A.5.5,0,0,1,389.56,547.78Zm-9.94-.06h-3a.52.52,0,0,1-.5-.5.5.5,0,0,1,.5-.5h3a.5.5,0,0,1,.5.5A.5.5,0,0,1,379.62,547.72Zm-9.94-.06h-3a.51.51,0,0,1-.5-.5.53.53,0,0,1,.5-.5h3a.5.5,0,0,1,.5.5A.5.5,0,0,1,369.68,547.66Zm-9.94,0h-3a.51.51,0,0,1-.5-.5.5.5,0,0,1,.5-.5h3a.5.5,0,0,1,.5.5A.5.5,0,0,1,359.74,547.66Zm-9.89-.18h-3a.51.51,0,0,1-.49-.5.5.5,0,0,1,.5-.49h3a.5.5,0,0,1,.5.5.5.5,0,0,1-.51.49Zm-9.94-.06h-3a.51.51,0,0,1-.5-.5.5.5,0,0,1,.5-.5h3a.5.5,0,0,1,.5.5.51.51,0,0,1-.52.5h0Zm334.78,0a.53.53,0,0,1-.47-.35.51.51,0,0,1,.32-.63c.93-.31,1.85-.65,2.75-1a.52.52,0,0,1,.65.3.49.49,0,0,1-.26.62c-.93.39-1.88.74-2.83,1.06a.5.5,0,0,1-.21,0Zm-344.72,0h-3a.49.49,0,0,1-.49-.49h0a.49.49,0,0,1,.5-.49h3a.5.5,0,0,1,.5.5.52.52,0,0,1-.56.43Zm-9.94-.06h-3a.51.51,0,0,1-.5-.5.5.5,0,0,1,.5-.5h3a.47.47,0,0,1,.49.46v0a.49.49,0,0,1-.53.44h0Zm-9.94-.06h-3a.52.52,0,0,1-.49-.5.48.48,0,0,1,.48-.5h3a.5.5,0,0,1,.5.5A.5.5,0,0,1,310.09,547.3Zm-9.94-.06h-3a.51.51,0,0,1-.49-.5.48.48,0,0,1,.48-.5h3a.47.47,0,1,1,0,.94h0Zm-9.94,0h-3a.51.51,0,0,1-.5-.5.5.5,0,0,1,.5-.5h3a.45.45,0,1,1,0,.89Zm-9.94-.06h-3a.51.51,0,0,1-.5-.5.5.5,0,0,1,.5-.5h3a.5.5,0,0,1,.49.5.49.49,0,0,1-.54.39Zm-9.94-.11h0a27.56,27.56,0,0,1-3-.24.51.51,0,0,1-.44-.56.49.49,0,0,1,.55-.44c1,.11,2,.18,2.94.23a.5.5,0,0,1,.5.5.5.5,0,0,1-.5.5Zm-9.83-1.42h-.11c-1-.24-1.95-.5-2.91-.79a.5.5,0,0,1,.18-1l.11,0c.94.28,1.9.54,2.85.77a.5.5,0,0,1,.44.56.51.51,0,0,1-.56.44Zm423.12-2.49a.53.53,0,0,1-.42-.23.49.49,0,0,1,.15-.68h0c.82-.54,1.62-1.12,2.39-1.71a.5.5,0,0,1,.7.09.47.47,0,0,1-.07.67l0,0c-.79.62-1.62,1.21-2.46,1.76a.58.58,0,0,1-.32,0Zm-432.5-.73a.74.74,0,0,1-.21,0c-.9-.41-1.81-.85-2.7-1.32a.49.49,0,0,1-.21-.66h0a.49.49,0,0,1,.67-.21c.87.46,1.76.89,2.65,1.29a.5.5,0,0,1,.25.66.51.51,0,0,1-.5.14Zm-8.62-4.91a.55.55,0,0,1-.28-.09c-.82-.57-1.63-1.18-2.42-1.79a.51.51,0,0,1-.08-.7.5.5,0,0,1,.7-.09c.77.61,1.57,1.2,2.37,1.77a.5.5,0,0,1,.1.7A.52.52,0,0,1,242.5,537.52Zm448.64-.82a.53.53,0,0,1-.34-.13.5.5,0,0,1,0-.7h0c.65-.73,1.28-1.49,1.87-2.27a.5.5,0,1,1,.79.61c-.61.8-1.26,1.58-1.92,2.32a.51.51,0,0,1-.45.05ZM234.9,531a.57.57,0,0,1-.36-.16c-.7-.71-1.38-1.46-2-2.21a.5.5,0,0,1,.67-.74l.08.09c.64.73,1.32,1.47,2,2.17a.49.49,0,0,1-.35.84Zm461.78-2.57a.54.54,0,0,1-.22,0,.51.51,0,0,1-.22-.67c.44-.87.86-1.77,1.23-2.67a.5.5,0,1,1,1,.29.36.36,0,0,1,0,.09c-.39.93-.81,1.85-1.26,2.74a.52.52,0,0,1-.45.27Zm-468-5.16a.45.45,0,0,1-.41-.23c-.56-.83-1.09-1.69-1.59-2.54a.5.5,0,0,1,.17-.68.49.49,0,0,1,.67.16v0c.5.84,1,1.69,1.57,2.51a.5.5,0,0,1-.15.69.61.61,0,0,1-.27.08ZM700,519.06h-.14a.5.5,0,0,1-.39-.59c.16-.73.29-1.48.4-2.23l.1-.68a.52.52,0,0,1,.57-.42.51.51,0,0,1,.42.56l-.1.69c-.12.78-.26,1.54-.41,2.29a.5.5,0,0,1-.47.39Zm-476-4.57a.48.48,0,0,1-.46-.31c-.38-.92-.74-1.86-1.08-2.81a.5.5,0,0,1,.94-.33c.33.93.68,1.86,1.06,2.76a.49.49,0,0,1-.25.65h0a.5.5,0,0,1-.21,0Zm477.48-5.26h-.07a.48.48,0,0,1-.42-.55h0c.14-1,.27-2,.41-3a.5.5,0,0,1,1,.13c-.13,1-.27,2-.41,3a.5.5,0,0,1-.52.44ZM221.05,505a.49.49,0,0,1-.49-.39c-.2-1-.38-2-.53-3a.5.5,0,0,1,.42-.56h0a.5.5,0,0,1,.56.42h0c.15,1,.32,1.94.52,2.9a.49.49,0,0,1-.37.59h0Zm481.74-5.63h-.07a.5.5,0,0,1-.43-.56l.37-3a.52.52,0,0,1,.56-.43.5.5,0,0,1,.43.56l-.37,3a.51.51,0,0,1-.5.44Zm-482.85-4.23a.49.49,0,0,1-.5-.47l-.09-3a.49.49,0,0,1,.47-.51h0a.47.47,0,0,1,.51.44v0l.1,3a.5.5,0,0,1-.48.51ZM704,489.5h-.06a.5.5,0,0,1-.44-.55c.12-1,.23-2,.34-3a.5.5,0,0,1,1,.11c-.11,1-.23,2-.34,3a.49.49,0,0,1-.51.45Zm-484.37-4.28a.51.51,0,0,1-.5-.49l-.09-3a.5.5,0,0,1,.5-.5.5.5,0,0,1,.5.5l.1,3a.49.49,0,0,1-.48.51h0Zm485.44-5.54h0a.51.51,0,0,1-.44-.55q.15-1.47.3-3a.5.5,0,0,1,.55-.45.49.49,0,0,1,.45.55h0l-.3,3A.52.52,0,0,1,705.06,479.68Zm-485.77-4.41a.49.49,0,0,1-.5-.47l-.09-3a.48.48,0,0,1,.45-.51h0a.49.49,0,0,1,.51.47l.1,3a.49.49,0,0,1-.48.51ZM706,469.73h0a.51.51,0,0,1-.45-.54l.27-3a.51.51,0,0,1,.55-.46.5.5,0,0,1,.45.55l-.27,3A.5.5,0,0,1,706,469.73ZM219,465.33a.49.49,0,0,1-.5-.47l-.09-3a.5.5,0,0,1,.5-.5.5.5,0,0,1,.5.5l.1,3a.48.48,0,0,1-.47.5h0Zm487.93-5.51h0a.5.5,0,0,1-.46-.53l.24-3a.5.5,0,0,1,.52-.47h0a.51.51,0,0,1,.46.54h0l-.24,3a.51.51,0,0,1-.53.47Zm-488.25-4.41a.5.5,0,0,1-.5-.48l-.09-3a.5.5,0,0,1,.5-.5.5.5,0,0,1,.5.5l.1,3a.51.51,0,0,1-.48.51Zm489-5.5h0a.49.49,0,0,1-.46-.52v0l.2-3a.52.52,0,0,1,.53-.47.5.5,0,0,1,.47.53l-.2,3a.48.48,0,0,1-.5.48h0Zm-489.31-4.44a.49.49,0,0,1-.49-.47h0l-.1-3a.5.5,0,0,1,.48-.51.48.48,0,0,1,.51.46h0l.1,3a.51.51,0,0,1-.48.52ZM708.26,440h0a.5.5,0,0,1-.47-.51h0c.05-1,.11-2,.16-3a.49.49,0,0,1,.51-.48h0a.48.48,0,0,1,.47.5v0c0,1-.1,2-.16,3a.49.49,0,0,1-.51.47h0ZM218,435.54a.49.49,0,0,1-.49-.47h0l-.1-3a.5.5,0,0,1,.5-.5.5.5,0,0,1,.5.5l.1,3a.49.49,0,0,1-.48.51h0Zm490.74-5.48h0a.5.5,0,0,1-.47-.51h0l.12-3a.5.5,0,0,1,.5-.5.5.5,0,0,1,.5.5c0,1-.08,2-.12,3a.51.51,0,0,1-.48.52h0ZM217.7,425.6a.5.5,0,0,1-.49-.48l-.1-3a.5.5,0,0,1,.5-.5.5.5,0,0,1,.5.5l.1,3a.51.51,0,0,1-.48.51Zm491.42-5.48h0a.5.5,0,0,1-.48-.5h0c0-1,0-2,.08-3a.49.49,0,0,1,.51-.48.48.48,0,0,1,.48.49v0c0,1-.05,2-.08,3a.5.5,0,0,1-.52.48h0Zm-491.75-4.44a.51.51,0,0,1-.49-.48l-.1-3a.5.5,0,0,1,.5-.5.5.5,0,0,1,.5.5l.1,3a.51.51,0,0,1-.48.52h0Zm492-5.49h0a.51.51,0,0,1-.49-.5v-3a.51.51,0,0,1,.5-.49.48.48,0,0,1,.49.48v3a.48.48,0,0,1-.47.48h0Zm-492.32-4.46a.51.51,0,0,1-.49-.48l-.1-3a.5.5,0,0,1,.48-.51.48.48,0,0,1,.51.46v0l.1,3a.51.51,0,0,1-.48.51Zm492.36-5.49a.5.5,0,0,1-.5-.48h0v-3a.5.5,0,0,1,.5-.5h0a.49.49,0,0,1,.5.49v3a.49.49,0,0,1-.5.48ZM216.73,395.8a.51.51,0,0,1-.49-.49l-.1-3a.5.5,0,0,1,.48-.51.48.48,0,0,1,.52.45v0l.09,3a.5.5,0,0,1-.48.52h0Zm492.6-5.49a.49.49,0,0,1-.49-.49l-.06-3a.51.51,0,0,1,.49-.51.5.5,0,0,1,.51.49c0,1,0,2,.05,3a.51.51,0,0,1-.49.51Zm-492.92-4.45a.51.51,0,0,1-.49-.48l-.1-3a.49.49,0,0,1,.47-.51h0a.49.49,0,0,1,.52.47h0l.09,3a.48.48,0,0,1-.47.5h0Zm492.69-5.49a.5.5,0,0,1-.5-.48c0-1-.06-2-.1-3a.49.49,0,0,1,.47-.51h0a.46.46,0,0,1,.51.42v.06c0,1,.07,2,.11,3a.51.51,0,0,1-.48.51Zm-493-4.45a.51.51,0,0,1-.49-.48l-.1-3a.5.5,0,0,1,.5-.5.5.5,0,0,1,.5.5l.09,3a.47.47,0,0,1-.45.5h0Zm492.61-5.48a.51.51,0,0,1-.5-.47l-.15-3a.48.48,0,0,1,.46-.52h0a.51.51,0,0,1,.52.47c0,1,.11,2,.15,3a.48.48,0,0,1-.46.51h0ZM215.79,366a.5.5,0,0,1-.5-.48l-.1-3a.5.5,0,0,1,.48-.52h0a.5.5,0,0,1,.52.48l.09,3a.48.48,0,0,1-.47.5h0Zm492.34-5.47a.51.51,0,0,1-.5-.47l-.21-3a.49.49,0,0,1,.46-.53.48.48,0,0,1,.53.44v0q.12,1.5.21,3a.49.49,0,0,1-.45.52h0Zm-492.66-4.47a.5.5,0,0,1-.5-.48l-.1-3a.5.5,0,0,1,.48-.51.48.48,0,0,1,.52.45v0l.09,3a.48.48,0,0,1-.47.5h0Zm491.89-5.44a.5.5,0,0,1-.5-.46l-.27-3a.51.51,0,0,1,.45-.55.49.49,0,0,1,.54.45c.09,1,.19,2,.27,3a.49.49,0,0,1-.45.52h0Zm-492.21-4.49a.5.5,0,0,1-.5-.48l-.1-3a.5.5,0,0,1,.5-.5.5.5,0,0,1,.5.5l.09,3a.51.51,0,0,1-.48.52h0Zm491.22-5.44a.51.51,0,0,1-.49-.44l-.33-3a.49.49,0,0,1,.42-.55h0a.48.48,0,0,1,.55.4v0c.12,1,.23,2,.34,3a.51.51,0,0,1-.44.55Zm-491.52-4.5a.5.5,0,0,1-.5-.48l-.11-3.49H216a.5.5,0,0,1,.5.5.5.5,0,0,1-.5.5h-.78l.08,2.47a.48.48,0,0,1-.47.5h0Zm488.29-3h-3a.51.51,0,0,1-.5-.5.5.5,0,0,1,.5-.5h3a.5.5,0,0,1,.5.5A.5.5,0,0,1,703.14,333.18Zm-9.94,0h-3a.51.51,0,0,1-.5-.5.5.5,0,0,1,.5-.5h3a.5.5,0,0,1,.5.5A.5.5,0,0,1,693.2,333.18Zm-9.94,0h-3a.51.51,0,0,1-.5-.5.5.5,0,0,1,.5-.5h3a.5.5,0,0,1,.5.5A.5.5,0,0,1,683.26,333.18Zm-9.94,0h-3a.51.51,0,0,1-.5-.5.5.5,0,0,1,.5-.5h3a.5.5,0,0,1,.5.5A.5.5,0,0,1,673.32,333.18Zm-9.94,0h-3a.51.51,0,0,1-.5-.5.5.5,0,0,1,.5-.5h3a.5.5,0,0,1,.5.5A.5.5,0,0,1,663.38,333.18Zm-9.94,0h-3a.51.51,0,0,1-.5-.5.5.5,0,0,1,.5-.5h3a.5.5,0,0,1,.5.5A.5.5,0,0,1,653.44,333.18Zm-9.94,0h-3a.51.51,0,0,1-.5-.5.5.5,0,0,1,.5-.5h3a.5.5,0,0,1,.5.5A.5.5,0,0,1,643.5,333.18Zm-10,0h-3a.51.51,0,0,1-.5-.5.5.5,0,0,1,.5-.5h3a.5.5,0,0,1,.5.5A.5.5,0,0,1,633.5,333.18Zm-9.94,0h-3a.51.51,0,0,1-.5-.5.5.5,0,0,1,.5-.5h3a.5.5,0,0,1,.5.5A.5.5,0,0,1,623.56,333.18Zm-9.94,0h-3a.51.51,0,0,1-.5-.5.5.5,0,0,1,.5-.5h3a.5.5,0,0,1,.5.5A.5.5,0,0,1,613.62,333.18Zm-9.94,0h-3a.51.51,0,0,1-.5-.5.5.5,0,0,1,.5-.5h3a.5.5,0,0,1,.5.5A.5.5,0,0,1,603.68,333.18Zm-9.94,0h-3a.51.51,0,0,1-.5-.5.5.5,0,0,1,.5-.5h3a.5.5,0,0,1,.5.5A.5.5,0,0,1,593.74,333.18Zm-9.94,0h-3a.51.51,0,0,1-.5-.5.5.5,0,0,1,.5-.5h3a.5.5,0,0,1,.5.5A.5.5,0,0,1,583.8,333.18Zm-9.94,0h-3a.51.51,0,0,1-.5-.5.5.5,0,0,1,.5-.5h3a.5.5,0,0,1,.5.5A.5.5,0,0,1,573.86,333.18Zm-9.94,0h-3a.51.51,0,0,1-.5-.5.5.5,0,0,1,.5-.5h3a.5.5,0,0,1,.5.5A.5.5,0,0,1,563.92,333.18Zm-9.94,0h-3a.51.51,0,0,1-.5-.5.5.5,0,0,1,.5-.5h3a.5.5,0,0,1,.5.5A.5.5,0,0,1,554,333.18Zm-9.94,0h-3a.51.51,0,0,1-.5-.5.5.5,0,0,1,.5-.5h3a.5.5,0,0,1,.5.5A.5.5,0,0,1,544,333.18Zm-9.94,0h-3a.51.51,0,0,1-.5-.5.5.5,0,0,1,.5-.5h3a.5.5,0,0,1,.5.5A.5.5,0,0,1,534.1,333.18Zm-9.94,0h-3a.51.51,0,0,1-.5-.5.5.5,0,0,1,.5-.5h3a.5.5,0,0,1,.5.5A.5.5,0,0,1,524.16,333.18Zm-9.94,0h-3a.51.51,0,0,1-.5-.5.5.5,0,0,1,.5-.5h3a.5.5,0,0,1,.5.5A.5.5,0,0,1,514.22,333.18Zm-10,0h-3a.51.51,0,0,1-.5-.5.5.5,0,0,1,.5-.5h3a.5.5,0,0,1,.5.5A.5.5,0,0,1,504.27,333.18Zm-9.94,0h-3a.51.51,0,0,1-.5-.5.5.5,0,0,1,.5-.5h3a.5.5,0,0,1,.5.5A.5.5,0,0,1,494.33,333.18Zm-9.94,0h-3a.51.51,0,0,1-.5-.5.5.5,0,0,1,.5-.5h3a.5.5,0,0,1,.5.5A.5.5,0,0,1,484.39,333.18Zm-9.94,0h-3a.51.51,0,0,1-.5-.5.5.5,0,0,1,.5-.5h3a.5.5,0,0,1,.5.5A.5.5,0,0,1,474.45,333.18Zm-9.94,0h-3a.51.51,0,0,1-.5-.5.5.5,0,0,1,.5-.5h3a.5.5,0,0,1,.5.5A.5.5,0,0,1,464.51,333.18Zm-9.94,0h-3a.51.51,0,0,1-.5-.5.5.5,0,0,1,.5-.5h3a.5.5,0,0,1,.5.5A.5.5,0,0,1,454.57,333.18Zm-9.94,0h-3a.51.51,0,0,1-.5-.5.5.5,0,0,1,.5-.5h3a.5.5,0,0,1,.5.5A.5.5,0,0,1,444.63,333.18Zm-9.94,0h-3a.51.51,0,0,1-.5-.5.5.5,0,0,1,.5-.5h3a.5.5,0,0,1,.5.5A.5.5,0,0,1,434.69,333.18Zm-9.94,0h-3a.51.51,0,0,1-.5-.5.5.5,0,0,1,.5-.5h3a.5.5,0,0,1,.5.5A.5.5,0,0,1,424.75,333.18Zm-9.94,0h-3a.51.51,0,0,1-.5-.5.5.5,0,0,1,.5-.5h3a.5.5,0,0,1,.5.5A.5.5,0,0,1,414.81,333.18Zm-9.94,0h-3a.51.51,0,0,1-.5-.5.5.5,0,0,1,.5-.5h3a.5.5,0,0,1,.5.5A.5.5,0,0,1,404.87,333.18Zm-9.94,0h-3a.51.51,0,0,1-.5-.5.5.5,0,0,1,.5-.5h3a.5.5,0,0,1,.5.5A.5.5,0,0,1,394.93,333.18Zm-9.94,0h-3a.51.51,0,0,1-.5-.5.5.5,0,0,1,.5-.5h3a.5.5,0,0,1,.5.5A.5.5,0,0,1,385,333.18Zm-10,0h-3a.51.51,0,0,1-.5-.5.5.5,0,0,1,.5-.5h3a.5.5,0,0,1,.5.5A.5.5,0,0,1,375,333.18Zm-9.94,0h-3a.51.51,0,0,1-.5-.5.5.5,0,0,1,.5-.5h3a.5.5,0,0,1,.5.5A.5.5,0,0,1,365.05,333.18Zm-9.94,0h-3a.51.51,0,0,1-.5-.5.5.5,0,0,1,.5-.5h3a.5.5,0,0,1,.5.5A.5.5,0,0,1,355.11,333.18Zm-9.94,0h-3a.51.51,0,0,1-.5-.5.5.5,0,0,1,.5-.5h3a.5.5,0,0,1,.5.5A.5.5,0,0,1,345.17,333.18Zm-9.94,0h-3a.51.51,0,0,1-.5-.5.5.5,0,0,1,.5-.5h3a.5.5,0,0,1,.5.5A.5.5,0,0,1,335.23,333.18Zm-9.94,0h-3a.51.51,0,0,1-.5-.5.5.5,0,0,1,.5-.5h3a.5.5,0,0,1,.5.5A.5.5,0,0,1,325.29,333.18Zm-9.94,0h-3a.51.51,0,0,1-.5-.5.5.5,0,0,1,.5-.5h3a.5.5,0,0,1,.5.5A.5.5,0,0,1,315.35,333.18Zm-9.94,0h-3a.51.51,0,0,1-.5-.5.5.5,0,0,1,.5-.5h3a.5.5,0,0,1,.5.5A.5.5,0,0,1,305.41,333.18Zm-9.94,0h-3a.51.51,0,0,1-.5-.5.5.5,0,0,1,.5-.5h3a.5.5,0,0,1,.5.5A.5.5,0,0,1,295.47,333.18Zm-9.94,0h-3a.51.51,0,0,1-.5-.5.5.5,0,0,1,.5-.5h3a.5.5,0,0,1,.5.5A.5.5,0,0,1,285.53,333.18Zm-9.94,0h-3a.51.51,0,0,1-.5-.5.5.5,0,0,1,.5-.5h3a.5.5,0,0,1,.5.5A.5.5,0,0,1,275.59,333.18Zm-9.94,0h-3a.51.51,0,0,1-.5-.5.5.5,0,0,1,.5-.5h3a.5.5,0,0,1,.5.5A.5.5,0,0,1,265.65,333.18Zm-9.94,0h-3a.51.51,0,0,1-.5-.5.5.5,0,0,1,.5-.5h3a.5.5,0,0,1,.5.5A.5.5,0,0,1,255.71,333.18Zm-10,0h-3a.51.51,0,0,1-.5-.5.5.5,0,0,1,.5-.5h3a.5.5,0,0,1,.5.5A.5.5,0,0,1,245.76,333.18Zm-9.94,0h-3a.51.51,0,0,1-.5-.5.5.5,0,0,1,.5-.5h3a.5.5,0,0,1,.5.5A.5.5,0,0,1,235.82,333.18Zm-9.94,0h-3a.51.51,0,0,1-.5-.5.5.5,0,0,1,.5-.5h3a.5.5,0,0,1,.5.5A.5.5,0,0,1,225.88,333.18Z"/><path class="cls-10" d="M322.15,208.59l1.23-13.19a10.16,10.16,0,0,1,7.69-5.92c12.75-2,44.38-5.59,59.61,5.79L393,210.59Z"/><path class="cls-10" d="M362,195.9a18.32,18.32,0,0,1-8.83,0,8,8,0,0,1-6.08-7.72v-41.3h21v41.26A8,8,0,0,1,362,195.9Z"/><path class="cls-10" d="M525.66,208.59l1.19-13.19a10.16,10.16,0,0,1,7.69-5.92c12.75-2,44.39-5.59,59.62,5.79l2.27,15.32Z"/><path class="cls-10" d="M565.5,195.9a18.32,18.32,0,0,1-8.83,0,8,8,0,0,1-6.08-7.72V142.53h21v45.61A8,8,0,0,1,565.5,195.9Z"/><path class="cls-12" d="M345,157l226-7.48a10.9,10.9,0,0,0,10.41-8.94,91.74,91.74,0,0,0,.7-28.64A26.06,26.06,0,0,0,556.8,89.88c-42.16-1-149.47-1-208.61,22.42a20.64,20.64,0,0,0-12.52,14.38c-1.51,6.21-2.52,14.5-.54,22.94A9.71,9.71,0,0,0,345,157Z"/><path class="cls-13" d="M217.31,203.45c73-.93,388.8-4.25,480.53,6.82a18.67,18.67,0,0,1,16.06,14.46c5.42,24.51,16.32,81.44,15,137.85a16.35,16.35,0,0,1-13.39,15.6l-209.4,39.61H431.76L208.65,373.45a17.45,17.45,0,0,1-14.07-16.19c-1.45-28.39-3.72-95,4-137.88A19.3,19.3,0,0,1,217.31,203.45Z"/><path class="cls-11" d="M504.42,400.26h-3a.52.52,0,0,1-.5-.5.5.5,0,0,1,.5-.5h3a.5.5,0,0,1,.5.5A.5.5,0,0,1,504.42,400.26Zm-9.94,0h-3a.52.52,0,0,1-.5-.5.5.5,0,0,1,.5-.5h3a.5.5,0,0,1,.5.5A.5.5,0,0,1,494.48,400.26Zm-9.94,0h-3a.52.52,0,0,1-.5-.5.5.5,0,0,1,.5-.5h3a.5.5,0,0,1,.5.5A.5.5,0,0,1,484.54,400.26Zm-9.94,0h-3a.51.51,0,0,1-.5-.5.5.5,0,0,1,.5-.5h3a.5.5,0,0,1,.5.5A.5.5,0,0,1,474.6,400.26Zm-9.94,0h-3a.51.51,0,0,1-.5-.5.5.5,0,0,1,.5-.5h3a.5.5,0,0,1,.5.5A.5.5,0,0,1,464.66,400.26Zm-9.94,0h-3a.51.51,0,0,1-.5-.5.5.5,0,0,1,.5-.5h3a.5.5,0,0,1,.5.5A.51.51,0,0,1,454.72,400.26Zm-9.94,0h-3a.51.51,0,0,1-.5-.5.5.5,0,0,1,.5-.5h3a.5.5,0,0,1,.5.5A.51.51,0,0,1,444.78,400.26Zm-9.94,0h-1.3l-3-.59a.51.51,0,0,1-.39-.59h0a.48.48,0,0,1,.55-.39h0l2.93.58h1.19a.5.5,0,0,1,.5.5.51.51,0,0,1-.5.5ZM511.26,399a.52.52,0,0,1-.49-.41.49.49,0,0,1,.4-.58l2.93-.55a.48.48,0,0,1,.58.38h0a.51.51,0,0,1-.4.59l-2.93.55Zm-87.47-.65h-.1l-2.92-.58a.51.51,0,0,1-.39-.59h0a.48.48,0,0,1,.55-.39h0l2.93.58a.5.5,0,0,1,.45.55.5.5,0,0,1-.55.45Zm97.24-1.2a.5.5,0,0,1-.49-.4.52.52,0,0,1,.4-.6l2.93-.55a.52.52,0,0,1,.59.42.49.49,0,0,1-.41.58l-2.93.55Zm-107-.74h-.1L411,395.8a.5.5,0,0,1-.39-.58h0a.51.51,0,0,1,.58-.41l2.93.6a.48.48,0,0,1,.39.57h0a.51.51,0,0,1-.48.39Zm116.82-1.11a.5.5,0,0,1-.49-.4.49.49,0,0,1,.38-.58h0l2.93-.56a.49.49,0,0,1,.58.4.48.48,0,0,1-.36.57h0l-2.93.55Zm-126.51-.83h-.1l-2.92-.58a.51.51,0,0,1-.4-.6.49.49,0,0,1,.59-.4l2.93.58a.48.48,0,0,1,.39.57h0a.5.5,0,0,1-.54.42Zm136.27-1a.5.5,0,0,1-.54-.46.49.49,0,0,1,.45-.54l2.93-.56a.5.5,0,0,1,.58.4.48.48,0,0,1-.38.57h0l-2.93.56Zm-146-.92h-.1l-2.92-.58a.51.51,0,0,1-.4-.6.49.49,0,0,1,.59-.4l2.93.58a.48.48,0,0,1,.39.57h0a.51.51,0,0,1-.56.4Zm155.79-.92a.52.52,0,0,1-.49-.41.49.49,0,0,1,.4-.58l2.93-.55a.48.48,0,0,1,.58.38h0a.5.5,0,0,1-.4.58l-2.93.56Zm-165.54-1h-.1l-2.92-.59a.51.51,0,0,1-.4-.6.49.49,0,0,1,.59-.4l2.93.58a.49.49,0,0,1,.45.55.51.51,0,0,1-.55.45Zm175.31-.84a.5.5,0,0,1-.54-.46.49.49,0,0,1,.45-.54l2.93-.55a.49.49,0,0,1,.58.4.52.52,0,0,1-.4.58l-2.93.55ZM375,388.68h-.1L372,388.1a.51.51,0,0,1-.39-.59h0a.49.49,0,0,1,.57-.39h0l2.93.58a.5.5,0,0,1,.45.55.5.5,0,0,1-.55.45Zm194.81-.8a.52.52,0,0,1-.55-.45.5.5,0,0,1,.45-.55h0l2.93-.56a.48.48,0,0,1,.58.38v0a.48.48,0,0,1-.36.57h0l-2.93.55Zm-204.56-1.2h-.1l-2.92-.58a.51.51,0,0,1-.4-.6.49.49,0,0,1,.59-.4l2.93.59a.48.48,0,0,1,.39.57h0A.51.51,0,0,1,365.29,386.68ZM579.63,386a.5.5,0,0,1-.54-.46.49.49,0,0,1,.45-.54h0l2.93-.56a.5.5,0,0,1,.58.4.48.48,0,0,1-.38.57h0l-2.93.55Zm-224.09-1.28h-.1l-2.92-.58a.51.51,0,0,1-.4-.6.49.49,0,0,1,.59-.4l2.93.58a.48.48,0,0,1,.39.57h0a.51.51,0,0,1-.49.43Zm233.86-.56a.52.52,0,0,1-.49-.41.49.49,0,0,1,.4-.58l2.93-.55a.48.48,0,0,1,.58.38h0a.5.5,0,0,1-.4.58l-2.93.56ZM345.79,382.8h-.1l-2.92-.58a.51.51,0,0,1-.4-.6.49.49,0,0,1,.59-.4l2.93.58a.48.48,0,0,1,.39.57h0a.51.51,0,0,1-.49.43Zm253.38-.47a.5.5,0,0,1-.54-.46.49.49,0,0,1,.45-.54l2.93-.55a.48.48,0,0,1,.58.38h0a.5.5,0,0,1-.4.58l-2.93.56ZM336,380.88h-.1l-2.92-.59a.48.48,0,0,1-.39-.56v0a.49.49,0,0,1,.57-.39h0l2.93.58a.5.5,0,0,1,.45.55.5.5,0,0,1-.55.45Zm272.9-.39a.5.5,0,0,1-.1-1l2.93-.55a.5.5,0,1,1,.19,1l-2.93.55Zm-282.65-1.55h-.1l-2.92-.58a.51.51,0,0,1-.39-.59h0a.49.49,0,0,1,.57-.39h0l2.93.58a.5.5,0,0,1,.45.55.5.5,0,0,1-.55.45Zm292.41-.3a.5.5,0,0,1-.54-.46.49.49,0,0,1,.45-.54h0l2.93-.56a.49.49,0,0,1,.58.4.48.48,0,0,1-.38.57h0l-2.88.62ZM316.54,377h-.1l-2.92-.58a.51.51,0,0,1-.39-.59h0a.49.49,0,0,1,.57-.39h0l2.93.59a.5.5,0,0,1,.45.55.5.5,0,0,1-.55.45Zm311.93-.21a.5.5,0,0,1-.54-.46.49.49,0,0,1,.45-.54l2.93-.56a.5.5,0,0,1,.59.41.51.51,0,0,1-.41.59h0l-2.93.54Zm-321.68-1.73h-.1l-2.92-.58a.51.51,0,0,1-.4-.6.49.49,0,0,1,.59-.4l2.93.58a.49.49,0,0,1,.45.55.51.51,0,0,1-.55.45ZM638.24,375a.5.5,0,0,1-.54-.46.49.49,0,0,1,.45-.54l2.93-.55a.48.48,0,0,1,.58.38h0a.5.5,0,0,1-.4.58l-2.93.56ZM297,373.12h-.1l-2.92-.58a.51.51,0,0,1-.4-.6.49.49,0,0,1,.59-.4l2.93.58a.49.49,0,0,1,.45.55.51.51,0,0,1-.55.45Zm351,0a.52.52,0,0,1-.55-.45.5.5,0,0,1,.45-.55l2.93-.55a.5.5,0,0,1,.6.4.52.52,0,0,1-.41.6l-2.93.56Zm9.76-1.85a.5.5,0,0,1-.48-.4.5.5,0,0,1,.39-.59h0l2.93-.54a.49.49,0,0,1,.58.4.48.48,0,0,1-.38.57h0l-2.93.55Zm-370.48-.06h-.1l-2.92-.59a.51.51,0,0,1-.4-.6.49.49,0,0,1,.59-.4l2.93.58a.49.49,0,0,1,.45.55.51.51,0,0,1-.55.45Zm380.25-1.79A.5.5,0,0,1,667,369a.49.49,0,0,1,.45-.54h0l2.93-.56a.5.5,0,0,1,.59.41.51.51,0,0,1-.41.59l-2.93.55Zm-390-.15h-.1l-2.92-.58a.51.51,0,0,1-.39-.59h0a.48.48,0,0,1,.55-.4h0l2.93.59a.49.49,0,0,1,.45.54.51.51,0,0,1-.55.46Zm399.77-1.7a.5.5,0,0,1-.49-.4.51.51,0,0,1,.4-.59l2.93-.56a.51.51,0,0,1,.58.41.5.5,0,0,1-.4.58l-2.93.56Zm-409.52-.24h-.1l-2.92-.58a.51.51,0,0,1-.39-.59h0a.49.49,0,0,1,.57-.4h0l2.93.59a.48.48,0,0,1-.13,1Zm419.26-1.65a.52.52,0,0,1-.55-.45.5.5,0,0,1,.45-.55l2.93-.55a.49.49,0,1,1,.19,1l-2.93.56Zm-429-.35H258l-2.92-.58a.5.5,0,0,1-.4-.59.51.51,0,0,1,.59-.41l2.93.58a.5.5,0,0,1,.45.55.5.5,0,0,1-.55.45Zm438.77-1.47a.5.5,0,0,1-.48-.41.48.48,0,0,1,.36-.58h0l2.93-.55a.5.5,0,0,1,.6.4.52.52,0,0,1-.41.6h0l-2.93.56Zm-448.55-.43h-.1l-2.92-.58a.51.51,0,0,1-.4-.6.49.49,0,0,1,.59-.4l2.93.58a.49.49,0,0,1,.45.55.51.51,0,0,1-.55.45ZM706.62,362a.52.52,0,0,1-.49-.4.51.51,0,0,1,.4-.59l2.93-.55a.5.5,0,0,1,.59.41.51.51,0,0,1-.41.59l-2.93.54Zm-468.07-.51h-.1l-2.92-.59a.51.51,0,0,1-.4-.6.49.49,0,0,1,.59-.4l2.93.58a.49.49,0,0,1,.45.55.51.51,0,0,1-.55.45Zm-9.75-1.94h-.1l-2.92-.58a.51.51,0,0,1-.39-.59h0A.49.49,0,0,1,226,358h0l2.93.58a.5.5,0,0,1,.45.55.5.5,0,0,1-.55.45Zm-9.75-1.94H219L216,357a.51.51,0,0,1-.39-.59h0a.49.49,0,0,1,.57-.39h0l2.93.58a.52.52,0,0,1,.39.6.51.51,0,0,1-.5.39Zm492-2h0a.51.51,0,0,1-.5-.5v-3a.49.49,0,0,1,.49-.5h0a.49.49,0,0,1,.5.49v3a.5.5,0,0,1-.41.56H711ZM212.47,353a.52.52,0,0,1-.5-.48c0-1-.09-2-.13-3a.5.5,0,0,1,.5-.5.5.5,0,0,1,.5.5c0,1,.09,2,.14,3a.51.51,0,0,1-.48.52Zm498.44-7.29a.51.51,0,0,1-.5-.49c0-1,0-2-.06-3a.49.49,0,0,1,.47-.51h0a.47.47,0,0,1,.51.44v0c0,1,0,2,.07,3a.5.5,0,0,1-.49.51h0ZM212,343a.48.48,0,0,1-.49-.46l-.12-3a.5.5,0,0,1,.48-.51.49.49,0,0,1,.52.47l.11,3a.49.49,0,0,1-.47.51h0Zm498.63-7.28a.5.5,0,0,1-.5-.47c0-1-.08-2-.13-3a.48.48,0,0,1,.46-.51h0a.5.5,0,0,1,.52.46h0c0,1,.09,2,.14,3a.5.5,0,0,1-.48.52h0Zm-499-2.65a.51.51,0,0,1-.5-.49l-.08-3a.5.5,0,1,1,1,0l.09,3a.5.5,0,0,1-.48.52h0Zm498.46-7.27a.5.5,0,0,1-.5-.47c-.06-1-.12-2-.19-3a.5.5,0,1,1,1-.07c.07,1,.13,2,.19,3a.49.49,0,0,1-.45.53h0Zm-498.69-2.64a.5.5,0,0,1-.53-.45v-.05l-.06-3a.5.5,0,0,1,.5-.5.5.5,0,0,1,.5.5l.06,3a.5.5,0,0,1-.49.51h0Zm498-7.25a.51.51,0,0,1-.49-.46c-.08-1-.16-2-.25-3a.5.5,0,0,1,.46-.54.49.49,0,0,1,.54.45c.09,1,.17,2,.25,3a.5.5,0,0,1-.46.54h0Zm-498.17-2.69a.51.51,0,0,1-.5-.5v-3a.49.49,0,0,1,.49-.5h0a.48.48,0,0,1,.49.49v3a.52.52,0,0,1-.5.51ZM708.5,306a.5.5,0,0,1-.49-.44l-.3-3a.49.49,0,0,1,.44-.54h0a.5.5,0,0,1,.55.44c.1,1,.2,2,.29,3a.48.48,0,0,1-.43.53h-.06Zm-497.35-2.73a.5.5,0,0,1-.5-.48h0v-3a.5.5,0,0,1,.5-.5h0a.49.49,0,0,1,.5.49v3A.5.5,0,0,1,211.15,303.29Zm496.31-7.16a.5.5,0,0,1-.49-.44c-.12-1-.23-2-.35-3a.5.5,0,0,1,1-.11c.11,1,.23,2,.34,3a.48.48,0,0,1-.42.55h-.08Zm-496.27-2.78h0a.51.51,0,0,1-.49-.51v-3a.51.51,0,0,1,.5-.49h0a.52.52,0,0,1,.5.51v3a.49.49,0,0,1-.49.5h0Zm495.06-7.1a.48.48,0,0,1-.49-.43c-.13-1-.26-2-.4-2.95a.51.51,0,0,1,.43-.56.5.5,0,0,1,.56.42h0l.39,3a.49.49,0,0,1-.43.56Zm-494.91-2.84h0a.5.5,0,0,1-.49-.5h0c0-1,0-2,.07-3a.49.49,0,0,1,.49-.49h0a.51.51,0,0,1,.49.51c0,1,0,2-.07,3a.51.51,0,0,1-.51.5Zm493.55-7a.47.47,0,0,1-.49-.42c-.15-1-.29-2-.44-2.95a.51.51,0,0,1,1-.15c.15,1,.3,2,.44,2.95a.49.49,0,0,1-.42.57h-.09Zm-493.26-2.93h0a.5.5,0,0,1-.48-.5h0c0-1,.07-2,.11-3a.53.53,0,0,1,.52-.48.49.49,0,0,1,.48.51h0l-.12,3A.51.51,0,0,1,211.63,273.48Zm491.75-6.91a.49.49,0,0,1-.49-.41q-.24-1.5-.48-2.94a.5.5,0,0,1,.44-.54.49.49,0,0,1,.57.39h0l.48,3a.51.51,0,0,1-.41.58Zm-491.31-3h0a.49.49,0,0,1-.47-.52c.05-1,.11-2,.17-3a.49.49,0,0,1,.51-.47h0a.5.5,0,0,1,.47.53h0c-.06,1-.11,2-.17,3a.49.49,0,0,1-.52.42Zm489.66-6.77a.5.5,0,0,1-.49-.41c-.17-1-.34-2-.52-2.92a.51.51,0,0,1,1-.18c.17,1,.35,2,.52,2.94a.5.5,0,0,1-.4.58Zm-489-3.16h0a.49.49,0,0,1-.46-.53c.08-1,.15-2,.23-3a.52.52,0,0,1,.54-.46.51.51,0,0,1,.45.54c-.08,1-.15,2-.22,3a.5.5,0,0,1-.57.42h0ZM700,247a.48.48,0,0,1-.48-.39c-.19-1-.38-2-.57-2.93a.49.49,0,0,1,.38-.58h0a.49.49,0,0,1,.59.38h0l.56,2.93a.48.48,0,0,1-.38.57H700Zm-486.45-3.34h-.05a.49.49,0,0,1-.44-.54h0l.3-3a.5.5,0,0,1,.55-.45.49.49,0,0,1,.45.55c-.1,1-.21,2-.3,3A.51.51,0,0,1,213.53,243.68ZM698,237.21a.51.51,0,0,1-.49-.39c-.21-1-.41-2-.61-2.93a.49.49,0,0,1,.39-.58h0a.49.49,0,0,1,.59.37v0c.19.94.4,1.91.61,2.92a.49.49,0,0,1-.39.58Zm-483.36-3.39h-.06a.51.51,0,0,1-.43-.56c.13-1,.26-2,.4-3a.51.51,0,0,1,.57-.43.49.49,0,0,1,.43.57c-.14,1-.27,2-.4,2.95A.51.51,0,0,1,214.65,233.82Zm480.2-5.24h-.06l-3-.33a.51.51,0,0,1-.44-.55.5.5,0,0,1,.55-.44l3,.33a.5.5,0,0,1,0,1Zm-9.89-1h0l-3-.26a.51.51,0,0,1-.45-.55.5.5,0,0,1,.53-.45h0l3,.26a.5.5,0,0,1,.5.5.5.5,0,0,1-.5.5Zm-9.9-.84h0l-3-.22a.5.5,0,0,1-.46-.54.49.49,0,0,1,.53-.46l3,.22a.5.5,0,0,1,.5.5.5.5,0,0,1-.5.5Zm-9.92-.7h0l-3-.19a.49.49,0,0,1-.46-.52h0a.5.5,0,0,1,.52-.47h0l3,.19a.5.5,0,0,1,.5.5.5.5,0,0,1-.5.5Zm-9.92-.6h0l-3-.18a.5.5,0,0,1-.47-.53.52.52,0,0,1,.53-.47l3,.16a.5.5,0,0,1,.5.5.5.5,0,0,1-.5.5Zm-9.93-.53h0l-3-.15a.52.52,0,0,1-.48-.52h0a.51.51,0,0,1,.52-.47l3,.15a.49.49,0,0,1,.48.51h0a.51.51,0,0,1-.55.44Zm-9.93-.47h0l-3-.14a.48.48,0,0,1-.48-.49v0a.52.52,0,0,1,.52-.48l3,.13a.5.5,0,0,1,.5.5.5.5,0,0,1-.5.5Zm-9.93-.42h0l-3-.11a.5.5,0,0,1-.48-.5v0a.5.5,0,0,1,.52-.48h0l3,.12a.5.5,0,0,1,.5.5.5.5,0,0,1-.5.5Zm-409.26,0h-.09a.49.49,0,0,1-.4-.57l.16-.94a1.75,1.75,0,0,1,1.72-1.47h.26a.45.45,0,0,1,.5.41v.07a.5.5,0,0,1-.49.52h-.25a.77.77,0,0,0-.76.66l-.16.93a.52.52,0,0,1-.52.36Zm399.29-.34h0l-3-.11a.51.51,0,0,1-.5-.5.5.5,0,0,1,.5-.5l3,.1a.5.5,0,0,1,.5.5.5.5,0,0,1-.5.5Zm-9.93-.34h0l-3-.09a.51.51,0,0,1-.48-.51.5.5,0,0,1,.5-.49h0l3,.09a.5.5,0,0,1,.5.5.5.5,0,0,1-.5.5Zm-9.94-.3h0l-3-.08a.51.51,0,0,1-.5-.5.5.5,0,0,1,.5-.5l3,.09a.47.47,0,1,1,0,.94Zm-9.94-.36h0l-3-.07a.52.52,0,0,1-.49-.51.5.5,0,0,1,.47-.5h0l3,.08a.5.5,0,0,1,.5.5.5.5,0,0,1-.5.5Zm-9.94-.24h0l-3-.07a.53.53,0,0,1-.49-.51.49.49,0,0,1,.49-.5h0l3,.07a.5.5,0,0,1,.5.5.5.5,0,0,1-.5.5Zm-9.94-.23h0l-3-.06a.5.5,0,0,1-.48-.5h0a.49.49,0,0,1,.5-.48l3,.06a.5.5,0,0,1,.5.5.5.5,0,0,1-.5.5Zm-9.94-.2h0l-3,0a.5.5,0,0,1-.48-.5h0a.49.49,0,0,1,.45-.5h.05l3,.06a.5.5,0,0,1,.5.5.5.5,0,0,1-.5.5Zm-331.07-.15a.51.51,0,0,1-.5-.49.49.49,0,0,1,.49-.5h3a.51.51,0,0,1,.5.49.51.51,0,0,1-.49.51h-3Zm321.14,0h0l-3-.05a.51.51,0,0,1-.5-.5.5.5,0,0,1,.5-.5h0l3,.05a.5.5,0,0,1,.5.5A.5.5,0,0,1,545.9,221.86Zm-311.19-.09a.5.5,0,0,1-.5-.48h0a.49.49,0,0,1,.49-.5h3a.47.47,0,0,1,.51.44v.05a.51.51,0,0,1-.49.5h-3ZM536,221.68h-3a.52.52,0,0,1-.49-.51h0a.49.49,0,0,1,.45-.5H533l3,0a.5.5,0,0,1,.5.5.5.5,0,0,1-.5.5Zm-291.31,0a.52.52,0,0,1-.5-.5.5.5,0,0,1,.5-.5h3a.48.48,0,0,1,.5.47v0a.48.48,0,0,1-.48.49h-3Zm9.95-.11a.5.5,0,0,1-.5-.48h0a.49.49,0,0,1,.49-.5h3a.5.5,0,0,1,.5.5.5.5,0,0,1-.5.5h-3Zm271.42,0h-3a.51.51,0,0,1-.5-.5.5.5,0,0,1,.5-.5h3a.5.5,0,0,1,.5.5A.5.5,0,0,1,526,221.57Zm-261.48-.09a.51.51,0,0,1-.5-.5.5.5,0,0,1,.5-.5h3a.48.48,0,0,1,.5.47v0a.51.51,0,0,1-.49.5h-3Zm251.54,0h-3a.49.49,0,0,1-.49-.49h0a.48.48,0,0,1,.46-.5h3a.5.5,0,0,1,.5.5.5.5,0,0,1-.5.5Zm-241.59,0a.5.5,0,0,1-.5-.48h0a.49.49,0,0,1,.49-.5h3a.5.5,0,0,1,.5.5.5.5,0,0,1-.5.5h-3Zm231.64-.06h-3a.51.51,0,0,1-.5-.5.5.5,0,0,1,.5-.5h3a.49.49,0,0,1,.49.5h0a.49.49,0,0,1-.49.44Zm-221.7,0a.51.51,0,0,1-.5-.49.5.5,0,0,1,.5-.5h3a.48.48,0,0,1,.5.47v0a.51.51,0,0,1-.49.51h-3Zm9.94-.08a.51.51,0,0,1-.5-.5.5.5,0,0,1,.5-.5h3a.5.5,0,0,1,.5.5.5.5,0,0,1-.5.5Zm201.82,0h-3a.49.49,0,0,1-.49-.49h0a.48.48,0,0,1,.48-.5h3a.5.5,0,0,1,.5.5A.5.5,0,0,1,496.19,221.29Zm-191.87-.07a.51.51,0,0,1-.5-.49.48.48,0,0,1,.48-.5h3a.47.47,0,0,1,.5.45v0a.5.5,0,0,1-.5.5h-3Zm181.93,0h-3a.5.5,0,1,1,0-1h3a.45.45,0,1,1,0,.9Zm-172-.05a.51.51,0,0,1-.5-.5.5.5,0,0,1,.5-.5h3a.5.5,0,0,1,.5.5.51.51,0,0,1-.49.5h-3Zm162,0h-3a.51.51,0,0,1-.5-.5.48.48,0,0,1,.48-.5h3a.5.5,0,0,1,.5.5A.5.5,0,0,1,476.25,221.17Zm-152.1,0a.51.51,0,0,1-.5-.5.5.5,0,0,1,.5-.5h3a.5.5,0,0,1,.5.5.5.5,0,0,1-.5.5Zm142.16,0h-3a.52.52,0,0,1-.5-.5.51.51,0,0,1,.5-.5h3a.5.5,0,0,1,.5.5A.5.5,0,0,1,466.31,221.12Zm-132.22,0a.51.51,0,0,1-.5-.5.5.5,0,0,1,.5-.5h3a.5.5,0,0,1,.5.5.5.5,0,0,1-.5.5Zm122.28,0h-3a.51.51,0,0,1-.5-.5.5.5,0,0,1,.5-.5h3a.41.41,0,1,1,.06.81Zm-112.34,0a.51.51,0,0,1-.5-.5.5.5,0,0,1,.5-.5h3a.5.5,0,0,1,.5.5.5.5,0,0,1-.5.5Zm10,0a.51.51,0,0,1-.5-.5.5.5,0,0,1,.5-.5h3a.5.5,0,0,1,.5.5.5.5,0,0,1-.5.5Zm92.45,0h-3a.51.51,0,0,1-.5-.5.5.5,0,0,1,.5-.5h3a.5.5,0,0,1,.5.5A.5.5,0,0,1,446.43,221.12Zm-82.51,0a.51.51,0,0,1-.5-.5.5.5,0,0,1,.5-.5h3a.5.5,0,0,1,.5.5.5.5,0,0,1-.5.5Zm72.57,0h-3a.51.51,0,0,1-.5-.5.5.5,0,0,1,.5-.5h3a.48.48,0,0,1,.5.47v0a.51.51,0,0,1-.44.24Zm-62.63,0a.49.49,0,0,1-.49-.49h0a.49.49,0,0,1,.49-.5h3a.5.5,0,0,1,.5.5.5.5,0,0,1-.5.5Zm52.69,0h-3a.51.51,0,0,1-.5-.5.5.5,0,0,1,.5-.5h3a.5.5,0,0,1,.5.5A.5.5,0,0,1,426.55,221.12Zm-42.74,0a.51.51,0,0,1-.5-.5.5.5,0,0,1,.5-.5h3a.5.5,0,0,1,.5.5.51.51,0,0,1-.5.5Zm32.8,0h-3a.51.51,0,0,1-.5-.5.5.5,0,0,1,.5-.5h3a.5.5,0,0,1,.5.5A.5.5,0,0,1,416.61,221.12Zm-22.86,0a.51.51,0,0,1-.5-.5.5.5,0,0,1,.5-.5h3a.5.5,0,0,1,.5.5.5.5,0,0,1-.5.5Zm12.92,0h-3a.49.49,0,0,1-.49-.49h0a.49.49,0,0,1,.49-.5h3a.49.49,0,0,1,.49.5.52.52,0,0,1-.43.18Z"/><path class="cls-10" d="M499.14,449H434a16.84,16.84,0,0,1-16.75-14.78l-7.53-62.72a16.86,16.86,0,0,1,16.75-18.77h78.28a16.82,16.82,0,0,1,16.86,16.76,14.93,14.93,0,0,1-.06,1.5l-5.59,62.72A16.81,16.81,0,0,1,499.14,449Z"/><path class="cls-14" d="M474.85,424.08s-6.13-16.13-13.29-14.65-15,7-15,7L435.07,432s32.27,12.71,43.62,5.43c0,0,33,5.69,74.58-1.14a163.44,163.44,0,0,1-11.72-35.34C520.46,412.83,497.76,421.76,474.85,424.08Z"/><path class="cls-15" d="M649.43,307.11s-47.19,59.45-107.88,93.8a163.8,163.8,0,0,0,11.72,35.34c31.48-5.16,67.92-17.49,98.81-44.89Z"/><path class="cls-16" d="M295.72,315l2.93,78.7a217.82,217.82,0,0,0,23.79,6.76c4.72-15.19,15.11-33.84,23.62-47.71C314.85,341.68,295.72,315,295.72,315Z"/><path class="cls-17" d="M451.85,313.68c-42.88,46.3-77.59,49-105.74,39.07-8.51,13.87-18.9,32.52-23.62,47.71C437,425.71,464,320.46,464,320.46Z"/><path class="cls-18" d="M460.5,308.68s4.94-5.31,14.08-3.64,17.29,4.84,23,0,7.7,1.65,7.7,1.65l-17.06,13Z"/><path class="cls-19" d="M450.3,317.79s3.38-14.11,13.55-12.22,33.36,14.54,39.33,12.22,13.6-7.88,17.52-5.91l-6.9,8.57s17.73-10.23,20.78-3.94l-29.5,16.6S462,328.79,450.3,317.79Z"/><path class="cls-20" d="M147.26,552.68s-14.63-187.24,92-252.2c0,0,29.83-19.68,67,18.45s25.19,77.74-6,114.86-62.95,83.66-55.39,120.78c-8.86,4.27-26,9.24-48.61,9.29A112.63,112.63,0,0,1,147.26,552.68Z"/><path class="cls-21" d="M293.07,243.55c0,2.49-35.55,53-35.55,53s6.37,12.55,36.81,22.75l26.27-54Z"/><path class="cls-22" d="M279.1,416.77s67.39,56.45,140.16,31.81a17.45,17.45,0,0,1,13.67,1l20.92,11.1a18.67,18.67,0,0,0,24.75-6.93c2.91-4.86,5.39-10.41,5.88-15.73l-40.94-16.58,3-5s-20-1.69-25.22,12.63c0,0-38.07,15.84-102.27-54.78C319.07,374.26,289.93,399,279.1,416.77Z"/><path class="cls-16" d="M275.47,416.52a1.4,1.4,0,0,1-.83-.25c-28.46-19.22-41.85-50.27-42-50.58a1.49,1.49,0,1,1,2.72-1.22s0,0,0,0c.13.31,13.2,30.56,40.91,49.29a1.48,1.48,0,0,1-.84,2.71Z"/><path class="cls-16" d="M317.74,373.68a1.54,1.54,0,0,1-1.26-.68c-.08-.14-8.76-13.64-25.28-43.23-5-9-11.63-14.71-19.62-16.94-13.25-3.71-26,3.41-26.16,3.47a1.48,1.48,0,0,1-2-.55,1.5,1.5,0,0,1,.55-2c.57-.32,12.81-7.68,27.28-3.65a37.54,37.54,0,0,1,22.63,18.23c16.46,29.47,25.09,42.91,25.18,43a1.49,1.49,0,0,1-.47,2.06,1.42,1.42,0,0,1-.78.23Z"/><path class="cls-23" d="M321,214.68s12.64,29,13.49,44.28,4.13,25.12-13.49,28.19-32.46-5.71-40.5-20.89c0,0-12.6-23.39-9.78-33S321,214.68,321,214.68Z"/><path class="cls-24" d="M286.55,255.31l1-.44a2.44,2.44,0,0,0,1.24-3.21l-.06-.12c-2.48-4.8-7.33-15.8-1.07-18.37,8.07-3.3,40-9.82,46.9-21.15,6.63-10.9.76-25-8.06-29a1.21,1.21,0,0,0-1.59.52l-.74,1.39a1.2,1.2,0,0,1-1.62.49,1.23,1.23,0,0,1-.59-.72h0a1.17,1.17,0,0,0-1.47-.81,1.2,1.2,0,0,0-.68.51c-2.12,3.39-7.84,8.88-23.14,11.71-21.73,4-36.11,12.81-36.46,27.83a1.2,1.2,0,0,1-1.23,1.18,1.18,1.18,0,0,1-.63-.18c-1.6-1-4.17-1.45-7.6,1.44-6,5-3.53,18,9.56,28.75a1.2,1.2,0,0,1,.21,1.68,1.22,1.22,0,0,1-.27.24c-2.37,1.54-5.91,5.21,3.26,10.11,9.48,5.07,16.55,4.65,19.28,4.21a1.2,1.2,0,0,0,1-1.36s0-.05,0-.08l-2.94-13.17a1.2,1.2,0,0,1,.9-1.43.82.82,0,0,1,.27,0Z"/><path class="cls-25" d="M287.1,258.08s-4.83-18.54-13.14-13.34,4.31,20.78,11,21.48Z"/><path class="cls-26" d="M432.93,449.62s17.12,16.75,20.43,14.31a60,60,0,0,0,7-7.52,7.37,7.37,0,0,0,.5-8.67l-4-6.23a11.66,11.66,0,0,0-16.14-3.5,12,12,0,0,0-1.29,1A21.11,21.11,0,0,0,432.93,449.62Z"/><path class="cls-15" d="M704.78,558.31s-2.1-62.33-45.86-140a124.69,124.69,0,0,1-14.28-80.18l4.79-31s60.06-20.32,126.63-.85c0,0,92.3,57.18,30.61,252a121.79,121.79,0,0,1-101.89,0Z"/><path class="cls-27" d="M659.65,267.58,675.22,305a7.48,7.48,0,0,0,5.64,4.48c9,1.54,30.69,3.94,45-5.44a3.61,3.61,0,0,0,1.06-5l-.06-.09L698,257.68Z"/><path class="cls-3" d="M698.06,443.41a3.45,3.45,0,0,0-2.46,4.23,4,4,0,0,0,.28.72l45,86.38a3.48,3.48,0,0,0,4,1.73L892.3,493.92a3.45,3.45,0,0,0,2.36-4.27v0l-25.38-87.88a3.45,3.45,0,0,0-4.2-2.39Z"/><path class="cls-3" d="M707.57,433.26a3.61,3.61,0,0,0-2.68,4.35,3.31,3.31,0,0,0,.12.42l36.06,98a3.64,3.64,0,0,0,4.4,2.22L892.4,495.83a3.62,3.62,0,0,0,2.53-4.24l-20.36-94.32a3.63,3.63,0,0,0-4.32-2.77h-.06Z"/><path class="cls-28" d="M720.36,423.38a4.46,4.46,0,0,0-3.74,5.09c0,.11,0,.22.06.34l24.49,105.75a4.48,4.48,0,0,0,5.38,3.34l.22,0,144.7-41.78a4.48,4.48,0,0,0,3.09-5.41l-22.25-86.33a4.48,4.48,0,0,0-5-3.3Z"/><path class="cls-15" d="M837.49,463.68c11.24-84.81-54.14-150-54.14-150L744.45,359c29.53,36.81,43.57,70.53,50,97C802.94,453.54,823.41,449.68,837.49,463.68Z"/><path class="cls-29" d="M794.43,457a1,1,0,0,1-1-.76c-8-32.86-24.71-65.38-49.8-96.64a1,1,0,0,1,.2-1.41,1,1,0,0,1,1.36.16c25.26,31.5,42.15,64.27,50.17,97.41a1,1,0,0,1-.74,1.21.76.76,0,0,1-.26,0Z"/><path class="cls-30" d="M794.43,456c6,24.62,5.34,43,4.43,51.76a6.82,6.82,0,0,1-6.32,6.12c-3.76.27-8.89.61-13.47.88-5,.29-10.63-2.9-14.37-5.56a2.25,2.25,0,0,0-3.14.53,2.27,2.27,0,0,0-.17,2.32c2.79,5.45,9.87,10.31,14.75,13.17a2.32,2.32,0,0,1,.87,3.16,2.39,2.39,0,0,1-1.4,1.09l-20.87,5.92c34.29,32.31,56.93-3.85,56.93-3.85,15.14-23.39,23-46.26,25.82-67.87C823.41,449.68,802.94,453.54,794.43,456Z"/><path class="cls-31" d="M675.76,210.35c-.66.62-27.6,53.54-27.6,53.54l30.54,14.79,33-46.36S686.71,200.05,675.76,210.35Z"/><path class="cls-32" d="M697.85,237.84l-15.23,25.39a5.31,5.31,0,0,1-.84,1c-1.81,1.69-8,6.59-12.81-.1-4.09-5.7-7.93-10.87-12-13a4.87,4.87,0,0,0-6.55,2.13l0,0A182.32,182.32,0,0,0,640,278a4.84,4.84,0,0,0,2.82,6c6.18,2.51,18.41,7,29.25,8.53a4.87,4.87,0,0,0,4.61-2c4.67-6.4,17.82-24.26,22.31-28.73,4.17-4.15,11.87-2.59,15.33-1.59a4.93,4.93,0,0,0,3.9-.51c3.51-2.12,9.66-7.4,4-16.33a4.85,4.85,0,0,1,1.51-6.62c3.92-2.59,8.19-7.44,4.13-15.3s-11.46-8.66-16.46-8.05a5.08,5.08,0,0,1-5.31-2.95,3.2,3.2,0,0,0-2.51-2,4.74,4.74,0,0,1-3.84-5.5v-.06c.88-4.5.22-10.34-7-14.29-13.17-7.25-24.72,4.56-27.65,14.52s11.8,17,21.06,18.19c6.81.86,10.55,8.29,12.05,12.18A4.9,4.9,0,0,1,697.85,237.84Z"/><path class="cls-33" d="M693.17,271.18S699,254,706.53,254.66s13.4,8.1,4.11,16.51C699.07,281.62,693.17,271.18,693.17,271.18Z"/><path class="cls-34" d="M838.09,103.39H674.55a6.35,6.35,0,0,1-6.33-6.33h0a6.33,6.33,0,0,1,6.33-6.33H838.09a6.32,6.32,0,0,1,6.33,6.33h0A6.34,6.34,0,0,1,838.09,103.39Z"/><path class="cls-35" d="M857.74,128.18H694.2a6.35,6.35,0,0,1-6.33-6.33h0a6.33,6.33,0,0,1,6.33-6.33H857.74a6.32,6.32,0,0,1,6.33,6.33h0A6.34,6.34,0,0,1,857.74,128.18Z"/><path class="cls-35" d="M811.23,177.75h-117a6.34,6.34,0,0,1-6.33-6.33h0a6.33,6.33,0,0,1,6.33-6.32h117a6.31,6.31,0,0,1,6.33,6.31h0a6.32,6.32,0,0,1-6.31,6.33Z"/><path class="cls-34" d="M876.08,153H712.54a6.34,6.34,0,0,1-6.33-6.32h0a6.33,6.33,0,0,1,6.33-6.33H876.08a6.32,6.32,0,0,1,6.33,6.33h0A6.33,6.33,0,0,1,876.08,153Z"/><path class="cls-34" d="M205,438.68H41.49a6.34,6.34,0,0,1-6.33-6.33h0A6.33,6.33,0,0,1,41.47,426H205a6.32,6.32,0,0,1,6.32,6.32v0h0A6.34,6.34,0,0,1,205,438.68Z"/><path class="cls-35" d="M224.67,463.44H61.14a6.34,6.34,0,0,1-6.29-6.33h0a6.33,6.33,0,0,1,6.31-6.34H224.67a6.32,6.32,0,0,1,6.33,6.31v0h0a6.33,6.33,0,0,1-6.33,6.33Z"/><path class="cls-35" d="M178.17,513h-117a6.32,6.32,0,0,1-6.32-6.32h0a6.31,6.31,0,0,1,6.32-6.32h117a6.31,6.31,0,0,1,6.33,6.31h0A6.32,6.32,0,0,1,178.2,513Z"/><path class="cls-34" d="M243,488.22H79.48a6.33,6.33,0,0,1-6.33-6.31v0h0a6.33,6.33,0,0,1,6.31-6.33H243a6.32,6.32,0,0,1,6.33,6.31v0h0a6.32,6.32,0,0,1-6.32,6.33Z"/><path class="cls-11" d="M189.28,323.81l-2.44,1h0a.82.82,0,0,1-1.05-.46h0a.82.82,0,0,1,.46-1h0l2.5-1a.81.81,0,0,1,.58,1.51Z"/><path class="cls-11" d="M179.74,328.14l-2.28,1.29h0a.83.83,0,0,1-1.12-.31h0a.83.83,0,0,1,.31-1.12h0l2.33-1.31a.82.82,0,1,1,.81,1.42Z"/><path class="cls-11" d="M170.85,333.75l-2,1.58h0a.84.84,0,0,1-1.16-.16.83.83,0,0,1,.15-1.16h0L170,332.4a.83.83,0,0,1,1.17.16.84.84,0,0,1-.17,1.17h0Z"/><path class="cls-11" d="M162.85,340.46,161,342.29h0a.84.84,0,1,1-1.17-1.21h0l1.93-1.86a.83.83,0,0,1,1.18,0,.84.84,0,0,1,0,1.19Z"/><path class="cls-11" d="M155.62,348.08l-1.66,2h0a.85.85,0,0,1-1.32-1.08h0l1.7-2.07a.85.85,0,0,1,1.31,1.08Z"/><path class="cls-11" d="M149.29,356.47l-1.44,2.21h0a.88.88,0,0,1-1.2.25.86.86,0,0,1-.25-1.19h0l1.47-2.23a.85.85,0,0,1,1.19-.24.83.83,0,0,1,.25,1.17v0Z"/><path class="cls-11" d="M143.85,365.46l-1.21,2.33h0a.87.87,0,0,1-1.55-.8h0l1.24-2.36a.87.87,0,1,1,1.54.81h0Z"/><path class="cls-11" d="M139.35,375l-1,2.44h0a.87.87,0,0,1-1.12.5h0a.89.89,0,0,1-.49-1.15h0l1-2.48a.86.86,0,0,1,1.11-.5l0,0a.87.87,0,0,1,.49,1.14h0Z"/><path class="cls-11" d="M135.79,384.83l-.75,2.53h0a.9.9,0,0,1-1.76-.37.57.57,0,0,1,0-.14h0l.76-2.56a.88.88,0,0,1,1.11-.6.89.89,0,0,1,.6,1.11Z"/><path class="cls-11" d="M133.19,395l-.5,2.58h0a.91.91,0,0,1-1.81-.18l0-.16h0l.51-2.62a.91.91,0,0,1,1.06-.72.89.89,0,0,1,.71,1.06h0Z"/><path class="cls-11" d="M131.6,405.39l-.24,2.62h0a.91.91,0,0,1-1,.78.92.92,0,0,1-.79-.93h0l.25-2.66a.9.9,0,0,1,1-.83h0a.91.91,0,0,1,.83,1Z"/><path class="cls-11" d="M131.06,415.89v2.62h0a1,1,0,0,1-1.91.06v0h0v-2.67a.93.93,0,1,1,1.86,0Z"/><path class="cls-11" d="M131.59,426.38l.3,2.61h0a.94.94,0,0,1-.83,1,1,1,0,0,1-1-.83h0l-.29-2.66a.94.94,0,0,1,.92-1,.93.93,0,0,1,.94.75Z"/><path class="cls-11" d="M133.14,436.77l.54,2.57h0a1,1,0,0,1-1.1.88,1,1,0,0,1-.76-.49h0l-.55-2.62A1,1,0,0,1,132,436a.94.94,0,0,1,1.12.72v.06Z"/><path class="cls-11" d="M135.66,447l.78,2.51h0a1,1,0,0,1-.59,1.2,1,1,0,0,1-1.2-.64h0l-.79-2.55a1,1,0,1,1,1.68-1.09,1,1,0,0,1,.16.53Z"/><path class="cls-11" d="M139.1,456.89l1,2.44h0a1,1,0,1,1-1.8.73h0l-1-2.47a1,1,0,0,1,1.62-1.18.93.93,0,0,1,.18.45Z"/><path class="cls-11" d="M143.41,466.48l1.21,2.33h0a1,1,0,0,1-1.75.91h0l-1.22-2.37a1,1,0,0,1,1.74-.91Z"/><path class="cls-11" d="M148.55,475.68l1.4,2.21h0a1,1,0,0,1-1.68,1.07h0l-1.42-2.27a1,1,0,0,1,.1-1.42,1,1,0,0,1,1.41.11.72.72,0,0,1,.16.25Z"/><path class="cls-11" d="M154.46,484.33l1.59,2.1h0a1,1,0,0,1-1.6,1.21h0l-1.6-2.1a1,1,0,0,1,.19-1.41,1,1,0,0,1,1.4.19Z"/><path class="cls-11" d="M161.1,492.48l1.77,1.94h0a1,1,0,0,1-.05,1.41l0,0a1,1,0,0,1-1.41,0l0,0h0l-1.79-2a1,1,0,0,1,.07-1.44,1,1,0,0,1,1.43.07Z"/><path class="cls-11" d="M168.44,500l1.94,1.78h0a1,1,0,0,1-1.38,1.52h0l-2-1.81a1,1,0,0,1-.06-1.45,1,1,0,0,1,1.44-.06Z"/><path class="cls-11" d="M176.43,506.8l2.09,1.59h0a1,1,0,0,1,.21,1.45,1,1,0,0,1-1.46.21h0l-2.13-1.62a1,1,0,0,1,1.25-1.66Z"/><path class="cls-11" d="M185,512.82l2.24,1.37h0a1,1,0,0,1,.4,1.35.41.41,0,0,1,0,.09,1.06,1.06,0,0,1-1.44.35h0l-2.28-1.41a1.05,1.05,0,0,1-.34-1.44,1,1,0,0,1,1.43-.34Z"/><path class="cls-11" d="M194.17,518l2.36,1.14h0a1,1,0,0,1,.49,1.41,1.06,1.06,0,0,1-1.41.5h0l-2.4-1.17a1.06,1.06,0,0,1-.49-1.42,1,1,0,0,1,1.41-.49Z"/><path class="cls-11" d="M203.78,522.17l2.46.9h0a1.07,1.07,0,1,1-.74,2h0l-2.51-.94a1.07,1.07,0,0,1-.63-1.37,1.09,1.09,0,0,1,1.38-.63Z"/><path class="cls-11" d="M213.75,525.45l2.53.68h0a1.09,1.09,0,0,1,.76,1.33,1.06,1.06,0,0,1-1.3.76h0l-2.59-.69a1.09,1.09,0,0,1-.66-1.38,1.07,1.07,0,0,1,1.22-.7Z"/><path class="cls-11" d="M224,527.8l2.58.44h0a1.09,1.09,0,0,1-.37,2.15h0l-2.64-.45a1.09,1.09,0,0,1,.37-2.15Z"/><path class="cls-11" d="M234.38,529.21l2.61.21h0a1.09,1.09,0,0,1,1,1.19,1.11,1.11,0,0,1-1.19,1h0l-2.66-.22a1.1,1.1,0,1,1,.19-2.19Z"/><path class="cls-11" d="M244.85,529.68h2.63a1.12,1.12,0,1,1,.21,2.23h-2.84a1.11,1.11,0,0,1-1.1-1.12,1.1,1.1,0,0,1,1.1-1.1Z"/><path class="cls-11" d="M255.36,529.3l2.61-.24h0a1.12,1.12,0,0,1,1.19,1.05,1.14,1.14,0,0,1-1,1.18h0l-2.66.23a1.12,1.12,0,1,1-.23-2.22h.08Z"/><path class="cls-11" d="M265.78,528l2.59-.45h0a1.13,1.13,0,0,1,1.24,1,1.12,1.12,0,0,1-.85,1.2h0l-2.63.46a1.12,1.12,0,0,1-.39-2.21Z"/><path class="cls-11" d="M276.07,525.91l2.54-.66h0A1.12,1.12,0,0,1,280,526v0a1.13,1.13,0,0,1-.81,1.37h0l-2.59.67a1.13,1.13,0,0,1-.56-2.18Z"/><path class="cls-11" d="M286.16,523l2.48-.86h0a1.13,1.13,0,0,1,1.44.69,1.14,1.14,0,0,1-.7,1.44h0l-2.53.87a1.14,1.14,0,0,1-1.43-.69h0a1.13,1.13,0,0,1,.7-1.44Z"/><path class="cls-11" d="M296,519.24l2.41-1.06h0a1.12,1.12,0,0,1,1.49.58,1.14,1.14,0,0,1-.58,1.49h0l-2.44,1.07a1.13,1.13,0,0,1-.91-2.07Z"/><path class="cls-11" d="M305.47,514.74l2.33-1.24h0a1.13,1.13,0,0,1,1.58.3,1.14,1.14,0,0,1-.3,1.59l-.21.11h0l-2.36,1.25a1.14,1.14,0,0,1-1.47-.66,1.13,1.13,0,0,1,.41-1.34Z"/><path class="cls-11" d="M314.64,509.57l2.21-1.39h0a1.13,1.13,0,0,1,1.19,1.93h0l-2.19,1.4a1.14,1.14,0,0,1-1.35-1.84l.15-.09Z"/><path class="cls-11" d="M323.45,503.81l2.15-1.52h0a1.14,1.14,0,1,1,1.32,1.85h0l-2.17,1.54a1.14,1.14,0,0,1-1.43-1.78l.12-.08Z"/><path class="cls-11" d="M331.91,497.55l2.06-1.64h0a1.14,1.14,0,1,1,1.51,1.7l-.09.08h0l-2.08,1.66a1.14,1.14,0,0,1-1.42-1.79Z"/><path class="cls-11" d="M340,490.83l2-1.74h0a1.14,1.14,0,0,1,1.61.09h0a1.14,1.14,0,0,1-.1,1.62h0l-2,1.75a1.14,1.14,0,0,1-1.51-1.72Z"/><path class="cls-11" d="M347.85,483.75l1.9-1.82h0a1.15,1.15,0,0,1,1.72,1.52.86.86,0,0,1-.14.13h0l-1.92,1.84a1.14,1.14,0,0,1-1.61,0,1.15,1.15,0,0,1,0-1.62h0Z"/><path class="cls-11" d="M355.39,476.36l1.84-1.89h0a1.15,1.15,0,0,1,1.71,1.54l-.07.06h0L357,478a1.15,1.15,0,0,1-1.65-1.61h0Z"/><path class="cls-11" d="M362.68,468.68l1.79-1.94h0a1.15,1.15,0,0,1,1.63-.08h0a1.14,1.14,0,0,1,.08,1.61h0l-1.8,2a1.17,1.17,0,0,1-1.63.06,1.15,1.15,0,0,1-.06-1.62Z"/><path class="cls-11" d="M369.76,460.87l1.75-2h0a1.15,1.15,0,1,1,1.73,1.52h0l-1.75,2a1.15,1.15,0,1,1-1.73-1.53h0Z"/><path class="cls-11" d="M376.68,452.87l1.71-2h0a1.16,1.16,0,0,1,1.77,1.49h0l-1.72,2a1.16,1.16,0,0,1-1.76-1.5Z"/><path class="cls-11" d="M383.47,444.75l1.68-2a1.16,1.16,0,1,1,1.8,1.47h0l-1.68,2a1.16,1.16,0,0,1-1.79-1.48h0Z"/><path class="cls-11" d="M390.18,436.56l1.66-2.06a1.16,1.16,0,1,1,1.81,1.46h0L392,438a1.18,1.18,0,0,1-1.64.17A1.17,1.17,0,0,1,390.18,436.56Z"/><path class="cls-11" d="M396.85,428.32l1.66-2.07a1.16,1.16,0,0,1,1.63-.18h0a1.13,1.13,0,0,1,.18,1.61v0h0l-1.66,2.06a1.16,1.16,0,0,1-1.81-1.45Z"/><path class="cls-11" d="M403.48,420.06l1.66-2.06a1.17,1.17,0,1,1,1.93,1.32,1.34,1.34,0,0,1-.11.14h0l-1.67,2.06a1.16,1.16,0,0,1-1.81-1.46Z"/><path class="cls-11" d="M410.16,411.82l1.68-2a1.17,1.17,0,0,1,1.94,1.31,2.09,2.09,0,0,1-.14.17h0l-1.68,2A1.17,1.17,0,0,1,410,412,1,1,0,0,1,410.16,411.82Z"/><path class="cls-11" d="M416.9,403.68l1.71-2a1.17,1.17,0,0,1,1.89,1.38l-.1.12h0l-1.7,2a1.17,1.17,0,0,1-1.8-1.49Z"/><path class="cls-11" d="M423.76,395.52l1.74-2a1.18,1.18,0,0,1,1.66-.11,1.16,1.16,0,0,1,.11,1.65h0l-1.73,2h0a1.17,1.17,0,0,1-1.8-1.49l0,0Z"/><path class="cls-11" d="M430.77,387.55l1.77-2a1.18,1.18,0,0,1,1.75,1.58h0l-1.77,2h0a1.17,1.17,0,0,1-1.65.08h0a1.17,1.17,0,0,1-.11-1.64Z"/><path class="cls-11" d="M438,379.68l1.83-1.93a1.17,1.17,0,0,1,1.66,0h0a1.17,1.17,0,0,1,0,1.66h0l-1.82,1.91h0a1.17,1.17,0,0,1-1.66,0,1.16,1.16,0,0,1,0-1.65Z"/><path class="cls-11" d="M445.37,372.1l1.9-1.87a1.18,1.18,0,0,1,1.67-.1,1.17,1.17,0,0,1,.09,1.66l-.11.12h0L447,373.75h0a1.17,1.17,0,0,1-1.67,0h0a1.14,1.14,0,0,1-.06-1.63A0,0,0,0,1,445.37,372.1Z"/><path class="cls-11" d="M453.05,364.73l2-1.8a1.18,1.18,0,0,1,1.67.21,1.21,1.21,0,0,1-.07,1.54h0l-1.95,1.78h0a1.18,1.18,0,0,1-1.68-1.67l.09-.07Z"/><path class="cls-11" d="M461,357.68l2-1.71a1.18,1.18,0,1,1,1.52,1.8h0l-2,1.7h0a1.18,1.18,0,0,1-1.52-1.81h0Z"/><path class="cls-11" d="M469.31,351l2.13-1.6a1.19,1.19,0,1,1,1.6,1.75l-.17.14h0l-2.11,1.59h0a1.19,1.19,0,0,1-1.65-.31,1.17,1.17,0,0,1,.22-1.59Z"/><path class="cls-11" d="M478,344.73l2.21-1.48a1.2,1.2,0,1,1,1.33,2h0l-2.21,1.43h0a1.21,1.21,0,0,1-1.65-.33A1.18,1.18,0,0,1,478,344.73Z"/><path class="cls-11" d="M486.94,339l2.3-1.35a1.18,1.18,0,0,1,1.53.7,1.2,1.2,0,0,1-.32,1.3h0L488.19,341h0a1.19,1.19,0,0,1-1.21-2.06h0Z"/><path class="cls-11" d="M496.23,333.75l2.37-1.22a1.19,1.19,0,0,1,1.1,2.12h0l-2.34,1.21h0a1.2,1.2,0,0,1-1.59-.6,1.19,1.19,0,0,1,.49-1.53Z"/><path class="cls-11" d="M505.85,329.05l2.44-1.1a1.21,1.21,0,0,1,1.61.54,1.2,1.2,0,0,1-.53,1.61l-.08,0h0l-2.4,1.09h0a1.21,1.21,0,0,1-1.61-.54,1.2,1.2,0,0,1,.53-1.61l.08,0Z"/><path class="cls-11" d="M515.62,324.88l2.49-1a1.2,1.2,0,0,1,.86,2.24h0l-2.46,1h0a1.2,1.2,0,0,1-.91-2.23h0Z"/><path class="cls-11" d="M525.65,321.26l2.53-.82a1.21,1.21,0,0,1,1.52.77,1.22,1.22,0,0,1-.78,1.52h0l-2.51.79h0a1.2,1.2,0,1,1-.74-2.28h0Z"/><path class="cls-11" d="M535.85,318.19l2.58-.68a1.2,1.2,0,1,1,.61,2.33h0l-2.54.68h0a1.22,1.22,0,0,1-1.47-.86,1.2,1.2,0,0,1,.86-1.47Z"/><path class="cls-11" d="M546.22,315.68l2.61-.54a1.2,1.2,0,0,1,1.51.8,1.21,1.21,0,0,1-.81,1.51l-.21.05h0l-2.58.53h0a1.21,1.21,0,0,1-.7-2.32.78.78,0,0,1,.21,0Z"/><path class="cls-11" d="M556.7,313.73l2.64-.41a1.21,1.21,0,0,1,.36,2.4h0l-2.6.39h0a1.21,1.21,0,0,1-1.32-1.09,1.2,1.2,0,0,1,1-1.3Z"/><path class="cls-11" d="M567.27,312.33l2.65-.26a1.23,1.23,0,0,1,1.33,1.1,1.19,1.19,0,0,1-1.09,1.31h0l-2.62.26h0a1.21,1.21,0,0,1-1.32-1.09,1.2,1.2,0,0,1,1.08-1.32Z"/><path class="cls-11" d="M577.9,311.52l2.66-.12a1.22,1.22,0,0,1,.11,2.43h0l-2.63.11h0a1.21,1.21,0,0,1-.11-2.42h0Z"/><path class="cls-11" d="M588.56,311.26h2.67a1.22,1.22,0,0,1,1.11,1.32,1.24,1.24,0,0,1-1.11,1.11H588.6a1.23,1.23,0,0,1-1.21-1.23h0A1.23,1.23,0,0,1,588.56,311.26Z"/><path class="cls-11" d="M599.22,311.58l2.66.17a1.22,1.22,0,1,1,0,2.44h-.15l-2.63-.16h0a1.22,1.22,0,0,1-1.21-1.23,1.21,1.21,0,0,1,1.22-1.21h.12Z"/><path class="cls-11" d="M609.85,312.47l2.65.3a1.23,1.23,0,0,1,1.07,1.36,1.21,1.21,0,0,1-1.36,1.07h0l-2.62-.31h0a1.21,1.21,0,0,1-1.07-1.35h0A1.2,1.2,0,0,1,609.85,312.47Z"/><path class="cls-11" d="M620.4,313.93l2.63.45a1.22,1.22,0,0,1,1,1.41,1.23,1.23,0,0,1-1.42,1h0l-2.6-.46h0a1.22,1.22,0,1,1,.41-2.4Z"/><path class="cls-11" d="M630.85,316l2.6.59a1.23,1.23,0,0,1,.81,1.54,1.26,1.26,0,0,1-1.36.85h0l-2.56-.59h0a1.24,1.24,0,0,1-.92-1.47A1.21,1.21,0,0,1,630.85,316Z"/><path class="cls-11" d="M641.21,318.55l2.57.74a1.23,1.23,0,0,1-.68,2.35h0l-2.53-.72h0a1.23,1.23,0,0,1,.68-2.36Z"/><path class="cls-11" d="M651.4,321.68l2.52.88a1.24,1.24,0,0,1,.62,1.64,1.27,1.27,0,0,1-1.44.69h0l-2.49-.87h0a1.24,1.24,0,0,1-.76-1.57,1.23,1.23,0,0,1,1.57-.76Z"/><path class="cls-11" d="M661.39,325.44l2.47,1a1.24,1.24,0,0,1,.64,1.64,1.26,1.26,0,0,1-1.64.64h0l-2.43-1h0a1.23,1.23,0,1,1,.94-2.28h0Z"/><path class="cls-11" d="M671.16,329.68l2.41,1.15a1.24,1.24,0,0,1,.51,1.67,1.26,1.26,0,0,1-1.59.56h0l-2.37-1.14h0a1.24,1.24,0,0,1-.57-1.65,1.22,1.22,0,0,1,1.64-.57h0Z"/><path class="cls-11" d="M680.68,334.54l2.33,1.28a1.24,1.24,0,0,1-1.2,2.17h0l-2.3-1.27h0a1.24,1.24,0,1,1,1.17-2.18h0Z"/><path class="cls-11" d="M689.9,339.89l2.26,1.42a1.24,1.24,0,1,1-1.33,2.1h0L688.6,342h0a1.24,1.24,0,0,1,1.32-2.1Z"/><path class="cls-11" d="M698.85,345.77l2.17,1.54a1.24,1.24,0,1,1-1.43,2h0l-2.16-1.53h0a1.25,1.25,0,0,1-.29-1.74A1.23,1.23,0,0,1,698.85,345.77Z"/><path class="cls-11" d="M707.4,352l2.12,1.6a1.25,1.25,0,1,1-1.51,2h0l-2.1-1.59h0a1.26,1.26,0,0,1-.23-1.75,1.22,1.22,0,0,1,1.72-.26Z"/><path class="cls-11" d="M715.85,358.52l2.08,1.63a1.26,1.26,0,1,1-1.54,2h0l-2.08-1.63a1.27,1.27,0,0,1-.23-1.77A1.25,1.25,0,0,1,715.85,358.52Z"/><path class="cls-11" d="M724.15,365.06l2.09,1.64a1.26,1.26,0,1,1-1.54,2h0l-2.09-1.64a1.25,1.25,0,0,1-.23-1.74h0A1.25,1.25,0,0,1,724.15,365.06Z"/><path class="cls-11" d="M732.52,371.54l2.1,1.59h0a1.25,1.25,0,1,1-1.51,2h0L731,373.54a1.27,1.27,0,0,1-.24-1.77,1.25,1.25,0,0,1,1.74-.25v0Z"/><path class="cls-11" d="M741,377.81l2.16,1.52h0a1.26,1.26,0,0,1-1.45,2.05h0l-2.17-1.53a1.25,1.25,0,0,1,1.1-2.25,1,1,0,0,1,.34.25Z"/><path class="cls-11" d="M749.74,383.68l2.23,1.4h0a1.26,1.26,0,0,1,.55,1.69,1.27,1.27,0,0,1-1.7.55l-.18-.11h0l-2.27-1.41a1.27,1.27,0,0,1-.39-1.74,1.25,1.25,0,0,1,1.72-.41h0Z"/><path class="cls-11" d="M758.79,389.05l2.32,1.21h0a1.26,1.26,0,1,1-1.17,2.24h0l-2.37-1.25a1.26,1.26,0,0,1,1.17-2.23Z"/><path class="cls-11" d="M768.22,393.58l2.43,1h0a1.29,1.29,0,0,1,.68,1.68,1.28,1.28,0,0,1-1.68.67h0l-2.49-1a1.27,1.27,0,0,1,1-2.34Z"/><path class="cls-11" d="M778.07,397.06l2.52.67h0a1.27,1.27,0,1,1-.49,2.49l-.16,0h0l-2.61-.69a1.27,1.27,0,0,1-.82-1.6A1.25,1.25,0,0,1,778,397Z"/><path class="cls-11" d="M788.25,399.2l2.59.3h0a1.27,1.27,0,0,1-.29,2.52h0l-2.67-.31a1.27,1.27,0,0,1,.16-2.54l.13,0Z"/><path class="cls-11" d="M798.62,399.76l2.59-.12h0a1.27,1.27,0,0,1,1.34,1.2,1.29,1.29,0,0,1-1.21,1.34h0l-2.7.14a1.27,1.27,0,1,1-.12-2.54Z"/><path class="cls-11" d="M808.93,398.61l2.54-.55h0a1.27,1.27,0,1,1,.54,2.49h0l-2.64.57a1.28,1.28,0,0,1-1.51-1,1.26,1.26,0,0,1,1-1.51Z"/><path class="cls-11" d="M819,395.83l2.43-.93h0a1.27,1.27,0,0,1,1.65.71v0a1.28,1.28,0,0,1-.74,1.65h0l-2.52,1a1.29,1.29,0,0,1-1.62-.82,1.28,1.28,0,0,1,.71-1.57Z"/><path class="cls-11" d="M828.47,391.61l2.28-1.25h0a1.28,1.28,0,0,1,1.71.6,1.3,1.3,0,0,1-.48,1.64h0l-2.36,1.28a1.28,1.28,0,0,1-1.36-2.16l.13-.08Z"/><path class="cls-11" d="M837.35,386.16l2.12-1.54h0a1.29,1.29,0,0,1,1.79.29,1.27,1.27,0,0,1-.29,1.79h0l-2.12,1.56a1.3,1.3,0,0,1-1.77-.45,1.29,1.29,0,0,1,.26-1.63Z"/><path class="cls-11" d="M845.52,379.68l1.92-1.77h0a1.28,1.28,0,1,1,1.74,1.89h0l-2,1.82a1.28,1.28,0,0,1-1.73-1.89Z"/><path class="cls-11" d="M852.9,372.26l1.72-2h0a1.29,1.29,0,1,1,2.07,1.54l-.13.15h0l-1.76,2a1.29,1.29,0,0,1-2.11-1.48,1,1,0,0,1,.16-.2Z"/><path class="cls-11" d="M859.45,364.1,861,362h0a1.29,1.29,0,0,1,2.18,1.39l-.07.09h0l-1.54,2.19a1.29,1.29,0,0,1-2.23-1.29l.12-.17Z"/><path class="cls-11" d="M865.1,355.3l1.27-2.29h0a1.29,1.29,0,0,1,2.26,1.26h0l-1.3,2.34a1.29,1.29,0,1,1-2.33-1.1.71.71,0,0,1,.08-.15Z"/><path class="cls-11" d="M869.85,346l1-2.4h0a1.29,1.29,0,1,1,2.38,1h0l-1,2.46a1.29,1.29,0,1,1-2.38-1Z"/><path class="cls-11" d="M873.51,336.18l.76-2.5h0a1.3,1.3,0,1,1,2.54.54.83.83,0,0,1-.06.21h0L876,337a1.3,1.3,0,0,1-2.48-.75Z"/><path class="cls-11" d="M876.16,326.06l.52-2.57h0a1.3,1.3,0,0,1,2.55.51h0l-.53,2.63a1.3,1.3,0,1,1-2.58-.3,1.55,1.55,0,0,1,0-.21Z"/><path class="cls-11" d="M877.85,315.68l.28-2.6h0a1.3,1.3,0,1,1,2.59.28h0l-.29,2.66a1.3,1.3,0,0,1-2.59-.28h0Z"/><path class="cls-11" d="M878.65,305.27l.06-2.62h0a1.31,1.31,0,0,1,2.61.06h0l-.06,2.67a1.31,1.31,0,0,1-2.61,0Z"/><path class="cls-11" d="M878.56,294.77l-.15-2.61h0A1.31,1.31,0,0,1,881,292h0l.15,2.67a1.3,1.3,0,0,1-2.6.17h0Z"/><path class="cls-11" d="M877.64,284.33l-.35-2.6h0a1.31,1.31,0,1,1,2.6-.35h0l.36,2.65a1.33,1.33,0,0,1-1.12,1.47,1.29,1.29,0,0,1-1.46-1.09v0Z"/><path class="cls-11" d="M875.93,274l-.54-2.58h0a1.31,1.31,0,1,1,2.54-.63.29.29,0,0,1,0,.09h0l.55,2.62a1.31,1.31,0,0,1-2.53.67l0-.14Z"/><path class="cls-11" d="M873.48,263.75l-.72-2.52h0a1.32,1.32,0,0,1,2.53-.73h0l.73,2.57a1.31,1.31,0,0,1-2.52.73h0Z"/><path class="cls-11" d="M870.33,253.73l-.9-2.47h0a1.32,1.32,0,0,1,.9-1.64,1.31,1.31,0,0,1,1.58.75h0l.91,2.51a1.32,1.32,0,0,1-2.48.89Z"/><path class="cls-11" d="M866.5,244l-1.06-2.41h0a1.32,1.32,0,0,1,2.41-1.06h0l1.08,2.45a1.31,1.31,0,0,1-.8,1.68,1.33,1.33,0,0,1-1.61-.62Z"/><path class="cls-11" d="M862,234.44l-1.17-2.33h0a1.32,1.32,0,1,1,2.31-1.29l0,.07h0l1.24,2.37a1.32,1.32,0,0,1-2.3,1.28.21.21,0,0,1,0-.06Z"/><path class="cls-11" d="M856.92,225.26,855.55,223h0a1.33,1.33,0,0,1,2.26-1.39h0l1.39,2.28a1.3,1.3,0,0,1-.42,1.8h0a1.33,1.33,0,0,1-1.82-.43h0Z"/><path class="cls-11" d="M851.21,216.45l-1.53-2.13h0a1.32,1.32,0,0,1,.3-1.84,1.31,1.31,0,0,1,1.83.28h0l1.57,2.17a1.32,1.32,0,0,1-2.13,1.57v0h0Z"/><path class="cls-11" d="M844.85,208.11l-1.69-2h0a1.3,1.3,0,1,1,2-1.67l1.72,2a1.3,1.3,0,0,1-2,1.67h0Z"/><path class="cls-11" d="M837.91,200.18l-1.79-1.94h0a1.3,1.3,0,0,1,.19-1.81,1.28,1.28,0,0,1,1.68.07l1.82,1.95a1.28,1.28,0,0,1-.06,1.81,1.3,1.3,0,0,1-1.82-.06h0Z"/><path class="cls-11" d="M830.63,192.55l-1.87-1.87h0a1.26,1.26,0,0,1,1.77-1.78l1.89,1.87a1.26,1.26,0,0,1-1.77,1.79h0Z"/><path class="cls-11" d="M823.07,185.18l-1.93-1.8h0a1.25,1.25,0,0,1,0-1.76,1.23,1.23,0,0,1,1.65-.05l1.95,1.81a1.24,1.24,0,0,1,.07,1.75,1.26,1.26,0,0,1-1.76.07h0Z"/><path class="cls-11" d="M815.29,178l-2-1.77h0a1.21,1.21,0,0,1,1.61-1.82h0l2,1.75a1.25,1.25,0,0,1,.11,1.74A1.23,1.23,0,0,1,815.29,178Z"/><path class="cls-11" d="M807.32,171.09l-2-1.72h0a1.19,1.19,0,0,1,1.53-1.82l2,1.71a1.2,1.2,0,1,1-1.39,2l-.14-.11h0Z"/><path class="cls-11" d="M799.22,164.3l-2-1.67h0a1.13,1.13,0,0,1,1.42-1.77l2.08,1.65a1.15,1.15,0,0,1-1.43,1.79h-.07Z"/><path class="cls-11" d="M791,157.68l-2.12-1.62h0a1.07,1.07,0,0,1,1.3-1.7l2.12,1.61a1.07,1.07,0,0,1,.11,1.53,1.09,1.09,0,0,1-1.43.2h0Z"/><path class="cls-11" d="M782.57,151.26l-2.12-1.58h0a1,1,0,0,1-.22-1.4h0a1,1,0,0,1,1.4-.24v0l2.14,1.57a1,1,0,1,1-1.2,1.66h0Z"/><path class="cls-11" d="M774,145l-2.19-1.53h0a1,1,0,0,1,.19-1.41,1,1,0,0,1,.9-.15l2.18,1.51a1,1,0,0,1,.6,1.28,1,1,0,0,1-1.28.6A1,1,0,0,1,774,145h0Z"/><path class="cls-11" d="M765.37,139l-2.19-1.48h0a.87.87,0,0,1-.23-1.2h0a.88.88,0,0,1,1.19-.25l2.23,1.46a.89.89,0,0,1,.25,1.25.91.91,0,0,1-1.25.25h0Z"/><path class="cls-11" d="M756.55,133.13l-2.24-1.45h0a.79.79,0,0,1-.15-1.1.76.76,0,0,1,1-.22l2.26,1.38a.8.8,0,0,1,.27,1.1.82.82,0,0,1-1.1.27Z"/><path class="cls-11" d="M747.54,127.59l-2.28-1.33h0a.71.71,0,0,1-.25-.94.68.68,0,0,1,.93-.25l2.32,1.3a.71.71,0,0,1,.16,1,.73.73,0,0,1-.85.24h0Z"/><path class="cls-11" d="M738.32,122.43l-2-1h0a.57.57,0,0,1-.29-.74.55.55,0,0,1,.73-.29l.06,0,2,1a.58.58,0,0,1,.34.76.6.6,0,0,1-.76.34l-.09,0h0Z"/><polygon class="cls-36" points="730.69 100 727.12 114.75 718.66 106 730.69 100"/><path class="cls-37" d="M666.39,75.52l31.4,44.57a3.86,3.86,0,0,0,5.37.91l.1-.07,43.59-33.25a1.54,1.54,0,0,0-.75-2.75Z"/><polygon class="cls-36" points="730.68 100 666.38 75.52 723.67 105.39 722.85 109.52 730.68 100"/><polygon class="cls-36" points="719.48 108.55 727.12 114.75 723.67 105.39 719.48 108.55"/></svg>