<svg id="Layer_1" data-name="Layer 1" xmlns="http://www.w3.org/2000/svg" xmlns:xlink="http://www.w3.org/1999/xlink" viewBox="0 0 872.4 829.97"><defs><style>.cls-1{fill:#f5f5f5;}.cls-2{fill:url(#linear-gradient);}.cls-3{fill:url(#linear-gradient-2);}.cls-4{fill:url(#linear-gradient-3);}.cls-5{fill:url(#linear-gradient-4);}.cls-6{fill:url(#linear-gradient-5);}.cls-7{fill:url(#linear-gradient-6);}.cls-8{fill:url(#linear-gradient-7);}.cls-9{fill:url(#linear-gradient-8);}.cls-10{fill:url(#linear-gradient-9);}.cls-11{fill:url(#linear-gradient-10);}.cls-12{fill:url(#linear-gradient-11);}.cls-13{fill:url(#linear-gradient-12);}.cls-14{fill:url(#linear-gradient-13);}.cls-15{fill:url(#linear-gradient-14);}.cls-16{fill:url(#linear-gradient-15);}.cls-17{fill:url(#linear-gradient-16);}.cls-18{fill:url(#linear-gradient-17);}.cls-19{fill:url(#linear-gradient-18);}.cls-20{fill:url(#linear-gradient-19);}.cls-21{fill:url(#linear-gradient-20);}.cls-22{fill:url(#linear-gradient-21);}.cls-23{fill:url(#linear-gradient-22);}.cls-24{fill:url(#linear-gradient-23);}.cls-25{fill:url(#linear-gradient-24);}.cls-26{fill:url(#linear-gradient-25);}.cls-27{fill:url(#linear-gradient-26);}.cls-28{fill:#fff;}.cls-29{fill:url(#linear-gradient-27);}.cls-30{fill:#fdfdfd;}.cls-31{fill:#e7e7e7;}.cls-32{fill:url(#linear-gradient-28);}.cls-33{fill:url(#linear-gradient-29);}.cls-34{fill:#cfb4a5;}.cls-35{fill:url(#linear-gradient-30);}.cls-36{fill:url(#linear-gradient-31);}.cls-37{fill:url(#linear-gradient-32);}.cls-38{fill:url(#linear-gradient-33);}.cls-39{fill:#4c5385;}.cls-40{fill:#706865;}.cls-41{fill:#b59074;}.cls-42{fill:#918783;}.cls-43{fill:#5e5854;}.cls-44{fill:#bfb2ac;}.cls-45{fill:#323657;}.cls-46{fill:#202338;}.cls-47{fill:#81807e;}.cls-48{fill:#51578c;}.cls-49{fill:#3e3b42;}.cls-50{fill:#e3a080;}.cls-51{fill:#3d0a8c;}.cls-52{fill:#220a51;}.cls-53{fill:#5d42bf;}.cls-54{fill:#eea886;}.cls-55{fill:#b57343;}.cls-56{fill:#a09ea6;}.cls-57{fill:#292c47;}.cls-58{fill:#cac7d1;}.cls-59{fill:#eae6f2;}.cls-60{fill:#754836;}.cls-61{fill:#a77860;}.cls-62{fill:#fff8f1;}.cls-63{fill:#6f5eea;}.cls-64{fill:#d5cae3;}.cls-65{fill:#454442;}.cls-66{fill:#a87860;}.cls-67{fill:#803f2a;}.cls-68{fill:#9cb839;}.cls-69{fill:#b4bc5c;}.cls-70{fill:#47665c;}.cls-71,.cls-72{fill:#f5d857;}.cls-71{stroke:#f5d857;stroke-miterlimit:10;stroke-width:2px;}</style><linearGradient id="linear-gradient" x1="609.9" y1="311.37" x2="609.9" y2="484.49" gradientTransform="translate(0 31.24)" gradientUnits="userSpaceOnUse"><stop offset="0" stop-color="#fcfcfc"/><stop offset="1" stop-color="#fff"/></linearGradient><linearGradient id="linear-gradient-2" x1="437.05" y1="-10756.12" x2="437.05" y2="-10583.11" gradientTransform="matrix(1, 0, 0, -1, 0, -10308.73)" gradientUnits="userSpaceOnUse"><stop offset="0" stop-color="#fcfcfc"/><stop offset="1" stop-color="#fcfcfc"/></linearGradient><linearGradient id="linear-gradient-3" x1="485.37" y1="-10756.12" x2="485.37" y2="-10583.11" xlink:href="#linear-gradient-2"/><linearGradient id="linear-gradient-4" x1="563.48" y1="-10756.12" x2="563.48" y2="-10583.11" xlink:href="#linear-gradient-2"/><linearGradient id="linear-gradient-5" x1="641.69" y1="-10756.12" x2="641.69" y2="-10583.11" xlink:href="#linear-gradient-2"/><linearGradient id="linear-gradient-6" x1="720.37" y1="-10756.12" x2="720.37" y2="-10583.11" xlink:href="#linear-gradient-2"/><linearGradient id="linear-gradient-7" x1="783.75" y1="-10756.12" x2="783.75" y2="-10583.11" xlink:href="#linear-gradient-2"/><linearGradient id="linear-gradient-8" x1="739.99" y1="-10756.12" x2="739.99" y2="-10583.11" xlink:href="#linear-gradient-2"/><linearGradient id="linear-gradient-9" x1="401.93" y1="-10756.12" x2="401.93" y2="-10583.11" xlink:href="#linear-gradient-2"/><linearGradient id="linear-gradient-10" x1="423.76" y1="344.41" x2="476.9" y2="958.85" gradientTransform="translate(0 31.24)" gradientUnits="userSpaceOnUse"><stop offset="0" stop-color="#eeeefa"/><stop offset="1" stop-color="#fff"/></linearGradient><linearGradient id="linear-gradient-11" x1="166.13" y1="27.45" x2="166.13" y2="791.99" gradientTransform="translate(0 31.24)" gradientUnits="userSpaceOnUse"><stop offset="0" stop-color="#dbdbe6"/><stop offset="1" stop-color="#fff"/></linearGradient><linearGradient id="linear-gradient-12" x1="41.6" y1="423.45" x2="41.6" y2="56.58" gradientTransform="translate(0 31.24)" gradientUnits="userSpaceOnUse"><stop offset="0" stop-color="#fcfcfc"/><stop offset="1" stop-color="#fdfdfd"/></linearGradient><linearGradient id="linear-gradient-13" x1="119.7" y1="423.45" x2="119.7" y2="56.58" xlink:href="#linear-gradient-12"/><linearGradient id="linear-gradient-14" x1="197.92" y1="423.45" x2="197.92" y2="56.58" xlink:href="#linear-gradient-12"/><linearGradient id="linear-gradient-15" x1="276.59" y1="423.45" x2="276.59" y2="56.58" xlink:href="#linear-gradient-12"/><linearGradient id="linear-gradient-16" x1="339.98" y1="423.45" x2="339.98" y2="56.58" xlink:href="#linear-gradient-12"/><linearGradient id="linear-gradient-17" x1="296.21" y1="423.45" x2="296.21" y2="56.58" xlink:href="#linear-gradient-12"/><linearGradient id="linear-gradient-18" x1="609.9" y1="27.45" x2="609.9" y2="791.99" xlink:href="#linear-gradient-11"/><linearGradient id="linear-gradient-19" x1="437.05" y1="423.45" x2="437.05" y2="56.58" xlink:href="#linear-gradient-12"/><linearGradient id="linear-gradient-20" x1="485.37" y1="423.45" x2="485.37" y2="56.58" xlink:href="#linear-gradient-12"/><linearGradient id="linear-gradient-21" x1="563.48" y1="423.45" x2="563.48" y2="56.58" xlink:href="#linear-gradient-12"/><linearGradient id="linear-gradient-22" x1="641.69" y1="423.45" x2="641.69" y2="56.58" xlink:href="#linear-gradient-12"/><linearGradient id="linear-gradient-23" x1="720.37" y1="423.45" x2="720.37" y2="56.58" xlink:href="#linear-gradient-12"/><linearGradient id="linear-gradient-24" x1="783.75" y1="423.45" x2="783.75" y2="56.58" xlink:href="#linear-gradient-12"/><linearGradient id="linear-gradient-25" x1="739.99" y1="423.45" x2="739.99" y2="56.58" xlink:href="#linear-gradient-12"/><linearGradient id="linear-gradient-26" x1="401.93" y1="423.45" x2="401.93" y2="56.58" xlink:href="#linear-gradient-12"/><linearGradient id="linear-gradient-27" x1="543.72" y1="636.2" x2="543.72" y2="153.97" gradientTransform="translate(0 31.24)" xlink:href="#linear-gradient-2"/><linearGradient id="linear-gradient-28" x1="485.38" y1="891.74" x2="485.38" y2="-416.29" gradientTransform="translate(0 31.24)" gradientUnits="userSpaceOnUse"><stop offset="0.01" stop-color="#e8d1c5"/><stop offset="1" stop-color="#fff"/></linearGradient><linearGradient id="linear-gradient-29" x1="431.19" y1="510.77" x2="478.4" y2="510.77" gradientTransform="translate(0 31.24)" gradientUnits="userSpaceOnUse"><stop offset="0.01" stop-color="#dbc5bb"/><stop offset="1" stop-color="#f5f5f5"/></linearGradient><linearGradient id="linear-gradient-30" x1="428.21" y1="498.2" x2="480.4" y2="498.2" xlink:href="#linear-gradient-29"/><linearGradient id="linear-gradient-31" x1="500.04" y1="483.15" x2="453.47" y2="483.15" xlink:href="#linear-gradient-29"/><linearGradient id="linear-gradient-32" x1="429.75" y1="466.57" x2="473.14" y2="466.57" xlink:href="#linear-gradient-29"/><linearGradient id="linear-gradient-33" x1="440.66" y1="452" x2="484" y2="452" xlink:href="#linear-gradient-29"/></defs><polygon class="cls-1" points="430.08 547.03 665.64 553.84 453.19 553.84 408.91 547.03 430.08 547.03"/><polygon class="cls-2" points="379.02 378.36 379.02 452.4 408.91 452.4 408.91 501.93 443.78 501.93 443.78 460.58 470.68 460.58 470.68 519.72 465.2 519.72 465.2 529.33 526.97 529.33 526.97 519.23 520.99 519.23 520.99 462.5 535.44 462.5 535.44 449.04 561.84 449.04 561.84 552.89 588.24 578.37 597.2 569.72 605.98 569.72 605.98 425.48 636.06 425.48 636.06 437.02 658.97 459.13 677.4 459.13 677.4 425.48 696.33 425.48 696.33 512.02 726.72 512.02 726.72 449.52 751.63 449.52 751.63 402.4 784.5 402.4 784.5 454.33 840.79 454.33 840.79 378.36 379.02 378.36"/><rect class="cls-3" x="430.33" y="378.36" width="13.45" height="123.56"/><polygon class="cls-4" points="499.24 529.33 499.24 420.99 469.68 420.99 469.68 395.03 443.78 395.03 443.78 378.36 520.99 378.36 520.99 519.23 526.97 519.23 526.97 529.33 499.24 529.33"/><polygon class="cls-5" points="588.24 578.37 588.24 407.69 562.34 407.69 562.34 449.04 547.89 449.04 547.89 412.5 520.99 412.5 520.99 378.36 605.98 378.36 605.98 569.72 597.2 569.72 588.24 578.37"/><polygon class="cls-6" points="658.97 459.13 658.97 413.46 642.41 397.47 629.58 397.47 629.58 389.18 605.98 389.18 605.98 378.36 677.4 378.36 677.4 459.13 658.97 459.13"/><rect class="cls-7" x="714.02" y="378.36" width="12.7" height="133.66"/><polygon class="cls-8" points="840.79 454.33 817.38 454.33 817.38 397.59 800.44 397.59 800.44 386.37 726.72 386.37 726.72 378.36 840.79 378.36 840.79 454.33"/><polygon class="cls-9" points="751.63 449.52 741.91 449.52 741.91 395.91 728.34 382.81 751.63 382.81 751.63 449.52"/><rect class="cls-10" x="394.96" y="378.36" width="13.95" height="74.04"/><path class="cls-11" d="M929.92,377.78a149.27,149.27,0,0,1-17.84,2.88c-28.61,3.13-254.27,2-391.52,40q-5.1,1.39-10,2.9C419.32,451,373.22,497.34,465,576.7c61.91,53.54,186.61,122.11,402.56,210H-63.91V353H931S966,369.22,929.92,377.78Z"/><polygon class="cls-12" points="-64.76 371.99 -64.76 297.95 -34.87 297.95 -34.87 248.43 0 248.43 0 289.78 26.9 289.78 26.9 230.64 21.42 230.64 21.42 221.02 83.19 221.02 83.19 231.12 77.21 231.12 77.21 287.85 91.66 287.85 91.66 301.31 118.06 301.31 118.06 197.46 144.46 171.98 153.43 180.63 162.2 180.63 162.2 324.87 192.28 324.87 192.28 313.33 215.19 291.22 233.63 291.22 233.63 324.87 252.55 324.87 252.55 238.33 282.94 238.33 282.94 300.83 307.85 300.83 307.85 347.95 340.72 347.95 340.72 296.03 397.01 296.03 397.01 371.99 -64.76 371.99"/><polygon class="cls-13" points="55.46 221.02 55.46 329.36 25.9 329.36 25.9 355.32 0 355.32 0 371.99 77.21 371.99 77.21 231.12 83.19 231.12 83.19 221.02 55.46 221.02"/><polygon class="cls-14" points="144.46 171.98 144.46 342.66 118.56 342.66 118.56 301.31 104.11 301.31 104.11 337.85 77.21 337.85 77.21 371.99 162.2 371.99 162.2 180.63 153.43 180.63 144.46 171.98"/><polygon class="cls-15" points="215.19 291.22 215.19 336.89 198.63 352.88 185.8 352.88 185.8 361.17 162.2 361.17 162.2 371.99 233.63 371.99 233.63 291.22 215.19 291.22"/><rect class="cls-16" x="270.24" y="238.33" width="12.7" height="133.66"/><polygon class="cls-17" points="397.01 296.03 365.66 296.03 365.66 352.76 356.66 352.76 356.66 363.98 282.94 363.98 282.94 371.99 397.01 371.99 397.01 296.03"/><polygon class="cls-18" points="307.85 300.83 298.13 300.83 298.13 354.44 284.56 367.54 307.85 367.54 307.85 300.83"/><polygon class="cls-19" points="379.02 371.99 379.02 297.95 408.91 297.95 408.91 248.43 443.78 248.43 443.78 289.78 470.68 289.78 470.68 230.64 465.2 230.64 465.2 221.02 526.97 221.02 526.97 231.12 520.99 231.12 520.99 287.85 535.44 287.85 535.44 301.31 561.84 301.31 561.84 197.46 588.24 171.98 597.2 180.63 605.98 180.63 605.98 324.87 636.06 324.87 636.06 313.33 658.97 291.22 677.4 291.22 677.4 324.87 696.33 324.87 696.33 238.33 726.72 238.33 726.72 300.83 751.63 300.83 751.63 347.95 784.5 347.95 784.5 296.03 840.79 296.03 840.79 371.99 379.02 371.99"/><rect class="cls-20" x="430.33" y="248.43" width="13.45" height="123.57"/><polygon class="cls-21" points="499.24 221.02 499.24 329.36 469.68 329.36 469.68 355.32 443.78 355.32 443.78 371.99 520.99 371.99 520.99 231.12 526.97 231.12 526.97 221.02 499.24 221.02"/><polygon class="cls-22" points="588.24 171.98 588.24 342.66 562.34 342.66 562.34 301.31 547.89 301.31 547.89 337.85 520.99 337.85 520.99 371.99 605.98 371.99 605.98 180.63 597.2 180.63 588.24 171.98"/><polygon class="cls-23" points="658.97 291.22 658.97 336.89 642.41 352.88 629.58 352.88 629.58 361.17 605.98 361.17 605.98 371.99 677.4 371.99 677.4 291.22 658.97 291.22"/><rect class="cls-24" x="714.02" y="238.33" width="12.7" height="133.66"/><polygon class="cls-25" points="840.79 296.03 817.38 296.03 817.38 352.76 800.44 352.76 800.44 363.98 726.72 363.98 726.72 371.99 840.79 371.99 840.79 296.03"/><polygon class="cls-26" points="751.63 300.83 741.91 300.83 741.91 354.44 728.34 367.54 751.63 367.54 751.63 300.83"/><rect class="cls-27" x="394.96" y="297.95" width="13.95" height="74.04"/><path class="cls-28" d="M-18.39,367.66s39.53-17.35,47.61-12.14,44.92-6.29,71-1,41.33,17.64,66.48,5.84,54.8-7.28,59.3,0,10.78,4,39.52,0,27-2.26,64.69,7.28,62.53,9.53,62.53,9.53H-18.39Z"/><path class="cls-28" d="M-73.18,388.18s9-31.8,55.7-16.19,56.9,34.69,124.57,32.37,97.63,28.91,125.18,28.33,29,12.14,29,12.14H-85.16Z"/><path class="cls-29" d="M777.59,786.68H559c-77.88-51.13-181.74-129.73-226.89-210a195.43,195.43,0,0,1-16.06-36.09c-31.26-97.5,59.17-135.43,194.45-151.28l10-1.13c68.31-7.35,147.24-9.47,227.36-11,0,0-122.61,3.37-227.36,25.66-3.36.73-6.72,1.46-10,2.22-79.89,18.17-146.44,47.92-135,96.4,5.76,24.34,23.66,49.7,49.81,75.2C503.76,653.2,656.3,731.08,777.59,786.68Z"/><path class="cls-28" d="M305,370.26s27.85,8.23,46.72-6.29,65.58-13.22,86.24,0,45.82,5.79,58.4-.9,36.83-4.76,67.37,2.08,30.55-3,61.09-2.08S747.9,377.19,747.9,377.19H292.45Z"/><path class="cls-28" d="M634.4,377.19s34.7-26.6,52.72-19.27,34.4,16.57,46.68,9,31.94-8.24,37.68-1.53,26.25,2.71,37,1.53c28.86-3.16,40.43,10.28,40.43,10.28Z"/><polygon class="cls-1" points="647 607.52 739.98 601.74 897.35 607.52 647 607.52"/><polygon class="cls-30" points="606.69 414.46 726.72 414.46 571.81 418.22 606.69 414.46"/><path class="cls-31" d="M618.72,786.68H-63.91V612.9S-47,583.12-19.17,576.67a46.94,46.94,0,0,1,21.35,0,59.26,59.26,0,0,1,16,6.34c49.24,27.81,91.53-6.28,125,34.17S211.82,604.29,271,637.47s31,66.45,73.42,72.58,62.6-30.83,107.07,0,89.69,1.42,129.35,30.84A122,122,0,0,1,618.72,786.68Z"/><rect class="cls-32" x="153" y="547.81" width="664.75" height="161.27"/><rect class="cls-28" x="153" y="592.98" width="664.75" height="6.54"/><rect class="cls-28" x="672.14" y="547.81" width="5.75" height="161.27"/><rect class="cls-28" x="445.27" y="547.81" width="5.75" height="161.27"/><rect class="cls-28" x="270.07" y="547.81" width="5.75" height="161.27"/><path class="cls-33" d="M436.51,536.2H478.4v11.63H436.51a5.32,5.32,0,0,1-5.32-5.32h0v-1a5.32,5.32,0,0,1,5.32-5.32h0Z"/><path class="cls-34" d="M485.92,537.4v9.19h.78v1.2H454.82a3.21,3.21,0,0,1-3.21-3.21h0v-5.21a3.21,3.21,0,0,1,3.21-3.21H486.7v1.2Z"/><path class="cls-1" d="M458.19,537.4h27.73v9.19H458.19a4.22,4.22,0,0,1-4.19-4.22v-.78A4.22,4.22,0,0,1,458.19,537.4Z"/><path class="cls-35" d="M434.4,522.68h46V536.2h-46a6.19,6.19,0,0,1-6.19-6.19h0v-1.15a6.19,6.19,0,0,1,6.19-6.19h0Z"/><path class="cls-34" d="M489,524.07v10.74h.66v1.39H463.45a4,4,0,0,1-4-4v-5.46a4,4,0,0,1,4-4h26.18v1.39Z"/><path class="cls-1" d="M466.4,524.07H489v10.74H466.4a4.91,4.91,0,0,1-4.91-4.91h0V529a4.91,4.91,0,0,1,4.9-4.92h0Z"/><path class="cls-36" d="M479.11,522.68H445.74V506.1h33.37a7.59,7.59,0,0,1,7.59,7.59h0v1.4A7.59,7.59,0,0,1,479.11,522.68Z"/><path class="cls-34" d="M439.19,507.81V521h-.67v1.71h26.09a4.37,4.37,0,0,0,4.36-4.37v-7.85a4.36,4.36,0,0,0-4.36-4.36H438.52v1.71Z"/><path class="cls-1" d="M460.57,521H439.19V507.81h21.38a6,6,0,0,1,6,6V515A6,6,0,0,1,460.57,521Z"/><path class="cls-37" d="M437.34,489.52h35.8V506.1h-35.8a7.59,7.59,0,0,1-7.59-7.59h0V497.1a7.59,7.59,0,0,1,7.59-7.59h0Z"/><path class="cls-34" d="M480.09,491.23v13.16h.71v1.71H453.12a4.59,4.59,0,0,1-4.58-4.59v-7.4a4.58,4.58,0,0,1,4.55-4.59H480.8v1.71Z"/><path class="cls-1" d="M457,491.23h23.12v13.16H457a6,6,0,0,1-6-6v-1.12a6,6,0,0,1,6-6Z"/><path class="cls-38" d="M446.4,477H484v12.54H446.4a5.74,5.74,0,0,1-5.74-5.74v-1.06A5.74,5.74,0,0,1,446.4,477Z"/><path class="cls-34" d="M491,478.26v10h.71v1.3H462.33a2.87,2.87,0,0,1-2.85-2.85v-6.85a2.87,2.87,0,0,1,2.85-2.85h29.41v1.29Z"/><path class="cls-1" d="M466.2,478.26H491v10H466.2a4.56,4.56,0,0,1-4.56-4.56v-.84a4.56,4.56,0,0,1,4.56-4.56Z"/><rect class="cls-39" x="317.52" y="504.1" width="91.32" height="8.36" transform="translate(-3.8 2.74) rotate(-0.43)"/><rect class="cls-39" x="373.59" y="465.33" width="86.71" height="7.94" transform="translate(-153.8 730.72) rotate(-72.99)"/><rect class="cls-40" x="575.04" y="523" width="7.13" height="207.18"/><rect class="cls-41" x="309.04" y="510.52" width="313.2" height="12.48"/><rect class="cls-40" x="345.26" y="523.01" width="7.13" height="207.18"/><polygon class="cls-42" points="111.25 736.99 113.11 742.22 191.78 717.85 188.01 707.24 111.25 736.99"/><rect class="cls-42" x="185.54" y="628.58" width="8.94" height="85.53"/><rect class="cls-43" x="163.64" y="624.04" width="52.74" height="5.04"/><polygon class="cls-42" points="269.46 736.99 267.6 742.22 188.93 717.85 192.38 706.58 269.46 736.99"/><polygon class="cls-42" points="214.03 741.66 214.03 747.75 188.93 717.85 192.38 706.58 214.03 741.66"/><circle class="cls-44" cx="269.46" cy="744.27" r="7.35" transform="translate(-447.35 408.53) rotate(-45)"/><circle class="cls-44" cx="207.3" cy="744.27" r="7.35" transform="translate(-465.56 364.57) rotate(-45)"/><rect class="cls-45" x="127.88" y="604.95" width="124.94" height="19.09" rx="8.74"/><rect class="cls-45" x="98.69" y="472.24" width="70.1" height="119.33" rx="32.08"/><path class="cls-46" d="M272,740.49s-3.81,7.1-6.3,9.92-12,7.87-12.07,16.24c0,9.08,16.07,6.56,22.37,6.23s6.78-5.18,9.44-10.33,5.33-4.27,5.82-8.41-2.57-13.65-2.57-13.65Z"/><path class="cls-47" d="M288.47,737.75a36,36,0,0,1,.59,4c-.14.09-17.87,3.25-17.77,0a15.57,15.57,0,0,1,1.64-5.53Z"/><polygon class="cls-48" points="343.21 334.07 317.41 310.93 332.23 298.55 355.49 322.91 343.21 334.07"/><polygon class="cls-49" points="342.51 331.67 320.17 311.64 333 300.93 353.13 322.01 342.51 331.67"/><path class="cls-50" d="M357.92,334.52s-3.9-.9-2.73-5.31-.62-5.42-.62-5.42l-13.65,12.36s6.57,6,8.57,6.29S359.92,337,357.92,334.52Z"/><path class="cls-50" d="M340.92,336.15s-8.25-5-9-5.78a73.24,73.24,0,0,1-6-6.08c-1.5-2,5-2.12,6.69-.06a9.56,9.56,0,0,0,4.83,2.89c1.21.46,7.82,1.77,9.26,3.8S340.92,336.15,340.92,336.15Z"/><path class="cls-50" d="M352,321.11a1,1,0,0,1-1.38.3,1,1,0,0,1-.4-.5c-.79-1.42-.71-4.68,1.3-3.89S352,321.11,352,321.11Z"/><path class="cls-50" d="M349.5,316.78s-.36,2.41-1.6,1.32-2.48-5.13-.3-5S349.5,316.78,349.5,316.78Z"/><path class="cls-50" d="M346,313.25s0,2.91-1.45,2.06c-1.09-.63-2.63-5.87-.45-5.76S346,313.25,346,313.25Z"/><path class="cls-51" d="M345.92,341.69l12.62-11.32,50.72,42c7.68,5.28-8.89,20.67-15.16,19-17.21-4.58-46.53-5.65-62-14.2-23.46-13-8.33-35.64-.88-33.39s34.9,16.9,34.9,16.9Z"/><path class="cls-46" d="M367.62,739.14s7.78,8.68,15.66,10.45,13.4,4.14,13.46,9.12S374.05,767,365,762c-13.47-7.48-14.84-5.23-16.33-9s1.79-13.75,1.7-14.94C350.27,736.59,367.62,739.14,367.62,739.14Z"/><path class="cls-47" d="M366.75,735a36.85,36.85,0,0,1,.87,4.15c-.15.09-17.77,2.19-17.23-1.07.43-2.65,1-5.52,1-5.52Z"/><path class="cls-52" d="M350.73,491.77s6.41,62.23,9.74,83.53c3.9,24.91,5.22,45.49,6.31,58.38,1.36,16.21,1.63,96,2.58,100.71s-21.22,1.31-21.22,1.31-10.91-104.21-15-121.48c-3.79-16.08-17.86-85.31-21.32-80.92s-7.75,80.79-10.31,93.47-10.35,112-10.35,112-17.65,3.52-22.35-.46c0,0-2.14-85.56-.5-109.33.62-9.06-10.62-108.64,3.79-148.73C279.74,459,350.73,491.77,350.73,491.77Z"/><path class="cls-53" d="M240.91,500.59s10.8,3.28,15.33,2.45,2.24-56.35,2.41-67.9c.14-9.37,5.27-34.11,5.27-34.11v.07h0c.51,1.85,7.43,27.52,7.67,39.86.25,12.8-1.67,61.77-1.67,61.77l17.19,8.1,59.48,1.76,8.66.13s-1.36-29-1.87-39c-.32-6.32-1.55-17.64-1.23-28.66,0,0-.2-11.62,1-16.63.13-22.09,1.47-44,1.47-44q1.11-15,1.55-28.12c-2.42-1.27-5.32-2.77-7.65-3.87-7.19-3.43-17.22-8-23.65-11-3.76-1.73-7.45-3-7.45-3s-25.71-2.46-27.79-2.33a63.76,63.76,0,0,0-8.09,2.77c-9.12,3.46-26.69,10.5-29.49,12.51-4.1,2.94-12.78,72.76-13.17,77.65C238.12,438,240.91,500.59,240.91,500.59Z"/><path class="cls-54" d="M289.71,336.13c1.89,17.33,21.12,17.33,21.12,17.33s8-7,7.71-12.12a1.93,1.93,0,0,0,0-.34c-.11-.95-1.19-2.13-1.3-4v-1.56c0-1.31.08-2.61.15-3.52a7.22,7.22,0,0,1,.08-.8v-.5s-3.1-3.27-7-7.16c-6.88-6.81-16.35-15.53-16.37-12.07a3.72,3.72,0,0,0,.08.66C295.8,319.83,289.71,336.13,289.71,336.13Z"/><path class="cls-55" d="M237.49,536.41s1-13.77,4.69-15.85,1.51,2.15,1.51,2.15-2.2,10-2.71,14A20.39,20.39,0,0,1,237.49,536.41Z"/><polygon class="cls-55" points="273.88 546.13 225.35 531.58 224.59 591.6 272.65 621.39 273.88 546.13"/><polygon class="cls-55" points="272.65 621.39 266.53 622.43 219.8 592.38 221.3 531.79 225.35 531.58 272.65 621.39"/><path class="cls-56" d="M302.83,346.33l8,7.13s-9.24-.62-11-2.16Z"/><path class="cls-57" d="M353.6,503.39s-37.62,3.21-70.57,0v10.82s49.49,7.14,72.22-2.07Z"/><path class="cls-51" d="M321.52,340.09s6.12,14.38,10.71,46.51c1.76,12.34,5,33.12,7.41,54.32h0c1.87,16.71,6.15,33.87,7.51,46.66,1.4,13.26,5.65,52.31,5.65,52.31l10.28-6.49c1.47-1.36,3.53-3.12,2.94-5-2.83-9.14-8.25-39.34-11.45-65.66v-.06c-.15-1.27-.31-2.53-.45-3.77v-.2c-.61-5.27-1.11-10.31-1.46-14.93a46.93,46.93,0,0,1,.46-10.39c1.43-23.63,2.14-48.54,2.14-48.54.76-10.2,1.19-19.73,1.48-28.61-2.47-1-5.45-3.29-8-4.52-4.87-2.31-10.69-4.92-16.16-7.45-2.61-1.21-5.63-1.78-7.71-2.73Z"/><path class="cls-51" d="M259.4,435.68c-.8,10.72,3.74,70-.79,70.88s-21.16-2.83-21.16-2.83-2.08-64-1.41-70.67c.48-4.88,8.25-78.1,12.36-81,2.36-1.7,19.92-7.92,28.54-11.32,1.57-.62,6.56-2.71,8-3.25,1.83,2,17.75,39.39,19.26,68.53.47,8.88-1.61,27.6-3.19,42.9-1.69,16.33-3.56,29.07-4.93,42.72-2.7,26.9-4.58,48.3-4.58,48.3L264.73,528C260.4,525.85,254.4,517,256,512.4c6.19-17.33,14-46.94,14-62.15,0,0-3-37.24-5.36-45.43C264.67,404.78,260.45,422.05,259.4,435.68Z"/><path class="cls-54" d="M254.45,505.86s1.32,6,3.11,12,3.47,7.91,2.67,11.31c-.6,2.57-3.55,4.46-4.27,3.62S255,522,250.88,522s1,12.42-1.4,11.48-11.89-6.3-11.22-11.34,4.54-8.63,4.41-16.18c-.12-6.84,2.05-9.67,2.05-9.67Z"/><path class="cls-55" d="M251.3,521.46s5.5,1.5,4.89,20.19L250,540.51s.27-10.33-1.51-16C248.4,524.52,248.81,520.87,251.3,521.46Z"/><path class="cls-51" d="M260.14,465.67l-.27,47.15s-9.41-.42-22.38-5.21l-.9-66.48Z"/><path class="cls-58" d="M319.59,347.59s.68,9.84-7.64,10.07S297,349.9,297,349.9l13.81,3.56,8.41-7.13Z"/><path class="cls-59" d="M290.82,332.89s7.89,10.13,12,13.44l-6.75,11.33-11.65-20Z"/><path class="cls-56" d="M318,348.19l-7.13,5.27s6.26-11.41,6.38-16.49Z"/><polygon class="cls-59" points="317.21 336.97 321.78 340.2 326.88 355.4 317.96 348.19 317.21 336.97"/><path class="cls-54" d="M339.87,286.26s5,12.22,1.74,13.69c-2.71,1.22,1.64,13.15,2.17,15.08s-5,2.72-6.22,3.79-6.18,15.41-10.64,15.39-23.59-9-28.41-15.22-6.59-32.06-1.85-42.4S331,264.89,339.87,286.26Z"/><path class="cls-60" d="M340.85,288.89s7.68-11.82-2.91-22.3-33.64,3.54-36.1,3.9S284.63,274,289.71,296c4.61,19.92,4.69,20.12,4.69,20.12s5.75-10.36,8.44-11.92c4.21-2.42,12.7-.84,12.7-.84s-2.94-11.26,3.6-12.13S334.65,285.82,340.85,288.89Z"/><path class="cls-54" d="M309.4,296.41c-.41-1.54-1.56-8.12-7.43-5s1.75,16.15,2.69,16.41S312.82,309.41,309.4,296.41Z"/><path class="cls-61" d="M299.27,319.88c.13.33,4.5,10.95,17.91,16.3v-.77c0-1.31.08-2.61.15-3.52a7.22,7.22,0,0,1,.08-.8S303,324.32,299.27,319.88Z"/><path class="cls-28" d="M675.56,196.68a138.72,138.72,0,0,1-62.82,116.2l-.24.15q-5.54,3.63-11.41,6.7a137.88,137.88,0,0,1-64.4,15.86c-3.61,0-7.2-.13-10.74-.41a135.68,135.68,0,0,1-19.14-2.82A119.69,119.69,0,0,1,494,328.88c-2.46-.79-4.9-1.65-7.3-2.59-1.4-.53-2.8-1.09-4.17-1.69a138.87,138.87,0,1,1,193-127.87Z"/><path class="cls-51" d="M539.8,315,526,335.13a135.68,135.68,0,0,1-19.14-2.82q-6.54-1.44-12.83-3.48c-2.46-.79-4.9-1.65-7.3-2.59,1-21.14,1-43.32-1.07-61.75-6.09-53.29,4.72-106.84,4.72-106.84Z"/><path class="cls-62" d="M601.09,319.73a139.32,139.32,0,0,1-94.28,12.58c1.48-6.8,2.61-12.47,2.75-14.45.44-6.25-11.13-42.95-11.85-44.67s-19.06-14.42-22.63-27,12-76.33,12-76.33,30.06-34.63,52.75-30,52.53,19.62,55.19,25-1.11,60.85-3.16,66.44-.35,51.61,0,57.76C592.06,291.83,596.4,305.53,601.09,319.73Z"/><path class="cls-63" d="M612.74,312.88c-3.76,2.48-7.65,4.75-11.65,6.85a138.59,138.59,0,0,1-22.3,9.32c-13.78-29.6-26.25-57.67-31.55-76.1-14.58-50.69.3-112.38.3-112.38h0c17.07,2.9,40.22,12.69,46,20.21a5.48,5.48,0,0,1,.66,1.18c2,3.66,7.29,19.43,13.21,31.08,0,0-8,5.87-13.54,18.93a50.6,50.6,0,0,0-4.38,17.51,30.29,30.29,0,0,0,.62,8c.19.85.41,1.7.67,2.53,7.27,22.83,15.19,47.9,15.19,47.9a42.22,42.22,0,0,0,.94,7V295h0a103.93,103.93,0,0,0,5.26,16.51Z"/><path class="cls-51" d="M612.74,312.88l-.24.15c-14.69-16.85-33.94-90.26-33.94-90.26,4.15-.42,7.77,2.21,10.92,6.71,12.32,17.58,17.23,63.64,17.42,65.41V295h0a103.93,103.93,0,0,0,5.26,16.51Z"/><path class="cls-54" d="M687.64,329s8.25,3.19,12.17-1c3-3.17,8.22-9,9-10.71s5.23-7.77,6.1-4.55-4.22,17.53-6.5,19.28,9.91,4.62,11.69,7-4.5,22.87-12.62,19.9-14.06-11.41-15.48-12.1c-2.34-1.15-11.49-5-11.49-5Z"/><path class="cls-54" d="M718.4,337.83s24.24,10.8,25.23,12.92.31,3.44-2,2.53-23.71-9.69-23.71-9.69,26.48,17.78,27.67,19.32c.69.91-.48,3.55-1.76,3.18s-28.55-16.5-28.55-16.5,24.69,16.64,25.3,18.25a2.11,2.11,0,0,1-1.44,2.61,2.06,2.06,0,0,1-1.56-.15c-1.92-1.1-25.72-15.2-25.72-15.2s16.88,13.24,16.93,15c0,1.51-1.08,3.36-5.41-.21S708,359,708,359Z"/><path class="cls-63" d="M615.32,220.43c4.84,23.23,14,56.62,16.34,60.73,1.06,1.83,5.08,5,10.59,9.64,8,6.69,52.53,38.46,52.53,38.46.19,8-10.68,19.06-10.68,19.06-7.26-4.47-22.32-13.33-38.46-22-18.58-10-32-20-35.5-25.27-6.51-9.85-29.15-69.75-33.74-84.83-1.77-5.81-3.77-15.52-5.56-25.26-2.37-12.84-4.37-25.75-5-29.86l-.2-1.34h0s9.63-12.61,27.26.3C592.9,160,605.4,172.73,615.32,220.43Z"/><polygon class="cls-48" points="453.03 135.55 481.89 92.88 456.06 80.38 431.32 123.89 453.03 135.55"/><polygon class="cls-64" points="453.19 131.83 478.16 94.9 455.8 84.08 434.39 121.74 453.19 131.83"/><path class="cls-50" d="M432,141.5s5.3-2.71,2-8.63-1.06-8-1.06-8l24.15,12.9S449.78,148.84,447,150,430,145.7,432,141.5Z"/><path class="cls-50" d="M457.1,137.72s10.07-10.23,10.9-11.59,5-7.52,6.41-10.93-7.06-.48-8.83,3.12a14.33,14.33,0,0,1-5.4,6.11c-1.58,1.1-12,4.38-13.33,7.83S457.1,137.72,457.1,137.72Z"/><path class="cls-50" d="M435.65,120a1.47,1.47,0,0,0,2.08,0h0a1.41,1.41,0,0,0,.4-.87c.62-2.33-.67-7-3.28-5.13S435.65,120,435.65,120Z"/><path class="cls-50" d="M437.74,112.88s1.38,3.35,2.78,1.33,1.71-8.29-1.38-7.34S437.74,112.88,437.74,112.88Z"/><path class="cls-50" d="M441.56,106.52s1.06,4.19,2.84,2.45c1.33-1.31,1.66-9.42-1.43-8.47S441.56,106.52,441.56,106.52Z"/><path class="cls-63" d="M500.53,148.32,496.06,165l-12.94,48s-4.31,3.53-10.38,8.45c-13.43,10.86-43.76,31.17-47,32.33-4.24,1.51-25.81,2.11-27.22-12.59s32.55-99.48,32.55-99.48c10.47-2.55,22.19,2.47,22.19,2.47l-18.05,67.72a87.27,87.27,0,0,0,22.19-22.34c5.17-7.53,16.46-18.23,26.2-26.84,6.59-5.82,12.47-10.69,15.26-13Z"/><path class="cls-65" d="M462.14,46S438,61.38,442.28,83.1c6.65,33.59,31.42,43.31,33.48,64.85s-7.51,29.25-7.51,29.25l37.4-33.1Z"/><path class="cls-54" d="M538.19,138.2c-3.2,34.39-21.69,59.39-28.88,63.14s-15.17-35.75-11.23-42.75c1.05-1.88,1.22-4.6.9-7.58-.6-5.65-2.94-12.23-4.32-15.73-.61-1.55-1-2.5-1-2.5s23.31-45.19,28-21.35S538.19,138.2,538.19,138.2Z"/><path class="cls-66" d="M515.61,125.86c-.09.29-5.85,18.52-16.63,25.17-.6-5.65-2.94-12.23-4.32-15.73Z"/><path class="cls-54" d="M451,57.25s2.61,45.68,16.2,66.08c21.8,32.72,32.19,21.76,46,5.82,19.91-23-7.43-81.89-7.43-81.89Z"/><path class="cls-65" d="M450.13,94.07s14.48,3.52,35.27-9.1,29,35.36,34,36.64S527.17,69.5,516,57s-31.31-27.74-51.32-15C442.67,56.07,439.48,75.06,450.13,94.07Z"/><path class="cls-65" d="M455.75,49.83S463.29,37.12,485.86,36c17.17-.85,44.07,16.7,47.06,52,3.82,45.19,24.85,53.54,34.38,58s-32.49,1.61-45.16-18c-5.76-8.94-13.4-22-16.12-31.33s-23.14-44.65-38-38S455.75,49.83,455.75,49.83Z"/><path class="cls-54" d="M501.87,97.81c-1.94-5.76,6.63-11.9,9.83-7.51s2.25,20.11-3.08,18.39S501.87,97.81,501.87,97.81Z"/><path class="cls-63" d="M489.54,217.66c-.87,20.19,8.13,52.06,4.44,111.17q-5.85-1.87-11.47-4.28c1-27.49.55-54-3.86-65.78-6.11-16.31-6.74-15.5-5.92-37.35.64-16.86.95-32.46,7.83-55.11,6.59-5.83,15.46-14.32,18.26-16.6,0,0,1.22,5.4-.32,14.48C496,178.66,490.24,201.34,489.54,217.66Z"/><polygon class="cls-67" points="435.17 211.91 428.06 234.51 443.57 205.25 435.17 211.91"/><path class="cls-68" d="M628.74,668.89H628c0-.29,1.52-29.19,1.1-63.16-.39-31.34-2.53-73.52-10.55-96.54l.74-.25c8.06,23.11,10.21,65.39,10.6,96.78C630.25,639.68,628.75,668.59,628.74,668.89Z"/><path class="cls-68" d="M640.13,668.89c-.1-1.86-9.61-186.16-21.64-241.64l.77-.17c12,55.54,21.56,239.91,21.65,241.77Z"/><path class="cls-68" d="M635.71,675c-.08-1.64-8.21-164.15-1.84-197l.77.15c-6.35,32.72,1.77,195.14,1.85,196.78Z"/><path class="cls-68" d="M635.18,671.45h-.78c0-.91.08-91.84,7.45-133.34l.77.13C635.26,579.68,635.18,670.59,635.18,671.45Z"/><path class="cls-68" d="M699,502.51s-8.12-55.32-28.42-29.09c-14,18.1-23.16,43.66-27.48,57.75a80.66,80.66,0,0,0-3.41,19l-.91,15.5C682.85,450.73,699,502.51,699,502.51Z"/><path class="cls-68" d="M709.29,436.2s8.12-52.9-38-29.32c-44.18,22.6-39.24,90.56-39.24,90.56,2.65-11.33,7.43-41.62,23.22-61.24C697.1,384.22,709.29,436.2,709.29,436.2Z"/><path class="cls-68" d="M663.4,605.59C637.1,600.41,635.67,623,635.67,623v8.26C637.86,617,663.4,605.59,663.4,605.59Z"/><path class="cls-68" d="M598.52,378.12c-25.71-19.28-39.58,0-39.58,0s49.42,2.4,68.18,111.3C627.12,489.42,624.22,397.4,598.52,378.12Z"/><path class="cls-68" d="M577.23,456S618.45,509.4,626.74,553l-.91-10.21S624.19,465.28,577.23,456Z"/><path class="cls-68" d="M626.74,553l1.42,15.92A74,74,0,0,0,626.74,553Z"/><path class="cls-68" d="M594.82,572.28s32.51,33.82,34.69,40.93C629.51,613.21,616.47,574.31,594.82,572.28Z"/><polygon class="cls-69" points="661.34 735.63 673.1 664.6 595.68 664.6 607.44 735.63 661.34 735.63"/><rect class="cls-69" x="588.41" y="645.55" width="91.96" height="19.04"/><path class="cls-70" d="M673.09,664.59H595.68l11.72,71h13.23s-12.94-55.13,49.89-55.7Z"/><path class="cls-71" d="M532.92,350.43c-84.78,0-153.75-69-153.75-153.75h2c0,83.68,68.08,151.75,151.76,151.75s151.75-68.07,151.75-151.75S616.59,45,532.92,45V43c84.77,0,153.74,69,153.74,153.75S617.69,350.43,532.92,350.43Z"/><polygon class="cls-72" points="438.41 215.98 358.53 216.01 358.55 273.9 358.55 286.1 370.74 273.9 438.42 273.88 438.41 215.98"/><path class="cls-28" d="M404.57,247.26a6.1,6.1,0,1,1-6.1-6.1h0a6.1,6.1,0,0,1,6.1,6.08Z"/><path class="cls-28" d="M424.61,247.29a6.1,6.1,0,1,1-6.09-6.11h0a6.1,6.1,0,0,1,6.09,6.11Z"/><path class="cls-28" d="M385,247.24a6.1,6.1,0,1,1-6.1-6.11A6.1,6.1,0,0,1,385,247.24Z"/></svg>