<?xml version="1.0" encoding="utf-8"?>
<!-- Generator: Adobe Illustrator 25.0.0, SVG Export Plug-In . SVG Version: 6.00 Build 0)  -->
<svg version="1.1" id="Layer_1" xmlns="http://www.w3.org/2000/svg" xmlns:xlink="http://www.w3.org/1999/xlink" x="0px" y="0px"
	 viewBox="0 0 56.4 56.4" style="enable-background:new 0 0 56.4 56.4;" xml:space="preserve">
<style type="text/css">
	.st0{fill:none;}
	.st1{fill:#8736BD;}
	.st2{fill:#FFFFFF;}
	.st3{fill:#EFC039;}
</style>
<g>
	<path class="st0" d="M41.9,19.7c0,0-0.1,0-0.1,0C41.8,19.7,41.8,19.7,41.9,19.7z"/>
	<path class="st0" d="M7.9,19.7c0,0,0.1,0,0.1,0C8,19.7,8,19.7,7.9,19.7z"/>
	<path class="st0" d="M36.3,13.3c0-0.1,0-0.1,0-0.2C36.3,13.2,36.3,13.3,36.3,13.3z"/>
	<path class="st0" d="M44.1,20.2c-0.1,0-0.2,0-0.3,0C43.9,20.2,44,20.2,44.1,20.2z"/>
	<path class="st0" d="M43,20c-0.1,0-0.2,0-0.3-0.1C42.8,20,42.9,20,43,20z"/>
	<path class="st0" d="M20.3,45.2c0,0.3,0,0.5,0,0.8C20.3,45.7,20.3,45.5,20.3,45.2z"/>
	<path class="st0" d="M22.5,44.1c1.5,0.5,3,0.8,4.6,0.9v-9H18C20.6,38,22.2,40.9,22.5,44.1z"/>
	<path class="st0" d="M37.7,6.1c0.1-0.2,0.3-0.4,0.4-0.5C38,5.8,37.9,5.9,37.7,6.1z"/>
	<path class="st0" d="M11.3,2.3c5,0,9,4,9,9c0,0,0,0,0,0C20.3,6.3,16.3,2.2,11.3,2.3c-5,0-9,4-9,9c0,0.5,0.1,1.1,0.2,1.6
		c-0.1-0.5-0.2-1.1-0.2-1.6C2.3,6.3,6.3,2.3,11.3,2.3z"/>
	<path class="st0" d="M36.1,11.1c0-0.2,0-0.4,0-0.6C36.1,10.6,36.1,10.9,36.1,11.1z"/>
	<path class="st0" d="M12.2,22.6c-1.3,3.6-1.2,7.6,0,11.2h14.8V22.6L12.2,22.6C12.2,22.6,12.2,22.6,12.2,22.6z"/>
	<path class="st0" d="M40.1,3.8c0.2-0.2,0.5-0.3,0.7-0.4C40.6,3.5,40.4,3.6,40.1,3.8z"/>
	<path class="st0" d="M36.2,12.7c0-0.1-0.1-0.3-0.1-0.4C36.2,12.4,36.2,12.6,36.2,12.7z"/>
	<path class="st0" d="M36.1,11.9c0-0.2,0-0.4,0-0.6C36.1,11.5,36.1,11.7,36.1,11.9z"/>
	<path class="st0" d="M36.2,10.1c0-0.2,0.1-0.4,0.1-0.6C36.2,9.8,36.2,9.9,36.2,10.1z"/>
	<path class="st0" d="M7,53C6.9,53,6.9,53,7,53c2.7,1.5,6,1.5,8.7,0c0,0,0,0,0,0c-1.3,0.7-2.8,1.1-4.3,1.1C9.7,54.1,8.2,53.7,7,53z"
		/>
	<path class="st0" d="M43.3,2.4c0.2,0,0.5-0.1,0.7-0.1C43.8,2.4,43.5,2.4,43.3,2.4z"/>
	<path class="st0" d="M44.2,2.3c0.3,0,0.6,0,0.9,0C44.8,2.3,44.5,2.3,44.2,2.3z"/>
	<path class="st0" d="M20.3,44.5c0,0.2,0,0.4,0,0.6C20.3,44.8,20.3,44.7,20.3,44.5z"/>
	<path class="st0" d="M17.5,51.6C17.5,51.6,17.6,51.6,17.5,51.6c0.1,0,0.2-0.1,0.2-0.2c1.5-1.5,2.3-3.4,2.5-5.4
		C20,48.2,19,50.1,17.5,51.6z"/>
	<path class="st0" d="M2.3,46c0.2,2.1,1.1,4,2.7,5.6c0,0,0,0,0,0C3.5,50.1,2.5,48.2,2.3,46z"/>
	<path class="st0" d="M41.8,2.9c0.3-0.1,0.6-0.2,0.9-0.3C42.4,2.7,42.1,2.8,41.8,2.9z"/>
	<path class="st0" d="M20.3,44.1C20.3,44.1,20.3,44.1,20.3,44.1C20.3,44.1,20.3,44.1,20.3,44.1z"/>
	<path class="st0" d="M2.4,43.6c0,0,0-0.1,0-0.1C2.4,43.6,2.4,43.6,2.4,43.6z"/>
	<path class="st0" d="M46.5,20.2c-0.1,0-0.2,0-0.3,0C46.3,20.2,46.4,20.2,46.5,20.2z"/>
	<path class="st0" d="M48.5,19.7c0,0-0.1,0-0.1,0C48.4,19.7,48.4,19.7,48.5,19.7z"/>
	<path class="st0" d="M2.3,44.7c0-0.1,0-0.3,0-0.4C2.3,44.4,2.3,44.6,2.3,44.7z"/>
	<path class="st0" d="M47.5,20c-0.1,0-0.2,0-0.3,0.1C47.3,20,47.4,20,47.5,20z"/>
	<path class="st0" d="M2.3,45.8c0-0.2,0-0.5,0-0.7C2.3,45.4,2.3,45.6,2.3,45.8z"/>
	<path class="st0" d="M36.3,46.9c-0.1-0.3-0.1-0.5-0.1-0.8C36.2,46.3,36.2,46.6,36.3,46.9z"/>
	<path class="st0" d="M36.1,44.6c0-0.1,0-0.1,0-0.2C36.1,44.4,36.1,44.5,36.1,44.6z"/>
	<path class="st0" d="M13.6,20c-0.1,0-0.2,0-0.2,0.1C13.5,20,13.6,20,13.6,20z"/>
	<path class="st0" d="M36.3,46.9c0.3,1.7,1.2,3.4,2.6,4.7c0,0,0,0,0,0C37.6,50.3,36.7,48.7,36.3,46.9z"/>
	<path class="st0" d="M40.8,53C40.8,53,40.8,53,40.8,53L40.8,53c2.7,1.5,6,1.5,8.7,0c0,0,0,0,0,0c-1.3,0.7-2.8,1.1-4.3,1.1
		C43.6,54.1,42.1,53.7,40.8,53z"/>
	<path class="st0" d="M36.3,9.3c0-0.2,0.1-0.4,0.1-0.6C36.4,8.9,36.4,9.1,36.3,9.3z"/>
	<path class="st0" d="M12.6,20.2c-0.1,0-0.2,0-0.3,0C12.4,20.2,12.5,20.2,12.6,20.2z"/>
	<path class="st0" d="M36.1,45.6c0-0.2,0-0.3,0-0.5C36.1,45.3,36.1,45.5,36.1,45.6z"/>
	<path class="st0" d="M38.6,5c-0.1,0.1-0.2,0.3-0.3,0.4C38.4,5.2,38.6,5.1,38.6,5C38.7,5,38.7,5,38.6,5z"/>
	<path class="st0" d="M37.3,6.9c0.1-0.2,0.2-0.4,0.3-0.6C37.5,6.5,37.4,6.7,37.3,6.9z"/>
	<path class="st0" d="M54.1,45.1c0,2.6-1.1,4.9-2.8,6.5c0,0,0,0,0,0C53.2,49.9,54.1,47.6,54.1,45.1c0-0.3,0-0.6,0-0.9
		C54.1,44.5,54.1,44.8,54.1,45.1z"/>
	<path class="st0" d="M40.9,3.3c0.2-0.1,0.5-0.3,0.7-0.4C41.4,3.1,41.1,3.2,40.9,3.3z"/>
	<path class="st0" d="M14.6,19.7c0,0-0.1,0-0.1,0C14.6,19.7,14.6,19.7,14.6,19.7z"/>
	<path class="st0" d="M20.3,11.9c0,0.1,0,0.2,0,0.2C20.3,12.1,20.3,12,20.3,11.9z"/>
	<path class="st0" d="M36.9,7.6c0.1-0.2,0.2-0.4,0.3-0.6C37.1,7.2,37,7.4,36.9,7.6z"/>
	<path class="st0" d="M45,20.3c0,0,0.1,0,0.1,0c0,0,0.1,0,0.1,0c0,0-0.1,0-0.1,0C45.1,20.3,45.1,20.3,45,20.3z"/>
	<path class="st0" d="M9.2,20C9.1,20,9,20,8.9,20C9,20,9.1,20,9.2,20z"/>
	<path class="st0" d="M22.5,12.3c-0.3,3.2-1.9,6.1-4.5,8h9.1v-9C25.5,11.4,24,11.8,22.5,12.3L22.5,12.3z"/>
	<path class="st0" d="M10.2,20.2c-0.1,0-0.2,0-0.3,0C10.1,20.2,10.2,20.2,10.2,20.2z"/>
	<path class="st0" d="M39.5,4.3c0.2-0.2,0.4-0.3,0.6-0.5C39.9,3.9,39.7,4.1,39.5,4.3z"/>
	<path class="st0" d="M38.4,36.1h-9.1v9l0,0c1.5-0.1,3-0.4,4.5-0.9c0,0,0,0,0.1,0C34.2,41,35.8,38,38.4,36.1z"/>
	<path class="st0" d="M36.6,8.4c0.1-0.2,0.1-0.4,0.2-0.6C36.7,8,36.6,8.2,36.6,8.4z"/>
	<path class="st0" d="M33.9,12.2C33.9,12.2,33.8,12.2,33.9,12.2c-1.5-0.5-3-0.8-4.6-0.9v9h9.1C35.8,18.4,34.2,15.5,33.9,12.2z"/>
	<path class="st0" d="M54.1,11.3c0,0.3,0,0.6,0,0.9C54.1,11.9,54.1,11.6,54.1,11.3c0-5-4-9-9-9h0C50.1,2.3,54.1,6.3,54.1,11.3z"/>
	<path class="st0" d="M44.2,22.6L44.2,22.6l-14.8,0v11.3h14.8C45.4,30.2,45.4,26.2,44.2,22.6z"/>
	<path class="st0" d="M11.3,20.3C11.3,20.3,11.3,20.3,11.3,20.3C11.3,20.3,11.3,20.3,11.3,20.3z"/>
	<path class="st0" d="M38.9,4.8c0.2-0.2,0.3-0.3,0.5-0.5C39.2,4.5,39,4.6,38.9,4.8z"/>
	<path class="st1" d="M56.3,43.8c-0.6-5.2-4.7-9.2-9.8-9.8c1.2-3.7,1.2-7.7,0-11.5c5.7-0.7,9.9-5.5,9.9-11.2
		c0-6.2-5.1-11.2-11.3-11.2c-5.7,0-10.4,4.2-11.1,9.8c-1.8-0.6-3.7-0.9-5.7-0.9c0,0,0,0-0.1,0s0,0,0,0c-1.9,0-3.8,0.3-5.7,0.9
		C21.7,3.7,16.1-0.7,9.9,0.1C3.7,0.8-0.7,6.5,0.1,12.6c0.6,5.2,4.7,9.2,9.8,9.8c-1.2,3.7-1.2,7.7,0,11.5c-6.2,0.7-10.6,6.4-9.8,12.6
		c0.7,6.2,6.4,10.6,12.6,9.8c5.2-0.6,9.2-4.7,9.8-9.8c3.7,1.2,7.7,1.2,11.5,0c0.7,6.2,6.4,10.6,12.6,9.8
		C52.7,55.6,57.1,50,56.3,43.8z M2.4,12.9c-0.1-0.5-0.2-1.1-0.2-1.6c0-5,4-9,9-9c5,0,9,4,9,9c0,0,0,0,0,0c0,0,0,0,0,0
		c0,0.2,0,0.4,0,0.7c0,0.1,0,0.2,0,0.2c-0.3,3.4-2.6,6.3-5.6,7.5c0,0-0.1,0-0.1,0c-0.3,0.1-0.6,0.2-0.9,0.3c-0.1,0-0.2,0-0.2,0.1
		c-0.3,0.1-0.5,0.1-0.8,0.2c-0.1,0-0.2,0-0.3,0c-0.3,0-0.7,0.1-1,0.1c0,0,0,0,0,0c0,0,0,0,0,0c-0.4,0-0.7,0-1-0.1
		c-0.1,0-0.2,0-0.3,0c-0.3,0-0.5-0.1-0.8-0.2C9.1,20,9,20,8.9,20c-0.3-0.1-0.6-0.2-0.9-0.3c0,0-0.1,0-0.1,0C5.1,18.5,3,16,2.4,12.9z
		 M20.3,45.1c0,0,0,0.1,0,0.1c0,0.3,0,0.5,0,0.8c0,0,0,0,0,0c-0.2,1.9-1,3.8-2.5,5.4c-0.1,0.1-0.2,0.2-0.2,0.2c0,0,0,0,0,0
		c-0.6,0.5-1.2,1-1.9,1.4c0,0,0,0,0,0c-2.7,1.5-6,1.5-8.7,0c0,0,0,0,0,0c-0.7-0.4-1.3-0.9-1.9-1.4c0,0,0,0,0,0
		c-1.6-1.5-2.5-3.5-2.7-5.6c0-0.1,0-0.1,0-0.2c0-0.2,0-0.5,0-0.7c0,0,0-0.1,0-0.1c0-0.1,0-0.2,0-0.4c0-0.1,0-0.3,0-0.4
		c0-0.2,0.1-0.5,0.1-0.7c0,0,0-0.1,0-0.1c0.7-4.2,4.4-7.5,8.9-7.5c4.6,0,8.5,3.5,9,8c0,0,0,0,0,0c0,0.1,0,0.3,0,0.4
		C20.3,44.7,20.3,44.8,20.3,45.1C20.3,45,20.3,45.1,20.3,45.1z M27.1,45.1c-1.6-0.1-3.1-0.4-4.6-0.9c-0.3-3.2-1.9-6.1-4.5-8h9.1
		V45.1z M27.1,33.8H12.3c-1.3-3.6-1.3-7.6,0-11.2c0,0,0,0,0-0.1h14.8V33.8z M27.1,20.3H18c2.6-1.9,4.2-4.8,4.5-8v0
		c1.5-0.5,3-0.8,4.6-0.9V20.3z M37.2,7.1c0-0.1,0.1-0.1,0.1-0.2c0.1-0.2,0.2-0.4,0.3-0.6c0-0.1,0.1-0.1,0.1-0.2
		c0.1-0.2,0.3-0.4,0.4-0.5c0-0.1,0.1-0.1,0.2-0.2c0.1-0.1,0.2-0.3,0.3-0.4c0,0,0.1-0.1,0.1-0.1c0,0,0.1-0.1,0.1-0.1
		c0.2-0.2,0.3-0.3,0.5-0.5c0,0,0.1,0,0.1-0.1c0.2-0.2,0.4-0.3,0.6-0.5c0,0,0,0,0,0c0.2-0.2,0.5-0.3,0.7-0.4c0,0,0,0,0,0
		c0.2-0.1,0.5-0.3,0.7-0.4c0.1,0,0.1,0,0.2-0.1c0.3-0.1,0.6-0.2,0.9-0.3c0.2-0.1,0.4-0.1,0.6-0.1c0.2,0,0.5-0.1,0.7-0.1
		c0.1,0,0.1,0,0.2,0c0.3,0,0.6,0,0.9,0c0,0,0,0,0,0h0h0c5,0,9,4,9,9c0,0.3,0,0.6,0,0.9c-0.3,3.4-2.6,6.2-5.6,7.5c0,0-0.1,0-0.1,0
		c-0.3,0.1-0.6,0.2-0.9,0.3c-0.1,0-0.2,0-0.3,0.1c-0.2,0.1-0.5,0.1-0.8,0.1c-0.1,0-0.2,0-0.3,0c-0.3,0-0.6,0.1-0.9,0.1
		c0,0-0.1,0-0.1,0c0,0-0.1,0-0.1,0c-0.3,0-0.6,0-0.9-0.1c-0.1,0-0.2,0-0.3,0c-0.3,0-0.5-0.1-0.8-0.1c-0.1,0-0.2,0-0.3-0.1
		c-0.3-0.1-0.6-0.2-0.9-0.3c0,0-0.1,0-0.1,0c-2.7-1.1-4.8-3.4-5.4-6.3c0-0.1,0-0.1,0-0.2c0-0.1,0-0.3-0.1-0.5c0-0.1-0.1-0.3-0.1-0.4
		c0-0.1,0-0.2,0-0.3c0-0.2,0-0.4,0-0.6c0,0,0,0,0-0.1c0-0.1,0-0.2,0-0.2c0-0.2,0-0.4,0-0.6c0-0.1,0-0.2,0-0.3c0-0.2,0.1-0.4,0.1-0.6
		c0-0.1,0-0.2,0.1-0.3c0-0.2,0.1-0.4,0.1-0.6c0-0.1,0.1-0.2,0.1-0.3c0.1-0.2,0.1-0.4,0.2-0.6c0-0.1,0.1-0.2,0.1-0.2
		C37,7.4,37.1,7.2,37.2,7.1z M29.3,11.3c1.5,0.1,3,0.4,4.5,0.9c0,0,0.1,0,0.1,0c0,0,0,0,0,0l0,0c0,0,0,0,0,0
		c0.3,3.2,1.9,6.1,4.5,8.1h-9.1V11.3z M29.3,22.6h14.8v0c1.3,3.6,1.3,7.6,0,11.3H29.3V22.6z M33.9,44.2
		C33.9,44.2,33.8,44.2,33.9,44.2c-1.5,0.5-3,0.8-4.6,0.9l0,0v-9h9.1C35.8,38,34.2,41,33.9,44.2z M51.4,51.6
		C51.4,51.6,51.4,51.6,51.4,51.6c-0.6,0.5-1.2,1-1.9,1.4c0,0,0,0,0,0c-2.7,1.5-6,1.5-8.7,0l0,0c0,0,0,0,0,0
		c-0.7-0.4-1.3-0.9-1.9-1.4c0,0,0,0,0,0c-1.4-1.3-2.2-3-2.6-4.7c0,0,0,0,0,0c-0.1-0.3-0.1-0.5-0.1-0.8c0-0.1,0-0.3,0-0.4
		c0-0.2,0-0.3,0-0.5c0,0,0-0.1,0-0.1c0-0.2,0-0.3,0-0.5c0-0.1,0-0.1,0-0.2c0.4-4.6,4.2-8.3,9-8.3c4.7,0,8.5,3.6,9,8.1
		c0,0.3,0.1,0.6,0.1,1C54.1,47.6,53.2,49.9,51.4,51.6z"/>
	<polygon class="st1" points="33.9,12.2 33.9,12.2 33.9,12.2 	"/>
	<path class="st2" d="M13.4,20c-0.3,0.1-0.5,0.1-0.8,0.2C12.9,20.2,13.1,20.1,13.4,20z"/>
	<path class="st2" d="M14.5,19.7c-0.3,0.1-0.6,0.2-0.9,0.3C13.9,19.9,14.2,19.8,14.5,19.7z"/>
	<path class="st2" d="M20.3,11.3C20.3,11.3,20.3,11.3,20.3,11.3c0,0.2,0,0.4,0,0.7C20.3,11.7,20.3,11.5,20.3,11.3z"/>
	<path class="st2" d="M10,20.2c-0.3,0-0.5-0.1-0.8-0.2C9.4,20.1,9.7,20.2,10,20.2z"/>
	<path class="st2" d="M11.3,20.3c-0.3,0-0.7,0-1-0.1C10.6,20.3,10.9,20.3,11.3,20.3z"/>
	<path class="st3" d="M11.3,15.8L11.3,15.8c2.1,0,3.8,1.4,4.4,3.4c-0.3,0.2-0.7,0.3-1,0.5c3.1-1.2,5.3-4.1,5.6-7.5
		c-0.2,2.1-1.2,4.1-2.7,5.6c-0.6-1.4-1.6-2.6-3-3.4c1.7-1.8,1.7-4.7-0.1-6.4C12.6,6.3,9.8,6.4,8,8.2c-1.7,1.7-1.7,4.5,0,6.2
		c-1.4,0.7-2.4,1.9-3,3.4c-1.4-1.3-2.3-3-2.6-4.9C3,16,5.1,18.5,7.9,19.7c-0.3-0.1-0.7-0.3-1-0.5C7.4,17.2,9.2,15.8,11.3,15.8z
		 M11.3,9c1.2,0,2.3,1,2.3,2.3s-1,2.3-2.3,2.3c-1.2,0-2.3-1-2.3-2.3S10,9,11.3,9z"/>
	<path class="st2" d="M8.9,20c-0.3-0.1-0.6-0.2-0.9-0.3C8.3,19.8,8.6,19.9,8.9,20z"/>
	<path class="st2" d="M11.3,20.3c0.4,0,0.7,0,1-0.1C12,20.3,11.6,20.3,11.3,20.3C11.3,20.3,11.3,20.3,11.3,20.3z"/>
	<path class="st2" d="M42.7,20c-0.3-0.1-0.6-0.2-0.9-0.3C42.2,19.8,42.5,19.9,42.7,20z"/>
	<path class="st2" d="M46.2,20.2c-0.3,0-0.6,0.1-0.9,0.1C45.5,20.3,45.9,20.3,46.2,20.2z"/>
	<path class="st2" d="M36.3,13.1c0-0.1,0-0.3-0.1-0.5C36.2,12.8,36.3,13,36.3,13.1z"/>
	<path class="st2" d="M48.4,19.7c-0.3,0.1-0.6,0.2-0.9,0.3C47.8,19.9,48.1,19.8,48.4,19.7z"/>
	<path class="st2" d="M36.2,12.3c0-0.1,0-0.2,0-0.3C36.1,12,36.1,12.2,36.2,12.3z"/>
	<path class="st2" d="M45,20.3c-0.3,0-0.6,0-0.9-0.1C44.4,20.3,44.7,20.3,45,20.3z"/>
	<path class="st2" d="M47.2,20c-0.2,0.1-0.5,0.1-0.8,0.1C46.7,20.2,47,20.1,47.2,20z"/>
	<path class="st2" d="M43.8,20.2c-0.3,0-0.5-0.1-0.8-0.1C43.3,20.1,43.5,20.2,43.8,20.2z"/>
	<path class="st2" d="M36.5,8.7c0-0.1,0.1-0.2,0.1-0.3C36.5,8.5,36.5,8.6,36.5,8.7z"/>
	<path class="st3" d="M48.4,14.4c1.7-1.8,1.7-4.7-0.1-6.4c-1.8-1.7-4.7-1.7-6.4,0.1c-1.7,1.7-1.7,4.5,0,6.2c-1.4,0.7-2.4,1.9-3,3.4
		c-1.3-1.3-2.1-2.8-2.5-4.4c0.7,2.9,2.7,5.2,5.4,6.3c-0.3-0.1-0.7-0.3-1-0.5c0.6-2.4,3.1-3.9,5.5-3.3c1.6,0.4,2.8,1.7,3.3,3.3
		c-0.3,0.2-0.7,0.3-1,0.5c3-1.2,5.3-4.1,5.6-7.5c-0.2,2.1-1.2,4.1-2.7,5.6C50.8,16.3,49.7,15.1,48.4,14.4z M45.1,13.5
		c-1.2,0-2.3-1-2.3-2.3l0,0c0-1.2,1-2.3,2.3-2.3s2.3,1,2.3,2.3C47.4,12.5,46.4,13.5,45.1,13.5z"/>
	<path class="st2" d="M36.9,7.6c0,0.1-0.1,0.2-0.1,0.2C36.8,7.8,36.9,7.7,36.9,7.6z"/>
	<path class="st2" d="M36.1,11.3C36.1,11.3,36.1,11.3,36.1,11.3c0,0,0-0.1,0-0.2C36.1,11.1,36.1,11.2,36.1,11.3z"/>
	<path class="st2" d="M36.3,9.6c0-0.1,0-0.2,0.1-0.3C36.3,9.4,36.3,9.5,36.3,9.6z"/>
	<path class="st2" d="M36.1,10.4c0-0.1,0-0.2,0-0.3C36.2,10.2,36.2,10.3,36.1,10.4z"/>
	<polygon class="st2" points="45.1,2.3 45.1,2.3 45.1,2.3 	"/>
	<path class="st2" d="M44,2.3c0.1,0,0.1,0,0.2,0C44.1,2.3,44.1,2.3,44,2.3z"/>
	<path class="st2" d="M40.1,3.8C40.1,3.8,40.1,3.8,40.1,3.8C40.1,3.8,40.1,3.8,40.1,3.8z"/>
	<path class="st2" d="M42.7,2.6c0.2-0.1,0.4-0.1,0.6-0.1C43.1,2.5,42.9,2.5,42.7,2.6z"/>
	<path class="st2" d="M40.8,3.4C40.8,3.3,40.8,3.3,40.8,3.4C40.8,3.3,40.8,3.3,40.8,3.4z"/>
	<path class="st2" d="M39.4,4.3C39.4,4.3,39.4,4.3,39.4,4.3C39.4,4.3,39.4,4.3,39.4,4.3z"/>
	<path class="st2" d="M38.1,5.6c0-0.1,0.1-0.1,0.2-0.2C38.2,5.5,38.2,5.5,38.1,5.6z"/>
	<path class="st2" d="M37.2,7.1c0-0.1,0.1-0.1,0.1-0.2C37.2,6.9,37.2,7,37.2,7.1z"/>
	<path class="st2" d="M41.6,3c0.1,0,0.1,0,0.2-0.1C41.7,2.9,41.7,2.9,41.6,3z"/>
	<path class="st2" d="M37.6,6.3c0-0.1,0.1-0.1,0.1-0.2C37.7,6.2,37.7,6.2,37.6,6.3z"/>
	<path class="st2" d="M38.7,4.9c0,0,0.1-0.1,0.1-0.1C38.8,4.8,38.8,4.9,38.7,4.9z"/>
	<path class="st2" d="M2.3,46c0-0.1,0-0.1,0-0.2C2.3,45.9,2.3,46,2.3,46z"/>
	<path class="st2" d="M17.6,38.6c1.6,1.5,2.5,3.4,2.7,5.4c-0.5-4.5-4.3-8-9-8c-4.4,0-8.1,3.2-8.9,7.5c0.3-1.7,1.1-3.3,2.4-4.7
		C8.3,35.3,14,35.2,17.6,38.6z"/>
	<path class="st2" d="M2.3,44.3c0-0.2,0-0.5,0.1-0.7C2.4,43.9,2.3,44.1,2.3,44.3z"/>
	<path class="st2" d="M2.3,45.1C2.3,45.1,2.3,45.1,2.3,45.1c0-0.1,0-0.2,0-0.4C2.3,44.8,2.3,44.9,2.3,45.1z"/>
	<path class="st3" d="M14.5,48.2c1.7-1.8,1.7-4.7-0.1-6.4C12.6,40.1,9.8,40.2,8,42c-1.7,1.7-1.7,4.5,0,6.2c-1.3,0.7-2.4,1.9-3,3.3
		c0.6,0.5,1.2,1,1.9,1.4c0.6-2.4,3.1-3.8,5.4-3.2c1.6,0.4,2.8,1.6,3.2,3.2c0.7-0.4,1.3-0.9,1.9-1.4C16.9,50.1,15.9,49,14.5,48.2z
		 M11.3,47.4c-1.2,0-2.3-1-2.3-2.3l0,0c0-1.2,1-2.3,2.3-2.3c1.2,0,2.3,1,2.3,2.3S12.5,47.4,11.3,47.4z"/>
	<path class="st2" d="M20.3,44.1c0,0.1,0,0.3,0,0.4C20.3,44.3,20.3,44.2,20.3,44.1z"/>
	<path class="st2" d="M20.3,45.1C20.3,45.1,20.3,45,20.3,45.1c0,0,0,0.1,0,0.1C20.3,45.1,20.3,45.1,20.3,45.1z"/>
	<path class="st2" d="M20.3,46C20.3,46,20.3,46,20.3,46C20.3,46,20.3,46,20.3,46z"/>
	<path class="st3" d="M48.4,48.2c1.7-1.8,1.7-4.7-0.1-6.4c-1.8-1.7-4.7-1.7-6.4,0.1c-1.7,1.7-1.7,4.5,0,6.2c-1.3,0.7-2.4,1.9-3,3.3
		c0.6,0.5,1.2,1,1.9,1.4c0.6-2.4,3.1-3.8,5.4-3.2c1.6,0.4,2.8,1.6,3.2,3.2c0.7-0.4,1.3-0.9,1.9-1.4C50.8,50.1,49.7,49,48.4,48.2z
		 M45.1,47.4c-1.2,0-2.3-1-2.3-2.3c0,0,0,0,0,0l0,0c0-1.2,1-2.3,2.3-2.3c1.2,0,2.3,1,2.3,2.3C47.4,46.4,46.4,47.4,45.1,47.4z"/>
	<path class="st2" d="M36.2,46c0-0.1,0-0.3,0-0.4C36.1,45.8,36.1,45.9,36.2,46z"/>
	<path class="st2" d="M51.4,38.6c1.5,1.5,2.5,3.5,2.7,5.6c-0.5-4.6-4.3-8.1-9-8.1c-4.7,0-8.6,3.7-9,8.3c0.2-2,1-4,2.5-5.5
		C42.1,35.3,47.8,35.2,51.4,38.6z"/>
	<path class="st2" d="M36.3,46.9C36.3,46.9,36.3,46.9,36.3,46.9C36.3,46.9,36.3,46.9,36.3,46.9z"/>
	<path class="st2" d="M36.1,45.1c0,0,0,0.1,0,0.1c0-0.2,0-0.4,0-0.6C36.1,44.7,36.1,44.9,36.1,45.1z"/>
</g>
</svg>
