<svg xmlns="http://www.w3.org/2000/svg" width="326" height="78" viewBox="0 0 326 78">
  <g id="Group_209" data-name="Group 209" transform="translate(11464.728 -9192.4)">
    <g id="Rectangle_747" data-name="Rectangle 747" transform="translate(-11464.728 9192.4)" fill="#fff" stroke="#707070" stroke-width="1">
      <rect width="326" height="78" stroke="none"/>
      <rect x="0.5" y="0.5" width="325" height="77" fill="none"/>
    </g>
    <g id="Group_26" data-name="Group 26" transform="translate(-11438.867 9214.174)">
      <g id="Group_24" data-name="Group 24" transform="translate(134.144 0)">
        <path id="Path_268" data-name="Path 268" d="M319.247,315.749a11.583,11.583,0,0,1-5.07,3.382,21.346,21.346,0,0,1-7.287,1.24,14.458,14.458,0,0,1-7.386-1.785,12.239,12.239,0,0,1-4.929-5.294,18.748,18.748,0,0,1-1.824-8.194l-.015-2.2a19.911,19.911,0,0,1,1.577-8.407,12.1,12.1,0,0,1,4.679-5.459,13.584,13.584,0,0,1,7.2-1.929q5.76-.039,9.027,2.686a11.741,11.741,0,0,1,3.9,7.97l-6.495.044a6.459,6.459,0,0,0-2-4.057,6.288,6.288,0,0,0-4.2-1.261,5.917,5.917,0,0,0-5.165,2.592q-1.761,2.571-1.749,7.619l.014,2.069q.034,5.093,1.988,7.682a6.624,6.624,0,0,0,5.689,2.563q3.757-.025,5.349-1.638l-.039-5.582-6.071.041-.034-4.915,12.744-.087Z" transform="translate(-292.736 -286.319)" fill="#0089d2"/>
        <path id="Path_269" data-name="Path 269" d="M422.336,312.794l-11.7.08-2.178,6.688-7.1.049L413.2,287.144l6.183-.042,12.342,32.3-7.095.048Zm-9.934-5.337,8.1-.055-4.153-12.094Z" transform="translate(-340.722 -286.319)" fill="#0089d2"/>
        <path id="Path_270" data-name="Path 270" d="M465.832,313.871l14.168-.1.037,5.36-20.84.142-.221-32.383,6.672-.046Z" transform="translate(-366.173 -286.207)" fill="#0089d2"/>
        <path id="Path_271" data-name="Path 271" d="M517.365,310a3.424,3.424,0,0,0-1.354-2.893,17.539,17.539,0,0,0-4.819-2.1,34.009,34.009,0,0,1-5.509-2.175q-5.536-2.943-5.57-7.991a7.824,7.824,0,0,1,1.447-4.692,9.651,9.651,0,0,1,4.226-3.243A16,16,0,0,1,512,285.7a14.558,14.558,0,0,1,6.191,1.215,9.843,9.843,0,0,1,4.239,3.519,9.288,9.288,0,0,1,1.537,5.194l-6.672.046a4.367,4.367,0,0,0-1.425-3.449,5.758,5.758,0,0,0-3.945-1.207,6.153,6.153,0,0,0-3.8,1.06,3.26,3.26,0,0,0-1.338,2.734,3.124,3.124,0,0,0,1.608,2.636,17.953,17.953,0,0,0,4.695,1.969q5.706,1.674,8.326,4.192a8.461,8.461,0,0,1,2.645,6.3,7.792,7.792,0,0,1-3.136,6.616q-3.164,2.412-8.546,2.449a16.529,16.529,0,0,1-6.816-1.321,10.764,10.764,0,0,1-4.707-3.716,9.6,9.6,0,0,1-1.65-5.5l6.7-.046q.036,5.361,6.442,5.317a6.234,6.234,0,0,0,3.708-.993A3.146,3.146,0,0,0,517.365,310Z" transform="translate(-383.945 -285.7)" fill="#0089d2"/>
      </g>
      <g id="Group_25" data-name="Group 25" transform="translate(163.031 0.921)">
        <path id="Path_272" data-name="Path 272" d="M354.526,302.7A9.357,9.357,0,0,1,356,300.8l-4.832-5.3A16.54,16.54,0,0,0,348.1,299.5Z" transform="translate(-346.081 -290.953)" fill="#5aa61f"/>
        <path id="Path_273" data-name="Path 273" d="M380.828,296.384a9.2,9.2,0,0,1,2.026,1.269l4.845-5.29a16.5,16.5,0,0,0-4.294-2.679Z" transform="translate(-360.538 -288.382)" fill="#d39400"/>
        <path id="Path_274" data-name="Path 274" d="M395.621,304.539l-6.421,3.2a9.175,9.175,0,0,1,.643,2.269l7.143-.674a16.3,16.3,0,0,0-1.365-4.8" transform="translate(-364.236 -294.943)" fill="#b7001e"/>
        <path id="Path_275" data-name="Path 275" d="M387.248,302.926l6.42-3.2a16.494,16.494,0,0,0-3-3.984l-4.845,5.288a9.322,9.322,0,0,1,1.425,1.9" transform="translate(-362.745 -291.057)" fill="#25862a"/>
        <path id="Path_276" data-name="Path 276" d="M351.652,315.937c0-.145,0-.289.012-.432l-7.145-.64c-.022.354-.036.711-.036,1.072a16.473,16.473,0,0,0,.486,3.974l6.9-1.98a9.246,9.246,0,0,1-.218-1.995" transform="translate(-344.482 -299.505)" fill="#3d6726"/>
        <path id="Path_277" data-name="Path 277" d="M385.385,327.3a9.4,9.4,0,0,1-1.742,1.639l3.773,6.108a16.582,16.582,0,0,0,3.694-3.43Z" transform="translate(-361.782 -305)" fill="#ffad00"/>
        <path id="Path_278" data-name="Path 278" d="M390.363,315.987a9.149,9.149,0,0,1-.213,1.972l6.9,1.982a16.378,16.378,0,0,0,.482-3.954q0-.507-.032-1.009l-7.144.675c0,.112.007.222.007.334" transform="translate(-364.656 -299.555)" fill="#e01f10"/>
        <path id="Path_279" data-name="Path 279" d="M356.78,327.549l-5.71,4.34a16.543,16.543,0,0,0,3.729,3.378l3.772-6.1a9.343,9.343,0,0,1-1.791-1.618" transform="translate(-347.392 -305.108)" fill="#f68e00"/>
        <path id="Path_280" data-name="Path 280" d="M351.874,309.812a9.158,9.158,0,0,1,.684-2.3l-6.419-3.2a16.321,16.321,0,0,0-1.416,4.858Z" transform="translate(-344.588 -294.844)" fill="#0064ae"/>
        <path id="Path_281" data-name="Path 281" d="M384.107,337.345l-3.766-6.1a9.242,9.242,0,0,1-2.2.893l1.33,7.056a16.321,16.321,0,0,0,4.636-1.849" transform="translate(-359.352 -306.741)" fill="#830025"/>
        <path id="Path_282" data-name="Path 282" d="M388.864,322.106a9.264,9.264,0,0,1-1,2.065l5.729,4.321a16.362,16.362,0,0,0,2.168-4.405Z" transform="translate(-363.645 -302.704)" fill="#0098d1"/>
        <path id="Path_283" data-name="Path 283" d="M373.36,333.214a9.148,9.148,0,0,1-2.416.034l-1.329,7.056a16.533,16.533,0,0,0,5.073-.04Z" transform="translate(-355.585 -307.611)" fill="#e85200"/>
        <path id="Path_284" data-name="Path 284" d="M374.989,294.536a9.193,9.193,0,0,1,2.294.443l2.577-6.7a16.319,16.319,0,0,0-4.871-.922Z" transform="translate(-357.959 -287.354)" fill="#db0015"/>
        <path id="Path_285" data-name="Path 285" d="M365.379,332.277a9.2,9.2,0,0,1-2.275-.86l-3.774,6.1a16.377,16.377,0,0,0,4.722,1.8Z" transform="translate(-351.041 -306.817)" fill="#cd0068"/>
        <path id="Path_286" data-name="Path 286" d="M366.885,294.942a9.2,9.2,0,0,1,2.342-.416V287.35a16.353,16.353,0,0,0-4.936.9Z" transform="translate(-353.233 -287.35)" fill="#002555"/>
        <path id="Path_287" data-name="Path 287" d="M353.852,324.338a9.194,9.194,0,0,1-1.094-2.192l-6.9,1.979a16.352,16.352,0,0,0,2.278,4.553Z" transform="translate(-345.092 -302.721)" fill="#cd7d00"/>
        <path id="Path_288" data-name="Path 288" d="M359.815,297.517a9.274,9.274,0,0,1,1.988-1.2l-2.593-6.689a16.44,16.44,0,0,0-4.229,2.59Z" transform="translate(-349.12 -288.355)" fill="#003d76"/>
      </g>
      <path id="Path_289" data-name="Path 289" d="M60,298.036a1.368,1.368,0,0,0-.516-1.138,6.429,6.429,0,0,0-1.817-.844,17.383,17.383,0,0,1-2.124-.844q-2.684-1.318-2.683-3.622a3.248,3.248,0,0,1,.669-2.025,4.33,4.33,0,0,1,1.891-1.365,7.366,7.366,0,0,1,2.75-.488,6.439,6.439,0,0,1,2.669.531,4.222,4.222,0,0,1,1.835,1.512A3.95,3.95,0,0,1,63.325,292H60.006a1.669,1.669,0,0,0-.517-1.309,2.016,2.016,0,0,0-1.4-.464,2.273,2.273,0,0,0-1.408.394,1.158,1.158,0,0,0,.052,1.963,7.153,7.153,0,0,0,2,.892,12.266,12.266,0,0,1,2.352.991,3.954,3.954,0,0,1,2.238,3.556,3.37,3.37,0,0,1-1.366,2.845,6.07,6.07,0,0,1-3.745,1.034,7.429,7.429,0,0,1-3.039-.6,4.586,4.586,0,0,1-2.049-1.65,4.3,4.3,0,0,1-.687-2.414h3.338a2.117,2.117,0,0,0,.574,1.636,2.712,2.712,0,0,0,1.863.526,2.146,2.146,0,0,0,1.3-.355A1.175,1.175,0,0,0,60,298.036Z" transform="translate(-52.439 -286.588)" fill="#0089d2"/>
      <path id="Path_290" data-name="Path 290" d="M86.137,288.049v9.037a5.188,5.188,0,0,1-.654,2.66,4.234,4.234,0,0,1-1.877,1.712,6.616,6.616,0,0,1-2.892.588,5.714,5.714,0,0,1-3.974-1.309,4.669,4.669,0,0,1-1.479-3.585v-9.1h3.348v9.17q.057,2.267,2.105,2.266a2.038,2.038,0,0,0,1.565-.569,2.658,2.658,0,0,0,.531-1.849v-9.018Z" transform="translate(-62.52 -286.738)" fill="#0089d2"/>
      <path id="Path_291" data-name="Path 291" d="M105.589,298.036a1.368,1.368,0,0,0-.517-1.138,6.424,6.424,0,0,0-1.816-.844,17.31,17.31,0,0,1-2.124-.844q-2.684-1.318-2.684-3.622a3.248,3.248,0,0,1,.669-2.025,4.328,4.328,0,0,1,1.892-1.365,7.363,7.363,0,0,1,2.75-.488,6.442,6.442,0,0,1,2.67.531,4.228,4.228,0,0,1,1.835,1.512,3.954,3.954,0,0,1,.654,2.243H105.6a1.671,1.671,0,0,0-.517-1.309,2.017,2.017,0,0,0-1.4-.464,2.274,2.274,0,0,0-1.408.394,1.159,1.159,0,0,0,.052,1.963,7.161,7.161,0,0,0,2,.892,12.266,12.266,0,0,1,2.352.991,3.953,3.953,0,0,1,2.238,3.556,3.37,3.37,0,0,1-1.365,2.845,6.073,6.073,0,0,1-3.746,1.034,7.433,7.433,0,0,1-3.039-.6,4.587,4.587,0,0,1-2.048-1.65,4.3,4.3,0,0,1-.688-2.414h3.338a2.119,2.119,0,0,0,.574,1.636,2.713,2.713,0,0,0,1.863.526,2.146,2.146,0,0,0,1.3-.355A1.174,1.174,0,0,0,105.589,298.036Z" transform="translate(-72.58 -286.588)" fill="#0089d2"/>
      <path id="Path_292" data-name="Path 292" d="M131.222,290.619h-4.144v11.237h-3.328V290.619h-4.068v-2.57h11.541Z" transform="translate(-82.144 -286.738)" fill="#0089d2"/>
      <path id="Path_293" data-name="Path 293" d="M148.171,299.277h-4.561l-.8,2.579h-3.556l5.064-13.807h3.13l5.1,13.807h-3.575Zm-3.764-2.57h2.968l-1.489-4.789Z" transform="translate(-90.792 -286.738)" fill="#0089d2"/>
      <path id="Path_294" data-name="Path 294" d="M168.948,301.856h-3.319V288.049h3.319Z" transform="translate(-102.441 -286.738)" fill="#0089d2"/>
      <path id="Path_295" data-name="Path 295" d="M187.6,301.856h-3.31l-4.893-8.591v8.591h-3.329V288.049H179.4l4.884,8.591v-8.591H187.6Z" transform="translate(-107.052 -286.738)" fill="#0089d2"/>
      <path id="Path_296" data-name="Path 296" d="M208.143,299.277h-4.561l-.8,2.579h-3.556l5.064-13.807h3.13l5.1,13.807h-3.576Zm-3.765-2.57h2.968l-1.489-4.789Z" transform="translate(-117.284 -286.738)" fill="#0089d2"/>
      <path id="Path_297" data-name="Path 297" d="M225.193,301.856V288.049h4.959a7.025,7.025,0,0,1,4.054.977,3.251,3.251,0,0,1,1.389,2.835,3.286,3.286,0,0,1-.493,1.831,2.872,2.872,0,0,1-1.451,1.119,2.91,2.91,0,0,1,1.66,1.062,3.086,3.086,0,0,1,.578,1.9,3.657,3.657,0,0,1-1.285,3.049,6.115,6.115,0,0,1-3.808,1.038Zm3.329-8.051h1.735a2.468,2.468,0,0,0,1.555-.4,1.418,1.418,0,0,0,.464-1.151,1.488,1.488,0,0,0-.5-1.26,2.692,2.692,0,0,0-1.622-.385h-1.631Zm0,2.181v3.31H230.7a2.078,2.078,0,0,0,1.384-.413,1.445,1.445,0,0,0,.483-1.162,1.531,1.531,0,0,0-1.717-1.736Z" transform="translate(-128.754 -286.738)" fill="#0089d2"/>
      <path id="Path_298" data-name="Path 298" d="M251.309,299.3H257.1v2.56h-9.122V288.049h3.328Z" transform="translate(-138.821 -286.738)" fill="#0089d2"/>
      <path id="Path_299" data-name="Path 299" d="M275.747,296h-5.235v3.3H276.7v2.56h-9.512V288.049h9.53v2.57h-6.2v2.911h5.235Z" transform="translate(-147.304 -286.738)" fill="#0089d2"/>
      <path id="Path_300" data-name="Path 300" d="M53.2,335.528V322h4.358a6.41,6.41,0,0,1,3.224.813,5.718,5.718,0,0,1,2.235,2.295,6.928,6.928,0,0,1,.813,3.322v.622a6.968,6.968,0,0,1-.785,3.332,5.742,5.742,0,0,1-2.211,2.3,6.265,6.265,0,0,1-3.183.841Zm3.261-11.01v8.5H57.59a2.538,2.538,0,0,0,2.156-1,4.894,4.894,0,0,0,.753-2.969v-.585a4.855,4.855,0,0,0-.753-2.955,2.582,2.582,0,0,0-2.193-.994Z" transform="translate(-52.773 -301.736)" fill="#0089d2"/>
      <path id="Path_301" data-name="Path 301" d="M82.61,329.786H77.822v3.233h5.718v2.509H74.56V322h9v2.518H77.822v2.853H82.61Z" transform="translate(-62.211 -301.736)" fill="#0089d2"/>
      <path id="Path_302" data-name="Path 302" d="M98.47,331.849,101.165,322h3.643l-4.553,13.528H96.687L92.171,322h3.614Z" transform="translate(-69.991 -301.736)" fill="#0089d2"/>
      <path id="Path_303" data-name="Path 303" d="M124.575,329.786h-4.742v3.233H125.5v2.509h-8.932V322h8.951v2.518h-5.69v2.853h4.742Z" transform="translate(-80.77 -301.736)" fill="#0089d2"/>
      <path id="Path_304" data-name="Path 304" d="M137.841,333.019H143v2.509H134.58V322h3.261Z" transform="translate(-88.725 -301.736)" fill="#0089d2"/>
      <path id="Path_305" data-name="Path 305" d="M162.035,328.9a7.974,7.974,0,0,1-.734,3.5,5.422,5.422,0,0,1-2.086,2.346,5.81,5.81,0,0,1-3.08.822,5.889,5.889,0,0,1-3.066-.794,5.412,5.412,0,0,1-2.086-2.271,7.748,7.748,0,0,1-.785-3.391v-.762a8.014,8.014,0,0,1,.729-3.507,5.412,5.412,0,0,1,2.091-2.346,5.851,5.851,0,0,1,3.1-.827,5.789,5.789,0,0,1,3.066.818,5.511,5.511,0,0,1,2.1,2.327,7.782,7.782,0,0,1,.757,3.461Zm-3.317-.567a5.69,5.69,0,0,0-.673-3.061,2.161,2.161,0,0,0-1.928-1.046q-2.453,0-2.592,3.679l-.009.994a5.851,5.851,0,0,0,.66,3.057,2.157,2.157,0,0,0,1.961,1.068,2.131,2.131,0,0,0,1.9-1.05,5.69,5.69,0,0,0,.678-3.02Z" transform="translate(-95.625 -301.589)" fill="#0089d2"/>
      <path id="Path_306" data-name="Path 306" d="M176.983,330.938v4.59h-3.261V322h5.4a6.29,6.29,0,0,1,2.745.571,4.314,4.314,0,0,1,1.849,1.626,4.441,4.441,0,0,1,.655,2.393,3.915,3.915,0,0,1-1.417,3.164,5.878,5.878,0,0,1-3.888,1.185Zm0-2.518h2.137a2.017,2.017,0,0,0,1.445-.474,1.762,1.762,0,0,0,.5-1.338,2.175,2.175,0,0,0-.511-1.515,1.812,1.812,0,0,0-1.393-.576h-2.174Z" transform="translate(-106.016 -301.736)" fill="#0089d2"/>
      <path id="Path_307" data-name="Path 307" d="M199.222,322l3.02,9.412L205.253,322h4.292v13.528h-3.271v-3.159l.316-6.467-3.27,9.625h-2.156l-3.28-9.635.316,6.476v3.159h-3.261V322Z" transform="translate(-115.389 -301.736)" fill="#0089d2"/>
      <path id="Path_308" data-name="Path 308" d="M231.769,329.786h-4.8v3.233H232.7v2.509h-8.993V322h9.011v2.518h-5.75v2.853h4.8Z" transform="translate(-128.097 -301.736)" fill="#0089d2"/>
      <path id="Path_309" data-name="Path 309" d="M253.078,335.528h-3.243l-4.794-8.418v8.418H241.78V322h3.262l4.785,8.418V322h3.252Z" transform="translate(-136.081 -301.736)" fill="#0089d2"/>
      <path id="Path_310" data-name="Path 310" d="M275.308,324.518h-4.061v11.01h-3.262v-11.01H264V322h11.308Z" transform="translate(-145.897 -301.736)" fill="#0089d2"/>
    </g>
  </g>
</svg>
