<svg id="react" xmlns="http://www.w3.org/2000/svg" width="46.656" height="41.51" viewBox="0 0 46.656 41.51">
  <path id="Path_107" data-name="Path 107" d="M38.36,13.454q-.726-.25-1.5-.473.127-.52.232-1.024c1.137-5.519.393-9.965-2.145-11.428-2.434-1.4-6.414.06-10.434,3.558q-.58.5-1.162,1.066-.387-.37-.773-.714C18.363.7,14.14-.879,11.6.589,9.173,2,8.453,6.176,9.476,11.407q.148.758.345,1.546c-.6.17-1.175.351-1.727.543C3.155,15.217,0,17.916,0,20.716c0,2.891,3.386,5.792,8.531,7.55q.609.208,1.261.395-.211.851-.366,1.665c-.976,5.139-.214,9.22,2.211,10.619,2.5,1.444,6.709-.04,10.8-3.619q.486-.424.974-.9.633.609,1.261,1.151c3.965,3.412,7.881,4.79,10.3,3.387,2.5-1.449,3.316-5.833,2.26-11.166q-.121-.611-.28-1.247.443-.131.868-.271c5.349-1.772,8.829-4.637,8.829-7.567,0-2.81-3.256-5.527-8.3-7.262ZM37.2,26.391q-.383.127-.784.245a46.755,46.755,0,0,0-2.362-5.911A46.741,46.741,0,0,0,36.325,14.9q.716.207,1.387.437c4.317,1.486,6.951,3.684,6.951,5.377,0,1.8-2.844,4.145-7.462,5.675Zm-1.916,3.8a16.88,16.88,0,0,1,.224,6.158,4.118,4.118,0,0,1-1.528,2.9c-1.47.851-4.615-.255-8.006-3.173q-.583-.5-1.173-1.07a46.8,46.8,0,0,0,3.911-4.966,46.517,46.517,0,0,0,6.319-.974q.143.576.253,1.129ZM15.906,39.1a4.119,4.119,0,0,1-3.272.123c-1.472-.849-2.083-4.125-1.249-8.52q.143-.755.34-1.549a46.879,46.879,0,0,0,6.287.91,48.528,48.528,0,0,0,4.005,4.948q-.446.431-.889.819a16.881,16.881,0,0,1-5.223,3.27ZM9.176,26.38a16.882,16.882,0,0,1-5.442-2.891,4.118,4.118,0,0,1-1.741-2.773c0-1.7,2.533-3.866,6.757-5.339.513-.179,1.049-.347,1.606-.505a47.776,47.776,0,0,0,2.274,5.892,48.559,48.559,0,0,0-2.3,5.976q-.6-.171-1.152-.361Zm2.256-15.356c-.877-4.481-.294-7.861,1.171-8.71,1.561-.9,5.012.385,8.65,3.615q.349.31.7.646a47.756,47.756,0,0,0-3.974,4.918,48.711,48.711,0,0,0-6.226.968q-.182-.733-.321-1.437Zm20.125,4.969q-.692-1.2-1.419-2.333c1.489.188,2.915.438,4.254.744A42.563,42.563,0,0,1,32.9,18.421q-.635-1.205-1.342-2.428ZM23.35,8A42.63,42.63,0,0,1,26.1,11.314q-1.369-.065-2.768-.066t-2.746.064c.907-1.2,1.835-2.306,2.769-3.313Zm-8.26,8.007q-.692,1.2-1.317,2.413c-.58-1.377-1.077-2.73-1.483-4.037,1.331-.3,2.751-.541,4.23-.726q-.735,1.146-1.43,2.35Zm1.473,11.91a42.418,42.418,0,0,1-4.3-.691c.412-1.33.92-2.713,1.512-4.119q.626,1.21,1.323,2.414h0q.709,1.224,1.465,2.4Zm6.842,5.655c-.945-1.019-1.887-2.147-2.807-3.359q1.34.052,2.73.053,1.426,0,2.816-.063a42.4,42.4,0,0,1-2.739,3.369Zm9.513-10.537a42.261,42.261,0,0,1,1.567,4.1,42.281,42.281,0,0,1-4.352.742q.727-1.151,1.432-2.374t1.353-2.472Zm-3.08,1.476c-.729,1.265-1.478,2.472-2.238,3.611-1.385.1-2.815.15-4.273.15s-2.864-.045-4.224-.133c-.791-1.155-1.556-2.365-2.28-3.617h0c-.723-1.248-1.388-2.507-1.991-3.759.6-1.255,1.266-2.515,1.985-3.761h0c.72-1.249,1.479-2.454,2.262-3.6,1.387-.1,2.81-.16,4.248-.16h0c1.444,0,2.869.055,4.256.161.771,1.139,1.525,2.34,2.248,3.589s1.4,2.516,2.011,3.743c-.606,1.249-1.276,2.514-2,3.777ZM33.95,2.255c1.562.9,2.17,4.535,1.188,9.3q-.094.456-.21.928a47.745,47.745,0,0,0-6.238-.985,46.807,46.807,0,0,0-3.944-4.922q.538-.517,1.073-.984c3.444-3,6.664-4.181,8.13-3.335ZM23.328,16.55a4.166,4.166,0,1,1-4.166,4.166,4.166,4.166,0,0,1,4.166-4.166Z" transform="translate(0 0)" fill="#00d8ff"/>
</svg>
