<svg id="Layer_1" data-name="Layer 1" xmlns="http://www.w3.org/2000/svg" xmlns:xlink="http://www.w3.org/1999/xlink" viewBox="0 0 2584.24 1454.46"><defs><style>.cls-1{fill:none;}.cls-2{fill:#c5e1f9;}.cls-3{fill:#8cb7ea;}.cls-4{fill:#97c2f0;}.cls-5{fill:#80afe3;}.cls-6{fill:#d4ebff;}.cls-7{fill:#ffb27d;}.cls-8{fill:#e2915a;}.cls-9{fill:#233862;}.cls-10{fill:#2b478b;}.cls-11{fill:#e9f3fe;}.cls-12{fill:#22407a;}.cls-13{fill:#d9e9f9;}.cls-14{fill:#ba4c43;}.cls-15{fill:#c65447;}.cls-16{fill:#5f9cce;}.cls-17{fill:#73a8dd;}.cls-18{clip-path:url(#clip-path);}.cls-19{fill:#e49963;}.cls-20{fill:#163560;}.cls-21{fill:#e58638;}.cls-22{fill:#d68d5d;}.cls-23{fill:#a8d29f;}.cls-24{fill:#82b378;}.cls-25{fill:#b27f5d;}.cls-26{fill:#c6916d;}.cls-27{fill:#916140;}.cls-28{fill:#e5bd9e;}.cls-29{fill:#f4a269;}.cls-30{fill:#1c468a;}.cls-31{fill:#6bb7bf;}.cls-32{fill:#599dad;}.cls-33{fill:#d86713;}.cls-34{fill:#f1a34f;}.cls-35{fill:#9fc1f4;}.cls-36{fill:#719dd3;}.cls-37{fill:#ffb973;}.cls-38{fill:#d0e0f7;}.cls-39{fill:#a03732;}.cls-40{fill:#699dee;}.cls-41{fill:#e2810e;}.cls-42{fill:#ffb93e;}.cls-43{fill:#ffa412;}.cls-44,.cls-45{fill:#fff;}.cls-44{opacity:0.2;}.cls-45{opacity:0.3;}.cls-46{fill:#9c5f33;}.cls-47{fill:#ab7041;}.cls-48{fill:#ee9849;}.cls-49{fill:#7f3f98;}</style><clipPath id="clip-path"><rect class="cls-1" x="789.85" y="294.57" width="1184.72" height="1164.78"/></clipPath></defs><path class="cls-2" d="M2584.24,812.83c-.6-211.84-93.6-420.25-244.34-550.76q-21.89-18.94-45.38-35.62c-99-70.32-218.51-108.67-350.43-97.9-368,30-406.6-120.57-675.68-126.48C1035.89-3,712,38.9,410,323.08A1476.27,1476.27,0,0,0,269.58,475.8c-338.38,422.55-114.64,981-114.64,981l255.5,1.28H2461.1S2585.24,1175,2584.24,812.83Z"/><path class="cls-3" d="M2294.52,226.45V1456.83l-1884.08,1.28-.46-1135C686.75,62.69,981.81,5.69,1208.15,1.9c20.69-.36,40.79-.26,60.26.17C1447.8,6,1524.75,74.25,1665.17,110.41c70.19,18.09,156.27,28.14,278.92,18.14C2076,117.78,2195.48,156.13,2294.52,226.45Z"/><path class="cls-4" d="M1665.17,110.41,410,1228.39V667.14L1208.15,1.9c20.69-.36,40.79-.26,60.26.17C1447.8,6,1524.75,74.25,1665.17,110.41Z"/><polygon class="cls-5" points="2294.52 734.1 2294.52 1410.38 2242.07 1457.11 1421.71 1461.54 2294.52 734.1"/><rect class="cls-6" x="711.18" y="294.57" width="1342.07" height="1163.54"/><rect class="cls-2" x="1004.43" y="294.57" width="4.98" height="1166.97"/><rect class="cls-2" x="1272.95" y="294.57" width="4.98" height="1166.97"/><rect class="cls-2" x="1514.64" y="294.57" width="4.98" height="1166.97"/><rect class="cls-2" x="1755.03" y="294.57" width="4.98" height="1166.97"/><path class="cls-7" d="M416.8,582.28l0,6.66s1.79,20.83-23.6,23.87-46.21,2.64-45.52-13.43c2.28-12.44,6.38-31.76,6.55-42.06a74,74,0,0,0-.9-12.47l49.2-1L417,546.25Z"/><path class="cls-8" d="M417,546.25l-.19,36c-8.27-.52-15.79-1.33-21.95-3.76-25.5-10.08-40.85-29.09-41.55-33.67l49.2-1Z"/><path class="cls-7" d="M349.53,536.85c5.71,31,45.35,30,62.48,28.07,4.82-.55,7.86-1.17,7.86-1.17,5.43-1.46,8.47-10.11,9.88-21.44,2.79-22.42-.74-55.34-4.49-63.75-5.64-12.67-16.27-26.37-56.2-16.49S342.2,497.09,349.53,536.85Z"/><path class="cls-9" d="M317.09,1455.68h56.17a137.06,137.06,0,0,0-4.48-20.37,57.9,57.9,0,0,0-3.18-8.17c-5.46-11-40.16-4-40.16-4s-3.22,2.79-5.74,13.44A113.55,113.55,0,0,0,317.09,1455.68Z"/><path class="cls-9" d="M486.85,1437.77c.15,7.72,1.11,15,3.88,17.91H601.85c-1.41-4.06-5.41-10.17-16.82-12-13-2.12-33.17-8.42-45-21a33.81,33.81,0,0,1-8.71-15.92c-5.23-23.51-43.22,7.2-43.22,7.2A190.92,190.92,0,0,0,486.85,1437.77Z"/><path class="cls-10" d="M412.94,1183.64a178.16,178.16,0,0,1,2.79,20.73c3.53,69.6,58,228.73,67.74,232.44,15.08,5.75,38.81-6.47,51.23-10.46,5.15-1.66,8.62-6.91,7.48-12.23-27-125.25-36.89-305.61-40.5-412.39-1.82-53.79-11-90.94-11-90.94S357.88,875,357.09,920.28C356.39,960.35,401.09,1117.52,412.94,1183.64Z"/><path class="cls-9" d="M412.94,1183.64l88.74-181.91c-1.82-53.79-11-90.94-11-90.94S357.88,875,357.09,920.28C356.39,960.35,401.09,1117.52,412.94,1183.64Z"/><path class="cls-10" d="M442.5,920.44l-70.23,514.12s-30.84,7.51-54.83,1.5c0,0-20.56-273.43-18.84-339.54s-14.76-176.88,3.76-189.1S442.5,920.44,442.5,920.44Z"/><path class="cls-9" d="M437.51,449a131,131,0,0,1-38.3-10.46c-16.82-7.39-38,.75-44.93,4.41a10.41,10.41,0,0,1,1.68-4.19s-3.1,2.22-3.55,5.32c-.32.23-.46.4-.38.45s-3.51-.64-5.76.38c0,0,1.58-.23,2.14.8a1.29,1.29,0,0,0,.25.28c-26.24,12.8-28.66,54.7-20.22,64.39,10.16,11.66,22.34,37.93,22.34,37.93s4.45-6.21,2.6-16.47,6.93-10.26,18-14.93,1.85-17.73,11.54-25.66,45.26-3.26,44.8-9.33C440.93,477.08,437.51,450.38,437.51,449Z"/><path class="cls-11" d="M341.66,608.31l16.17,350.43S492.77,961,488.92,930.12,440.28,619,440.28,619Z"/><path class="cls-12" d="M293.48,806.94c8,24.33-7.11,106-12.51,133.62-1.18,5.85-2,9.3-2,9.3,18.69,30.71,87.13,30.32,87.13,30.32,13.16-58.77,20-152.36,20-152.36L333.62,595.28,267.55,657s5,37.63,11.19,75.92C283.61,763.2,289.13,794.05,293.48,806.94Z"/><path class="cls-12" d="M481.63,613.31s0,.06,0,.15c3.19,3.12,93.28,91.47,110.73,126.07,17.77,35.11-81.21,105-81.21,105s-6.37,2.54-10.79,1.54c4.67,38.82,9.91,74.63,6.8,89.91-5.61,27.63-30.91,36.91-30.91,34.78,0-.67-9.25-100.39-14.28-152.42C451.23,706.81,424.24,596,424.24,596,453.7,599.08,481.63,613.31,481.63,613.31Zm53.64,141.38a.81.81,0,0,0,.13-.53c0-5-19.09-16.22-39.75-29.38l-.4-.4,0,0c.37,10.75.33,21.3-.3,31.12-1.17,18.22.13,40,2.32,62.16C507.07,802.11,533.35,760.41,535.27,754.69Z"/><path class="cls-13" d="M337.83,594.86c-.16-3.34,15.52-8,15.52-8S371.3,612,400.87,612.47c0,0-8.43,16.57-18.36,20.86C382.51,633.33,338.81,614.72,337.83,594.86Z"/><path class="cls-13" d="M400.87,611.88s15.67-9.38,15.72-19.55c0,0,10.12-1.28,14.54,3.68,0,0,3.71,17.43-1.21,27.55C429.92,623.56,407.36,620.09,400.87,611.88Z"/><path class="cls-14" d="M390.24,610.37l21.24-5.14s2.77.25,2.7,3.74-6,13.71-8.6,14.52S385.21,617.45,390.24,610.37Z"/><path class="cls-11" d="M340.31,593.14c-.17-3.35,10.45-10.24,10.45-10.24s20.54,24.26,50.11,24.69c0,0-8.43,16.57-18.36,20.86C382.51,628.45,341.28,613,340.31,593.14Z"/><path class="cls-11" d="M400.87,607.59s15.85-8.48,15.9-18.65c0,0,9.56,4.25,14,9.2,0,0,4.09,11-.83,21.13C429.92,619.27,407.36,615.8,400.87,607.59Z"/><path class="cls-15" d="M442.4,849.31A33.18,33.18,0,0,1,432,870.69l-9.41,8.76a5.47,5.47,0,0,1-8.06-.66l-11.66-14.95a20,20,0,0,1-4.11-14.16c1.09-11.32,3.12-33.12,4.74-54.16,1.33-17,2.39-33.6,2.47-43.68.25-32.17-6.06-134.75-6.06-134.75l7.63.4s19,39.82,28.89,94a362.5,362.5,0,0,1,5.28,42.24S445.66,812.32,442.4,849.31Z"/><path class="cls-14" d="M442.4,849.31A33.18,33.18,0,0,1,432,870.69l-9.41,8.76a5.47,5.47,0,0,1-8.06-.66l-11.66-14.95a20,20,0,0,1-4.11-14.16c1.09-11.32,3.12-33.12,4.74-54.16,21.1-23.94,29.65-57,32.93-84a362.5,362.5,0,0,1,5.28,42.24S445.66,812.32,442.4,849.31Z"/><path class="cls-7" d="M517.49,850.26c0-8.93-7.77-16.1-16.52-14.76a9,9,0,0,0-6.13,3.42c-6,8.09-11.74,31.62-1.08,32.72,4.34.45,9.91-2.62,14.2-5.92s9.53-8.59,9.53-14.12Z"/><path class="cls-9" d="M281,940.56c19.35-20.34,52.78-60.36,51.6-93.2-1.58-46-53.83-114.47-53.83-114.47,4.87,30.31,10.39,61.16,14.74,74.05C301.51,831.27,286.37,912.9,281,940.56Z"/><path class="cls-7" d="M281.58,860.54s13.91,7,22.36,3.52,18.37-6.15,27.81,4.7,11.43,18.38,9.44,22.39-24,2.51-27.64,0-9.43-8.68-13.09-7.61c-10.11,3-18.62-4.82-23.39-11C274.2,868.78,282,867,281.58,860.54Z"/><path class="cls-12" d="M333.62,595.28s-55.4,6.2-68.46,30.57S184.15,749,186.38,790s92.67,87.07,92.67,87.07,20-8.55,20.34-17.75-62.54-64.19-58.73-74.45,73-91.42,79.67-118.18S333.62,595.28,333.62,595.28Z"/><path class="cls-9" d="M495.25,724.38l.4.4c20.66,13.16,39.75,24.33,39.75,29.38,2.76-8.91-24.09-46.14-32.78-53.71C493.81,692.73,495.25,724.38,495.25,724.38Z"/><path class="cls-9" d="M350.76,582.9s42.05,177.94,35.36,245c0,0-15.46-71.62-52.68-130.29,0,0,13.58-12.07,12.85-16.51,0,0-10.08-3-19.86-1,0,0,1.08-76.7,7.18-84.8S350.76,582.9,350.76,582.9Z"/><path class="cls-9" d="M416.77,588.94c-.68-.68,41.68,173.87,45.23,229.44,0,0-4.21-99.16-3.8-127.74,0,0-14.52-10-14.52-13.27s15.69-11.49,15.69-11.49-11.8-61.06-18.24-67.79S416.77,588.94,416.77,588.94Z"/><rect class="cls-16" x="1974.57" y="294.57" width="78.67" height="1163.54"/><rect class="cls-16" x="711.18" y="294.57" width="78.67" height="1163.54"/><rect class="cls-6" x="1235.02" y="90.07" width="313.59" height="111.92" rx="33.28"/><rect class="cls-17" x="711.18" y="266.69" width="1348.58" height="27.88"/><rect class="cls-17" x="102.17" y="847.82" width="1190.14" height="27.88" transform="translate(1559 164.52) rotate(90)"/><rect class="cls-17" x="1472.12" y="847.82" width="1190.14" height="27.88" transform="translate(2928.95 -1205.43) rotate(90)"/><g class="cls-18"><polygon class="cls-19" points="1594 1371.39 1605.18 1418.96 1621.93 1418.87 1622.55 1371.39 1594 1371.39"/><polygon class="cls-19" points="1734.89 1373.42 1766.71 1418.96 1779.12 1402.88 1759.96 1367.15 1734.89 1373.42"/><path class="cls-20" d="M1652.17,746.23c-5.78-3.32-12.71-3.68-17.56-3.39a8.23,8.23,0,0,1,3.71-1.78c-3-.45-9.72,2.56-9.72,2.56-41.8-16.27-48.38,45.91-47.5,60.36s-14,19.16-35.8,30.54c-41.5,21.72-45.15,50.8-45.15,50.8q.49.28,1,.66c2.06-3.52,6.3-10.14,9.88-11.14A147.11,147.11,0,0,0,1505.3,889c12.24,9.41,35.14,30.25,51.11,45-.07-2.89,0-7,1.09-9.15l2,12c8.54,7.93,14.43,13.51,14.43,13.51-1.05-11.67,52.27-73.27,80.09-91.72,6.77-10.08,9.18-27.87,9.36-29.27-1.17,14.11-3.56,22-5.69,26.48C1681.22,834,1667.5,755,1652.17,746.23Z"/><path class="cls-19" d="M1652.34,859.56c.14.07-13.43,7.18-23.64,4.36-9.6-2.64-15.87-15.22-15.74-15.25,4.06-.81,5.24-6.46,5.15-30.71l1.84.36,30.91,6.19s-.7,9.82-.72,19.08C1650.12,851.36,1650.58,858.73,1652.34,859.56Z"/><path class="cls-21" d="M1617.39,756.41s15.25-16.39,34.39-.84C1651.78,755.57,1640.64,753.63,1617.39,756.41Z"/><path class="cls-22" d="M1650.86,824.51s-.7,9.82-.72,19.08c-17.3-.49-26.44-16.43-30.19-25.27Z"/><path class="cls-20" d="M1616.76,814.92s-9.07-14.46-11.24-26.83c-1.56-8.84,2.9-41.57,35.46-36.86a44,44,0,0,1,18.36,7c7.07,4.82,17.27,15.24,5.86,43.8l-3,9.65Z"/><path class="cls-10" d="M1774.07,1390.39l-16.39.51-17.74.55s-41-46.07-63.94-119.93c-.54-1.72-1.1-3.45-1.7-5.21-12.58-37-38.65-83.54-52.39-125.62-2.19-6.71-4.15-13-5.91-19-.56-1.91-1.12-3.79-1.64-5.64-10.12-35.53-13-58.87-15.76-83.79l99.21.8S1713.83,1203.29,1774.07,1390.39Z"/><path class="cls-23" d="M1683.93,975.48c-.25,47.69,6.92,68.15,6.92,68.15s-42.48,21.8-93,5.76c-.6-.19-37.09-8.61-37.09-8.61.84-1.93,9.42-34.15,10.24-35.92,10.66-23.12,13-34.26,14.24-41.37a152.42,152.42,0,0,0,1.23-40,323.3,323.3,0,0,0-12.24-62.74c13.75-3.17,26.64-8.72,41-14.14,3.3,4.14,13.36,8.47,22.1,8.27,10-.22,13.32-4.57,12.79-9.32,10.72,6,19.27,11.72,19.27,11.72,9.11,16,27.58,31.5,28.92,56C1698.63,919.37,1683.93,974.15,1683.93,975.48Z"/><path class="cls-19" d="M1656.64,833.27s-40.93.68-41-25.07-5.33-43,20.8-44.53,31.22,8.3,33.3,16.89S1667.28,832.43,1656.64,833.27Z"/><path class="cls-20" d="M1655.12,763s-11.2,30.21-28.4,34.68-24.66-.19-24.66-.19,7.5-12.06,10.24-30.54C1612.3,767,1646.67,748.66,1655.12,763Z"/><path class="cls-20" d="M1652.35,765.49s8.36,6.75,10.4,13.31,3,20.05,6.86,19.59c0,0,8.44-20.53-1-32.15C1658.5,753.93,1652.35,765.49,1652.35,765.49Z"/><path class="cls-19" d="M1604.62,1416.3a46.32,46.32,0,0,1-2.13,19.51s-2.75,12.61,9.56,12.85,15.32-.94,13.93-8.68-4-21.11-4-21.11Z"/><path class="cls-24" d="M1627.24,1454.61s-.26.16-.78.41h-24.35a6.43,6.43,0,0,1-.69-.41c-1.4-6.33.89-18.24.89-18.24,14.09,12.89,22.91-.32,22.91-.32C1627.51,1441.56,1627.24,1454.61,1627.24,1454.61Z"/><path class="cls-19" d="M1808.76,1442.25s-22.68-26.43-29.65-39.37l-16.86,8.73,37.7,35.76,8.82-1.17Z"/><path class="cls-24" d="M1822.83,1455.46h-31c-3-2.25-5.78-7.48-9.26-14.49-1.84-3.74-6-5.8-10.27-6.93v21.18h-6.43l-6.1-22.51c-4-7.46-.32-14.22,2.51-20.1,3.28,0,12.13,2.26,28.88,21.33,5.51,6.26,11.59,8.5,17.63,8.31a1.49,1.49,0,0,0,.25.13C1819.11,1447,1822,1452.67,1822.83,1455.46Z"/><path class="cls-10" d="M1650.11,845.61s23.68,59.09,24.38,71,2.78,195.54,2.78,195.54-1.39,8.44,14.63,4.93,20.19-7,20.19-7S1696.77,996.84,1701,957.45s-32-103.63-32-103.63Z"/><path class="cls-9" d="M1757.68,1390.9l-17.74.55s-41-46.07-63.94-119.93c-.54-1.72-1.1-3.45-1.7-5.21-12.58-37-38.65-83.54-52.39-125.62-2.19-6.71-4.15-13-5.91-19-.56-1.91-1.12-3.79-1.64-5.64l14.61-11.2s43.87,71.75,57.44,139.27C1698.21,1302.78,1745.45,1373.35,1757.68,1390.9Z"/><path class="cls-25" d="M1947.08,1459h-1.23a3.19,3.19,0,0,1-3.08-3.91l152.48-674.82h21.54L1950,1456.71A3,3,0,0,1,1947.08,1459Z"/><path class="cls-25" d="M1662.38,1459h-1.23a3.19,3.19,0,0,1-3.08-3.91l152.47-674.82h21.55l-166.85,676.48A3,3,0,0,1,1662.38,1459Z"/><path class="cls-26" d="M1924,1455.91l-98.92-675.68h24.49l80.78,675.56a2.88,2.88,0,0,1-2.8,3.16h0A3.5,3.5,0,0,1,1924,1455.91Z"/><path class="cls-27" d="M1825.11,780.23l-6.73,30.63L1920,1454.25a5.5,5.5,0,0,0,5.54,4.7h2Z"/><path class="cls-26" d="M2194.25,1455.91l-96-675.68h21.54l80.79,675.56a2.89,2.89,0,0,1-2.81,3.16h0A3.49,3.49,0,0,1,2194.25,1455.91Z"/><path class="cls-27" d="M2098.27,780.23l-9.67,30.63,101.64,643.39a5.5,5.5,0,0,0,5.54,4.7h2Z"/><polygon class="cls-27" points="2129.35 1036.37 1858.34 1036.37 1859.79 1019.96 2130.8 1019.96 2129.35 1036.37"/><polygon class="cls-25" points="1737.94 1183.51 1724.78 1183.51 1815.9 780.23 1825.11 780.23 1737.94 1183.51"/><polygon class="cls-28" points="2024.7 1183.51 1716.57 1183.51 1808.81 780.23 2119.88 780.23 2024.7 1183.51"/><polygon class="cls-11" points="2013.14 1158.4 1731.64 1158.4 1815.91 789.96 2100.1 789.96 2013.14 1158.4"/><path class="cls-10" d="M1630.5,1250.42c.25,32.83-1.4,108.32-5.63,139.57h-15.71c-8.68,0-13-.12-13-.12-10.62-54.34-18.18-99.3-23.68-138-4.51-31.79-8.52-59-11.61-82.51s-5.26-43.39-6-60.09c-.12-2.63-.21-5.19-.25-7.68s-.07-4.92,0-7.28l85.73-8.44C1639.17,1143.35,1630.36,1231.33,1630.5,1250.42Z"/><path class="cls-9" d="M1609.16,1390c-8.68,0-13-.12-13-.12-10.62-54.34-18.18-99.3-23.68-138-4.51-31.79-8.52-59-11.61-82.51s-5.26-43.39-6-60.09l31.46,18.69s-20.08,7.15-12.42,61.31S1598.5,1382.32,1609.16,1390Z"/><path class="cls-10" d="M1613.21,1108.69s-6,22-26.93,19.22-50.6-15.48-50.6-15.48,8.93-28.49,20-65.93c13.44-45.31,30.08-103.74,37.92-140.59a230.85,230.85,0,0,0,4.26-25.13l17.33-34s25.84,58.58,27.24,73.35S1613.21,1108.69,1613.21,1108.69Z"/><path class="cls-19" d="M1592.35,918l22.87-71.15c-.06,0-28.89,8.66-43.39,16.06,0,0-9.06,11.81-14.67,39,0,0-5.93,65.38,7.3,89.3,0,0,41.78,8.44,108.64-14.77V961S1600,964.84,1585,966.6Z"/><path class="cls-9" d="M1612.28,951.12c-.93,23.92-6.5,70.34-56.17,95.19a3.62,3.62,0,0,1-.4.19c13.44-45.31,30.08-103.74,37.92-140.59C1602.75,919.68,1612.79,938,1612.28,951.12Z"/><path class="cls-10" d="M1615.22,846.82s-42.4,3-52.61,26-13.47,99.42-.47,121.92c0,0,17.9,5.15,49.55-.83l1.17-.22s10.1-25,1-29.89c0,0-26.69,1.4-23.9-7.51S1615.22,846.82,1615.22,846.82Z"/><path class="cls-19" d="M1665.6,965.09s5.83-7.13,7.07-14.41,5.09-12.68,15.15-14,14.37-1.48,14.35,1.39-8.22,22.85-22.64,34.78S1665.6,965.09,1665.6,965.09Z"/><path class="cls-29" d="M874.24,1030.75l-5.38,28.32c20.45,10.41,71.06,10.9,71.06,10.9l.57-10.07S876.36,1034.84,874.24,1030.75Z"/><path class="cls-7" d="M935.17,1058.32s22.4-.26,24.65,1.24,13.64,16.34,11.81,18.55-7.74,3-13.65-.32-19.31-6.82-21.19-10.44S935.17,1058.32,935.17,1058.32Z"/><path class="cls-30" d="M858.88,836.76s-1.58-20.24-30.42-15c-7.62,1.39-12.86-12.34-25.34-7.44-26.87,10.53-28.45-3.38-36.22,16.14-3.25,8.18-23.92,17.69-17.6,31.81s-4.25,23.62,3.17,34.68c3.84,5.73,2.28,16,20.4,16.33,9,.18,23.07,17.07,33.2,20.14s40.53-1.36,39.39-15.39c-.9-10.95,11.75-10,19.51-22.63,6.79-11-5.32-13.77,1.15-31.56C870.87,850.82,858.5,847.64,858.88,836.76Z"/><path class="cls-7" d="M1017.38,1334.89c-.62,6.77,8.72,8.42,19.53,9s7.54,2.78,22.36,5.5,20.75-1.39,21.83-3.41c1-1.8-5.94-4.6-13.28-7.77l-2.77-1.22c-8.26-3.67-12.9-11.15-19.34-18.09-6.1-6.57-11.9-27.62-11.9-27.62l-20.13-4.34s5.65,18.94,7.61,27c1.16,4.75-.55,10.07-2.06,14.12A26.73,26.73,0,0,0,1017.38,1334.89Z"/><path class="cls-15" d="M1036.91,1343.85c10.81.55,7.54,2.78,22.36,5.5s20.75-1.39,21.83-3.41c1-1.8-5.94-4.6-13.28-7.77l-.11.12a41.73,41.73,0,0,1-22.45.27c-9.8-2.68-19.28-8.6-26-10.51a26.73,26.73,0,0,0-1.85,6.84C1016.76,1341.66,1026.1,1343.31,1036.91,1343.85Z"/><path class="cls-20" d="M841,1081.14s109.65,2.4,134.84,18.46,65.59,203.09,65.59,203.09-2.49,2-8.06,2.63c-5.18.57-16.59-2.51-16.59-2.51s-58.06-83.69-62.15-104.77-3.09-39.89-12.4-40.4-125.39,14.26-143-17-3-62.18-3-62.18Z"/><path class="cls-7" d="M971.34,1335.65c-.62,6.77,8.72,8.42,19.53,9s7.55,2.79,22.36,5.5,20.76-1.39,21.83-3.41c1-1.8-5.93-4.6-13.27-7.77l-2.78-1.22c-8.26-3.66-12.9-11.15-19.34-18.09-6.1-6.57-11.89-27.62-11.89-27.62l-20.14-4.34s5.65,18.94,7.62,27c1.15,4.75-.55,10.07-2.06,14.12A26.75,26.75,0,0,0,971.34,1335.65Z"/><path class="cls-15" d="M990.87,1344.61c10.81.55,7.55,2.79,22.36,5.5s20.76-1.39,21.83-3.41c1-1.8-5.93-4.6-13.27-7.77l-.12.12a41.7,41.7,0,0,1-22.44.27c-9.8-2.68-19.28-8.6-26-10.51a26.75,26.75,0,0,0-1.86,6.84C970.72,1342.42,980.06,1344.07,990.87,1344.61Z"/><path class="cls-30" d="M795.83,1081.14s118.86,5.68,143.41,22.72S997,1309.38,997,1309.38s-2.57,1.92-8.16,2.31c-5.19.36-16.47-3.16-16.47-3.16s-54.79-85.91-58.07-107.14-1.55-40-10.83-40.85-125.85,9.31-142.19-22.6S795.83,1081.14,795.83,1081.14Z"/><path class="cls-7" d="M760.25,927.74l.15-.18a18.86,18.86,0,0,1,3.32-2.94l0,0h0c9.71-6.85,27.06-8.32,27.06-8.32h0s1.9-.19,4.9-.32a91.37,91.37,0,0,0,5.67-27.65l1.72.46L832,896.61s-1.28,9.27-1.88,18c-.13,1.92-.23,3.82-.28,5.59.84.31,1.62.62,2.3.9h0s16.54,2,20.45,6.22,11.73,32.54,13.71,37.55L755,966.75S752.2,937.36,760.25,927.74Z"/><path class="cls-31" d="M756.14,1128.9c13.41,1.28,59.15-26.79,73.16-35.09,6.17-3.66,14.84-5.39,23.09-6.77,10.49-1.74,20.3-2.91,23.44-6.7,3.74-4.52-7.25-9.52-16.08-14.71-4.45-2.62-8.36-5.29-9.58-8-.94-2.11-.86-6.7-.23-12.58h0c.1-1.1.25-2.25.4-3.43,4.74,10,17.5,22.06,23,23.41,6.38,1.57,13-5.58,17.86-12.39,3.63-5.1,6.29-10,7.13-11,2-2.2-7.94-6.57-12-9.85s-20-67-20-67c-2-5-9.79-33.29-13.71-37.55,0,0-15.25,18.83-35,17.74s-53.29-20.2-53.81-20.51h0l0,0-3.47,3.12c-8,9.62-5.26,39-5.26,39s15.4,68.55,15.4,75.47c0,12.69-10.38,41.86-15.33,62.86C751.91,1118.38,750.94,1128.4,756.14,1128.9Z"/><path class="cls-29" d="M832,896.61s-1.28,9.27-1.88,18c-16.37-1.57-24-17.26-27-25.88Z"/><path class="cls-7" d="M837,905.28s-38.85-2-37.26-26.38-2.36-41.11,22.51-40.88,29.07,9.85,30.51,18.13S847.11,905.17,837,905.28Z"/><path class="cls-32" d="M859.74,1065.63c10,17.28-27.21,22.48-33.38,26.13-14,8.31-56.81,38.42-70.22,37.14-5.2-.5-4.23-10.52-1.08-23.82,5-21,15.33-50.17,15.33-62.86,0-6.92,2.28-23.3,5.33-42l16.14-15.65s17.29,45.15,33.77,52.55a138.7,138.7,0,0,0,24.3,8c-.62,5.87-.71,10.49.24,12.58C851.38,1060.34,855.29,1063,859.74,1065.63Z"/><path class="cls-7" d="M784.8,941.26s-12.73-19.93-26.07-3.88,9.48,130.85,29.25,136.75c22,6.55,85.4-1.05,85.4-1.05l-1.22-10s-67.53-13.08-70.34-16.72S791.82,943.11,784.8,941.26Z"/><path class="cls-30" d="M838.6,846.71s-9.28-2.19-12.31,2.37-.87,7.11-7.64,9-9.08,1.78-8.4,6.57-6.81,8.34-7.13,12.17-3.44,5.75-6.42,6-1.62-49.39,9.89-51.58,22.62.41,26,3.15S838.6,846.71,838.6,846.71Z"/><path class="cls-30" d="M838.6,846.71s9-.64,10.66,4.56-.54,6.43,1.76,9.57,1,8.73,1,8.73,17.86-33.22-1-35.41S832.69,835.85,838.6,846.71Z"/><path class="cls-31" d="M833.13,1054.79s-3.65,33.7-22.07,37.55-44.64-14.49-53.07-74-8.78-89.62,10.72-88.11,27.13,19.24,26.64,40.38c-.52,22,2.67,54.47,11.61,60.34S833.13,1054.79,833.13,1054.79Z"/><path class="cls-32" d="M849.94,1045.09h0c.1-1.1.25-2.25.4-3.43,4.74,10,17.5,22.06,23,23.41,6.38,1.57,13-5.58,17.86-12.39-9.11-4.68-34.16-19.36-36.52-40.34-2.9-25.7-4.81,32.75-4.81,32.75Z"/><path class="cls-7" d="M866.65,1062.47s22-4.3,24.47-3.23,16.31,13.62,14.89,16.13-7.09,4.29-13.47,2.15-20.22-3.23-22.7-6.45S866.65,1062.47,866.65,1062.47Z"/><polygon class="cls-33" points="873.46 1078.32 868.33 1078.32 902.67 996.59 907.81 996.59 873.46 1078.32"/><polygon class="cls-34" points="871.21 1078.32 1003.56 1078.32 1037.9 996.59 905.55 996.59 871.21 1078.32"/><polygon class="cls-33" points="829.49 1080.95 1002.52 1080.95 1003.56 1078.32 829.49 1078.32 829.49 1080.95"/><path class="cls-35" d="M1562.21,1081H661.52a15.26,15.26,0,0,0-15.14,15.29v342.4a15.26,15.26,0,0,0,15.14,15.29h900.69a15.26,15.26,0,0,0,15.13-15.29v-342.4A15.26,15.26,0,0,0,1562.21,1081Z"/><path class="cls-36" d="M1517.66,1119.47H932a13.73,13.73,0,0,0-13.62,13.75v308A13.73,13.73,0,0,0,932,1454.93h585.67a13.73,13.73,0,0,0,13.62-13.75v-308A13.73,13.73,0,0,0,1517.66,1119.47Z"/><path class="cls-24" d="M1001.54,1338.92s-19.87,14.92-23.74,14,14.51-16.1,14.51-16.1c-6.92-3.36-28.43-1.26-28.43-1.26s-4.92,18.46-8.46,16.62,5.15-15.46,5.15-15.46c-7.71-.47-17.17,5.32-17.17,5.32-12.94,10.32.85,26.58.85,26.58A39.7,39.7,0,0,1,933.42,1384s-11.67,8.72-12.48,24.3l2.12.19s3.36-14.51,9.46-21.37c.24-.25.58-.61,1-1,1-.93,1.69-1.63,2.16-2.15,3-3,7.23-6.7,9.26-7.07a4.06,4.06,0,0,1-.09-1q0,.48.09,1c.69,8.22,16.47,15.39,26.18,16.87s6.7-2.56,3.36-8.53-13.93-8.65-16.35-11.41,2.58-2.75,8.43-.06,6.65,9.9,16,14.44,23.5-11.19,23.5-11.19c-7.47-.39-18.15-8.59-17.77-11.1s18.13,4.33,21.16,4.66,9.93-3.48,11-15.82S1001.54,1338.92,1001.54,1338.92Z"/><path class="cls-23" d="M896,1348.18s22-12.41,11.71-29.25c0,0-8.19-10.35-17-13,0,0,4.68,25.12,0,25.71s-3.22-28.37-3.22-28.37-23.11-11.23-32.18-10.34c0,0,14.33,24.53,9.65,23.94s-20.77-25.42-20.77-25.42-23.7-4.43-27.5,9.75,2.34,21.28,5.85,22.17,26,.59,25.45,3.54-15.8,7.69-24.28,5c0,0,9.36,23.35,21.65,22.16s16.09-8.86,23.7-9.45,13.16,1.47,9.36,3.54-16.68.68-22.82,6-11.12,8.52.29,10.89,31.89.88,36-8Z"/><path class="cls-24" d="M901.88,1369.76a47.55,47.55,0,0,1-5.86-21.58c-7-22.46-68.46-42.55-68.46-42.55,78.12,31.91,64.37,51.42,64.37,51.42,2.1,1.24,5.26,7.15,7.45,11.69.31.77.81,1.84,1.54,3.29h0c.3.66.54,1.2.7,1.57,4,10.17,1.89,27.72,1.89,27.72l2.44.66C911.35,1384.29,901.88,1369.76,901.88,1369.76Z"/><path class="cls-23" d="M930.93,1331.07S902,1314.7,915.51,1292.5c0,0,10.8-13.64,22.37-17.14,0,0-6.17,33.11,0,33.89s4.24-37.4,4.24-37.4,30.47-14.8,42.42-13.63c0,0-18.9,32.33-12.72,31.55s27.38-33.5,27.38-33.5,38.14-11.44,43.15,7.26-10,33.64-14.61,34.81-34.33.78-33.56,4.68,20.8,6.6,32,3.09c0,0-12.31,34.3-28.51,32.75s-21.21-11.69-31.23-12.47-17.36,1.95-12.35,4.68,22,.89,30.09,7.84,14.65,11.24-.39,14.36-42,1.17-47.44-10.52Z"/><path class="cls-24" d="M1021.18,1275s-81,26.49-90.25,56.1c0,0,.39,13.24-7.71,28.43,0,0-13.9,20.13-6.78,43.45l4.63-1.84s-2.81-23.14,2.49-36.54c.21-.49.53-1.2.92-2.07h0c1-1.91,1.62-3.32,2-4.34,2.89-6,7-13.77,9.82-15.41C936.33,1342.75,918.21,1317,1021.18,1275Z"/><path class="cls-34" d="M930,1452.55c31.29,0,56.66-25.62,56.66-57.23H873.3C873.3,1426.93,898.67,1452.55,930,1452.55Z"/><path class="cls-37" d="M943.9,1452.12a56.27,56.27,0,0,1-7,.43c-31.29,0-56.65-25.62-56.65-57.23h14.07A57.06,57.06,0,0,0,943.9,1452.12Z"/><path class="cls-34" d="M980.41,1448.62H879.51a7,7,0,0,0-7,7.06H987.4A7,7,0,0,0,980.41,1448.62Z"/><path class="cls-33" d="M987,1395.32H872.31a.88.88,0,0,0,0,1.76H987a.88.88,0,0,0,0-1.76Z"/><polygon class="cls-33" points="1175.55 1077.64 1014.13 1077.64 971.52 976.23 1132.93 976.23 1175.55 1077.64"/><polygon class="cls-34" points="1178.34 1077.64 1016.93 1077.64 974.32 976.23 1135.73 976.23 1178.34 1077.64"/><polygon class="cls-38" points="1172.42 1073.73 1022.42 1073.73 982.82 979.49 1132.82 979.49 1172.42 1073.73"/><polygon class="cls-33" points="1230.1 1080.9 1015.42 1080.9 1014.13 1077.64 1230.1 1077.64 1230.1 1080.9"/><path class="cls-19" d="M1317.42,876.21a19.94,19.94,0,0,0,1-5.72c.73-24.48,6.25-40.74-18.55-42.92s-29.91,7-32.12,15.13,1,49.38,11,50.48a68.22,68.22,0,0,0,7.88-.23c.21,2.69.59,7.35,1,12.48.81,9.8,1.76,21.29,2,23.93l27.43-1.36,14.5-18.23S1321.51,897.41,1317.42,876.21Z"/><path class="cls-20" d="M1370.79,1191.87a233.32,233.32,0,0,1-18,26.08c-19.86,25.33-41.48,46.21-45.24,65.94a90.82,90.82,0,0,1-3.49,12.63c-1.58,4.52-3.52,9.28-5.77,14.19-8.42,18.49-21,39.21-33.61,58-21.75,32.56-42.2,59.72-42.2,59.72l-37.51-1.61c1.5-3.8,17.86-48.75,39.75-103.68,8.88-22.3,18.33-46,27.45-68.9,1.22-3,2.43-6.1,3.63-9.11,2.79-7,5.53-13.89,8.21-20.6l36.92-92.66s82.13-31.43,90.66-11.06C1398.57,1137.64,1392.85,1154.09,1370.79,1191.87Z"/><path class="cls-20" d="M1221.26,1422.69s-1.92,31.26-7.91,31.71c-.8.06-30.37.06-30.37.06l-37.76-.22s.25-9.19,11.29-11.13,29.5-9.78,36.19-24.51C1199.73,1403.1,1221.26,1422.69,1221.26,1422.69Z"/><path class="cls-20" d="M1308.11,1332.27s26.09,16.93,23.56,22.43c-.34.73-14.75,26.82-14.75,26.82l-18.6,33.19s-7.82-4.7-4.12-15.38,5.93-30.79-3.55-43.87C1280.69,1341.7,1308.11,1332.27,1308.11,1332.27Z"/><path class="cls-15" d="M1283.49,903c.6-.22,37.08-9,40.92-7.53s5.75,9.25,5.75,9.25l-59.46,10.34S1275.82,905.79,1283.49,903Z"/><path class="cls-20" d="M1271.43,840.54s9.61,27.09,15,24.38,10.29-5,11.62,3.61-4,20.32,13.86,17.16,31.18-55.4,24.14-62.75C1315.68,801.72,1243.5,815.49,1271.43,840.54Z"/><path class="cls-30" d="M1271.38,1117.93s-101.66,63.93-113.17,107.52S1295.35,1362,1295.35,1362s16.3-14.53,19.18-25.18c0,0-67.19-81.31-81.76-99.54-9-11.19,132.34-38.75,149.61-65.87s11.08-50,11.08-50Z"/><path class="cls-19" d="M1139,1067.85s-12.35-11.73-18.23-10.5-18.11,9.21-20,11.48-3.7,6,1.23,6.87,5.19,1,5.19,1,10-3.36,11.93-2.77,8.45,7.18,13.8,4.21S1139,1067.85,1139,1067.85Z"/><path class="cls-15" d="M1393.46,1121.49c-9.81,11.72-93.32,8.66-117.78-1.22a17.56,17.56,0,0,1-4.31-2.34c-14.38-11.63,18.08-21.84-18.22-110.44a.5.5,0,0,1-.05-.13c-22.82-65.58,7.22-84.62,17.76-94.3,0,0,51-15.65,78.8-6.95C1385.79,917.42,1404,1108.9,1393.46,1121.49Z"/><path class="cls-39" d="M1305.65,1078c-1.64,12.06-11.25,41.82-30,42.26a17.56,17.56,0,0,1-4.31-2.34c-14.38-11.63,18.08-21.84-18.22-110.44a.5.5,0,0,1-.05-.13c6.07-4.21,15.9-9,22.29-1.68C1285.2,1016.87,1307.36,1065.52,1305.65,1078Z"/><path class="cls-15" d="M1270.7,915.05s-15.17,8.21-26,34.87c-11.16,27.58-26,89.41-30,92.1s-65.3,12.44-83.53,19.61c0,0-7.16,13-.39,18.31s88.77,2.42,93.74,1.11c41.39-10.82,63.14-93.32,68.08-106S1270.7,915.05,1270.7,915.05Z"/><path class="cls-20" d="M1374.65,1423.51v-43.69h44.16a3.15,3.15,0,0,0,3.13-3.16v-11.88a3.15,3.15,0,0,0-3.13-3.16h-44.16V1220.85a8.38,8.38,0,0,0-8.31-8.4h-8.92a8.38,8.38,0,0,0-8.32,8.4v140.77h-44.16a3.15,3.15,0,0,0-3.13,3.16v11.88a3.15,3.15,0,0,0,3.13,3.16h44.16v43.69c-32.61,2.49-60.49,15.63-67.82,31h159.45C1433.4,1439.14,1407.27,1426,1374.65,1423.51Z"/><path class="cls-34" d="M1467.37,1200.29h-211a7.73,7.73,0,0,0-7.67,7.75v42.62a7.73,7.73,0,0,0,7.67,7.75h211a7.73,7.73,0,0,0,7.67-7.75V1208A7.73,7.73,0,0,0,1467.37,1200.29Z"/><path class="cls-10" d="M1741.52,904.64c-14.56-17.19-52.29-54.45-91.23-59l33.6,66.12s1.89,11.34,11.84,17.94c24.37,16.18,55.36,23.33,55.36,23.33s21-9.25,49.67-30.48c9-6.67,24.83-32.09,24.83-32.09L1821.32,876s-26.86,15.17-36.46,19.55c-5.47,2.49-18.06,8.44-26.93,12.65A13.76,13.76,0,0,1,1741.52,904.64Z"/><path class="cls-19" d="M1821.32,876s5.77-21,28.63-18c2.62.83,10.29,3.92,5.39,12.21-3.61,6.11-5.18,3-10.86,11.17s-11.84,10.07-18.89,9.08Z"/><polygon class="cls-40" points="1832.5 827.2 1868.69 839.29 1861.42 845.41 1861.42 845.41 1892.74 878.51 1920.18 854.71 2029.74 945.39 2028.78 945.4 2001.48 945.4 1920.45 878.34 1891.52 903.43 1847.63 857.02 1847.63 857.02 1839.79 863.62 1832.5 827.2"/><path class="cls-41" d="M1832.78,1053.27c-2.34-35.71,24.17-66.75,59.21-69.33s65.35,24.29,67.69,60-24.16,66.76-59.21,69.34S1835.12,1089,1832.78,1053.27Z"/><path class="cls-42" d="M1826.1,1049.92c-2.34-35.71,24.17-66.75,59.21-69.33s65.35,24.29,67.69,60-24.16,66.76-59.21,69.34S1828.44,1085.64,1826.1,1049.92Z"/><path class="cls-43" d="M1893.47,1104.94a56.55,56.55,0,0,1-42-14.25,58.74,58.74,0,0,1-19.67-40.42,59.68,59.68,0,0,1,14.2-42.9,57.56,57.56,0,0,1,39.75-20.27,56.65,56.65,0,0,1,42,14.25,58.79,58.79,0,0,1,19.66,40.42,59.69,59.69,0,0,1-14.2,42.91A57.49,57.49,0,0,1,1893.47,1104.94ZM1886,990.62a54.1,54.1,0,0,0-37.38,19,56.14,56.14,0,0,0-13.35,40.35,55.27,55.27,0,0,0,18.49,38,53.24,53.24,0,0,0,39.51,13.4,54.09,54.09,0,0,0,37.37-19.06A56.13,56.13,0,0,0,1944,1042a55.27,55.27,0,0,0-18.49-38A53.2,53.2,0,0,0,1886,990.62Z"/><path class="cls-43" d="M1898.68,1062.54a9.65,9.65,0,0,0-.36-3.41,7,7,0,0,0-1.6-2.74,13.21,13.21,0,0,0-3-2.34,35,35,0,0,0-4.56-2.19,91.75,91.75,0,0,1-8.42-3.95,28.91,28.91,0,0,1-6.41-4.59,17.43,17.43,0,0,1-4-5.88,19.91,19.91,0,0,1,.58-14.84,16.48,16.48,0,0,1,4.15-5.4,19.94,19.94,0,0,1,6.21-3.58,25.87,25.87,0,0,1,7.94-1.53l.5-9.8,7.73.36-.5,9.94a23.55,23.55,0,0,1,7.42,2.59,18.61,18.61,0,0,1,5.53,4.67,18.93,18.93,0,0,1,3.32,6.55,25.21,25.21,0,0,1,.87,8.33l-14-.66q.27-5.49-2-8.33a8.05,8.05,0,0,0-6.27-3,10.27,10.27,0,0,0-3.77.44,7.05,7.05,0,0,0-2.67,1.57,6.83,6.83,0,0,0-1.63,2.47,10.19,10.19,0,0,0-.64,3.14,9,9,0,0,0,.33,3.09A6.53,6.53,0,0,0,1885,1036a13.11,13.11,0,0,0,3,2.35,44.65,44.65,0,0,0,4.75,2.36q4.59,2,8.34,4.06a29.27,29.27,0,0,1,6.38,4.63,17.43,17.43,0,0,1,4,5.9,17.9,17.9,0,0,1,1.14,7.76,18.37,18.37,0,0,1-1.74,7.17,16.48,16.48,0,0,1-4.17,5.36,19.6,19.6,0,0,1-6.25,3.46,28.43,28.43,0,0,1-8,1.46l-.45,9.11-7.69-.36.46-9.06a31.93,31.93,0,0,1-7.66-2.15,20.5,20.5,0,0,1-6.45-4.27,18.82,18.82,0,0,1-4.31-6.74,23.25,23.25,0,0,1-1.26-9.51l14,.65a14.39,14.39,0,0,0,.62,5.47,9,9,0,0,0,2.22,3.59,8.51,8.51,0,0,0,3.31,2,14.53,14.53,0,0,0,3.87.71,12.26,12.26,0,0,0,4-.41,8.2,8.2,0,0,0,3-1.51,6.72,6.72,0,0,0,1.86-2.41A8.36,8.36,0,0,0,1898.68,1062.54Z"/><path class="cls-9" d="M1676.78,1070.21l-.66,40.17a7.7,7.7,0,0,0,7.85,7.88c6.06-.15,14.47-1.13,21.25-4.87,0,0-8.15,7.08-23.85,7.2a9.62,9.62,0,0,1-9.57-10.85Z"/><path class="cls-9" d="M1617.54,1083.8l-6.63,35.93a10.54,10.54,0,0,1-11.28,8.65l-21.22-1.88,18.76,6.92a12.45,12.45,0,0,0,16.67-10.61Z"/></g><rect class="cls-44" x="789.73" y="294.57" width="1184.2" height="1159.89"/><polygon class="cls-45" points="1973.94 530.4 1973.94 376.3 932.42 1454.46 1081.29 1454.46 1973.94 530.4"/><polygon class="cls-45" points="1973.94 889.74 1973.94 726.27 1270.5 1454.46 1428.4 1454.46 1973.94 889.74"/><polygon class="cls-45" points="1546.39 294.57 789.73 1077.86 789.73 1454.46 852.61 1454.46 1973.07 294.57 1546.39 294.57"/><polygon class="cls-45" points="1450.68 1454.46 1973.94 1454.46 1973.94 912.79 1450.68 1454.46"/><polygon class="cls-45" points="1209.71 294.57 789.73 294.57 789.73 729.33 1209.71 294.57"/><rect class="cls-17" x="1379.56" y="294.57" width="4.55" height="1159.89"/><g id="man"><path class="cls-46" d="M1927,672.31s-4.6-22.11-16.12-27.17-18.42-25.34-23-19.81,1.39,42.37,10.14,47,12.89,9.36,12.89,9.36Z"/><path class="cls-21" d="M2124.65,584.32s-73.4,128-100,151.58L1927,663.11s-14.16,4.34-20.37,18.56c0,0,59.29,120.8,117.67,125.92S2164.59,662.8,2164.59,662.8Z"/><path class="cls-9" d="M2351.79,1376.43s17,15.73,13.66,26.91-18.62,18.62-20.69,32.28-10.35,21.11-17.8,21.11h-35.52s-5.48-9.61,7.76-12.51,18.24-19,17.41-33.85,1.24-34.76,1.24-34.76L2346,1369Z"/><path class="cls-9" d="M2140.29,1456.15a9.9,9.9,0,0,1-2.52.68H2044.1c.72-3.26,3.61-10,15.07-11.86,14.83-2.4,40.55-11,46.27-30,.19-.61.35-1.23.5-1.86,4.55-20.29,37.66,6.2,37.66,6.2s.1.81.24,2.19C2144.61,1429,2146.58,1453,2140.29,1456.15Z"/><path class="cls-10" d="M2063.1,913.69s5,62.75,10.94,138.17c8,102.45,17.7,228.29,18.65,252.14,1.65,41.39,8.29,107.61,8.29,107.61s15.72,15.74,47.18,9.1c0,0,28-94.53,36.05-194.54.12-1.64.25-3.3.37-5,7.45-101.82,19-316.22,19-316.22Z"/><path class="cls-9" d="M2063.1,913.69s5,62.75,10.94,138.17l110.17,174.31c.12-1.64.25-3.3.37-5,7.45-101.82,19-316.22,19-316.22Z"/><path class="cls-10" d="M2086.07,921.14s90.64,227.23,150.25,334,78.22,136.59,78.22,136.59,34.15-13.66,37.25-23c0,0-22.79-206.16-62.7-256.42C2266.53,1084,2240,998.75,2238.8,969s-8.07-88.78-8.07-88.78Z"/><path class="cls-46" d="M2132.56,570.39c-4-23.79-4.16-37.9-4.16-37.9l46-37.06c-1.71,51,30.94,75.47,30.94,75.47s-61.28,30.17-96.71,19A84.91,84.91,0,0,1,2132.56,570.39Z"/><path class="cls-47" d="M2117.57,531.65s58.51,9.72,64-26.81,16.74-59.88-20.38-67.63-46.49,5.1-51.29,16.85S2102.49,528.18,2117.57,531.65Z"/><path class="cls-48" d="M2059.2,918.92a5.74,5.74,0,0,0,3.72,1.42c13.3-.18,52.09,7.2,84.91,3.83,27.67-2.65,52.16-10.85,78.45-22.64,3.5-1.56,11.54-5.85,11.36-9.76-.12-4.27-.55-10.47-1.08-18.28-1.86-27.14-5.11-73.83-1.94-127.7.57-10,.86-20,.9-29.77.27-73-14.2-137.22-43.29-158.95-2.49-1.78-17.74,5.68-31.76,12.59-12.95,6.39-25.89,7.09-38.13,4.62l-12.23,10.81c-14.9,13.84-31.22,32.64-38.32,61.19-6,24.3-9.58,68.12-11.53,113.53-.88,20.57-1.6,41.33-1.78,61v.7c-.17,2-.17,4.09-.17,6C2057.6,878.12,2058.31,918.2,2059.2,918.92Z"/><path class="cls-21" d="M2236.56,873.49c-1.86-27.14-5.11-73.83-1.94-127.7.57-10,.86-20,.9-29.77-12.12-29.4-22-50.71-22-50.71H2183S2160.57,818.26,2236.56,873.49Z"/><path class="cls-9" d="M2436.7,1009.79l-8.13-57.11a31.35,31.35,0,0,0-35.35-26.53l-44.77,6.38-1.73-12.17a10.34,10.34,0,0,0-11.67-8.76l-38.91,5.55a10.33,10.33,0,0,0-8.75,11.66l1.73,12.18-25.93,3.69c-1,.15-2,.35-3,.59l-14.24,2a31.23,31.23,0,0,0-26.43,35.22l8,56.45a31.24,31.24,0,0,0,35.22,26.43l10.64-1.52a31.27,31.27,0,0,0,6.75-.21l130-18.53A31.34,31.34,0,0,0,2436.7,1009.79Zm-139.64-86.25L2336,918a3.69,3.69,0,0,1,1.15,0,3.87,3.87,0,0,1,3.21,3.26l1.73,12.17-46.53,6.63-1.73-12.17A3.86,3.86,0,0,1,2297.06,923.54Z"/><path class="cls-47" d="M2296,883l5.8,10s-11.36,24.06,15.59,33c0,0,11.59,2.92,12.58-5.11s-.72-4.88,1-16.23-2.75-21.45-11.12-24.15l-6.61-6.33Z"/><path class="cls-48" d="M2311.35,885.73a99.86,99.86,0,0,1-22.92,1.28s-32.65-100.87-36.85-110.08-97-118.27-97-118.27l38.65-96.73s100.36,167.63,110.55,191.18c16.84,38.93,22.68,126.19,22.68,126.19A41.93,41.93,0,0,1,2311.35,885.73Z"/><path class="cls-10" d="M2181.62,501.33s-6-1-5-9.28,1-19.08-5.76-17.06-7.06,7.39-9.83,4.25-2.81-16.39-22.81-17.31-28.14,6-37.44,1.95-9.8-18.17-9.8-18.17,2.65,5,6.64,6.63c0,0-15.52-21.23,2.45-35.79s36.3-5,46.7-4.4c22.91,1.39,37.71,2.77,45.19,17.82S2196.32,486.83,2181.62,501.33Z"/><path class="cls-10" d="M1923.07,652.89l-23.8-48.28a1.89,1.89,0,0,0-2.54-.86l-13.24,6.53a1.9,1.9,0,0,0-.87,2.54l23.8,48.28a1.9,1.9,0,0,0,2.54.86l13.25-6.53A1.9,1.9,0,0,0,1923.07,652.89Z"/><path class="cls-9" d="M1910.74,659.48l-24.2-49.1a1.45,1.45,0,0,0-1.93-.66l-7.77,3.83a1.45,1.45,0,0,0-.66,1.93l24.2,49.1a1.46,1.46,0,0,0,1.94.66l7.76-3.83A1.45,1.45,0,0,0,1910.74,659.48Z"/></g><circle class="cls-9" cx="1337.22" cy="974.68" r="20.5"/><circle class="cls-9" cx="1337.22" cy="1223.18" r="20.5"/><path class="cls-10" d="M1337.22,1225.44h0a9.47,9.47,0,0,1-9.47-9.46V980.1a9.47,9.47,0,0,1,9.47-9.46h0a9.47,9.47,0,0,1,9.46,9.46V1216A9.47,9.47,0,0,1,1337.22,1225.44Z"/><circle class="cls-9" cx="1427.22" cy="974.68" r="20.5"/><circle class="cls-9" cx="1427.22" cy="1223.18" r="20.5"/><path class="cls-10" d="M1427.22,1225.44h0a9.47,9.47,0,0,1-9.47-9.46V980.1a9.47,9.47,0,0,1,9.47-9.46h0a9.47,9.47,0,0,1,9.46,9.46V1216A9.47,9.47,0,0,1,1427.22,1225.44Z"/><path class="cls-49" d="M1334.1,164.78V124h5.51c11.27,28.21,12.85,32.05,13.37,33.82h.06c-.28-5.48-.36-11.61-.36-18.23V124h4.19v40.75h-5.26c-11.71-29.63-13.15-33.37-13.61-35h-.06c.3,5.09.34,11.77.34,19.1v15.88Z"/><path class="cls-49" d="M1374.93,151.85l-3,12.93h-4.47l9.85-40.75h5.8l10.13,40.75h-4.75l-3-12.93Zm9.67-4c-2.36-10-3.89-16.39-4.43-19.63H1380c-.55,3.55-2.22,10.88-4.22,19.63Z"/><path class="cls-49" d="M1403.76,124h10.51c6.39,0,10.82,4,10.82,11.35s-4,11.79-11.48,11.79h-5.38v17.61h-4.47Zm4.47,19.36h4.91c4.89,0,7.4-2.6,7.4-8,0-4.51-2.35-7.51-6.88-7.51h-5.43Z"/><path class="cls-49" d="M1438.11,151.85l-3,12.93h-4.47l9.84-40.75h5.81l10.13,40.75h-4.75l-3-12.93Zm9.67-4c-2.36-10-3.89-16.39-4.44-19.63h-.14c-.55,3.55-2.22,10.88-4.22,19.63Z"/></svg>