<svg xmlns="http://www.w3.org/2000/svg" xmlns:xlink="http://www.w3.org/1999/xlink" viewBox="0 0 2794.24 2892.15"><defs><style>.cls-1{fill:url(#linear-gradient);}.cls-2{fill:url(#linear-gradient-2);}.cls-3{fill:url(#linear-gradient-3);}.cls-4{isolation:isolate;}.cls-18,.cls-5{mix-blend-mode:soft-light;}.cls-6{clip-path:url(#clip-path);}.cls-7{fill:#fcfdfe;}.cls-8{clip-path:url(#clip-path-2);}.cls-9{clip-path:url(#clip-path-3);}.cls-10,.cls-17{fill:#97a6b7;}.cls-11{fill:#d8dee8;}.cls-12,.cls-16,.cls-17,.cls-18,.cls-33,.cls-40{opacity:0.3;}.cls-12,.cls-15,.cls-23,.cls-29,.cls-33,.cls-40,.cls-42,.cls-46{mix-blend-mode:multiply;}.cls-13,.cls-18{fill:#fff;}.cls-14{fill:#f4f7fa;}.cls-19{fill:#abc;}.cls-20{fill:url(#linear-gradient-7);}.cls-21{fill:url(#linear-gradient-8);}.cls-22{fill:url(#linear-gradient-9);}.cls-23{opacity:0.25;fill:url(#linear-gradient-10);}.cls-24{fill:url(#linear-gradient-11);}.cls-25{fill:url(#linear-gradient-12);}.cls-26{fill:url(#linear-gradient-13);}.cls-27{fill:url(#linear-gradient-14);}.cls-28{fill:url(#linear-gradient-15);}.cls-29{opacity:0.4;fill:url(#linear-gradient-16);}.cls-30{fill:url(#linear-gradient-17);}.cls-31{fill:url(#linear-gradient-18);}.cls-32{fill:url(#linear-gradient-19);}.cls-33{fill:url(#linear-gradient-20);}.cls-34{fill:url(#linear-gradient-21);}.cls-35{fill:url(#linear-gradient-22);}.cls-36{fill:url(#linear-gradient-23);}.cls-37{fill:url(#linear-gradient-24);}.cls-38{fill:url(#linear-gradient-25);}.cls-39{fill:url(#linear-gradient-26);}.cls-40{fill:url(#linear-gradient-27);}.cls-41{fill:url(#linear-gradient-28);}.cls-42{opacity:0.2;}.cls-43{fill:url(#linear-gradient-29);}.cls-44{fill:url(#linear-gradient-30);}.cls-45{fill:url(#linear-gradient-31);}.cls-46{opacity:0.1;fill:url(#linear-gradient-32);}.cls-47{fill:url(#linear-gradient-33);}.cls-48{fill:url(#linear-gradient-34);}.cls-49{fill:url(#linear-gradient-35);}.cls-50{fill:url(#linear-gradient-36);}.cls-51{fill:url(#linear-gradient-37);}.cls-52{fill:url(#linear-gradient-38);}.cls-53{fill:url(#linear-gradient-39);}.cls-54{fill:url(#linear-gradient-40);}.cls-55{fill:url(#linear-gradient-41);}.cls-56{fill:url(#linear-gradient-42);}.cls-57{fill:url(#linear-gradient-43);}.cls-58{fill:url(#linear-gradient-44);}.cls-59{fill:url(#linear-gradient-45);}.cls-60{fill:url(#linear-gradient-46);}.cls-61{fill:url(#linear-gradient-47);}.cls-62{fill:#26264f;}.cls-63{fill:url(#linear-gradient-48);}.cls-64{fill:#9b305e;}.cls-65{fill:url(#linear-gradient-49);}.cls-66{fill:url(#linear-gradient-50);}.cls-67{fill:url(#linear-gradient-51);}</style><linearGradient id="linear-gradient" x1="532.76" y1="581.06" x2="1008.02" y2="3619.35" gradientUnits="userSpaceOnUse"><stop offset="0" stop-color="#aa80f9"/><stop offset="1" stop-color="#6165d7"/></linearGradient><linearGradient id="linear-gradient-2" x1="573.2" y1="1125.93" x2="997.91" y2="3841.03" gradientUnits="userSpaceOnUse"><stop offset="0" stop-color="#ff9085"/><stop offset="1" stop-color="#fb6fbb"/></linearGradient><linearGradient id="linear-gradient-3" x1="1980.07" y1="713.69" x2="2441.58" y2="3664.05" xlink:href="#linear-gradient"/><clipPath id="clip-path"><path class="cls-1" d="M844.53,2115c16.51,2.79,54.88-5.68,64-12,60.5-42.15,178.91-113.69,197.24-189.45,3.13-12.93-50.07-42.07-54.47-56.17-29.41-26.81-41.28-34.28-56.72-73.51-45.58-115.79,176.67-239.27-1-360.74-130.13-89-266.79-76.5-183.13-295.14s30.76-679.74-252.66-595.92c-162.66,48.11-83.22,280-195.63,398.84-106.82,112.94-83.84,239.77,33.21,362.85s22.75,161.43-57,275.41c-95.76,136.91,129.81,235.19,237.82,271.69C663.17,1870.23,864.83,2003.74,844.53,2115Z"/></clipPath><clipPath id="clip-path-2"><path class="cls-2" d="M1129.17,2456c15.88-5.28,45.77-30.79,50.82-40.65,33.61-65.63,104.51-184.42,85.09-259.91-3.31-12.89-64-13.61-74.47-24-38.56-9.84-52.55-10.87-84.61-38.24-94.64-80.8,43.52-294.22-170.38-318-156.68-17.39-271.45,57.84-300.35-174.47S343,986.31,132.23,1193.47c-121,118.9,58.11,286.27,14.73,444-41.23,149.88,38.66,251,199.81,304.68S442.7,2074,425.89,2212c-20.2,165.86,225.1,146.62,337.59,128.08C854.07,2325.18,1094.81,2348.28,1129.17,2456Z"/></clipPath><clipPath id="clip-path-3"><path class="cls-3" d="M1790.62,2283.17c-18.74-1.4-58.25-21-66.45-30.32-54.55-62.2-164.25-172-163.81-259.5.08-14.94,65.88-32.34,74.47-46.51,39.26-21.28,54.2-26.23,81.59-64.79,80.85-113.86-128-308.24,98.28-392.69,165.73-61.86,311.23-11.45,279-272.16s149.64-748.73,435.78-581.06c164.23,96.23,15.21,327.42,105.64,487.17,85.93,151.81,26.72,283.77-133.94,386.3s-68.27,169.72-12.14,315.35c67.42,174.94-204.77,221.23-332.26,231.88C2054.12,2065.41,1798.49,2156.52,1790.62,2283.17Z"/></clipPath><linearGradient id="linear-gradient-7" x1="1820.19" y1="2738.49" x2="1882.13" y2="2738.49" gradientTransform="matrix(1, -0.05, 0.05, 1, -77.95, -4.25)" xlink:href="#linear-gradient"/><linearGradient id="linear-gradient-8" x1="1938.45" y1="2756.5" x2="2000.39" y2="2756.5" gradientTransform="matrix(1, -0.05, 0.05, 1, -77.95, -4.25)" xlink:href="#linear-gradient"/><linearGradient id="linear-gradient-9" x1="1718.9" y1="2293.12" x2="2095.45" y2="2293.12" gradientTransform="matrix(1, -0.05, 0.05, 1, -77.95, -4.25)" gradientUnits="userSpaceOnUse"><stop offset="0" stop-color="#444b8c"/><stop offset="1" stop-color="#26264f"/></linearGradient><linearGradient id="linear-gradient-10" x1="1774.7" y1="2095.43" x2="2138.43" y2="2095.43" gradientTransform="translate(115.34 -45.72) rotate(3.96)" xlink:href="#linear-gradient-9"/><linearGradient id="linear-gradient-11" x1="2499.34" y1="1533.07" x2="1792.31" y2="1160.48" gradientTransform="translate(6.81)" gradientUnits="userSpaceOnUse"><stop offset="0" stop-color="#311944"/><stop offset="1" stop-color="#6b3976"/></linearGradient><linearGradient id="linear-gradient-12" x1="1736.4" y1="1227.02" x2="2090.99" y2="1384.61" gradientTransform="translate(-114.44 -59.87) rotate(6.29)" xlink:href="#linear-gradient-2"/><linearGradient id="linear-gradient-13" x1="2491.27" y1="1548.38" x2="1784.25" y2="1175.79" xlink:href="#linear-gradient-11"/><linearGradient id="linear-gradient-14" x1="1796.92" y1="1537.21" x2="2451.61" y2="2129.54" xlink:href="#linear-gradient-2"/><linearGradient id="linear-gradient-15" x1="311.97" y1="1462.41" x2="323.25" y2="1162.01" gradientTransform="matrix(-1, 0.09, 0.09, 1, 2113.08, -42.89)" gradientUnits="userSpaceOnUse"><stop offset="0" stop-color="#ffc444"/><stop offset="1" stop-color="#f36f56"/></linearGradient><linearGradient id="linear-gradient-16" x1="1919.66" y1="1399.2" x2="1928.9" y2="1153.18" gradientTransform="translate(6.81)" xlink:href="#linear-gradient-15"/><linearGradient id="linear-gradient-17" x1="50.18" y1="1160.82" x2="47.13" y2="1405.87" gradientTransform="matrix(-1, 0, 0, 1.04, 1939.68, -26.49)" xlink:href="#linear-gradient-15"/><linearGradient id="linear-gradient-18" x1="2514.9" y1="1503.55" x2="1807.88" y2="1130.96" xlink:href="#linear-gradient-11"/><linearGradient id="linear-gradient-19" x1="1498.26" y1="1533.31" x2="1569.97" y2="1598.19" gradientTransform="matrix(1, 0, 0, 1, 0, 0)" xlink:href="#linear-gradient-15"/><linearGradient id="linear-gradient-20" x1="1793.09" y1="1541.45" x2="2447.77" y2="2133.79" xlink:href="#linear-gradient-2"/><linearGradient id="linear-gradient-21" x1="2371.48" y1="1878.24" x2="2379.68" y2="1756.12" gradientTransform="matrix(1, 0, 0, 1, 0, 0)" xlink:href="#linear-gradient-15"/><linearGradient id="linear-gradient-22" x1="2321.32" y1="1837.07" x2="2327.19" y2="1749.7" gradientUnits="userSpaceOnUse"><stop offset="0.1" stop-color="#311944"/><stop offset="0.27" stop-color="#371b47"/><stop offset="0.48" stop-color="#462150"/><stop offset="0.72" stop-color="#612a5f"/><stop offset="0.97" stop-color="#853774"/><stop offset="1" stop-color="#893976"/></linearGradient><linearGradient id="linear-gradient-23" x1="2284.48" y1="1774.25" x2="2350.45" y2="1809.62" xlink:href="#linear-gradient-22"/><linearGradient id="linear-gradient-24" x1="2264.52" y1="1893.08" x2="2273.87" y2="1753.88" gradientTransform="matrix(1, 0, 0, 1, 0, 0)" xlink:href="#linear-gradient-15"/><linearGradient id="linear-gradient-25" x1="2180.93" y1="1882.32" x2="2144.47" y2="1549.06" gradientUnits="userSpaceOnUse"><stop offset="0.1" stop-color="#311944"/><stop offset="0.69" stop-color="#6d2f66"/><stop offset="1" stop-color="#893976"/></linearGradient><linearGradient id="linear-gradient-26" x1="2343.83" y1="2022.4" x2="2097.04" y2="1884.98" gradientUnits="userSpaceOnUse"><stop offset="0" stop-color="#311944"/><stop offset="1" stop-color="#893976"/></linearGradient><linearGradient id="linear-gradient-27" x1="2121.64" y1="1832.88" x2="2195" y2="1955.9" xlink:href="#linear-gradient-26"/><linearGradient id="linear-gradient-28" x1="2331.18" y1="1685.73" x2="2357.82" y2="2043.3" xlink:href="#linear-gradient-25"/><linearGradient id="linear-gradient-29" x1="2273.54" y1="1881.49" x2="2495.85" y2="2052.78" xlink:href="#linear-gradient-26"/><linearGradient id="linear-gradient-30" x1="2215.32" y1="1868.95" x2="2310.77" y2="1865.24" xlink:href="#linear-gradient-25"/><linearGradient id="linear-gradient-31" x1="2360.74" y1="2154.08" x2="2331.29" y2="1823.15" xlink:href="#linear-gradient-22"/><linearGradient id="linear-gradient-32" x1="2375.27" y1="2232.42" x2="2325.11" y2="1773.9" xlink:href="#linear-gradient-26"/><linearGradient id="linear-gradient-33" x1="2453.04" y1="1992.62" x2="2289.43" y2="1907.09" gradientTransform="matrix(1, 0, 0, 1, 0, 0)" xlink:href="#linear-gradient-15"/><linearGradient id="linear-gradient-34" x1="2305.91" y1="1920.23" x2="2474.48" y2="1980.55" gradientTransform="matrix(1, 0, 0, 1, 0, 0)" xlink:href="#linear-gradient-15"/><linearGradient id="linear-gradient-35" x1="2307.28" y1="1746.43" x2="2370.17" y2="1803.33" gradientTransform="matrix(1, 0, 0, 1, 0, 0)" xlink:href="#linear-gradient-15"/><linearGradient id="linear-gradient-36" x1="1991.46" y1="1312.71" x2="2669.91" y2="1926.55" xlink:href="#linear-gradient-2"/><linearGradient id="linear-gradient-37" x1="42.47" y1="1523.45" x2="150.75" y2="1659.68" gradientTransform="matrix(-1, 0, 0, 1, 1563.34, 0)" xlink:href="#linear-gradient-15"/><linearGradient id="linear-gradient-38" x1="661.23" y1="1894.82" x2="953.3" y2="1458.14" gradientUnits="userSpaceOnUse"><stop offset="0" stop-color="#e38ddd"/><stop offset="1" stop-color="#9571f6"/></linearGradient><linearGradient id="linear-gradient-39" x1="462.75" y1="2710.3" x2="512.27" y2="2754.35" gradientTransform="matrix(-0.99, -0.14, -0.14, 0.99, 1611.98, 137.44)" xlink:href="#linear-gradient-9"/><linearGradient id="linear-gradient-40" x1="-414.81" y1="2754.42" x2="-414.81" y2="2668.14" gradientTransform="matrix(-0.99, -0.14, -0.14, 0.99, 695.78, 7.92)" xlink:href="#linear-gradient-15"/><linearGradient id="linear-gradient-41" x1="467.73" y1="2704.7" x2="517.25" y2="2748.75" gradientTransform="matrix(-0.99, -0.14, -0.14, 0.99, 1611.98, 137.44)" xlink:href="#linear-gradient-9"/><linearGradient id="linear-gradient-42" x1="438.48" y1="2783.77" x2="488.01" y2="2827.82" gradientTransform="matrix(-1, 0, 0, 1, 1563.34, 0)" xlink:href="#linear-gradient-9"/><linearGradient id="linear-gradient-43" x1="-439.12" y1="2827.91" x2="-439.12" y2="2741.63" gradientTransform="matrix(-1, 0, 0, 1, 638.03, 0)" xlink:href="#linear-gradient-15"/><linearGradient id="linear-gradient-44" x1="859.53" y1="2867.48" x2="536.58" y2="1563.58" gradientTransform="translate(221.69)" xlink:href="#linear-gradient-9"/><linearGradient id="linear-gradient-45" x1="918.06" y1="1858.84" x2="224.84" y2="1376.73" gradientTransform="matrix(-1, 0, 0, 1, 1563.34, 0)" xlink:href="#linear-gradient-38"/><linearGradient id="linear-gradient-46" x1="443.46" y1="2778.17" x2="492.99" y2="2822.23" gradientTransform="matrix(-1, 0, 0, 1, 1563.34, 0)" xlink:href="#linear-gradient-9"/><linearGradient id="linear-gradient-47" x1="487.19" y1="1212.39" x2="755.4" y2="1549.83" gradientTransform="matrix(-1, 0, 0, 1, 1563.34, 0)" xlink:href="#linear-gradient-15"/><linearGradient id="linear-gradient-48" x1="498.5" y1="1203.4" x2="766.71" y2="1540.84" gradientTransform="matrix(-1, 0, 0, 1, 1563.34, 0)" xlink:href="#linear-gradient-15"/><linearGradient id="linear-gradient-49" x1="1498.44" y1="1079.88" x2="1121.31" y2="1729.22" xlink:href="#linear-gradient-38"/><linearGradient id="linear-gradient-50" x1="952.19" y1="-380.32" x2="-274.19" y2="-1123.31" gradientTransform="matrix(-0.13, 0.99, -0.99, -0.13, 120.68, -77.67)" xlink:href="#linear-gradient-15"/><linearGradient id="linear-gradient-51" x1="5019.76" y1="2890.7" x2="4454.87" y2="2548.47" gradientTransform="translate(-3937.63 -1466.19) rotate(-4.34)" xlink:href="#linear-gradient-15"/></defs><g class="cls-4"><g id="Illustration"><g class="cls-5"><path class="cls-1" d="M844.53,2115c16.51,2.79,54.88-5.68,64-12,60.5-42.15,178.91-113.69,197.24-189.45,3.13-12.93-50.07-42.07-54.47-56.17-29.41-26.81-41.28-34.28-56.72-73.51-45.58-115.79,176.67-239.27-1-360.74-130.13-89-266.79-76.5-183.13-295.14s30.76-679.74-252.66-595.92c-162.66,48.11-83.22,280-195.63,398.84-106.82,112.94-83.84,239.77,33.21,362.85s22.75,161.43-57,275.41c-95.76,136.91,129.81,235.19,237.82,271.69C663.17,1870.23,864.83,2003.74,844.53,2115Z"/><g class="cls-6"><path class="cls-7" d="M1003.18,2014.07l2.42-2.6c-401.29-373.63-537.43-944.85-364.17-1528l-3.41-1c-82.11,276.38-94.9,561-37,822.92C662,1580.77,801,1825.84,1003.18,2014.07Z"/><path class="cls-7" d="M292,1621.49c149.94-3.11,378.27,65.24,509,152.39l2-3c-131.23-87.48-360.48-156.1-511-153Z"/><path class="cls-7" d="M925.24,1939.83l3-1.84c-42-70-47-158.6-14.82-263.26,23.59-76.73,66.23-160.17,126.75-248l-2.93-2c-60.73,88.13-103.53,171.89-127.22,249C877.59,1779.35,882.69,1868.89,925.24,1939.83Z"/><path class="cls-7" d="M594.28,1267.85l3.14-1.67c-72.39-136.07-216.36-210.51-324.4-249l-1.19,3.36C379.27,1058.82,522.43,1132.79,594.28,1267.85Z"/><path class="cls-7" d="M565.74,916.19l3.48.79c38.54-169.3,178.4-286.17,258.33-340.77l-2-2.94C745.18,628.16,604.56,745.7,565.74,916.19Z"/></g></g><g class="cls-5"><path class="cls-2" d="M1129.17,2456c15.88-5.28,45.77-30.79,50.82-40.65,33.61-65.63,104.51-184.42,85.09-259.91-3.31-12.89-64-13.61-74.47-24-38.56-9.84-52.55-10.87-84.61-38.24-94.64-80.8,43.52-294.22-170.38-318-156.68-17.39-271.45,57.84-300.35-174.47S343,986.31,132.23,1193.47c-121,118.9,58.11,286.27,14.73,444-41.23,149.88,38.66,251,199.81,304.68S442.7,2074,425.89,2212c-20.2,165.86,225.1,146.62,337.59,128.08C854.07,2325.18,1094.81,2348.28,1129.17,2456Z"/><g class="cls-8"><path class="cls-7" d="M1221.79,2292.39l.91-3.44c-529.79-141.24-918.38-581.5-1039.46-1177.7l-3.49.7c57.39,282.56,179.82,539.76,354,743.79C717,2070.24,954.88,2221.23,1221.79,2292.39Z"/><path class="cls-7" d="M409.58,2280c130.89-73.21,364.56-120.16,520.89-104.66l.35-3.54c-156.94-15.56-391.55,31.58-523,105.09Z"/><path class="cls-7" d="M1118.1,2263.47l1.84-3c-70-42.08-116-117.92-136.79-225.42-15.24-78.82-16.8-172.51-4.65-278.47l-3.54-.41c-12.19,106.32-10.61,200.38,4.69,279.56C1000.63,2144.21,1047.22,2220.85,1118.1,2263.47Z"/><path class="cls-7" d="M510.2,1825.82l2-3c-127.84-86.1-289.9-84.16-403.35-67.36l.52,3.52C222.18,1742.33,383.31,1740.36,510.2,1825.82Z"/><path class="cls-7" d="M319.77,1528.8l3.43-.93c-45.52-167.56,23-336.44,67.92-422.19L388,1104C342.82,1190.24,273.93,1360.07,319.77,1528.8Z"/></g></g><g class="cls-5"><path class="cls-3" d="M1790.62,2283.17c-18.74-1.4-58.25-21-66.45-30.32-54.55-62.2-164.25-172-163.81-259.5.08-14.94,65.88-32.34,74.47-46.51,39.26-21.28,54.2-26.23,81.59-64.79,80.85-113.86-128-308.24,98.28-392.69,165.73-61.86,311.23-11.45,279-272.16s149.64-748.73,435.78-581.06c164.23,96.23,15.21,327.42,105.64,487.17,85.93,151.81,26.72,283.77-133.94,386.3s-68.27,169.72-12.14,315.35c67.42,174.94-204.77,221.23-332.26,231.88C2054.12,2065.41,1798.49,2156.52,1790.62,2283.17Z"/><g class="cls-9"><path class="cls-7" d="M1645,2130.49l-1.94-3.49c537.8-298.87,840-884.42,808.4-1566.36l4-.19c15,323.19-47.77,636.61-181.46,906.38C2133.44,1750.44,1915.94,1979.92,1645,2130.49Z"/><path class="cls-7" d="M2525.41,1894.46c-162.48-43.79-429.62-30.85-595.49,28.85l-1.35-3.76c166.52-59.94,434.73-72.92,597.88-29Z"/><path class="cls-7" d="M1749.9,2070.61l-2.83-2.82c64.62-65,93.92-160.1,87.08-282.77-5-90-29-192.33-71.25-304.3l3.74-1.41c42.4,112.35,66.46,215.13,71.49,305.48C1845,1908.64,1815.36,2004.81,1749.9,2070.61Z"/><path class="cls-7" d="M2291.48,1427.8l-3-2.67c115.52-128.72,292.41-171,420.46-183.82l.39,4C2582,1258,2406.13,1300,2291.48,1427.8Z"/><path class="cls-7" d="M2417.31,1052.42l-4-.08c3.63-194.8-117.22-359.79-189.59-440.8l3-2.67C2299.45,690.32,2421,856.25,2417.31,1052.42Z"/></g></g><path class="cls-10" d="M2135.23,611.12,2130,2389.71c-.26,87.19-70.49,162.94-158.17,167.47L723.66,2621.76c-93,4.81-168.78-65.93-168.78-156.18V624.29c0-85.46,67.22-155.95,152.85-164.49,5.47-.55,11-.74,16.65-.77l1253-6C2065.39,452.63,2135.49,523.29,2135.23,611.12Z"/><path class="cls-11" d="M2227.42,610.17l-5.46,1777c-.27,87.12-66.73,162.6-154.23,167.12l-1245.6,64.39c-92.81,4.8-172.24-65.68-172.23-155.85l.25-1839.54c0-85.39,69-155.82,154.44-164.35,5.46-.55,12.93-.75,18.53-.77l1250.47-6C2161.43,451.8,2227.69,522.42,2227.42,610.17Z"/><g class="cls-12"><path class="cls-10" d="M2227.43,607.65l-1.37,446.66-1576,28.82.06-462.42c0-83.34,65.83-151.15,148.39-162.3,7.39-1,16.89-.17,24.58-.2l1250.47-6C2161.43,451.8,2227.7,519.9,2227.43,607.65Z"/><path class="cls-10" d="M2226.48,917l-.57,185.6c-158.35,47.6-446.64,82.94-772.48,89.78-142.27,3-278.86.29-401.51-7.18-162.17-9.88-298.08-28.06-401.84-52.08l0-192.14c39-9.49,74.87-18.31,117.53-26.55,93.07-18,205.69-32.81,329.48-43.37,111.25-9.51,232.69-15.52,358.71-17.22,163.32-2.22,316.16,3,448.43,14.16,10.33.85,20.64,1.77,30.7,2.69,31.8,3,62.4,6.25,91.53,9.89,10.32,1.27,20.49,2.59,30.44,4,22.9,3.13,42.61,6.49,63.5,10C2160.53,901.39,2196.16,908.89,2226.48,917Z"/></g><path class="cls-13" d="M2147.36,959a49.17,49.17,0,0,1-48.12,48.82L804.78,1030.09c-28.1.48-50.9-21.28-50.89-48.61l.1-309.72c0-27.36,22.84-49.74,51-50L2100.37,611a47.38,47.38,0,0,1,47.87,47.65Z"/><path class="cls-14" d="M2116.92,952.8a31.06,31.06,0,0,1-30.42,30.84L799,1005.08c-17.75.29-32.14-13.46-32.13-30.71l.1-308.4c0-17.28,14.42-31.41,32.18-31.56l1288.4-11.09a29.94,29.94,0,0,1,30.26,30.11Z"/><g class="cls-15"><g class="cls-16"><path class="cls-10" d="M1933.76,773.73c0,8.27-6.76,13.64-15.06,13.7h-.7c-8.3.07-15-5.07-15-13.35l.15-61.46c0-8.28,6.78-14.49,15.08-14.58h.7c8.3-.09,15,6,15,14.26Z"/><path class="cls-10" d="M2056.38,772.51c0,8.25-6.73,13.85-15,13.92h-.69c-8.26.06-14.93-5.31-14.91-13.56l.16-61.48a14.88,14.88,0,0,1,15-14.72h.69a14.4,14.4,0,0,1,14.91,14.41Z"/></g><path class="cls-17" d="M1933.42,911.35c0,8.26-6.76,16.53-15.06,16.56h-.7c-8.3,0-15-7.84-15-16.11l.15-63.24c0-8.27,6.77-16.37,15.07-16.42h.7c8.3,0,15,7.75,15,16Z"/><path class="cls-17" d="M2056,910.23c0,8.25-6.73,10.8-15,17.25h-.69c-8.26,0-14.94-8.55-14.92-16.79l.17-66.24c0-8.25,6.74-19.49,15-19.55h.69c8.25-.06,14.92,10.89,14.9,19.14Z"/><path class="cls-17" d="M2026.12,804.56a15.46,15.46,0,0,1-15.21,15.19l-59,.83c-8.3.11-11.9-6.48-11.9-14.75v-.69c0-8.28,3.57-15.07,11.87-15.17l60.66-.81c8.27-.1,13.53,6.46,13.53,14.71Z"/><path class="cls-17" d="M2026.12,676.11a15.25,15.25,0,0,1-15,15.15l-59,.64c-8.3.08-12-6.55-12-14.82v-.69c0-8.28,3.74-15,12-15.12l60.59-.62c8.27-.08,13.44,6.51,13.44,14.77Z"/><path class="cls-17" d="M2026.12,939.07c0,8.25-7.13,15.09-15.39,15.22l-62.16,1a14.8,14.8,0,0,1-15.12-14.74v-.69a15.23,15.23,0,0,1,15-15.16l62.38-1a14.93,14.93,0,0,1,15.29,14.68Z"/></g><path class="cls-18" d="M1550.23,2467.67c-5.14,29-13.62,58.14-26.33,85.46-4.52,9.7-9.63,19.81-15.23,30.1l-686.54,35.49c-92.81,4.8-172.24-65.68-172.23-155.85l.25-1842.16c0-83.34,65.83-152.55,148.39-163.71,2,.59,5,1.23,7,1.87,87.23,27.34,182.69,78.51,239.9,174.35,35.83,59.94,57.15,137.47,52.37,237.86a693.69,693.69,0,0,1-8.94,82.6q-4.28,25.4-8.58,51.86-5.43,33-10.64,67.41c-5.51,36.64-10.58,74.23-14.66,112.22-3.9,36.41-6.86,73.21-8.35,109.92-.27,7.09-.51,14.21-.68,21.29-.57,23-.51,45.84.32,68.53q.81,23.31,2.73,46.28c7.28,86.18,27,168.54,66.42,240.73,29.87,54.61,74.91,97,122.3,136.32,12.51,10.38,25.18,20.57,37.79,30.73,43.28,34.87,84.6,71,121.43,111.39l2.7,3a630.78,630.78,0,0,1,50,62.76,472.62,472.62,0,0,1,43.5,77.6q7,15.56,12.9,31.61c6.86,18.33,12.75,37.13,17.89,56.29q3.48,12.89,6.73,26.14a6,6,0,0,1,.26,1c8.7,35,16.21,71.57,20.85,108.61C1558,2367.45,1559,2418.41,1550.23,2467.67Z"/><g class="cls-15"><path class="cls-10" d="M1049.34,1404.54c0,18.27-15.21,33.48-33.94,34l-227.36,6c-18.94.49-34.29-14-34.29-32.41l0-84c0-18.4,15.38-33.66,34.32-34.1l227.42-5.21c18.74-.43,33.91,14,33.89,32.33Z"/><path class="cls-10" d="M1423,1395c0,18.12-15,33.21-33.41,33.69l-223.66,5.86c-18.63.48-33.72-13.91-33.7-32.15l.08-83.31c0-18.25,15.15-33.39,33.79-33.82l223.71-5.13c18.44-.42,33.35,13.94,33.32,32.07Z"/><path class="cls-10" d="M1778.17,1386a33.85,33.85,0,0,1-32.91,33.43l-220.16,5.76a31.91,31.91,0,0,1-33.16-31.9l.15-82.66c0-18.1,14.93-33.12,33.27-33.54l220.22-5a31.75,31.75,0,0,1,32.78,31.83Z"/><path class="cls-10" d="M2140.05,1376.77a33.46,33.46,0,0,1-32.4,33.15L1891,1415.59a31.5,31.5,0,0,1-32.6-31.65l.2-82a33.62,33.62,0,0,1,32.76-33.27l216.69-5a31.32,31.32,0,0,1,32.23,31.57Z"/><path class="cls-10" d="M1049.1,1672.49c0,18.26-15.2,33.54-33.92,34.14l-227.25,7.28c-18.92.61-34.27-13.8-34.27-32.17l0-83.91c0-18.38,15.37-33.73,34.3-34.27L1015.3,1557c18.73-.54,33.89,13.83,33.88,32.09Z"/><path class="cls-10" d="M1422.54,1660.8c0,18.11-15,33.27-33.4,33.86l-223.54,7.16c-18.62.59-33.71-13.7-33.69-31.92l.09-83.23c0-18.23,15.14-33.44,33.76-34l223.61-6.43c18.43-.53,33.33,13.73,33.3,31.84Z"/><path class="cls-10" d="M1777.58,1649.69c0,18-14.76,33-32.89,33.58l-220.06,7c-18.33.59-33.17-13.59-33.14-31.68l.14-82.57c0-18.09,14.93-33.18,33.26-33.71L1745,1536a31.5,31.5,0,0,1,32.76,31.6Z"/><path class="cls-10" d="M2139.29,1638.37a33.68,33.68,0,0,1-32.39,33.3l-216.53,6.94a31.27,31.27,0,0,1-32.59-31.43l.2-81.91a33.84,33.84,0,0,1,32.75-33.43l216.58-6.23a31.1,31.1,0,0,1,32.22,31.36Z"/><path class="cls-10" d="M1048.87,1934c0,18.24-15.19,33.59-33.9,34.3l-227.14,8.57c-18.92.71-34.26-13.59-34.25-31.95l0-83.83c0-18.36,15.37-33.78,34.29-34.43l227.2-7.83c18.72-.65,33.87,13.62,33.86,31.87Z"/><path class="cls-10" d="M1422.13,1920.14c0,18.09-15,33.32-33.38,34l-223.44,8.43c-18.61.7-33.69-13.49-33.67-31.7l.09-83.14c0-18.22,15.13-33.5,33.75-34.14l223.5-7.71c18.41-.63,33.31,13.53,33.28,31.62Z"/><path class="cls-10" d="M1777,1907c0,18-14.76,33.06-32.88,33.74l-220,8.3c-18.32.69-33.15-13.39-33.12-31.46l.14-82.49c0-18.07,14.92-33.24,33.24-33.87l220-7.58a31.25,31.25,0,0,1,32.74,31.38Z"/><path class="cls-10" d="M2138.55,1893.63a33.89,33.89,0,0,1-32.38,33.46l-216.43,8.17a31,31,0,0,1-32.57-31.22l.2-81.83a34,34,0,0,1,32.73-33.58l216.48-7.46a30.84,30.84,0,0,1,32.2,31.14Z"/><path class="cls-10" d="M1048.65,2189c0,18.22-15.19,33.65-33.89,34.46l-227,9.83c-18.91.81-34.24-13.39-34.24-31.73l0-83.75c0-18.34,15.36-33.83,34.27-34.59l227.09-9.09c18.71-.75,33.86,13.42,33.84,31.65Z"/><path class="cls-10" d="M1421.73,2173.07c0,18.07-15,33.37-33.36,34.16L1165,2216.9c-18.6.81-33.67-13.28-33.65-31.47l.08-83.07c0-18.2,15.13-33.55,33.74-34.3l223.39-8.94c18.41-.74,33.3,13.32,33.27,31.41Z"/><path class="cls-10" d="M1776.45,2158c0,17.93-14.75,33.1-32.87,33.89l-219.85,9.51c-18.31.8-33.14-13.19-33.11-31.24l.14-82.41c0-18.06,14.91-33.29,33.23-34l219.91-8.8a31,31,0,0,1,32.73,31.17Z"/><path class="cls-10" d="M1048.41,2462.33c0,18.2-15.18,33.7-33.88,34.63l-226.91,11.17c-18.9.93-34.22-13.16-34.22-31.48l0-83.67c0-18.32,15.35-33.89,34.25-34.76l227-10.44c18.7-.86,33.84,13.21,33.82,31.42Z"/><path class="cls-10" d="M1421.3,2444.23c0,18.06-15,33.43-33.34,34.33l-223.23,11c-18.59.91-33.65-13.07-33.63-31.24l.08-83c0-18.17,15.12-33.6,33.72-34.46l223.28-10.27c18.4-.85,33.28,13.11,33.25,31.17Z"/><path class="cls-10" d="M1775.84,2427c0,17.92-14.74,33.16-32.85,34.06l-219.74,10.82c-18.3.9-33.12-13-33.09-31l.14-82.33c0-18,14.9-33.34,33.21-34.19l219.8-10.11c18.12-.83,32.76,13,32.72,30.95Z"/><path class="cls-10" d="M2104.78,2030.45l-216.4,8.66c-18,.72-31.58,20.71-31.63,38.62l-.11,46.05-.09,38.45-.41,173.6-.12,51.07-.08,33.36c0,17.88,13.42,34.59,31.42,33.7l216.24-10.65c17.82-.87,33.4-18.91,33.45-36.68l.1-33.15.15-50.75.5-172.52.11-38.21.13-45.77C2138.1,2048.44,2122.61,2029.73,2104.78,2030.45Z"/></g><path class="cls-19" d="M1062.1,1404.21c0,18.27-15.19,33.48-33.92,34l-227.23,6c-18.93.49-34.27-14-34.27-32.4l0-84c0-18.4,15.37-33.66,34.3-34.09l227.3-5.21c18.73-.43,33.89,14,33.87,32.32Z"/><path class="cls-19" d="M1423,1395c0,18.12-15,33.21-33.41,33.69l-223.66,5.86c-18.63.48-33.72-13.91-33.7-32.15l.08-83.31c0-18.25,15.15-33.39,33.79-33.82l223.71-5.13c18.44-.42,33.35,13.94,33.32,32.07Z"/><path class="cls-19" d="M1790.54,1385.67a33.83,33.83,0,0,1-32.9,33.41l-220,5.76a31.89,31.89,0,0,1-33.14-31.89l.15-82.63c0-18.1,14.92-33.12,33.25-33.54l220.11-5a31.72,31.72,0,0,1,32.75,31.82Z"/><path class="cls-19" d="M2152.22,1376.46a33.45,33.45,0,0,1-32.39,33.14l-216.52,5.67a31.48,31.48,0,0,1-32.58-31.64l.2-82a33.6,33.6,0,0,1,32.75-33.26l216.57-5a31.31,31.31,0,0,1,32.21,31.56Z"/><path class="cls-19" d="M1061.86,1672.09c0,18.25-15.19,33.54-33.9,34.13l-227.12,7.28c-18.92.6-34.26-13.79-34.25-32.16l0-83.89c0-18.38,15.36-33.72,34.28-34.26l227.18-6.54c18.72-.54,33.87,13.83,33.86,32.09Z"/><path class="cls-19" d="M1422.54,1660.8c0,18.11-15,33.27-33.4,33.86l-223.54,7.16c-18.62.59-33.71-13.7-33.69-31.92l.09-83.23c0-18.23,15.14-33.44,33.76-34l223.61-6.43c18.43-.53,33.33,13.73,33.3,31.84Z"/><path class="cls-19" d="M1789.94,1649.3c0,18-14.75,33-32.88,33.58l-219.94,7c-18.31.59-33.15-13.59-33.11-31.67l.14-82.55c0-18.08,14.92-33.17,33.24-33.7l220-6.32a31.48,31.48,0,0,1,32.75,31.59Z"/><path class="cls-19" d="M2151.45,1638a33.66,33.66,0,0,1-32.38,33.29l-216.41,6.93a31.23,31.23,0,0,1-32.56-31.42l.19-81.89a33.83,33.83,0,0,1,32.73-33.41l216.47-6.23a31.08,31.08,0,0,1,32.2,31.35Z"/><path class="cls-19" d="M1061.63,1933.48c0,18.24-15.19,33.59-33.89,34.3l-227,8.56c-18.91.71-34.24-13.58-34.23-31.93l0-83.81c0-18.36,15.36-33.77,34.27-34.42l227.07-7.83c18.71-.64,33.86,13.62,33.84,31.86Z"/><path class="cls-19" d="M1422.13,1920.14c0,18.09-15,33.32-33.38,34l-223.44,8.43c-18.61.7-33.69-13.49-33.67-31.7l.09-83.14c0-18.22,15.13-33.5,33.75-34.14l223.5-7.71c18.41-.63,33.31,13.53,33.28,31.62Z"/><path class="cls-19" d="M1789.36,1906.55c0,18-14.75,33-32.87,33.73l-219.83,8.3c-18.31.69-33.13-13.39-33.1-31.45l.14-82.47c0-18.07,14.91-33.23,33.23-33.86l219.89-7.58a31.25,31.25,0,0,1,32.72,31.38Z"/><path class="cls-19" d="M2150.7,1893.18a33.87,33.87,0,0,1-32.36,33.45L1902,1934.79a31,31,0,0,1-32.55-31.2l.19-81.81a34,34,0,0,1,32.72-33.57l216.37-7.46a30.84,30.84,0,0,1,32.18,31.13Z"/><path class="cls-19" d="M1061.39,2188.41c0,18.21-15.17,33.64-33.87,34.45l-226.9,9.82c-18.9.82-34.22-13.38-34.22-31.72l0-83.72c0-18.34,15.35-33.83,34.25-34.58l227-9.09c18.7-.75,33.84,13.42,33.82,31.64Z"/><path class="cls-19" d="M1421.73,2173.07c0,18.07-15,33.37-33.36,34.16L1165,2216.9c-18.6.81-33.67-13.28-33.65-31.47l.08-83.07c0-18.2,15.13-33.55,33.74-34.3l223.39-8.94c18.41-.74,33.3,13.32,33.27,31.41Z"/><path class="cls-19" d="M1788.79,2157.44c0,17.93-14.74,33.1-32.85,33.88l-219.73,9.51c-18.3.8-33.12-13.19-33.09-31.23l.14-82.39c0-18.05,14.91-33.28,33.21-34l219.79-8.8c18.12-.72,32.76,13.23,32.72,31.16Z"/><path class="cls-19" d="M1061.15,2461.71c0,18.2-15.17,33.7-33.86,34.62L800.51,2507.5c-18.89.93-34.21-13.16-34.2-31.48l0-83.64c0-18.32,15.34-33.88,34.23-34.75l226.85-10.43c18.69-.86,33.82,13.2,33.8,31.4Z"/><path class="cls-19" d="M1421.3,2444.23c0,18.06-15,33.43-33.34,34.33l-223.23,11c-18.59.91-33.65-13.07-33.63-31.24l.08-83c0-18.17,15.12-33.6,33.72-34.46l223.28-10.27c18.4-.85,33.28,13.11,33.25,31.17Z"/><path class="cls-19" d="M1788.18,2426.42c0,17.92-14.73,33.16-32.83,34l-219.62,10.81c-18.3.91-33.11-13-33.08-31l.15-82.31c0-18,14.89-33.33,33.19-34.17l219.68-10.11c18.11-.83,32.74,13,32.7,30.94Z"/><path class="cls-19" d="M2117.39,2029.94l-216.28,8.66c-18,.72-32,20.72-32,38.63l-.11,46-.1,38.44-.41,173.55-.13,51-.08,33.35c0,17.88,13.86,34.56,31.85,33.68l216.12-10.65c17.81-.87,32.94-18.88,33-36.65l.1-33.14.15-50.73.51-172.48.11-38.2.13-45.75C2150.25,2048,2135.21,2029.23,2117.39,2029.94Z"/><path class="cls-20" d="M1929.6,2609.38a83.66,83.66,0,0,1,12.22,27.5,82.48,82.48,0,0,1,2.14,14.45c-2.64,5.64-16,25.7-37.08,33.51-13.05,4.83-36.74-3.09-14.47-22.54s25.39-23.76,11.76-62.14c-3.5-9.87-3.36-13.71-1.88-14.68C1905.75,2583.21,1918.89,2597.1,1929.6,2609.38Z"/><path class="cls-21" d="M2048.63,2621.27a83.34,83.34,0,0,1,12.23,27.5,81.23,81.23,0,0,1,2.13,14.44c-2.63,5.64-16,25.7-37.07,33.51-13.05,4.83-36.75-3.09-14.47-22.53s25.38-23.76,11.76-62.14c-3.5-9.88-3.37-13.72-1.88-14.69C2024.79,2595.09,2037.93,2609,2048.63,2621.27Z"/><path class="cls-22" d="M2091.07,1795.13q15,75.27,30,150.53a1434.94,1434.94,0,0,0-44,157.61c-44.72,204.68-37.46,387.06-17.6,525.74l-31.74,17.6A1317.27,1317.27,0,0,1,1932,2328.74c-26.94-161.32-16.72-288.51-24.19-288.7-7.15-.18-23.18,116.48-18.69,248.93a1336.63,1336.63,0,0,0,54.05,332.77l-40,8.89c-54.24-99.75-111.43-236.63-136.3-404.57-17.26-116.63-38.23-271.64,34.5-434.78,7.26-16.29,33.31-52.79,38.13-61.76C1929.78,1743.62,2000.79,1781,2091.07,1795.13Z"/><path class="cls-23" d="M2077.12,2103.27a1434.94,1434.94,0,0,1,44-157.61q-15-75.27-30-150.53c-90.28-14.1-161.29-51.51-251.57-65.61-4.82,9-30.87,45.47-38.13,61.76a581.91,581.91,0,0,0-45.31,161c173.47-7.83,224.93,26.59,239.89,59.42,23.82,52.28-41.28,108.34-13.92,214.84,8.22,32,19.4,47.57,22,88,3.45,53-13.69,58.73-14.56,112.8-1,59.15,18.69,107.69,34.79,147.52a514.64,514.64,0,0,0,27.9,58.2l7.32-4.06C2039.66,2490.33,2032.4,2308,2077.12,2103.27Z"/><path class="cls-24" d="M1937.63,1097.33c6.31,6.83-.89,17.61,1.21,53.93a256.68,256.68,0,0,0,5.53,40.1c1.24,8.88,2.6,17.09,4.05,24.31,1.06,5.3,2,9.43,3.27,13.81a172.67,172.67,0,0,0,8.59,23.71,1.06,1.06,0,0,1-.44,1.36l-.09,0a1.06,1.06,0,0,1-1.4-.53,174.4,174.4,0,0,1-8.7-24c-1.24-4.43-2.23-8.6-3.31-14-.76-3.81-1.5-7.9-2.21-12.2a114.6,114.6,0,0,0,6.85,40.51c17.58,49.73-18.53,87.41-49.6,92-35.82,5.29-63.17-20.7-71.68-29.25-34.3-34.46-46.51-95.15-22.56-142.94C1838.52,1101.59,1922.18,1080.6,1937.63,1097.33Z"/><path class="cls-25" d="M1549,1534.59c3.39,20.85,17.31,91.38,71.38,120.77,89.07,48.42,245.42-40.61,263.84-157,14.08-89-53.79-184.8-91.29-179.31-47.08,6.88-25.81,170.43-118.54,217.62C1632,1558.22,1582.67,1546.77,1549,1534.59Z"/><path class="cls-26" d="M1851.72,1155.87c1-5.86,5.51-29.83,25.28-46.61,37.5-31.83,104.51-16.35,145,12.37,42.35,30,28.65,55.29,70.73,89.17,45.71,36.8,72.94,15.84,134.67,49.56,24.28,13.27,89.71,49,100.59,114.24,9.41,56.35-24.82,117.31-71.63,144.31C2176.2,1565.13,2064,1509,2008,1452.57c-53.74-54.16-23.11-72-102.64-179.07C1876.6,1234.77,1844.63,1199.67,1851.72,1155.87Z"/><path class="cls-27" d="M1792.94,1319a383,383,0,0,1,130.35-31c57-3.2,96.68-7,123.93,16.36,58,49.61-1.14,141.65,56.11,261.88,7.26,15.24,56.83,115.86,147.3,135.61,51.14,11.16,64.53-14.61,123.93-11.69,121.1,5.94,222.18,120.74,208.57,148.09-9.11,18.3-63-15.82-115.05,15.86-48,29.24-32.83,77-79.49,114.29-53.56,42.79-133.4,27.66-168.35,21-75.8-14.36-77.95-44.63-166-67.8-69.4-18.27-129-15.52-156.66-14-113.27,6.08-152.93,43.75-173,23.38-38.82-39.38,117.23-172.07,79.36-324.62-13.91-56-43.34-80.72-44.29-152.36C1758.87,1397.06,1777.11,1350.11,1792.94,1319Z"/><path class="cls-28" d="M1917,1208.65c-7,18.76-12.06,41.86-.83,55.83,6.85,8.52,17.14,12.59,27.28,16.38,24,9,34.06,3.26,39.27,9.67,11.47,14.09-10.59,74.68-55.8,84.43-45,9.7-91.31-35.61-86.63-57.27,4.22-19.54,49.63-18.25,55.17-43,2.79-12.45-6-25-13.39-33.4l-5.32,1Z"/><path class="cls-29" d="M1982.71,1290.53c-5.21-6.4-15.31-.71-39.27-9.67-10.14-3.79-20.43-7.86-27.28-16.38-11.23-14-6.12-37.07.83-55.83l-40.25,33.7,5.32-1c5.88,6.64,12.52,16,13.66,25.72a37.64,37.64,0,0,1,8.39,6.09,99.78,99.78,0,0,0-5.54,32.08c0,11.34-.08,19.76,5.54,27.12,6.14,8,15.41,10.12,23.52,11.94,18,4,34.1.41,44.52-3.26C1985,1321,1989.15,1298.44,1982.71,1290.53Z"/><path class="cls-30" d="M1905.48,1227.83s-2.29,23-25,23.1c-28,.15-31.14-73.83-24.33-78.06,7.91-4.9,14.83,7.11,33.23,2.92,7.75-1.76,14.44-11.73,18.37-1,4.47,12.22.69,33.85.69,33.85s6.67-5.5,7.69,1.11C1917.42,1218.41,1910.93,1223.82,1905.48,1227.83Z"/><path class="cls-31" d="M1861.12,1147.45c-8.89,9.07-13.8,26.67-7.63,35.52,8.86,12.72,35.06-.56,45.78,15,4.69,6.82,4.42,16.29,6.86,16.13,2-.13,3.21-6.68,4.37-12.08,6.41-29.74,13.82-33.08,11.56-41.59C1917.47,1143.11,1879.39,1128.81,1861.12,1147.45Z"/><path class="cls-32" d="M1478.69,1561c1.79-5.79,6.42-17.67,17.89-25.14,23.69-15.43,61.16-2,63.13,10.52,1.29,8.2-12,20-24.55,21-11.3.93-16.09-7.33-31.56-9.36A53.72,53.72,0,0,0,1478.69,1561Z"/><path class="cls-33" d="M2374.56,1690.18c-59.4-2.92-72.79,22.85-123.93,11.69-90.47-19.75-140-120.37-147.3-135.61a274.65,274.65,0,0,1-23.41-75.41,44,44,0,0,0-14.67-4.76c-19.48-2.65-42.25,7.76-44.92,21.71-3.84,20,37.85,29.3,66.63,73.65,23.63,36.41,12.94,52.22,29.23,88.85,37.31,83.88,134.89,94.31,129.77,123.93-4,23.24-67,33.35-109.9,33.9-91.2,1.16-104.25-40.8-168.34-37.41-98.7,5.22-136,108.35-202.25,92.36-11.79-2.85-22-8.91-30.78-16.66-14.9,29.55-22.63,51.92-10.14,64.59,20.09,20.37,59.75-17.3,173-23.38,27.62-1.49,87.26-4.24,156.66,14,88.06,23.17,90.21,53.44,166,67.8,35,6.62,114.79,21.75,168.35-21,46.66-37.29,31.44-85.05,79.49-114.29,52.06-31.68,105.94,2.44,115.05-15.86C2596.74,1810.92,2495.66,1696.12,2374.56,1690.18Z"/><path class="cls-34" d="M2365.56,1766.15s22.9,6.4,25.33,39.49c-3.74-.26-12.47,0-12.47,0s1.61-24.06-14.68-28.74C2365.05,1774.1,2365.56,1766.15,2365.56,1766.15Z"/><path class="cls-35" d="M2281.53,1764.17q.85,9,1.72,18.07c11.31-2.71,23.69-5.85,37-6.42a192.93,192.93,0,0,1,47.28,3.82,12.63,12.63,0,0,0,2.57-5.57,16.53,16.53,0,0,0-1-9.49,163.19,163.19,0,0,0-23.35-5.33C2321.8,1755.63,2300.14,1759.22,2281.53,1764.17Z"/><path class="cls-36" d="M2280.47,1769.39c0-2.18.22-4.9,1.06-5.22s1.87,1.67,2.32,2.76c.2.46.62,1.56.88,5.07a23.67,23.67,0,0,1-.42,8.13c-.22.83-.56,2.08-1.06,2.11s-.77-.77-1.29-2.29A30.52,30.52,0,0,1,2280.47,1769.39Z"/><path class="cls-37" d="M2259.61,1807.45c4.74.78,16.28,3.11,16.28,3.11s-7.52-21.16,6.66-30.93a19.44,19.44,0,0,0-1.4-12.74C2275.13,1769.88,2262,1779.91,2259.61,1807.45Z"/><path class="cls-38" d="M2161.48,1813s.58-11.11,20.36-11.11c3.12,2,3.28,11.11,3.28,11.11Z"/><path class="cls-39" d="M2143.91,2031.47l54.15,29.29,32.81-107.56L2176.81,1809l-15.33,4-23.26,207.09A11.41,11.41,0,0,0,2143.91,2031.47Z"/><path class="cls-40" d="M2230.87,1953.2,2176.81,1809l-15.33,4c3.77,12.73,5.58,33.45,6.43,45,3.63,49.09,15.66,62.75,9.83,97-4.85,28.48-15.43,32.34-14.51,51.5,1,20.87,14.63,38.34,30.83,52.08l4,2.16Z"/><polygon class="cls-41" points="2176.81 1809.01 2474.14 1809.01 2520.95 2037.57 2198.06 2060.76 2176.81 1809.01"/><g class="cls-42"><path class="cls-43" d="M2474.14,1809H2374a149.19,149.19,0,0,1-8.78,18.49c-44.79,79.78-147.34,89.83-145.49,103,2.77,19.59,231.13-8.22,237,18.71,2.81,13-45.41,42.55-95.8,53.73-60.33,13.4-104.67-3.48-134.16,26.62-10,10.19-14.39,22.13-16.53,30.2L2521,2037.57Z"/></g><path class="cls-44" d="M2181.84,1801.91c-3.35,0-8-.37-13.12,2.3a21.15,21.15,0,0,0-2.89,1.83l2.34-.74c3.77-1,9,.33,10.92,3.71,2.38,4.15,3.24,13.77,3.77,18.53,1.48,13.55,10.61,97.84,10.61,97.84a13.67,13.67,0,0,0,13.86,12.36l276.58-12.86a10.79,10.79,0,0,0,5.91-1.81,10.58,10.58,0,0,0,4.41-10.85l-14-100.4a12.4,12.4,0,0,0-12.15-9.91Z"/><path class="cls-45" d="M2184.8,1801.91c-3.35,0-7.32-.41-11.75.65a13.14,13.14,0,0,0-3.94,1.45s9.38-2,12.94,5c2.17,4.27,3.24,13.77,3.77,18.53,1.48,13.55,10.61,97.84,10.61,97.84a13.67,13.67,0,0,0,13.86,12.36l279.69-5.38a10.77,10.77,0,0,0,5.91-1.81,10.54,10.54,0,0,0,4.41-10.85l-17.12-107.88a12.42,12.42,0,0,0-12.16-9.91Z"/><path class="cls-46" d="M2500.3,1919.7l-17.12-107.88a12.42,12.42,0,0,0-12.16-9.91H2184.8c-3.35,0-7.32-.41-11.75.65a13.14,13.14,0,0,0-3.94,1.45s9.38-2,12.94,5a16.63,16.63,0,0,1,.94,2.38c27.18,1,54.36.27,81.55,1.83,53.73,3,108.06,3,158.78,22.34,16.22,6.18,27.34,28.38,22.94,38.64-3.17,7.4-14,6.81-17.78,16.52-4,10.2,5.55,17.14,1.56,24.3-4.19,7.51-16.92,3.93-37.51,9.29a104.45,104.45,0,0,0-25.49,10.41l122.94-2.36a10.77,10.77,0,0,0,5.91-1.81A10.54,10.54,0,0,0,2500.3,1919.7Z"/><path class="cls-47" d="M2366.45,1952.45l-35,7.5-3.7.27a6.64,6.64,0,0,1-7.1-6.38l-1.54-35.7a6.64,6.64,0,0,1,6.53-7l3.72,0,35.2,4c3.37,0,6.2-1.64,6.35,1.91l1.44,33.48C2372.49,1954.05,2369.81,1952.2,2366.45,1952.45Z"/><path class="cls-48" d="M2369.11,1957.39l-38.8,2.83a6.64,6.64,0,0,1-7.1-6.38l-1.53-35.7a6.62,6.62,0,0,1,6.52-7l38.9-.52a6.5,6.5,0,0,1,6.37,6.36l1.45,33.48A6.52,6.52,0,0,1,2369.11,1957.39Z"/><path class="cls-49" d="M2314.38,1738.45s-15,12.87-16.47,22c0,0,21.18-.28,22.33,15.35,0,0-19.32-1.76-22.33,3s19.14,14.94,36.9,9.86,15.74-40.14,10.9-50.27S2314.38,1738.45,2314.38,1738.45Z"/><path class="cls-50" d="M1996.78,1368.24l7.59-81.16c11.22,1.06,241.34,26.48,327.94,219.11,43.42,96.59,29.49,187.92,21,226.8l-51.44,4.68c2.42-25.14,5.45-93.33-37.41-156.66-52.47-77.53-152.47-116.39-256-100.54Q2002.62,1424.36,1996.78,1368.24Z"/><path class="cls-51" d="M1430.64,1588.09c7.06-2.3,16.41-6.62,23.31-15.42,6-7.7,5-12.15,10.39-21.35,10.14-17.25,28.69-26.82,31.9-23.94,3,2.63-8.56,14.35-3.83,22.36,2.13,3.62,8.95,5.43,22.53,8.9,5,1.29,9.26,2.21,12.31,2.84a67.46,67.46,0,0,1-54.09,38.23Z"/><path class="cls-52" d="M807.48,1373.3c-7.92,3-128.75,51-153.59,177.16-2,10.19-21.42,118.54,52.06,195.09,82.4,85.83,241.06,83.7,304,12,14.69-16.74,22.44-35.28,26.78-50.86h0l-16.6-44.09c-20.24-24.44-47.81-30.23-62.53-33.86-36.3-9-63.7,7.22-84.49-10.28-11.5-9.69-13.78-23.62-15.83-36.07-6.95-42.41,17-68.52,18.73-94.67,1.3-19.55,8.14-62.38-17.37-90.31C842.51,1379.67,820.13,1374.85,807.48,1373.3Z"/><path class="cls-53" d="M760.4,2778.79c-1.41-7.76-26.48-14.79-38.9-4.39-6.16,5.17-10.41,15.63-6.84,20.36,1.3,1.72-4,4.74,1.08,4.8C732.63,2799.76,761.8,2786.51,760.4,2778.79Z"/><path class="cls-54" d="M734.12,2781.62,708.34,2778c11.94-14.39,9.73-60.19,9.73-60.19l27.42,6.12s-3.12,12.57-8.44,31.12C735.23,2761.38,734.42,2771.31,734.12,2781.62Z"/><path class="cls-55" d="M736.41,2778.44s-31-7.15-34.4-1-6,22.65,13.73,22.11S738.16,2783.67,736.41,2778.44Z"/><path class="cls-56" d="M1114.21,2807.91c-2.48-7.49-28.29-10.94-39.13,1.09-5.38,6-8.12,16.94-3.93,21.12,1.53,1.52-3.31,5.26,1.74,4.6C1089.64,2832.55,1116.68,2815.35,1114.21,2807.91Z"/><path class="cls-57" d="M1088.58,2814.38h-26c9.82-15.91,1.21-61,1.21-61l28,2.22s-1.33,12.88-4,32C1086.85,2794.18,1087.44,2804.13,1088.58,2814.38Z"/><path class="cls-58" d="M1156.07,1829.58a1204.56,1204.56,0,0,1,40.38,184.81c31.64,230.09-35.6,237.43-23,492.41,4,81.39-70.51,269.06-77.08,273.21a82.6,82.6,0,0,1-10.3.4,102.81,102.81,0,0,1-26.25-4.38c-11.8-2-54.37-117.3-44.5-185.84,7-48.51,5-100.57.91-204.69-.66-16.87-43.82-328.23-43.82-328.23h0c-13.13,115.25-28.23,213.18-41.32,289.1C889,2590.29,752.24,2737.93,745.11,2740.3c-1.41.56-14.24,5.22-24.73-1.69a17.08,17.08,0,0,1-6.26-7.05c-3.66-2.87,1.08-243.53,42.79-424.65,60.54-262.9,34.18-324.41,53.36-441.83C826.86,1763.47,1156.07,1829.58,1156.07,1829.58Z"/><path class="cls-59" d="M911.53,1352.78c40.2-1.18,132.59-15.37,183.47,30.42.89.79-9.54,6.36-4.4,12.38a333.35,333.35,0,0,1,35.93,51.55c10.73,19.14,20.42,41.45,30.19,74.7a641.31,641.31,0,0,1,23.84,130.32c9.3,122.33.08,178.77-8.29,217.15-36.34,18.67-130,52.07-241.57,35.48a376.81,376.81,0,0,1-120.43-39.68c29-87.66,6.24-134.57-4.48-177.8-15.28-61.66-15.53-57-28.11-106-20.76-80.81-24.17-163.38-9.9-180.28C806.24,1355.49,875.54,1353.84,911.53,1352.78Z"/><path class="cls-60" d="M1090.4,2810.92s-31.74-2.74-34.2,3.83-2.74,23.26,16.69,20S1092.87,2815.84,1090.4,2810.92Z"/><path class="cls-61" d="M1024.65,1306.7c12.45-21,6.91-45.1,5.66-50.3-5.24-21.75-7.19-25.05-11.23-29.66l-5.71-6s-.35-.27-.73-.53c-4-2.73-18.79-7.17-22-7.33-10.23-.51-31,36.15-42.94,92.65-1,2-1.93,4-2.88,6.11-5.91,12.82-11,25.42-15.33,37.71-69.09,5.85-78.68,14-79,18.63-.65,9.86,38.71,21.25,68.32,25.58,64.57,9.45,130.94-7.58,130.63-19.62-.13-5.24-13-12.07-67.7-19.24l3.84-27.17C990.06,1326.51,1015.48,1322.21,1024.65,1306.7Z"/><path class="cls-62" d="M1037.64,1210.23c-4.66,17.24-17.7,33.51-22.64,35.36a29.85,29.85,0,0,0-8.07,5.17,9,9,0,0,0-1.53,1.77c-6.68,9.87,7.21,27.28,2.57,31.26-3.36,2.89-13.86-5-16.07-2.29-2.08,2.52,6.1,11.07,3.69,14.11-1.82,2.3-7.2-1.68-12.05,1.28-2.42,1.48-2.28,3.2-5.9,8.72a56.89,56.89,0,0,1-6.41,8.21c-8.67,8.54-26.55,7.74-28.72,2.82-.6-1.38.43-2.12.51-6.16a30.94,30.94,0,0,0-1.28-8.46c-1.94-6.74-9.27-13.14-16.15-21.54-12.74-15.55-14.44-26.37-14.86-30-.14-1.29-.2-2.24-.23-2.93-.71-13.81,4.25-32.51,13-42.47,14.71-16.7,33.89-1.8,56.67-16.16,26.27-16.56,22.14-49.88,34.1-50.25C1027.49,1138.28,1046.25,1178.34,1037.64,1210.23Z"/><path class="cls-63" d="M1002.85,1278.08c-2.69-6.94-11.58-3.46-13.62,4.05s3.15,17.27,10.62,17.67S1006.45,1287.42,1002.85,1278.08Z"/><path class="cls-64" d="M823.31,1814.09,778.94,1589.6l1.67-.38c4.19,16.08,6.89,25.7,9.51,35,4,14.32,7.82,27.84,16.5,62.86,1.58,6.36,3.39,12.73,5.32,19.46,7.86,27.59,16.78,58.85,12,102Zm-37.73-199.74,37.2,188.26c3.4-39.88-5-69.4-12.49-95.59-1.93-6.75-3.75-13.13-5.33-19.52-8.68-35-12.47-48.5-16.49-62.81C787.54,1621.38,786.59,1618,785.58,1614.35Z"/><path class="cls-62" d="M1002.77,1264.59l6.41,15.38s6.41,18.46,14.87,11.54c6.91-5.66,8.18-5.15,8.41-4.78a1.07,1.07,0,0,1,0,.16c.1,0,.19-3.68.26-6.92a59.52,59.52,0,0,1,3.59,20.26c0,8.51,0,17.63-6.67,24.61-.38.4-7.65,7.79-17.43,7.44,0,0-3.85-.14-18.47-6.92,0,0,20-7.7,21-10.52,2.79-7.67-7-14.82-10.77-33.08A66.94,66.94,0,0,1,1002.77,1264.59Z"/><path class="cls-65" d="M1446.79,1566.9c14.54,10.17,22.33,24,26.37,32.81-10.68,25.08-34.92,71.66-85.09,106-82.26,56.29-202.87,58.18-286.88-6C1000.82,1623,984.05,1476,1026.21,1413c4.85-7.25,20.8-31.09,45.57-33.82,15.65-1.73,36.94,4.72,70.58,44.1,70.09,82.07,45.33,133.31,86.74,157.32C1291.2,1616.6,1383.47,1522.59,1446.79,1566.9Z"/><path class="cls-64" d="M1166.88,1734.71l-2.82-.62c-1-.21-99.31-22.8-143.52-144.76l-1.32-3.66Zm-143.36-142.26c23,61,59.6,95.65,86.46,114.09,23.65,16.22,44,23,51.45,25.1Z"/><path class="cls-66" d="M982.44,492.78,945,495.3A292,292,0,0,0,928,447l31.09-20.87A18.44,18.44,0,0,0,964,400.43L927.7,347.08a18.81,18.81,0,0,0-25.92-5.19l-31.51,21a301,301,0,0,0-38.86-33.57L848,295.23a18.75,18.75,0,0,0-8.76-25l-58.38-28.73a18.67,18.67,0,0,0-25.1,8.35l-16.73,34.22a299,299,0,0,0-50.62-10l-2.91-38.38a19.17,19.17,0,0,0-20.27-17.54L600,222a18.49,18.49,0,0,0-17.52,19.83l2.92,38.49a296.61,296.61,0,0,0-49.08,16.15l-22-32.09a19.4,19.4,0,0,0-26.53-5.31L433.17,295a18.52,18.52,0,0,0-5.05,26.1l22.08,32.1a294.86,294.86,0,0,0-34.27,38.61L380.6,374.7a19.27,19.27,0,0,0-25.69,8.54L326,441.74A18.83,18.83,0,0,0,335,467l35.08,16.84a288.3,288.3,0,0,0-9.88,50.88l-38.84,2.62a18.93,18.93,0,0,0-17.82,20.17l5,65.18a19.24,19.24,0,0,0,20.68,17.52l38.52-2.71A291.4,291.4,0,0,0,385,686.82L353.28,708a18.67,18.67,0,0,0-5.08,26.27l37.44,53.92a19.42,19.42,0,0,0,26.71,4.93L443.79,772a300.54,300.54,0,0,0,40.12,34l-16.44,33.62a18.69,18.69,0,0,0,8.94,25.14l59.47,28a19.24,19.24,0,0,0,25.45-8.89l16.21-33.3a299.23,299.23,0,0,0,51.85,9.45l2.79,36.81a18.8,18.8,0,0,0,20.33,17.22L717.67,909a18.87,18.87,0,0,0,17.41-20.14l-2.79-36.7a295.88,295.88,0,0,0,49.38-17.2l20.8,30.23A18.81,18.81,0,0,0,828.56,870L882,833.53a18.6,18.6,0,0,0,4.9-25.9L866,777.22a295.14,295.14,0,0,0,33.67-39.14l33.35,16a18.64,18.64,0,0,0,24.86-8.69l27.83-57.77a18.59,18.59,0,0,0-8.7-24.8l-33.41-16.14a288.84,288.84,0,0,0,9.29-50.36l37.17-2.62a18.44,18.44,0,0,0,17.11-19.8L1002.36,510A18.74,18.74,0,0,0,982.44,492.78ZM644.64,378c105-6.67,196.08,72,203.94,175.59S778.21,747.51,673.27,755.32c-105.57,7.85-198.07-70.68-206-175.45S539,384.69,644.64,378Z"/><path class="cls-67" d="M1251.81,910.52l-17,1.15a133.79,133.79,0,0,0-7.71-21.94l14.13-9.48a8.39,8.39,0,0,0,2.21-11.7l-16.48-24.25a8.55,8.55,0,0,0-11.78-2.35l-14.32,9.55a136.49,136.49,0,0,0-17.66-15.25l7.55-15.51a8.53,8.53,0,0,0-4-11.34l-26.54-13.06a8.48,8.48,0,0,0-11.4,3.8l-7.6,15.55a136.2,136.2,0,0,0-23-4.55l-1.32-17.45a8.72,8.72,0,0,0-9.21-8L1078,787.47a8.4,8.4,0,0,0-8,9l1.32,17.49a135.74,135.74,0,0,0-22.3,7.34l-10-14.58a8.82,8.82,0,0,0-12.06-2.42l-24.82,16.31a8.41,8.41,0,0,0-2.3,11.86l10,14.59a133,133,0,0,0-15.57,17.55l-16.06-7.76a8.76,8.76,0,0,0-11.68,3.88l-13.14,26.58a8.57,8.57,0,0,0,4.09,11.5l15.94,7.65A131.41,131.41,0,0,0,969,929.6l-17.65,1.19a8.6,8.6,0,0,0-8.1,9.17l2.25,29.62a8.75,8.75,0,0,0,9.4,8l17.5-1.23a132.88,132.88,0,0,0,7.86,22.4l-14.4,9.61a8.49,8.49,0,0,0-2.31,11.94l17,24.51a8.84,8.84,0,0,0,12.14,2.24l14.28-9.59a136.75,136.75,0,0,0,18.24,15.47l-7.47,15.28a8.48,8.48,0,0,0,4.06,11.42l27,12.73a8.74,8.74,0,0,0,11.56-4l7.37-15.13a136.41,136.41,0,0,0,23.57,4.29l1.27,16.73a8.54,8.54,0,0,0,9.24,7.83l29.61-2.34a8.58,8.58,0,0,0,7.91-9.15l-1.27-16.68a134.36,134.36,0,0,0,22.44-7.82l9.46,13.74a8.54,8.54,0,0,0,11.86,2.19l24.28-16.55a8.45,8.45,0,0,0,2.23-11.77l-9.48-13.83a134.14,134.14,0,0,0,15.3-17.78l15.16,7.27a8.47,8.47,0,0,0,11.3-4l12.64-26.25a8.44,8.44,0,0,0-4-11.27l-15.19-7.34a131.5,131.5,0,0,0,4.23-22.89l16.89-1.19a8.37,8.37,0,0,0,7.78-9l-2.21-29A8.52,8.52,0,0,0,1251.81,910.52Zm-153.52-52.17c47.73-3,89.11,32.7,92.68,79.8s-32,88.14-79.67,91.69c-48,3.57-90-32.12-93.63-79.74S1050.26,861.4,1098.29,858.35Z"/></g></g></svg>