<svg data-bx-workspace="master" xmlns="http://www.w3.org/2000/svg" xmlns:bx="https://boxy-svg.com" width="300px" height="27px" viewBox="0 0 300 27.031">
    <path style="stroke: rgb(255, 255, 255); fill: rgb(255, 255, 255); stroke-width: 0px;" d="M -0.975 28.149 L -1.609 18.009 C -1.609 18.009 41.516 6.716 79.224 7.666 C 116.932 8.616 191.367 23.713 233.194 23.079 C 275.021 22.445 302.515 15.485 302.515 15.485 L 302.209 27.811 L -0.975 28.149 Z"></path>
    <path style="stroke: rgb(0, 0, 0); stroke-width: 0px; fill: rgba(255, 255, 255, 0.26);" d="M -1.602 6.602 C -1.602 6.602 40.337 1.306 66.58 1.969 C 92.823 2.632 102.657 6.628 125.001 9.902 C 187.657 19.083 248.181 23.946 300.258 3.433 C 305.526 1.358 301.773 27.493 301.773 27.493 C 301.773 27.493 -1.933 30.146 -1.933 29.814 C -1.933 29.482 -1.27 6.933 -1.602 6.602 Z"></path>
    <path style="stroke: rgb(0, 0, 0); stroke-width: 0px; fill: rgba(255, 255, 255, 0.21);" d="M -2.287 9.045 C -2.287 9.045 112.44 20.209 143.151 19.911 C 173.862 19.613 213.913 5.458 245.61 4.311 C 277.307 3.164 304.189 11.875 304.189 11.875 L 302.818 27.493 L -1.933 29.483 L -2.287 9.045 Z"></path>
</svg>