<svg xmlns="http://www.w3.org/2000/svg" width="355.493" height="45" viewBox="0 0 355.493 45">
  <g id="Group_4" data-name="Group 4" transform="translate(-869.482 -807.874)">
    <rect id="Rectangle_443" data-name="Rectangle 443" width="355.493" height="44.897" transform="translate(869.482 807.976)" fill="none"/>
    <g id="Group_5" data-name="Group 5" transform="translate(921.429 812.884)">
      <g id="Group_4-2" data-name="Group 4">
        <path id="Path_198" data-name="Path 198" d="M902.335,813.056a.256.256,0,0,1,.26-.259h0a11.773,11.773,0,0,0,4.335-.779h0a.262.262,0,0,1,.352.114h0a.262.262,0,0,1-.119.351h0a12.047,12.047,0,0,1-4.569.833h0a.257.257,0,0,1-.26-.26Z" transform="translate(-902.129 -810.467)" fill="#1a1311"/>
        <path id="Path_199" data-name="Path 199" d="M902.205,813.917a.258.258,0,0,1,.259-.26h0c.969,0,4.247-.171,5.56-.984h0a.263.263,0,0,1,.359.089h0a.263.263,0,0,1-.089.357h0c-1.557.926-4.8,1.051-5.829,1.056h0a.256.256,0,0,1-.259-.257Z" transform="translate(-902.205 -810.087)" fill="#1a1311"/>
        <path id="Path_200" data-name="Path 200" d="M902.546,816.522c.1-1.5,2.075-1.475,2.5-1.5h0a4.771,4.771,0,0,1,1.41.257h0a13.209,13.209,0,0,1-2.191-3.23h0a.267.267,0,0,1,.122-.351h0a.265.265,0,0,1,.349.121h0a10.848,10.848,0,0,0,3.149,4.01h0a.262.262,0,0,1,.083.341h0a.262.262,0,0,1-.332.111h0a7.119,7.119,0,0,0-2.591-.741h0a4.3,4.3,0,0,0-1.2.176h0c-.471.163-.776.394-.775.8h0c-.006.4.321.635.84.8h0a5.145,5.145,0,0,0,1.376.181h0a4.583,4.583,0,0,0,2.037-.335h0a.256.256,0,0,1,.357.086h0a.26.26,0,0,1-.084.359h0a4.873,4.873,0,0,1-2.31.408h0c-.554-.03-2.629.013-2.738-1.5Z" transform="translate(-902.005 -810.65)" fill="#1a1311"/>
        <path id="Path_201" data-name="Path 201" d="M907.68,817.9v-5.937a.26.26,0,0,1,.26-.259h0a.262.262,0,0,1,.262.259h0V817.9a.263.263,0,0,1-.262.26h0a.262.262,0,0,1-.26-.26Z" transform="translate(-898.989 -810.635)" fill="#1a1311"/>
        <path id="Path_202" data-name="Path 202" d="M911.6,817.118a1.3,1.3,0,0,1-.211-.783h0a4.524,4.524,0,0,1,.335-1.521h0a4.486,4.486,0,0,0,.368-1.461h0a.76.76,0,0,0-.127-.471h0a1.081,1.081,0,0,0-.757-.3h0a2.259,2.259,0,0,0-.914.241h0c-.484.214-1.311.911-3.192,3.794h0a.263.263,0,0,1-.351.083h0a.26.26,0,0,1-.1-.345h0l1.654-3.173-1.318.1a.257.257,0,0,1-.279-.238h0a.257.257,0,0,1,.238-.278h0l1.786-.138a.272.272,0,0,1,.237.119h0a.26.26,0,0,1,.014.267h0l-.24.46a4.167,4.167,0,0,1,1.332-1.125h0a2.792,2.792,0,0,1,1.13-.282h0a1.609,1.609,0,0,1,1.135.467h0a1.238,1.238,0,0,1,.268.829h0a4.854,4.854,0,0,1-.4,1.646h0a4.1,4.1,0,0,0-.3,1.335h0c.036.468.1.6.459.622h0a1.943,1.943,0,0,0,.676-.162h0a.257.257,0,0,1,.338.146h0a.259.259,0,0,1-.144.34h0a2.4,2.4,0,0,1-.87.2h-.024a.884.884,0,0,1-.744-.36Z" transform="translate(-899.608 -810.426)" fill="#1a1311"/>
        <path id="Path_203" data-name="Path 203" d="M912.446,817.5c-.986-.6-1.127-2.143-1.148-3.462h0a11.713,11.713,0,0,1,.172-2.057h0a.266.266,0,0,1,.311-.2h0a.261.261,0,0,1,.2.311h0a11.012,11.012,0,0,0-.162,1.946h0a4.4,4.4,0,0,0,.726,2.9h0l1.351-1.31a.261.261,0,0,1,.367,0h0a.261.261,0,0,1,0,.37h0l-1.5,1.457a.265.265,0,0,1-.181.074h0a.249.249,0,0,1-.129-.033Z" transform="translate(-896.863 -810.594)" fill="#1a1311"/>
        <path id="Path_204" data-name="Path 204" d="M915.358,816.546a8.294,8.294,0,0,0-1.283-4.2h0a.26.26,0,0,1,.073-.362h0a.258.258,0,0,1,.36.075h0a8.8,8.8,0,0,1,1.37,4.448h0a.262.262,0,0,1-.238.279h0l-.024,0h0a.26.26,0,0,1-.259-.238Z" transform="translate(-895.258 -810.497)" fill="#1a1311"/>
        <path id="Path_205" data-name="Path 205" d="M916.11,817.541a12.51,12.51,0,0,1-.173-2.23h0a18.658,18.658,0,0,1,.308-3.486h0a.257.257,0,0,1,.31-.2h0a.26.26,0,0,1,.2.309h0a18.28,18.28,0,0,0-.3,3.373h0a12.006,12.006,0,0,0,.165,2.135h0a.256.256,0,0,1-.211.3h0a.342.342,0,0,1-.046.008h0a.262.262,0,0,1-.257-.213Z" transform="translate(-894.138 -810.683)" fill="#1a1311"/>
        <path id="Path_206" data-name="Path 206" d="M919.534,813.721a.264.264,0,0,1,.048-.37h0a3.719,3.719,0,0,0,.741-.791h0a4.534,4.534,0,0,0-1.673-.235h0a12.459,12.459,0,0,0-1.4.081h0a.266.266,0,0,1-.292-.232h0a.262.262,0,0,1,.232-.289h0a13.2,13.2,0,0,1,1.457-.082h0a3.512,3.512,0,0,1,2.213.5h0a.261.261,0,0,1,.038.319h0a4.41,4.41,0,0,1-1,1.138h0a.233.233,0,0,1-.159.057h0a.263.263,0,0,1-.208-.1Z" transform="translate(-893.537 -810.576)" fill="#1a1311"/>
        <path id="Path_207" data-name="Path 207" d="M917.136,815.648a.81.81,0,0,1-.419-.676h0a1.515,1.515,0,0,1,.53-.948h0a.264.264,0,0,1,.368,0h0a.26.26,0,0,1,0,.37h0c-.192.181-.394.455-.376.578h0c0,.062.011.121.173.23h0a6.085,6.085,0,0,0,2.027.289h0a5.478,5.478,0,0,0,1.735-.245h0a.258.258,0,0,1,.33.163h0a.26.26,0,0,1-.164.33h0a6.1,6.1,0,0,1-1.9.274h0a6.043,6.043,0,0,1-2.3-.367Z" transform="translate(-893.68 -809.315)" fill="#1a1311"/>
        <path id="Path_208" data-name="Path 208" d="M922.661,817.623h-.17a1.771,1.771,0,0,1-1.367-.533h0a1.537,1.537,0,0,1-.371-1.011h0v-4.156h0a.262.262,0,0,1,.26-.262h0a.261.261,0,0,1,.26.262h0v4.156h0c.027.429.2,1,1.218,1.019h0c.054,0,.111,0,.17,0h0c.633-.016,1.619-.03,3.186-2.178h0a.256.256,0,0,1,.362-.057h0a.259.259,0,0,1,.06.362h0c-1.533,2.165-2.791,2.4-3.529,2.4h-.079Z" transform="translate(-891.309 -810.66)" fill="#1a1311"/>
        <path id="Path_209" data-name="Path 209" d="M926.534,812.476a.259.259,0,0,1,.236-.282h0c.006,0,1.078-.1,2.138-.1h0c.178,0,.351,0,.524.01h0a.26.26,0,0,1,.251.271h0a.265.265,0,0,1-.272.253h0c-.164-.01-.33-.013-.5-.013h0c-1.029,0-2.087.1-2.094.1h0l0,0-.024,0h0a.261.261,0,0,1-.26-.238Z" transform="translate(-887.914 -810.404)" fill="#1a1311"/>
        <path id="Path_210" data-name="Path 210" d="M926.763,817.86a1.892,1.892,0,0,1-1.521-.592h0a1.642,1.642,0,0,1-.368-1.059h0a1.666,1.666,0,0,1,1.822-1.5h0a3.964,3.964,0,0,1,1.061.144h0c-.151-1.229-.383-3.091-.383-3.091h0a.259.259,0,0,1,.227-.29h0a.257.257,0,0,1,.291.224h0s.265,2.135.416,3.343h0a10.281,10.281,0,0,1,2.621,1.664h0a.261.261,0,0,1,.036.367h0a.265.265,0,0,1-.368.036h0a10.728,10.728,0,0,0-2.216-1.467h0c.006.03.008.056.011.079h0a2.959,2.959,0,0,1,.025.387h0a2.023,2.023,0,0,1-.319,1.151h0a1.535,1.535,0,0,1-1.31.6h-.025Zm-1.368-1.651c.032.443.162,1.108,1.368,1.129h0c.97-.017,1.1-.6,1.129-1.23h0a2.57,2.57,0,0,0-.018-.322h0c-.013-.089-.027-.213-.046-.368h0a3.6,3.6,0,0,0-1.132-.187h0c-.937,0-1.3.614-1.3.979Z" transform="translate(-888.888 -810.771)" fill="#1a1311"/>
        <path id="Path_211" data-name="Path 211" d="M933.475,812.563a6.284,6.284,0,0,0-2.616-.5h0c-.183,0-.333,0-.454,0h0a.258.258,0,0,1-.26-.26h0a.259.259,0,0,1,.26-.262h0c.106,0,.265,0,.454,0h0a6.835,6.835,0,0,1,2.83.552h0a.26.26,0,0,1,.132.345h0a.267.267,0,0,1-.24.152h0a.291.291,0,0,1-.106-.022Z" transform="translate(-885.792 -810.733)" fill="#1a1311"/>
        <path id="Path_212" data-name="Path 212" d="M930.959,816.938a.255.255,0,0,1,.246-.275h0c2.6-.14,3.6-1.24,3.6-2.281h0c0-1.014-.907-1.328-2.173-1.349h0a6.422,6.422,0,0,0-2.875.61h0a.26.26,0,0,1-.346-.129h0a.261.261,0,0,1,.13-.346h0a6.99,6.99,0,0,1,3.091-.657h0c1.294,0,2.686.4,2.694,1.871h0c0,1.434-1.388,2.681-4.1,2.8h-.011a.26.26,0,0,1-.26-.248Z" transform="translate(-886.235 -810.16)" fill="#1a1311"/>
        <path id="Path_213" data-name="Path 213" d="M939.068,817.7h-4.242a.839.839,0,0,1-.521-.143h0a.843.843,0,0,1-.3-.722h0v-4.545h0a1.09,1.09,0,0,1,.117-.54h0a.7.7,0,0,1,.63-.351h0v.519c-.2,0-.2.125-.23.371h0v4.545h0c.045.421.086.292.3.343h4.242c.186,0,.186-.029.186-.029h0a.549.549,0,0,0,.021-.192h0v-.078h0v-4.755h0c0-.189-.1-.182-.227-.206h-4.289V811.4h4.289a.736.736,0,0,1,.749.725h0v4.755h0v.078h0a.845.845,0,0,1-.113.494h0a.712.712,0,0,1-.6.249h-.017Z" transform="translate(-883.521 -810.812)" fill="#1a1311"/>
        <path id="Path_214" data-name="Path 214" d="M934.269,813.73a.26.26,0,0,1-.259-.264h0a.259.259,0,0,1,.259-.26h5.264a.264.264,0,0,1,.263.26h0a.265.265,0,0,1-.263.264h-5.264Z" transform="translate(-883.52 -809.752)" fill="#1a1311"/>
        <path id="Path_215" data-name="Path 215" d="M938.593,812.35a.263.263,0,0,1-.26-.26h0a.261.261,0,0,1,.26-.263h6.124a.262.262,0,0,1,.262.263h0a.263.263,0,0,1-.262.26h-6.124Z" transform="translate(-880.981 -810.562)" fill="#1a1311"/>
        <path id="Path_216" data-name="Path 216" d="M940.217,817.836v-6.329a.259.259,0,0,1,.262-.259h0a.258.258,0,0,1,.262.259h0v6.329a.264.264,0,0,1-.262.262h0a.265.265,0,0,1-.262-.262Z" transform="translate(-879.874 -810.902)" fill="#1a1311"/>
        <path id="Path_217" data-name="Path 217" d="M939.325,814.83a.263.263,0,0,1-.26-.262h0a.263.263,0,0,1,.26-.26h3.681a.259.259,0,0,1,.26.26h0a.26.26,0,0,1-.26.262h-3.681Z" transform="translate(-880.551 -809.104)" fill="#1a1311"/>
        <path id="Path_218" data-name="Path 218" d="M938.219,816.062a.256.256,0,0,1,.068-.362h0a8.485,8.485,0,0,0,3.151-3.715h0a.264.264,0,0,1,.341-.138h0a.261.261,0,0,1,.14.34h0a9.02,9.02,0,0,1-3.339,3.943h0v0a.258.258,0,0,1-.144.044h0a.256.256,0,0,1-.217-.116Z" transform="translate(-881.075 -810.561)" fill="#1a1311"/>
        <path id="Path_219" data-name="Path 219" d="M943.578,816.132a9.024,9.024,0,0,1-3.34-3.942h0a.264.264,0,0,1,.14-.344h0a.265.265,0,0,1,.341.14h0a8.527,8.527,0,0,0,3.153,3.715h0a.262.262,0,0,1,.068.363h0a.263.263,0,0,1-.216.114h0a.259.259,0,0,1-.146-.046Z" transform="translate(-879.874 -810.562)" fill="#1a1311"/>
        <path id="Path_220" data-name="Path 220" d="M945.872,817.338a.256.256,0,0,1,.194-.313h0c2.885-.722,2.745-2.011,2.783-2.573h0a2.2,2.2,0,0,0-2.281-2.315h0a8.014,8.014,0,0,1-1.2,4.3h0a1.392,1.392,0,0,1-1.056.6h0a1.077,1.077,0,0,1-.9-.538h0a3.229,3.229,0,0,1-.438-1.754h0a3.109,3.109,0,0,1,.462-1.767h0a3.16,3.16,0,0,1,2.869-1.375h0a3.721,3.721,0,0,1,1.76.427h0a2.572,2.572,0,0,1,1.3,2.422h0c.037.608-.1,2.4-3.184,3.081h0a.382.382,0,0,1-.06.006h0a.259.259,0,0,1-.252-.2Zm-2.006-4.056a2.639,2.639,0,0,0-.36,1.462h0a2.791,2.791,0,0,0,.346,1.461h0c.171.249.317.3.463.31h0a.918.918,0,0,0,.648-.4h0a7.688,7.688,0,0,0,1.086-3.983h0a2.546,2.546,0,0,0-2.183,1.152Z" transform="translate(-878.25 -810.694)" fill="#1a1311"/>
        <path id="Path_221" data-name="Path 221" d="M949.244,812.113v-.822a.26.26,0,0,1,.26-.26h0a.259.259,0,0,1,.26.26h0v.822a.259.259,0,0,1-.26.26h0a.259.259,0,0,1-.26-.26Z" transform="translate(-874.571 -811.03)" fill="#1a1311"/>
        <path id="Path_222" data-name="Path 222" d="M947.365,813.137v-.77h0a.8.8,0,0,1,.8-.819h4.661a2.051,2.051,0,0,1,.63.078h0a.606.606,0,0,1,.456.573h0a1.609,1.609,0,0,1-.49.967h0a.259.259,0,0,1-.368.032h0a.265.265,0,0,1-.03-.37h0a1.291,1.291,0,0,0,.368-.629h0c-.008-.036.014-.025-.1-.078h0a1.612,1.612,0,0,0-.465-.052h-4.661c-.276.008-.248.148-.273.3h0v.77h0a.263.263,0,0,1-.263.262h0a.263.263,0,0,1-.262-.262Z" transform="translate(-875.675 -810.726)" fill="#1a1311"/>
        <path id="Path_223" data-name="Path 223" d="M947.3,814.439a.263.263,0,0,1,.235-.286h0c1.73-.178,1.73-1.361,1.762-2.135h0v-.21h0a.258.258,0,0,1,.259-.26h0a.26.26,0,0,1,.262.26h0v.21h0a2.327,2.327,0,0,1-2.232,2.656h0l-.026,0h0a.262.262,0,0,1-.26-.238Z" transform="translate(-875.715 -810.726)" fill="#1a1311"/>
        <path id="Path_224" data-name="Path 224" d="M951.091,814.529c-.213,0-.409-.013-.554-.013h0c-.76-.03-.806-.8-.808-1.023h0v-1.686h0a.262.262,0,0,1,.262-.26h0a.263.263,0,0,1,.264.26h0v1.686h0a.852.852,0,0,0,.06.357h0c.056.1.071.135.222.14h0c.175,0,.365.016.554.016h0c.449,0,.806-.068.979-.432h0a.264.264,0,0,1,.351-.117h0a.259.259,0,0,1,.117.348h0a1.436,1.436,0,0,1-1.4.724h-.043Z" transform="translate(-874.286 -810.726)" fill="#1a1311"/>
        <path id="Path_225" data-name="Path 225" d="M947.783,814.255a.262.262,0,0,1-.262-.26h0a.266.266,0,0,1,.262-.263h5.458a.264.264,0,0,1,.26.263h0a.261.261,0,0,1-.26.26h-5.458Z" transform="translate(-875.583 -809.443)" fill="#1a1311"/>
        <path id="Path_226" data-name="Path 226" d="M947.569,815.515a.259.259,0,0,1-.262-.257h0a.261.261,0,0,1,.262-.26h5.988a.26.26,0,0,1,.26.26h0a.258.258,0,0,1-.26.257h-5.988Z" transform="translate(-875.709 -808.699)" fill="#1a1311"/>
        <path id="Path_227" data-name="Path 227" d="M949.26,816v-2.008a.261.261,0,0,1,.262-.26h0a.263.263,0,0,1,.26.26h0V816a.259.259,0,0,1-.26.257h0a.257.257,0,0,1-.262-.257Z" transform="translate(-874.562 -809.442)" fill="#1a1311"/>
        <path id="Path_228" data-name="Path 228" d="M952.4,812.234a.261.261,0,0,1-.264-.259h0a.26.26,0,0,1,.264-.26h5.266a.257.257,0,0,1,.259.26h0a.258.258,0,0,1-.259.259H952.4Z" transform="translate(-872.87 -810.628)" fill="#1a1311"/>
        <path id="Path_229" data-name="Path 229" d="M956.049,816.185a4.985,4.985,0,0,0-.268-2.054h0c-.156-.278-.252-.287-.527-.306h0c-.5,0-.941.221-2.75,1.753h0a.266.266,0,0,1-.357-.017h0a.266.266,0,0,1-.009-.354h0a12.688,12.688,0,0,0,2.4-3.918l0,0a.26.26,0,0,1,.33-.165h0a.262.262,0,0,1,.165.329h0a11.777,11.777,0,0,1-1.243,2.429h0a2.435,2.435,0,0,1,1.461-.576h0a1.031,1.031,0,0,1,.994.591h0a5.371,5.371,0,0,1,.322,2.292h0a.261.261,0,0,1-.259.262h0a.263.263,0,0,1-.262-.262Z" transform="translate(-872.908 -810.985)" fill="#1a1311"/>
        <path id="Path_230" data-name="Path 230" d="M953.5,816.04a.893.893,0,0,1-.41-.773h0v-.011c.106-1.651,2.645-2.235,4.378-2.275h0a.265.265,0,0,1,.26.265h0a.262.262,0,0,1-.26.259h0a7.216,7.216,0,0,0-2.594.5h0c-.789.327-1.275.787-1.262,1.256h0v.011a.355.355,0,0,0,.186.346h0a3.48,3.48,0,0,0,1.864.327h0c.433,0,.954-.024,1.575-.083h0a.263.263,0,0,1,.286.235h0a.265.265,0,0,1-.238.284h0c-.635.06-1.17.086-1.622.086h0a3.868,3.868,0,0,1-2.162-.422Z" transform="translate(-872.312 -809.884)" fill="#1a1311"/>
      </g>
    </g>
    <g id="Group_6" data-name="Group 6" transform="translate(921.335 826.632)">
      <path id="Path_231" data-name="Path 231" d="M921.551,821H903.737a1.585,1.585,0,0,0-1.591,1.6v19.529a1.582,1.582,0,0,0,.462,1.125,1.675,1.675,0,0,0,1.129.476h17.815a1.65,1.65,0,0,0,1.13-.476,1.581,1.581,0,0,0,.468-1.125V822.6a1.6,1.6,0,0,0-1.6-1.6Zm-1.38,18.677a.834.834,0,0,1-.844.838H905.965a.834.834,0,0,1-.846-.833v-6.2h15.052Zm0-9.393H905.119v-5.242a.85.85,0,0,1,.846-.849h13.362a.848.848,0,0,1,.844.849Z" transform="translate(-902.146 -818.918)" fill="#1a1311"/>
      <path id="Path_232" data-name="Path 232" d="M933.948,826.7h6.445a1.548,1.548,0,0,0,0-3.1h-9.029v-2.019a1.549,1.549,0,1,0-3.1,0v2.019h-8.7a1.548,1.548,0,1,0,0,3.1h6.118a56.644,56.644,0,0,1-8.936,11.377,1.541,1.541,0,0,0-.079,2.138,1.48,1.48,0,0,0,1.081.467,1.574,1.574,0,0,0,1.083-.281,61.86,61.86,0,0,0,9.436-12.865v9.744h-5.485a1.452,1.452,0,1,0,0,2.9h5.485v3.8a1.549,1.549,0,0,0,3.1,0v-3.8h5.481a1.452,1.452,0,0,0,0-2.9h-5.481v-9.744A61.8,61.8,0,0,0,940.8,840.4a1.57,1.57,0,0,0,1.081.281,1.486,1.486,0,0,0,1.083-.467,1.538,1.538,0,0,0-.079-2.138A56.422,56.422,0,0,1,933.948,826.7Z" transform="translate(-893.846 -819.488)" fill="#1a1311"/>
      <path id="Path_233" data-name="Path 233" d="M956.921,836.028h-8.933v-4.107h7.5a1.587,1.587,0,0,0,0-3.173H937.346a1.587,1.587,0,0,0,0,3.173h7.474v4.107h-8.909a1.534,1.534,0,0,0,0,3.069h21.01a1.534,1.534,0,0,0,0-3.069Z" transform="translate(-883.211 -814.369)" fill="#1a1311"/>
      <path id="Path_234" data-name="Path 234" d="M935.8,833.4a1.835,1.835,0,0,0,.254-.024c3.859-.54,6.272-1.878,7.56-3.654a7.3,7.3,0,0,0,1.314-4.231H948.1v4.77c0,1.653.429,2.6,2.873,2.6h5.494a1.487,1.487,0,0,0,1.368-.889,8.466,8.466,0,0,0,.74-3.062,1.481,1.481,0,0,0-1.087-1.418,8.258,8.258,0,0,0,.813-3.323,1.453,1.453,0,0,0-1.448-1.579h-8.82v-1.019a1.585,1.585,0,1,0-3.17,0v1.019H936.4a1.456,1.456,0,0,0-1.448,1.451v3.981a1.451,1.451,0,0,0,2.9,0h0V825.49h3.78a4.454,4.454,0,0,1-.737,2.51c-.656.889-1.994,1.857-5.35,2.357a1.533,1.533,0,0,0-1.37,1.743A1.605,1.605,0,0,0,935.8,833.4Zm15.3-7.909,4.063,0a4.485,4.485,0,0,1-.635,1.343c-.462.649-.118,1.368.54,1.83a1.948,1.948,0,0,0,.475.254,1.307,1.307,0,0,1-1.237.933H952.2a1.1,1.1,0,0,1-1.1-1.1Z" transform="translate(-883.343 -819.525)" fill="#1a1311"/>
      <path id="Path_235" data-name="Path 235" d="M969.795,820.356H958.528a1.3,1.3,0,0,0-1.308,1.3v15.357c0,3.213-.171,3.818-.5,4.937s-.6,2.2.138,2.608,1.213.035,1.46-.776a25.687,25.687,0,0,0,1.059-6.769s.017-2.508.041-5.413h9.425v10.161h-1.594a1.151,1.151,0,0,0,.078-.389v-6.953a1.264,1.264,0,0,0-.365-.89,1.306,1.306,0,0,0-.892-.36h-4.426a1.247,1.247,0,0,0-1.257,1.251v6.953a1.3,1.3,0,0,0,.37.884,1.283,1.283,0,0,0,.887.359h3.862a1.3,1.3,0,0,0,1.216,1.779l3.069-.006a1.326,1.326,0,0,0,1.3-1.31V821.659a1.312,1.312,0,0,0-.381-.927A1.328,1.328,0,0,0,969.795,820.356ZM965.234,839.9a.429.429,0,0,1-.424.424h-1.841a.43.43,0,0,1-.422-.424v-4.005a.424.424,0,0,1,.422-.421h1.841a.427.427,0,0,1,.424.424Zm-2.389-10.714h-3.407c0-.662.008-1.307.011-1.927h3.4Zm0-4.345h-3.381c0-.97.006-1.678,0-1.91h3.378Zm6,4.345h-3.583v-1.927h3.583Zm0-4.345h-3.583v-1.91h3.583Z" transform="translate(-870.279 -819.299)" fill="#1a1311"/>
      <path id="Path_236" data-name="Path 236" d="M952.211,822.877h5.642a1.214,1.214,0,1,0,0-2.429h-5.642a1.214,1.214,0,0,0,0,2.429Z" transform="translate(-873.447 -819.245)" fill="#1a1311"/>
      <path id="Path_237" data-name="Path 237" d="M957.716,825.172h-5.378a1.226,1.226,0,1,0,0,2.453h5.378a1.226,1.226,0,0,0,0-2.453Z" transform="translate(-873.381 -816.47)" fill="#1a1311"/>
      <path id="Path_238" data-name="Path 238" d="M957.716,827.438h-5.378a1.226,1.226,0,1,0,0,2.451h5.378a1.226,1.226,0,1,0,0-2.451Z" transform="translate(-873.381 -815.139)" fill="#1a1311"/>
      <path id="Path_239" data-name="Path 239" d="M958.575,822.7h-6.742a1.217,1.217,0,0,0,0,2.433h6.742a1.217,1.217,0,0,0,0-2.433Z" transform="translate(-873.669 -817.924)" fill="#1a1311"/>
      <path id="Path_240" data-name="Path 240" d="M957.5,829.683h-5.074a1.361,1.361,0,0,0-.962.4,1.386,1.386,0,0,0-.394.965v6.309a1.323,1.323,0,0,0,1.356,1.354H957.5a1.374,1.374,0,0,0,.956-.384,1.39,1.39,0,0,0,.394-.97v-6.309a1.372,1.372,0,0,0-.394-.965A1.357,1.357,0,0,0,957.5,829.683Zm-.787,6.38a.415.415,0,0,1-.422.408h-2.635a.414.414,0,0,1-.422-.4V832.2a.417.417,0,0,1,.422-.408h2.635a.418.418,0,0,1,.422.414Z" transform="translate(-873.404 -813.82)" fill="#1a1311"/>
      <path id="Path_241" data-name="Path 241" d="M1051.46,840.9a46.069,46.069,0,0,1-5.479-9.142h4.2a1.269,1.269,0,0,0,0-2.538H1045.1v-3.2h4.785a1.268,1.268,0,1,0,0-2.535H1045.1v-2.3a1.376,1.376,0,1,0-2.751,0v2.3h-2.23c.1-.437.194-.867.252-1.354a1.45,1.45,0,0,0-1.148-1.653,1.375,1.375,0,0,0-1.511,1.275,9.774,9.774,0,0,1-1.422,4.177,1.3,1.3,0,0,0-1.29-1.216h-1.381V821.4a1.5,1.5,0,0,0-3.008,0v3.319h-2.086a1.322,1.322,0,0,0,0,2.645h1.962a36.284,36.284,0,0,1-3.612,9.333,1.2,1.2,0,0,0,.437,1.63,1.172,1.172,0,0,0,.6.159,1.185,1.185,0,0,0,1.032-.6,33.229,33.229,0,0,0,1.67-3.386v8.406a1.5,1.5,0,1,0,3.008,0v-9.593l1.254,2.022a1.213,1.213,0,0,0,.984.575,1.232,1.232,0,0,0,1.121-1.892l-3.359-5.412v-1.243h1.381a1.277,1.277,0,0,0,.8-.3,1.5,1.5,0,0,0,.5,1.332,1.244,1.244,0,0,0,.765.3,1.317,1.317,0,0,0,1.116-.576,12.116,12.116,0,0,0,1.146-2.094h3.027v3.2h-5.072a1.269,1.269,0,0,0,0,2.538h3.972a45.972,45.972,0,0,1-5.477,9.142h0a1.248,1.248,0,0,0,.089,1.741,1.135,1.135,0,0,0,.809.33,1.172,1.172,0,0,0,.9-.411,41.636,41.636,0,0,0,4.786-7.521V843.4a1.376,1.376,0,1,0,2.751,0v-7.958a40.26,40.26,0,0,0,4.569,7.116,1.179,1.179,0,0,0,.9.411,1.138,1.138,0,0,0,.814-.33,1.248,1.248,0,0,0,.087-1.741Z" transform="translate(-828.968 -819.617)" fill="#1a1311"/>
      <path id="Path_242" data-name="Path 242" d="M1056.109,834.178c0,.006-1.991.749-3.983,1.356v-6.772h3.3a1.409,1.409,0,0,0,0-2.818h-9.558a1.409,1.409,0,0,0,0,2.818h3.545v7.5c-2.037.465-4.036.786-4.037.792a1.653,1.653,0,0,0,.27,3.283,1.6,1.6,0,0,0,.27-.024c.022-.006,2.977-.5,5.556-1.165,2.616-.682,5.775-1.873,5.8-1.884a1.647,1.647,0,0,0-1.164-3.081Z" transform="translate(-818.813 -816.016)" fill="#1a1311"/>
      <path id="Path_243" data-name="Path 243" d="M1067.209,835.028a1.656,1.656,0,0,0-1.727,1.584,16.842,16.842,0,0,1-.172,1.934c-.249,1.249-.806,1.124-1.118.773a21.008,21.008,0,0,1-2.68-7.371c-.368-1.8-.617-3.618-.784-5.245h6.464a1.452,1.452,0,1,0,0-2.9h-1.481a1.437,1.437,0,0,0,.171-2.462l-1.924-1.378a1.454,1.454,0,1,0-1.692,2.364l1.934,1.381a1.424,1.424,0,0,0,.189.1h-3.9c-.061-1.041-.084-1.857-.083-2.261a1.645,1.645,0,1,0-3.289,0h-.006c0,.453.024,1.257.079,2.261h-11.957a1.452,1.452,0,1,0,0,2.9h12.182a58.778,58.778,0,0,0,.868,5.929c1.063,4.785,2.572,9.925,6.834,11.655a1.67,1.67,0,0,0,1.843-.518c1.226-1.687,1.618-4.077,1.808-7A1.66,1.66,0,0,0,1067.209,835.028Z" transform="translate(-818.938 -819.69)" fill="#1a1311"/>
      <path id="Path_244" data-name="Path 244" d="M1084.521,826.236l0,0a38.534,38.534,0,0,1-7.483-3.751,23.435,23.435,0,0,1-1.914-1.524c-.413-.365-.573-.543-.576-.536a1.669,1.669,0,0,0-1.183-.5h-.773a1.65,1.65,0,0,0-1.183.5s-.16.171-.579.536a36.616,36.616,0,0,1-9.8,5.929,1.649,1.649,0,0,0,.646,3.165,1.583,1.583,0,0,0,.637-.132c1.157-.492,2.2-1,3.184-1.5a1.284,1.284,0,0,0-.063.316,1.4,1.4,0,0,0,1.4,1.4h12.182a1.392,1.392,0,0,0,1.044-2.321c.962.47,2,.949,3.173,1.451a1.647,1.647,0,0,0,1.291-3.031Zm-5.508,1.089h-11.522a35.576,35.576,0,0,0,5.483-3.869,30.572,30.572,0,0,0,6.128,3.888C1079.071,827.343,1079.044,827.325,1079.013,827.325Z" transform="translate(-809.4 -819.556)" fill="#1a1311"/>
      <path id="Path_245" data-name="Path 245" d="M1084.509,837.388c-.079-.062-3.244-4.372-5.505-5.937a1.573,1.573,0,0,0-1.735,2.624,8.434,8.434,0,0,1,1.281,1.137l-10.239.675,2.721-5.242h12.006a1.451,1.451,0,1,0,0-2.9H1061.91a1.451,1.451,0,1,0,0,2.9h5.586l-2.842,5.48-2.349.154a1.455,1.455,0,0,0,.108,2.905c.035,0,.071,0,.109-.008l18.177-1.2a1.383,1.383,0,0,0,.22-.063c.645.792,1.092,1.387,1.092,1.387a1.571,1.571,0,0,0,2.5-1.906Z" transform="translate(-809.145 -814.959)" fill="#1a1311"/>
      <path id="Path_246" data-name="Path 246" d="M1100.972,840.806H1096.7v-13.22h3.769a1.5,1.5,0,0,0,0-3.005H1096.7v-3.162a1.548,1.548,0,1,0-3.1,0v3.162h-3.17a1.487,1.487,0,0,0-1.41,1.034,1.515,1.515,0,0,0-.5-.791.3.3,0,0,1-.027-.022,1.279,1.279,0,0,0-.206-.176.6.6,0,0,0-.11-.035,1.354,1.354,0,0,0-.424-.14c-.025,0-.049-.011-.076-.014a1.412,1.412,0,0,0-.156-.032h-2.6v-3.213a1.4,1.4,0,0,0-2.805,0V824.4h-2.934a1.4,1.4,0,1,0,0,2.807h5.7a36.311,36.311,0,0,1-2.373,2.988,61.69,61.69,0,0,1-5.277,5.4,1.544,1.544,0,0,0-.171,2.183,1.579,1.579,0,0,0,1.178.546,1.6,1.6,0,0,0,1.006-.378c.765-.652,1.608-1.473,2.453-2.33v7.829a1.4,1.4,0,1,0,2.8,0v-9.2l3.343,2.886a1.451,1.451,0,1,0,1.808-2.27l-4.061-3.507a31.052,31.052,0,0,0,3.283-4.62,1.361,1.361,0,0,0,.116-.354,1.483,1.483,0,0,0,1.443,1.206h3.17v13.22h-5.419a1.5,1.5,0,1,0,0,3h12.782a1.5,1.5,0,1,0,0-3Z" transform="translate(-799.602 -819.631)" fill="#1a1311"/>
      <path id="Path_247" data-name="Path 247" d="M974.31,830.951a3.258,3.258,0,0,0,1.456.476,1.683,1.683,0,0,0,1.532-1.753c0-1.259-.946-1.656-3.23-2.616a24.083,24.083,0,0,0-5.6-1.786,1.553,1.553,0,0,0-1.533,1.643c0,1.076.946,1.413,1.875,1.743A50.132,50.132,0,0,1,974.31,830.951Z" transform="translate(-864.083 -816.41)" fill="#1a1311"/>
      <path id="Path_248" data-name="Path 248" d="M970.24,824.2a50.907,50.907,0,0,1,5.5,2.318,3.163,3.163,0,0,0,1.451.452l.038,0h0a1.375,1.375,0,0,0,1.107-.59,2,2,0,0,0,.389-1.162c0-1.238-.945-1.641-3.23-2.616a24.284,24.284,0,0,0-5.6-1.786,1.554,1.554,0,0,0-1.5,1.667C968.4,823.582,969.419,823.923,970.24,824.2Z" transform="translate(-863.227 -819.029)" fill="#1a1311"/>
      <path id="Path_249" data-name="Path 249" d="M988.126,823.723c-.727,0-1.14.348-1.522,1.291l-.013.033a25.949,25.949,0,0,1-2.924,5.844c-1.053,1.576-4.258,6.378-13.743,7.65-.846.119-2.126.3-2.126,1.694a2.112,2.112,0,0,0,.419,1.262,1.642,1.642,0,0,0,1.364.545,24.16,24.16,0,0,0,13.568-5.529c4.6-4.005,6.9-10.209,6.9-11.2C990.046,824.056,988.84,823.723,988.126,823.723Z" transform="translate(-863.577 -817.321)" fill="#1a1311"/>
      <path id="Path_250" data-name="Path 250" d="M999.66,824.393h17.122a1.576,1.576,0,1,0,0-3.15H999.66a1.432,1.432,0,0,0-1.643,1.589C998.017,823.87,998.568,824.393,999.66,824.393Z" transform="translate(-845.825 -818.777)" fill="#1a1311"/>
      <path id="Path_251" data-name="Path 251" d="M1021.258,827.538a1.43,1.43,0,0,0-1.641-1.559H998.371c-1.38,0-1.67.848-1.67,1.559s.291,1.562,1.67,1.562h9.685c-.265,5.505-2.257,7.9-7.568,9.125-.8.168-1.589.417-1.589,1.448a1.711,1.711,0,0,0,1.645,1.808,15.112,15.112,0,0,0,5.61-1.9c4.872-2.851,5.235-7.915,5.38-10.476h8.082A1.432,1.432,0,0,0,1021.258,827.538Z" transform="translate(-846.598 -815.996)" fill="#1a1311"/>
      <path id="Path_252" data-name="Path 252" d="M1028.483,830.055c-.487,0-1.753.263-1.753,1.476a2.087,2.087,0,0,0,.38,1.165,48.614,48.614,0,0,1,2.838,5.472c-7.467.956-8.437,1.075-12.8,1.459,1.633-4.011,2.848-7.251,3.926-10.482a67.276,67.276,0,0,0,2.1-7.017c0-1.191-1.367-1.5-2.089-1.5-1.157,0-1.5.886-1.722,1.718a144.541,144.541,0,0,1-5.84,17.55l-.025.062a5.23,5.23,0,0,0-1.9.287,1.482,1.482,0,0,0-.653,1.351,1.561,1.561,0,0,0,1.727,1.752c1.021,0,14.076-1.548,18.478-2.333a15.647,15.647,0,0,0,.921,2.376,1.323,1.323,0,0,0,1.344.692,1.754,1.754,0,0,0,1.921-1.641c0-1.841-3.958-9.18-4-9.252C1029.657,830.193,1029.2,830.055,1028.483,830.055Z" transform="translate(-838.232 -819.142)" fill="#1a1311"/>
      <path id="Path_253" data-name="Path 253" d="M996.713,832.514a22.876,22.876,0,0,0,3.71-9.3,1.792,1.792,0,0,0-.46-1.491,1.513,1.513,0,0,0-1.226-.663H984.8a1.627,1.627,0,0,0,0,3.253h11.892c-1.454,5.739-5.25,10.895-14.427,15.672a1.822,1.822,0,0,0-.765,2.4,1.691,1.691,0,0,0,2.288.8,36.867,36.867,0,0,0,10.887-8.047l7.463,7.656a1.624,1.624,0,0,0,2.329.025,1.637,1.637,0,0,0,.027-2.324Z" transform="translate(-855.636 -818.887)" fill="#1a1311"/>
    </g>
    <g id="Group_7" data-name="Group 7" transform="translate(870.298 807.874)">
      <path id="Path_254" data-name="Path 254" d="M901.209,834.246a22.838,22.838,0,0,1-9.687-2.273l-2.5-1.406A18.468,18.468,0,0,0,870,832.678v7.872h45V829.858a22.838,22.838,0,0,1-13.5,4.391C901.4,834.249,901.306,834.248,901.209,834.246Z" transform="translate(-869.996 -795.55)" fill="#0099e7"/>
      <path id="Path_255" data-name="Path 255" d="M901.209,827.444a22.862,22.862,0,0,1-9.687-2.272l-2.5-1.411A18.464,18.464,0,0,0,870,825.874v4.389a23.764,23.764,0,0,1,11.252-2.816c.262,0,.526,0,.786.014a23.735,23.735,0,0,1,9.641,2.381l2.489,1.4A17.545,17.545,0,0,0,915,826.511v-3.453a22.846,22.846,0,0,1-13.5,4.388C901.4,827.446,901.306,827.446,901.209,827.444Z" transform="translate(-869.996 -799.548)" fill="#0099e7"/>
      <path id="Path_256" data-name="Path 256" d="M901.209,820.642a22.859,22.859,0,0,1-9.687-2.272l-2.5-1.41A18.448,18.448,0,0,0,870,819.072v4.389a23.727,23.727,0,0,1,11.252-2.815c.262,0,.526,0,.786.014a23.758,23.758,0,0,1,9.641,2.378l2.489,1.4A17.559,17.559,0,0,0,915,819.709v-3.454a22.837,22.837,0,0,1-13.5,4.389Z" transform="translate(-869.996 -803.545)" fill="#0099e7"/>
      <path id="Path_257" data-name="Path 257" d="M870,807.874v9.115a23.746,23.746,0,0,1,11.252-2.816c.262,0,.526.006.786.016a23.7,23.7,0,0,1,9.641,2.38l2.489,1.4A17.567,17.567,0,0,0,915,813.235v-5.361Z" transform="translate(-869.996 -807.874)" fill="#0099e7"/>
    </g>
  </g>
</svg>
